<?xml version="1.0" encoding="UTF-8"?>
<svg xmlns="http://www.w3.org/2000/svg" xmlns:xlink="http://www.w3.org/1999/xlink" width="720pt" height="720pt" viewBox="0 0 720 720" version="1.1">
<defs>
<clipPath id="clip1">
  <path d="M 14.285156 0 L 720 0 L 720 706 L 14.285156 706 Z "/>
</clipPath>
</defs>
<g id="surface81">
<rect x="0" y="0" width="720" height="720" style="fill:rgb(100%,100%,100%);fill-opacity:1;stroke:none;"/>
<rect x="0" y="0" width="720" height="720" style="fill:rgb(100%,100%,100%);fill-opacity:1;stroke:none;"/>
<path style="fill:none;stroke-width:1.062992;stroke-linecap:round;stroke-linejoin:round;stroke:rgb(100%,100%,100%);stroke-opacity:1;stroke-miterlimit:10;" d="M 0 720 L 720 720 L 720 0 L 0 0 Z "/>
<g clip-path="url(#clip1)" clip-rule="nonzero">
<path style=" stroke:none;fill-rule:nonzero;fill:rgb(100%,100%,100%);fill-opacity:1;" d="M 14.285156 705.714844 L 720 705.714844 L 720 0 L 14.285156 0 Z "/>
</g>
<path style="fill:none;stroke-width:0.425197;stroke-linecap:butt;stroke-linejoin:round;stroke:rgb(7.45098%,16.862745%,26.27451%);stroke-opacity:1;stroke-miterlimit:1;" d="M 214.855469 376.921875 L 213.90625 375.539062 L 210.886719 369.058594 L 209.578125 362.578125 L 209.5625 356.097656 L 210.59375 349.617188 L 212.734375 343.136719 L 214.855469 339.136719 L 217.230469 336.65625 L 221.335938 333.441406 L 227.816406 332.625 L 234.296875 334.851562 L 237.25 336.65625 L 240.777344 339.132812 L 246.320312 343.136719 L 247.257812 344.128906 L 253.738281 348.8125 L 257.066406 349.617188 L 260.21875 351.609375 L 261.433594 349.617188 L 266.699219 345.480469 L 267.488281 343.136719 L 270.292969 336.65625 L 273.179688 330.953125 L 273.410156 330.175781 L 275.851562 323.695312 L 279.339844 317.214844 L 279.65625 316.683594 L 282.101562 310.734375 L 284.550781 304.253906 L 286.136719 298.890625 L 286.332031 297.773438 L 287.1875 291.292969 L 288.023438 284.8125 L 289.035156 278.332031 L 290.34375 271.851562 L 291.945312 265.371094 L 292.617188 262.722656 L 293.488281 258.890625 L 295 252.410156 L 296.742188 245.929688 L 299.097656 239.46875 L 299.105469 239.449219 L 302.578125 232.96875 L 305.578125 229.160156 L 308.636719 226.488281 L 312.058594 224.03125 L 318.539062 221.359375 L 324.433594 220.007812 L 325.019531 219.871094 L 331.5 218.535156 L 337.980469 217.195312 L 344.460938 215.9375 L 350.941406 214.910156 L 357.421875 214.179688 L 363.902344 213.789062 L 370.382812 213.882812 L 376.863281 214.667969 L 383.34375 216.226562 L 389.824219 218.121094 L 396.304688 219.523438 L 400.609375 220.007812 L 402.785156 220.1875 L 409.265625 220.707031 L 415.746094 221.808594 L 422.226562 223.980469 L 426.820312 226.488281 L 428.707031 227.429688 L 435.1875 231.84375 L 436.558594 232.96875 L 441.667969 237.234375 L 443.96875 239.449219 L 448.148438 243.75 L 450.117188 245.929688 L 454.628906 251.441406 L 455.425781 252.410156 L 460.40625 258.890625 L 461.109375 259.871094 L 465.546875 265.371094 L 467.589844 268.171875 L 470.867188 271.851562 L 474.070312 276.128906 L 476.15625 278.332031 L 480.304688 284.8125 L 480.550781 285.457031 L 483.285156 291.292969 L 484.207031 297.773438 L 483.835938 304.253906 L 482.367188 310.734375 L 480.550781 315.257812 L 479.898438 317.214844 L 476.773438 323.695312 L 474.070312 327.96875 L 472.597656 330.175781 L 468.015625 336.65625 L 467.589844 337.3125 L 463.910156 343.136719 L 461.109375 348.898438 L 460.816406 349.617188 L 458.933594 356.097656 L 457.386719 362.578125 L 455.765625 369.058594 L 454.628906 372.964844 L 454.058594 375.539062 L 452.472656 382.019531 L 450.75 388.5 L 449.019531 394.980469 L 448.148438 398.636719 L 447.621094 401.460938 L 446.566406 407.941406 L 445.421875 414.421875 L 443.820312 420.902344 L 441.667969 426.421875 L 441.351562 427.382812 L 438.253906 433.863281 L 435.1875 438.171875 L 433.695312 440.34375 L 428.707031 445.882812 L 427.796875 446.820312 L 422.226562 451.925781 L 420.414062 453.300781 L 415.746094 456.964844 L 410.902344 459.78125 L 409.265625 460.910156 L 402.785156 464.171875 L 396.304688 466.027344 L 394.371094 466.261719 L 389.824219 467.058594 L 383.34375 466.777344 L 381.042969 466.261719 L 376.863281 465.574219 L 370.382812 463.949219 L 363.902344 462.121094 L 357.421875 460.425781 L 353.898438 459.78125 L 350.941406 459.324219 L 344.460938 459 L 337.980469 459.476562 L 335.945312 459.78125 L 331.5 460.550781 L 325.019531 461.46875 L 318.539062 461.527344 L 312.058594 460.277344 L 310.882812 459.78125 L 305.578125 458.027344 L 299.097656 454.332031 L 297.632812 453.300781 L 292.617188 449.808594 L 288.976562 446.820312 L 286.136719 444.015625 L 282.605469 440.34375 L 279.65625 435.652344 L 278.449219 433.863281 L 275.691406 427.382812 L 274.425781 420.902344 L 274.011719 414.421875 L 274.050781 407.941406 L 274.238281 401.460938 L 274.265625 394.980469 L 273.851562 388.5 L 273.179688 384 L 272.664062 382.019531 L 270.152344 375.539062 L 267.226562 369.058594 L 266.699219 367.582031 L 260.609375 362.578125 L 260.21875 361.773438 L 258.917969 362.578125 L 253.738281 363.585938 L 247.257812 368.414062 L 246.714844 369.058594 L 240.777344 374.855469 L 240.09375 375.539062 L 234.296875 381.34375 L 232.675781 382.019531 L 227.816406 383.945312 L 221.335938 382.222656 L 221.078125 382.019531 L 214.855469 376.921875 "/>
<path style="fill:none;stroke-width:0.425197;stroke-linecap:butt;stroke-linejoin:round;stroke:rgb(9.803922%,21.568627%,32.54902%);stroke-opacity:1;stroke-miterlimit:1;" d="M 286.136719 420.144531 L 285.3125 414.421875 L 285.265625 407.941406 L 285.726562 401.460938 L 286.136719 396.328125 L 286.234375 394.980469 L 286.328125 388.5 L 286.136719 386.085938 L 285.761719 382.019531 L 284.601562 375.539062 L 283.292969 369.058594 L 282.238281 362.578125 L 281.648438 356.097656 L 281.617188 349.617188 L 282.207031 343.136719 L 283.519531 336.65625 L 285.703125 330.175781 L 286.136719 329.171875 L 288.167969 323.695312 L 290.707031 317.214844 L 292.617188 311.390625 L 292.777344 310.734375 L 293.789062 304.253906 L 294.449219 297.773438 L 295.117188 291.292969 L 296.09375 284.8125 L 297.621094 278.332031 L 299.097656 273.792969 L 299.789062 271.851562 L 302.476562 265.371094 L 305.515625 258.890625 L 305.578125 258.742188 L 308.917969 252.410156 L 312.058594 246.773438 L 312.636719 245.929688 L 318.332031 239.449219 L 318.539062 239.277344 L 325.019531 234.539062 L 327.230469 232.96875 L 331.5 230.671875 L 337.980469 227.535156 L 340.660156 226.488281 L 344.460938 225.015625 L 350.941406 223.179688 L 357.421875 222.175781 L 363.902344 221.933594 L 370.382812 222.566406 L 376.863281 224.296875 L 382.234375 226.488281 L 383.34375 226.945312 L 389.824219 229.203125 L 396.304688 230.273438 L 402.785156 230.398438 L 409.265625 230.699219 L 415.746094 232.007812 L 418.089844 232.96875 L 422.226562 234.5625 L 428.707031 238.542969 L 429.878906 239.449219 L 435.1875 243.726562 L 437.542969 245.929688 L 441.667969 250.074219 L 443.824219 252.410156 L 448.148438 257.558594 L 449.238281 258.890625 L 454.0625 265.371094 L 454.628906 266.203125 L 458.699219 271.851562 L 461.109375 275.574219 L 463.089844 278.332031 L 467.019531 284.8125 L 467.589844 286.035156 L 470.191406 291.292969 L 471.839844 297.773438 L 471.972656 304.253906 L 470.5625 310.734375 L 467.589844 317.0625 L 467.5 317.214844 L 462.328125 323.695312 L 461.109375 325.089844 L 455.640625 330.175781 L 454.628906 331.363281 L 450.527344 336.65625 L 448.148438 342.355469 L 447.898438 343.136719 L 446.867188 349.617188 L 446.339844 356.097656 L 445.792969 362.578125 L 444.960938 369.058594 L 443.742188 375.539062 L 442.121094 382.019531 L 441.667969 383.613281 L 440.484375 388.5 L 438.820312 394.980469 L 437.21875 401.460938 L 435.769531 407.941406 L 435.1875 410.539062 L 434.414062 414.421875 L 432.761719 420.902344 L 430.195312 427.382812 L 428.707031 429.933594 L 426.460938 433.863281 L 422.226562 439.074219 L 421.078125 440.34375 L 415.746094 445.164062 L 413.371094 446.820312 L 409.265625 449.59375 L 402.785156 452.585938 L 400.191406 453.300781 L 396.304688 454.542969 L 389.824219 455.28125 L 383.34375 454.796875 L 377.019531 453.300781 L 376.863281 453.269531 L 370.382812 451.277344 L 363.902344 448.929688 L 358.324219 446.820312 L 357.421875 446.457031 L 350.941406 444.421875 L 344.460938 443.65625 L 337.980469 444.773438 L 332.125 446.820312 L 331.5 447.03125 L 325.019531 449.195312 L 318.539062 450.050781 L 312.058594 449.257812 L 306.203125 446.820312 L 305.578125 446.578125 L 299.097656 442.230469 L 297 440.34375 L 292.617188 435.285156 L 291.496094 433.863281 L 288.011719 427.382812 L 286.226562 420.902344 L 286.136719 420.144531 "/>
<path style="fill:none;stroke-width:0.425197;stroke-linecap:butt;stroke-linejoin:round;stroke:rgb(12.156863%,26.27451%,39.215686%);stroke-opacity:1;stroke-miterlimit:1;" d="M 292.617188 372.714844 L 291.683594 369.058594 L 290.292969 362.578125 L 289.46875 356.097656 L 289.328125 349.617188 L 289.957031 343.136719 L 291.46875 336.65625 L 292.617188 333.425781 L 293.753906 330.175781 L 296.222656 323.695312 L 298.261719 317.214844 L 299.097656 313.046875 L 299.488281 310.734375 L 300.070312 304.253906 L 300.503906 297.773438 L 301.195312 291.292969 L 302.507812 284.8125 L 304.742188 278.332031 L 305.578125 276.492188 L 308.476562 271.851562 L 312.058594 266.863281 L 313.496094 265.371094 L 318.539062 259.367188 L 318.863281 258.890625 L 322.855469 252.410156 L 325.019531 249.445312 L 326.980469 245.929688 L 331.5 240.816406 L 332.660156 239.449219 L 337.980469 235.117188 L 341.46875 232.96875 L 344.460938 231.367188 L 350.941406 228.984375 L 357.421875 227.855469 L 363.902344 227.78125 L 370.382812 228.882812 L 376.863281 231.445312 L 379.800781 232.96875 L 383.34375 235.003906 L 389.824219 238.023438 L 396.304688 239.019531 L 402.785156 238.683594 L 409.265625 238.664062 L 413.167969 239.449219 L 415.746094 239.957031 L 422.226562 242.84375 L 426.703125 245.929688 L 428.707031 247.421875 L 434.199219 252.410156 L 435.1875 253.40625 L 440.214844 258.890625 L 441.667969 260.671875 L 445.363281 265.371094 L 448.148438 269.417969 L 449.839844 271.851562 L 453.800781 278.332031 L 454.628906 279.917969 L 457.378906 284.8125 L 460.25 291.292969 L 461.109375 294.707031 L 461.859375 297.773438 L 461.554688 304.253906 L 461.109375 305.5 L 458.347656 310.734375 L 454.628906 314.6875 L 451.269531 317.214844 L 448.148438 319.476562 L 442.996094 323.695312 L 441.667969 325.195312 L 438.367188 330.175781 L 436.316406 336.65625 L 435.898438 343.136719 L 436.355469 349.617188 L 436.984375 356.097656 L 437.289062 362.578125 L 437.03125 369.058594 L 436.148438 375.539062 L 435.1875 379.757812 L 434.710938 382.019531 L 432.914062 388.5 L 430.875 394.980469 L 428.933594 401.460938 L 428.707031 402.40625 L 427.332031 407.941406 L 425.964844 414.421875 L 424.242188 420.902344 L 422.226562 425.652344 L 421.457031 427.382812 L 417.074219 433.863281 L 415.746094 435.304688 L 409.886719 440.34375 L 409.265625 440.796875 L 402.785156 444.132812 L 396.304688 445.925781 L 389.824219 446.34375 L 383.34375 445.472656 L 376.863281 443.542969 L 370.382812 440.886719 L 369.203125 440.34375 L 363.902344 437.265625 L 358.066406 433.863281 L 357.421875 433.316406 L 350.941406 429.738281 L 344.460938 429.394531 L 337.980469 432.140625 L 335.675781 433.863281 L 331.5 436.28125 L 325.019531 439.777344 L 323.003906 440.34375 L 318.539062 441.46875 L 312.058594 440.90625 L 310.789062 440.34375 L 305.578125 437.894531 L 300.9375 433.863281 L 299.097656 431.679688 L 296.253906 427.382812 L 293.851562 420.902344 L 292.917969 414.421875 L 293.074219 407.941406 L 293.980469 401.460938 L 295.085938 394.980469 L 295.5625 388.5 L 294.886719 382.019531 L 293.378906 375.539062 L 292.617188 372.714844 "/>
<path style="fill:none;stroke-width:0.425197;stroke-linecap:butt;stroke-linejoin:round;stroke:rgb(14.901961%,31.372549%,45.882353%);stroke-opacity:1;stroke-miterlimit:1;" d="M 299.097656 368.871094 L 297.261719 362.578125 L 296.175781 356.097656 L 296 349.617188 L 296.8125 343.136719 L 298.605469 336.65625 L 299.097656 335.324219 L 301.167969 330.175781 L 303.453125 323.695312 L 304.875 317.214844 L 305.496094 310.734375 L 305.578125 308.320312 L 305.734375 304.253906 L 306.097656 297.773438 L 307.101562 291.292969 L 309.234375 284.8125 L 312.058594 279.621094 L 313.199219 278.332031 L 318.539062 272.996094 L 319.632812 271.851562 L 324.78125 265.371094 L 325.019531 265.019531 L 327.53125 258.890625 L 330.710938 252.410156 L 331.5 251.195312 L 334.414062 245.929688 L 337.980469 241.9375 L 340.617188 239.449219 L 344.460938 236.691406 L 350.941406 233.796875 L 355.097656 232.96875 L 357.421875 232.457031 L 363.902344 232.546875 L 365.578125 232.96875 L 370.382812 234.164062 L 376.863281 237.570312 L 379.710938 239.449219 L 383.34375 242.308594 L 389.414062 245.929688 L 389.824219 246.210938 L 396.304688 247.382812 L 402.785156 246.667969 L 409.265625 246.261719 L 415.746094 247.585938 L 422.226562 250.882812 L 424.242188 252.410156 L 428.707031 256.25 L 431.332031 258.890625 L 435.1875 263.34375 L 436.839844 265.371094 L 441.347656 271.851562 L 441.667969 272.433594 L 444.867188 278.332031 L 447.65625 284.8125 L 448.148438 286.867188 L 449.277344 291.292969 L 449.042969 297.773438 L 448.148438 299.742188 L 445.09375 304.253906 L 441.667969 307.136719 L 437.035156 310.734375 L 435.1875 312.214844 L 429.582031 317.214844 L 428.707031 318.417969 L 425.515625 323.695312 L 424.09375 330.175781 L 424.078125 336.65625 L 425.058594 343.136719 L 426.734375 349.617188 L 428.535156 356.097656 L 428.707031 356.886719 L 429.742188 362.578125 L 430.085938 369.058594 L 429.511719 375.539062 L 428.707031 379.164062 L 428.011719 382.019531 L 425.671875 388.5 L 422.976562 394.980469 L 422.226562 397.097656 L 420.113281 401.460938 L 418.347656 407.941406 L 417.292969 414.421875 L 415.796875 420.902344 L 415.746094 421.019531 L 412.3125 427.382812 L 409.265625 430.953125 L 405.523438 433.863281 L 402.785156 435.460938 L 396.304688 437.171875 L 389.824219 437.007812 L 383.34375 435.199219 L 380.355469 433.863281 L 376.863281 431.097656 L 372.789062 427.382812 L 370.652344 420.902344 L 372.867188 414.421875 L 376.863281 409.855469 L 378.851562 407.941406 L 383.34375 402.484375 L 384.0625 401.460938 L 383.34375 397.511719 L 382.550781 394.980469 L 376.863281 392.261719 L 370.382812 392.5625 L 364.492188 394.980469 L 363.902344 395.296875 L 357.421875 399.800781 L 354.792969 401.460938 L 350.941406 404.234375 L 345.609375 407.941406 L 344.460938 408.808594 L 339.113281 414.421875 L 337.980469 415.519531 L 334.269531 420.902344 L 331.5 423.886719 L 328.535156 427.382812 L 325.019531 430.210938 L 318.539062 433.25 L 312.058594 432.863281 L 305.578125 428.703125 L 304.4375 427.382812 L 301.074219 420.902344 L 299.921875 414.421875 L 300.558594 407.941406 L 302.492188 401.460938 L 304.683594 394.980469 L 305.578125 388.742188 L 305.628906 388.5 L 305.578125 388.304688 L 304.457031 382.019531 L 301.902344 375.539062 L 299.164062 369.058594 L 299.097656 368.871094 "/>
<path style="fill:none;stroke-width:0.425197;stroke-linecap:butt;stroke-linejoin:round;stroke:rgb(17.254902%,36.470588%,52.54902%);stroke-opacity:1;stroke-miterlimit:1;" d="M 305.578125 364.445312 L 304.828125 362.578125 L 303.316406 356.097656 L 303.132812 349.617188 L 304.269531 343.136719 L 305.578125 339.175781 L 306.679688 336.65625 L 309.59375 330.175781 L 311.5 323.695312 L 312.058594 319.183594 L 312.398438 317.214844 L 312.523438 310.734375 L 312.40625 304.253906 L 312.957031 297.773438 L 315.074219 291.292969 L 318.539062 285.84375 L 319.605469 284.8125 L 325.019531 279.773438 L 325.753906 278.332031 L 328.617188 271.851562 L 331.007812 265.371094 L 331.5 264.179688 L 332.957031 258.890625 L 335.636719 252.410156 L 337.980469 248.804688 L 339.976562 245.929688 L 344.460938 241.628906 L 348.054688 239.449219 L 350.941406 237.933594 L 357.421875 236.363281 L 363.902344 236.625 L 370.382812 238.875 L 371.367188 239.449219 L 376.863281 243.289062 L 380.042969 245.929688 L 383.34375 249.332031 L 387.585938 252.410156 L 389.824219 254.308594 L 396.304688 256.324219 L 402.785156 255.867188 L 409.265625 255.195312 L 415.746094 256.503906 L 419.914062 258.890625 L 422.226562 260.632812 L 426.804688 265.371094 L 428.707031 267.96875 L 431.257812 271.851562 L 434.246094 278.332031 L 435.1875 283.484375 L 435.410156 284.8125 L 435.1875 285.980469 L 433.042969 291.292969 L 428.707031 295.042969 L 422.226562 296.835938 L 418.121094 297.773438 L 415.746094 298.441406 L 411.75 304.253906 L 410.0625 310.734375 L 410.28125 317.214844 L 411.21875 323.695312 L 412.210938 330.175781 L 413.171875 336.65625 L 414.445312 343.136719 L 415.746094 347.171875 L 416.582031 349.617188 L 419.328125 356.097656 L 421.8125 362.578125 L 422.226562 364.636719 L 422.878906 369.058594 L 422.511719 375.539062 L 422.226562 376.652344 L 420.234375 382.019531 L 416.277344 388.5 L 415.746094 389.324219 L 409.265625 393.113281 L 402.785156 391.160156 L 399.820312 388.5 L 396.304688 386.039062 L 391.046875 382.019531 L 389.824219 381.171875 L 383.34375 377.855469 L 376.863281 376.578125 L 370.382812 377.957031 L 363.902344 381.585938 L 363.332031 382.019531 L 357.421875 386.347656 L 354.078125 388.5 L 350.941406 390.625 L 344.460938 393.730469 L 339.714844 394.980469 L 337.980469 395.664062 L 331.5 396.539062 L 327.5625 394.980469 L 325.019531 393.578125 L 322.371094 388.5 L 318.539062 383.246094 L 317.890625 382.019531 L 312.644531 375.539062 L 312.058594 374.871094 L 308.105469 369.058594 L 305.578125 364.445312 "/>
<path style="fill:none;stroke-width:0.425197;stroke-linecap:butt;stroke-linejoin:round;stroke:rgb(17.254902%,36.470588%,52.54902%);stroke-opacity:1;stroke-miterlimit:1;" d="M 312.058594 421.515625 L 311.480469 420.902344 L 309.589844 414.421875 L 311.414062 407.941406 L 312.058594 406.855469 L 318.539062 402.925781 L 324.195312 407.941406 L 323.550781 414.421875 L 319.714844 420.902344 L 318.539062 421.828125 L 312.058594 421.515625 "/>
<path style="fill:none;stroke-width:0.425197;stroke-linecap:butt;stroke-linejoin:round;stroke:rgb(20%,41.568627%,59.607843%);stroke-opacity:1;stroke-miterlimit:1;" d="M 318.539062 366.375 L 315.769531 362.578125 L 313.070312 356.097656 L 313.035156 349.617188 L 315.761719 343.136719 L 318.539062 338.6875 L 320.652344 336.65625 L 325.019531 331.996094 L 327.441406 330.175781 L 331.5 326.160156 L 332.976562 323.695312 L 335.203125 317.214844 L 335.96875 310.734375 L 335.265625 304.253906 L 333.941406 297.773438 L 333.097656 291.292969 L 332.929688 284.8125 L 333.253906 278.332031 L 333.960938 271.851562 L 335.121094 265.371094 L 337.019531 258.890625 L 337.980469 256.800781 L 339.917969 252.410156 L 344.460938 246.4375 L 345.023438 245.929688 L 350.941406 241.890625 L 357.421875 240.132812 L 363.902344 240.554688 L 370.382812 243.332031 L 373.789062 245.929688 L 376.863281 248.921875 L 380.269531 252.410156 L 383.34375 256.316406 L 386.300781 258.890625 L 389.824219 262.546875 L 394.6875 265.371094 L 396.304688 266.777344 L 402.785156 270.390625 L 405.964844 271.851562 L 407.433594 278.332031 L 405.957031 284.8125 L 404.296875 291.292969 L 402.890625 297.773438 L 402.785156 298.496094 L 402.328125 304.253906 L 402.253906 310.734375 L 402.636719 317.214844 L 402.785156 318.679688 L 403.511719 323.695312 L 404.34375 330.175781 L 404.839844 336.65625 L 405.101562 343.136719 L 405.550781 349.617188 L 406.933594 356.097656 L 409.265625 361.21875 L 409.835938 362.578125 L 411.285156 369.058594 L 409.265625 375.160156 L 402.785156 374.230469 L 396.304688 370.351562 L 393.855469 369.058594 L 389.824219 367.28125 L 383.34375 365.648438 L 376.863281 365.410156 L 370.382812 367.054688 L 367.125 369.058594 L 363.902344 371.042969 L 358.46875 375.539062 L 357.421875 376.347656 L 350.941406 380.832031 L 347.925781 382.019531 L 344.460938 383.410156 L 337.980469 383.335938 L 335.214844 382.019531 L 331.5 379.964844 L 326.679688 375.539062 L 325.019531 373.78125 L 320.578125 369.058594 L 318.539062 366.375 "/>
<path style="fill:none;stroke-width:0.425197;stroke-linecap:butt;stroke-linejoin:round;stroke:rgb(22.745098%,47.058824%,66.666667%);stroke-opacity:1;stroke-miterlimit:1;" d="M 331.5 363.519531 L 330.898438 362.578125 L 329.921875 356.097656 L 331.5 352.441406 L 332.835938 349.617188 L 337.980469 344.003906 L 338.660156 343.136719 L 342.964844 336.65625 L 344.460938 332.78125 L 345.042969 330.175781 L 345.65625 323.695312 L 345.796875 317.214844 L 345.597656 310.734375 L 344.878906 304.253906 L 344.460938 302.441406 L 343.054688 297.773438 L 340.820312 291.292969 L 339.128906 284.8125 L 338.25 278.332031 L 338.15625 271.851562 L 338.855469 265.371094 L 340.550781 258.890625 L 343.8125 252.410156 L 344.460938 251.558594 L 350.664062 245.929688 L 350.941406 245.742188 L 357.421875 243.683594 L 363.902344 244.296875 L 367.234375 245.929688 L 370.382812 247.816406 L 375.082031 252.410156 L 376.863281 254.707031 L 380.261719 258.890625 L 383.34375 263.453125 L 385.199219 265.371094 L 389.824219 271.28125 L 390.453125 271.851562 L 394.871094 278.332031 L 396.304688 283.292969 L 396.773438 284.8125 L 397.429688 291.292969 L 397.414062 297.773438 L 397.308594 304.253906 L 397.410156 310.734375 L 397.78125 317.214844 L 398.234375 323.695312 L 398.433594 330.175781 L 398.015625 336.65625 L 396.636719 343.136719 L 396.304688 344.136719 L 393.128906 349.617188 L 389.824219 352.652344 L 383.34375 354.667969 L 376.863281 355.511719 L 373.734375 356.097656 L 370.382812 356.824219 L 363.902344 359.839844 L 360.492188 362.578125 L 357.421875 365.191406 L 352.894531 369.058594 L 350.941406 370.519531 L 344.460938 372.808594 L 337.980469 371.15625 L 335.417969 369.058594 L 331.5 363.519531 "/>
<path style="fill:none;stroke-width:0.425197;stroke-linecap:butt;stroke-linejoin:round;stroke:rgb(25.490196%,52.54902%,74.117647%);stroke-opacity:1;stroke-miterlimit:1;" d="M 344.460938 286.929688 L 343.671875 284.8125 L 342.011719 278.332031 L 341.488281 271.851562 L 342.058594 265.371094 L 343.917969 258.890625 L 344.460938 257.839844 L 348.160156 252.410156 L 350.941406 249.835938 L 357.421875 247.316406 L 363.902344 248.144531 L 370.382812 252.382812 L 370.414062 252.410156 L 375.59375 258.890625 L 376.863281 260.949219 L 379.914062 265.371094 L 383.34375 271.074219 L 383.96875 271.851562 L 388.066406 278.332031 L 389.824219 282.429688 L 390.859375 284.8125 L 392.292969 291.292969 L 392.84375 297.773438 L 393.058594 304.253906 L 393.242188 310.734375 L 393.449219 317.214844 L 393.511719 323.695312 L 393.039062 330.175781 L 391.394531 336.65625 L 389.824219 339.773438 L 386.609375 343.136719 L 383.34375 345.410156 L 376.863281 347.132812 L 370.382812 347.625 L 363.902344 347.578125 L 357.421875 345.835938 L 355.582031 343.136719 L 353.808594 336.65625 L 352.839844 330.175781 L 352.144531 323.695312 L 351.640625 317.214844 L 351.15625 310.734375 L 350.941406 309.097656 L 350.21875 304.253906 L 348.488281 297.773438 L 346.121094 291.292969 L 344.460938 286.929688 "/>
<path style="fill:none;stroke-width:0.425197;stroke-linecap:butt;stroke-linejoin:round;stroke:rgb(28.235294%,58.039216%,81.568627%);stroke-opacity:1;stroke-miterlimit:1;" d="M 350.941406 291.78125 L 350.75 291.292969 L 347.90625 284.8125 L 345.78125 278.332031 L 344.84375 271.851562 L 345.34375 265.371094 L 347.660156 258.890625 L 350.941406 254.371094 L 354.277344 252.410156 L 357.421875 251.082031 L 363.902344 252.078125 L 364.414062 252.410156 L 370.382812 257.609375 L 371.40625 258.890625 L 375.40625 265.371094 L 376.863281 268.210938 L 379.007812 271.851562 L 382.421875 278.332031 L 383.34375 280.304688 L 385.476562 284.8125 L 387.394531 291.292969 L 388.425781 297.773438 L 388.949219 304.253906 L 389.226562 310.734375 L 389.292969 317.214844 L 388.890625 323.695312 L 387.332031 330.175781 L 383.34375 336.585938 L 383.230469 336.65625 L 376.863281 339.46875 L 370.382812 339.34375 L 364.695312 336.65625 L 363.902344 336.140625 L 359.910156 330.175781 L 357.710938 323.695312 L 357.421875 322.292969 L 356.554688 317.214844 L 355.824219 310.734375 L 354.980469 304.253906 L 353.421875 297.773438 L 350.941406 291.78125 "/>
<path style="fill:none;stroke-width:0.425197;stroke-linecap:butt;stroke-linejoin:round;stroke:rgb(30.980392%,63.529412%,89.019608%);stroke-opacity:1;stroke-miterlimit:1;" d="M 350.941406 282.046875 L 349.5625 278.332031 L 348.402344 271.851562 L 348.894531 265.371094 L 350.941406 260.144531 L 351.988281 258.890625 L 357.421875 255.480469 L 363.902344 256.777344 L 366.296875 258.890625 L 370.382812 264.015625 L 371.21875 265.371094 L 374.261719 271.851562 L 376.863281 277.691406 L 377.183594 278.332031 L 379.855469 284.8125 L 382.230469 291.292969 L 383.34375 295.207031 L 383.863281 297.773438 L 384.609375 304.253906 L 384.921875 310.734375 L 384.75 317.214844 L 383.714844 323.695312 L 383.34375 324.734375 L 378.835938 330.175781 L 376.863281 331.519531 L 370.382812 331.097656 L 369.128906 330.175781 L 363.902344 324.324219 L 363.609375 323.695312 L 361.753906 317.214844 L 360.789062 310.734375 L 359.996094 304.253906 L 358.488281 297.773438 L 357.421875 295.5 L 355.804688 291.292969 L 352.394531 284.8125 L 350.941406 282.046875 "/>
<path style="fill:none;stroke-width:0.425197;stroke-linecap:butt;stroke-linejoin:round;stroke:rgb(33.72549%,69.411765%,96.862745%);stroke-opacity:1;stroke-miterlimit:1;" d="M 357.421875 284.109375 L 354.546875 278.332031 L 352.679688 271.851562 L 353.765625 265.371094 L 357.421875 261.078125 L 363.902344 262.859375 L 365.886719 265.371094 L 369.1875 271.851562 L 370.382812 275.261719 L 371.304688 278.332031 L 372.746094 284.8125 L 374.671875 291.292969 L 376.863281 295.617188 L 377.402344 297.773438 L 378.515625 304.253906 L 378.890625 310.734375 L 378.03125 317.214844 L 376.863281 319.84375 L 370.382812 319.792969 L 368.960938 317.214844 L 367.300781 310.734375 L 366.613281 304.253906 L 365.613281 297.773438 L 363.902344 294.675781 L 362.828125 291.292969 L 358.167969 284.8125 L 357.421875 284.109375 "/>
</g>
</svg>
