<?xml version="1.0" encoding="UTF-8"?>
<svg xmlns="http://www.w3.org/2000/svg" xmlns:xlink="http://www.w3.org/1999/xlink" width="720pt" height="720pt" viewBox="0 0 720 720" version="1.1">
<defs>
<clipPath id="clip1">
  <path d="M 14.285156 0 L 720 0 L 720 706 L 14.285156 706 Z "/>
</clipPath>
</defs>
<g id="surface91">
<rect x="0" y="0" width="720" height="720" style="fill:rgb(100%,100%,100%);fill-opacity:1;stroke:none;"/>
<rect x="0" y="0" width="720" height="720" style="fill:rgb(100%,100%,100%);fill-opacity:1;stroke:none;"/>
<path style="fill:none;stroke-width:1.062992;stroke-linecap:round;stroke-linejoin:round;stroke:rgb(100%,100%,100%);stroke-opacity:1;stroke-miterlimit:10;" d="M 0 720 L 720 720 L 720 0 L 0 0 Z "/>
<g clip-path="url(#clip1)" clip-rule="nonzero">
<path style=" stroke:none;fill-rule:nonzero;fill:rgb(100%,100%,100%);fill-opacity:1;" d="M 14.285156 705.714844 L 720 705.714844 L 720 0 L 14.285156 0 Z "/>
</g>
<path style="fill:none;stroke-width:0.425197;stroke-linecap:butt;stroke-linejoin:round;stroke:rgb(7.45098%,16.862745%,26.27451%);stroke-opacity:1;stroke-miterlimit:1;" d="M 214.855469 440.457031 L 214.796875 440.34375 L 212.183594 433.863281 L 210.511719 427.382812 L 209.542969 420.902344 L 209.195312 414.421875 L 209.492188 407.941406 L 210.527344 401.460938 L 212.378906 394.980469 L 214.855469 389.03125 L 215.0625 388.5 L 218.03125 382.019531 L 221.335938 375.589844 L 221.363281 375.539062 L 224.199219 369.058594 L 226.054688 362.578125 L 226.183594 356.097656 L 224.578125 349.617188 L 221.976562 343.136719 L 221.335938 341.78125 L 219.019531 336.65625 L 216.351562 330.175781 L 214.855469 325.507812 L 214.242188 323.695312 L 212.800781 317.214844 L 212.328125 310.734375 L 212.878906 304.253906 L 214.519531 297.773438 L 214.855469 296.910156 L 217.125 291.292969 L 220.980469 284.8125 L 221.335938 284.289062 L 226.195312 278.332031 L 227.816406 276.5 L 233.082031 271.851562 L 234.296875 270.726562 L 240.777344 265.871094 L 241.621094 265.371094 L 247.257812 261.28125 L 251.113281 258.890625 L 253.738281 257.03125 L 260.21875 253.152344 L 262.082031 252.410156 L 266.699219 250.613281 L 273.179688 250.03125 L 279.65625 252.269531 L 279.835938 252.410156 L 286.136719 258.355469 L 286.558594 258.890625 L 292.617188 264.363281 L 293.730469 265.371094 L 299.097656 268.257812 L 305.578125 271.210938 L 307.394531 271.851562 L 312.058594 272.992188 L 318.539062 274.152344 L 325.019531 274.953125 L 331.5 275.480469 L 337.980469 275.863281 L 344.460938 276.273438 L 350.941406 276.992188 L 356.988281 278.332031 L 357.421875 278.414062 L 363.902344 280.316406 L 370.382812 283.28125 L 373.015625 284.8125 L 376.863281 286.457031 L 383.34375 289.25 L 388.71875 291.292969 L 389.824219 291.589844 L 396.304688 292.988281 L 402.785156 294.003906 L 409.265625 294.753906 L 415.746094 295.320312 L 422.226562 295.75 L 428.707031 296.066406 L 435.1875 296.296875 L 441.667969 296.515625 L 448.148438 296.855469 L 454.628906 297.535156 L 455.894531 297.773438 L 461.109375 298.644531 L 467.589844 300.605469 L 474.070312 304.015625 L 474.40625 304.253906 L 480.550781 309.328125 L 481.859375 310.734375 L 486 317.214844 L 487.03125 320.546875 L 488.003906 323.695312 L 488.421875 330.175781 L 487.640625 336.65625 L 487.03125 339.292969 L 486.230469 343.136719 L 484.644531 349.617188 L 483.304688 356.097656 L 483.3125 362.578125 L 487.03125 368.964844 L 487.109375 369.058594 L 493.511719 372.652344 L 499.308594 375.539062 L 499.992188 375.78125 L 506.472656 378.445312 L 512.917969 382.019531 L 512.953125 382.035156 L 519.433594 386.472656 L 521.652344 388.5 L 525.914062 392.960938 L 527.515625 394.980469 L 531.8125 401.460938 L 532.394531 402.472656 L 535.417969 407.941406 L 538.230469 414.421875 L 538.875 416.1875 L 540.765625 420.902344 L 542.804688 427.382812 L 544.328125 433.863281 L 545.355469 439.671875 L 545.503906 440.34375 L 546.578125 446.820312 L 547.207031 453.300781 L 547.285156 459.78125 L 546.585938 466.261719 L 545.355469 470.707031 L 544.8125 472.742188 L 541.582031 479.222656 L 538.875 482.535156 L 535.636719 485.703125 L 532.394531 488.121094 L 525.914062 491.398438 L 523.375 492.183594 L 519.433594 493.421875 L 512.953125 494.488281 L 506.472656 494.734375 L 499.992188 494.296875 L 493.511719 493.238281 L 489.289062 492.183594 L 487.03125 491.742188 L 480.550781 490.175781 L 474.070312 488.386719 L 467.589844 486.5 L 464.652344 485.703125 L 461.109375 485.011719 L 454.628906 483.960938 L 448.148438 483.101562 L 441.667969 482.371094 L 435.1875 481.660156 L 428.707031 480.84375 L 422.226562 479.808594 L 419.273438 479.222656 L 415.746094 478.664062 L 409.265625 477.382812 L 402.785156 475.804688 L 396.304688 474.085938 L 390.386719 472.742188 L 389.824219 472.625 L 383.34375 472.019531 L 376.863281 472.261719 L 373.535156 472.742188 L 370.382812 473.304688 L 363.902344 474.789062 L 357.421875 476.121094 L 350.941406 477.085938 L 344.460938 477.683594 L 337.980469 478.011719 L 331.5 478.21875 L 325.019531 478.472656 L 318.539062 479 L 316.96875 479.222656 L 312.058594 480.273438 L 305.578125 482.582031 L 299.632812 485.703125 L 299.097656 486.007812 L 292.617188 489.308594 L 286.136719 491.734375 L 282.847656 492.183594 L 279.65625 492.519531 L 276.539062 492.183594 L 273.179688 491.652344 L 266.699219 488.621094 L 262.800781 485.703125 L 260.21875 482.75 L 257.523438 479.222656 L 253.738281 475.054688 L 251.605469 472.742188 L 247.257812 470.046875 L 241.609375 466.261719 L 240.777344 465.898438 L 234.296875 462.148438 L 231.3125 459.78125 L 227.816406 457.300781 L 223.734375 453.300781 L 221.335938 450.71875 L 218.425781 446.820312 L 214.855469 440.457031 "/>
<path style="fill:none;stroke-width:0.425197;stroke-linecap:butt;stroke-linejoin:round;stroke:rgb(11.372549%,24.705882%,36.862745%);stroke-opacity:1;stroke-miterlimit:1;" d="M 227.816406 421.273438 L 227.683594 420.902344 L 226.316406 414.421875 L 226.105469 407.941406 L 227.117188 401.460938 L 227.816406 399.433594 L 229.390625 394.980469 L 232.921875 388.5 L 234.296875 386.484375 L 237.804688 382.019531 L 240.777344 378.589844 L 244.078125 375.539062 L 247.257812 372.339844 L 251.5 369.058594 L 253.738281 366.542969 L 258.097656 362.578125 L 260.21875 356.285156 L 260.285156 356.097656 L 260.21875 355.964844 L 256.921875 349.617188 L 253.738281 346.925781 L 249.964844 343.136719 L 247.257812 340.992188 L 242.992188 336.65625 L 240.777344 334.359375 L 237.574219 330.175781 L 234.296875 324.65625 L 233.804688 323.695312 L 231.796875 317.214844 L 231.484375 310.734375 L 233.0625 304.253906 L 234.296875 301.984375 L 237.113281 297.773438 L 240.777344 294.226562 L 245.160156 291.292969 L 247.257812 290.09375 L 253.738281 287.714844 L 260.21875 286.515625 L 266.699219 286.230469 L 273.179688 286.683594 L 279.65625 287.710938 L 286.136719 289.09375 L 292.617188 290.570312 L 296.074219 291.292969 L 299.097656 291.925781 L 305.578125 293.058594 L 312.058594 294.011719 L 318.539062 294.910156 L 325.019531 295.894531 L 331.5 297.097656 L 334.425781 297.773438 L 337.980469 298.648438 L 344.460938 300.632812 L 350.941406 303.078125 L 353.738281 304.253906 L 357.421875 306.121094 L 363.902344 309.328125 L 367.507812 310.734375 L 370.382812 312.203125 L 376.863281 313.714844 L 383.34375 313.574219 L 389.824219 312.605469 L 396.304688 311.492188 L 401.539062 310.734375 L 402.785156 310.585938 L 409.265625 309.996094 L 415.746094 309.691406 L 422.226562 309.648438 L 428.707031 309.847656 L 435.1875 310.300781 L 438.9375 310.734375 L 441.667969 311.0625 L 448.148438 312.3125 L 454.628906 314.386719 L 460.085938 317.214844 L 461.109375 318.011719 L 466.210938 323.695312 L 467.589844 327.703125 L 468.316406 330.175781 L 468.09375 336.65625 L 467.589844 338.453125 L 466.289062 343.136719 L 463.289062 349.617188 L 461.109375 353.355469 L 459.363281 356.097656 L 455.214844 362.578125 L 454.628906 364.011719 L 452.332031 369.058594 L 453.007812 375.539062 L 454.628906 377.203125 L 460.75 382.019531 L 461.109375 382.15625 L 467.589844 384.164062 L 474.070312 385.773438 L 480.550781 387.25 L 485.582031 388.5 L 487.03125 388.777344 L 493.511719 390.386719 L 499.992188 392.753906 L 504.222656 394.980469 L 506.472656 396.144531 L 512.953125 400.9375 L 513.507812 401.460938 L 519.433594 407.792969 L 519.546875 407.941406 L 524.035156 414.421875 L 525.914062 418.007812 L 527.398438 420.902344 L 529.941406 427.382812 L 531.683594 433.863281 L 532.394531 437.84375 L 532.902344 440.34375 L 533.617188 446.820312 L 533.683594 453.300781 L 532.921875 459.78125 L 532.394531 461.660156 L 530.984375 466.261719 L 526.988281 472.742188 L 525.914062 473.878906 L 519.433594 478.640625 L 518.066406 479.222656 L 512.953125 481.074219 L 506.472656 482.125 L 499.992188 482.207031 L 493.511719 481.578125 L 487.03125 480.417969 L 481.910156 479.222656 L 480.550781 478.964844 L 474.070312 477.652344 L 467.589844 476.417969 L 461.109375 475.335938 L 454.628906 474.417969 L 448.148438 473.609375 L 441.667969 472.804688 L 441.234375 472.742188 L 435.1875 472.0625 L 428.707031 471.097656 L 422.226562 469.742188 L 415.746094 467.847656 L 411.519531 466.261719 L 409.265625 465.394531 L 402.785156 462.511719 L 397.210938 459.78125 L 396.304688 459.289062 L 389.824219 456.566406 L 383.34375 455.046875 L 376.863281 455.019531 L 370.382812 456.152344 L 363.902344 457.796875 L 357.421875 459.390625 L 355.398438 459.78125 L 350.941406 460.746094 L 344.460938 461.5625 L 337.980469 461.734375 L 331.5 461.277344 L 325.019531 460.183594 L 323.433594 459.78125 L 318.539062 458.679688 L 312.058594 456.683594 L 305.578125 454.039062 L 303.925781 453.300781 L 299.097656 451.332031 L 292.617188 448.628906 L 287.726562 446.820312 L 286.136719 446.292969 L 279.65625 444.855469 L 273.179688 444.082031 L 266.699219 443.785156 L 260.21875 443.597656 L 253.738281 443.050781 L 247.257812 441.636719 L 244.179688 440.34375 L 240.777344 438.730469 L 234.875 433.863281 L 234.296875 433.238281 L 230.414062 427.382812 L 227.816406 421.273438 "/>
<path style="fill:none;stroke-width:0.425197;stroke-linecap:butt;stroke-linejoin:round;stroke:rgb(15.686275%,32.941176%,47.843137%);stroke-opacity:1;stroke-miterlimit:1;" d="M 247.257812 417.859375 L 244.816406 414.421875 L 242.871094 407.941406 L 243.464844 401.460938 L 246.324219 394.980469 L 247.257812 393.746094 L 252.035156 388.5 L 253.738281 387.089844 L 260.21875 382.773438 L 261.527344 382.019531 L 266.699219 379.308594 L 273.179688 376.027344 L 274.023438 375.539062 L 279.65625 371.964844 L 283.652344 369.058594 L 286.136719 366.675781 L 290.226562 362.578125 L 292.617188 358.785156 L 294.503906 356.097656 L 296.28125 349.617188 L 295.371094 343.136719 L 292.617188 337.210938 L 292.257812 336.65625 L 286.699219 330.175781 L 286.136719 329.503906 L 279.65625 326.4375 L 273.179688 325.375 L 266.699219 324.132812 L 265.550781 323.695312 L 260.21875 320.632812 L 256.8125 317.214844 L 256.765625 310.734375 L 260.21875 308.117188 L 266.699219 306.800781 L 273.179688 307.960938 L 279.65625 310.25 L 280.96875 310.734375 L 286.136719 314.300781 L 292.617188 316.113281 L 299.097656 316.40625 L 305.578125 316.152344 L 312.058594 315.976562 L 318.539062 316.28125 L 324.0625 317.214844 L 325.019531 317.433594 L 331.5 320.507812 L 335.511719 323.695312 L 337.980469 327.882812 L 338.949219 330.175781 L 340.085938 336.65625 L 342.015625 343.136719 L 344.460938 345.808594 L 347.976562 349.617188 L 350.941406 351.097656 L 357.421875 353.871094 L 363.902344 355.816406 L 365.882812 356.097656 L 370.382812 356.546875 L 376.863281 356.492188 L 380.101562 356.097656 L 383.34375 355.402344 L 389.824219 352.28125 L 392.734375 349.617188 L 395.84375 343.136719 L 396.304688 341.972656 L 398.296875 336.65625 L 402.460938 330.175781 L 402.785156 329.890625 L 409.265625 325.601562 L 414.21875 323.695312 L 415.746094 323.300781 L 422.226562 322.488281 L 428.707031 322.511719 L 435.1875 323.347656 L 436.515625 323.695312 L 441.667969 325.78125 L 447.558594 330.175781 L 448.148438 331.679688 L 449.527344 336.65625 L 448.148438 342.570312 L 448.003906 343.136719 L 443.628906 349.617188 L 441.667969 351.777344 L 436.855469 356.097656 L 435.1875 357.648438 L 428.789062 362.578125 L 428.707031 362.679688 L 423.394531 369.058594 L 423.046875 375.539062 L 426.296875 382.019531 L 428.707031 384.273438 L 434.652344 388.5 L 435.1875 388.714844 L 441.667969 390.824219 L 448.148438 392.382812 L 454.628906 393.601562 L 461.109375 394.609375 L 463.691406 394.980469 L 467.589844 395.402344 L 474.070312 396.179688 L 480.550781 397.171875 L 487.03125 398.59375 L 493.511719 400.734375 L 495.101562 401.460938 L 499.992188 403.71875 L 506.175781 407.941406 L 506.472656 408.167969 L 512.71875 414.421875 L 512.953125 414.714844 L 517.183594 420.902344 L 519.433594 425.636719 L 520.238281 427.382812 L 522.269531 433.863281 L 523.378906 440.34375 L 523.644531 446.820312 L 522.949219 453.300781 L 520.882812 459.78125 L 519.433594 462.25 L 516.121094 466.261719 L 512.953125 468.695312 L 506.472656 471.441406 L 499.992188 472.464844 L 493.511719 472.464844 L 487.03125 471.882812 L 480.550781 471.015625 L 474.070312 470.066406 L 467.589844 469.164062 L 461.109375 468.367188 L 454.628906 467.65625 L 448.148438 466.953125 L 442.640625 466.261719 L 441.667969 466.15625 L 435.1875 465.21875 L 428.707031 463.886719 L 422.226562 461.964844 L 416.898438 459.78125 L 415.746094 459.246094 L 409.265625 455.59375 L 405.71875 453.300781 L 402.785156 450.875 L 397.355469 446.820312 L 396.304688 445.820312 L 389.824219 442.023438 L 383.34375 440.792969 L 376.863281 441.53125 L 370.382812 443.40625 L 363.902344 445.699219 L 360.664062 446.820312 L 357.421875 447.90625 L 350.941406 449.636719 L 344.460938 450.664062 L 337.980469 450.917969 L 331.5 450.390625 L 325.019531 449.066406 L 318.539062 446.921875 L 318.300781 446.820312 L 312.058594 444.183594 L 305.578125 440.835938 L 304.652344 440.34375 L 299.097656 437.269531 L 292.707031 433.863281 L 292.617188 433.8125 L 286.136719 430.90625 L 279.65625 428.71875 L 273.847656 427.382812 L 273.179688 427.210938 L 266.699219 426.070312 L 260.21875 424.804688 L 253.738281 422.65625 L 250.757812 420.902344 L 247.257812 417.859375 "/>
<path style="fill:none;stroke-width:0.425197;stroke-linecap:butt;stroke-linejoin:round;stroke:rgb(20%,41.568627%,59.607843%);stroke-opacity:1;stroke-miterlimit:1;" d="M 273.179688 405.214844 L 271.019531 401.460938 L 273.179688 396.246094 L 273.582031 394.980469 L 279.65625 388.929688 L 279.976562 388.5 L 286.136719 383.253906 L 287.273438 382.019531 L 292.617188 377.378906 L 294.527344 375.539062 L 299.097656 371.488281 L 302.078125 369.058594 L 305.578125 366.085938 L 311.277344 362.578125 L 312.058594 361.996094 L 318.539062 359.003906 L 325.019531 357.953125 L 331.5 358.21875 L 337.980469 359.394531 L 344.460938 361.140625 L 349.117188 362.578125 L 350.941406 363.015625 L 357.421875 364.5625 L 363.902344 365.976562 L 370.382812 367.238281 L 376.863281 368.476562 L 379.621094 369.058594 L 383.34375 369.949219 L 389.824219 372.179688 L 395.433594 375.539062 L 396.304688 376.292969 L 401.390625 382.019531 L 402.785156 384.605469 L 404.992188 388.5 L 407.683594 394.980469 L 409.265625 398.800781 L 412.105469 401.460938 L 415.746094 403.007812 L 422.226562 403.171875 L 428.707031 402.800781 L 435.1875 402.46875 L 441.667969 402.304688 L 448.148438 402.304688 L 454.628906 402.4375 L 461.109375 402.695312 L 467.589844 403.117188 L 474.070312 403.789062 L 480.550781 404.871094 L 487.03125 406.585938 L 490.484375 407.941406 L 493.511719 409.214844 L 499.992188 413.15625 L 501.558594 414.421875 L 506.472656 419.394531 L 507.695312 420.902344 L 511.476562 427.382812 L 512.953125 431.597656 L 513.714844 433.863281 L 514.636719 440.34375 L 514.277344 446.820312 L 512.953125 451.402344 L 512.242188 453.300781 L 506.917969 459.78125 L 506.472656 460.121094 L 499.992188 463.050781 L 493.511719 464.195312 L 487.03125 464.371094 L 480.550781 464.058594 L 474.070312 463.550781 L 467.589844 462.996094 L 461.109375 462.457031 L 454.628906 461.910156 L 448.148438 461.269531 L 441.667969 460.410156 L 438.332031 459.78125 L 435.1875 459.164062 L 428.707031 457.332031 L 422.226562 454.648438 L 419.710938 453.300781 L 415.746094 450.476562 L 411.378906 446.820312 L 409.265625 444.042969 L 406.207031 440.34375 L 402.875 433.863281 L 402.785156 433.542969 L 399.394531 427.382812 L 396.304688 423.066406 L 389.824219 422.613281 L 383.34375 424.609375 L 377.238281 427.382812 L 376.863281 427.519531 L 370.382812 430.777344 L 364.578125 433.863281 L 363.902344 434.175781 L 357.421875 437.140625 L 350.941406 439.507812 L 347.414062 440.34375 L 344.460938 440.972656 L 337.980469 441.425781 L 331.5 440.875 L 329.25 440.34375 L 325.019531 439.277344 L 318.539062 436.699219 L 313.132812 433.863281 L 312.058594 433.238281 L 305.578125 429.046875 L 303.050781 427.382812 L 299.097656 424.496094 L 293.773438 420.902344 L 292.617188 419.984375 L 286.136719 415.640625 L 283.867188 414.421875 L 279.65625 411.171875 L 274.730469 407.941406 L 273.179688 405.214844 "/>
<path style="fill:none;stroke-width:0.425197;stroke-linecap:butt;stroke-linejoin:round;stroke:rgb(24.313725%,50.588235%,71.764706%);stroke-opacity:1;stroke-miterlimit:1;" d="M 299.097656 409.488281 L 297.65625 407.941406 L 294.289062 401.460938 L 294.050781 394.980469 L 296.605469 388.5 L 299.097656 385.277344 L 301.425781 382.019531 L 305.578125 377.980469 L 308.421875 375.539062 L 312.058594 372.933594 L 318.539062 369.734375 L 321.011719 369.058594 L 325.019531 367.949219 L 331.5 367.46875 L 337.980469 368.003906 L 343.488281 369.058594 L 344.460938 369.230469 L 350.941406 370.785156 L 357.421875 372.53125 L 363.902344 374.359375 L 367.90625 375.539062 L 370.382812 376.464844 L 376.863281 379.246094 L 381.710938 382.019531 L 383.34375 383.738281 L 387.0625 388.5 L 388.296875 394.980469 L 386.425781 401.460938 L 383.34375 405.5625 L 381.410156 407.941406 L 376.863281 411.824219 L 373.644531 414.421875 L 370.382812 416.710938 L 364.273438 420.902344 L 363.902344 421.136719 L 357.421875 425.082031 L 352.988281 427.382812 L 350.941406 428.324219 L 344.460938 430.398438 L 337.980469 431.230469 L 331.5 430.71875 L 325.019531 428.894531 L 321.738281 427.382812 L 318.539062 425.769531 L 312.058594 421.511719 L 311.234375 420.902344 L 305.578125 416.191406 L 303.53125 414.421875 L 299.097656 409.488281 "/>
<path style="fill:none;stroke-width:0.425197;stroke-linecap:butt;stroke-linejoin:round;stroke:rgb(24.313725%,50.588235%,71.764706%);stroke-opacity:1;stroke-miterlimit:1;" d="M 415.746094 434.894531 L 415.386719 433.863281 L 415.746094 429.597656 L 415.949219 427.382812 L 419.574219 420.902344 L 422.226562 418.511719 L 428.707031 414.554688 L 429.023438 414.421875 L 435.1875 412.25 L 441.667969 410.878906 L 448.148438 410.105469 L 454.628906 409.738281 L 461.109375 409.695312 L 467.589844 409.988281 L 474.070312 410.703125 L 480.550781 412.003906 L 487.03125 414.132812 L 487.636719 414.421875 L 493.511719 417.777344 L 497.414062 420.902344 L 499.992188 423.875 L 502.480469 427.382812 L 505.027344 433.863281 L 505.625 440.34375 L 503.957031 446.820312 L 499.992188 451.984375 L 498.257812 453.300781 L 493.511719 455.484375 L 487.03125 456.855469 L 480.550781 457.308594 L 474.070312 457.320312 L 467.589844 457.121094 L 461.109375 456.8125 L 454.628906 456.378906 L 448.148438 455.734375 L 441.667969 454.734375 L 435.695312 453.300781 L 435.1875 453.152344 L 428.707031 450.371094 L 422.949219 446.820312 L 422.226562 446.074219 L 417.507812 440.34375 L 415.746094 434.894531 "/>
<path style="fill:none;stroke-width:0.425197;stroke-linecap:butt;stroke-linejoin:round;stroke:rgb(29.019608%,60%,84.313725%);stroke-opacity:1;stroke-miterlimit:1;" d="M 312.058594 407.75 L 307.941406 401.460938 L 306.753906 394.980469 L 308.632812 388.5 L 312.058594 383.984375 L 313.855469 382.019531 L 318.539062 378.796875 L 325.019531 376.082031 L 328.304688 375.539062 L 331.5 375.097656 L 337.980469 375.363281 L 338.984375 375.539062 L 344.460938 376.648438 L 350.941406 378.632812 L 357.421875 381.03125 L 359.875 382.019531 L 363.902344 384.722656 L 368.890625 388.5 L 370.382812 392.839844 L 371.050781 394.980469 L 370.382812 396.628906 L 368.304688 401.460938 L 363.902344 405.925781 L 361.734375 407.941406 L 357.421875 411.039062 L 351.972656 414.421875 L 350.941406 415.007812 L 344.460938 417.773438 L 337.980469 419.140625 L 331.5 418.867188 L 325.019531 416.929688 L 320.359375 414.421875 L 318.539062 413.339844 L 312.214844 407.941406 L 312.058594 407.75 "/>
<path style="fill:none;stroke-width:0.425197;stroke-linecap:butt;stroke-linejoin:round;stroke:rgb(29.019608%,60%,84.313725%);stroke-opacity:1;stroke-miterlimit:1;" d="M 428.707031 440.53125 L 428.523438 440.34375 L 426.480469 433.863281 L 428.5625 427.382812 L 428.707031 427.21875 L 435.1875 421.855469 L 436.957031 420.902344 L 441.667969 419.148438 L 448.148438 417.679688 L 454.628906 416.910156 L 461.109375 416.6875 L 467.589844 416.992188 L 474.070312 417.925781 L 480.550781 419.683594 L 483.394531 420.902344 L 487.03125 423.167969 L 491.808594 427.382812 L 493.511719 430.511719 L 495.007812 433.863281 L 494.777344 440.34375 L 493.511719 442.507812 L 489.40625 446.820312 L 487.03125 448.007812 L 480.550781 449.78125 L 474.070312 450.582031 L 467.589844 450.863281 L 461.109375 450.816406 L 454.628906 450.460938 L 448.148438 449.695312 L 441.667969 448.332031 L 437.175781 446.820312 L 435.1875 445.730469 L 428.707031 440.53125 "/>
<path style="fill:none;stroke-width:0.425197;stroke-linecap:butt;stroke-linejoin:round;stroke:rgb(33.72549%,69.411765%,96.862745%);stroke-opacity:1;stroke-miterlimit:1;" d="M 325.019531 402.53125 L 323.710938 401.460938 L 320.351562 394.980469 L 322.855469 388.5 L 325.019531 386.882812 L 331.5 384.640625 L 337.980469 384.835938 L 344.460938 386.925781 L 347.496094 388.5 L 350.941406 394.859375 L 350.996094 394.980469 L 350.941406 395.078125 L 346.480469 401.460938 L 344.460938 402.734375 L 337.980469 405.050781 L 331.5 405.085938 L 325.019531 402.53125 "/>
<path style="fill:none;stroke-width:0.425197;stroke-linecap:butt;stroke-linejoin:round;stroke:rgb(33.72549%,69.411765%,96.862745%);stroke-opacity:1;stroke-miterlimit:1;" d="M 441.667969 435.535156 L 440.816406 433.863281 L 441.667969 432.613281 L 447.269531 427.382812 L 448.148438 427.046875 L 454.628906 425.726562 L 461.109375 425.375 L 467.589844 425.933594 L 473.53125 427.382812 L 474.070312 427.710938 L 480.070312 433.863281 L 476 440.34375 L 474.070312 441.082031 L 467.589844 442.410156 L 461.109375 442.851562 L 454.628906 442.535156 L 448.148438 441.320312 L 445.464844 440.34375 L 441.667969 435.535156 "/>
</g>
</svg>
