<?xml version="1.0" encoding="UTF-8"?>
<svg xmlns="http://www.w3.org/2000/svg" xmlns:xlink="http://www.w3.org/1999/xlink" width="720pt" height="720pt" viewBox="0 0 720 720" version="1.1">
<defs>
<clipPath id="clip1">
  <path d="M 14.285156 0 L 720 0 L 720 706 L 14.285156 706 Z "/>
</clipPath>
</defs>
<g id="surface71">
<rect x="0" y="0" width="720" height="720" style="fill:rgb(100%,100%,100%);fill-opacity:1;stroke:none;"/>
<rect x="0" y="0" width="720" height="720" style="fill:rgb(100%,100%,100%);fill-opacity:1;stroke:none;"/>
<path style="fill:none;stroke-width:1.062992;stroke-linecap:round;stroke-linejoin:round;stroke:rgb(100%,100%,100%);stroke-opacity:1;stroke-miterlimit:10;" d="M 0 720 L 720 720 L 720 0 L 0 0 Z "/>
<g clip-path="url(#clip1)" clip-rule="nonzero">
<path style=" stroke:none;fill-rule:nonzero;fill:rgb(100%,100%,100%);fill-opacity:1;" d="M 14.285156 705.714844 L 720 705.714844 L 720 0 L 14.285156 0 Z "/>
</g>
<path style="fill:none;stroke-width:0.425197;stroke-linecap:butt;stroke-linejoin:round;stroke:rgb(7.45098%,16.862745%,26.27451%);stroke-opacity:1;stroke-miterlimit:1;" d="M 240.777344 504.8125 L 238.65625 498.664062 L 237.085938 492.183594 L 236.109375 485.703125 L 235.722656 479.222656 L 236 472.742188 L 237.140625 466.261719 L 239.527344 459.78125 L 240.777344 457.582031 L 245.03125 453.300781 L 247.257812 451.609375 L 253.738281 450.308594 L 260.21875 451.058594 L 266.699219 451.15625 L 273.179688 448.6875 L 275.882812 446.820312 L 279.65625 444.191406 L 285.210938 440.34375 L 286.136719 439.664062 L 292.617188 435.886719 L 296.554688 433.863281 L 299.097656 432.167969 L 303.003906 427.382812 L 305.578125 422.871094 L 306.171875 420.902344 L 307.832031 414.421875 L 309.398438 407.941406 L 311.074219 401.460938 L 312.058594 397.96875 L 312.757812 394.980469 L 314.457031 388.5 L 316.457031 382.019531 L 318.539062 376.042969 L 318.726562 375.539062 L 320.796875 369.058594 L 322.503906 362.578125 L 323.699219 356.097656 L 324.433594 349.617188 L 324.921875 343.136719 L 325.019531 341.890625 L 325.300781 336.65625 L 325.851562 330.175781 L 326.824219 323.695312 L 328.519531 317.214844 L 331.40625 310.734375 L 331.5 310.566406 L 335.417969 304.253906 L 337.980469 301.355469 L 342.617188 297.773438 L 344.460938 296.488281 L 350.941406 293.941406 L 357.421875 293.382812 L 363.902344 294.59375 L 369.859375 297.773438 L 370.382812 298.042969 L 376.863281 303.855469 L 377.203125 304.253906 L 381.839844 310.734375 L 383.34375 313.78125 L 385.175781 317.214844 L 387.660156 323.695312 L 389.316406 330.175781 L 389.824219 332.847656 L 391.0625 336.65625 L 392.933594 343.136719 L 395.183594 349.617188 L 396.304688 351.6875 L 402.785156 354.136719 L 409.265625 349.671875 L 409.296875 349.617188 L 412.101562 343.136719 L 414.742188 336.65625 L 415.746094 334.355469 L 417.089844 330.175781 L 419.652344 323.695312 L 422.226562 318.789062 L 423.152344 317.214844 L 428.089844 310.734375 L 428.707031 310.0625 L 435.1875 306.519531 L 441.667969 307.445312 L 445.445312 310.734375 L 448.148438 313.601562 L 450.242188 317.214844 L 452.96875 323.695312 L 454.628906 329.378906 L 454.871094 330.175781 L 456.496094 336.65625 L 457.804688 343.136719 L 459.011719 349.617188 L 460.332031 356.097656 L 461.109375 359.078125 L 462.335938 362.578125 L 465.328125 369.058594 L 467.589844 372.683594 L 469.539062 375.539062 L 474.070312 381.917969 L 474.136719 382.019531 L 478.265625 388.5 L 480.550781 393.601562 L 481.238281 394.980469 L 483.738281 401.460938 L 485.234375 407.941406 L 486.019531 414.421875 L 486.25 420.902344 L 486.003906 427.382812 L 485.292969 433.863281 L 484.089844 440.34375 L 482.335938 446.820312 L 480.550781 451.890625 L 480.195312 453.300781 L 478.402344 459.78125 L 476.199219 466.261719 L 474.070312 471.4375 L 473.621094 472.742188 L 471.179688 479.222656 L 467.914062 485.703125 L 467.589844 486.292969 L 464.429688 492.183594 L 461.109375 497.332031 L 460.222656 498.664062 L 456.09375 505.144531 L 454.628906 507.515625 L 452.164062 511.625 L 448.605469 518.105469 L 448.148438 519.011719 L 445.117188 524.585938 L 441.667969 531.015625 L 441.625 531.066406 L 436.757812 537.546875 L 435.1875 539.582031 L 428.707031 542.78125 L 422.226562 541.332031 L 416.226562 537.546875 L 415.746094 537.210938 L 409.265625 535.597656 L 407.015625 537.546875 L 402.785156 541.773438 L 402.171875 544.027344 L 400.984375 550.507812 L 400.253906 556.988281 L 399.757812 563.46875 L 399.324219 569.949219 L 398.800781 576.429688 L 398.046875 582.910156 L 396.886719 589.390625 L 396.304688 591.679688 L 395.550781 595.871094 L 393.691406 602.351562 L 390.539062 608.832031 L 389.824219 610.011719 L 386.289062 615.3125 L 383.34375 618.675781 L 379.90625 621.792969 L 376.863281 624.425781 L 371.089844 628.273438 L 370.382812 628.785156 L 363.902344 632.671875 L 357.695312 634.753906 L 357.421875 634.867188 L 350.941406 635.648438 L 347.472656 634.753906 L 344.460938 634.023438 L 337.980469 628.855469 L 337.542969 628.273438 L 333.664062 621.792969 L 331.5 615.609375 L 331.394531 615.3125 L 329.242188 608.832031 L 327.472656 602.351562 L 325.84375 595.871094 L 325.019531 592.738281 L 321.765625 589.390625 L 318.539062 587.117188 L 316.089844 589.390625 L 312.058594 592.234375 L 308.734375 595.871094 L 305.578125 598.6875 L 301.078125 602.351562 L 299.097656 603.898438 L 292.617188 607.695312 L 289.300781 608.832031 L 286.136719 610.199219 L 279.65625 611.503906 L 273.179688 611.441406 L 266.699219 609.910156 L 264.347656 608.832031 L 260.21875 606.789062 L 254.667969 602.351562 L 253.738281 601.34375 L 249.339844 595.871094 L 247.257812 591.226562 L 246.375 589.390625 L 244.683594 582.910156 L 244.148438 576.429688 L 244.320312 569.949219 L 244.964844 563.46875 L 245.949219 556.988281 L 247.167969 550.507812 L 247.257812 550.007812 L 247.96875 544.027344 L 248.511719 537.546875 L 248.566406 531.066406 L 247.867188 524.585938 L 247.257812 522 L 245.996094 518.105469 L 243.40625 511.625 L 240.894531 505.144531 L 240.777344 504.8125 "/>
<path style="fill:none;stroke-width:0.425197;stroke-linecap:butt;stroke-linejoin:round;stroke:rgb(10.196078%,21.960784%,33.333333%);stroke-opacity:1;stroke-miterlimit:1;" d="M 253.738281 494.796875 L 253.042969 492.183594 L 252.546875 485.703125 L 253.738281 480.25 L 254.148438 479.222656 L 260.21875 474.582031 L 262.828125 472.742188 L 266.699219 470.972656 L 272.808594 466.261719 L 273.179688 466.027344 L 279.65625 460.378906 L 280.433594 459.78125 L 286.136719 455.445312 L 290.996094 453.300781 L 292.617188 452.511719 L 299.097656 451.816406 L 305.578125 452.589844 L 312.058594 447.25 L 312.136719 446.820312 L 313.128906 440.34375 L 313.949219 433.863281 L 314.773438 427.382812 L 315.730469 420.902344 L 316.914062 414.421875 L 318.429688 407.941406 L 318.539062 407.550781 L 320.453125 401.460938 L 322.988281 394.980469 L 325.019531 390.46875 L 326.394531 388.5 L 330.363281 382.019531 L 331.5 379.582031 L 333.316406 375.539062 L 334.542969 369.058594 L 334.753906 362.578125 L 334.492188 356.097656 L 334.121094 349.617188 L 333.894531 343.136719 L 334.003906 336.65625 L 334.667969 330.175781 L 336.152344 323.695312 L 337.980469 319.175781 L 338.859375 317.214844 L 343.515625 310.734375 L 344.460938 309.757812 L 350.941406 305.742188 L 357.421875 304.738281 L 363.902344 306.230469 L 370.265625 310.734375 L 370.382812 310.832031 L 375.277344 317.214844 L 376.863281 320.28125 L 378.488281 323.695312 L 380.566406 330.175781 L 381.824219 336.65625 L 382.558594 343.136719 L 382.988281 349.617188 L 383.324219 356.097656 L 383.34375 356.34375 L 384.214844 362.578125 L 387.554688 369.058594 L 389.824219 370.40625 L 396.304688 370.746094 L 402.785156 370.773438 L 409.265625 370.847656 L 415.746094 369.058594 L 419.589844 362.578125 L 421.769531 356.097656 L 422.226562 354.558594 L 423.601562 349.617188 L 425.5 343.136719 L 427.734375 336.65625 L 428.707031 334.390625 L 432.078125 330.175781 L 435.1875 327.125 L 441.667969 329.402344 L 442.132812 330.175781 L 445.085938 336.65625 L 447.195312 343.136719 L 448.148438 346.847656 L 448.691406 349.617188 L 449.828125 356.097656 L 451.011719 362.578125 L 452.578125 369.058594 L 454.628906 374.132812 L 455.292969 375.539062 L 460.441406 382.019531 L 461.109375 382.542969 L 467.167969 388.5 L 467.589844 388.871094 L 472.089844 394.980469 L 474.070312 398.484375 L 475.46875 401.460938 L 477.5625 407.941406 L 478.699219 414.421875 L 479.09375 420.902344 L 478.871094 427.382812 L 478.089844 433.863281 L 476.773438 440.34375 L 474.914062 446.820312 L 474.070312 449.257812 L 472.832031 453.300781 L 470.585938 459.78125 L 467.902344 466.261719 L 467.589844 466.964844 L 464.953125 472.742188 L 461.394531 479.222656 L 461.109375 479.703125 L 456.90625 485.703125 L 454.628906 488.824219 L 451.449219 492.183594 L 448.148438 496.191406 L 445.234375 498.664062 L 441.667969 502.625 L 437.011719 505.144531 L 435.1875 506.476562 L 430.394531 505.144531 L 428.707031 504.535156 L 422.226562 499.316406 L 415.746094 501.730469 L 412.941406 505.144531 L 409.265625 508.324219 L 406.382812 511.625 L 402.785156 515.246094 L 400.507812 518.105469 L 396.304688 524.152344 L 396.125 524.585938 L 394.332031 531.066406 L 393.34375 537.546875 L 392.917969 544.027344 L 392.832031 550.507812 L 392.871094 556.988281 L 392.875 563.46875 L 392.707031 569.949219 L 392.25 576.429688 L 391.347656 582.910156 L 389.824219 589.214844 L 389.789062 589.390625 L 387.929688 595.871094 L 384.753906 602.351562 L 383.34375 604.488281 L 380.007812 608.832031 L 376.863281 612.113281 L 372.820312 615.3125 L 370.382812 617.226562 L 363.902344 620.839844 L 360.507812 621.792969 L 357.421875 622.875 L 350.941406 622.480469 L 349.6875 621.792969 L 344.460938 618.617188 L 341.871094 615.3125 L 338.347656 608.832031 L 337.980469 607.9375 L 335.839844 602.351562 L 334.019531 595.871094 L 332.636719 589.390625 L 331.503906 582.910156 L 331.5 582.898438 L 329.554688 576.429688 L 327.710938 569.949219 L 326.101562 563.46875 L 325.019531 557.625 L 321.550781 556.988281 L 318.539062 555.171875 L 318.425781 556.988281 L 317.207031 563.46875 L 314.90625 569.949219 L 312.058594 574.75 L 311.433594 576.429688 L 307.832031 582.910156 L 305.578125 585.777344 L 302.589844 589.390625 L 299.097656 592.820312 L 294.5 595.871094 L 292.617188 597.128906 L 286.136719 599.476562 L 279.65625 599.882812 L 273.179688 598.378906 L 268.757812 595.871094 L 266.699219 594.390625 L 262.203125 589.390625 L 260.21875 585.652344 L 258.890625 582.910156 L 257.078125 576.429688 L 256.328125 569.949219 L 256.242188 563.46875 L 256.589844 556.988281 L 257.210938 550.507812 L 257.960938 544.027344 L 258.675781 537.546875 L 259.167969 531.066406 L 259.253906 524.585938 L 258.808594 518.105469 L 257.800781 511.625 L 256.328125 505.144531 L 254.601562 498.664062 L 253.738281 494.796875 "/>
<path style="fill:none;stroke-width:0.425197;stroke-linecap:butt;stroke-linejoin:round;stroke:rgb(10.196078%,21.960784%,33.333333%);stroke-opacity:1;stroke-miterlimit:1;" d="M 318.539062 543.910156 L 317.621094 537.546875 L 316.234375 531.066406 L 314.882812 524.585938 L 314.234375 518.105469 L 314.644531 511.625 L 315.96875 505.144531 L 317.871094 498.664062 L 318.539062 496.605469 L 318.925781 498.664062 L 320.265625 505.144531 L 321.546875 511.625 L 322.453125 518.105469 L 322.730469 524.585938 L 322.21875 531.066406 L 320.828125 537.546875 L 318.539062 543.910156 "/>
<path style="fill:none;stroke-width:0.425197;stroke-linecap:butt;stroke-linejoin:round;stroke:rgb(12.941176%,27.45098%,40.392157%);stroke-opacity:1;stroke-miterlimit:1;" d="M 266.699219 579.175781 L 265.480469 576.429688 L 263.835938 569.949219 L 263.164062 563.46875 L 263.097656 556.988281 L 263.410156 550.507812 L 263.960938 544.027344 L 264.617188 537.546875 L 265.253906 531.066406 L 265.769531 524.585938 L 266.113281 518.105469 L 266.320312 511.625 L 266.5625 505.144531 L 266.699219 503.5625 L 267.074219 498.664062 L 268.273438 492.183594 L 270.8125 485.703125 L 273.179688 482.136719 L 275.054688 479.222656 L 279.65625 473.796875 L 280.839844 472.742188 L 286.136719 468.367188 L 292.523438 466.261719 L 292.617188 466.230469 L 292.726562 466.261719 L 299.097656 468.96875 L 301.792969 472.742188 L 304.351562 479.222656 L 305.554688 485.703125 L 305.578125 486.011719 L 306.0625 492.183594 L 306.058594 498.664062 L 305.824219 505.144531 L 305.65625 511.625 L 305.835938 518.105469 L 306.519531 524.585938 L 307.617188 531.066406 L 308.832031 537.546875 L 309.84375 544.027344 L 310.402344 550.507812 L 310.355469 556.988281 L 309.542969 563.46875 L 307.734375 569.949219 L 305.578125 574.511719 L 304.710938 576.429688 L 300.371094 582.910156 L 299.097656 584.371094 L 292.65625 589.390625 L 292.617188 589.417969 L 286.136719 591.707031 L 279.65625 591.339844 L 275.527344 589.390625 L 273.179688 588.007812 L 268.613281 582.910156 L 266.699219 579.175781 "/>
<path style="fill:none;stroke-width:0.425197;stroke-linecap:butt;stroke-linejoin:round;stroke:rgb(12.941176%,27.45098%,40.392157%);stroke-opacity:1;stroke-miterlimit:1;" d="M 325.019531 459.195312 L 324.3125 453.300781 L 323.558594 446.820312 L 322.996094 440.34375 L 322.773438 433.863281 L 322.992188 427.382812 L 323.734375 420.902344 L 325.019531 414.628906 L 325.089844 414.421875 L 328.390625 407.941406 L 331.5 403.257812 L 336.949219 401.460938 L 337.980469 401.054688 L 339.574219 401.460938 L 344.460938 402.859375 L 350.941406 405.964844 L 353.492188 407.941406 L 357.421875 409.621094 L 363.902344 413.339844 L 370.382812 411.761719 L 371.960938 407.941406 L 374.6875 401.460938 L 376.863281 397.867188 L 377.847656 394.980469 L 381.996094 388.5 L 383.34375 387.441406 L 389.824219 382.355469 L 390.628906 382.019531 L 396.304688 379.761719 L 402.785156 379.503906 L 409.265625 381.5 L 410.285156 382.019531 L 415.746094 386.144531 L 418.007812 388.5 L 420.835938 394.980469 L 421.910156 401.460938 L 422.226562 405.304688 L 422.625 407.941406 L 423.117188 414.421875 L 423.238281 420.902344 L 423.054688 427.382812 L 422.511719 433.863281 L 422.226562 435.933594 L 421.996094 440.34375 L 421.554688 446.820312 L 420.988281 453.300781 L 420.234375 459.78125 L 419.160156 466.261719 L 417.472656 472.742188 L 415.746094 476.980469 L 415.226562 479.222656 L 413.136719 485.703125 L 409.6875 492.183594 L 409.265625 492.796875 L 405.542969 498.664062 L 402.785156 502.078125 L 399.9375 505.144531 L 396.304688 509.199219 L 394.449219 511.625 L 390.902344 518.105469 L 389.824219 521.058594 L 389.097656 524.585938 L 388.34375 531.066406 L 388.050781 537.546875 L 388.058594 544.027344 L 388.226562 550.507812 L 388.414062 556.988281 L 388.492188 563.46875 L 388.34375 569.949219 L 387.847656 576.429688 L 386.828125 582.910156 L 385.019531 589.390625 L 383.34375 593.300781 L 382.175781 595.871094 L 377.886719 602.351562 L 376.863281 603.582031 L 371.03125 608.832031 L 370.382812 609.375 L 363.902344 613.15625 L 357.421875 614.683594 L 350.941406 613.410156 L 345.839844 608.832031 L 344.460938 607.207031 L 341.84375 602.351562 L 339.449219 595.871094 L 337.980469 590.03125 L 337.800781 589.390625 L 336.269531 582.910156 L 335.042969 576.429688 L 334.019531 569.949219 L 333.152344 563.46875 L 332.441406 556.988281 L 331.894531 550.507812 L 331.511719 544.027344 L 331.5 543.75 L 331.054688 537.546875 L 330.695312 531.066406 L 330.285156 524.585938 L 329.738281 518.105469 L 329.046875 511.625 L 328.277344 505.144531 L 327.527344 498.664062 L 326.878906 492.183594 L 326.371094 485.703125 L 325.996094 479.222656 L 325.710938 472.742188 L 325.429688 466.261719 L 325.0625 459.78125 L 325.019531 459.195312 "/>
<path style="fill:none;stroke-width:0.425197;stroke-linecap:butt;stroke-linejoin:round;stroke:rgb(12.941176%,27.45098%,40.392157%);stroke-opacity:1;stroke-miterlimit:1;" d="M 344.460938 366.714844 L 343.574219 362.578125 L 342.277344 356.097656 L 341.273438 349.617188 L 340.703125 343.136719 L 340.75 336.65625 L 341.667969 330.175781 L 343.839844 323.695312 L 344.460938 322.550781 L 348.851562 317.214844 L 350.941406 315.449219 L 357.421875 313.710938 L 363.902344 315.707031 L 365.65625 317.214844 L 370.382812 322.558594 L 371.058594 323.695312 L 373.75 330.175781 L 375.269531 336.65625 L 375.976562 343.136719 L 376.097656 349.617188 L 375.789062 356.097656 L 375.15625 362.578125 L 374.242188 369.058594 L 372.945312 375.539062 L 370.675781 382.019531 L 370.382812 382.613281 L 366.34375 388.5 L 363.902344 391.246094 L 357.421875 393.5 L 351.351562 388.5 L 350.941406 388.082031 L 348.421875 382.019531 L 346.59375 375.539062 L 345.042969 369.058594 L 344.460938 366.714844 "/>
<path style="fill:none;stroke-width:0.425197;stroke-linecap:butt;stroke-linejoin:round;stroke:rgb(12.941176%,27.45098%,40.392157%);stroke-opacity:1;stroke-miterlimit:1;" d="M 435.1875 476.019531 L 433.921875 472.742188 L 432.601562 466.261719 L 432.214844 459.78125 L 432.488281 453.300781 L 433.351562 446.820312 L 434.867188 440.34375 L 435.1875 439.324219 L 436.082031 433.863281 L 437.222656 427.382812 L 438.441406 420.902344 L 439.769531 414.421875 L 441.292969 407.941406 L 441.667969 406.308594 L 442.964844 401.460938 L 446.160156 394.980469 L 448.148438 393.023438 L 454.628906 392.398438 L 461.109375 394.800781 L 461.308594 394.980469 L 467.589844 400.671875 L 468.089844 401.460938 L 471.238281 407.941406 L 473.011719 414.421875 L 473.699219 420.902344 L 473.523438 427.382812 L 472.644531 433.863281 L 471.199219 440.34375 L 469.261719 446.820312 L 467.589844 451.449219 L 466.84375 453.300781 L 464.074219 459.78125 L 461.109375 465.933594 L 460.890625 466.261719 L 456.511719 472.742188 L 454.628906 475.382812 L 449.976562 479.222656 L 448.148438 480.917969 L 441.667969 482.585938 L 437.265625 479.222656 L 435.1875 476.019531 "/>
<path style="fill:none;stroke-width:0.425197;stroke-linecap:butt;stroke-linejoin:round;stroke:rgb(15.686275%,32.941176%,47.843137%);stroke-opacity:1;stroke-miterlimit:1;" d="M 273.179688 577.679688 L 272.386719 576.429688 L 269.777344 569.949219 L 268.550781 563.46875 L 268.140625 556.988281 L 268.242188 550.507812 L 268.6875 544.027344 L 269.34375 537.546875 L 270.117188 531.066406 L 270.917969 524.585938 L 271.707031 518.105469 L 272.542969 511.625 L 273.179688 507.566406 L 273.632812 505.144531 L 275.25 498.664062 L 277.679688 492.183594 L 279.65625 488.480469 L 282.046875 485.703125 L 286.136719 481.601562 L 292.617188 480.988281 L 296.078125 485.703125 L 298.453125 492.183594 L 299.097656 496.125 L 299.367188 498.664062 L 299.707031 505.144531 L 300.007812 511.625 L 300.527344 518.105469 L 301.398438 524.585938 L 302.554688 531.066406 L 303.785156 537.546875 L 304.824219 544.027344 L 305.429688 550.507812 L 305.402344 556.988281 L 304.546875 563.46875 L 302.597656 569.949219 L 299.121094 576.429688 L 299.097656 576.460938 L 292.617188 582.78125 L 292.246094 582.910156 L 286.136719 585.019531 L 279.65625 583.757812 L 278.433594 582.910156 L 273.179688 577.679688 "/>
<path style="fill:none;stroke-width:0.425197;stroke-linecap:butt;stroke-linejoin:round;stroke:rgb(15.686275%,32.941176%,47.843137%);stroke-opacity:1;stroke-miterlimit:1;" d="M 331.5 492.617188 L 331.453125 492.183594 L 330.933594 485.703125 L 330.671875 479.222656 L 330.625 472.742188 L 330.726562 466.261719 L 331.0625 453.300781 L 331.226562 446.820312 L 331.457031 440.34375 L 331.5 439.695312 L 332.097656 433.863281 L 334.257812 427.382812 L 337.980469 423.082031 L 344.460938 422.457031 L 350.941406 423.121094 L 357.421875 424.785156 L 362.941406 427.382812 L 363.902344 427.835938 L 370.382812 429.160156 L 371.570312 427.382812 L 375.125 420.902344 L 376.863281 417.472656 L 377.578125 414.421875 L 379.398438 407.941406 L 382.058594 401.460938 L 383.34375 399.199219 L 385.710938 394.980469 L 389.824219 390.199219 L 392.53125 388.5 L 396.304688 386.375 L 402.785156 386.074219 L 407.734375 388.5 L 409.265625 389.371094 L 413.808594 394.980469 L 415.746094 399.496094 L 416.535156 401.460938 L 418.128906 407.941406 L 418.871094 414.421875 L 419.097656 420.902344 L 418.9375 427.382812 L 418.445312 433.863281 L 417.613281 440.34375 L 416.429688 446.820312 L 415.746094 449.945312 L 415.210938 453.300781 L 414.109375 459.78125 L 412.824219 466.261719 L 411.199219 472.742188 L 409.265625 478.351562 L 408.960938 479.222656 L 406.171875 485.703125 L 402.785156 491.375 L 402.078125 492.183594 L 396.304688 498.417969 L 395.984375 498.664062 L 389.824219 504.839844 L 389.636719 505.144531 L 386.890625 511.625 L 385.363281 518.105469 L 384.53125 524.585938 L 384.183594 531.066406 L 384.195312 537.546875 L 384.445312 544.027344 L 384.800781 550.507812 L 385.105469 556.988281 L 385.210938 563.46875 L 384.984375 569.949219 L 384.253906 576.429688 L 383.34375 580.640625 L 382.878906 582.910156 L 380.710938 589.390625 L 377.113281 595.871094 L 376.863281 596.226562 L 371.140625 602.351562 L 370.382812 603.050781 L 363.902344 606.878906 L 357.421875 608.054688 L 350.941406 605.730469 L 347.933594 602.351562 L 344.460938 596.765625 L 344.066406 595.871094 L 341.8125 589.390625 L 340.261719 582.910156 L 339.144531 576.429688 L 338.296875 569.949219 L 337.980469 567.011719 L 337.46875 563.46875 L 336.6875 556.988281 L 336.0625 550.507812 L 335.574219 544.027344 L 335.175781 537.546875 L 334.796875 531.066406 L 334.367188 524.585938 L 333.84375 518.105469 L 333.234375 511.625 L 332.589844 505.144531 L 331.976562 498.664062 L 331.5 492.617188 "/>
<path style="fill:none;stroke-width:0.425197;stroke-linecap:butt;stroke-linejoin:round;stroke:rgb(15.686275%,32.941176%,47.843137%);stroke-opacity:1;stroke-miterlimit:1;" d="M 350.941406 360.023438 L 349.699219 356.097656 L 348.121094 349.617188 L 347.269531 343.136719 L 347.441406 336.65625 L 349.085938 330.175781 L 350.941406 326.804688 L 355.871094 323.695312 L 357.421875 323.039062 L 359.074219 323.695312 L 363.902344 326.246094 L 366.414062 330.175781 L 368.769531 336.65625 L 369.714844 343.136719 L 369.550781 349.617188 L 368.453125 356.097656 L 366.488281 362.578125 L 363.902344 368.402344 L 361.503906 369.058594 L 357.421875 370.058594 L 356.691406 369.058594 L 352.4375 362.578125 L 350.941406 360.023438 "/>
<path style="fill:none;stroke-width:0.425197;stroke-linecap:butt;stroke-linejoin:round;stroke:rgb(15.686275%,32.941176%,47.843137%);stroke-opacity:1;stroke-miterlimit:1;" d="M 441.667969 456.957031 L 441.226562 453.300781 L 441.261719 446.820312 L 441.667969 442.566406 L 441.890625 440.34375 L 442.90625 433.863281 L 444.140625 427.382812 L 445.664062 420.902344 L 447.703125 414.421875 L 448.148438 413.304688 L 451.925781 407.941406 L 454.628906 405.371094 L 461.109375 405.789062 L 463.097656 407.941406 L 467.164062 414.421875 L 467.589844 415.871094 L 468.429688 420.902344 L 468.449219 427.382812 L 467.59375 433.863281 L 467.589844 433.875 L 465.675781 440.34375 L 463.359375 446.820312 L 461.109375 452.367188 L 460.5 453.300781 L 456.324219 459.78125 L 454.628906 462.382812 L 448.175781 466.261719 L 448.148438 466.28125 L 448.113281 466.261719 L 442.355469 459.78125 L 441.667969 456.957031 "/>
<path style="fill:none;stroke-width:0.425197;stroke-linecap:butt;stroke-linejoin:round;stroke:rgb(18.431373%,38.823529%,55.686275%);stroke-opacity:1;stroke-miterlimit:1;" d="M 273.179688 562.765625 L 272.453125 556.988281 L 272.382812 550.507812 L 272.832031 544.027344 L 273.179688 541.214844 L 273.683594 537.546875 L 274.851562 531.066406 L 276.199219 524.585938 L 277.648438 518.105469 L 279.214844 511.625 L 279.65625 509.933594 L 282.507812 505.144531 L 286.136719 499.363281 L 291.765625 505.144531 L 292.617188 506.5 L 293.527344 511.625 L 294.738281 518.105469 L 296.195312 524.585938 L 297.886719 531.066406 L 299.097656 535.515625 L 299.554688 537.546875 L 300.804688 544.027344 L 301.5 550.507812 L 301.417969 556.988281 L 300.3125 563.46875 L 299.097656 566.863281 L 297.59375 569.949219 L 292.617188 576.230469 L 292.125 576.429688 L 286.136719 578.574219 L 280.265625 576.429688 L 279.65625 576.128906 L 275.429688 569.949219 L 273.28125 563.46875 L 273.179688 562.765625 "/>
<path style="fill:none;stroke-width:0.425197;stroke-linecap:butt;stroke-linejoin:round;stroke:rgb(18.431373%,38.823529%,55.686275%);stroke-opacity:1;stroke-miterlimit:1;" d="M 337.980469 524.769531 L 337.964844 524.585938 L 337.277344 518.105469 L 335.769531 505.144531 L 335.09375 498.664062 L 334.582031 492.183594 L 334.285156 485.703125 L 334.238281 479.222656 L 334.441406 472.742188 L 334.882812 466.261719 L 335.558594 459.78125 L 336.511719 453.300781 L 337.914062 446.820312 L 337.980469 446.570312 L 340.578125 440.34375 L 344.460938 435.628906 L 349.367188 433.863281 L 350.941406 433.414062 L 353.472656 433.863281 L 357.421875 434.507812 L 363.902344 438.65625 L 366.359375 440.34375 L 370.382812 444.742188 L 376.003906 440.34375 L 376.863281 439.148438 L 377.621094 433.863281 L 378.660156 427.382812 L 379.917969 420.902344 L 381.59375 414.421875 L 383.34375 409.589844 L 383.871094 407.941406 L 386.753906 401.460938 L 389.824219 396.933594 L 392.113281 394.980469 L 396.304688 391.996094 L 402.785156 391.738281 L 407.601562 394.980469 L 409.265625 396.457031 L 412.199219 401.460938 L 414.269531 407.941406 L 415.269531 414.421875 L 415.597656 420.902344 L 415.441406 427.382812 L 414.898438 433.863281 L 414.023438 440.34375 L 412.875 446.820312 L 411.503906 453.300781 L 409.941406 459.78125 L 409.265625 462.371094 L 408.167969 466.261719 L 406.128906 472.742188 L 403.53125 479.222656 L 402.785156 480.726562 L 398.8125 485.703125 L 396.304688 488.558594 L 389.847656 492.183594 L 389.824219 492.199219 L 383.976562 498.664062 L 383.34375 500.148438 L 382.410156 505.144531 L 381.617188 511.625 L 381.140625 518.105469 L 380.910156 524.585938 L 380.898438 531.066406 L 381.082031 537.546875 L 381.410156 544.027344 L 381.789062 550.507812 L 382.09375 556.988281 L 382.183594 563.46875 L 381.902344 569.949219 L 381.070312 576.429688 L 379.445312 582.910156 L 376.863281 588.957031 L 376.625 589.390625 L 371.738281 595.871094 L 370.382812 597.300781 L 363.902344 601.285156 L 357.421875 602.09375 L 350.941406 598.515625 L 349.074219 595.871094 L 345.839844 589.390625 L 344.460938 585.191406 L 343.820312 582.910156 L 342.457031 576.429688 L 341.464844 569.949219 L 340.714844 563.46875 L 340.125 556.988281 L 339.640625 550.507812 L 339.230469 544.027344 L 338.851562 537.546875 L 338.445312 531.066406 L 337.980469 524.769531 "/>
<path style="fill:none;stroke-width:0.425197;stroke-linecap:butt;stroke-linejoin:round;stroke:rgb(18.431373%,38.823529%,55.686275%);stroke-opacity:1;stroke-miterlimit:1;" d="M 454.628906 444.882812 L 451.472656 440.34375 L 451.210938 433.863281 L 452.40625 427.382812 L 454.628906 420.921875 L 461.109375 424.085938 L 461.496094 427.382812 L 461.109375 431.46875 L 460.398438 433.863281 L 456.988281 440.34375 L 454.628906 444.882812 "/>
<path style="fill:none;stroke-width:0.425197;stroke-linecap:butt;stroke-linejoin:round;stroke:rgb(21.568627%,44.705882%,63.529412%);stroke-opacity:1;stroke-miterlimit:1;" d="M 279.65625 566.582031 L 278.308594 563.46875 L 276.972656 556.988281 L 276.726562 550.507812 L 277.253906 544.027344 L 278.367188 537.546875 L 279.65625 532.074219 L 280.25 531.066406 L 284.652344 524.585938 L 286.136719 522.441406 L 287.710938 524.585938 L 292.617188 530.613281 L 292.753906 531.066406 L 294.75 537.546875 L 296.371094 544.027344 L 297.265625 550.507812 L 297.066406 556.988281 L 295.398438 563.46875 L 292.617188 568.625 L 290.203125 569.949219 L 286.136719 571.617188 L 283.261719 569.949219 L 279.65625 566.582031 "/>
<path style="fill:none;stroke-width:0.425197;stroke-linecap:butt;stroke-linejoin:round;stroke:rgb(21.568627%,44.705882%,63.529412%);stroke-opacity:1;stroke-miterlimit:1;" d="M 337.980469 495.796875 L 337.691406 492.183594 L 337.464844 485.703125 L 337.566406 479.222656 L 337.980469 473.300781 L 338.023438 472.742188 L 338.890625 466.261719 L 340.195312 459.78125 L 342.113281 453.300781 L 344.460938 448.046875 L 345.660156 446.820312 L 350.941406 442.804688 L 357.421875 443.699219 L 360.964844 446.820312 L 363.902344 450.304688 L 365.867188 453.300781 L 368.722656 459.78125 L 370.382812 465.148438 L 371.03125 466.261719 L 373.699219 472.742188 L 375.285156 479.222656 L 376.257812 485.703125 L 376.832031 492.183594 L 376.863281 492.738281 L 377.285156 498.664062 L 377.4375 505.144531 L 377.480469 511.625 L 377.519531 518.105469 L 377.621094 524.585938 L 377.835938 531.066406 L 378.179688 537.546875 L 378.628906 544.027344 L 379.085938 550.507812 L 379.425781 556.988281 L 379.484375 563.46875 L 379.09375 569.949219 L 378.03125 576.429688 L 376.863281 580.371094 L 375.90625 582.910156 L 372.148438 589.390625 L 370.382812 591.625 L 364.132812 595.871094 L 363.902344 596.015625 L 357.421875 596.398438 L 356.59375 595.871094 L 350.941406 591.125 L 349.988281 589.390625 L 347.402344 582.910156 L 345.742188 576.429688 L 344.632812 569.949219 L 344.460938 568.578125 L 343.820312 563.46875 L 343.207031 556.988281 L 342.71875 550.507812 L 342.296875 544.027344 L 341.894531 537.546875 L 341.453125 531.066406 L 340.929688 524.585938 L 340.304688 518.105469 L 339.597656 511.625 L 338.867188 505.144531 L 338.199219 498.664062 L 337.980469 495.796875 "/>
<path style="fill:none;stroke-width:0.425197;stroke-linecap:butt;stroke-linejoin:round;stroke:rgb(21.568627%,44.705882%,63.529412%);stroke-opacity:1;stroke-miterlimit:1;" d="M 383.34375 459.730469 L 382.445312 453.300781 L 381.925781 446.820312 L 381.75 440.34375 L 381.953125 433.863281 L 382.585938 427.382812 L 383.34375 423.148438 L 383.65625 420.902344 L 385.125 414.421875 L 387.417969 407.941406 L 389.824219 403.40625 L 391.523438 401.460938 L 396.304688 397.242188 L 402.785156 397.078125 L 407.566406 401.460938 L 409.265625 403.855469 L 410.9375 407.941406 L 412.367188 414.421875 L 412.890625 420.902344 L 412.765625 427.382812 L 412.117188 433.863281 L 411.023438 440.34375 L 409.558594 446.820312 L 409.265625 448 L 407.710938 453.300781 L 405.75 459.78125 L 403.664062 466.261719 L 402.785156 468.730469 L 400.03125 472.742188 L 396.304688 477.890625 L 389.824219 478.113281 L 385.898438 472.742188 L 384.214844 466.261719 L 383.351562 459.78125 L 383.34375 459.730469 "/>
<path style="fill:none;stroke-width:0.425197;stroke-linecap:butt;stroke-linejoin:round;stroke:rgb(24.313725%,50.588235%,71.764706%);stroke-opacity:1;stroke-miterlimit:1;" d="M 286.136719 562.0625 L 283.351562 556.988281 L 282.582031 550.507812 L 283.910156 544.027344 L 286.136719 539.339844 L 289.625 544.027344 L 292.371094 550.507812 L 291.21875 556.988281 L 286.136719 562.0625 "/>
<path style="fill:none;stroke-width:0.425197;stroke-linecap:butt;stroke-linejoin:round;stroke:rgb(24.313725%,50.588235%,71.764706%);stroke-opacity:1;stroke-miterlimit:1;" d="M 344.460938 531.085938 L 344.460938 531.066406 L 343.890625 524.585938 L 343.226562 518.105469 L 342.496094 511.625 L 341.773438 505.144531 L 341.15625 498.664062 L 340.753906 492.183594 L 340.671875 485.703125 L 340.988281 479.222656 L 341.761719 472.742188 L 343.046875 466.261719 L 344.460938 461.296875 L 345.332031 459.78125 L 350.25 453.300781 L 350.941406 452.597656 L 355.359375 453.300781 L 357.421875 453.671875 L 361.601562 459.78125 L 363.902344 464.28125 L 364.695312 466.261719 L 366.878906 472.742188 L 368.691406 479.222656 L 370.253906 485.703125 L 370.382812 486.289062 L 371.804688 492.183594 L 372.839844 498.664062 L 373.5 505.144531 L 373.925781 511.625 L 374.226562 518.105469 L 374.503906 524.585938 L 374.835938 531.066406 L 375.273438 537.546875 L 375.808594 544.027344 L 376.351562 550.507812 L 376.746094 556.988281 L 376.777344 563.46875 L 376.203125 569.949219 L 374.734375 576.429688 L 372.042969 582.910156 L 370.382812 585.597656 L 365.78125 589.390625 L 363.902344 590.707031 L 357.421875 590.546875 L 356.101562 589.390625 L 351.019531 582.910156 L 350.941406 582.761719 L 348.992188 576.429688 L 347.695312 569.949219 L 346.832031 563.46875 L 346.226562 556.988281 L 345.769531 550.507812 L 345.371094 544.027344 L 344.957031 537.546875 L 344.460938 531.085938 "/>
<path style="fill:none;stroke-width:0.425197;stroke-linecap:butt;stroke-linejoin:round;stroke:rgb(24.313725%,50.588235%,71.764706%);stroke-opacity:1;stroke-miterlimit:1;" d="M 389.824219 459.21875 L 388.148438 453.300781 L 386.816406 446.820312 L 385.964844 440.34375 L 385.628906 433.863281 L 385.847656 427.382812 L 386.6875 420.902344 L 388.285156 414.421875 L 389.824219 410.511719 L 391.414062 407.941406 L 396.304688 402.449219 L 402.785156 402.472656 L 406.996094 407.941406 L 409.265625 413.625 L 409.46875 414.421875 L 410.1875 420.902344 L 410.089844 427.382812 L 409.335938 433.863281 L 409.265625 434.234375 L 407.824219 440.34375 L 405.914062 446.820312 L 403.792969 453.300781 L 402.785156 456.332031 L 400.0625 459.78125 L 396.304688 465.199219 L 390.269531 459.78125 L 389.824219 459.21875 "/>
<path style="fill:none;stroke-width:0.425197;stroke-linecap:butt;stroke-linejoin:round;stroke:rgb(27.45098%,56.862745%,80%);stroke-opacity:1;stroke-miterlimit:1;" d="M 344.460938 502.597656 L 344.117188 498.664062 L 343.8125 492.183594 L 343.882812 485.703125 L 344.421875 479.222656 L 344.460938 478.953125 L 346.300781 472.742188 L 349.347656 466.261719 L 350.941406 463.710938 L 357.421875 465.347656 L 357.9375 466.261719 L 361.046875 472.742188 L 363.734375 479.222656 L 363.902344 479.648438 L 365.667969 485.703125 L 367.261719 492.183594 L 368.578125 498.664062 L 369.640625 505.144531 L 370.382812 510.796875 L 370.472656 511.625 L 371.011719 518.105469 L 371.871094 531.066406 L 372.363281 537.546875 L 372.921875 544.027344 L 373.457031 550.507812 L 373.808594 556.988281 L 373.75 563.46875 L 373.007812 569.949219 L 371.28125 576.429688 L 370.382812 578.453125 L 366.363281 582.910156 L 363.902344 584.960938 L 357.421875 584.109375 L 356.433594 582.910156 L 352.820312 576.429688 L 350.941406 570.785156 L 350.761719 569.949219 L 349.816406 563.46875 L 349.207031 556.988281 L 348.789062 550.507812 L 348.453125 544.027344 L 348.105469 537.546875 L 347.679688 531.066406 L 347.128906 524.585938 L 346.4375 518.105469 L 345.621094 511.625 L 344.753906 505.144531 L 344.460938 502.597656 "/>
<path style="fill:none;stroke-width:0.425197;stroke-linecap:butt;stroke-linejoin:round;stroke:rgb(27.45098%,56.862745%,80%);stroke-opacity:1;stroke-miterlimit:1;" d="M 389.824219 440.558594 L 389.78125 440.34375 L 388.996094 433.863281 L 388.953125 427.382812 L 389.71875 420.902344 L 389.824219 420.484375 L 392.179688 414.421875 L 396.304688 408.039062 L 402.785156 408.53125 L 405.667969 414.421875 L 406.957031 420.902344 L 406.945312 427.382812 L 405.992188 433.863281 L 404.347656 440.34375 L 402.785156 445.214844 L 401.207031 446.820312 L 396.304688 452.292969 L 392.519531 446.820312 L 389.824219 440.558594 "/>
<path style="fill:none;stroke-width:0.425197;stroke-linecap:butt;stroke-linejoin:round;stroke:rgb(30.588235%,63.137255%,88.235294%);stroke-opacity:1;stroke-miterlimit:1;" d="M 350.941406 531.777344 L 350.902344 531.066406 L 350.433594 524.585938 L 349.863281 518.105469 L 349.230469 511.625 L 348.625 505.144531 L 348.203125 498.664062 L 348.171875 492.183594 L 348.792969 485.703125 L 350.320312 479.222656 L 350.941406 477.550781 L 357.421875 478.980469 L 357.527344 479.222656 L 360.027344 485.703125 L 362.371094 492.183594 L 363.902344 496.53125 L 364.375 498.664062 L 365.519531 505.144531 L 366.382812 511.625 L 367.046875 518.105469 L 367.613281 524.585938 L 368.207031 531.066406 L 368.925781 537.546875 L 369.800781 544.027344 L 370.382812 548.3125 L 370.5625 550.507812 L 370.871094 556.988281 L 370.722656 563.46875 L 370.382812 565.96875 L 369.28125 569.949219 L 365.488281 576.429688 L 363.902344 578.175781 L 357.914062 576.429688 L 357.421875 576.210938 L 355.007812 569.949219 L 353.558594 563.46875 L 352.71875 556.988281 L 352.21875 550.507812 L 351.851562 544.027344 L 351.453125 537.546875 L 350.941406 531.777344 "/>
<path style="fill:none;stroke-width:0.425197;stroke-linecap:butt;stroke-linejoin:round;stroke:rgb(30.588235%,63.137255%,88.235294%);stroke-opacity:1;stroke-miterlimit:1;" d="M 396.304688 440.285156 L 393.980469 433.863281 L 393.335938 427.382812 L 394.242188 420.902344 L 396.304688 415.609375 L 402.785156 418.132812 L 403.453125 420.902344 L 403.589844 427.382812 L 402.785156 432.816406 L 402.148438 433.863281 L 396.304688 440.285156 "/>
<path style="fill:none;stroke-width:0.425197;stroke-linecap:butt;stroke-linejoin:round;stroke:rgb(33.72549%,69.411765%,96.862745%);stroke-opacity:1;stroke-miterlimit:1;" d="M 357.421875 560.71875 L 356.96875 556.988281 L 356.65625 550.507812 L 356.582031 544.027344 L 356.5625 537.546875 L 356.464844 531.066406 L 356.238281 524.585938 L 355.925781 518.105469 L 355.671875 511.625 L 355.875 505.144531 L 357.421875 499.640625 L 358.535156 505.144531 L 359.558594 511.625 L 360.40625 518.105469 L 361.34375 524.585938 L 363.390625 531.066406 L 363.902344 531.875 L 364.375 537.546875 L 365.007812 544.027344 L 365.609375 550.507812 L 365.855469 556.988281 L 365.21875 563.46875 L 363.902344 567.550781 L 359.097656 563.46875 L 357.421875 560.71875 "/>
</g>
</svg>
