<?xml version="1.0" encoding="UTF-8"?>
<svg xmlns="http://www.w3.org/2000/svg" xmlns:xlink="http://www.w3.org/1999/xlink" width="720pt" height="720pt" viewBox="0 0 720 720" version="1.1">
<defs>
<clipPath id="clip1">
  <path d="M 14.285156 0 L 720 0 L 720 706 L 14.285156 706 Z "/>
</clipPath>
</defs>
<g id="surface6">
<rect x="0" y="0" width="720" height="720" style="fill:rgb(100%,100%,100%);fill-opacity:1;stroke:none;"/>
<rect x="0" y="0" width="720" height="720" style="fill:rgb(100%,100%,100%);fill-opacity:1;stroke:none;"/>
<path style="fill:none;stroke-width:1.062992;stroke-linecap:round;stroke-linejoin:round;stroke:rgb(100%,100%,100%);stroke-opacity:1;stroke-miterlimit:10;" d="M 0 720 L 720 720 L 720 0 L 0 0 Z "/>
<g clip-path="url(#clip1)" clip-rule="nonzero">
<path style=" stroke:none;fill-rule:nonzero;fill:rgb(100%,100%,100%);fill-opacity:1;" d="M 14.285156 705.714844 L 720 705.714844 L 720 0 L 14.285156 0 Z "/>
</g>
<path style="fill:none;stroke-width:0.425197;stroke-linecap:butt;stroke-linejoin:round;stroke:rgb(7.45098%,16.862745%,26.27451%);stroke-opacity:1;stroke-miterlimit:1;" d="M 108.308594 673.636719 L 104.6875 669.359375 L 102.917969 667.15625 L 99.160156 660.675781 L 98.207031 658.117188 L 96.824219 654.195312 L 95.683594 647.714844 L 95.542969 641.234375 L 96.234375 634.753906 L 97.546875 628.273438 L 98.207031 625.699219 L 99.269531 621.792969 L 101.0625 615.3125 L 102.539062 608.832031 L 103.355469 602.351562 L 103.230469 595.871094 L 101.988281 589.390625 L 99.59375 582.910156 L 98.207031 580.371094 L 96.15625 576.429688 L 91.859375 569.949219 L 91.726562 569.785156 L 87.023438 563.46875 L 85.246094 561.320312 L 81.933594 556.988281 L 78.765625 553.058594 L 76.871094 550.507812 L 72.285156 544.355469 L 72.058594 544.027344 L 67.695312 537.546875 L 65.804688 534.484375 L 63.84375 531.066406 L 60.570312 524.585938 L 59.324219 521.640625 L 57.910156 518.105469 L 55.871094 511.625 L 54.441406 505.144531 L 53.625 498.664062 L 53.398438 492.183594 L 53.757812 485.703125 L 54.691406 479.222656 L 56.199219 472.742188 L 58.285156 466.261719 L 59.324219 463.71875 L 60.949219 459.78125 L 64.214844 453.300781 L 65.804688 450.621094 L 68.121094 446.820312 L 72.285156 440.925781 L 72.714844 440.34375 L 78.070312 433.863281 L 78.765625 433.097656 L 84.292969 427.382812 L 85.246094 426.472656 L 91.507812 420.902344 L 91.726562 420.714844 L 98.207031 415.632812 L 99.867188 414.421875 L 104.6875 411.046875 L 109.457031 407.941406 L 111.167969 406.851562 L 117.648438 402.953125 L 120.257812 401.460938 L 124.128906 399.261719 L 130.609375 395.738281 L 132.039062 394.980469 L 137.089844 392.277344 L 143.570312 388.929688 L 144.421875 388.5 L 150.050781 385.574219 L 156.53125 382.324219 L 157.15625 382.019531 L 163.011719 379.0625 L 169.492188 375.957031 L 170.417969 375.539062 L 175.972656 372.90625 L 182.453125 370.089844 L 185.101562 369.058594 L 188.933594 367.472656 L 195.414062 365.144531 L 201.894531 363.210938 L 204.660156 362.578125 L 208.375 361.648438 L 214.855469 360.558594 L 221.335938 360.046875 L 227.816406 360.203125 L 234.296875 361.160156 L 239.097656 362.578125 L 240.777344 363.074219 L 247.257812 366.078125 L 251.601562 369.058594 L 253.738281 370.578125 L 258.945312 375.539062 L 260.21875 376.820312 L 264.375 382.019531 L 266.699219 385.15625 L 268.808594 388.5 L 272.582031 394.980469 L 273.179688 396.058594 L 275.871094 401.460938 L 278.804688 407.941406 L 279.65625 409.933594 L 281.464844 414.421875 L 283.878906 420.902344 L 286.074219 427.382812 L 286.136719 427.574219 L 288.140625 433.863281 L 290.039062 440.34375 L 291.792969 446.820312 L 292.617188 450.042969 L 293.472656 453.300781 L 295.109375 459.78125 L 296.691406 466.261719 L 298.265625 472.742188 L 299.097656 476.0625 L 299.941406 479.222656 L 301.789062 485.703125 L 303.832031 492.183594 L 305.578125 497.046875 L 306.210938 498.664062 L 309.136719 505.144531 L 312.058594 510.597656 L 312.65625 511.625 L 317.101562 518.105469 L 318.539062 519.878906 L 322.632812 524.585938 L 325.019531 526.933594 L 329.457031 531.066406 L 331.5 532.714844 L 337.722656 537.546875 L 337.980469 537.722656 L 344.460938 541.992188 L 347.605469 544.027344 L 350.941406 545.941406 L 357.421875 549.613281 L 359.03125 550.507812 L 363.902344 552.921875 L 370.382812 556.109375 L 372.222656 556.988281 L 376.863281 558.976562 L 383.34375 561.703125 L 387.65625 563.46875 L 389.824219 564.265625 L 396.304688 566.546875 L 402.785156 568.769531 L 406.375 569.949219 L 409.265625 570.804688 L 415.746094 572.636719 L 422.226562 574.425781 L 428.707031 576.183594 L 429.648438 576.429688 L 435.1875 577.75 L 441.667969 579.296875 L 448.148438 580.878906 L 454.628906 582.523438 L 456.132812 582.910156 L 461.109375 584.105469 L 467.589844 585.742188 L 474.070312 587.488281 L 480.550781 589.351562 L 480.6875 589.390625 L 487.03125 591.148438 L 493.511719 593.011719 L 499.992188 594.898438 L 503.546875 595.871094 L 506.472656 596.652344 L 512.953125 598.140625 L 519.433594 599.269531 L 525.914062 599.824219 L 532.394531 599.589844 L 538.875 598.367188 L 545.355469 596.042969 L 545.675781 595.871094 L 551.835938 592.367188 L 555.867188 589.390625 L 558.316406 587.464844 L 563.132812 582.910156 L 564.792969 581.222656 L 568.910156 576.429688 L 571.273438 573.425781 L 573.738281 569.949219 L 577.753906 563.644531 L 577.859375 563.46875 L 581.054688 556.988281 L 583.699219 550.507812 L 584.234375 548.777344 L 585.589844 544.027344 L 586.875 537.546875 L 587.628906 531.066406 L 587.925781 524.585938 L 587.847656 518.105469 L 587.480469 511.625 L 586.90625 505.144531 L 586.199219 498.664062 L 585.414062 492.183594 L 584.585938 485.703125 L 584.234375 483.042969 L 583.695312 479.222656 L 582.777344 472.742188 L 581.847656 466.261719 L 580.902344 459.78125 L 579.917969 453.300781 L 578.867188 446.820312 L 577.753906 440.574219 L 577.710938 440.34375 L 576.332031 433.863281 L 574.769531 427.382812 L 572.980469 420.902344 L 571.273438 415.519531 L 570.902344 414.421875 L 568.40625 407.941406 L 565.578125 401.460938 L 564.792969 399.863281 L 562.277344 394.980469 L 558.59375 388.5 L 558.316406 388.054688 L 554.410156 382.019531 L 551.835938 378.324219 L 549.847656 375.539062 L 545.355469 369.601562 L 544.933594 369.058594 L 539.667969 362.578125 L 538.875 361.648438 L 534.121094 356.097656 L 532.394531 354.148438 L 528.371094 349.617188 L 525.914062 346.921875 L 522.460938 343.136719 L 519.433594 339.875 L 516.4375 336.65625 L 512.953125 332.949219 L 510.332031 330.175781 L 506.472656 326.105469 L 504.167969 323.695312 L 499.992188 319.3125 L 497.960938 317.214844 L 493.511719 312.570312 L 491.714844 310.734375 L 487.03125 305.875 L 485.417969 304.253906 L 480.550781 299.257812 L 479.042969 297.773438 L 474.070312 292.761719 L 472.535156 291.292969 L 467.589844 286.445312 L 465.8125 284.8125 L 461.109375 280.394531 L 458.730469 278.332031 L 454.628906 274.699219 L 451.074219 271.851562 L 448.148438 269.457031 L 442.496094 265.371094 L 441.667969 264.761719 L 435.1875 260.742188 L 431.519531 258.890625 L 428.707031 257.441406 L 422.226562 254.945312 L 415.746094 253.28125 L 409.265625 252.472656 L 402.785156 252.5 L 396.304688 253.316406 L 389.824219 254.816406 L 383.34375 256.886719 L 378.125 258.890625 L 376.863281 259.382812 L 370.382812 262.140625 L 363.902344 265.007812 L 363.0625 265.371094 L 357.421875 267.84375 L 350.941406 270.511719 L 347.296875 271.851562 L 344.460938 272.914062 L 337.980469 274.945312 L 331.5 276.519531 L 325.019531 277.558594 L 318.539062 277.96875 L 312.058594 277.632812 L 305.578125 276.378906 L 299.097656 273.972656 L 295.425781 271.851562 L 292.617188 270.007812 L 287.589844 265.371094 L 286.136719 263.769531 L 282.652344 258.890625 L 279.65625 253.488281 L 279.152344 252.410156 L 276.773438 245.929688 L 275.171875 239.449219 L 274.273438 232.96875 L 274.027344 226.488281 L 274.414062 220.007812 L 275.417969 213.527344 L 277.050781 207.046875 L 279.332031 200.566406 L 279.65625 199.851562 L 282.371094 194.085938 L 286.136719 187.65625 L 286.171875 187.605469 L 290.96875 181.125 L 292.617188 179.21875 L 296.921875 174.644531 L 299.097656 172.613281 L 304.390625 168.164062 L 305.578125 167.265625 L 312.058594 162.910156 L 314.148438 161.683594 L 318.539062 159.300781 L 325.019531 156.277344 L 327.703125 155.207031 L 331.5 153.761719 L 337.980469 151.671875 L 344.460938 149.890625 L 349.378906 148.726562 L 350.941406 148.363281 L 357.421875 147.054688 L 363.902344 145.859375 L 370.382812 144.699219 L 376.863281 143.511719 L 383.210938 142.246094 L 383.34375 142.21875 L 389.824219 140.820312 L 396.304688 139.234375 L 402.785156 137.4375 L 408.167969 135.765625 L 409.265625 135.433594 L 415.746094 133.300781 L 422.226562 131.042969 L 427.109375 129.285156 L 428.707031 128.726562 L 435.1875 126.425781 L 441.667969 124.191406 L 445.851562 122.804688 L 448.148438 122.058594 L 454.628906 120.0625 L 461.109375 118.242188 L 467.589844 116.617188 L 468.882812 116.324219 L 474.070312 115.136719 L 480.550781 113.835938 L 487.03125 112.714844 L 493.511719 111.765625 L 499.992188 110.964844 L 506.472656 110.300781 L 511.90625 109.84375 L 512.953125 109.75 L 519.433594 109.273438 L 525.914062 108.902344 L 532.394531 108.628906 L 538.875 108.445312 L 545.355469 108.355469 L 551.835938 108.363281 L 558.316406 108.480469 L 564.792969 108.714844 L 571.273438 109.082031 L 577.753906 109.605469 L 579.964844 109.84375 L 584.234375 110.261719 L 590.714844 111.078125 L 597.195312 112.097656 L 603.675781 113.355469 L 610.15625 114.875 L 615.351562 116.324219 L 616.636719 116.660156 L 623.117188 118.617188 L 629.597656 120.902344 L 634.3125 122.804688 L 636.078125 123.488281 L 642.558594 126.257812 L 648.785156 129.285156 L 649.039062 129.402344 L 655.519531 132.652344 L 661.117188 135.765625 L 662 136.238281 L 668.480469 139.929688 L 672.257812 142.246094 L 674.960938 143.859375 L 681.441406 147.964844 L 682.589844 148.726562 L 687.921875 152.179688 "/>
<path style="fill:none;stroke-width:0.425197;stroke-linecap:butt;stroke-linejoin:round;stroke:rgb(12.156863%,26.27451%,39.215686%);stroke-opacity:1;stroke-miterlimit:1;" d="M 195.203125 673.636719 L 192.980469 667.15625 L 191.480469 660.675781 L 190.609375 654.195312 L 190.285156 647.714844 L 190.425781 641.234375 L 190.957031 634.753906 L 191.792969 628.273438 L 192.855469 621.792969 L 194.039062 615.3125 L 195.246094 608.832031 L 195.414062 607.816406 L 196.300781 602.351562 L 197.140625 595.871094 L 197.636719 589.390625 L 197.617188 582.910156 L 196.875 576.429688 L 195.414062 570.828125 L 195.164062 569.949219 L 192.296875 563.46875 L 188.933594 558.230469 L 188.09375 556.988281 L 182.667969 550.507812 L 182.453125 550.289062 L 176.320312 544.027344 L 175.972656 543.703125 L 169.492188 537.574219 L 169.464844 537.546875 L 163.011719 531.507812 L 162.542969 531.066406 L 156.53125 525.203125 L 155.902344 524.585938 L 150.050781 518.355469 L 149.816406 518.105469 L 144.507812 511.625 L 143.570312 510.238281 L 140.148438 505.144531 L 137.089844 499.101562 L 136.871094 498.664062 L 134.75 492.183594 L 133.84375 485.703125 L 134.1875 479.222656 L 135.796875 472.742188 L 137.089844 469.84375 L 138.722656 466.261719 L 143 459.78125 L 143.570312 459.113281 L 148.730469 453.300781 L 150.050781 452.078125 L 156.023438 446.820312 L 156.53125 446.433594 L 163.011719 441.804688 L 165.25 440.34375 L 169.492188 437.839844 L 175.972656 434.441406 L 177.265625 433.863281 L 182.453125 431.683594 L 188.933594 429.507812 L 195.414062 427.96875 L 200.132812 427.382812 L 201.894531 427.167969 L 208.375 427.207031 L 209.554688 427.382812 L 214.855469 428.222656 L 221.335938 430.386719 L 227.765625 433.863281 L 227.816406 433.890625 L 234.296875 439.234375 L 235.332031 440.34375 L 240.664062 446.820312 L 240.777344 446.976562 L 244.558594 453.300781 L 247.257812 458.65625 L 247.753906 459.78125 L 250.207031 466.261719 L 252.246094 472.742188 L 253.738281 478.433594 L 253.929688 479.222656 L 255.253906 485.703125 L 256.386719 492.183594 L 258.449219 505.144531 L 259.625 511.625 L 260.21875 514.285156 L 261.078125 518.105469 L 263.0625 524.585938 L 266.042969 531.066406 L 266.699219 532.089844 L 270.378906 537.546875 L 273.179688 540.460938 L 276.832031 544.027344 L 279.65625 546.105469 L 286.058594 550.507812 L 286.136719 550.550781 L 292.617188 554.097656 L 298.136719 556.988281 L 299.097656 557.410156 L 305.578125 560.316406 L 312.058594 563.210938 L 312.625 563.46875 L 318.539062 565.855469 L 325.019531 568.523438 L 328.386719 569.949219 L 331.5 571.136719 L 337.980469 573.679688 L 344.460938 576.292969 L 344.792969 576.429688 L 350.941406 578.742188 L 357.421875 581.226562 L 361.78125 582.910156 L 363.902344 583.671875 L 376.863281 588.3125 L 379.929688 589.390625 L 383.34375 590.523438 L 389.824219 592.625 L 396.304688 594.699219 L 400.0625 595.871094 L 402.785156 596.683594 L 409.265625 598.5625 L 422.226562 602.28125 L 422.476562 602.351562 L 428.707031 604.066406 L 435.1875 605.886719 L 441.667969 607.777344 L 445.148438 608.832031 L 448.148438 609.742188 L 454.628906 611.800781 L 461.109375 614.023438 L 464.621094 615.3125 L 467.589844 616.4375 L 474.070312 619.054688 L 480.285156 621.792969 L 480.550781 621.917969 L 487.03125 625.074219 L 493.183594 628.273438 L 493.511719 628.460938 L 499.992188 632.179688 L 504.5 634.753906 L 506.472656 636.054688 L 512.953125 640.015625 L 515.277344 641.234375 L 519.433594 643.871094 L 525.914062 646.96875 L 528.902344 647.714844 L 532.394531 648.835938 L 538.875 648.453125 L 540.316406 647.714844 L 545.355469 645.617188 L 550.734375 641.234375 L 551.835938 640.472656 L 557.433594 634.753906 L 558.316406 633.964844 L 563.230469 628.273438 L 564.792969 626.644531 L 568.707031 621.792969 L 571.273438 618.886719 L 574.066406 615.3125 L 577.753906 610.929688 L 579.382812 608.832031 L 584.234375 602.90625 L 584.671875 602.351562 L 589.851562 595.871094 L 590.714844 594.789062 L 594.957031 589.390625 L 597.195312 586.496094 L 599.96875 582.910156 L 603.675781 577.90625 L 604.789062 576.429688 L 609.28125 569.949219 L 610.15625 568.53125 L 613.363281 563.46875 L 616.636719 557.511719 L 616.9375 556.988281 L 619.910156 550.507812 L 622.214844 544.027344 L 623.117188 540.402344 L 623.867188 537.546875 L 624.898438 531.066406 L 625.367188 524.585938 L 625.386719 518.105469 L 625.070312 511.625 L 624.53125 505.144531 L 623.878906 498.664062 L 623.1875 492.183594 L 623.117188 491.5 L 622.558594 485.703125 L 622.019531 479.222656 L 621.589844 472.742188 L 621.292969 466.261719 L 621.125 459.78125 L 621.085938 453.300781 L 621.148438 446.820312 L 621.285156 440.34375 L 621.453125 433.863281 L 621.582031 427.382812 L 621.601562 420.902344 L 621.394531 414.421875 L 620.828125 407.941406 L 619.730469 401.460938 L 617.890625 394.980469 L 616.636719 392 L 615.246094 388.5 L 611.683594 382.019531 L 610.15625 379.894531 L 607.199219 375.539062 L 603.675781 371.378906 L 601.8125 369.058594 L 597.195312 364.226562 L 595.699219 362.578125 L 590.714844 357.796875 L 589.027344 356.097656 L 584.234375 351.773438 L 581.964844 349.617188 L 577.753906 345.960938 L 574.667969 343.136719 L 571.273438 340.238281 L 567.289062 336.65625 L 564.792969 334.53125 L 559.945312 330.175781 L 558.316406 328.765625 L 552.734375 323.695312 L 551.835938 322.898438 L 545.714844 317.214844 L 545.355469 316.882812 L 538.933594 310.734375 L 538.875 310.679688 L 532.398438 304.253906 L 532.394531 304.246094 L 526.121094 297.773438 L 525.914062 297.554688 L 520.09375 291.292969 L 519.433594 290.558594 L 514.308594 284.8125 L 512.953125 283.230469 L 508.753906 278.332031 L 506.472656 275.535156 L 503.429688 271.851562 L 499.992188 267.453125 L 498.328125 265.371094 L 493.511719 258.964844 L 493.453125 258.890625 L 488.710938 252.410156 L 487.03125 249.925781 L 484.191406 245.929688 L 480.550781 240.328125 L 479.941406 239.449219 L 475.886719 232.96875 L 474.070312 229.671875 L 472.164062 226.488281 L 468.855469 220.007812 L 467.589844 216.949219 L 466.023438 213.527344 L 463.824219 207.046875 L 462.460938 200.566406 L 462.058594 194.085938 L 462.785156 187.605469 L 464.855469 181.125 L 467.589844 176.238281 L 468.503906 174.644531 L 473.976562 168.164062 L 474.070312 168.082031 L 480.550781 162.617188 L 481.773438 161.683594 L 487.03125 158.398438 L 492.921875 155.207031 L 493.511719 154.929688 L 499.992188 152.171875 L 506.472656 149.847656 L 510.128906 148.726562 L 512.953125 147.925781 L 519.433594 146.351562 L 525.914062 145.066406 L 532.394531 144.039062 L 538.875 143.253906 L 545.355469 142.695312 L 551.835938 142.355469 L 557.707031 142.246094 L 558.316406 142.234375 L 559.085938 142.246094 L 564.792969 142.328125 L 571.273438 142.648438 L 577.753906 143.199219 L 584.234375 144 L 590.714844 145.066406 L 597.195312 146.40625 L 603.675781 148.046875 L 605.957031 148.726562 L 610.15625 149.960938 L 616.636719 152.160156 L 623.117188 154.679688 L 624.34375 155.207031 L 629.597656 157.453125 L 636.078125 160.515625 L 638.375 161.683594 L 642.558594 163.820312 L 649.039062 167.371094 L 650.414062 168.164062 L 655.519531 171.128906 L 661.242188 174.644531 L 662 175.117188 L 668.480469 179.308594 L 671.164062 181.125 L 674.960938 183.753906 L 680.257812 187.605469 L 681.441406 188.5 L 687.921875 193.625 "/>
<path style="fill:none;stroke-width:0.425197;stroke-linecap:butt;stroke-linejoin:round;stroke:rgb(12.156863%,26.27451%,39.215686%);stroke-opacity:1;stroke-miterlimit:1;" d="M 687.921875 400.097656 L 686.425781 394.980469 L 685.3125 388.5 L 685.035156 382.019531 L 685.613281 375.539062 L 687.03125 369.058594 L 687.921875 366.46875 "/>
<path style="fill:none;stroke-width:0.425197;stroke-linecap:butt;stroke-linejoin:round;stroke:rgb(17.254902%,36.470588%,52.54902%);stroke-opacity:1;stroke-miterlimit:1;" d="M 227.15625 673.636719 L 225.238281 667.15625 L 224.066406 660.675781 L 223.578125 654.195312 L 223.726562 647.714844 L 224.480469 641.234375 L 225.828125 634.753906 L 227.765625 628.273438 L 227.816406 628.144531 L 230.28125 621.792969 L 233.476562 615.3125 L 234.296875 613.867188 L 237.503906 608.832031 L 240.777344 604.476562 L 242.683594 602.351562 L 247.257812 597.859375 L 249.878906 595.871094 L 253.738281 593.207031 L 260.21875 590.070312 L 262.273438 589.390625 L 266.699219 588.003906 L 273.179688 586.796875 L 279.65625 586.257812 L 286.136719 586.242188 L 292.617188 586.636719 L 299.097656 587.378906 L 305.578125 588.417969 L 310.410156 589.390625 L 312.058594 589.695312 L 318.539062 591.136719 L 325.019531 592.777344 L 331.5 594.589844 L 335.714844 595.871094 L 337.980469 596.527344 L 344.460938 598.53125 L 350.941406 600.640625 L 356 602.351562 L 357.421875 602.820312 L 363.902344 605 L 370.382812 607.214844 L 375.074219 608.832031 L 376.863281 609.445312 L 383.34375 611.644531 L 389.824219 613.839844 L 394.210938 615.3125 L 396.304688 616.027344 L 402.785156 618.203125 L 409.265625 620.375 L 413.492188 621.792969 L 415.746094 622.582031 L 422.226562 624.855469 L 428.707031 627.191406 L 431.625 628.273438 L 435.1875 629.699219 L 441.667969 632.410156 L 446.9375 634.753906 L 448.148438 635.359375 L 454.628906 638.792969 L 458.898438 641.234375 L 461.109375 642.734375 L 467.589844 647.460938 L 467.917969 647.714844 L 474.070312 653.773438 L 474.476562 654.195312 L 478.953125 660.675781 L 480.550781 664.636719 L 481.550781 667.15625 L 482.375 673.636719 "/>
<path style="fill:none;stroke-width:0.425197;stroke-linecap:butt;stroke-linejoin:round;stroke:rgb(17.254902%,36.470588%,52.54902%);stroke-opacity:1;stroke-miterlimit:1;" d="M 687.921875 284.121094 L 687.667969 284.8125 L 684.535156 291.292969 L 681.441406 296.484375 L 680.566406 297.773438 L 675.503906 304.253906 L 674.960938 304.886719 L 669.058594 310.734375 L 668.480469 311.269531 L 662 316.25 L 660.40625 317.214844 L 655.519531 320.089844 L 649.039062 322.851562 L 646.007812 323.695312 L 642.558594 324.652344 L 636.078125 325.539062 L 629.597656 325.585938 L 623.117188 324.878906 L 617.570312 323.695312 L 616.636719 323.507812 L 610.15625 321.609375 L 603.675781 319.1875 L 599.300781 317.214844 L 597.195312 316.308594 L 590.714844 313.027344 L 586.730469 310.734375 L 584.234375 309.335938 L 577.753906 305.253906 L 576.320312 304.253906 L 571.273438 300.761719 L 567.335938 297.773438 L 564.792969 295.832031 L 559.316406 291.292969 L 558.316406 290.445312 L 552.128906 284.8125 L 551.835938 284.535156 L 545.648438 278.332031 L 545.355469 278.019531 L 539.785156 271.851562 L 538.875 270.773438 L 534.460938 265.371094 L 532.394531 262.628906 L 529.632812 258.890625 L 525.914062 253.355469 L 525.285156 252.410156 L 521.4375 245.929688 L 519.433594 242.046875 L 518.078125 239.449219 L 515.261719 232.96875 L 513.019531 226.488281 L 512.953125 226.191406 L 511.46875 220.007812 L 510.707031 213.527344 L 510.902344 207.046875 L 512.277344 200.566406 L 512.953125 198.941406 L 515.222656 194.085938 L 519.433594 188.542969 L 520.265625 187.605469 L 525.914062 182.992188 L 528.734375 181.125 L 532.394531 179.183594 L 538.875 176.449219 L 544.558594 174.644531 L 545.355469 174.425781 L 551.835938 173.085938 L 558.316406 172.226562 L 564.792969 171.800781 L 571.273438 171.789062 L 577.753906 172.175781 L 584.234375 172.945312 L 590.714844 174.089844 L 593.101562 174.644531 L 597.195312 175.632812 L 603.675781 177.558594 L 610.15625 179.832031 L 613.390625 181.125 L 616.636719 182.476562 L 623.117188 185.476562 L 627.339844 187.605469 L 629.597656 188.796875 L 636.078125 192.449219 L 638.824219 194.085938 L 642.558594 196.429688 L 648.867188 200.566406 L 649.039062 200.6875 L 655.519531 205.390625 L 657.714844 207.046875 L 662 210.542969 L 665.515625 213.527344 L 668.480469 216.304688 L 672.257812 220.007812 L 674.960938 223.011719 L 677.9375 226.488281 L 681.441406 231.304688 L 682.589844 232.96875 L 686.226562 239.449219 L 687.921875 243.414062 "/>
<path style="fill:none;stroke-width:0.425197;stroke-linecap:butt;stroke-linejoin:round;stroke:rgb(17.254902%,36.470588%,52.54902%);stroke-opacity:1;stroke-miterlimit:1;" d="M 577.621094 673.636719 L 577.160156 667.15625 L 577.625 660.675781 L 577.753906 660.035156 L 578.804688 654.195312 L 580.710938 647.714844 L 583.355469 641.234375 L 584.234375 639.511719 L 586.484375 634.753906 L 590.195312 628.273438 L 590.714844 627.476562 L 594.289062 621.792969 L 597.195312 617.6875 L 598.867188 615.3125 L 603.675781 609.058594 L 603.855469 608.832031 L 609.183594 602.351562 L 610.15625 601.203125 L 614.886719 595.871094 L 616.636719 593.894531 L 620.921875 589.390625 L 623.117188 587.007812 L 627.261719 582.910156 L 629.597656 580.449219 L 633.882812 576.429688 L 636.078125 574.164062 L 640.796875 569.949219 L 642.558594 568.152344 L 648.085938 563.46875 L 649.039062 562.507812 L 655.519531 557.378906 L 656.210938 556.988281 L 662 552.921875 L 667.839844 550.507812 L 668.480469 550.167969 L 674.960938 549.089844 L 681.441406 550.402344 L 681.632812 550.507812 L 687.921875 553.308594 "/>
<path style="fill:none;stroke-width:0.425197;stroke-linecap:butt;stroke-linejoin:round;stroke:rgb(22.745098%,47.058824%,66.666667%);stroke-opacity:1;stroke-miterlimit:1;" d="M 253.183594 673.636719 L 251.179688 667.15625 L 250.15625 660.675781 L 250.078125 654.195312 L 250.941406 647.714844 L 252.785156 641.234375 L 253.738281 639.019531 L 255.78125 634.753906 L 260.132812 628.273438 L 260.21875 628.171875 L 266.628906 621.792969 L 266.699219 621.734375 L 273.179688 617.425781 L 277.578125 615.3125 L 279.65625 614.429688 L 286.136719 612.476562 L 292.617188 611.300781 L 299.097656 610.757812 L 305.578125 610.742188 L 312.058594 611.171875 L 318.539062 611.972656 L 325.019531 613.097656 L 331.5 614.5 L 334.6875 615.3125 L 337.980469 616.15625 L 344.460938 618.023438 L 350.941406 620.050781 L 356.175781 621.792969 L 357.421875 622.222656 L 363.902344 624.570312 L 370.382812 626.980469 L 373.792969 628.273438 L 376.863281 629.523438 L 383.34375 632.179688 L 389.585938 634.753906 L 389.824219 634.863281 L 396.304688 637.832031 L 402.785156 640.808594 L 403.707031 641.234375 L 409.265625 644.222656 L 415.667969 647.714844 L 415.746094 647.765625 L 422.226562 652.238281 L 424.988281 654.195312 L 428.707031 657.855469 L 431.488281 660.675781 L 435.1875 667.042969 L 435.25 667.15625 L 436.320312 673.636719 "/>
<path style="fill:none;stroke-width:0.425197;stroke-linecap:butt;stroke-linejoin:round;stroke:rgb(22.745098%,47.058824%,66.666667%);stroke-opacity:1;stroke-miterlimit:1;" d="M 564.792969 247.6875 L 563.675781 245.929688 L 560.671875 239.449219 L 558.890625 232.96875 L 558.765625 226.488281 L 560.980469 220.007812 L 564.792969 215.410156 L 567.289062 213.527344 L 571.273438 211.625 L 577.753906 210.066406 L 584.234375 209.773438 L 590.714844 210.480469 L 597.195312 211.976562 L 601.816406 213.527344 L 603.675781 214.246094 L 610.15625 217.414062 L 614.78125 220.007812 L 616.636719 221.234375 L 623.117188 225.96875 L 623.773438 226.488281 L 629.597656 232.070312 L 630.484375 232.96875 L 635.464844 239.449219 L 636.078125 240.617188 L 638.726562 245.929688 L 640.367188 252.410156 L 640.128906 258.890625 L 637.574219 265.371094 L 636.078125 267.289062 L 631.097656 271.851562 L 629.597656 272.765625 L 623.117188 275.285156 L 616.636719 276.40625 L 610.15625 276.367188 L 603.675781 275.351562 L 597.195312 273.503906 L 593.136719 271.851562 L 590.714844 270.765625 L 584.234375 267.058594 L 581.777344 265.371094 L 577.753906 262.261719 L 573.964844 258.890625 L 571.273438 256.101562 L 568.113281 252.410156 L 564.792969 247.6875 "/>
<path style="fill:none;stroke-width:0.425197;stroke-linecap:butt;stroke-linejoin:round;stroke:rgb(22.745098%,47.058824%,66.666667%);stroke-opacity:1;stroke-miterlimit:1;" d="M 597.929688 673.636719 L 597.265625 667.15625 L 597.425781 660.675781 L 598.363281 654.195312 L 600.054688 647.714844 L 602.496094 641.234375 L 603.675781 638.785156 L 605.621094 634.753906 L 609.4375 628.273438 L 610.15625 627.207031 L 613.953125 621.792969 L 616.636719 618.378906 L 619.210938 615.3125 L 623.117188 611.003906 L 625.285156 608.832031 L 629.597656 604.679688 L 632.347656 602.351562 L 636.078125 599.210938 L 640.75 595.871094 L 642.558594 594.542969 L 649.039062 590.636719 L 651.734375 589.390625 L 655.519531 587.515625 L 662 585.277344 L 668.480469 584.03125 L 674.960938 583.800781 L 681.441406 584.625 L 687.921875 586.589844 "/>
<path style="fill:none;stroke-width:0.425197;stroke-linecap:butt;stroke-linejoin:round;stroke:rgb(28.235294%,58.039216%,81.568627%);stroke-opacity:1;stroke-miterlimit:1;" d="M 282.15625 673.636719 L 279.65625 667.617188 L 279.484375 667.15625 L 278.710938 660.675781 L 279.605469 654.195312 L 279.65625 654.066406 L 282.722656 647.714844 L 286.136719 643.652344 L 288.835938 641.234375 L 292.617188 638.820312 L 299.097656 636.019531 L 304.121094 634.753906 L 305.578125 634.457031 L 312.058594 633.886719 L 318.539062 633.992188 L 325.019531 634.65625 L 325.566406 634.753906 L 331.5 635.929688 L 337.980469 637.648438 L 344.460938 639.714844 L 348.636719 641.234375 L 350.941406 642.222656 L 357.421875 645.269531 L 362.328125 647.714844 L 363.902344 648.710938 L 370.382812 652.976562 L 372.1875 654.195312 L 376.863281 658.695312 L 378.910156 660.675781 L 382.5 667.15625 L 382.738281 673.636719 "/>
<path style="fill:none;stroke-width:0.425197;stroke-linecap:butt;stroke-linejoin:round;stroke:rgb(28.235294%,58.039216%,81.568627%);stroke-opacity:1;stroke-miterlimit:1;" d="M 615.449219 673.636719 L 614.417969 667.15625 L 614.386719 660.675781 L 615.289062 654.195312 L 616.636719 649.34375 L 617.105469 647.714844 L 619.863281 641.234375 L 623.117188 635.414062 L 623.519531 634.753906 L 628.277344 628.273438 L 629.597656 626.710938 L 634.308594 621.792969 L 636.078125 620.113281 L 642.0625 615.3125 L 642.558594 614.933594 L 649.039062 610.929688 L 653.570312 608.832031 L 655.519531 607.9375 L 662 605.957031 L 668.480469 605 L 674.960938 605.097656 L 681.441406 606.328125 L 687.921875 608.796875 "/>
<path style="fill:none;stroke-width:0.425197;stroke-linecap:butt;stroke-linejoin:round;stroke:rgb(33.72549%,69.411765%,96.862745%);stroke-opacity:1;stroke-miterlimit:1;" d="M 634.839844 673.636719 L 632.980469 667.15625 L 632.609375 660.675781 L 633.601562 654.195312 L 635.867188 647.714844 L 636.078125 647.316406 L 639.855469 641.234375 L 642.558594 637.921875 L 645.777344 634.753906 L 649.039062 632.082031 L 655.363281 628.273438 L 655.519531 628.1875 L 662 626.019531 L 668.480469 625.195312 L 674.960938 625.796875 L 681.441406 627.957031 L 681.988281 628.273438 L 687.921875 632.402344 "/>
</g>
</svg>
