<?xml version="1.0" encoding="UTF-8"?>
<svg xmlns="http://www.w3.org/2000/svg" xmlns:xlink="http://www.w3.org/1999/xlink" width="720pt" height="720pt" viewBox="0 0 720 720" version="1.1">
<defs>
<clipPath id="clip1">
  <path d="M 14.285156 0 L 720 0 L 720 706 L 14.285156 706 Z "/>
</clipPath>
</defs>
<g id="surface66">
<rect x="0" y="0" width="720" height="720" style="fill:rgb(100%,100%,100%);fill-opacity:1;stroke:none;"/>
<rect x="0" y="0" width="720" height="720" style="fill:rgb(100%,100%,100%);fill-opacity:1;stroke:none;"/>
<path style="fill:none;stroke-width:1.062992;stroke-linecap:round;stroke-linejoin:round;stroke:rgb(100%,100%,100%);stroke-opacity:1;stroke-miterlimit:10;" d="M 0 720 L 720 720 L 720 0 L 0 0 Z "/>
<g clip-path="url(#clip1)" clip-rule="nonzero">
<path style=" stroke:none;fill-rule:nonzero;fill:rgb(100%,100%,100%);fill-opacity:1;" d="M 14.285156 705.714844 L 720 705.714844 L 720 0 L 14.285156 0 Z "/>
</g>
<path style="fill:none;stroke-width:0.425197;stroke-linecap:butt;stroke-linejoin:round;stroke:rgb(7.45098%,16.862745%,26.27451%);stroke-opacity:1;stroke-miterlimit:1;" d="M 46.363281 379.96875 L 52.84375 381.246094 L 59.324219 381.667969 L 65.804688 381.480469 L 72.285156 380.964844 L 78.765625 380.539062 L 85.246094 380.820312 L 89.835938 382.019531 L 91.726562 382.515625 L 98.207031 386 L 101.25 388.5 L 104.6875 391.121094 L 108.753906 394.980469 L 111.167969 397.078125 L 115.8125 401.460938 L 117.648438 403.046875 L 123.472656 407.941406 L 124.128906 408.460938 L 130.609375 413.269531 L 132.453125 414.421875 L 137.089844 417.371094 L 143.570312 420.480469 L 144.683594 420.902344 L 150.050781 423.238281 L 156.53125 425.179688 L 163.011719 426.390625 L 169.492188 427.015625 L 175.972656 427.128906 L 182.453125 426.761719 L 188.933594 425.929688 L 195.414062 424.65625 L 201.894531 423.035156 L 208.375 421.324219 L 210.488281 420.902344 L 214.855469 420.21875 L 221.335938 419.835938 L 227.816406 420.226562 L 231.945312 420.902344 L 234.296875 421.398438 L 240.777344 423.261719 L 247.257812 425.117188 L 253.738281 426.699219 L 257.324219 427.382812 L 260.21875 428.105469 L 266.699219 429.179688 L 273.179688 429.640625 L 279.65625 429.472656 L 286.136719 428.632812 L 291.203125 427.382812 L 292.617188 427.109375 L 299.097656 425.25 L 305.578125 422.453125 L 308.335938 420.902344 L 312.058594 418.925781 L 318.359375 414.421875 L 318.539062 414.285156 L 325.019531 408.472656 L 325.546875 407.941406 L 330.894531 401.460938 L 331.5 400.503906 L 335.113281 394.980469 L 337.980469 388.703125 L 338.089844 388.5 L 340.929688 382.019531 L 343.105469 375.539062 L 344.460938 370.6875 L 345.09375 369.058594 L 347.3125 362.578125 L 349.089844 356.097656 L 350.386719 349.617188 L 350.941406 345.292969 L 351.335938 343.136719 L 351.867188 336.65625 L 351.796875 330.175781 L 351.210938 323.695312 L 350.941406 322.046875 L 350.378906 317.214844 L 349.300781 310.734375 L 347.925781 304.253906 L 346.320312 297.773438 L 344.613281 291.292969 L 344.460938 290.542969 L 343.46875 284.8125 L 342.824219 278.332031 L 343.269531 271.851562 L 344.460938 269 L 350.941406 266.03125 L 357.421875 267.238281 L 363.902344 269.492188 L 369.457031 271.851562 L 370.382812 272.265625 L 376.863281 275.867188 L 380.828125 278.332031 L 383.34375 280.199219 L 388.785156 284.8125 L 389.824219 285.941406 L 394.234375 291.292969 L 396.304688 294.75 L 397.996094 297.773438 L 400.363281 304.253906 L 401.636719 310.734375 L 401.949219 317.214844 L 401.390625 323.695312 L 400.042969 330.175781 L 398.035156 336.65625 L 396.304688 341.53125 L 395.660156 343.136719 L 393.730469 349.617188 L 393.335938 356.097656 L 395.578125 362.578125 L 396.304688 363.445312 L 402.785156 368.839844 L 403.292969 369.058594 L 409.265625 370.832031 L 415.746094 371.15625 L 422.226562 370.015625 L 424.6875 369.058594 L 428.707031 367.375 L 435.1875 363.472656 L 436.375 362.578125 L 441.667969 358.570312 L 444.601562 356.097656 L 448.148438 353.152344 L 452.226562 349.617188 L 454.628906 347.453125 L 459.472656 343.136719 L 461.109375 341.4375 L 466.144531 336.65625 L 467.589844 334.773438 L 472.039062 330.175781 L 474.070312 326.640625 L 476.847656 323.695312 L 479.585938 317.214844 L 479.597656 310.734375 L 477.039062 304.253906 L 474.070312 300.261719 L 473.128906 297.773438 L 471.128906 291.292969 L 470.96875 284.8125 L 474.070312 278.765625 L 480.550781 278.957031 L 485.015625 284.8125 L 487.03125 288.949219 L 487.777344 291.292969 L 488.730469 297.773438 L 489.03125 304.253906 L 489.757812 310.734375 L 493.511719 315.78125 L 494.355469 317.214844 L 499.992188 321.453125 L 503.730469 323.695312 L 506.472656 324.730469 L 512.953125 325.914062 L 519.433594 325.195312 L 522.679688 323.695312 L 525.914062 321.929688 L 530.542969 317.214844 L 532.394531 315.085938 L 534.941406 310.734375 L 538.402344 304.253906 L 538.875 303.363281 L 541.113281 297.773438 L 543.597656 291.292969 L 545.355469 286.542969 L 545.898438 284.8125 L 547.917969 278.332031 L 549.742188 271.851562 L 551.269531 265.371094 L 551.835938 262.0625 L 552.367188 258.890625 L 552.851562 252.410156 L 552.496094 245.929688 L 551.835938 242.90625 L 551.078125 239.449219 L 548.316406 232.96875 L 545.355469 228.628906 L 543.648438 226.488281 L 538.875 221.933594 L 536.371094 220.007812 L 532.394531 217.214844 L 526.296875 213.527344 L 525.914062 213.28125 L 519.433594 209 L 516.964844 207.046875 L 512.953125 203.191406 L 510.84375 200.566406 L 506.472656 194.492188 L 506.234375 194.085938 L 501.996094 187.605469 L 499.992188 185.09375 L 496.820312 181.125 L 493.511719 177.878906 L 489.722656 174.644531 L 487.03125 172.707031 L 480.550781 169.019531 L 478.566406 168.164062 L 474.070312 166.261719 L 467.589844 164.3125 L 461.109375 163.027344 L 454.628906 162.222656 L 448.148438 161.757812 L 446.34375 161.683594 L 441.667969 161.460938 L 435.1875 161.273438 L 428.707031 161.078125 L 422.226562 160.765625 L 415.746094 160.28125 L 409.265625 159.632812 L 402.785156 158.882812 L 396.304688 158.128906 L 389.824219 157.464844 L 383.34375 156.957031 L 376.863281 156.636719 L 370.382812 156.507812 L 363.902344 156.535156 L 357.421875 156.632812 L 350.941406 156.652344 L 344.460938 156.375 L 337.980469 155.601562 L 336.175781 155.207031 L 331.5 153.972656 L 325.019531 151.734375 L 318.539062 149.378906 L 316.824219 148.726562 L 312.058594 146.621094 L 305.578125 144.125 L 299.414062 142.246094 L 299.097656 142.125 L 292.617188 139.863281 L 286.136719 138.191406 L 279.65625 136.988281 L 273.179688 136.152344 L 268.417969 135.765625 L 266.699219 135.546875 L 260.21875 135.140625 L 253.738281 135.164062 L 247.257812 135.628906 L 246.289062 135.765625 L 240.777344 136.273438 L 234.296875 137.226562 L 227.816406 138.605469 L 221.335938 140.488281 L 216.453125 142.246094 L 214.855469 142.707031 L 208.375 144.738281 L 201.894531 147.042969 L 197.207031 148.726562 L 195.414062 149.269531 L 188.933594 150.984375 L 182.453125 152.542969 L 175.972656 153.925781 L 169.492188 155.140625 L 169.066406 155.207031 L 163.011719 155.9375 L 156.53125 156.574219 L 150.050781 157.0625 L 143.570312 157.441406 L 137.089844 157.785156 L 130.609375 158.203125 L 124.128906 158.828125 L 117.648438 159.820312 L 111.167969 161.351562 L 110.132812 161.683594 L 104.6875 163.261719 L 98.207031 165.972656 L 94.285156 168.164062 L 91.726562 169.699219 L 85.257812 174.644531 L 85.246094 174.65625 L 79.066406 181.125 L 78.765625 181.589844 L 74.660156 187.605469 L 72.285156 193.875 L 72.191406 194.085938 L 70.898438 200.566406 L 71.136719 207.046875 L 72.285156 212.113281 L 72.550781 213.527344 L 74.363281 220.007812 L 76.261719 226.488281 L 77.046875 232.96875 L 74.386719 239.449219 L 72.285156 241.070312 L 65.804688 244.796875 L 63.675781 245.929688 L 59.324219 247.554688 L 52.84375 250.476562 L 49.527344 252.410156 L 46.363281 254.082031 "/>
<path style="fill:none;stroke-width:0.425197;stroke-linecap:butt;stroke-linejoin:round;stroke:rgb(9.411765%,20.784314%,31.372549%);stroke-opacity:1;stroke-miterlimit:1;" d="M 46.363281 281.210938 L 48.121094 278.332031 L 52.84375 273.761719 L 55.804688 271.851562 L 59.324219 270.070312 L 65.804688 268.238281 L 72.285156 267.667969 L 78.765625 268.28125 L 85.246094 270.148438 L 88.980469 271.851562 L 91.726562 274.195312 L 95.699219 278.332031 L 97.058594 284.8125 L 95.960938 291.292969 L 93.195312 297.773438 L 91.726562 300.070312 L 89.15625 304.253906 L 85.246094 309.054688 L 83.507812 310.734375 L 78.765625 315.035156 L 74.640625 317.214844 L 72.285156 318.789062 L 65.804688 320.066406 L 59.324219 317.390625 L 59.175781 317.214844 L 52.84375 311.816406 L 52.113281 310.734375 L 47.566406 304.253906 L 46.363281 301.957031 "/>
<path style="fill:none;stroke-width:0.425197;stroke-linecap:butt;stroke-linejoin:round;stroke:rgb(9.411765%,20.784314%,31.372549%);stroke-opacity:1;stroke-miterlimit:1;" d="M 91.726562 209.929688 L 90.8125 207.046875 L 90.253906 200.566406 L 91.441406 194.085938 L 91.726562 193.488281 L 94.601562 187.605469 L 98.207031 183.441406 L 100.617188 181.125 L 104.6875 178.253906 L 111.167969 174.960938 L 112.039062 174.644531 L 117.648438 172.78125 L 124.128906 171.394531 L 130.609375 170.546875 L 137.089844 170.039062 L 150.050781 169.328125 L 156.53125 168.863281 L 163.011719 168.21875 L 163.40625 168.164062 L 169.492188 167.273438 L 175.972656 166.085938 L 182.453125 164.625 L 188.933594 162.84375 L 192.34375 161.683594 L 195.414062 160.585938 L 208.375 155.273438 L 208.527344 155.207031 L 214.855469 152.320312 L 221.335938 149.839844 L 224.804688 148.726562 L 227.816406 147.617188 L 234.296875 145.695312 L 240.777344 144.355469 L 247.257812 143.5 L 253.738281 143.0625 L 260.21875 142.996094 L 266.699219 143.28125 L 273.179688 143.929688 L 279.65625 144.988281 L 286.136719 146.535156 L 292.617188 148.6875 L 292.71875 148.726562 L 299.097656 150.796875 L 305.578125 153.546875 L 308.96875 155.207031 L 312.058594 156.644531 L 318.539062 159.890625 L 322.152344 161.683594 L 325.019531 163.125 L 331.5 165.820312 L 337.980469 167.75 L 340.761719 168.164062 L 344.460938 168.695312 L 350.941406 168.890625 L 357.421875 168.722656 L 363.902344 168.515625 L 370.382812 168.476562 L 376.863281 168.722656 L 383.34375 169.289062 L 389.824219 170.164062 L 396.304688 171.273438 L 402.785156 172.496094 L 409.265625 173.660156 L 415.746094 174.597656 L 416.273438 174.644531 L 422.226562 175.183594 L 428.707031 175.464844 L 441.667969 175.652344 L 448.148438 175.949219 L 454.628906 176.660156 L 461.109375 177.996094 L 467.589844 180.214844 L 469.46875 181.125 L 474.070312 183.90625 L 478.574219 187.605469 L 480.550781 190.007812 L 483.484375 194.085938 L 486.257812 200.566406 L 487.03125 204.238281 L 487.703125 207.046875 L 488.136719 213.527344 L 487.433594 220.007812 L 487.03125 221.261719 L 485.238281 226.488281 L 480.550781 232.246094 L 479.96875 232.96875 L 474.070312 237.957031 L 472.429688 239.449219 L 467.589844 243.082031 L 464.074219 245.929688 L 461.109375 248.1875 L 455.769531 252.410156 L 454.628906 253.359375 L 448.148438 258.621094 L 447.773438 258.890625 L 441.667969 264.03125 L 439.609375 265.371094 L 435.1875 268.9375 L 429.03125 271.851562 L 428.707031 272.046875 L 422.226562 273.203125 L 415.746094 272.015625 L 415.386719 271.851562 L 409.265625 269.746094 L 402.785156 266.679688 L 400.421875 265.371094 L 396.304688 263.421875 L 389.824219 260.082031 L 387.621094 258.890625 L 383.34375 256.699219 L 376.863281 253.152344 L 375.589844 252.410156 L 370.382812 249.378906 L 364.984375 245.929688 L 363.902344 245.253906 L 357.421875 241.054688 L 354.917969 239.449219 L 350.941406 237.132812 L 344.460938 233.914062 L 341.433594 232.96875 L 337.980469 232.085938 L 331.5 232.003906 L 327.566406 232.96875 L 325.019531 233.765625 L 318.539062 237.464844 L 315.625 239.449219 L 312.058594 243.199219 L 309.496094 245.929688 L 307.722656 252.410156 L 310.085938 258.890625 L 312.058594 261.589844 L 314.40625 265.371094 L 318.539062 271.519531 L 318.738281 271.851562 L 322.664062 278.332031 L 325.019531 282.847656 L 325.996094 284.8125 L 328.992188 291.292969 L 331.480469 297.773438 L 331.5 297.832031 L 333.847656 304.253906 L 335.679688 310.734375 L 336.976562 317.214844 L 337.75 323.695312 L 337.980469 329.882812 L 337.996094 330.175781 L 337.980469 330.445312 L 337.726562 336.65625 L 336.988281 343.136719 L 335.851562 349.617188 L 334.40625 356.097656 L 332.742188 362.578125 L 331.5 366.980469 L 331.003906 369.058594 L 329.285156 375.539062 L 327.121094 382.019531 L 325.019531 386.710938 L 324.265625 388.5 L 320.558594 394.980469 L 318.539062 397.605469 L 315.304688 401.460938 L 312.058594 404.542969 L 307.691406 407.941406 L 305.578125 409.410156 L 299.097656 412.941406 L 295.226562 414.421875 L 292.617188 415.464844 L 286.136719 417.230469 L 279.65625 418.175781 L 273.179688 418.421875 L 266.699219 418.035156 L 260.21875 417.050781 L 253.738281 415.492188 L 250.226562 414.421875 L 247.257812 413.628906 L 240.777344 411.746094 L 234.296875 409.941406 L 227.816406 408.605469 L 221.335938 408.128906 L 214.855469 408.65625 L 208.375 410.007812 L 201.894531 411.765625 L 195.414062 413.511719 L 191.441406 414.421875 L 188.933594 415.082031 L 182.453125 416.285156 L 175.972656 416.84375 L 169.492188 416.722656 L 163.011719 415.871094 L 157.378906 414.421875 L 156.53125 414.226562 L 150.050781 412.039062 L 143.570312 408.808594 L 142.15625 407.941406 L 137.089844 404.726562 L 132.894531 401.460938 L 130.609375 399.460938 L 125.929688 394.980469 L 124.128906 392.898438 L 120.253906 388.5 L 117.648438 384.753906 L 115.5 382.019531 L 111.585938 375.539062 L 111.167969 374.570312 L 107.996094 369.058594 L 105.5625 362.578125 L 104.6875 357.785156 L 104.175781 356.097656 L 104.238281 349.617188 L 104.6875 348.132812 L 105.808594 343.136719 L 108.734375 336.65625 L 111.167969 332.890625 L 112.601562 330.175781 L 116.234375 323.695312 L 117.648438 320.757812 L 118.902344 317.214844 L 120.066406 310.734375 L 120.054688 304.253906 L 119.152344 297.773438 L 117.839844 291.292969 L 117.648438 290.304688 L 115.511719 284.8125 L 114.117188 278.332031 L 114.050781 271.851562 L 114.800781 265.371094 L 115.507812 258.890625 L 115.292969 252.410156 L 113.566406 245.929688 L 111.167969 241.429688 L 110.125 239.449219 L 105.425781 232.96875 L 104.6875 232.09375 L 100.488281 226.488281 L 98.207031 223.246094 L 96.140625 220.007812 L 92.851562 213.527344 L 91.726562 209.929688 "/>
<path style="fill:none;stroke-width:0.425197;stroke-linecap:butt;stroke-linejoin:round;stroke:rgb(11.372549%,24.705882%,36.862745%);stroke-opacity:1;stroke-miterlimit:1;" d="M 111.167969 217.003906 L 108.691406 213.527344 L 105.8125 207.046875 L 105.132812 200.566406 L 107.109375 194.085938 L 111.167969 189.097656 L 112.800781 187.605469 L 117.648438 184.792969 L 124.128906 182.355469 L 129.539062 181.125 L 130.609375 180.921875 L 137.089844 180.152344 L 143.570312 179.664062 L 150.050781 179.246094 L 156.53125 178.746094 L 163.011719 178.066406 L 169.492188 177.152344 L 175.972656 175.9375 L 181.078125 174.644531 L 182.453125 174.308594 L 188.933594 172.207031 L 195.414062 169.53125 L 198.046875 168.164062 L 201.894531 166.316406 L 208.375 162.90625 L 210.597656 161.683594 L 214.855469 159.472656 L 221.335938 156.433594 L 224.390625 155.207031 L 227.816406 153.773438 L 234.296875 151.59375 L 240.777344 150.0625 L 247.257812 149.078125 L 251.589844 148.726562 L 253.738281 148.5 L 260.21875 148.355469 L 266.40625 148.726562 L 266.699219 148.738281 L 273.179688 149.421875 L 279.65625 150.546875 L 286.136719 152.199219 L 292.617188 154.5 L 294.285156 155.207031 L 299.097656 157.113281 L 305.578125 160.335938 L 308.011719 161.683594 L 312.058594 164.054688 L 318.519531 168.164062 L 318.539062 168.179688 L 325.019531 172.359375 L 329.3125 174.644531 L 331.5 176.070312 L 337.980469 178.621094 L 344.460938 179.652344 L 350.941406 179.613281 L 357.421875 179.125 L 363.902344 178.667969 L 370.382812 178.550781 L 376.863281 178.914062 L 383.34375 179.796875 L 389.753906 181.125 L 389.824219 181.144531 L 396.304688 183.015625 L 402.785156 184.929688 L 409.265625 186.597656 L 414.6875 187.605469 L 415.746094 187.835938 L 422.226562 188.609375 L 428.707031 188.90625 L 435.1875 188.996094 L 441.667969 189.21875 L 448.148438 189.949219 L 454.628906 191.628906 L 459.808594 194.085938 L 461.109375 195.128906 L 465.566406 200.566406 L 467.242188 207.046875 L 466.402344 213.527344 L 463.722656 220.007812 L 461.109375 223.992188 L 459.390625 226.488281 L 454.628906 231.8125 L 453.511719 232.96875 L 448.148438 237.671875 L 445.816406 239.449219 L 441.667969 242.359375 L 435.242188 245.929688 L 435.1875 245.960938 L 428.707031 248.402344 L 422.226562 249.585938 L 415.746094 249.535156 L 409.265625 248.398438 L 402.785156 246.429688 L 401.519531 245.929688 L 396.304688 243.8125 L 389.824219 240.875 L 386.941406 239.449219 L 383.34375 237.691406 L 376.863281 234.382812 L 374.304688 232.96875 L 370.382812 230.960938 L 363.902344 227.453125 L 362.199219 226.488281 L 357.421875 223.949219 L 350.941406 220.714844 L 349.15625 220.007812 L 344.460938 218.152344 L 337.980469 217.015625 L 331.5 217.726562 L 325.421875 220.007812 L 325.019531 220.148438 L 318.539062 223.8125 L 314.320312 226.488281 L 312.058594 227.980469 L 305.578125 232.195312 L 304.226562 232.96875 L 299.097656 236.476562 L 293.105469 239.449219 L 292.617188 239.8125 L 286.136719 243.359375 L 279.65625 245.386719 L 276.28125 245.929688 L 273.179688 247.425781 L 266.699219 248.550781 L 260.21875 248.296875 L 253.738281 246.941406 L 250.734375 245.929688 L 247.257812 245.582031 L 240.777344 244.941406 L 234.296875 244.652344 L 227.816406 245.851562 L 227.691406 245.929688 L 227.816406 246.152344 L 231.519531 252.410156 L 234.296875 253.804688 L 240.777344 255.832031 L 247.257812 256.820312 L 253.738281 257 L 260.21875 256.855469 L 266.699219 257.109375 L 273.179688 258.554688 L 273.84375 258.890625 L 279.65625 260.03125 L 286.136719 262.3125 L 291.546875 265.371094 L 292.617188 265.835938 L 299.097656 269.917969 L 301.324219 271.851562 L 305.578125 275.460938 L 308.207031 278.332031 L 312.058594 282.902344 L 313.421875 284.8125 L 317.542969 291.292969 L 318.539062 293.09375 L 320.957031 297.773438 L 323.703125 304.253906 L 325.019531 308.183594 L 325.882812 310.734375 L 327.480469 317.214844 L 328.410156 323.695312 L 328.699219 330.175781 L 328.386719 336.65625 L 327.550781 343.136719 L 326.304688 349.617188 L 325.019531 355.105469 L 324.808594 356.097656 L 323.320312 362.578125 L 321.699219 369.058594 L 319.78125 375.539062 L 318.539062 378.839844 L 317.382812 382.019531 L 314.132812 388.5 L 312.058594 391.503906 L 309.402344 394.980469 L 305.578125 398.777344 L 302.207031 401.460938 L 299.097656 403.566406 L 292.617188 406.78125 L 289.074219 407.941406 L 286.136719 408.894531 L 279.65625 410.109375 L 273.179688 410.480469 L 266.699219 410.097656 L 260.21875 409.023438 L 256.035156 407.941406 L 253.738281 407.386719 L 247.257812 405.449219 L 240.777344 403.308594 L 234.765625 401.460938 L 234.296875 401.320312 L 227.816406 400.019531 L 221.335938 399.582031 L 214.855469 400.113281 L 208.449219 401.460938 L 208.375 401.476562 L 201.894531 403.480469 L 195.414062 405.53125 L 188.933594 407.277344 L 185.496094 407.941406 L 182.453125 408.574219 L 175.972656 409.238281 L 169.492188 409.113281 L 163.011719 408.128906 L 162.335938 407.941406 L 156.53125 406.375 L 150.050781 403.628906 L 146.328125 401.460938 L 143.570312 399.703125 L 137.671875 394.980469 L 137.089844 394.417969 L 131.566406 388.5 L 130.609375 387.148438 L 126.953125 382.019531 L 124.128906 376.363281 L 123.671875 375.539062 L 121.308594 369.058594 L 120.183594 362.578125 L 120.28125 356.097656 L 121.675781 349.617188 L 124.128906 343.785156 L 124.394531 343.136719 L 127.785156 336.65625 L 130.609375 331.753906 L 131.472656 330.175781 L 134.273438 323.695312 L 135.945312 317.214844 L 136.457031 310.734375 L 136.128906 304.253906 L 135.367188 297.773438 L 134.527344 291.292969 L 133.863281 284.8125 L 133.558594 278.332031 L 133.699219 271.851562 L 134.242188 265.371094 L 134.945312 258.890625 L 135.289062 252.410156 L 134.527344 245.929688 L 131.871094 239.449219 L 130.609375 237.738281 L 126.796875 232.96875 L 124.128906 230.421875 L 120.089844 226.488281 L 117.648438 224.210938 L 113.597656 220.007812 L 111.167969 217.003906 "/>
<path style="fill:none;stroke-width:0.425197;stroke-linecap:butt;stroke-linejoin:round;stroke:rgb(13.333333%,28.627451%,42.352941%);stroke-opacity:1;stroke-miterlimit:1;" d="M 124.128906 208.105469 L 123.519531 207.046875 L 123.441406 200.566406 L 124.128906 199.582031 L 130.066406 194.085938 L 130.609375 193.847656 L 137.089844 192.027344 L 143.570312 190.914062 L 150.050781 190.113281 L 156.53125 189.367188 L 163.011719 188.503906 L 168.253906 187.605469 L 169.492188 187.433594 L 175.972656 186.234375 L 182.453125 184.5 L 188.933594 181.835938 L 190.074219 181.125 L 195.414062 178.472656 L 201.1875 174.644531 L 201.894531 174.253906 L 208.375 169.941406 L 210.847656 168.164062 L 214.855469 165.71875 L 221.335938 162.054688 L 222.042969 161.683594 L 227.816406 158.875 L 234.296875 156.457031 L 238.902344 155.207031 L 240.777344 154.652344 L 247.257812 153.308594 L 253.738281 152.582031 L 260.21875 152.40625 L 266.699219 152.746094 L 273.179688 153.625 L 279.65625 155.09375 L 280.023438 155.207031 L 286.136719 156.859375 L 292.617188 159.277344 L 297.597656 161.683594 L 299.097656 162.4375 L 305.578125 166.195312 L 308.605469 168.164062 L 312.058594 170.839844 L 316.929688 174.644531 L 318.539062 176.351562 L 323.820312 181.125 L 325.019531 182.859375 L 329.785156 187.605469 L 331.5 191.40625 L 334.035156 194.085938 L 332.625 200.566406 L 331.5 201.269531 L 326.519531 207.046875 L 325.019531 208.007812 L 318.8125 213.527344 L 318.539062 213.714844 L 312.058594 218.914062 L 310.707031 220.007812 L 305.578125 223.730469 L 301.175781 226.488281 L 299.097656 227.828125 L 292.617188 231.246094 L 287.921875 232.96875 L 286.136719 233.773438 L 279.65625 235.78125 L 273.179688 236.859375 L 266.699219 237.242188 L 260.21875 237.0625 L 253.738281 236.394531 L 247.257812 235.246094 L 240.777344 233.589844 L 238.703125 232.96875 L 234.296875 231.941406 L 227.816406 230.238281 L 221.335938 228.394531 L 214.855469 226.730469 L 212.511719 226.488281 L 208.375 226.09375 L 204.804688 226.488281 L 201.894531 227.164062 L 195.414062 232.550781 L 195.089844 232.96875 L 194.832031 239.449219 L 195.414062 240.421875 L 198.144531 245.929688 L 201.894531 250.324219 L 203.527344 252.410156 L 208.375 257.253906 L 210.042969 258.890625 L 214.855469 263.1875 L 217.679688 265.371094 L 221.335938 268.222656 L 227.777344 271.851562 L 227.816406 271.875 L 234.296875 274.128906 L 240.777344 274.796875 L 247.257812 274.480469 L 253.738281 273.777344 L 260.21875 273.128906 L 266.699219 272.820312 L 273.179688 273.042969 L 279.65625 273.96875 L 286.136719 275.824219 L 291.46875 278.332031 L 292.617188 278.882812 L 299.097656 283.375 L 300.644531 284.8125 L 305.578125 289.910156 L 306.667969 291.292969 L 311.105469 297.773438 L 312.058594 299.433594 L 314.527344 304.253906 L 317.125 310.734375 L 318.539062 315.613281 L 318.984375 317.214844 L 320.078125 323.695312 L 320.453125 330.175781 L 320.179688 336.65625 L 319.367188 343.136719 L 318.539062 347.605469 L 318.179688 349.617188 L 316.808594 356.097656 L 315.328125 362.578125 L 313.667969 369.058594 L 312.058594 374.160156 L 311.625 375.539062 L 308.894531 382.019531 L 305.578125 387.472656 L 304.871094 388.5 L 299.097656 394.546875 L 298.566406 394.980469 L 292.617188 398.855469 L 286.464844 401.460938 L 286.136719 401.585938 L 279.65625 403.105469 L 273.179688 403.625 L 266.699219 403.273438 L 260.21875 402.144531 L 257.695312 401.460938 L 253.738281 400.378906 L 247.257812 398.1875 L 240.777344 395.828125 L 238.152344 394.980469 L 234.296875 393.683594 L 227.816406 392.230469 L 221.335938 391.78125 L 214.855469 392.421875 L 208.375 394 L 205.519531 394.980469 L 201.894531 396.175781 L 195.414062 398.476562 L 188.933594 400.503906 L 184.742188 401.460938 L 182.453125 401.984375 L 175.972656 402.71875 L 169.492188 402.574219 L 163.011719 401.460938 L 156.53125 399.304688 L 150.050781 395.921875 L 148.664062 394.980469 L 143.570312 390.84375 L 141.152344 388.5 L 137.089844 383.261719 L 136.175781 382.019531 L 132.859375 375.539062 L 130.980469 369.058594 L 130.609375 364.738281 L 130.402344 362.578125 L 130.609375 360.859375 L 131.195312 356.097656 L 133.363281 349.617188 L 136.808594 343.136719 L 137.089844 342.667969 L 140.835938 336.65625 L 143.570312 331.777344 L 144.460938 330.175781 L 146.742188 323.695312 L 147.597656 317.214844 L 147.394531 310.734375 L 146.613281 304.253906 L 145.667969 297.773438 L 144.859375 291.292969 L 144.394531 284.8125 L 144.4375 278.332031 L 145.101562 271.851562 L 146.398438 265.371094 L 148.191406 258.890625 L 150.050781 252.484375 L 150.078125 252.410156 L 151.511719 245.929688 L 151.226562 239.449219 L 150.050781 236.902344 L 148.199219 232.96875 L 143.570312 227.917969 L 142.195312 226.488281 L 137.089844 222.128906 L 134.5625 220.007812 L 130.609375 216.386719 L 127.671875 213.527344 L 124.128906 208.105469 "/>
<path style="fill:none;stroke-width:0.425197;stroke-linecap:butt;stroke-linejoin:round;stroke:rgb(13.333333%,28.627451%,42.352941%);stroke-opacity:1;stroke-miterlimit:1;" d="M 357.421875 204.789062 L 353.425781 200.566406 L 357.40625 194.085938 L 357.421875 194.082031 L 363.902344 192.210938 L 370.382812 191.449219 L 376.863281 191.902344 L 383.34375 193.417969 L 385.246094 194.085938 L 389.824219 196.824219 L 396.304688 200.523438 L 396.398438 200.566406 L 402.785156 205.710938 L 406.238281 207.046875 L 409.265625 209.300781 L 415.746094 210.71875 L 422.226562 211.203125 L 428.707031 212.109375 L 432.121094 213.527344 L 431.875 220.007812 L 428.707031 222.210938 L 422.226562 224.113281 L 415.746094 223.386719 L 409.265625 221.472656 L 403.414062 220.007812 L 402.785156 219.734375 L 396.304688 218.222656 L 389.824219 217.488281 L 383.34375 216.601562 L 376.863281 215.238281 L 371.304688 213.527344 L 370.382812 213.171875 L 363.902344 209.71875 L 359.3125 207.046875 L 357.421875 204.789062 "/>
<path style="fill:none;stroke-width:0.425197;stroke-linecap:butt;stroke-linejoin:round;stroke:rgb(15.686275%,32.941176%,47.843137%);stroke-opacity:1;stroke-miterlimit:1;" d="M 143.570312 379.683594 L 141.339844 375.539062 L 139.585938 369.058594 L 139.464844 362.578125 L 140.988281 356.097656 L 143.570312 350.660156 L 144.140625 349.617188 L 148.609375 343.136719 L 150.050781 341.050781 L 153.335938 336.65625 L 156.53125 330.726562 L 156.84375 330.175781 L 158.601562 323.695312 L 158.679688 317.214844 L 157.722656 310.734375 L 156.53125 305.25 L 156.339844 304.253906 L 155.089844 297.773438 L 154.183594 291.292969 L 153.867188 284.8125 L 154.339844 278.332031 L 155.773438 271.851562 L 156.53125 269.730469 L 158.609375 265.371094 L 162.957031 258.890625 L 163.011719 258.816406 L 169.492188 253.820312 L 175.972656 252.636719 L 182.453125 254.039062 L 188.933594 257.464844 L 190.769531 258.890625 L 195.414062 262.285156 L 198.878906 265.371094 L 201.894531 268.253906 L 205.46875 271.851562 L 208.375 275.347656 L 211.0625 278.332031 L 214.855469 283.960938 L 215.574219 284.8125 L 219.089844 291.292969 L 220.785156 297.773438 L 221.222656 304.253906 L 221.234375 310.734375 L 221.335938 311.992188 L 221.964844 317.214844 L 224.933594 323.695312 L 227.816406 326.578125 L 234.296875 328.414062 L 240.777344 325.703125 L 242.699219 323.695312 L 245.710938 317.214844 L 246.519531 310.734375 L 246.75 304.253906 L 247.257812 302.230469 L 248.15625 297.773438 L 253.003906 291.292969 L 253.738281 290.832031 L 260.21875 287.28125 L 266.699219 285.242188 L 270.960938 284.8125 L 273.179688 284.644531 L 274.917969 284.8125 L 279.65625 285.308594 L 286.136719 287.332031 L 292.617188 290.835938 L 293.199219 291.292969 L 299.097656 296.585938 L 300.109375 297.773438 L 304.757812 304.253906 L 305.578125 305.667969 L 308.011719 310.734375 L 310.296875 317.214844 L 311.730469 323.695312 L 312.058594 327.28125 L 312.292969 330.175781 L 312.144531 336.65625 L 312.058594 337.445312 L 311.421875 343.136719 L 310.347656 349.617188 L 309.09375 356.097656 L 307.695312 362.578125 L 306.03125 369.058594 L 305.578125 370.414062 L 303.757812 375.539062 L 300.453125 382.019531 L 299.097656 383.898438 L 295.019531 388.5 L 292.617188 390.496094 L 286.136719 394.269531 L 284.09375 394.980469 L 279.65625 396.289062 L 273.179688 397.027344 L 266.699219 396.726562 L 260.21875 395.53125 L 258.328125 394.980469 L 253.738281 393.511719 L 247.257812 390.972656 L 241.191406 388.5 L 240.777344 388.300781 L 234.296875 385.722656 L 227.816406 384.09375 L 221.335938 383.671875 L 214.855469 384.480469 L 208.375 386.363281 L 203.152344 388.5 L 201.894531 388.953125 L 195.414062 391.550781 L 188.933594 393.925781 L 185.101562 394.980469 L 182.453125 395.648438 L 175.972656 396.457031 L 169.492188 396.265625 L 163.164062 394.980469 L 163.011719 394.945312 L 156.53125 392.132812 L 151.023438 388.5 L 150.050781 387.644531 L 144.933594 382.019531 L 143.570312 379.683594 "/>
<path style="fill:none;stroke-width:0.425197;stroke-linecap:butt;stroke-linejoin:round;stroke:rgb(15.686275%,32.941176%,47.843137%);stroke-opacity:1;stroke-miterlimit:1;" d="M 188.933594 200.660156 L 188.890625 200.566406 L 188.933594 200.539062 L 192.550781 194.085938 L 195.414062 191.609375 L 198.019531 187.605469 L 201.894531 184.054688 L 204.167969 181.125 L 208.375 177.496094 L 211.191406 174.644531 L 214.855469 171.890625 L 219.84375 168.164062 L 221.335938 167.242188 L 227.816406 163.558594 L 231.964844 161.683594 L 234.296875 160.6875 L 240.777344 158.527344 L 247.257812 157.117188 L 253.738281 156.347656 L 260.21875 156.140625 L 266.699219 156.464844 L 273.179688 157.324219 L 279.65625 158.777344 L 286.136719 160.921875 L 287.957031 161.683594 L 292.617188 163.675781 L 299.097656 167.257812 L 300.550781 168.164062 L 305.578125 171.910156 L 308.964844 174.644531 L 312.058594 178.113281 L 314.933594 181.125 L 318.539062 187.542969 L 318.585938 187.605469 L 320.296875 194.085938 L 318.921875 200.566406 L 318.539062 201.132812 L 315.273438 207.046875 L 312.058594 210.433594 L 309.261719 213.527344 L 305.578125 216.628906 L 301.152344 220.007812 L 299.097656 221.421875 L 292.617188 225.140625 L 289.429688 226.488281 L 286.136719 227.976562 L 279.65625 229.980469 L 273.179688 231.105469 L 266.699219 231.539062 L 260.21875 231.390625 L 253.738281 230.710938 L 247.257812 229.503906 L 240.777344 227.71875 L 237.253906 226.488281 L 234.296875 225.554688 L 227.816406 223.144531 L 221.335938 220.21875 L 220.832031 220.007812 L 214.855469 217.265625 L 208.375 214.171875 L 206.621094 213.527344 L 201.894531 211.011719 L 195.414062 208.046875 L 192.230469 207.046875 L 188.933594 200.660156 "/>
<path style="fill:none;stroke-width:0.425197;stroke-linecap:butt;stroke-linejoin:round;stroke:rgb(17.647059%,37.254902%,53.72549%);stroke-opacity:1;stroke-miterlimit:1;" d="M 150.050781 375.234375 L 148.433594 369.058594 L 148.828125 362.578125 L 150.050781 359.160156 L 151.402344 356.097656 L 156.039062 349.617188 L 156.53125 349.011719 L 162.246094 343.136719 L 163.011719 342.203125 L 168.277344 336.65625 L 169.492188 334.488281 L 172.453125 330.175781 L 173.722656 323.695312 L 172.664062 317.214844 L 170.199219 310.734375 L 169.492188 309.214844 L 167.898438 304.253906 L 166.058594 297.773438 L 164.9375 291.292969 L 164.992188 284.8125 L 166.75 278.332031 L 169.492188 273.765625 L 172.167969 271.851562 L 175.972656 270.019531 L 182.453125 270.4375 L 185.371094 271.851562 L 188.933594 273.886719 L 193.699219 278.332031 L 195.414062 280.480469 L 198.214844 284.8125 L 200.886719 291.292969 L 201.894531 296.355469 L 202.160156 297.773438 L 202.308594 304.253906 L 201.894531 310.257812 L 201.851562 310.734375 L 201.339844 317.214844 L 201.894531 322.75 L 201.972656 323.695312 L 204.390625 330.175781 L 208.375 335.40625 L 209.339844 336.65625 L 214.855469 341.902344 L 216.542969 343.136719 L 221.335938 346.429688 L 227.816406 348.453125 L 234.296875 348.046875 L 240.777344 345.707031 L 245.113281 343.136719 L 247.257812 341.878906 L 253.738281 336.753906 L 253.84375 336.65625 L 259.335938 330.175781 L 260.21875 328.554688 L 262.824219 323.695312 L 264.90625 317.214844 L 266.554688 310.734375 L 266.699219 310.332031 L 269.992188 304.253906 L 273.179688 301.527344 L 279.65625 300.046875 L 286.136719 301.75 L 289.875 304.253906 L 292.617188 306.429688 L 295.941406 310.734375 L 299.097656 315.875 L 299.683594 317.214844 L 301.605469 323.695312 L 302.632812 330.175781 L 302.875 336.65625 L 302.535156 343.136719 L 301.832031 349.617188 L 300.898438 356.097656 L 299.710938 362.578125 L 299.097656 364.984375 L 297.945312 369.058594 L 295.242188 375.539062 L 292.617188 379.675781 L 290.683594 382.019531 L 286.136719 385.769531 L 280.734375 388.5 L 279.65625 388.914062 L 273.179688 390.003906 L 266.699219 389.785156 L 260.320312 388.5 L 260.21875 388.472656 L 253.738281 385.902344 L 247.257812 382.800781 L 245.613281 382.019531 L 240.777344 378.941406 L 234.296875 375.730469 L 233.621094 375.539062 L 227.816406 373.007812 L 221.335938 372.671875 L 214.855469 374.453125 L 212.890625 375.539062 L 208.375 377.207031 L 201.894531 380.554688 L 199.445312 382.019531 L 195.414062 383.894531 L 188.933594 386.765625 L 183.894531 388.5 L 182.453125 388.910156 L 175.972656 389.808594 L 169.492188 389.503906 L 165.578125 388.5 L 163.011719 387.640625 L 156.53125 383.613281 L 154.730469 382.019531 L 150.140625 375.539062 L 150.050781 375.234375 "/>
<path style="fill:none;stroke-width:0.425197;stroke-linecap:butt;stroke-linejoin:round;stroke:rgb(17.647059%,37.254902%,53.72549%);stroke-opacity:1;stroke-miterlimit:1;" d="M 208.375 200.78125 L 208.207031 200.566406 L 206.832031 194.085938 L 208.375 189.257812 L 208.738281 187.605469 L 212.640625 181.125 L 214.855469 178.890625 L 218.734375 174.644531 L 221.335938 172.617188 L 227.574219 168.164062 L 227.816406 168.023438 L 234.296875 164.660156 L 240.777344 162.253906 L 242.992188 161.683594 L 247.257812 160.589844 L 253.738281 159.636719 L 260.21875 159.359375 L 266.699219 159.714844 L 273.179688 160.71875 L 276.941406 161.683594 L 279.65625 162.359375 L 286.136719 164.640625 L 292.617188 167.816406 L 293.230469 168.164062 L 299.097656 172.109375 L 302.339844 174.644531 L 305.578125 178.171875 L 308.261719 181.125 L 311.628906 187.605469 L 312.058594 190.34375 L 312.785156 194.085938 L 312.058594 197.378906 L 311.457031 200.566406 L 307.839844 207.046875 L 305.578125 209.503906 L 301.714844 213.527344 L 299.097656 215.628906 L 292.617188 219.933594 L 292.480469 220.007812 L 286.136719 223.175781 L 279.65625 225.285156 L 273.242188 226.488281 L 273.179688 226.503906 L 266.699219 227.109375 L 260.21875 226.960938 L 256.609375 226.488281 L 253.738281 226.175781 L 247.257812 224.914062 L 240.777344 223.027344 L 234.296875 220.421875 L 233.382812 220.007812 L 227.816406 217.335938 L 221.382812 213.527344 L 221.335938 213.492188 L 214.855469 208.589844 L 212.835938 207.046875 L 208.375 200.78125 "/>
<path style="fill:none;stroke-width:0.425197;stroke-linecap:butt;stroke-linejoin:round;stroke:rgb(20%,41.568627%,59.607843%);stroke-opacity:1;stroke-miterlimit:1;" d="M 163.011719 376.742188 L 161.835938 375.539062 L 159.453125 369.058594 L 160.671875 362.578125 L 163.011719 358.925781 L 165.621094 356.097656 L 169.492188 352.945312 L 175.4375 349.617188 L 175.972656 349.300781 L 182.453125 347.292969 L 188.933594 347.320312 L 194.78125 349.617188 L 195.414062 349.949219 L 201.472656 356.097656 L 201.894531 358.058594 L 202.695312 362.578125 L 201.894531 363.941406 L 199.28125 369.058594 L 195.414062 372.425781 L 191.945312 375.539062 L 188.933594 377.230469 L 182.453125 380.113281 L 175.972656 381.507812 L 169.492188 380.570312 L 163.011719 376.742188 "/>
<path style="fill:none;stroke-width:0.425197;stroke-linecap:butt;stroke-linejoin:round;stroke:rgb(20%,41.568627%,59.607843%);stroke-opacity:1;stroke-miterlimit:1;" d="M 221.335938 206.449219 L 216.71875 200.566406 L 214.988281 194.085938 L 215.851562 187.605469 L 219.222656 181.125 L 221.335938 178.839844 L 225.230469 174.644531 L 227.816406 172.703125 L 234.296875 168.574219 L 235.101562 168.164062 L 240.777344 165.726562 L 247.257812 163.859375 L 253.738281 162.8125 L 260.21875 162.492188 L 266.699219 162.847656 L 273.179688 163.878906 L 279.65625 165.648438 L 285.882812 168.164062 L 286.136719 168.28125 L 292.617188 172.007812 L 296.300781 174.644531 L 299.097656 177.414062 L 302.546875 181.125 L 305.578125 186.976562 L 305.925781 187.605469 L 306.972656 194.085938 L 305.578125 200.011719 L 305.457031 200.566406 L 301.625 207.046875 L 299.097656 209.660156 L 294.839844 213.527344 L 292.617188 215.113281 L 286.136719 218.753906 L 282.925781 220.007812 L 279.65625 221.242188 L 273.179688 222.761719 L 266.699219 223.410156 L 260.21875 223.304688 L 253.738281 222.492188 L 247.257812 220.953125 L 244.476562 220.007812 L 240.777344 218.746094 L 234.296875 215.8125 L 230.246094 213.527344 L 227.816406 211.84375 L 221.808594 207.046875 L 221.335938 206.449219 "/>
<path style="fill:none;stroke-width:0.425197;stroke-linecap:butt;stroke-linejoin:round;stroke:rgb(20%,41.568627%,59.607843%);stroke-opacity:1;stroke-miterlimit:1;" d="M 253.738281 375.359375 L 248.335938 369.058594 L 247.429688 362.578125 L 251.167969 356.097656 L 253.738281 353.753906 L 258.265625 349.617188 L 260.21875 348.035156 L 266.480469 343.136719 L 266.699219 342.9375 L 273.179688 337.976562 L 275.921875 336.65625 L 279.65625 334.023438 L 286.136719 335.203125 L 286.941406 336.65625 L 289.375 343.136719 L 290.417969 349.617188 L 290.496094 356.097656 L 289.730469 362.578125 L 287.917969 369.058594 L 286.136719 372.484375 L 283.847656 375.539062 L 279.65625 378.851562 L 273.179688 381.234375 L 266.699219 381.125 L 260.21875 378.976562 L 253.910156 375.539062 L 253.738281 375.359375 "/>
<path style="fill:none;stroke-width:0.425197;stroke-linecap:butt;stroke-linejoin:round;stroke:rgb(21.960784%,46.27451%,65.490196%);stroke-opacity:1;stroke-miterlimit:1;" d="M 221.335938 194.542969 L 221.175781 194.085938 L 221.335938 192.515625 L 221.75 187.605469 L 224.957031 181.125 L 227.816406 178.078125 L 231.359375 174.644531 L 234.296875 172.664062 L 240.777344 169.25 L 243.730469 168.164062 L 247.257812 167.039062 L 253.738281 165.816406 L 260.21875 165.417969 L 266.699219 165.789062 L 273.179688 166.941406 L 277.261719 168.164062 L 279.65625 168.957031 L 286.136719 171.988281 L 290.410156 174.644531 L 292.617188 176.515625 L 297.273438 181.125 L 299.097656 184.378906 L 300.882812 187.605469 L 301.835938 194.085938 L 300.199219 200.566406 L 299.097656 202.300781 L 295.871094 207.046875 L 292.617188 210.046875 L 287.890625 213.527344 L 286.136719 214.566406 L 279.65625 217.410156 L 273.179688 219.101562 L 266.699219 219.84375 L 260.21875 219.765625 L 253.738281 218.917969 L 247.257812 217.28125 L 240.777344 214.777344 L 238.273438 213.527344 L 234.296875 211.164062 L 228.746094 207.046875 L 227.816406 206.011719 L 223.316406 200.566406 L 221.335938 194.542969 "/>
<path style="fill:none;stroke-width:0.425197;stroke-linecap:butt;stroke-linejoin:round;stroke:rgb(24.313725%,50.588235%,71.764706%);stroke-opacity:1;stroke-miterlimit:1;" d="M 227.816406 197.351562 L 226.535156 194.085938 L 226.972656 187.605469 L 227.816406 185.976562 L 230.359375 181.125 L 234.296875 177.300781 L 237.644531 174.644531 L 240.777344 172.890625 L 247.257812 170.308594 L 253.738281 168.839844 L 260.21875 168.347656 L 266.699219 168.753906 L 273.179688 170.054688 L 279.65625 172.320312 L 284.257812 174.644531 L 286.136719 175.914062 L 292.183594 181.125 L 292.617188 181.792969 L 296.0625 187.605469 L 296.992188 194.085938 L 295.167969 200.566406 L 292.617188 204.121094 L 290.164062 207.046875 L 286.136719 210.152344 L 279.972656 213.527344 L 279.65625 213.671875 L 273.179688 215.652344 L 266.699219 216.546875 L 260.21875 216.5 L 253.738281 215.5625 L 247.257812 213.699219 L 246.835938 213.527344 L 240.777344 210.695312 L 235.125 207.046875 L 234.296875 206.273438 L 229.101562 200.566406 L 227.816406 197.351562 "/>
<path style="fill:none;stroke-width:0.425197;stroke-linecap:butt;stroke-linejoin:round;stroke:rgb(26.666667%,55.294118%,77.647059%);stroke-opacity:1;stroke-miterlimit:1;" d="M 234.296875 200.050781 L 231.632812 194.085938 L 231.984375 187.605469 L 234.296875 183.433594 L 235.738281 181.125 L 240.777344 177.015625 L 244.859375 174.644531 L 247.257812 173.632812 L 253.738281 171.964844 L 260.21875 171.378906 L 266.699219 171.789062 L 273.179688 173.199219 L 277.058594 174.644531 L 279.65625 175.902344 L 286.136719 180.382812 L 287 181.125 L 291.3125 187.605469 L 292.292969 194.085938 L 290.117188 200.566406 L 286.136719 205.203125 L 284.066406 207.046875 L 279.65625 209.679688 L 273.179688 212.113281 L 266.699219 213.234375 L 260.21875 213.21875 L 253.738281 212.136719 L 247.257812 209.957031 L 241.625 207.046875 L 240.777344 206.433594 L 234.550781 200.566406 L 234.296875 200.050781 "/>
<path style="fill:none;stroke-width:0.425197;stroke-linecap:butt;stroke-linejoin:round;stroke:rgb(29.019608%,60%,84.313725%);stroke-opacity:1;stroke-miterlimit:1;" d="M 240.777344 201.191406 L 240.113281 200.566406 L 236.734375 194.085938 L 237.085938 187.605469 L 240.777344 181.945312 L 241.464844 181.125 L 247.257812 177.542969 L 253.738281 175.199219 L 257.914062 174.644531 L 260.21875 174.410156 L 263.894531 174.644531 L 266.699219 174.871094 L 273.179688 176.71875 L 279.65625 179.984375 L 281.285156 181.125 L 286.136719 187.101562 L 286.480469 187.605469 L 287.476562 194.085938 L 286.136719 197.671875 L 284.824219 200.566406 L 279.65625 205.234375 L 276.566406 207.046875 L 273.179688 208.429688 L 266.699219 209.730469 L 260.21875 209.765625 L 253.738281 208.601562 L 249.441406 207.046875 L 247.257812 205.976562 L 240.777344 201.191406 "/>
<path style="fill:none;stroke-width:0.425197;stroke-linecap:butt;stroke-linejoin:round;stroke:rgb(31.372549%,64.705882%,90.196078%);stroke-opacity:1;stroke-miterlimit:1;" d="M 247.257812 201.195312 L 246.417969 200.566406 L 242.121094 194.085938 L 242.574219 187.605469 L 247.257812 182.125 L 248.609375 181.125 L 253.738281 179.085938 L 260.21875 178.101562 L 266.699219 178.601562 L 273.179688 180.558594 L 274.28125 181.125 L 279.65625 185.894531 L 281.070312 187.605469 L 282.191406 194.085938 L 279.65625 199.246094 L 278.738281 200.566406 L 273.179688 204.027344 L 266.699219 205.976562 L 260.21875 206.09375 L 253.738281 204.507812 L 247.257812 201.195312 "/>
<path style="fill:none;stroke-width:0.425197;stroke-linecap:butt;stroke-linejoin:round;stroke:rgb(33.72549%,69.411765%,96.862745%);stroke-opacity:1;stroke-miterlimit:1;" d="M 253.738281 199.414062 L 248.558594 194.085938 L 249.371094 187.605469 L 253.738281 184.296875 L 260.21875 182.347656 L 266.699219 183.136719 L 273.179688 186.503906 L 274.414062 187.605469 L 275.804688 194.085938 L 273.179688 197.730469 L 269.238281 200.566406 L 266.699219 201.40625 L 260.21875 201.621094 L 256.0625 200.566406 L 253.738281 199.414062 "/>
</g>
</svg>
