<?xml version="1.0" encoding="UTF-8"?>
<svg xmlns="http://www.w3.org/2000/svg" xmlns:xlink="http://www.w3.org/1999/xlink" width="720pt" height="720pt" viewBox="0 0 720 720" version="1.1">
<defs>
<clipPath id="clip1">
  <path d="M 14.285156 0 L 720 0 L 720 706 L 14.285156 706 Z "/>
</clipPath>
</defs>
<g id="surface46">
<rect x="0" y="0" width="720" height="720" style="fill:rgb(100%,100%,100%);fill-opacity:1;stroke:none;"/>
<rect x="0" y="0" width="720" height="720" style="fill:rgb(100%,100%,100%);fill-opacity:1;stroke:none;"/>
<path style="fill:none;stroke-width:1.062992;stroke-linecap:round;stroke-linejoin:round;stroke:rgb(100%,100%,100%);stroke-opacity:1;stroke-miterlimit:10;" d="M 0 720 L 720 720 L 720 0 L 0 0 Z "/>
<g clip-path="url(#clip1)" clip-rule="nonzero">
<path style=" stroke:none;fill-rule:nonzero;fill:rgb(100%,100%,100%);fill-opacity:1;" d="M 14.285156 705.714844 L 720 705.714844 L 720 0 L 14.285156 0 Z "/>
</g>
<path style="fill:none;stroke-width:0.425197;stroke-linecap:butt;stroke-linejoin:round;stroke:rgb(7.45098%,16.862745%,26.27451%);stroke-opacity:1;stroke-miterlimit:1;" d="M 260.21875 344.160156 L 260.105469 343.136719 L 260.21875 342.472656 L 261.125 336.65625 L 263.035156 330.175781 L 265.425781 323.695312 L 266.699219 320.445312 L 268.472656 317.214844 L 271.539062 310.734375 L 271.679688 304.253906 L 268.777344 297.773438 L 266.699219 293.523438 L 265.871094 291.292969 L 264.820312 284.8125 L 266.128906 278.332031 L 266.699219 277.261719 L 269.890625 271.851562 L 273.179688 267.785156 L 275.429688 265.371094 L 279.65625 261.277344 L 282.59375 258.890625 L 286.136719 256.421875 L 292.617188 252.871094 L 293.753906 252.410156 L 299.097656 250.433594 L 305.578125 249.167969 L 312.058594 249.546875 L 318.164062 252.410156 L 318.539062 252.738281 L 323.289062 258.890625 L 325.019531 261.445312 L 329.785156 265.371094 L 331.5 266.210938 L 337.980469 266.601562 L 344.460938 265.753906 L 348.632812 265.371094 L 350.941406 265.125 L 352.488281 265.371094 L 357.421875 266.203125 L 363.902344 270.933594 L 364.601562 271.851562 L 370.382812 278.308594 L 370.402344 278.332031 L 376.863281 284.269531 L 377.476562 284.8125 L 383.34375 288.976562 L 387.390625 291.292969 L 389.824219 292.492188 L 396.304688 294.082031 L 402.785156 293.878906 L 409.265625 291.765625 L 410.15625 291.292969 L 415.746094 288.371094 L 422.226562 285.40625 L 425.71875 284.8125 L 428.707031 284.390625 L 430.558594 284.8125 L 435.1875 286.585938 L 439.160156 291.292969 L 439.449219 297.773438 L 436.902344 304.253906 L 435.1875 308.484375 L 434.277344 310.734375 L 434.511719 317.214844 L 435.1875 318.949219 L 437.027344 323.695312 L 439.695312 330.175781 L 441.53125 336.65625 L 441.667969 337.128906 L 444.726562 343.136719 L 448.148438 345.925781 L 454.628906 348.484375 L 458.679688 349.617188 L 461.109375 350.121094 L 467.589844 352.230469 L 472.609375 356.097656 L 474.070312 357.398438 L 477.78125 362.578125 L 480.550781 368.832031 L 480.644531 369.058594 L 482.183594 375.539062 L 482.609375 382.019531 L 483.378906 388.5 L 486.28125 394.980469 L 487.03125 396.019531 L 490.992188 401.460938 L 493.511719 406.296875 L 494.367188 407.941406 L 495.21875 414.421875 L 493.511719 419.613281 L 493.078125 420.902344 L 487.234375 427.382812 L 487.03125 427.535156 L 480.550781 431.054688 L 474.070312 432.796875 L 467.589844 433.378906 L 461.109375 433.191406 L 454.628906 432.574219 L 448.148438 431.839844 L 441.667969 431.199219 L 435.1875 430.722656 L 428.707031 430.339844 L 422.226562 429.960938 L 415.746094 429.558594 L 409.265625 429.308594 L 402.785156 429.476562 L 396.304688 430.082031 L 389.824219 430.820312 L 383.34375 431.367188 L 376.863281 431.566406 L 370.382812 431.3125 L 363.902344 430.449219 L 357.421875 428.730469 L 353.949219 427.382812 L 350.941406 425.984375 L 344.460938 421.597656 L 343.523438 420.902344 L 337.980469 415.132812 L 337.175781 414.421875 L 331.5 409.238281 L 329.144531 407.941406 L 325.019531 406.070312 L 318.539062 404.007812 L 312.058594 401.667969 L 311.660156 401.460938 L 305.578125 398.15625 L 301.382812 394.980469 L 299.097656 393.320312 L 293.585938 388.5 L 292.617188 387.585938 L 287.699219 382.019531 L 286.136719 379.890625 L 283.425781 375.539062 L 279.65625 370.664062 L 278.488281 369.058594 L 273.179688 364.359375 L 271.304688 362.578125 L 266.699219 358.550781 L 264.414062 356.097656 L 260.835938 349.617188 L 260.21875 344.160156 "/>
<path style="fill:none;stroke-width:0.425197;stroke-linecap:butt;stroke-linejoin:round;stroke:rgb(13.333333%,28.627451%,42.352941%);stroke-opacity:1;stroke-miterlimit:1;" d="M 286.136719 345.613281 L 283.894531 343.136719 L 284.421875 336.65625 L 286.136719 334.609375 L 290.164062 330.175781 L 292.617188 328.566406 L 298.957031 323.695312 L 299.097656 323.605469 L 305.578125 318.378906 L 306.820312 317.214844 L 312.058594 312.882812 L 315.132812 310.734375 L 318.539062 308.152344 L 325.019531 304.789062 L 326.277344 304.253906 L 331.5 300.960938 L 337.714844 297.773438 L 337.980469 297.546875 L 344.460938 292.953125 L 349.320312 291.292969 L 350.941406 290.722656 L 357.421875 291.03125 L 358.050781 291.292969 L 363.902344 293.3125 L 370.382812 297.019531 L 371.472656 297.773438 L 376.863281 301.269531 L 382.03125 304.253906 L 383.34375 304.851562 L 389.824219 306.945312 L 396.304688 308.425781 L 402.785156 309.984375 L 404.957031 310.734375 L 409.265625 312.164062 L 415.746094 316.640625 L 416.257812 317.214844 L 421.929688 323.695312 L 422.226562 324.175781 L 425.640625 330.175781 L 427.21875 336.65625 L 427.316406 343.136719 L 427.179688 349.617188 L 428.707031 355.398438 L 429.097656 356.097656 L 435.1875 359.605469 L 441.667969 360.410156 L 448.148438 360.90625 L 454.628906 362.058594 L 456.015625 362.578125 L 461.109375 364.902344 L 465.917969 369.058594 L 467.589844 372.378906 L 468.820312 375.539062 L 468.667969 382.019531 L 467.589844 387.871094 L 467.429688 388.5 L 467.589844 390.019531 L 468.109375 394.980469 L 472.410156 401.460938 L 474.070312 403.644531 L 477.03125 407.941406 L 477.824219 414.421875 L 474.070312 418.839844 L 470.429688 420.902344 L 467.589844 421.6875 L 461.109375 422.167969 L 454.628906 421.894531 L 448.148438 421.339844 L 443.683594 420.902344 L 441.667969 420.667969 L 435.1875 419.828125 L 428.707031 418.820312 L 422.226562 417.683594 L 415.746094 416.789062 L 409.265625 416.664062 L 402.785156 417.457031 L 396.304688 418.738281 L 389.824219 419.910156 L 383.34375 420.550781 L 376.863281 420.375 L 370.382812 419.054688 L 363.902344 415.976562 L 361.769531 414.421875 L 357.421875 410.015625 L 355.679688 407.941406 L 351.230469 401.460938 L 350.941406 401.089844 L 345.292969 394.980469 L 344.460938 394.28125 L 337.980469 389.894531 L 335.546875 388.5 L 331.5 386.363281 L 325.019531 382.847656 L 323.632812 382.019531 L 318.539062 377.898438 L 316.105469 375.539062 L 312.183594 369.058594 L 312.058594 368.828125 L 308.199219 362.578125 L 305.578125 359.261719 L 302.078125 356.097656 L 299.097656 353.710938 L 292.617188 350.1875 L 291.363281 349.617188 L 286.136719 345.613281 "/>
<path style="fill:none;stroke-width:0.425197;stroke-linecap:butt;stroke-linejoin:round;stroke:rgb(20%,41.568627%,59.607843%);stroke-opacity:1;stroke-miterlimit:1;" d="M 312.058594 346.367188 L 309.886719 343.136719 L 308.453125 336.65625 L 310.121094 330.175781 L 312.058594 327.433594 L 314.300781 323.695312 L 318.539062 319.558594 L 321.292969 317.214844 L 325.019531 314.714844 L 331.5 311.59375 L 334.058594 310.734375 L 337.980469 309.140625 L 344.460938 307.304688 L 350.941406 306.289062 L 357.421875 306.519531 L 363.902344 308.527344 L 368.289062 310.734375 L 370.382812 311.664062 L 376.863281 314.113281 L 383.34375 315.546875 L 389.824219 316.539062 L 393.246094 317.214844 L 396.304688 317.765625 L 402.785156 319.835938 L 409.265625 323.65625 L 409.3125 323.695312 L 414.8125 330.175781 L 415.746094 333.234375 L 416.730469 336.65625 L 416.007812 343.136719 L 415.746094 343.988281 L 413.75 349.617188 L 411.570312 356.097656 L 410.355469 362.578125 L 409.300781 369.058594 L 409.265625 369.1875 L 407.550781 375.539062 L 406.199219 382.019531 L 406.699219 388.5 L 408.035156 394.980469 L 407.472656 401.460938 L 402.785156 405.640625 L 400.023438 407.941406 L 396.304688 409.503906 L 389.824219 411.636719 L 383.34375 412.550781 L 376.863281 411.851562 L 370.382812 409 L 368.992188 407.941406 L 363.902344 402.167969 L 363.371094 401.460938 L 359.011719 394.980469 L 357.421875 393.027344 L 353.003906 388.5 L 350.941406 386.71875 L 344.460938 382.15625 L 344.242188 382.019531 L 337.980469 377.78125 L 334.695312 375.539062 L 331.5 372.644531 L 328.21875 369.058594 L 325.019531 364.839844 L 323.546875 362.578125 L 318.855469 356.097656 L 318.539062 355.6875 L 313.851562 349.617188 L 312.058594 346.367188 "/>
<path style="fill:none;stroke-width:0.425197;stroke-linecap:butt;stroke-linejoin:round;stroke:rgb(26.666667%,55.294118%,77.647059%);stroke-opacity:1;stroke-miterlimit:1;" d="M 325.019531 350.105469 L 324.628906 349.617188 L 320.679688 343.136719 L 319.203125 336.65625 L 320.375 330.175781 L 324.742188 323.695312 L 325.019531 323.449219 L 331.5 319.050781 L 336.117188 317.214844 L 337.980469 316.542969 L 344.460938 315.46875 L 350.941406 315.714844 L 356.363281 317.214844 L 357.421875 317.566406 L 363.902344 320.710938 L 370.382812 323.371094 L 372.371094 323.695312 L 376.863281 324.425781 L 383.34375 324.496094 L 389.824219 324.796875 L 396.304688 326.296875 L 402.785156 329.800781 L 403.21875 330.175781 L 405.984375 336.65625 L 404.441406 343.136719 L 402.785156 346.070312 L 400.269531 349.617188 L 396.304688 355.757812 L 396.027344 356.097656 L 391.839844 362.578125 L 389.824219 365.8125 L 386.613281 369.058594 L 383.34375 373.890625 L 381.570312 375.539062 L 381.144531 382.019531 L 383.34375 383.898438 L 386.117188 388.5 L 389.824219 394.273438 L 390.082031 394.980469 L 389.824219 395.757812 L 385.371094 401.460938 L 383.34375 402.027344 L 380.910156 401.460938 L 376.863281 398.953125 L 374.238281 394.980469 L 371.890625 388.5 L 370.382812 385.929688 L 367.953125 382.019531 L 363.902344 378.730469 L 359.855469 375.539062 L 357.421875 373.910156 L 350.941406 369.617188 L 350.101562 369.058594 L 344.460938 366.066406 L 339.335938 362.578125 L 337.980469 361.9375 L 331.5 356.878906 L 330.792969 356.097656 L 325.019531 350.105469 "/>
<path style="fill:none;stroke-width:0.425197;stroke-linecap:butt;stroke-linejoin:round;stroke:rgb(33.72549%,69.411765%,96.862745%);stroke-opacity:1;stroke-miterlimit:1;" d="M 331.5 344.605469 L 330.386719 343.136719 L 328.375 336.65625 L 329.976562 330.175781 L 331.5 328.417969 L 337.980469 324.070312 L 340.269531 323.695312 L 344.460938 323.203125 L 347.003906 323.695312 L 350.941406 324.878906 L 357.421875 329.1875 L 358.847656 330.175781 L 363.902344 335.785156 L 365.726562 336.65625 L 370.382812 341.925781 L 376.035156 343.136719 L 370.382812 344.914062 L 363.902344 348.605469 L 362.253906 349.617188 L 357.421875 350.765625 L 350.941406 351.984375 L 344.460938 351.941406 L 337.980469 349.96875 L 337.472656 349.617188 L 331.5 344.605469 "/>
</g>
</svg>
