<?xml version="1.0" encoding="UTF-8"?>
<svg xmlns="http://www.w3.org/2000/svg" xmlns:xlink="http://www.w3.org/1999/xlink" width="720pt" height="720pt" viewBox="0 0 720 720" version="1.1">
<defs>
<clipPath id="clip1">
  <path d="M 14.285156 0 L 720 0 L 720 706 L 14.285156 706 Z "/>
</clipPath>
</defs>
<g id="surface56">
<rect x="0" y="0" width="720" height="720" style="fill:rgb(100%,100%,100%);fill-opacity:1;stroke:none;"/>
<rect x="0" y="0" width="720" height="720" style="fill:rgb(100%,100%,100%);fill-opacity:1;stroke:none;"/>
<path style="fill:none;stroke-width:1.062992;stroke-linecap:round;stroke-linejoin:round;stroke:rgb(100%,100%,100%);stroke-opacity:1;stroke-miterlimit:10;" d="M 0 720 L 720 720 L 720 0 L 0 0 Z "/>
<g clip-path="url(#clip1)" clip-rule="nonzero">
<path style=" stroke:none;fill-rule:nonzero;fill:rgb(100%,100%,100%);fill-opacity:1;" d="M 14.285156 705.714844 L 720 705.714844 L 720 0 L 14.285156 0 Z "/>
</g>
<path style="fill:none;stroke-width:0.425197;stroke-linecap:butt;stroke-linejoin:round;stroke:rgb(7.45098%,16.862745%,26.27451%);stroke-opacity:1;stroke-miterlimit:1;" d="M 85.246094 344.191406 L 84.753906 343.136719 L 82.78125 336.65625 L 81.816406 330.175781 L 81.71875 323.695312 L 82.382812 317.214844 L 83.707031 310.734375 L 85.246094 305.375 L 85.558594 304.253906 L 87.648438 297.773438 L 89.917969 291.292969 L 91.726562 286.105469 L 92.152344 284.8125 L 94.09375 278.332031 L 95.816406 271.851562 L 97.335938 265.371094 L 98.207031 261.355469 L 98.679688 258.890625 L 99.910156 252.410156 L 101.238281 245.929688 L 102.785156 239.449219 L 104.671875 232.96875 L 104.6875 232.925781 L 106.664062 226.488281 L 109.144531 220.007812 L 111.167969 215.722656 L 112.078125 213.527344 L 115.324219 207.046875 L 117.648438 203.230469 L 119.097656 200.566406 L 123.34375 194.085938 L 124.128906 193.039062 L 127.898438 187.605469 L 130.609375 184.28125 L 133.050781 181.125 L 137.089844 176.585938 L 138.789062 174.644531 L 143.570312 169.777344 L 145.191406 168.164062 L 150.050781 163.734375 L 152.464844 161.683594 L 156.53125 158.402344 L 161.027344 155.207031 L 163.011719 153.808594 L 169.492188 149.804688 L 171.550781 148.726562 L 175.972656 146.285156 L 182.453125 143.421875 L 185.78125 142.246094 L 188.933594 140.984375 L 195.414062 138.933594 L 201.894531 137.441406 L 208.375 136.410156 L 214.855469 135.765625 L 214.902344 135.765625 L 221.335938 135.382812 L 227.816406 135.421875 L 232.65625 135.765625 L 234.296875 135.855469 L 240.777344 136.542969 L 247.257812 137.589844 L 253.738281 139.035156 L 260.21875 140.933594 L 263.945312 142.246094 L 266.699219 143.128906 L 273.179688 145.535156 L 279.65625 148.441406 L 280.296875 148.726562 L 286.136719 151.359375 L 292.617188 154.59375 L 294.042969 155.207031 L 299.097656 157.625 L 305.578125 160.210938 L 312.058594 161.28125 L 318.539062 158.085938 L 320.265625 155.207031 L 322.875 148.726562 L 324.515625 142.246094 L 325.019531 139.449219 L 325.496094 135.765625 L 326.917969 122.804688 L 327.773438 116.324219 L 328.917969 109.84375 L 330.515625 103.363281 L 331.5 100.398438 L 332.574219 96.882812 L 335.261719 90.402344 L 337.980469 85.539062 L 338.882812 83.921875 L 343.515625 77.441406 L 344.460938 76.347656 L 349.542969 70.960938 L 350.941406 69.691406 L 357.421875 64.597656 L 357.59375 64.480469 L 363.902344 60.457031 L 368.804688 58 L 370.382812 57.214844 L 376.863281 54.476562 L 383.34375 52.375 L 386.632812 51.519531 L 389.824219 50.613281 L 396.304688 49.128906 L 402.785156 48.003906 L 409.265625 47.183594 L 415.746094 46.621094 L 422.226562 46.304688 L 428.707031 46.21875 L 435.1875 46.371094 L 441.667969 46.789062 L 448.148438 47.496094 L 454.628906 48.539062 L 461.109375 49.992188 L 466.3125 51.519531 L 467.589844 51.84375 L 474.070312 53.863281 L 480.550781 56.453125 L 483.808594 58 L 487.03125 59.421875 L 493.511719 62.78125 L 496.40625 64.480469 L 499.992188 66.523438 L 506.472656 70.699219 L 506.863281 70.960938 L 512.953125 74.984375 L 516.441406 77.441406 L 519.433594 79.597656 L 525.238281 83.921875 L 525.914062 84.449219 L 532.394531 89.484375 L 533.566406 90.402344 L 538.875 94.929688 L 541.113281 96.882812 L 545.355469 101.125 L 547.535156 103.363281 L 551.835938 108.761719 L 552.679688 109.84375 L 556.644531 116.324219 L 558.316406 120.285156 L 559.402344 122.804688 L 561.167969 129.285156 L 561.960938 135.765625 L 561.914062 142.246094 L 561.125 148.726562 L 559.652344 155.207031 L 558.316406 159.402344 L 557.644531 161.683594 L 555.3125 168.164062 L 552.574219 174.644531 L 551.835938 176.316406 L 549.8125 181.125 L 547.003906 187.605469 L 545.355469 191.589844 L 544.347656 194.085938 L 542.066406 200.566406 L 540.175781 207.046875 L 538.9375 213.527344 L 538.875 215.097656 L 538.65625 220.007812 L 538.875 221.804688 L 539.546875 226.488281 L 541.820312 232.96875 L 545.355469 239.289062 L 545.453125 239.449219 L 550.230469 245.929688 L 551.835938 247.878906 L 555.8125 252.410156 L 558.316406 255.140625 L 562.019531 258.890625 L 564.792969 261.652344 L 568.835938 265.371094 L 571.273438 267.609375 L 576.144531 271.851562 L 577.753906 273.285156 L 583.386719 278.332031 L 584.234375 279.144531 L 589.714844 284.8125 L 590.714844 285.992188 L 594.667969 291.292969 L 597.195312 295.539062 L 598.355469 297.773438 L 600.722656 304.253906 L 602.078125 310.734375 L 602.492188 317.214844 L 602.082031 323.695312 L 601.007812 330.175781 L 599.433594 336.65625 L 597.507812 343.136719 L 597.195312 344.046875 L 595.175781 349.617188 L 592.683594 356.097656 L 590.714844 360.925781 L 589.996094 362.578125 L 586.984375 369.058594 L 584.234375 374.585938 L 583.730469 375.539062 L 579.957031 382.019531 L 577.753906 385.472656 L 575.691406 388.5 L 571.273438 394.390625 L 570.804688 394.980469 L 565.097656 401.460938 L 564.792969 401.777344 L 558.421875 407.941406 L 558.316406 408.035156 L 551.835938 413.351562 L 550.410156 414.421875 L 545.355469 417.894531 L 540.449219 420.902344 L 538.875 421.792969 L 532.394531 425.105469 L 527.316406 427.382812 L 525.914062 427.972656 L 519.433594 430.480469 L 512.953125 432.671875 L 508.976562 433.863281 L 506.472656 434.613281 L 499.992188 436.347656 L 493.511719 437.808594 L 487.03125 438.960938 L 480.550781 439.75 L 474.070312 440.097656 L 467.589844 439.890625 L 461.109375 438.964844 L 454.628906 437.078125 L 448.179688 433.863281 L 448.148438 433.84375 L 441.667969 429.277344 L 439.710938 427.382812 L 435.1875 422.785156 L 433.703125 420.902344 L 428.945312 414.421875 L 428.707031 414.078125 L 424.949219 407.941406 L 422.226562 402.898438 L 421.507812 401.460938 L 418.472656 394.980469 L 415.882812 388.5 L 415.746094 388.125 L 413.542969 382.019531 L 411.59375 375.539062 L 410.023438 369.058594 L 409.265625 365.0625 L 408.765625 362.578125 L 407.820312 356.097656 L 407.265625 349.617188 L 407.113281 343.136719 L 407.375 336.65625 L 408.078125 330.175781 L 409.246094 323.695312 L 409.265625 323.621094 L 410.753906 317.214844 L 412.738281 310.734375 L 415.222656 304.253906 L 415.746094 303.023438 L 417.984375 297.773438 L 421.046875 291.292969 L 422.226562 288.746094 L 424.132812 284.8125 L 426.894531 278.332031 L 428.707031 271.941406 L 428.734375 271.851562 L 428.707031 270.769531 L 428.546875 265.371094 L 424.636719 258.890625 L 422.226562 257.152344 L 415.746094 252.953125 L 414.84375 252.410156 L 409.265625 250.121094 L 402.785156 247.429688 L 399.265625 245.929688 L 396.304688 244.902344 L 389.824219 242.488281 L 383.34375 239.789062 L 382.554688 239.449219 L 376.863281 237.164062 L 370.382812 234.242188 L 367.652344 232.96875 L 363.902344 231.191406 L 357.421875 228.019531 L 354.070312 226.488281 L 350.941406 224.902344 L 344.460938 222.230469 L 337.980469 220.761719 L 331.5 221.84375 L 325.789062 226.488281 L 325.019531 227.121094 L 320.914062 232.96875 L 318.539062 236.09375 L 316.667969 239.449219 L 312.527344 245.929688 L 312.058594 246.605469 L 308.644531 252.410156 L 305.578125 257.027344 L 304.453125 258.890625 L 300.269531 265.371094 L 299.097656 267.167969 L 296.167969 271.851562 L 292.617188 277.554688 L 292.140625 278.332031 L 288.726562 284.8125 L 286.136719 290.71875 L 285.886719 291.292969 L 284.058594 297.773438 L 283.09375 304.253906 L 282.824219 310.734375 L 282.898438 317.214844 L 282.898438 323.695312 L 282.457031 330.175781 L 281.269531 336.65625 L 279.65625 341.460938 L 279.070312 343.136719 L 275.582031 349.617188 L 273.179688 352.796875 L 270.355469 356.097656 L 266.699219 359.433594 L 262.527344 362.578125 L 260.21875 364.0625 L 253.738281 367.371094 L 249.296875 369.058594 L 247.257812 369.777344 L 240.777344 371.4375 L 234.296875 372.492188 L 227.816406 373.054688 L 221.335938 373.234375 L 214.855469 373.140625 L 208.375 372.894531 L 201.894531 372.628906 L 195.414062 372.460938 L 188.933594 372.484375 L 182.453125 372.75 L 175.972656 373.25 L 169.492188 373.929688 L 163.011719 374.6875 L 156.53125 375.410156 L 155.082031 375.539062 L 150.050781 376.003906 L 143.570312 376.328125 L 137.089844 376.265625 L 130.609375 375.730469 L 129.464844 375.539062 L 124.128906 374.65625 L 117.648438 372.933594 L 111.167969 370.40625 L 108.53125 369.058594 L 104.6875 366.886719 L 98.746094 362.578125 L 98.207031 362.109375 L 92.320312 356.097656 L 91.726562 355.304688 L 87.816406 349.617188 L 85.246094 344.191406 "/>
<path style="fill:none;stroke-width:0.425197;stroke-linecap:butt;stroke-linejoin:round;stroke:rgb(7.45098%,16.862745%,26.27451%);stroke-opacity:1;stroke-miterlimit:1;" d="M 247.257812 563.96875 L 247.066406 563.46875 L 245.90625 556.988281 L 246.0625 550.507812 L 247.257812 545.355469 L 247.5625 544.027344 L 250.464844 537.546875 L 253.738281 532.816406 L 255.035156 531.066406 L 260.21875 525.847656 L 261.613281 524.585938 L 266.699219 520.792969 L 270.851562 518.105469 L 273.179688 516.757812 L 279.65625 513.4375 L 283.6875 511.625 L 286.136719 510.558594 L 292.617188 507.976562 L 299.097656 505.617188 L 300.441406 505.144531 L 305.578125 503.285156 L 312.058594 501.011719 L 318.539062 498.808594 L 318.964844 498.664062 L 325.019531 496.5 L 331.5 494.320312 L 337.980469 492.335938 L 338.539062 492.183594 L 344.460938 490.457031 L 350.941406 488.941406 L 357.421875 487.851562 L 363.902344 487.226562 L 370.382812 487.109375 L 376.863281 487.550781 L 383.34375 488.625 L 389.824219 490.46875 L 393.917969 492.183594 L 396.304688 493.246094 L 402.785156 497.234375 L 404.5625 498.664062 L 409.265625 503.113281 L 410.992188 505.144531 L 415.367188 511.625 L 415.746094 512.34375 L 418.492188 518.105469 L 420.648438 524.585938 L 422.027344 531.066406 L 422.226562 532.859375 L 422.757812 537.546875 L 422.824219 544.027344 L 422.226562 550.167969 L 422.195312 550.507812 L 420.882812 556.988281 L 418.726562 563.46875 L 415.746094 569.558594 L 415.550781 569.949219 L 411.230469 576.429688 L 409.265625 578.738281 L 405.332031 582.910156 L 402.785156 585.175781 L 397.277344 589.390625 L 396.304688 590.054688 L 389.824219 593.898438 L 385.753906 595.871094 L 383.34375 596.992188 L 376.863281 599.519531 L 370.382812 601.539062 L 367.175781 602.351562 L 363.902344 603.203125 L 357.421875 604.558594 L 350.941406 605.601562 L 344.460938 606.371094 L 337.980469 606.878906 L 331.5 607.140625 L 325.019531 607.136719 L 318.539062 606.855469 L 312.058594 606.265625 L 305.578125 605.324219 L 299.097656 603.984375 L 293.160156 602.351562 L 292.617188 602.199219 L 286.136719 599.980469 L 279.65625 597.1875 L 277.070312 595.871094 L 273.179688 593.71875 L 266.699219 589.480469 L 266.570312 589.390625 L 260.21875 584.046875 L 258.992188 582.910156 L 253.738281 576.78125 L 253.453125 576.429688 L 249.519531 569.949219 L 247.257812 563.96875 "/>
<path style="fill:none;stroke-width:0.425197;stroke-linecap:butt;stroke-linejoin:round;stroke:rgb(10.980392%,23.529412%,35.294118%);stroke-opacity:1;stroke-miterlimit:1;" d="M 124.128906 327.878906 L 123.402344 323.695312 L 123.851562 317.214844 L 124.128906 316.015625 L 125.46875 310.734375 L 127.464844 304.253906 L 129.203125 297.773438 L 130.347656 291.292969 L 130.609375 287.695312 L 130.800781 284.8125 L 130.65625 278.332031 L 130.609375 277.800781 L 130.128906 271.851562 L 129.453125 265.371094 L 128.835938 258.890625 L 128.433594 252.410156 L 128.351562 245.929688 L 128.671875 239.449219 L 129.449219 232.96875 L 130.609375 227.199219 L 130.730469 226.488281 L 132.34375 220.007812 L 134.527344 213.527344 L 137.089844 207.738281 L 137.359375 207.046875 L 140.519531 200.566406 L 143.570312 195.617188 L 144.449219 194.085938 L 148.960938 187.605469 L 150.050781 186.269531 L 154.222656 181.125 L 156.53125 178.675781 L 160.511719 174.644531 L 163.011719 172.375 L 168.152344 168.164062 L 169.492188 167.136719 L 175.972656 162.746094 L 177.828125 161.683594 L 182.453125 159.050781 L 188.933594 156.128906 L 191.515625 155.207031 L 195.414062 153.714844 L 201.894531 151.84375 L 208.375 150.558594 L 214.855469 149.78125 L 221.335938 149.460938 L 227.816406 149.574219 L 234.296875 150.128906 L 240.777344 151.15625 L 247.257812 152.707031 L 253.738281 154.867188 L 254.574219 155.207031 L 260.21875 157.417969 L 266.699219 160.707031 L 268.367188 161.683594 L 273.179688 164.671875 L 277.9375 168.164062 L 279.65625 169.601562 L 285.140625 174.644531 L 286.136719 175.777344 L 290.742188 181.125 L 292.617188 184.085938 L 294.957031 187.605469 L 297.890625 194.085938 L 299.097656 198.507812 L 299.75 200.566406 L 300.753906 207.046875 L 300.800781 213.527344 L 300.007812 220.007812 L 299.097656 223.703125 L 298.53125 226.488281 L 296.523438 232.96875 L 293.722656 239.449219 L 292.617188 241.515625 L 290.410156 245.929688 L 286.359375 252.410156 L 286.136719 252.734375 L 281.886719 258.890625 L 279.65625 261.789062 L 276.777344 265.371094 L 273.179688 269.65625 L 271.171875 271.851562 L 266.699219 276.863281 L 265.21875 278.332031 L 260.21875 283.785156 L 259.121094 284.8125 L 253.738281 290.742188 L 253.136719 291.292969 L 247.546875 297.773438 L 247.257812 298.230469 L 242.503906 304.253906 L 240.777344 307.195312 L 238.082031 310.734375 L 234.296875 316.871094 L 234 317.214844 L 228.644531 323.695312 L 227.816406 324.5 L 221.335938 328.582031 L 216.867188 330.175781 L 214.855469 330.738281 L 208.375 331.855469 L 201.894531 332.613281 L 195.414062 333.320312 L 188.933594 334.1875 L 182.453125 335.351562 L 176.847656 336.65625 L 175.972656 336.828125 L 169.492188 338.3125 L 163.011719 339.855469 L 156.53125 341.222656 L 150.050781 342.113281 L 143.570312 342.148438 L 137.089844 340.878906 L 130.609375 337.773438 L 129.210938 336.65625 L 124.671875 330.175781 L 124.128906 327.878906 "/>
<path style="fill:none;stroke-width:0.425197;stroke-linecap:butt;stroke-linejoin:round;stroke:rgb(10.980392%,23.529412%,35.294118%);stroke-opacity:1;stroke-miterlimit:1;" d="M 299.097656 558.117188 L 298.703125 556.988281 L 299.097656 554.394531 L 299.765625 550.507812 L 304.417969 544.027344 L 305.578125 543.078125 L 312.058594 538.328125 L 313.226562 537.546875 L 318.539062 534.898438 L 325.019531 531.890625 L 326.957031 531.066406 L 331.5 529.445312 L 337.980469 527.394531 L 344.460938 525.710938 L 350.839844 524.585938 L 350.941406 524.570312 L 357.421875 524.261719 L 361.050781 524.585938 L 363.902344 524.910156 L 370.382812 527.046875 L 376.863281 531.050781 L 376.882812 531.066406 L 381.542969 537.546875 L 383.34375 543.492188 L 383.472656 544.027344 L 383.34375 546.503906 L 383.105469 550.507812 L 380.519531 556.988281 L 376.863281 561.921875 L 375.460938 563.46875 L 370.382812 567.332031 L 365.984375 569.949219 L 363.902344 570.917969 L 357.421875 573.1875 L 350.941406 574.789062 L 344.460938 575.792969 L 337.980469 576.226562 L 331.5 576.078125 L 325.019531 575.304688 L 318.539062 573.828125 L 312.058594 571.554688 L 308.707031 569.949219 L 305.578125 567.589844 L 301.308594 563.46875 L 299.097656 558.117188 "/>
<path style="fill:none;stroke-width:0.425197;stroke-linecap:butt;stroke-linejoin:round;stroke:rgb(10.980392%,23.529412%,35.294118%);stroke-opacity:1;stroke-miterlimit:1;" d="M 350.941406 166.144531 L 350.382812 161.683594 L 349.808594 155.207031 L 349.402344 148.726562 L 349.132812 142.246094 L 349.019531 135.765625 L 349.113281 129.285156 L 349.511719 122.804688 L 350.328125 116.324219 L 350.941406 113.390625 L 351.636719 109.84375 L 353.589844 103.363281 L 356.5 96.882812 L 357.421875 95.332031 L 360.484375 90.402344 L 363.902344 86.253906 L 366.03125 83.921875 L 370.382812 80.019531 L 373.765625 77.441406 L 376.863281 75.363281 L 383.34375 71.785156 L 385.152344 70.960938 L 389.824219 68.914062 L 396.304688 66.65625 L 402.785156 64.945312 L 405.0625 64.480469 L 409.265625 63.566406 L 415.746094 62.546875 L 422.226562 61.902344 L 428.707031 61.617188 L 435.1875 61.6875 L 441.667969 62.132812 L 448.148438 62.988281 L 454.628906 64.308594 L 455.261719 64.480469 L 461.109375 65.925781 L 467.589844 68.054688 L 474.070312 70.828125 L 474.335938 70.960938 L 480.550781 73.960938 L 486.410156 77.441406 L 487.03125 77.816406 L 493.511719 82.148438 L 495.917969 83.921875 L 499.992188 87.125 L 503.933594 90.402344 L 506.472656 92.730469 L 510.941406 96.882812 L 512.953125 99.015625 L 517.128906 103.363281 L 519.433594 106.210938 L 522.484375 109.84375 L 525.914062 114.972656 L 526.859375 116.324219 L 530.335938 122.804688 L 532.394531 128.582031 L 532.660156 129.285156 L 534.097656 135.765625 L 534.535156 142.246094 L 534.078125 148.726562 L 532.820312 155.207031 L 532.394531 156.617188 L 530.996094 161.683594 L 528.613281 168.164062 L 525.914062 174.082031 L 525.667969 174.644531 L 522.507812 181.125 L 519.433594 186.589844 L 518.871094 187.605469 L 515 194.085938 L 512.953125 197.230469 L 510.6875 200.566406 L 506.472656 206.234375 L 505.8125 207.046875 L 500.1875 213.527344 L 499.992188 213.75 L 493.511719 219.851562 L 493.304688 220.007812 L 487.03125 224.785156 L 483.925781 226.488281 L 480.550781 228.453125 L 474.070312 231.101562 L 467.589844 232.753906 L 466.300781 232.96875 L 461.109375 233.96875 L 454.628906 234.585938 L 448.148438 234.707031 L 441.667969 234.429688 L 435.1875 233.804688 L 429.542969 232.96875 L 428.707031 232.871094 L 422.226562 231.796875 L 415.746094 230.402344 L 409.265625 228.632812 L 402.929688 226.488281 L 402.785156 226.441406 L 396.304688 224.023438 L 389.824219 221.019531 L 387.921875 220.007812 L 383.34375 217.464844 L 377.421875 213.527344 L 376.863281 213.113281 L 370.382812 207.734375 L 369.621094 207.046875 L 363.902344 200.699219 L 363.789062 200.566406 L 359.3125 194.085938 L 357.421875 190.214844 L 356.101562 187.605469 L 353.753906 181.125 L 352.199219 174.644531 L 351.167969 168.164062 L 350.941406 166.144531 "/>
<path style="fill:none;stroke-width:0.425197;stroke-linecap:butt;stroke-linejoin:round;stroke:rgb(10.980392%,23.529412%,35.294118%);stroke-opacity:1;stroke-miterlimit:1;" d="M 435.1875 356.800781 L 435.023438 356.097656 L 434.121094 349.617188 L 433.855469 343.136719 L 434.226562 336.65625 L 435.1875 330.65625 L 435.269531 330.175781 L 437.105469 323.695312 L 439.691406 317.214844 L 441.667969 313.34375 L 443.207031 310.734375 L 447.761719 304.253906 L 448.148438 303.765625 L 453.882812 297.773438 L 454.628906 297.039062 L 461.109375 292.058594 L 462.507812 291.292969 L 467.589844 288.429688 L 474.070312 286.136719 L 480.550781 285.175781 L 487.03125 285.707031 L 493.511719 288.136719 L 497.792969 291.292969 L 499.992188 293.355469 L 503.265625 297.773438 L 506.472656 303.941406 L 506.609375 304.253906 L 508.816406 310.734375 L 510.375 317.214844 L 511.492188 323.695312 L 512.300781 330.175781 L 512.871094 336.65625 L 512.953125 338.109375 L 513.25 343.136719 L 513.371094 349.617188 L 513.144531 356.097656 L 512.953125 357.902344 L 512.464844 362.578125 L 511.132812 369.058594 L 508.851562 375.539062 L 506.472656 379.9375 L 505.207031 382.019531 L 499.992188 388.050781 L 499.503906 388.5 L 493.511719 392.796875 L 488.976562 394.980469 L 487.03125 395.78125 L 480.550781 397.292969 L 474.070312 397.566406 L 467.589844 396.574219 L 463.183594 394.980469 L 461.109375 394.191406 L 454.628906 390.164062 L 452.726562 388.5 L 448.148438 384.015625 L 446.5625 382.019531 L 442.171875 375.539062 L 441.667969 374.644531 L 439.015625 369.058594 L 436.664062 362.578125 L 435.1875 356.800781 "/>
<path style="fill:none;stroke-width:0.425197;stroke-linecap:butt;stroke-linejoin:round;stroke:rgb(14.509804%,30.588235%,44.705882%);stroke-opacity:1;stroke-miterlimit:1;" d="M 150.050781 258.382812 L 147.847656 252.410156 L 146.269531 245.929688 L 145.429688 239.449219 L 145.265625 232.96875 L 145.746094 226.488281 L 146.867188 220.007812 L 148.675781 213.527344 L 150.050781 210.050781 L 151.128906 207.046875 L 154.230469 200.566406 L 156.53125 196.824219 L 158.167969 194.085938 L 163.011719 187.65625 L 163.046875 187.605469 L 169.003906 181.125 L 169.492188 180.664062 L 175.972656 175.105469 L 176.582031 174.644531 L 182.453125 170.59375 L 186.828125 168.164062 L 188.933594 167.027344 L 195.414062 164.191406 L 201.894531 162.125 L 203.839844 161.683594 L 208.375 160.589844 L 214.855469 159.640625 L 221.335938 159.28125 L 227.816406 159.484375 L 234.296875 160.269531 L 240.777344 161.675781 L 240.808594 161.683594 L 247.257812 163.578125 L 253.738281 166.238281 L 257.410156 168.164062 L 260.21875 169.734375 L 266.699219 174.242188 L 267.210938 174.644531 L 273.179688 180.183594 L 274.089844 181.125 L 279.070312 187.605469 L 279.65625 188.648438 L 282.707031 194.085938 L 285.039062 200.566406 L 286.136719 206.164062 L 286.328125 207.046875 L 286.753906 213.527344 L 286.242188 220.007812 L 286.136719 220.503906 L 284.996094 226.488281 L 282.921875 232.96875 L 279.917969 239.449219 L 279.65625 239.902344 L 276.21875 245.929688 L 273.179688 250.214844 L 271.546875 252.410156 L 266.699219 258.0625 L 265.917969 258.890625 L 260.21875 264.515625 L 259.21875 265.371094 L 253.738281 270.054688 L 251.199219 271.851562 L 247.257812 274.832031 L 241.4375 278.332031 L 240.777344 278.785156 L 234.296875 282.382812 L 228.347656 284.8125 L 227.816406 285.078125 L 221.335938 287.507812 L 214.855469 289.132812 L 208.375 290.109375 L 201.894531 290.519531 L 195.414062 290.390625 L 188.933594 289.6875 L 182.453125 288.273438 L 175.972656 285.875 L 173.972656 284.8125 L 169.492188 282.488281 L 164.164062 278.332031 L 163.011719 277.382812 L 157.960938 271.851562 L 156.53125 270.035156 L 153.503906 265.371094 L 150.253906 258.890625 L 150.050781 258.382812 "/>
<path style="fill:none;stroke-width:0.425197;stroke-linecap:butt;stroke-linejoin:round;stroke:rgb(14.509804%,30.588235%,44.705882%);stroke-opacity:1;stroke-miterlimit:1;" d="M 370.382812 177.621094 L 369.277344 174.644531 L 367.472656 168.164062 L 366.183594 161.683594 L 365.253906 155.207031 L 364.609375 148.726562 L 364.203125 142.246094 L 364.054688 135.765625 L 364.214844 129.285156 L 364.785156 122.804688 L 365.902344 116.324219 L 367.765625 109.84375 L 370.382812 103.902344 L 370.628906 103.363281 L 374.691406 96.882812 L 376.863281 94.304688 L 380.574219 90.402344 L 383.34375 88.054688 L 389.207031 83.921875 L 389.824219 83.542969 L 396.304688 80.144531 L 402.785156 77.578125 L 403.214844 77.441406 L 409.265625 75.578125 L 415.746094 74.144531 L 422.226562 73.210938 L 428.707031 72.738281 L 435.1875 72.710938 L 441.667969 73.136719 L 448.148438 74.042969 L 454.628906 75.488281 L 460.796875 77.441406 L 461.109375 77.535156 L 467.589844 80.074219 L 474.070312 83.367188 L 475.011719 83.921875 L 480.550781 87.339844 L 484.789062 90.402344 L 487.03125 92.175781 L 492.4375 96.882812 L 493.511719 97.949219 L 498.738281 103.363281 L 499.992188 104.910156 L 504.003906 109.84375 L 506.472656 113.644531 L 508.28125 116.324219 L 511.632812 122.804688 L 512.953125 126.457031 L 514.058594 129.285156 L 515.601562 135.765625 L 516.199219 142.246094 L 515.9375 148.726562 L 514.878906 155.207031 L 513.054688 161.683594 L 512.953125 161.953125 L 510.726562 168.164062 L 507.703125 174.644531 L 506.472656 176.859375 L 504.125 181.125 L 499.992188 187.367188 L 499.828125 187.605469 L 494.804688 194.085938 L 493.511719 195.5625 L 488.636719 200.566406 L 487.03125 202.0625 L 480.703125 207.046875 L 480.550781 207.160156 L 474.070312 211.238281 L 469.195312 213.527344 L 467.589844 214.277344 L 461.109375 216.613281 L 454.628906 218.183594 L 448.148438 219.136719 L 441.667969 219.5625 L 435.1875 219.511719 L 428.707031 219.003906 L 422.226562 218.023438 L 415.746094 216.542969 L 409.265625 214.492188 L 406.847656 213.527344 L 402.785156 211.871094 L 396.304688 208.511719 L 393.953125 207.046875 L 389.824219 204.183594 L 385.453125 200.566406 L 383.34375 198.488281 L 379.378906 194.085938 L 376.863281 190.523438 L 374.933594 187.605469 L 371.679688 181.125 L 370.382812 177.621094 "/>
<path style="fill:none;stroke-width:0.425197;stroke-linecap:butt;stroke-linejoin:round;stroke:rgb(18.039216%,37.647059%,54.509804%);stroke-opacity:1;stroke-miterlimit:1;" d="M 163.011719 250.992188 L 160.585938 245.929688 L 158.601562 239.449219 L 157.617188 232.96875 L 157.496094 226.488281 L 158.179688 220.007812 L 159.660156 213.527344 L 162.007812 207.046875 L 163.011719 205.035156 L 165.1875 200.566406 L 169.433594 194.085938 L 169.492188 194.011719 L 174.875 187.605469 L 175.972656 186.519531 L 182.101562 181.125 L 182.453125 180.851562 L 188.933594 176.496094 L 192.429688 174.644531 L 195.414062 173.148438 L 201.894531 170.660156 L 208.375 168.964844 L 213.523438 168.164062 L 214.855469 167.949219 L 221.335938 167.570312 L 227.816406 167.867188 L 229.796875 168.164062 L 234.296875 168.820312 L 240.777344 170.46875 L 247.257812 172.945312 L 250.605469 174.644531 L 253.738281 176.390625 L 260.21875 181.054688 L 260.300781 181.125 L 266.65625 187.605469 L 266.699219 187.664062 L 271.058594 194.085938 L 273.179688 198.832031 L 273.941406 200.566406 L 275.644531 207.046875 L 276.238281 213.527344 L 275.832031 220.007812 L 274.445312 226.488281 L 273.179688 229.972656 L 272.109375 232.96875 L 268.796875 239.449219 L 266.699219 242.617188 L 264.363281 245.929688 L 260.21875 250.78125 L 258.65625 252.410156 L 253.738281 257 L 251.335938 258.890625 L 247.257812 261.984375 L 241.679688 265.371094 L 240.777344 265.9375 L 234.296875 269.207031 L 227.816406 271.589844 L 226.796875 271.851562 L 221.335938 273.464844 L 214.855469 274.628906 L 208.375 275.105469 L 201.894531 274.90625 L 195.414062 273.980469 L 188.933594 272.199219 L 188.058594 271.851562 L 182.453125 269.605469 L 175.972656 265.675781 L 175.578125 265.371094 L 169.492188 260.019531 L 168.480469 258.890625 L 163.769531 252.410156 L 163.011719 250.992188 "/>
<path style="fill:none;stroke-width:0.425197;stroke-linecap:butt;stroke-linejoin:round;stroke:rgb(18.039216%,37.647059%,54.509804%);stroke-opacity:1;stroke-miterlimit:1;" d="M 376.863281 150.839844 L 376.582031 148.726562 L 376.085938 142.246094 L 375.988281 135.765625 L 376.351562 129.285156 L 376.863281 125.703125 L 377.269531 122.804688 L 378.890625 116.324219 L 381.5 109.84375 L 383.34375 106.664062 L 385.4375 103.363281 L 389.824219 98.324219 L 391.285156 96.882812 L 396.304688 92.925781 L 400.324219 90.402344 L 402.785156 89.0625 L 409.265625 86.273438 L 415.746094 84.28125 L 417.460938 83.921875 L 422.226562 82.945312 L 428.707031 82.214844 L 435.1875 82.066406 L 441.667969 82.496094 L 448.148438 83.539062 L 449.636719 83.921875 L 454.628906 85.191406 L 461.109375 87.539062 L 467.035156 90.402344 L 467.589844 90.6875 L 474.070312 94.71875 L 476.996094 96.882812 L 480.550781 99.851562 L 484.308594 103.363281 L 487.03125 106.382812 L 489.992188 109.84375 L 493.511719 115 L 494.414062 116.324219 L 497.839844 122.804688 L 499.992188 128.6875 L 500.222656 129.285156 L 501.78125 135.765625 L 502.40625 142.246094 L 502.167969 148.726562 L 501.101562 155.207031 L 499.992188 159.082031 L 499.277344 161.683594 L 496.75 168.164062 L 493.511719 174.390625 L 493.375 174.644531 L 489.214844 181.125 L 487.03125 183.945312 L 483.9375 187.605469 L 480.550781 191.0625 L 477.117188 194.085938 L 474.070312 196.492188 L 467.644531 200.566406 L 467.589844 200.601562 L 461.109375 203.714844 L 454.628906 205.90625 L 449.4375 207.046875 L 448.148438 207.332031 L 441.667969 208.105469 L 435.1875 208.214844 L 428.707031 207.691406 L 425.113281 207.046875 L 422.226562 206.535156 L 415.746094 204.707031 L 409.265625 202.085938 L 406.371094 200.566406 L 402.785156 198.484375 L 396.855469 194.085938 L 396.304688 193.605469 L 390.542969 187.605469 L 389.824219 186.664062 L 386.046875 181.125 L 383.34375 175.789062 L 382.796875 174.644531 L 380.386719 168.164062 L 378.652344 161.683594 L 377.421875 155.207031 L 376.863281 150.839844 "/>
<path style="fill:none;stroke-width:0.425197;stroke-linecap:butt;stroke-linejoin:round;stroke:rgb(21.960784%,45.490196%,64.705882%);stroke-opacity:1;stroke-miterlimit:1;" d="M 169.492188 236.8125 L 168.402344 232.96875 L 167.671875 226.488281 L 167.988281 220.007812 L 169.3125 213.527344 L 169.492188 213.035156 L 171.613281 207.046875 L 175.039062 200.566406 L 175.972656 199.234375 L 179.820312 194.085938 L 182.453125 191.304688 L 186.46875 187.605469 L 188.933594 185.6875 L 195.414062 181.589844 L 196.363281 181.125 L 201.894531 178.640625 L 208.375 176.640625 L 214.855469 175.476562 L 221.335938 175.101562 L 227.816406 175.5 L 234.296875 176.710938 L 240.777344 178.820312 L 245.625 181.125 L 247.257812 182.011719 L 253.738281 186.660156 L 254.816406 187.605469 L 260.21875 193.738281 L 260.488281 194.085938 L 264.089844 200.566406 L 266.160156 207.046875 L 266.699219 211.464844 L 266.949219 213.527344 L 266.699219 217.777344 L 266.570312 220.007812 L 265.078125 226.488281 L 262.421875 232.96875 L 260.21875 236.71875 L 258.480469 239.449219 L 253.738281 245.207031 L 253.050781 245.929688 L 247.257812 251.140625 L 245.53125 252.410156 L 240.777344 255.644531 L 234.527344 258.890625 L 234.296875 259.011719 L 227.816406 261.558594 L 221.335938 263.238281 L 214.855469 264.132812 L 208.375 264.277344 L 201.894531 263.632812 L 195.414062 262.09375 L 188.933594 259.457031 L 187.925781 258.890625 L 182.453125 255.417969 L 178.992188 252.410156 L 175.972656 249.089844 L 173.628906 245.929688 L 170.300781 239.449219 L 169.492188 236.8125 "/>
<path style="fill:none;stroke-width:0.425197;stroke-linecap:butt;stroke-linejoin:round;stroke:rgb(21.960784%,45.490196%,64.705882%);stroke-opacity:1;stroke-miterlimit:1;" d="M 389.824219 161.695312 L 389.820312 161.683594 L 388.203125 155.207031 L 387.152344 148.726562 L 386.617188 142.246094 L 386.605469 135.765625 L 387.191406 129.285156 L 388.519531 122.804688 L 389.824219 119.023438 L 390.820312 116.324219 L 394.449219 109.84375 L 396.304688 107.476562 L 400.101562 103.363281 L 402.785156 101.117188 L 409.257812 96.882812 L 409.265625 96.878906 L 415.746094 94.070312 L 422.226562 92.199219 L 428.707031 91.144531 L 435.1875 90.839844 L 441.667969 91.261719 L 448.148438 92.425781 L 454.628906 94.386719 L 460.367188 96.882812 L 461.109375 97.234375 L 467.589844 101.1875 L 470.496094 103.363281 L 474.070312 106.5 L 477.394531 109.84375 L 480.550781 113.785156 L 482.441406 116.324219 L 486.113281 122.804688 L 487.03125 125.109375 L 488.691406 129.285156 L 490.246094 135.765625 L 490.851562 142.246094 L 490.558594 148.726562 L 489.390625 155.207031 L 487.335938 161.683594 L 487.03125 162.382812 L 484.398438 168.164062 L 480.550781 174.464844 L 480.429688 174.644531 L 475.132812 181.125 L 474.070312 182.21875 L 467.867188 187.605469 L 467.589844 187.816406 L 461.109375 191.855469 L 456.175781 194.085938 L 454.628906 194.738281 L 448.148438 196.609375 L 441.667969 197.605469 L 435.1875 197.78125 L 428.707031 197.148438 L 422.226562 195.667969 L 417.902344 194.085938 L 415.746094 193.222656 L 409.265625 189.570312 L 406.601562 187.605469 L 402.785156 184.242188 L 399.898438 181.125 L 396.304688 176.179688 L 395.328125 174.644531 L 392.121094 168.164062 L 389.824219 161.695312 "/>
<path style="fill:none;stroke-width:0.425197;stroke-linecap:butt;stroke-linejoin:round;stroke:rgb(25.490196%,53.333333%,75.294118%);stroke-opacity:1;stroke-miterlimit:1;" d="M 182.453125 240.296875 L 181.859375 239.449219 L 178.804688 232.96875 L 177.359375 226.488281 L 177.277344 220.007812 L 178.441406 213.527344 L 180.871094 207.046875 L 182.453125 204.300781 L 184.796875 200.566406 L 188.933594 195.785156 L 190.667969 194.085938 L 195.414062 190.382812 L 200.050781 187.605469 L 201.894531 186.652344 L 208.375 184.265625 L 214.855469 182.902344 L 221.335938 182.5 L 227.816406 183.070312 L 234.296875 184.660156 L 240.777344 187.398438 L 241.136719 187.605469 L 247.257812 191.976562 L 249.527344 194.085938 L 253.738281 199.578125 L 254.382812 200.566406 L 257.035156 207.046875 L 258.09375 213.527344 L 257.738281 220.007812 L 256.015625 226.488281 L 253.738281 231.269531 L 252.839844 232.96875 L 247.945312 239.449219 L 247.257812 240.171875 L 240.777344 245.816406 L 240.605469 245.929688 L 234.296875 249.730469 L 228.003906 252.410156 L 227.816406 252.488281 L 221.335938 254.210938 L 214.855469 254.992188 L 208.375 254.832031 L 201.894531 253.660156 L 198.316406 252.410156 L 195.414062 251.265625 L 188.933594 247.242188 L 187.394531 245.929688 L 182.453125 240.296875 "/>
<path style="fill:none;stroke-width:0.425197;stroke-linecap:butt;stroke-linejoin:round;stroke:rgb(25.490196%,53.333333%,75.294118%);stroke-opacity:1;stroke-miterlimit:1;" d="M 402.785156 165.816406 L 400.867188 161.683594 L 398.738281 155.207031 L 397.390625 148.726562 L 396.753906 142.246094 L 396.835938 135.765625 L 397.734375 129.285156 L 399.640625 122.804688 L 402.785156 116.457031 L 402.863281 116.324219 L 408.308594 109.84375 L 409.265625 109 L 415.746094 104.570312 L 418.300781 103.363281 L 422.226562 101.808594 L 428.707031 100.277344 L 435.1875 99.738281 L 441.667969 100.144531 L 448.148438 101.5 L 453.316406 103.363281 L 454.628906 103.894531 L 461.109375 107.636719 L 464.054688 109.84375 L 467.589844 113.074219 L 470.570312 116.324219 L 474.070312 121.347656 L 474.984375 122.804688 L 477.867188 129.285156 L 479.5625 135.765625 L 480.171875 142.246094 L 479.757812 148.726562 L 478.328125 155.207031 L 475.847656 161.683594 L 474.070312 164.96875 L 472.125 168.164062 L 467.589844 173.847656 L 466.820312 174.644531 L 461.109375 179.519531 L 458.601562 181.125 L 454.628906 183.351562 L 448.148438 185.792969 L 441.667969 187.082031 L 435.1875 187.28125 L 428.707031 186.378906 L 422.226562 184.292969 L 416.203125 181.125 L 415.746094 180.84375 L 409.265625 175.253906 L 408.710938 174.644531 L 404.042969 168.164062 L 402.785156 165.816406 "/>
<path style="fill:none;stroke-width:0.425197;stroke-linecap:butt;stroke-linejoin:round;stroke:rgb(29.803922%,61.176471%,85.882353%);stroke-opacity:1;stroke-miterlimit:1;" d="M 188.933594 230.609375 L 187.441406 226.488281 L 186.847656 220.007812 L 187.882812 213.527344 L 188.933594 210.941406 L 190.707031 207.046875 L 195.414062 200.746094 L 195.578125 200.566406 L 201.894531 195.644531 L 204.742188 194.085938 L 208.375 192.472656 L 214.855469 190.824219 L 221.335938 190.410156 L 227.816406 191.246094 L 234.296875 193.433594 L 235.5 194.085938 L 240.777344 197.882812 L 243.445312 200.566406 L 247.257812 206.761719 L 247.398438 207.046875 L 248.851562 213.527344 L 248.527344 220.007812 L 247.257812 224.121094 L 246.417969 226.488281 L 242.238281 232.96875 L 240.777344 234.574219 L 235.105469 239.449219 L 234.296875 240.015625 L 227.816406 243.28125 L 221.335938 245.242188 L 215.085938 245.929688 L 214.855469 245.953125 L 214.550781 245.929688 L 208.375 245.371094 L 201.894531 243.320312 L 195.414062 239.464844 L 195.394531 239.449219 L 189.996094 232.96875 L 188.933594 230.609375 "/>
<path style="fill:none;stroke-width:0.425197;stroke-linecap:butt;stroke-linejoin:round;stroke:rgb(29.803922%,61.176471%,85.882353%);stroke-opacity:1;stroke-miterlimit:1;" d="M 409.265625 152.53125 L 408.238281 148.726562 L 407.453125 142.246094 L 407.660156 135.765625 L 408.980469 129.285156 L 409.265625 128.5625 L 412.023438 122.804688 L 415.746094 118.023438 L 417.558594 116.324219 L 422.226562 113.171875 L 428.707031 110.53125 L 432.9375 109.84375 L 435.1875 109.539062 L 440.554688 109.84375 L 441.667969 109.914062 L 448.148438 111.777344 L 454.628906 115.097656 L 456.308594 116.324219 L 461.109375 120.855469 L 462.742188 122.804688 L 466.515625 129.285156 L 467.589844 132.453125 L 468.574219 135.765625 L 469.203125 142.246094 L 468.59375 148.726562 L 467.589844 152.289062 L 466.636719 155.207031 L 463.101562 161.683594 L 461.109375 164.292969 L 457.273438 168.164062 L 454.628906 170.277344 L 448.148438 173.777344 L 445.066406 174.644531 L 441.667969 175.476562 L 435.1875 175.636719 L 430.222656 174.644531 L 428.707031 174.289062 L 422.226562 170.984375 L 418.746094 168.164062 L 415.746094 165.019531 L 413.375 161.683594 L 410.113281 155.207031 L 409.265625 152.53125 "/>
<path style="fill:none;stroke-width:0.425197;stroke-linecap:butt;stroke-linejoin:round;stroke:rgb(33.72549%,69.411765%,96.862745%);stroke-opacity:1;stroke-miterlimit:1;" d="M 201.894531 229.128906 L 199.988281 226.488281 L 198.277344 220.007812 L 199.296875 213.527344 L 201.894531 208.816406 L 203.226562 207.046875 L 208.375 203.070312 L 214.09375 200.566406 L 214.855469 200.324219 L 221.335938 199.925781 L 224.472656 200.566406 L 227.816406 201.570312 L 234.296875 206.273438 L 234.972656 207.046875 L 237.613281 213.527344 L 237.34375 220.007812 L 234.417969 226.488281 L 234.296875 226.640625 L 227.816406 232.226562 L 226.304688 232.96875 L 221.335938 234.753906 L 214.855469 235.3125 L 208.375 233.964844 L 206.46875 232.96875 L 201.894531 229.128906 "/>
<path style="fill:none;stroke-width:0.425197;stroke-linecap:butt;stroke-linejoin:round;stroke:rgb(33.72549%,69.411765%,96.862745%);stroke-opacity:1;stroke-miterlimit:1;" d="M 422.226562 148.75 L 422.214844 148.726562 L 420.949219 142.246094 L 421.433594 135.765625 L 422.226562 133.613281 L 424.625 129.285156 L 428.707031 125.476562 L 435.171875 122.804688 L 435.1875 122.796875 L 435.277344 122.804688 L 441.667969 123.238281 L 448.148438 126.605469 L 450.957031 129.285156 L 454.628906 135.371094 L 454.796875 135.765625 L 455.59375 142.246094 L 454.628906 147.808594 L 454.398438 148.726562 L 450.101562 155.207031 L 448.148438 157.042969 L 441.667969 160.164062 L 435.1875 160.273438 L 428.707031 157.292969 L 426.507812 155.207031 L 422.226562 148.75 "/>
</g>
</svg>
