<?xml version="1.0" encoding="UTF-8"?>
<svg xmlns="http://www.w3.org/2000/svg" xmlns:xlink="http://www.w3.org/1999/xlink" width="720pt" height="720pt" viewBox="0 0 720 720" version="1.1">
<defs>
<clipPath id="clip1">
  <path d="M 14.285156 0 L 720 0 L 720 706 L 14.285156 706 Z "/>
</clipPath>
</defs>
<g id="surface11">
<rect x="0" y="0" width="720" height="720" style="fill:rgb(100%,100%,100%);fill-opacity:1;stroke:none;"/>
<rect x="0" y="0" width="720" height="720" style="fill:rgb(100%,100%,100%);fill-opacity:1;stroke:none;"/>
<path style="fill:none;stroke-width:1.062992;stroke-linecap:round;stroke-linejoin:round;stroke:rgb(100%,100%,100%);stroke-opacity:1;stroke-miterlimit:10;" d="M 0 720 L 720 720 L 720 0 L 0 0 Z "/>
<g clip-path="url(#clip1)" clip-rule="nonzero">
<path style=" stroke:none;fill-rule:nonzero;fill:rgb(100%,100%,100%);fill-opacity:1;" d="M 14.285156 705.714844 L 720 705.714844 L 720 0 L 14.285156 0 Z "/>
</g>
<path style="fill:none;stroke-width:0.425197;stroke-linecap:butt;stroke-linejoin:round;stroke:rgb(7.45098%,16.862745%,26.27451%);stroke-opacity:1;stroke-miterlimit:1;" d="M 339.992188 673.636719 L 342.261719 667.15625 L 343.070312 660.675781 L 342.445312 654.195312 L 340.363281 647.714844 L 337.980469 643.363281 L 336.867188 641.234375 L 332.082031 634.753906 L 331.5 634.136719 L 326.15625 628.273438 L 325.019531 627.234375 L 319.21875 621.792969 L 318.539062 621.234375 L 312.058594 615.742188 L 311.574219 615.3125 L 305.578125 610.488281 L 303.617188 608.832031 L 299.097656 605.230469 L 295.714844 602.351562 L 292.617188 599.792969 L 288.257812 595.871094 L 286.136719 593.96875 L 281.546875 589.390625 L 279.65625 587.460938 L 275.710938 582.910156 L 273.179688 579.839844 L 270.71875 576.429688 L 266.699219 570.414062 L 266.429688 569.949219 L 262.953125 563.46875 L 260.21875 557.8125 L 259.875 556.988281 L 257.382812 550.507812 L 255.121094 544.027344 L 253.738281 539.761719 L 253.117188 537.546875 L 251.394531 531.066406 L 249.742188 524.585938 L 248.125 518.105469 L 247.257812 514.652344 L 246.59375 511.625 L 245.144531 505.144531 L 243.648438 498.664062 L 242.082031 492.183594 L 240.777344 487.046875 L 240.472656 485.703125 L 238.941406 479.222656 L 237.320312 472.742188 L 235.59375 466.261719 L 234.296875 461.625 L 233.835938 459.78125 L 232.152344 453.300781 L 230.382812 446.820312 L 228.535156 440.34375 L 227.816406 437.855469 L 226.773438 433.863281 L 225.050781 427.382812 L 223.292969 420.902344 L 221.511719 414.421875 L 221.335938 413.769531 L 219.921875 407.941406 L 218.355469 401.460938 L 216.800781 394.980469 L 215.261719 388.5 L 214.855469 386.714844 L 213.890625 382.019531 L 212.597656 375.539062 L 211.339844 369.058594 L 210.117188 362.578125 L 208.941406 356.097656 L 208.375 352.78125 L 207.886719 349.617188 L 206.949219 343.136719 L 206.082031 336.65625 L 205.289062 330.175781 L 204.59375 323.695312 L 204.003906 317.214844 L 203.542969 310.734375 L 203.226562 304.253906 L 203.066406 297.773438 L 203.074219 291.292969 L 203.25 284.8125 L 203.597656 278.332031 L 204.105469 271.851562 L 204.769531 265.371094 L 205.578125 258.890625 L 206.511719 252.410156 L 207.558594 245.929688 L 208.375 241.339844 L 208.742188 239.449219 L 210.125 232.96875 L 211.597656 226.488281 L 213.171875 220.007812 L 214.84375 213.527344 L 214.855469 213.484375 L 216.832031 207.046875 L 218.960938 200.566406 L 221.257812 194.085938 L 221.335938 193.894531 L 224.066406 187.605469 L 227.160156 181.125 L 227.816406 179.886719 L 231.007812 174.644531 L 234.296875 169.871094 L 235.691406 168.164062 L 240.777344 162.773438 L 242.066406 161.683594 L 247.257812 157.929688 L 252.460938 155.207031 L 253.738281 154.636719 L 260.21875 152.703125 L 266.699219 151.65625 L 273.179688 151.300781 L 279.65625 151.480469 L 286.136719 152.042969 L 292.617188 152.875 L 299.097656 153.882812 L 305.578125 154.996094 L 306.6875 155.207031 L 312.058594 156.300781 L 318.539062 157.648438 L 325.019531 158.972656 L 331.5 160.257812 L 337.980469 161.484375 L 339.0625 161.683594 L 344.460938 162.804688 L 350.941406 164.082031 L 357.421875 165.273438 L 363.902344 166.386719 L 370.382812 167.425781 L 375.320312 168.164062 L 376.863281 168.429688 L 383.34375 169.496094 L 389.824219 170.492188 L 396.304688 171.425781 L 402.785156 172.3125 L 409.265625 173.160156 L 415.746094 173.976562 L 421.117188 174.644531 L 422.226562 174.808594 L 428.707031 175.765625 L 435.1875 176.738281 L 441.667969 177.75 L 448.148438 178.820312 L 454.628906 179.980469 L 460.441406 181.125 L 461.109375 181.28125 L 467.589844 182.988281 L 474.070312 184.910156 L 480.550781 187.089844 L 481.890625 187.605469 L 487.03125 189.976562 L 493.511719 193.390625 L 494.671875 194.085938 L 499.992188 197.929688 L 503.214844 200.566406 L 506.472656 203.757812 L 509.449219 207.046875 L 512.953125 211.632812 L 514.246094 213.527344 L 518.035156 220.007812 L 519.433594 222.761719 L 521.148438 226.488281 L 523.800781 232.96875 L 525.914062 238.613281 L 526.199219 239.449219 L 528.25 245.929688 L 530.21875 252.410156 L 532.140625 258.890625 L 532.394531 259.777344 L 533.882812 265.371094 L 535.605469 271.851562 L 537.335938 278.332031 L 538.875 284.066406 L 539.0625 284.8125 L 540.660156 291.292969 L 543.886719 304.253906 L 545.355469 310.152344 L 545.492188 310.734375 L 546.96875 317.214844 L 551.386719 336.65625 L 551.835938 338.660156 L 552.792969 343.136719 L 554.1875 349.617188 L 555.617188 356.097656 L 557.109375 362.578125 L 558.316406 367.597656 L 558.65625 369.058594 L 560.230469 375.539062 L 561.9375 382.019531 L 563.800781 388.5 L 564.792969 391.703125 L 565.808594 394.980469 L 567.980469 401.460938 L 570.402344 407.941406 L 571.273438 410.113281 L 573.039062 414.421875 L 575.941406 420.902344 L 577.753906 424.640625 L 579.136719 427.382812 L 582.632812 433.863281 L 584.234375 436.664062 L 586.464844 440.34375 L 590.648438 446.820312 L 590.714844 446.929688 L 595.222656 453.300781 L 597.195312 456.007812 L 600.230469 459.78125 L 603.675781 464.019531 L 605.726562 466.261719 L 610.15625 471.132812 L 611.847656 472.742188 L 616.636719 477.410156 L 618.84375 479.222656 L 623.117188 482.859375 L 627.253906 485.703125 L 629.597656 487.394531 L 636.078125 491.046875 L 638.820312 492.183594 L 642.558594 493.835938 L 649.039062 495.757812 L 655.519531 496.816406 L 662 497.113281 L 668.480469 496.726562 L 674.960938 495.6875 L 681.441406 494.019531 L 686.617188 492.183594 L 687.921875 491.761719 "/>
<path style="fill:none;stroke-width:0.425197;stroke-linecap:butt;stroke-linejoin:round;stroke:rgb(7.45098%,16.862745%,26.27451%);stroke-opacity:1;stroke-miterlimit:1;" d="M 513.425781 673.636719 L 512.953125 673.199219 L 507.21875 667.15625 L 506.472656 665.425781 L 504.582031 660.675781 L 504.777344 654.195312 L 506.472656 650.078125 L 507.445312 647.714844 L 512.320312 641.234375 L 512.953125 640.636719 L 519.253906 634.753906 L 519.433594 634.621094 L 525.914062 629.925781 L 528.28125 628.273438 L 532.394531 625.820312 L 538.875 622.152344 L 539.570312 621.792969 L 545.355469 619.109375 L 551.835938 616.398438 L 554.910156 615.3125 L 558.316406 614.179688 L 564.792969 612.496094 L 571.273438 611.355469 L 577.753906 610.898438 L 584.234375 611.332031 L 590.714844 612.921875 L 595.738281 615.3125 L 597.195312 616.199219 L 603.0625 621.792969 L 603.675781 622.648438 L 606.675781 628.273438 L 608.558594 634.753906 L 609.054688 641.234375 L 608.277344 647.714844 L 606.285156 654.195312 L 603.675781 659.429688 L 602.984375 660.675781 L 597.90625 667.15625 L 597.195312 667.855469 L 590.714844 673.386719 L 590.375 673.636719 "/>
<path style="fill:none;stroke-width:0.425197;stroke-linecap:butt;stroke-linejoin:round;stroke:rgb(9.803922%,21.568627%,32.54902%);stroke-opacity:1;stroke-miterlimit:1;" d="M 206.003906 673.636719 L 208.375 671.125 L 211.839844 667.15625 L 214.855469 662.085938 L 215.636719 660.675781 L 217.855469 654.195312 L 218.859375 647.714844 L 218.984375 641.234375 L 218.523438 634.753906 L 217.726562 628.273438 L 216.789062 621.792969 L 215.847656 615.3125 L 215.007812 608.832031 L 214.855469 607.453125 L 214.351562 602.351562 L 213.875 595.871094 L 213.566406 589.390625 L 213.40625 582.910156 L 213.359375 576.429688 L 213.398438 569.949219 L 213.480469 563.46875 L 213.574219 556.988281 L 213.652344 550.507812 L 213.683594 544.027344 L 213.652344 537.546875 L 213.53125 531.066406 L 213.308594 524.585938 L 212.976562 518.105469 L 212.515625 511.625 L 211.925781 505.144531 L 211.199219 498.664062 L 210.332031 492.183594 L 209.320312 485.703125 L 208.375 480.398438 L 208.183594 479.222656 L 207.007812 472.742188 L 205.710938 466.261719 L 204.292969 459.78125 L 202.761719 453.300781 L 201.894531 449.835938 L 201.199219 446.820312 L 199.640625 440.34375 L 198.015625 433.863281 L 196.328125 427.382812 L 195.414062 423.929688 L 194.671875 420.902344 L 193.078125 414.421875 L 191.464844 407.941406 L 189.84375 401.460938 L 188.933594 397.796875 L 188.285156 394.980469 L 186.8125 388.5 L 185.351562 382.019531 L 183.894531 375.539062 L 182.453125 369.078125 L 182.449219 369.058594 L 181.140625 362.578125 L 179.847656 356.097656 L 178.570312 349.617188 L 177.316406 343.136719 L 176.097656 336.65625 L 175.972656 335.933594 L 175.015625 330.175781 L 174.007812 323.695312 L 173.078125 317.214844 L 172.25 310.734375 L 171.550781 304.253906 L 170.992188 297.773438 L 170.597656 291.292969 L 170.378906 284.8125 L 170.34375 278.332031 L 170.496094 271.851562 L 170.832031 265.371094 L 171.335938 258.890625 L 172.003906 252.410156 L 172.816406 245.929688 L 173.761719 239.449219 L 174.816406 232.96875 L 175.972656 226.492188 L 175.972656 226.488281 L 177.296875 220.007812 L 178.707031 213.527344 L 180.199219 207.046875 L 181.761719 200.566406 L 182.453125 197.851562 L 183.464844 194.085938 L 185.296875 187.605469 L 187.203125 181.125 L 188.933594 175.496094 L 189.214844 174.644531 L 191.445312 168.164062 L 193.777344 161.683594 L 195.414062 157.332031 L 196.289062 155.207031 L 199.074219 148.726562 L 201.894531 142.5 L 202.023438 142.246094 L 205.496094 135.765625 L 208.375 130.742188 L 209.367188 129.285156 L 214.109375 122.804688 L 214.855469 121.847656 L 220.519531 116.324219 L 221.335938 115.59375 L 227.816406 111.601562 L 233 109.84375 L 234.296875 109.441406 L 240.777344 108.679688 L 247.257812 108.949219 L 252.957031 109.84375 L 253.738281 109.953125 L 260.21875 111.488281 L 266.699219 113.363281 L 273.179688 115.433594 L 275.710938 116.324219 L 279.65625 117.664062 L 286.136719 119.957031 L 292.617188 122.21875 L 294.265625 122.804688 L 299.097656 124.515625 L 305.578125 126.746094 L 312.058594 128.847656 L 313.429688 129.285156 L 318.539062 130.953125 L 325.019531 132.941406 L 331.5 134.785156 L 335.164062 135.765625 L 337.980469 136.558594 L 344.460938 138.28125 L 350.941406 139.863281 L 357.421875 141.308594 L 361.96875 142.246094 L 363.902344 142.675781 L 370.382812 144.03125 L 376.863281 145.269531 L 383.34375 146.402344 L 389.824219 147.4375 L 396.304688 148.386719 L 398.757812 148.726562 L 402.785156 149.339844 L 409.265625 150.257812 L 415.746094 151.117188 L 422.226562 151.921875 L 428.707031 152.6875 L 435.1875 153.429688 L 441.667969 154.152344 L 448.148438 154.882812 L 450.953125 155.207031 L 454.628906 155.6875 L 461.109375 156.582031 L 467.589844 157.539062 L 474.070312 158.578125 L 480.550781 159.734375 L 487.03125 161.027344 L 489.9375 161.683594 L 493.511719 162.621094 L 499.992188 164.550781 L 506.472656 166.757812 L 510.105469 168.164062 L 512.953125 169.460938 L 519.433594 172.800781 L 522.59375 174.644531 L 525.914062 176.933594 L 531.339844 181.125 L 532.394531 182.09375 L 537.824219 187.605469 L 538.875 188.871094 L 542.835938 194.085938 L 545.355469 197.972656 L 546.90625 200.566406 L 550.257812 207.046875 L 551.835938 210.507812 L 553.125 213.527344 L 555.613281 220.007812 L 557.917969 226.488281 L 558.316406 227.675781 L 560 232.96875 L 562 239.449219 L 563.984375 245.929688 L 564.792969 248.597656 L 565.917969 252.410156 L 567.847656 258.890625 L 569.824219 265.371094 L 571.273438 270.03125 L 571.832031 271.851562 L 573.832031 278.332031 L 575.890625 284.8125 L 577.753906 290.546875 L 577.996094 291.292969 L 580.082031 297.773438 L 582.214844 304.253906 L 584.234375 310.277344 L 584.390625 310.734375 L 586.554688 317.214844 L 588.773438 323.695312 L 590.714844 329.238281 L 591.050781 330.175781 L 593.371094 336.65625 L 595.792969 343.136719 L 597.195312 346.761719 L 598.339844 349.617188 L 601.042969 356.097656 L 603.675781 361.988281 L 603.957031 362.578125 L 607.152344 369.058594 L 610.15625 374.644531 L 610.675781 375.539062 L 614.675781 382.019531 L 616.636719 384.957031 L 619.257812 388.5 L 623.117188 393.328125 L 624.617188 394.980469 L 629.597656 400.121094 L 631.121094 401.460938 L 636.078125 405.609375 L 639.472656 407.941406 L 642.558594 409.984375 L 649.039062 413.386719 L 651.660156 414.421875 L 655.519531 415.925781 L 662 417.667969 L 668.480469 418.648438 L 674.960938 418.917969 L 681.441406 418.5 L 687.921875 417.398438 "/>
<path style="fill:none;stroke-width:0.425197;stroke-linecap:butt;stroke-linejoin:round;stroke:rgb(12.156863%,26.27451%,39.215686%);stroke-opacity:1;stroke-miterlimit:1;" d="M 129.488281 32.078125 L 130.609375 32.441406 L 137.089844 34.855469 L 143.570312 37.683594 L 145.398438 38.558594 L 150.050781 41.050781 L 156.53125 44.953125 L 156.667969 45.039062 L 163.011719 49.761719 L 165.230469 51.519531 L 169.492188 55.773438 L 171.640625 58 L 175.972656 64.1875 L 176.175781 64.480469 L 179.300781 70.960938 L 181.042969 77.441406 L 181.789062 83.921875 L 181.8125 90.402344 L 181.296875 96.882812 L 180.382812 103.363281 L 179.167969 109.84375 L 177.722656 116.324219 L 176.105469 122.804688 L 175.972656 123.277344 L 174.4375 129.285156 L 172.679688 135.765625 L 170.855469 142.246094 L 169.492188 146.941406 L 169 148.726562 L 167.171875 155.207031 L 165.339844 161.683594 L 163.507812 168.164062 L 163.011719 169.945312 L 161.738281 174.644531 L 160.019531 181.125 L 158.339844 187.605469 L 156.710938 194.085938 L 156.53125 194.839844 L 155.183594 200.566406 L 153.726562 207.046875 L 152.347656 213.527344 L 151.058594 220.007812 L 150.050781 225.5 L 149.875 226.488281 L 148.824219 232.96875 L 147.902344 239.449219 L 147.128906 245.929688 L 146.515625 252.410156 L 146.082031 258.890625 L 145.84375 265.371094 L 145.808594 271.851562 L 145.980469 278.332031 L 146.359375 284.8125 L 146.933594 291.292969 L 147.6875 297.773438 L 148.601562 304.253906 L 149.652344 310.734375 L 150.050781 312.917969 L 150.847656 317.214844 L 152.148438 323.695312 L 153.511719 330.175781 L 154.917969 336.65625 L 156.34375 343.136719 L 156.53125 343.953125 L 157.855469 349.617188 L 159.375 356.097656 L 160.886719 362.578125 L 162.390625 369.058594 L 163.011719 371.722656 L 163.941406 375.539062 L 165.519531 382.019531 L 167.09375 388.5 L 168.65625 394.980469 L 169.492188 398.429688 L 170.261719 401.460938 L 171.917969 407.941406 L 173.550781 414.421875 L 175.15625 420.902344 L 175.972656 424.230469 L 176.789062 427.382812 L 178.429688 433.863281 L 180 440.34375 L 181.496094 446.820312 L 182.453125 451.234375 L 182.929688 453.300781 L 184.324219 459.78125 L 185.589844 466.261719 L 186.710938 472.742188 L 187.683594 479.222656 L 188.492188 485.703125 L 188.933594 490.195312 L 189.144531 492.183594 L 189.640625 498.664062 L 189.9375 505.144531 L 190.023438 511.625 L 189.902344 518.105469 L 189.554688 524.585938 L 188.984375 531.066406 L 188.933594 531.503906 L 188.222656 537.546875 L 187.238281 544.027344 L 186.011719 550.507812 L 184.550781 556.988281 L 182.839844 563.46875 L 182.453125 564.820312 L 180.933594 569.949219 L 178.789062 576.429688 L 176.378906 582.910156 L 175.972656 583.972656 L 173.746094 589.390625 L 170.824219 595.871094 L 169.492188 598.691406 L 167.59375 602.351562 L 164 608.832031 L 163.011719 610.554688 L 159.933594 615.3125 L 156.53125 620.199219 L 155.253906 621.792969 L 150.050781 627.933594 L 149.710938 628.273438 L 143.570312 634.152344 L 142.808594 634.753906 L 137.089844 639.097656 L 133.5625 641.234375 L 130.609375 642.957031 L 124.128906 645.945312 L 118.945312 647.714844 L 117.648438 648.148438 L 111.167969 649.699219 L 104.6875 650.613281 L 98.207031 650.921875 L 91.726562 650.648438 L 85.246094 649.792969 L 78.765625 648.34375 L 76.789062 647.714844 L 72.285156 646.371094 L 65.804688 643.832031 L 60.507812 641.234375 L 59.324219 640.699219 L 52.84375 637.148438 L 49.152344 634.753906 L 46.363281 633.09375 "/>
<path style="fill:none;stroke-width:0.425197;stroke-linecap:butt;stroke-linejoin:round;stroke:rgb(12.156863%,26.27451%,39.215686%);stroke-opacity:1;stroke-miterlimit:1;" d="M 46.363281 34.988281 L 52.84375 32.484375 L 54.105469 32.078125 "/>
<path style="fill:none;stroke-width:0.425197;stroke-linecap:butt;stroke-linejoin:round;stroke:rgb(12.156863%,26.27451%,39.215686%);stroke-opacity:1;stroke-miterlimit:1;" d="M 687.921875 365.285156 L 681.441406 366.292969 L 674.960938 366.269531 L 668.480469 365.191406 L 662 363.023438 L 661.113281 362.578125 L 655.519531 359.667969 L 650.476562 356.097656 L 649.039062 355.035156 L 643.203125 349.617188 L 642.558594 348.992188 L 637.511719 343.136719 L 636.078125 341.402344 L 632.679688 336.65625 L 629.597656 332.175781 L 628.371094 330.175781 L 624.503906 323.695312 L 623.117188 321.3125 L 620.933594 317.214844 L 617.570312 310.734375 L 616.636719 308.914062 L 614.410156 304.253906 L 611.378906 297.773438 L 610.15625 295.128906 L 608.476562 291.292969 L 605.695312 284.8125 L 603.675781 279.984375 L 603.011719 278.332031 L 600.445312 271.851562 L 597.96875 265.371094 L 597.195312 263.300781 L 595.589844 258.890625 L 593.300781 252.410156 L 591.089844 245.929688 L 590.714844 244.816406 L 588.929688 239.449219 L 586.808594 232.96875 L 584.695312 226.488281 L 584.234375 225.121094 L 582.515625 220.007812 L 580.242188 213.527344 L 577.8125 207.046875 L 577.753906 206.90625 L 575.078125 200.566406 L 572.003906 194.085938 L 571.273438 192.742188 L 568.363281 187.605469 L 564.792969 182.203125 L 564.042969 181.125 L 558.714844 174.644531 L 558.316406 174.230469 L 551.988281 168.164062 L 551.835938 168.039062 L 545.355469 163.195312 L 543.121094 161.683594 L 538.875 159.226562 L 532.394531 155.886719 L 530.914062 155.207031 L 525.914062 153.210938 L 519.433594 150.941406 L 512.953125 148.953125 L 512.113281 148.726562 L 506.472656 147.382812 L 499.992188 146.03125 L 493.511719 144.84375 L 487.03125 143.789062 L 480.550781 142.847656 L 476.015625 142.246094 L 474.070312 142.011719 L 467.589844 141.296875 L 461.109375 140.617188 L 454.628906 139.957031 L 448.148438 139.300781 L 441.667969 138.632812 L 435.1875 137.9375 L 428.707031 137.203125 L 422.226562 136.417969 L 417.234375 135.765625 L 415.746094 135.585938 L 409.265625 134.75 L 402.785156 133.835938 L 396.304688 132.832031 L 389.824219 131.730469 L 383.34375 130.511719 L 377.390625 129.285156 L 376.863281 129.179688 L 370.382812 127.824219 L 363.902344 126.328125 L 357.421875 124.675781 L 350.941406 122.855469 L 350.769531 122.804688 L 344.460938 120.980469 L 337.980469 118.921875 L 331.5 116.648438 L 330.613281 116.324219 L 325.019531 114.269531 L 318.539062 111.675781 L 314.273438 109.84375 L 312.058594 108.867188 L 305.578125 105.871094 L 300.527344 103.363281 L 299.097656 102.613281 L 292.617188 99.121094 L 288.664062 96.882812 L 286.136719 95.328125 L 279.65625 91.214844 L 278.375 90.402344 L 273.179688 86.675781 L 269.382812 83.921875 L 266.699219 81.632812 L 261.738281 77.441406 L 260.21875 75.851562 L 255.382812 70.960938 L 253.738281 68.742188 L 250.390625 64.480469 L 247.257812 58.464844 L 246.992188 58 L 244.761719 51.519531 L 243.9375 45.039062 L 244.242188 38.558594 L 245.523438 32.078125 "/>
<path style="fill:none;stroke-width:0.425197;stroke-linecap:butt;stroke-linejoin:round;stroke:rgb(14.901961%,31.372549%,45.882353%);stroke-opacity:1;stroke-miterlimit:1;" d="M 46.363281 61.671875 L 52.84375 58.425781 L 53.886719 58 L 59.324219 55.871094 L 65.804688 53.894531 L 72.285156 52.464844 L 78.765625 51.5625 L 79.535156 51.519531 L 85.246094 51.199219 L 91.726562 51.355469 L 93.328125 51.519531 L 98.207031 52.054688 L 104.6875 53.34375 L 111.167969 55.246094 L 117.648438 57.816406 L 118.027344 58 L 124.128906 61.367188 L 128.699219 64.480469 L 130.609375 66.023438 L 135.808594 70.960938 L 137.089844 72.480469 L 140.773438 77.441406 L 143.570312 82.5 L 144.285156 83.921875 L 146.65625 90.402344 L 148.164062 96.882812 L 148.980469 103.363281 L 149.238281 109.84375 L 149.042969 116.324219 L 148.484375 122.804688 L 147.636719 129.285156 L 146.550781 135.765625 L 145.285156 142.246094 L 143.875 148.726562 L 143.570312 150.023438 L 142.355469 155.207031 L 140.765625 161.683594 L 139.140625 168.164062 L 137.5 174.644531 L 137.089844 176.261719 L 135.847656 181.125 L 134.226562 187.605469 L 132.652344 194.085938 L 131.148438 200.566406 L 130.609375 203 L 129.699219 207.046875 L 128.34375 213.527344 L 127.105469 220.007812 L 125.996094 226.488281 L 125.039062 232.96875 L 124.253906 239.449219 L 124.128906 240.789062 L 123.644531 245.929688 L 123.25 252.410156 L 123.085938 258.890625 L 123.164062 265.371094 L 123.492188 271.851562 L 124.070312 278.332031 L 124.128906 278.804688 L 124.871094 284.8125 L 125.894531 291.292969 L 127.113281 297.773438 L 128.496094 304.253906 L 130.015625 310.734375 L 130.609375 313.066406 L 131.644531 317.214844 L 133.347656 323.695312 L 135.09375 330.175781 L 136.859375 336.65625 L 137.089844 337.480469 L 138.65625 343.136719 L 140.445312 349.617188 L 142.207031 356.097656 L 143.570312 361.167969 L 143.953125 362.578125 L 145.710938 369.058594 L 147.4375 375.539062 L 149.132812 382.019531 L 150.050781 385.535156 L 150.839844 388.5 L 152.558594 394.980469 L 154.257812 401.460938 L 155.929688 407.941406 L 156.53125 410.285156 L 157.625 414.421875 L 159.316406 420.902344 L 160.957031 427.382812 L 162.539062 433.863281 L 163.011719 435.878906 L 164.101562 440.34375 L 165.597656 446.820312 L 166.980469 453.300781 L 168.238281 459.78125 L 169.351562 466.261719 L 169.492188 467.21875 L 170.351562 472.742188 L 171.167969 479.222656 L 171.789062 485.703125 L 172.1875 492.183594 L 172.355469 498.664062 L 172.277344 505.144531 L 171.929688 511.625 L 171.296875 518.105469 L 170.359375 524.585938 L 169.492188 529.09375 L 169.109375 531.066406 L 167.539062 537.546875 L 165.589844 544.027344 L 163.230469 550.507812 L 163.011719 551.046875 L 160.460938 556.988281 L 157.199219 563.46875 L 156.53125 564.683594 L 153.386719 569.949219 L 150.050781 574.929688 L 148.933594 576.429688 L 143.695312 582.910156 L 143.570312 583.058594 L 137.402344 589.390625 L 137.089844 589.699219 L 130.609375 595.152344 L 129.578125 595.871094 L 124.128906 599.636719 L 119.140625 602.351562 L 117.648438 603.175781 L 111.167969 606.015625 L 104.6875 608.058594 L 101.09375 608.832031 L 98.207031 609.484375 L 91.726562 610.332031 L 85.246094 610.578125 L 78.765625 610.257812 L 72.285156 609.390625 L 69.714844 608.832031 L 65.804688 608.070312 L 59.324219 606.316406 L 52.84375 604.046875 L 48.914062 602.351562 L 46.363281 601.34375 "/>
<path style="fill:none;stroke-width:0.425197;stroke-linecap:butt;stroke-linejoin:round;stroke:rgb(14.901961%,31.372549%,45.882353%);stroke-opacity:1;stroke-miterlimit:1;" d="M 687.921875 309.765625 L 684.085938 310.734375 L 681.441406 311.386719 L 674.960938 311.4375 L 671.824219 310.734375 L 668.480469 309.988281 L 662 307.058594 L 657.867188 304.253906 L 655.519531 302.660156 L 650.117188 297.773438 L 649.039062 296.792969 L 644.164062 291.292969 L 642.558594 289.464844 L 639.117188 284.8125 L 636.078125 280.636719 L 634.617188 278.332031 L 630.582031 271.851562 L 629.597656 270.234375 L 626.945312 265.371094 L 623.53125 258.890625 L 623.117188 258.089844 L 620.449219 252.410156 L 617.519531 245.929688 L 616.636719 243.925781 L 614.800781 239.449219 L 612.222656 232.96875 L 610.15625 227.667969 L 609.71875 226.488281 L 607.316406 220.007812 L 604.886719 213.527344 L 603.675781 210.421875 L 602.398438 207.046875 L 599.777344 200.566406 L 597.195312 194.734375 L 596.910156 194.085938 L 593.726562 187.605469 L 590.714844 182.269531 L 590.0625 181.125 L 585.777344 174.644531 L 584.234375 172.648438 L 580.652344 168.164062 L 577.753906 165.078125 L 574.402344 161.683594 L 571.273438 158.976562 L 566.601562 155.207031 L 564.792969 153.949219 L 558.316406 149.792969 L 556.488281 148.726562 L 551.835938 146.351562 L 545.355469 143.394531 L 542.535156 142.246094 L 538.875 140.921875 L 532.394531 138.847656 L 525.914062 137.03125 L 520.742188 135.765625 L 519.433594 135.476562 L 512.953125 134.214844 L 506.472656 133.113281 L 499.992188 132.148438 L 493.511719 131.292969 L 487.03125 130.523438 L 480.550781 129.824219 L 475.21875 129.285156 L 474.070312 129.175781 L 467.589844 128.597656 L 461.109375 128.03125 L 454.628906 127.457031 L 448.148438 126.863281 L 441.667969 126.234375 L 435.1875 125.5625 L 428.707031 124.835938 L 422.226562 124.039062 L 415.746094 123.164062 L 413.300781 122.804688 L 409.265625 122.238281 L 402.785156 121.242188 L 396.304688 120.136719 L 389.824219 118.914062 L 383.34375 117.554688 L 378.011719 116.324219 L 376.863281 116.0625 L 370.382812 114.484375 L 363.902344 112.734375 L 357.421875 110.789062 L 354.511719 109.84375 L 350.941406 108.679688 L 344.460938 106.382812 L 337.980469 103.835938 L 336.847656 103.363281 L 331.5 101.0625 L 325.019531 97.996094 L 322.816406 96.882812 L 318.539062 94.597656 L 312.058594 90.828125 L 311.355469 90.402344 L 305.578125 86.566406 L 301.847656 83.921875 L 299.097656 81.71875 L 294.003906 77.441406 L 292.617188 76.074219 L 287.582031 70.960938 L 286.136719 69.15625 L 282.4375 64.480469 L 279.65625 59.851562 L 278.535156 58 L 275.710938 51.519531 L 273.996094 45.039062 L 273.269531 38.558594 L 273.449219 32.078125 "/>
<path style="fill:none;stroke-width:0.425197;stroke-linecap:butt;stroke-linejoin:round;stroke:rgb(17.254902%,36.470588%,52.54902%);stroke-opacity:1;stroke-miterlimit:1;" d="M 46.363281 580.253906 L 52.84375 582.429688 L 54.699219 582.910156 L 59.324219 584.191406 L 65.804688 585.464844 L 72.285156 586.226562 L 78.765625 586.46875 L 85.246094 586.171875 L 91.726562 585.300781 L 98.207031 583.796875 L 100.882812 582.910156 L 104.6875 581.660156 L 111.167969 578.804688 L 115.351562 576.429688 L 117.648438 575.09375 L 124.128906 570.421875 L 124.683594 569.949219 L 130.609375 564.589844 L 131.667969 563.46875 L 137.089844 557.203125 L 137.253906 556.988281 L 141.777344 550.507812 L 143.570312 547.546875 L 145.519531 544.027344 L 148.59375 537.546875 L 150.050781 533.871094 L 151.101562 531.066406 L 153.109375 524.585938 L 154.664062 518.105469 L 155.8125 511.625 L 156.53125 505.660156 L 156.59375 505.144531 L 157.046875 498.664062 L 157.183594 492.183594 L 157.035156 485.703125 L 156.625 479.222656 L 156.53125 478.308594 L 155.988281 472.742188 L 155.144531 466.261719 L 154.113281 459.78125 L 152.914062 453.300781 L 151.5625 446.820312 L 150.085938 440.34375 L 150.050781 440.199219 L 148.546875 433.863281 L 146.921875 427.382812 L 145.226562 420.902344 L 143.570312 414.789062 L 143.472656 414.421875 L 141.714844 407.941406 L 139.917969 401.460938 L 138.082031 394.980469 L 137.089844 391.519531 L 136.222656 388.5 L 134.347656 382.019531 L 132.425781 375.539062 L 130.609375 369.5625 L 130.453125 369.058594 L 128.445312 362.578125 L 126.375 356.097656 L 124.25 349.617188 L 124.128906 349.242188 L 122.0625 343.136719 L 119.828125 336.65625 L 117.648438 330.410156 L 117.5625 330.175781 L 115.242188 323.695312 L 112.9375 317.214844 L 111.167969 312.085938 L 110.667969 310.734375 L 108.417969 304.253906 L 106.300781 297.773438 L 104.6875 292.363281 L 104.335938 291.292969 L 102.496094 284.8125 L 100.917969 278.332031 L 99.632812 271.851562 L 98.664062 265.371094 L 98.207031 260.785156 L 97.996094 258.890625 L 97.636719 252.410156 L 97.632812 245.929688 L 97.960938 239.449219 L 98.207031 236.917969 L 98.5625 232.96875 L 99.394531 226.488281 L 100.464844 220.007812 L 101.742188 213.527344 L 103.203125 207.046875 L 104.6875 201.136719 L 104.820312 200.566406 L 106.414062 194.085938 L 108.101562 187.605469 L 109.859375 181.125 L 111.167969 176.390625 L 111.617188 174.644531 L 113.257812 168.164062 L 114.855469 161.683594 L 116.367188 155.207031 L 117.648438 149.136719 L 117.730469 148.726562 L 118.804688 142.246094 L 119.621094 135.765625 L 120.097656 129.285156 L 120.148438 122.804688 L 119.65625 116.324219 L 118.492188 109.84375 L 117.648438 107.03125 L 116.355469 103.363281 L 112.9375 96.882812 L 111.167969 94.441406 L 107.476562 90.402344 L 104.6875 88.03125 L 98.207031 84.023438 L 97.960938 83.921875 L 91.726562 81.75 L 85.246094 80.582031 L 78.765625 80.394531 L 72.285156 81.125 L 65.804688 82.726562 L 62.675781 83.921875 L 59.324219 85.3125 L 52.84375 88.9375 L 50.761719 90.402344 L 46.363281 93.828125 "/>
<path style="fill:none;stroke-width:0.425197;stroke-linecap:butt;stroke-linejoin:round;stroke:rgb(17.254902%,36.470588%,52.54902%);stroke-opacity:1;stroke-miterlimit:1;" d="M 687.921875 248.566406 L 681.441406 252.363281 L 681.238281 252.410156 L 674.960938 253.761719 L 668.480469 253.070312 L 666.878906 252.410156 L 662 250.371094 L 655.78125 245.929688 L 655.519531 245.738281 L 649.398438 239.449219 L 649.039062 239.070312 L 644.515625 232.96875 L 642.558594 230.265625 L 640.292969 226.488281 L 636.472656 220.007812 L 636.078125 219.339844 L 633.125 213.527344 L 629.777344 207.046875 L 629.597656 206.710938 L 626.644531 200.566406 L 623.300781 194.085938 L 623.117188 193.761719 L 619.910156 187.605469 L 616.636719 182.050781 L 616.121094 181.125 L 611.976562 174.644531 L 610.15625 172.195312 L 607.234375 168.164062 L 603.675781 163.980469 L 601.730469 161.683594 L 597.195312 157.117188 L 595.257812 155.207031 L 590.714844 151.351562 L 587.492188 148.726562 L 584.234375 146.425781 L 577.929688 142.246094 L 577.753906 142.144531 L 571.273438 138.585938 L 565.605469 135.765625 L 564.792969 135.40625 L 558.316406 132.761719 L 551.835938 130.410156 L 548.351562 129.285156 L 545.355469 128.402344 L 538.875 126.714844 L 532.394531 125.238281 L 525.914062 123.957031 L 519.433594 122.84375 L 519.164062 122.804688 L 512.953125 121.933594 L 506.472656 121.140625 L 499.992188 120.441406 L 493.511719 119.816406 L 487.03125 119.246094 L 480.550781 118.710938 L 474.070312 118.195312 L 467.589844 117.6875 L 461.109375 117.164062 L 454.628906 116.613281 L 451.433594 116.324219 L 448.148438 116.039062 L 441.667969 115.433594 L 435.1875 114.765625 L 428.707031 114.027344 L 422.226562 113.203125 L 415.746094 112.285156 L 409.265625 111.261719 L 402.785156 110.121094 L 401.347656 109.84375 L 396.304688 108.882812 L 389.824219 107.519531 L 383.34375 105.996094 L 376.863281 104.296875 L 373.601562 103.363281 L 370.382812 102.429688 L 363.902344 100.371094 L 357.421875 98.082031 L 354.308594 96.882812 L 350.941406 95.53125 L 344.460938 92.699219 L 339.683594 90.402344 L 337.980469 89.527344 L 331.5 85.9375 L 328.144531 83.921875 L 325.019531 81.84375 L 318.902344 77.441406 L 318.539062 77.140625 L 312.058594 71.492188 L 311.476562 70.960938 L 305.601562 64.480469 L 305.578125 64.449219 L 301.046875 58 L 299.097656 54.207031 L 297.730469 51.519531 L 295.53125 45.039062 L 294.40625 38.558594 L 294.28125 32.078125 "/>
<path style="fill:none;stroke-width:0.425197;stroke-linecap:butt;stroke-linejoin:round;stroke:rgb(20%,41.568627%,59.607843%);stroke-opacity:1;stroke-miterlimit:1;" d="M 46.363281 274.476562 L 52.84375 273.378906 L 59.324219 275.136719 L 63.523438 278.332031 L 65.804688 279.863281 L 70.25 284.8125 L 72.285156 286.855469 L 75.464844 291.292969 L 78.765625 295.535156 L 80.136719 297.773438 L 84.386719 304.253906 L 85.246094 305.492188 L 88.285156 310.734375 L 91.726562 316.523438 L 92.082031 317.214844 L 95.542969 323.695312 L 98.207031 328.691406 L 98.917969 330.175781 L 102.035156 336.65625 L 104.6875 342.292969 L 105.054688 343.136719 L 107.84375 349.617188 L 110.535156 356.097656 L 111.167969 357.644531 L 113.0625 362.578125 L 115.480469 369.058594 L 117.648438 375.082031 L 117.804688 375.539062 L 120.015625 382.019531 L 122.15625 388.5 L 124.128906 394.632812 L 124.238281 394.980469 L 126.25 401.460938 L 128.207031 407.941406 L 130.109375 414.421875 L 130.609375 416.160156 L 131.957031 420.902344 L 133.726562 427.382812 L 135.414062 433.863281 L 136.996094 440.34375 L 137.089844 440.757812 L 138.464844 446.820312 L 139.785156 453.300781 L 140.933594 459.78125 L 141.878906 466.261719 L 142.601562 472.742188 L 143.070312 479.222656 L 143.257812 485.703125 L 143.128906 492.183594 L 142.648438 498.664062 L 141.777344 505.144531 L 140.46875 511.625 L 138.675781 518.105469 L 137.089844 522.5625 L 136.316406 524.585938 L 133.292969 531.066406 L 130.609375 535.789062 L 129.5 537.546875 L 124.710938 544.027344 L 124.128906 544.726562 L 118.542969 550.507812 L 117.648438 551.34375 L 111.167969 556.414062 L 110.269531 556.988281 L 104.6875 560.328125 L 98.207031 563.273438 L 97.640625 563.46875 L 91.726562 565.4375 L 85.246094 566.867188 L 78.765625 567.636719 L 72.285156 567.800781 L 65.804688 567.394531 L 59.324219 566.429688 L 52.84375 564.910156 L 48.351562 563.46875 L 46.363281 562.847656 "/>
<path style="fill:none;stroke-width:0.425197;stroke-linecap:butt;stroke-linejoin:round;stroke:rgb(20%,41.568627%,59.607843%);stroke-opacity:1;stroke-miterlimit:1;" d="M 687.921875 167.71875 L 687.558594 168.164062 L 682.335938 174.644531 L 681.441406 175.75 L 674.960938 180.570312 L 672.992188 181.125 L 668.480469 182.398438 L 662 181.558594 L 661.128906 181.125 L 655.519531 178.667969 L 649.796875 174.644531 L 649.039062 174.1875 L 642.558594 168.875 L 641.847656 168.164062 L 636.078125 163.242188 L 634.484375 161.683594 L 629.597656 157.621094 L 626.941406 155.207031 L 623.117188 152.230469 L 618.84375 148.726562 L 616.636719 147.167969 L 610.15625 142.480469 L 609.835938 142.246094 L 603.675781 138.300781 L 599.601562 135.765625 L 597.195312 134.441406 L 590.714844 130.992188 L 587.324219 129.285156 L 584.234375 127.886719 L 577.753906 125.140625 L 571.6875 122.804688 L 571.273438 122.660156 L 564.792969 120.539062 L 558.316406 118.65625 L 551.835938 116.992188 L 548.894531 116.324219 L 545.355469 115.570312 L 538.875 114.359375 L 532.394531 113.3125 L 525.914062 112.410156 L 519.433594 111.632812 L 512.953125 110.960938 L 506.472656 110.375 L 499.992188 109.855469 L 499.824219 109.84375 L 493.511719 109.394531 L 487.03125 108.96875 L 480.550781 108.550781 L 474.070312 108.136719 L 467.589844 107.699219 L 461.109375 107.238281 L 454.628906 106.730469 L 448.148438 106.167969 L 441.667969 105.535156 L 435.1875 104.828125 L 428.707031 104.027344 L 423.917969 103.363281 L 422.226562 103.128906 L 415.746094 102.132812 L 409.265625 101.011719 L 402.785156 99.75 L 396.304688 98.335938 L 390.339844 96.882812 L 389.824219 96.753906 L 383.34375 94.984375 L 376.863281 93.007812 L 370.382812 90.800781 L 369.296875 90.402344 L 363.902344 88.296875 L 357.421875 85.492188 L 354.101562 83.921875 L 350.941406 82.292969 L 344.460938 78.636719 L 342.503906 77.441406 L 337.980469 74.324219 L 333.484375 70.960938 L 331.5 69.214844 L 326.460938 64.480469 L 325.019531 62.800781 L 321.097656 58 L 318.539062 53.832031 L 317.167969 51.519531 L 314.53125 45.039062 L 313.097656 38.558594 L 312.796875 32.078125 "/>
<path style="fill:none;stroke-width:0.425197;stroke-linecap:butt;stroke-linejoin:round;stroke:rgb(22.745098%,47.058824%,66.666667%);stroke-opacity:1;stroke-miterlimit:1;" d="M 46.363281 546.78125 L 52.84375 548.816406 L 59.324219 550.210938 L 61.871094 550.507812 L 65.804688 550.972656 L 72.285156 551.078125 L 78.660156 550.507812 L 78.765625 550.5 L 85.246094 549.179688 L 91.726562 547.039062 L 98.089844 544.027344 L 98.207031 543.96875 L 104.6875 539.699219 L 107.285156 537.546875 L 111.167969 533.90625 L 113.699219 531.066406 L 117.648438 525.855469 L 118.484375 524.585938 L 122.070312 518.105469 L 124.128906 513.382812 L 124.824219 511.625 L 126.828125 505.144531 L 128.261719 498.664062 L 129.183594 492.183594 L 129.660156 485.703125 L 129.734375 479.222656 L 129.457031 472.742188 L 128.867188 466.261719 L 128.007812 459.78125 L 126.90625 453.300781 L 125.597656 446.820312 L 124.128906 440.414062 L 124.113281 440.34375 L 122.445312 433.863281 L 120.65625 427.382812 L 118.757812 420.902344 L 117.648438 417.269531 L 116.746094 414.421875 L 114.625 407.941406 L 112.425781 401.460938 L 111.167969 397.84375 L 110.117188 394.980469 L 107.675781 388.5 L 105.148438 382.019531 L 104.6875 380.867188 L 102.394531 375.539062 L 99.503906 369.058594 L 98.207031 366.238281 L 96.347656 362.578125 L 92.9375 356.097656 L 91.726562 353.863281 L 89.109375 349.617188 L 85.246094 343.550781 L 84.933594 343.136719 L 79.988281 336.65625 L 78.765625 335.078125 L 74.054688 330.175781 L 72.285156 328.339844 L 66.3125 323.695312 L 65.804688 323.296875 L 59.324219 319.867188 L 52.84375 318.148438 L 46.363281 318.054688 "/>
<path style="fill:none;stroke-width:0.425197;stroke-linecap:butt;stroke-linejoin:round;stroke:rgb(22.745098%,47.058824%,66.666667%);stroke-opacity:1;stroke-miterlimit:1;" d="M 687.921875 110.582031 L 684.457031 116.324219 L 681.441406 120.660156 L 679.5 122.804688 L 674.960938 127.347656 L 672.132812 129.285156 L 668.480469 131.636719 L 662 134.003906 L 655.519531 134.835938 L 649.039062 134.492188 L 642.558594 133.261719 L 636.078125 131.394531 L 630.210938 129.285156 L 629.597656 129.085938 L 623.117188 126.621094 L 616.636719 124.011719 L 613.777344 122.804688 L 610.15625 121.417969 L 603.675781 118.90625 L 597.195312 116.488281 L 596.746094 116.324219 L 590.714844 114.265625 L 584.234375 112.203125 L 577.753906 110.320312 L 576 109.84375 L 571.273438 108.636719 L 564.792969 107.144531 L 558.316406 105.832031 L 551.835938 104.6875 L 545.355469 103.699219 L 542.828125 103.363281 L 538.875 102.855469 L 532.394531 102.140625 L 525.914062 101.535156 L 519.433594 101.019531 L 512.953125 100.578125 L 506.472656 100.195312 L 499.992188 99.851562 L 493.511719 99.527344 L 487.03125 99.210938 L 480.550781 98.886719 L 474.070312 98.539062 L 467.589844 98.152344 L 461.109375 97.71875 L 454.628906 97.222656 L 450.773438 96.882812 L 448.148438 96.648438 L 441.667969 95.992188 L 435.1875 95.238281 L 428.707031 94.371094 L 422.226562 93.382812 L 415.746094 92.257812 L 409.265625 90.984375 L 406.613281 90.402344 L 402.785156 89.527344 L 396.304688 87.871094 L 389.824219 86.011719 L 383.34375 83.925781 L 383.335938 83.921875 L 376.863281 81.480469 L 370.382812 78.742188 L 367.578125 77.441406 L 363.902344 75.542969 L 357.421875 71.855469 L 355.972656 70.960938 L 350.941406 67.355469 L 347.257812 64.480469 L 344.460938 61.8125 L 340.726562 58 L 337.980469 54.324219 L 335.992188 51.519531 L 332.8125 45.039062 L 331.5 40.285156 L 331.035156 38.558594 L 330.59375 32.078125 "/>
<path style="fill:none;stroke-width:0.425197;stroke-linecap:butt;stroke-linejoin:round;stroke:rgb(22.745098%,47.058824%,66.666667%);stroke-opacity:1;stroke-miterlimit:1;" d="M 687.921875 45.089844 L 687.894531 45.039062 L 683.730469 38.558594 L 681.441406 35.632812 L 678.5 32.078125 "/>
<path style="fill:none;stroke-width:0.425197;stroke-linecap:butt;stroke-linejoin:round;stroke:rgb(25.490196%,52.54902%,74.117647%);stroke-opacity:1;stroke-miterlimit:1;" d="M 46.363281 349.105469 L 52.84375 349.339844 L 53.777344 349.617188 L 59.324219 351.28125 L 65.804688 354.960938 L 67.171875 356.097656 L 72.285156 360.460938 L 74.171875 362.578125 L 78.765625 367.898438 L 79.582031 369.058594 L 83.992188 375.539062 L 85.246094 377.445312 L 87.816406 382.019531 L 91.324219 388.5 L 91.726562 389.265625 L 94.390625 394.980469 L 97.300781 401.460938 L 98.207031 403.546875 L 99.949219 407.941406 L 102.425781 414.421875 L 104.6875 420.59375 L 104.792969 420.902344 L 106.898438 427.382812 L 108.867188 433.863281 L 110.679688 440.34375 L 111.167969 442.292969 L 112.242188 446.820312 L 113.5625 453.300781 L 114.625 459.78125 L 115.386719 466.261719 L 115.800781 472.742188 L 115.816406 479.222656 L 115.371094 485.703125 L 114.402344 492.183594 L 112.828125 498.664062 L 111.167969 503.472656 L 110.511719 505.144531 L 107.179688 511.625 L 104.6875 515.417969 L 102.582031 518.105469 L 98.207031 522.695312 L 95.929688 524.585938 L 91.726562 527.597656 L 85.246094 530.988281 L 85.027344 531.066406 L 78.765625 533.097656 L 72.285156 534.246094 L 65.804688 534.515625 L 59.324219 533.964844 L 52.84375 532.628906 L 48.0625 531.066406 L 46.363281 530.488281 "/>
<path style="fill:none;stroke-width:0.425197;stroke-linecap:butt;stroke-linejoin:round;stroke:rgb(25.490196%,52.54902%,74.117647%);stroke-opacity:1;stroke-miterlimit:1;" d="M 654.953125 32.078125 L 655.519531 32.621094 L 661.363281 38.558594 L 662 39.363281 L 666.242188 45.039062 L 668.480469 48.953125 L 669.875 51.519531 L 672.332031 58 L 673.777344 64.480469 L 674.199219 70.960938 L 673.558594 77.441406 L 671.773438 83.921875 L 668.738281 90.402344 L 668.480469 90.808594 L 663.472656 96.882812 L 662 98.265625 L 655.519531 102.519531 L 653.453125 103.363281 L 649.039062 104.898438 L 642.558594 106.019531 L 636.078125 106.257812 L 629.597656 105.867188 L 623.117188 105.039062 L 616.636719 103.929688 L 613.882812 103.363281 L 610.15625 102.628906 L 603.675781 101.246094 L 597.195312 99.859375 L 590.714844 98.515625 L 584.234375 97.253906 L 582.238281 96.882812 L 577.753906 96.066406 L 571.273438 94.996094 L 564.792969 94.050781 L 558.316406 93.234375 L 551.835938 92.539062 L 545.355469 91.953125 L 538.875 91.472656 L 532.394531 91.078125 L 525.914062 90.753906 L 519.433594 90.492188 L 516.796875 90.402344 L 512.953125 90.265625 L 506.472656 90.070312 L 493.511719 89.695312 L 487.03125 89.488281 L 480.550781 89.25 L 474.070312 88.964844 L 467.589844 88.621094 L 461.109375 88.207031 L 454.628906 87.707031 L 448.148438 87.109375 L 441.667969 86.402344 L 435.1875 85.574219 L 428.707031 84.609375 L 424.667969 83.921875 L 422.226562 83.480469 L 415.746094 82.144531 L 409.265625 80.625 L 402.785156 78.898438 L 397.921875 77.441406 L 396.304688 76.90625 L 389.824219 74.539062 L 383.34375 71.871094 L 381.328125 70.960938 L 376.863281 68.640625 L 370.382812 64.898438 L 369.71875 64.480469 L 363.902344 60.066406 L 361.40625 58 L 357.421875 53.738281 L 355.492188 51.519531 L 351.554688 45.039062 L 350.941406 43.28125 L 349.371094 38.558594 L 348.785156 32.078125 "/>
<path style="fill:none;stroke-width:0.425197;stroke-linecap:butt;stroke-linejoin:round;stroke:rgb(28.235294%,58.039216%,81.568627%);stroke-opacity:1;stroke-miterlimit:1;" d="M 46.363281 512.035156 L 52.84375 514.460938 L 59.324219 515.820312 L 65.804688 516.0625 L 72.285156 515.113281 L 78.765625 512.84375 L 80.9375 511.625 L 85.246094 508.726562 L 89.015625 505.144531 L 91.726562 501.871094 L 93.800781 498.664062 L 96.902344 492.183594 L 98.207031 488.164062 L 98.882812 485.703125 L 99.945312 479.222656 L 100.367188 472.742188 L 100.234375 466.261719 L 99.632812 459.78125 L 98.625 453.300781 L 98.207031 451.3125 L 97.175781 446.820312 L 95.371094 440.34375 L 93.3125 433.863281 L 91.726562 429.351562 L 90.945312 427.382812 L 88.175781 420.902344 L 85.246094 414.433594 L 85.238281 414.421875 L 81.644531 407.941406 L 78.765625 402.953125 L 77.710938 401.460938 L 72.972656 394.980469 L 72.285156 394.074219 L 66.757812 388.5 L 65.804688 387.570312 L 59.324219 383.285156 L 55.578125 382.019531 L 52.84375 381.121094 L 46.363281 381.085938 "/>
<path style="fill:none;stroke-width:0.425197;stroke-linecap:butt;stroke-linejoin:round;stroke:rgb(28.235294%,58.039216%,81.568627%);stroke-opacity:1;stroke-miterlimit:1;" d="M 623.90625 32.078125 L 629.597656 36.664062 L 631.886719 38.558594 L 636.078125 43.171875 L 637.726562 45.039062 L 641.613281 51.519531 L 642.558594 54.570312 L 643.589844 58 L 643.566406 64.480469 L 642.558594 67.414062 L 640.945312 70.960938 L 636.078125 75.808594 L 633.582031 77.441406 L 629.597656 79.160156 L 623.117188 80.847656 L 616.636719 81.703125 L 610.15625 82.011719 L 603.675781 81.972656 L 597.195312 81.730469 L 590.714844 81.378906 L 584.234375 80.984375 L 577.753906 80.597656 L 571.273438 80.238281 L 564.792969 79.933594 L 558.316406 79.691406 L 551.835938 79.507812 L 545.355469 79.386719 L 538.875 79.3125 L 532.394531 79.289062 L 525.914062 79.292969 L 519.433594 79.320312 L 512.953125 79.351562 L 506.472656 79.378906 L 499.992188 79.386719 L 493.511719 79.359375 L 487.03125 79.285156 L 480.550781 79.148438 L 474.070312 78.941406 L 467.589844 78.644531 L 461.109375 78.25 L 454.628906 77.742188 L 451.527344 77.441406 L 448.148438 77.085938 L 441.667969 76.253906 L 435.1875 75.261719 L 428.707031 74.09375 L 422.226562 72.730469 L 415.746094 71.15625 L 415.035156 70.960938 L 409.265625 69.164062 L 402.785156 66.867188 L 396.835938 64.480469 L 396.304688 64.226562 L 389.824219 60.789062 L 385.121094 58 L 383.34375 56.652344 L 377.195312 51.519531 L 376.863281 51.125 L 372.121094 45.039062 L 370.382812 41.15625 L 369.292969 38.558594 L 368.535156 32.078125 "/>
<path style="fill:none;stroke-width:0.425197;stroke-linecap:butt;stroke-linejoin:round;stroke:rgb(30.980392%,63.529412%,89.019608%);stroke-opacity:1;stroke-miterlimit:1;" d="M 46.363281 422.644531 L 52.84375 421.058594 L 59.324219 423.113281 L 64.628906 427.382812 L 65.804688 428.410156 L 69.734375 433.863281 L 72.285156 437.820312 L 73.488281 440.34375 L 76.074219 446.820312 L 78.074219 453.300781 L 78.765625 456.917969 L 79.203125 459.78125 L 79.445312 466.261719 L 78.785156 472.742188 L 78.765625 472.820312 L 76.40625 479.222656 L 72.285156 485.433594 L 71.964844 485.703125 L 65.804688 489.285156 L 59.324219 490.210938 L 52.84375 488.710938 L 47.527344 485.703125 L 46.363281 484.898438 "/>
<path style="fill:none;stroke-width:0.425197;stroke-linecap:butt;stroke-linejoin:round;stroke:rgb(30.980392%,63.529412%,89.019608%);stroke-opacity:1;stroke-miterlimit:1;" d="M 578.84375 32.078125 L 584.234375 36.902344 L 586.234375 38.558594 L 590.050781 45.039062 L 588.90625 51.519531 L 584.234375 54.929688 L 578.292969 58 L 577.753906 58.148438 L 571.273438 59.703125 L 564.792969 60.972656 L 558.316406 62.050781 L 551.835938 63 L 545.355469 63.855469 L 540.230469 64.480469 L 538.875 64.605469 L 532.394531 65.195312 L 525.914062 65.738281 L 519.433594 66.234375 L 512.953125 66.675781 L 506.472656 67.050781 L 499.992188 67.347656 L 493.511719 67.5625 L 487.03125 67.675781 L 480.550781 67.675781 L 474.070312 67.550781 L 467.589844 67.292969 L 461.109375 66.878906 L 454.628906 66.300781 L 448.148438 65.546875 L 441.667969 64.597656 L 441.015625 64.480469 L 435.1875 63.257812 L 428.707031 61.632812 L 422.226562 59.722656 L 417.1875 58 L 415.746094 57.378906 L 409.265625 54.1875 L 404.5 51.519531 L 402.785156 50.171875 L 396.957031 45.039062 L 396.304688 44.050781 L 393.019531 38.558594 L 391.960938 32.078125 "/>
<path style="fill:none;stroke-width:0.425197;stroke-linecap:butt;stroke-linejoin:round;stroke:rgb(33.72549%,69.411765%,96.862745%);stroke-opacity:1;stroke-miterlimit:1;" d="M 520.824219 32.078125 L 522.804688 38.558594 L 519.433594 42.140625 L 516.097656 45.039062 L 512.953125 46.179688 L 506.472656 48.15625 L 499.992188 49.730469 L 493.511719 50.925781 L 488.957031 51.519531 L 487.03125 51.6875 L 480.550781 52.019531 L 474.070312 52.101562 L 467.589844 51.917969 L 461.976562 51.519531 L 461.109375 51.433594 L 454.628906 50.378906 L 448.148438 48.898438 L 441.667969 46.96875 L 436.476562 45.039062 L 435.1875 44.207031 L 428.707031 39.183594 L 428.023438 38.558594 L 426.253906 32.078125 "/>
</g>
</svg>
