<?xml version="1.0" encoding="UTF-8"?>
<svg xmlns="http://www.w3.org/2000/svg" xmlns:xlink="http://www.w3.org/1999/xlink" width="720pt" height="720pt" viewBox="0 0 720 720" version="1.1">
<defs>
<clipPath id="clip1">
  <path d="M 14.285156 0 L 720 0 L 720 706 L 14.285156 706 Z "/>
</clipPath>
</defs>
<g id="surface31">
<rect x="0" y="0" width="720" height="720" style="fill:rgb(100%,100%,100%);fill-opacity:1;stroke:none;"/>
<rect x="0" y="0" width="720" height="720" style="fill:rgb(100%,100%,100%);fill-opacity:1;stroke:none;"/>
<path style="fill:none;stroke-width:1.062992;stroke-linecap:round;stroke-linejoin:round;stroke:rgb(100%,100%,100%);stroke-opacity:1;stroke-miterlimit:10;" d="M 0 720 L 720 720 L 720 0 L 0 0 Z "/>
<g clip-path="url(#clip1)" clip-rule="nonzero">
<path style=" stroke:none;fill-rule:nonzero;fill:rgb(100%,100%,100%);fill-opacity:1;" d="M 14.285156 705.714844 L 720 705.714844 L 720 0 L 14.285156 0 Z "/>
</g>
<path style="fill:none;stroke-width:0.425197;stroke-linecap:butt;stroke-linejoin:round;stroke:rgb(7.45098%,16.862745%,26.27451%);stroke-opacity:1;stroke-miterlimit:1;" d="M 237.871094 673.636719 L 234.296875 673.183594 L 227.816406 671.84375 L 221.335938 669.933594 L 214.855469 667.382812 L 214.386719 667.15625 L 208.375 664 L 203.304688 660.675781 L 201.894531 659.644531 L 195.679688 654.195312 L 195.414062 653.921875 L 190.128906 647.714844 L 188.933594 646.039062 L 185.886719 641.234375 L 182.554688 634.753906 L 182.453125 634.527344 L 179.882812 628.273438 L 177.601562 621.792969 L 175.972656 616.828125 L 175.492188 615.3125 L 173.332031 608.832031 L 170.972656 602.351562 L 169.492188 598.890625 L 168.222656 595.871094 L 164.96875 589.390625 L 163.011719 586.066406 L 161.175781 582.910156 L 156.898438 576.429688 L 156.53125 575.941406 L 152.125 569.949219 L 150.050781 567.296875 L 147.125 563.46875 L 143.570312 558.933594 L 142.082031 556.988281 L 137.167969 550.507812 L 137.089844 550.40625 L 132.359375 544.027344 L 130.609375 541.492188 L 127.898438 537.546875 L 124.128906 531.46875 L 123.878906 531.066406 L 120.019531 524.585938 L 117.648438 520.054688 L 116.589844 518.105469 L 113.339844 511.625 L 111.167969 506.761719 L 110.398438 505.144531 L 107.484375 498.664062 L 104.863281 492.183594 L 104.6875 491.746094 L 102.070312 485.703125 L 99.453125 479.222656 L 98.207031 476.046875 L 96.78125 472.742188 L 94.0625 466.261719 L 91.726562 460.375 L 91.46875 459.78125 L 88.652344 453.300781 L 86.058594 446.820312 L 85.246094 444.695312 L 83.402344 440.34375 L 80.882812 433.863281 L 78.765625 427.726562 L 78.632812 427.382812 L 76.304688 420.902344 L 74.300781 414.421875 L 72.59375 407.941406 L 72.285156 406.601562 L 70.933594 401.460938 L 69.507812 394.980469 L 68.34375 388.5 L 67.414062 382.019531 L 66.6875 375.539062 L 66.144531 369.058594 L 65.804688 363.15625 L 65.765625 362.578125 L 65.511719 356.097656 L 65.4375 349.617188 L 65.539062 343.136719 L 65.804688 337.085938 L 65.820312 336.65625 L 66.222656 330.175781 L 66.785156 323.695312 L 67.515625 317.214844 L 68.421875 310.734375 L 69.492188 304.253906 L 70.730469 297.773438 L 72.117188 291.292969 L 72.285156 290.535156 L 73.472656 284.8125 L 74.898438 278.332031 L 76.382812 271.851562 L 77.894531 265.371094 L 78.765625 261.578125 L 79.34375 258.890625 L 80.683594 252.410156 L 81.988281 245.929688 L 83.253906 239.449219 L 84.496094 232.96875 L 85.246094 229.007812 L 85.691406 226.488281 L 86.839844 220.007812 L 88.046875 213.527344 L 89.351562 207.046875 L 90.800781 200.566406 L 91.726562 196.878906 L 92.382812 194.085938 L 94.105469 187.605469 L 96.117188 181.125 L 98.207031 175.390625 L 98.46875 174.644531 L 101.066406 168.164062 L 104.195312 161.683594 L 104.6875 160.785156 L 107.765625 155.207031 L 111.167969 150.019531 L 112.050781 148.726562 L 117.136719 142.246094 L 117.648438 141.664062 L 123.320312 135.765625 L 124.128906 135.003906 L 130.609375 129.609375 L 131.058594 129.285156 L 137.089844 125.164062 L 141.296875 122.804688 L 143.570312 121.558594 L 150.050781 118.601562 L 156.492188 116.324219 L 156.53125 116.308594 L 163.011719 114.394531 L 169.492188 112.980469 L 175.972656 111.976562 L 182.453125 111.328125 L 188.933594 110.972656 L 195.414062 110.855469 L 201.894531 110.9375 L 208.375 111.167969 L 214.855469 111.496094 L 221.335938 111.871094 L 227.816406 112.242188 L 234.296875 112.546875 L 240.777344 112.71875 L 247.257812 112.683594 L 253.738281 112.378906 L 260.21875 111.734375 L 266.699219 110.695312 L 270.523438 109.84375 L 273.179688 109.210938 L 279.65625 107.269531 L 286.136719 104.984375 L 290.226562 103.363281 L 292.617188 102.386719 L 299.097656 99.550781 L 305.109375 96.882812 L 305.578125 96.667969 L 312.058594 93.65625 L 318.539062 90.796875 L 319.457031 90.402344 L 325.019531 87.921875 L 331.5 85.261719 L 335.046875 83.921875 L 337.980469 82.753906 L 344.460938 80.371094 L 350.941406 78.289062 L 353.875 77.441406 L 357.421875 76.332031 L 363.902344 74.523438 L 370.382812 72.96875 L 376.863281 71.636719 L 380.601562 70.960938 L 383.34375 70.40625 L 389.824219 69.242188 L 396.304688 68.230469 L 402.785156 67.359375 L 409.265625 66.601562 L 415.746094 65.949219 L 422.226562 65.398438 L 428.707031 64.949219 L 435.1875 64.609375 L 439.070312 64.480469 L 441.667969 64.378906 L 448.148438 64.292969 L 454.628906 64.40625 L 456.078125 64.480469 L 461.109375 64.710938 L 467.589844 65.238281 L 474.070312 66.046875 L 480.550781 67.179688 L 487.03125 68.695312 L 493.511719 70.65625 L 494.347656 70.960938 L 499.992188 72.910156 L 506.472656 75.6875 L 509.929688 77.441406 L 512.953125 78.949219 L 519.433594 82.714844 L 521.277344 83.921875 L 525.914062 86.945312 L 530.617188 90.402344 L 532.394531 91.703125 L 538.875 96.871094 L 538.882812 96.882812 L 545.355469 102.179688 L 546.738281 103.363281 L 551.835938 107.566406 L 554.527344 109.84375 L 558.316406 112.867188 L 562.59375 116.324219 L 564.792969 117.96875 L 571.207031 122.804688 L 571.273438 122.851562 L 577.753906 127.234375 L 580.730469 129.285156 L 584.234375 131.464844 L 590.714844 135.625 L 590.933594 135.765625 L 597.195312 139.410156 L 601.796875 142.246094 L 603.675781 143.300781 L 610.15625 147.074219 L 612.851562 148.726562 L 616.636719 150.867188 L 623.117188 154.816406 L 623.734375 155.207031 L 629.597656 158.671875 L 634.269531 161.683594 L 636.078125 162.804688 L 642.558594 167.066406 L 644.144531 168.164062 L 649.039062 171.519531 L 653.246094 174.644531 L 655.519531 176.359375 L 661.394531 181.125 L 662 181.636719 L 668.480469 187.460938 L 668.636719 187.605469 L 674.960938 194.074219 L 674.972656 194.085938 L 680.507812 200.566406 L 681.441406 201.832031 L 685.25 207.046875 L 687.921875 211.457031 "/>
<path style="fill:none;stroke-width:0.425197;stroke-linecap:butt;stroke-linejoin:round;stroke:rgb(7.45098%,16.862745%,26.27451%);stroke-opacity:1;stroke-miterlimit:1;" d="M 260.226562 673.636719 L 266.699219 672.601562 L 273.179688 671.078125 L 279.65625 669.023438 L 284.28125 667.15625 L 286.136719 666.351562 L 292.617188 662.933594 L 296.128906 660.675781 L 299.097656 658.660156 L 304.597656 654.195312 L 305.578125 653.394531 L 311.585938 647.714844 L 312.058594 647.289062 L 318.027344 641.234375 L 318.539062 640.765625 L 324.425781 634.753906 L 325.019531 634.21875 L 331.035156 628.273438 L 331.5 627.871094 L 337.925781 621.792969 L 337.980469 621.746094 L 344.460938 615.878906 L 345.042969 615.3125 L 350.941406 610.058594 L 352.230469 608.832031 L 357.421875 604.144531 L 359.289062 602.351562 L 363.902344 597.988281 L 366.023438 595.871094 L 370.382812 591.417969 L 372.28125 589.390625 L 376.863281 584.183594 L 377.953125 582.910156 L 382.996094 576.429688 L 383.34375 575.929688 L 387.492188 569.949219 L 389.824219 565.980469 L 391.347656 563.46875 L 394.675781 556.988281 L 396.304688 553.121094 L 397.5 550.507812 L 399.9375 544.027344 L 401.875 537.546875 L 402.785156 533.527344 L 403.457031 531.066406 L 404.710938 524.585938 L 405.460938 518.105469 L 405.589844 511.625 L 404.886719 505.144531 L 402.980469 498.664062 L 402.785156 498.269531 L 400.230469 492.183594 L 396.304688 486.351562 L 395.929688 485.703125 L 390.90625 479.222656 L 389.824219 478.128906 L 385.164062 472.742188 L 383.34375 471 L 378.902344 466.261719 L 376.863281 464.382812 L 372.285156 459.78125 L 370.382812 458.082031 L 365.371094 453.300781 L 363.902344 452.027344 L 358.160156 446.820312 L 357.421875 446.203125 L 350.941406 440.597656 L 350.652344 440.34375 L 344.460938 435.179688 L 342.875 433.863281 L 337.980469 429.972656 L 334.660156 427.382812 L 331.5 424.980469 L 325.984375 420.902344 L 325.019531 420.191406 L 318.539062 415.449219 L 317.117188 414.421875 L 312.058594 410.675781 L 308.300781 407.941406 L 305.578125 405.859375 L 299.863281 401.460938 L 299.097656 400.828125 L 292.617188 395.242188 L 292.332031 394.980469 L 286.136719 388.746094 L 285.910156 388.5 L 280.621094 382.019531 L 279.65625 380.695312 L 276.285156 375.539062 L 273.179688 370.28125 L 272.527344 369.058594 L 269.5 362.578125 L 266.699219 356.207031 L 266.65625 356.097656 L 264.339844 349.617188 L 262.074219 343.136719 L 260.21875 337.757812 L 259.871094 336.65625 L 257.949219 330.175781 L 256.039062 323.695312 L 254.1875 317.214844 L 253.738281 315.410156 L 252.660156 310.734375 L 251.4375 304.253906 L 250.597656 297.773438 L 250.316406 291.292969 L 250.769531 284.8125 L 252.125 278.332031 L 253.738281 273.894531 L 254.628906 271.851562 L 258.597656 265.371094 L 260.21875 263.292969 L 264.308594 258.890625 L 266.699219 256.699219 L 272.355469 252.410156 L 273.179688 251.851562 L 279.65625 248.335938 L 285.660156 245.929688 L 286.136719 245.757812 L 292.617188 244.21875 L 299.097656 243.53125 L 305.578125 243.609375 L 312.058594 244.335938 L 318.539062 245.546875 L 320.054688 245.929688 L 325.019531 247.214844 L 331.5 249.136719 L 337.980469 251.136719 L 342.015625 252.410156 L 344.460938 253.222656 L 350.941406 255.402344 L 357.421875 257.425781 L 362.496094 258.890625 L 363.902344 259.335938 L 370.382812 261.304688 L 376.863281 263.050781 L 383.34375 264.59375 L 386.957031 265.371094 L 389.824219 266.089844 L 396.304688 267.589844 L 402.785156 268.96875 L 409.265625 270.28125 L 415.746094 271.605469 L 416.855469 271.851562 L 422.226562 273.324219 L 428.707031 275.351562 L 435.1875 277.78125 L 436.386719 278.332031 L 441.667969 281.429688 L 446.300781 284.8125 L 448.148438 286.53125 L 452.34375 291.292969 L 454.628906 294.511719 L 456.578125 297.773438 L 459.867188 304.253906 L 461.109375 307.019531 L 462.570312 310.734375 L 464.941406 317.214844 L 467.257812 323.695312 L 467.589844 324.667969 L 469.300781 330.175781 L 471.292969 336.65625 L 473.238281 343.136719 L 474.070312 346.175781 L 474.945312 349.617188 L 476.363281 356.097656 L 477.457031 362.578125 L 478.109375 369.058594 L 478.214844 375.539062 L 477.714844 382.019531 L 476.605469 388.5 L 474.949219 394.980469 L 474.070312 397.644531 L 472.707031 401.460938 L 470.023438 407.941406 L 467.589844 413.425781 L 467.109375 414.421875 L 463.847656 420.902344 L 461.109375 426.488281 L 460.628906 427.382812 L 457.25 433.863281 L 454.628906 439.382812 L 454.113281 440.34375 L 450.980469 446.820312 L 448.304688 453.300781 L 448.148438 453.769531 L 445.71875 459.78125 L 443.707031 466.261719 L 442.355469 472.742188 L 441.765625 479.222656 L 442.125 485.703125 L 443.765625 492.183594 L 447.328125 498.664062 L 448.148438 499.617188 L 452.503906 505.144531 L 454.628906 507.039062 L 459.597656 511.625 L 461.109375 512.726562 L 467.589844 517.460938 L 468.484375 518.105469 L 474.070312 521.585938 L 479.371094 524.585938 L 480.550781 525.199219 L 487.03125 528.417969 L 493.25 531.066406 L 493.511719 531.175781 L 499.992188 533.671875 L 506.472656 535.746094 L 512.953125 537.425781 L 513.515625 537.546875 L 519.433594 538.886719 L 525.914062 539.984375 L 532.394531 540.730469 L 538.875 541.136719 L 545.355469 541.199219 L 551.835938 540.921875 L 558.316406 540.285156 L 564.792969 539.257812 L 571.273438 537.804688 L 572.175781 537.546875 L 577.753906 536.074219 L 584.234375 533.878906 L 590.714844 531.09375 L 590.769531 531.066406 L 597.195312 527.972656 L 602.894531 524.585938 L 603.675781 524.117188 L 610.15625 519.683594 L 612.175781 518.105469 L 616.636719 514.414062 L 619.65625 511.625 L 623.117188 508.117188 L 625.84375 505.144531 L 629.597656 500.484375 L 631.007812 498.664062 L 635.351562 492.183594 L 636.078125 490.914062 L 639.085938 485.703125 L 642.113281 479.222656 L 642.558594 478.085938 L 644.761719 472.742188 L 646.898438 466.261719 L 648.582031 459.78125 L 649.039062 457.566406 L 650.011719 453.300781 L 651.160156 446.820312 L 652.03125 440.34375 L 652.6875 433.863281 L 653.179688 427.382812 L 653.566406 420.902344 L 653.910156 414.421875 L 654.28125 407.941406 L 654.746094 401.460938 L 655.390625 394.980469 L 655.519531 394.050781 L 656.375 388.5 L 657.722656 382.019531 L 659.453125 375.539062 L 661.582031 369.058594 L 662 368 L 664.28125 362.578125 L 667.300781 356.097656 L 668.480469 353.789062 L 670.703125 349.617188 L 674.230469 343.136719 L 674.960938 341.832031 L 677.957031 336.65625 L 681.441406 330.257812 L 681.488281 330.175781 L 685.085938 323.695312 L 687.921875 317.878906 "/>
<path style="fill:none;stroke-width:0.425197;stroke-linecap:butt;stroke-linejoin:round;stroke:rgb(11.372549%,24.705882%,36.862745%);stroke-opacity:1;stroke-miterlimit:1;" d="M 91.726562 395.507812 L 91.609375 394.980469 L 90.375 388.5 L 89.386719 382.019531 L 88.621094 375.539062 L 88.070312 369.058594 L 87.722656 362.578125 L 87.574219 356.097656 L 87.625 349.617188 L 87.886719 343.136719 L 88.371094 336.65625 L 89.085938 330.175781 L 90.042969 323.695312 L 91.253906 317.214844 L 91.726562 315.070312 L 92.664062 310.734375 L 94.289062 304.253906 L 96.144531 297.773438 L 98.203125 291.292969 L 98.207031 291.28125 L 100.359375 284.8125 L 102.613281 278.332031 L 104.6875 272.445312 L 104.90625 271.851562 L 107.152344 265.371094 L 109.289062 258.890625 L 111.167969 252.71875 L 111.265625 252.410156 L 113.078125 245.929688 L 114.683594 239.449219 L 116.117188 232.96875 L 117.429688 226.488281 L 117.648438 225.371094 L 118.699219 220.007812 L 119.976562 213.527344 L 121.335938 207.046875 L 122.867188 200.566406 L 124.128906 195.984375 L 124.660156 194.085938 L 126.808594 187.605469 L 129.40625 181.125 L 130.609375 178.617188 L 132.625 174.644531 L 136.609375 168.164062 L 137.089844 167.5 L 141.746094 161.683594 L 143.570312 159.746094 L 148.523438 155.207031 L 150.050781 153.980469 L 156.53125 149.65625 L 158.277344 148.726562 L 163.011719 146.421875 L 169.492188 144.050781 L 175.972656 142.382812 L 176.804688 142.246094 L 182.453125 141.34375 L 188.933594 140.839844 L 195.414062 140.800781 L 201.894531 141.183594 L 208.375 141.945312 L 210.1875 142.246094 L 214.855469 143.0625 L 221.335938 144.511719 L 227.816406 146.238281 L 234.296875 148.207031 L 235.933594 148.726562 L 240.777344 150.5 L 247.257812 152.96875 L 253.179688 155.207031 L 253.738281 155.472656 L 260.21875 158.148438 L 266.699219 160.285156 L 273.179688 161.328125 L 279.65625 160.566406 L 286.136719 157.214844 L 288.195312 155.207031 L 292.617188 151.859375 L 295.527344 148.726562 L 299.097656 145.644531 L 302.292969 142.246094 L 305.578125 139.371094 L 309.234375 135.765625 L 312.058594 133.40625 L 316.746094 129.285156 L 318.539062 127.90625 L 325.019531 122.917969 L 325.171875 122.804688 L 331.5 118.414062 L 334.730469 116.324219 L 337.980469 114.351562 L 344.460938 110.734375 L 346.183594 109.84375 L 350.941406 107.441406 L 357.421875 104.546875 L 360.394531 103.363281 L 363.902344 101.9375 L 370.382812 99.597656 L 376.863281 97.609375 L 379.566406 96.882812 L 383.34375 95.792969 L 389.824219 94.175781 L 396.304688 92.8125 L 402.785156 91.679688 L 409.265625 90.746094 L 412.226562 90.402344 L 415.746094 89.9375 L 422.226562 89.28125 L 428.707031 88.824219 L 435.1875 88.566406 L 441.667969 88.53125 L 448.148438 88.730469 L 454.628906 89.195312 L 461.109375 89.964844 L 463.707031 90.402344 L 467.589844 91.015625 L 474.070312 92.398438 L 480.550781 94.21875 L 487.03125 96.550781 L 487.8125 96.882812 L 493.511719 99.253906 L 499.992188 102.550781 L 501.402344 103.363281 L 506.472656 106.28125 L 511.859375 109.84375 L 512.953125 110.566406 L 519.433594 115.191406 L 520.921875 116.324219 L 525.914062 120.0625 L 529.429688 122.804688 L 532.394531 125.046875 L 537.925781 129.285156 L 538.875 129.976562 L 545.355469 134.625 L 546.964844 135.765625 L 551.835938 138.957031 L 556.933594 142.246094 L 558.316406 143.066406 L 564.792969 146.824219 L 568.085938 148.726562 L 571.273438 150.417969 L 577.753906 153.871094 L 580.214844 155.207031 L 584.234375 157.222656 L 590.714844 160.605469 L 592.703125 161.683594 L 597.195312 163.972656 L 603.675781 167.5 L 604.839844 168.164062 L 610.15625 171.0625 L 616.171875 174.644531 L 616.636719 174.917969 L 623.117188 178.871094 L 626.511719 181.125 L 629.597656 183.171875 L 635.730469 187.605469 L 636.078125 187.863281 L 642.558594 192.953125 L 643.902344 194.085938 L 649.039062 198.679688 L 651.015625 200.566406 L 655.519531 205.273438 L 657.132812 207.046875 L 662 213.121094 L 662.316406 213.527344 L 666.742188 220.007812 L 668.480469 223.09375 L 670.390625 226.488281 L 673.34375 232.96875 L 674.960938 237.558594 L 675.652344 239.449219 L 677.449219 245.929688 L 678.660156 252.410156 L 679.332031 258.890625 L 679.507812 265.371094 L 679.195312 271.851562 L 678.398438 278.332031 L 677.101562 284.8125 L 675.277344 291.292969 L 674.960938 292.1875 L 673.082031 297.773438 L 670.371094 304.253906 L 668.480469 308.09375 L 667.199219 310.734375 L 663.648438 317.214844 L 662 319.949219 L 659.734375 323.695312 L 655.519531 330.136719 L 655.496094 330.175781 L 651.175781 336.65625 L 649.039062 339.839844 L 646.777344 343.136719 L 642.558594 349.5 L 642.480469 349.617188 L 638.511719 356.097656 L 636.078125 360.558594 L 634.953125 362.578125 L 631.984375 369.058594 L 629.652344 375.539062 L 629.597656 375.742188 L 627.996094 382.019531 L 626.960938 388.5 L 626.445312 394.980469 L 626.308594 401.460938 L 626.40625 407.941406 L 626.605469 414.421875 L 626.785156 420.902344 L 626.847656 427.382812 L 626.71875 433.863281 L 626.320312 440.34375 L 625.59375 446.820312 L 624.464844 453.300781 L 623.117188 458.789062 L 622.878906 459.78125 L 620.820312 466.261719 L 618.128906 472.742188 L 616.636719 475.636719 L 614.734375 479.222656 L 610.480469 485.703125 L 610.15625 486.128906 L 605.171875 492.183594 L 603.675781 493.75 L 598.429688 498.664062 L 597.195312 499.703125 L 590.714844 504.429688 L 589.558594 505.144531 L 584.234375 508.238281 L 577.753906 511.238281 L 576.699219 511.625 L 571.273438 513.601562 L 564.792969 515.34375 L 558.316406 516.515625 L 551.835938 517.160156 L 545.355469 517.300781 L 538.875 516.933594 L 532.394531 516.046875 L 525.914062 514.613281 L 519.433594 512.578125 L 517.042969 511.625 L 512.953125 509.867188 L 506.472656 506.371094 L 504.542969 505.144531 L 499.992188 501.785156 L 496.347656 498.664062 L 493.511719 495.636719 L 490.578125 492.183594 L 487.03125 486.464844 L 486.582031 485.703125 L 483.914062 479.222656 L 482.429688 472.742188 L 481.921875 466.261719 L 482.238281 459.78125 L 483.277344 453.300781 L 484.941406 446.820312 L 487.03125 440.726562 L 487.15625 440.34375 L 489.691406 433.863281 L 492.589844 427.382812 L 493.511719 425.441406 L 495.632812 420.902344 L 498.742188 414.421875 L 499.992188 411.726562 L 501.742188 407.941406 L 504.480469 401.460938 L 506.472656 395.898438 L 506.800781 394.980469 L 508.511719 388.5 L 509.507812 382.019531 L 509.714844 375.539062 L 509.136719 369.058594 L 507.863281 362.578125 L 506.472656 357.667969 L 506.035156 356.097656 L 503.785156 349.617188 L 501.335938 343.136719 L 499.992188 339.75 L 498.773438 336.65625 L 496.195312 330.175781 L 493.746094 323.695312 L 493.511719 323.0625 L 491.292969 317.214844 L 488.980469 310.734375 L 487.03125 305.003906 L 486.761719 304.253906 L 484.398438 297.773438 L 481.972656 291.292969 L 480.550781 287.792969 L 479.191406 284.8125 L 475.757812 278.332031 L 474.070312 275.699219 L 471.140625 271.851562 L 467.589844 268.15625 L 464.257812 265.371094 L 461.109375 263.296875 L 454.628906 260 L 451.820312 258.890625 L 448.148438 257.726562 L 441.667969 256.113281 L 435.1875 254.8125 L 428.707031 253.691406 L 422.226562 252.640625 L 420.820312 252.410156 L 415.746094 251.695312 L 409.265625 250.695312 L 402.785156 249.554688 L 396.304688 248.222656 L 389.824219 246.644531 L 387.269531 245.929688 L 383.34375 244.914062 L 376.863281 242.976562 L 370.382812 240.699219 L 367.195312 239.449219 L 363.902344 238.183594 L 357.421875 235.414062 L 352.316406 232.96875 L 350.941406 232.292969 L 344.460938 228.953125 L 340.007812 226.488281 L 337.980469 225.285156 L 331.5 221.363281 L 329.238281 220.007812 L 325.019531 217.175781 L 319.472656 213.527344 L 318.539062 212.8125 L 312.058594 208.3125 L 309.957031 207.046875 L 305.578125 203.800781 L 300.242188 200.566406 L 299.097656 199.65625 L 292.617188 196.085938 L 286.136719 194.164062 L 279.65625 194.40625 L 273.179688 197.269531 L 269.410156 200.566406 L 266.699219 202.503906 L 262.171875 207.046875 L 260.21875 208.71875 L 255.636719 213.527344 L 253.738281 215.296875 L 249.316406 220.007812 L 247.257812 222.039062 L 243.164062 226.488281 L 240.777344 229.003906 L 237.292969 232.96875 L 234.296875 236.464844 L 231.90625 239.449219 L 227.816406 245.050781 L 227.214844 245.929688 L 223.441406 252.410156 L 221.335938 257.160156 L 220.621094 258.890625 L 218.835938 265.371094 L 217.992188 271.851562 L 218 278.332031 L 218.726562 284.8125 L 220.023438 291.292969 L 221.335938 296.167969 L 221.761719 297.773438 L 223.867188 304.253906 L 226.140625 310.734375 L 227.816406 315.277344 L 228.535156 317.214844 L 231.042969 323.695312 L 233.492188 330.175781 L 234.296875 332.304688 L 235.992188 336.65625 L 238.460938 343.136719 L 240.777344 349.414062 L 240.855469 349.617188 L 243.429688 356.097656 L 245.988281 362.578125 L 247.257812 365.648438 L 248.761719 369.058594 L 251.8125 375.539062 L 253.738281 379.300781 L 255.246094 382.019531 L 259.222656 388.5 L 260.21875 389.9375 L 263.992188 394.980469 L 266.699219 398.230469 L 269.59375 401.460938 L 273.179688 405.089844 L 276.164062 407.941406 L 279.65625 411.035156 L 283.621094 414.421875 L 286.136719 416.464844 L 291.667969 420.902344 L 292.617188 421.648438 L 299.097656 426.722656 L 299.9375 427.382812 L 305.578125 431.875 L 308.023438 433.863281 L 312.058594 437.289062 L 315.589844 440.34375 L 318.539062 443.082031 L 322.539062 446.820312 L 325.019531 449.375 L 328.863281 453.300781 L 331.5 456.324219 L 334.585938 459.78125 L 337.980469 464.117188 L 339.726562 466.261719 L 344.296875 472.742188 L 344.460938 473.015625 L 348.488281 479.222656 L 350.941406 483.726562 L 352.09375 485.703125 L 355.261719 492.183594 L 357.421875 497.644531 L 357.855469 498.664062 L 360.039062 505.144531 L 361.636719 511.625 L 362.660156 518.105469 L 363.113281 524.585938 L 362.96875 531.066406 L 362.179688 537.546875 L 360.679688 544.027344 L 358.402344 550.507812 L 357.421875 552.578125 L 355.316406 556.988281 L 351.296875 563.46875 L 350.941406 563.945312 L 346.285156 569.949219 L 344.460938 571.960938 L 340.152344 576.429688 L 337.980469 578.449219 L 332.785156 582.910156 L 331.5 583.945312 L 325.019531 588.726562 L 324.03125 589.390625 L 318.539062 593.007812 L 313.636719 595.871094 L 312.058594 596.808594 L 305.578125 600.265625 L 301.074219 602.351562 L 299.097656 603.324219 L 292.617188 606.089844 L 286.136719 608.40625 L 284.667969 608.832031 L 279.65625 610.445312 L 273.179688 612.042969 L 266.699219 613.136719 L 260.21875 613.6875 L 253.738281 613.621094 L 247.257812 612.832031 L 240.777344 611.179688 L 235.117188 608.832031 L 234.296875 608.503906 L 227.816406 604.917969 L 224.34375 602.351562 L 221.335938 600.226562 L 216.359375 595.871094 L 214.855469 594.644531 L 209.359375 589.390625 L 208.375 588.535156 L 202.644531 582.910156 L 201.894531 582.25 L 195.894531 576.429688 L 195.414062 576.011719 L 188.992188 569.949219 L 188.933594 569.898438 L 182.453125 563.941406 L 181.972656 563.46875 L 175.972656 557.964844 L 174.980469 556.988281 L 169.492188 551.808594 L 168.207031 550.507812 L 163.011719 545.304688 L 161.816406 544.027344 L 156.53125 538.242188 L 155.929688 537.546875 L 150.570312 531.066406 L 150.050781 530.394531 L 145.707031 524.585938 L 143.570312 521.429688 L 141.359375 518.105469 L 137.492188 511.625 L 137.089844 510.898438 L 133.882812 505.144531 L 130.691406 498.664062 L 130.609375 498.488281 L 127.566406 492.183594 L 124.726562 485.703125 L 124.128906 484.296875 L 121.871094 479.222656 L 119.132812 472.742188 L 117.648438 469.125 L 116.402344 466.261719 L 113.644531 459.78125 L 111.167969 453.707031 L 110.992188 453.300781 L 108.21875 446.820312 L 105.632812 440.34375 L 104.6875 437.859375 L 103.070312 433.863281 L 100.652344 427.382812 L 98.488281 420.902344 L 98.207031 419.976562 L 96.382812 414.421875 L 94.535156 407.941406 L 92.953125 401.460938 L 91.726562 395.507812 "/>
<path style="fill:none;stroke-width:0.425197;stroke-linecap:butt;stroke-linejoin:round;stroke:rgb(15.686275%,32.941176%,47.843137%);stroke-opacity:1;stroke-miterlimit:1;" d="M 104.6875 378.25 L 104.398438 375.539062 L 103.949219 369.058594 L 103.75 362.578125 L 103.796875 356.097656 L 104.105469 349.617188 L 104.6875 343.167969 L 104.691406 343.136719 L 105.546875 336.65625 L 106.722656 330.175781 L 108.234375 323.695312 L 110.097656 317.214844 L 111.167969 314.015625 L 112.351562 310.734375 L 115 304.253906 L 117.648438 298.480469 L 118.015625 297.773438 L 121.515625 291.292969 L 124.128906 286.640625 L 125.339844 284.8125 L 129.535156 278.332031 L 130.609375 276.5625 L 134.101562 271.851562 L 137.089844 267.308594 L 138.710938 265.371094 L 143.140625 258.890625 L 143.570312 258.082031 L 147.4375 252.410156 L 150.050781 246.597656 L 150.457031 245.929688 L 152.8125 239.449219 L 153.96875 232.96875 L 154.546875 226.488281 L 154.972656 220.007812 L 155.53125 213.527344 L 156.4375 207.046875 L 156.53125 206.640625 L 158.160156 200.566406 L 160.65625 194.085938 L 163.011719 189.675781 L 164.386719 187.605469 L 169.492188 181.894531 L 170.429688 181.125 L 175.972656 177.636719 L 182.453125 175.09375 L 185.398438 174.644531 L 188.933594 174.214844 L 195.195312 174.644531 L 195.414062 174.667969 L 201.894531 176.921875 L 208.375 181.027344 L 208.484375 181.125 L 212.601562 187.605469 L 213.703125 194.085938 L 212.574219 200.566406 L 209.898438 207.046875 L 208.375 209.65625 L 205.917969 213.527344 L 201.894531 219.148438 L 201.210938 220.007812 L 196.015625 226.488281 L 195.414062 227.308594 L 190.8125 232.96875 L 188.933594 235.957031 L 186.410156 239.449219 L 183.527344 245.929688 L 182.453125 251.78125 L 182.316406 252.410156 L 182.453125 256.035156 L 182.523438 258.890625 L 183.777344 265.371094 L 185.917969 271.851562 L 188.773438 278.332031 L 188.933594 278.613281 L 191.78125 284.8125 L 195.164062 291.292969 L 195.414062 291.710938 L 198.554688 297.773438 L 201.894531 303.90625 L 202.0625 304.253906 L 205.484375 310.734375 L 208.375 316.207031 L 208.871094 317.214844 L 212.132812 323.695312 L 214.855469 329.28125 L 215.273438 330.175781 L 218.292969 336.65625 L 221.164062 343.136719 L 221.335938 343.53125 L 223.976562 349.617188 L 226.679688 356.097656 L 227.816406 358.839844 L 229.386719 362.578125 L 232.132812 369.058594 L 234.296875 374.023438 L 234.980469 375.539062 L 238.105469 382.019531 L 240.777344 387.140625 L 241.527344 388.5 L 245.492188 394.980469 L 247.257812 397.554688 L 250.113281 401.460938 L 253.738281 405.898438 L 255.515625 407.941406 L 260.21875 412.84375 L 261.816406 414.421875 L 266.699219 418.894531 L 268.972656 420.902344 L 273.179688 424.453125 L 276.707031 427.382812 L 279.65625 429.800781 L 284.605469 433.863281 L 286.136719 435.148438 L 292.242188 440.34375 L 292.617188 440.683594 L 299.097656 446.601562 L 299.339844 446.820312 L 305.578125 453.148438 L 305.730469 453.300781 L 311.398438 459.78125 L 312.058594 460.65625 L 316.371094 466.261719 L 318.539062 469.605469 L 320.648438 472.742188 L 324.28125 479.222656 L 325.019531 480.828125 L 327.40625 485.703125 L 329.953125 492.183594 L 331.5 497.210938 L 331.984375 498.664062 L 333.5625 505.144531 L 334.601562 511.625 L 335.089844 518.105469 L 334.980469 524.585938 L 334.203125 531.066406 L 332.65625 537.546875 L 331.5 540.703125 L 330.222656 544.027344 L 326.730469 550.507812 L 325.019531 552.957031 L 321.945312 556.988281 L 318.539062 560.625 L 315.539062 563.46875 L 312.058594 566.324219 L 306.917969 569.949219 L 305.578125 570.808594 L 299.097656 574.359375 L 294.390625 576.429688 L 292.617188 577.183594 L 286.136719 579.355469 L 279.65625 580.902344 L 273.179688 581.832031 L 266.699219 582.152344 L 260.21875 581.867188 L 253.738281 580.957031 L 247.257812 579.414062 L 240.777344 577.203125 L 239.019531 576.429688 L 234.296875 574.527344 L 227.816406 571.332031 L 225.425781 569.949219 L 221.335938 567.804688 L 214.855469 563.898438 L 214.214844 563.46875 L 208.375 559.902344 L 204.121094 556.988281 L 201.894531 555.578125 L 195.414062 551.027344 L 194.738281 550.507812 L 188.933594 546.265625 L 186.167969 544.027344 L 182.453125 541.078125 L 178.421875 537.546875 L 175.972656 535.375 L 171.53125 531.066406 L 169.492188 529 L 165.457031 524.585938 L 163.011719 521.710938 L 160.121094 518.105469 L 156.53125 513.179688 L 155.441406 511.625 L 151.292969 505.144531 L 150.050781 503.003906 L 147.5625 498.664062 L 144.214844 492.183594 L 143.570312 490.847656 L 141.0625 485.703125 L 138.132812 479.222656 L 137.089844 476.816406 L 135.273438 472.742188 L 132.484375 466.261719 L 130.609375 461.808594 L 129.726562 459.78125 L 126.945312 453.300781 L 124.25 446.820312 L 124.128906 446.527344 L 121.515625 440.34375 L 118.929688 433.863281 L 117.648438 430.464844 L 116.449219 427.382812 L 114.125 420.902344 L 112.046875 414.421875 L 111.167969 411.339844 L 110.160156 407.941406 L 108.496094 401.460938 L 107.101562 394.980469 L 105.960938 388.5 L 105.070312 382.019531 L 104.6875 378.25 "/>
<path style="fill:none;stroke-width:0.425197;stroke-linecap:butt;stroke-linejoin:round;stroke:rgb(15.686275%,32.941176%,47.843137%);stroke-opacity:1;stroke-miterlimit:1;" d="M 331.5 192.785156 L 328.558594 187.605469 L 326.226562 181.125 L 325.089844 174.644531 L 325.050781 168.164062 L 326.101562 161.683594 L 328.316406 155.207031 L 331.5 149.332031 L 331.816406 148.726562 L 336.433594 142.246094 L 337.980469 140.550781 L 342.476562 135.765625 L 344.460938 134.007812 L 350.199219 129.285156 L 350.941406 128.746094 L 357.421875 124.378906 L 360.058594 122.804688 L 363.902344 120.660156 L 370.382812 117.507812 L 373.171875 116.324219 L 376.863281 114.78125 L 383.34375 112.445312 L 389.824219 110.507812 L 392.472656 109.84375 L 396.304688 108.835938 L 402.785156 107.433594 L 409.265625 106.332031 L 415.746094 105.5 L 422.226562 104.929688 L 428.707031 104.613281 L 435.1875 104.554688 L 441.667969 104.765625 L 448.148438 105.273438 L 454.628906 106.109375 L 461.109375 107.316406 L 467.589844 108.949219 L 470.417969 109.84375 L 474.070312 110.984375 L 480.550781 113.484375 L 486.558594 116.324219 L 487.03125 116.550781 L 493.511719 120.066406 L 497.902344 122.804688 L 499.992188 124.136719 L 506.472656 128.644531 L 507.34375 129.285156 L 512.953125 133.445312 L 515.988281 135.765625 L 519.433594 138.402344 L 524.496094 142.246094 L 525.914062 143.308594 L 532.394531 147.953125 L 533.523438 148.726562 L 538.875 152.222656 L 543.738281 155.207031 L 545.355469 156.144531 L 551.835938 159.671875 L 555.71875 161.683594 L 558.316406 162.945312 L 564.792969 166.003906 L 569.40625 168.164062 L 571.273438 168.988281 L 577.753906 171.898438 L 583.621094 174.644531 L 584.234375 174.917969 L 590.714844 177.957031 L 596.972656 181.125 L 597.195312 181.238281 L 603.675781 184.636719 L 608.835938 187.605469 L 610.15625 188.363281 L 616.636719 192.371094 L 619.183594 194.085938 L 623.117188 196.796875 L 628.101562 200.566406 L 629.597656 201.757812 L 635.714844 207.046875 L 636.078125 207.386719 L 642.164062 213.527344 L 642.558594 213.976562 L 647.578125 220.007812 L 649.039062 222.0625 L 652.0625 226.488281 L 655.519531 232.722656 L 655.65625 232.96875 L 658.546875 239.449219 L 660.683594 245.929688 L 662 251.773438 L 662.148438 252.410156 L 663.035156 258.890625 L 663.300781 265.371094 L 662.96875 271.851562 L 662.039062 278.332031 L 662 278.503906 L 660.585938 284.8125 L 658.542969 291.292969 L 655.882812 297.773438 L 655.519531 298.519531 L 652.703125 304.253906 L 649.039062 310.546875 L 648.925781 310.734375 L 644.660156 317.214844 L 642.558594 320.15625 L 639.894531 323.695312 L 636.078125 328.5625 L 634.726562 330.175781 L 629.597656 336.289062 L 629.265625 336.65625 L 623.628906 343.136719 L 623.117188 343.769531 L 617.96875 349.617188 L 616.636719 351.320312 L 612.507812 356.097656 L 610.15625 359.34375 L 607.515625 362.578125 L 603.675781 368.652344 L 603.382812 369.058594 L 600.132812 375.539062 L 598.3125 382.019531 L 597.742188 388.5 L 598.128906 394.980469 L 599.15625 401.460938 L 600.507812 407.941406 L 601.914062 414.421875 L 603.164062 420.902344 L 603.675781 424.375 L 604.070312 427.382812 L 604.5625 433.863281 L 604.589844 440.34375 L 604.082031 446.820312 L 603.675781 449.1875 L 602.941406 453.300781 L 601.074219 459.78125 L 598.414062 466.261719 L 597.195312 468.507812 L 594.675781 472.742188 L 590.714844 477.980469 L 589.632812 479.222656 L 584.234375 484.363281 L 582.53125 485.703125 L 577.753906 488.960938 L 571.660156 492.183594 L 571.273438 492.367188 L 564.792969 494.660156 L 558.316406 496.113281 L 551.835938 496.757812 L 545.355469 496.597656 L 538.875 495.597656 L 532.394531 493.695312 L 528.917969 492.183594 L 525.914062 490.617188 L 519.433594 486.007812 L 519.085938 485.703125 L 513.542969 479.222656 L 512.953125 478.183594 L 510.253906 472.742188 L 508.507812 466.261719 L 508 459.78125 L 508.515625 453.300781 L 509.890625 446.820312 L 511.988281 440.34375 L 512.953125 438.023438 L 514.742188 433.863281 L 517.988281 427.382812 L 519.433594 424.726562 L 521.660156 420.902344 L 525.523438 414.421875 L 525.914062 413.738281 L 529.5625 407.941406 L 532.394531 402.9375 L 533.34375 401.460938 L 536.71875 394.980469 L 538.875 389.054688 L 539.109375 388.5 L 540.4375 382.019531 L 540.238281 375.539062 L 538.875 370.308594 L 538.597656 369.058594 L 535.996094 362.578125 L 532.507812 356.097656 L 532.394531 355.921875 L 528.769531 349.617188 L 525.914062 345.039062 L 524.847656 343.136719 L 521.039062 336.65625 L 519.433594 333.902344 L 517.421875 330.175781 L 514.078125 323.695312 L 512.953125 321.382812 L 511.011719 317.214844 L 508.234375 310.734375 L 506.472656 306.210938 L 505.710938 304.253906 L 503.347656 297.773438 L 501.140625 291.292969 L 499.992188 287.84375 L 498.925781 284.8125 L 496.554688 278.332031 L 493.9375 271.851562 L 493.511719 270.925781 L 490.597656 265.371094 L 487.03125 259.882812 L 486.257812 258.890625 L 480.550781 253.089844 L 479.695312 252.410156 L 474.070312 248.839844 L 467.628906 245.929688 L 467.589844 245.914062 L 461.109375 244.09375 L 454.628906 242.8125 L 448.148438 241.878906 L 441.667969 241.148438 L 428.707031 239.867188 L 424.964844 239.449219 L 422.226562 239.175781 L 415.746094 238.394531 L 409.265625 237.429688 L 402.785156 236.230469 L 396.304688 234.75 L 389.964844 232.96875 L 389.824219 232.933594 L 383.34375 230.875 L 376.863281 228.40625 L 372.535156 226.488281 L 370.382812 225.5 L 363.902344 222.15625 L 360.203125 220.007812 L 357.421875 218.242188 L 350.941406 213.703125 L 350.703125 213.527344 L 344.460938 208.277344 L 343.054688 207.046875 L 337.980469 201.648438 L 336.960938 200.566406 L 332.191406 194.085938 L 331.5 192.785156 "/>
<path style="fill:none;stroke-width:0.425197;stroke-linecap:butt;stroke-linejoin:round;stroke:rgb(20%,41.568627%,59.607843%);stroke-opacity:1;stroke-miterlimit:1;" d="M 124.128906 409.34375 L 123.707031 407.941406 L 122.035156 401.460938 L 120.652344 394.980469 L 119.550781 388.5 L 118.738281 382.019531 L 118.210938 375.539062 L 117.976562 369.058594 L 118.050781 362.578125 L 118.445312 356.097656 L 119.195312 349.617188 L 120.335938 343.136719 L 121.902344 336.65625 L 123.941406 330.175781 L 124.128906 329.667969 L 126.722656 323.695312 L 130.140625 317.214844 L 130.609375 316.421875 L 134.84375 310.734375 L 137.089844 307.996094 L 141.367188 304.253906 L 143.570312 302.394531 L 150.050781 299.019531 L 156.03125 297.773438 L 156.53125 297.664062 L 157.785156 297.773438 L 163.011719 298.195312 L 169.492188 300.542969 L 175.160156 304.253906 L 175.972656 304.757812 L 182.453125 310.5625 L 182.601562 310.734375 L 188.351562 317.214844 L 188.933594 317.867188 L 193.25 323.695312 L 195.414062 326.660156 L 197.652344 330.175781 L 201.652344 336.65625 L 201.894531 337.058594 L 205.230469 343.136719 L 208.375 349.140625 L 208.605469 349.617188 L 211.71875 356.097656 L 214.71875 362.578125 L 214.855469 362.871094 L 217.617188 369.058594 L 220.515625 375.539062 L 221.335938 377.3125 L 223.511719 382.019531 L 226.691406 388.5 L 227.816406 390.597656 L 230.222656 394.980469 L 234.207031 401.460938 L 234.296875 401.589844 L 238.867188 407.941406 L 240.777344 410.285156 L 244.3125 414.421875 L 247.257812 417.527344 L 250.609375 420.902344 L 253.738281 423.816406 L 257.691406 427.382812 L 260.21875 429.5625 L 265.28125 433.863281 L 266.699219 435.058594 L 272.941406 440.34375 L 273.179688 440.550781 L 279.65625 446.289062 L 280.253906 446.820312 L 286.136719 452.554688 L 286.894531 453.300781 L 292.617188 459.675781 L 292.714844 459.78125 L 297.714844 466.261719 L 299.097656 468.429688 L 301.894531 472.742188 L 305.277344 479.222656 L 305.578125 479.96875 L 308 485.703125 L 310.027344 492.183594 L 311.40625 498.664062 L 312.058594 504.277344 L 312.167969 505.144531 L 312.292969 511.625 L 312.058594 514.355469 L 311.722656 518.105469 L 310.359375 524.585938 L 308.042969 531.066406 L 305.578125 535.785156 L 304.527344 537.546875 L 299.347656 544.027344 L 299.097656 544.28125 L 292.617188 549.695312 L 291.359375 550.507812 L 286.136719 553.445312 L 279.65625 556.035156 L 275.976562 556.988281 L 273.179688 557.671875 L 266.699219 558.515625 L 260.21875 558.65625 L 253.738281 558.152344 L 247.257812 557.0625 L 246.972656 556.988281 L 240.777344 555.527344 L 234.296875 553.539062 L 227.816406 551.089844 L 226.523438 550.507812 L 221.335938 548.351562 L 214.855469 545.222656 L 212.695312 544.027344 L 208.375 541.761719 L 201.894531 537.867188 L 201.417969 537.546875 L 195.414062 533.574219 L 192.058594 531.066406 L 188.933594 528.691406 L 184.117188 524.585938 L 182.453125 523.101562 L 177.390625 518.105469 L 175.972656 516.597656 L 171.664062 511.625 L 169.492188 508.863281 L 166.738281 505.144531 L 163.011719 499.519531 L 162.464844 498.664062 L 158.699219 492.183594 L 156.53125 488.058594 L 155.3125 485.703125 L 152.203125 479.222656 L 150.050781 474.453125 L 149.277344 472.742188 L 146.449219 466.261719 L 143.679688 459.78125 L 143.570312 459.519531 L 140.910156 453.300781 L 138.160156 446.820312 L 137.089844 444.28125 L 135.425781 440.34375 L 132.765625 433.863281 L 130.609375 428.390625 L 130.210938 427.382812 L 127.820312 420.902344 L 125.648438 414.421875 L 124.128906 409.34375 "/>
<path style="fill:none;stroke-width:0.425197;stroke-linecap:butt;stroke-linejoin:round;stroke:rgb(20%,41.568627%,59.607843%);stroke-opacity:1;stroke-miterlimit:1;" d="M 350.941406 191.628906 L 348.644531 187.605469 L 346.289062 181.125 L 345.195312 174.644531 L 345.285156 168.164062 L 346.582031 161.683594 L 349.191406 155.207031 L 350.941406 152.332031 L 353.207031 148.726562 L 357.421875 143.804688 L 358.859375 142.246094 L 363.902344 137.839844 L 366.570312 135.765625 L 370.382812 133.199219 L 376.863281 129.457031 L 377.203125 129.285156 L 383.34375 126.402344 L 389.824219 123.90625 L 393.292969 122.804688 L 396.304688 121.863281 L 402.785156 120.222656 L 409.265625 118.972656 L 415.746094 118.078125 L 422.226562 117.523438 L 428.707031 117.300781 L 435.1875 117.414062 L 441.667969 117.878906 L 448.148438 118.71875 L 454.628906 119.972656 L 461.109375 121.6875 L 464.453125 122.804688 L 467.589844 123.878906 L 474.070312 126.589844 L 479.410156 129.285156 L 480.550781 129.890625 L 487.03125 133.769531 L 490.023438 135.765625 L 493.511719 138.246094 L 498.800781 142.246094 L 499.992188 143.214844 L 506.472656 148.523438 L 506.722656 148.726562 L 512.953125 153.972656 L 514.503906 155.207031 L 519.433594 159.226562 L 522.769531 161.683594 L 525.914062 164.011719 L 532.394531 168.160156 L 532.402344 168.164062 L 538.875 171.761719 L 544.976562 174.644531 L 545.355469 174.816406 L 551.835938 177.539062 L 558.316406 180.027344 L 561.195312 181.125 L 564.792969 182.4375 L 571.273438 184.847656 L 577.753906 187.363281 L 578.328125 187.605469 L 584.234375 190.03125 L 590.714844 192.929688 L 593.058594 194.085938 L 597.195312 196.113281 L 603.675781 199.644531 L 605.214844 200.566406 L 610.15625 203.605469 L 615.179688 207.046875 L 616.636719 208.097656 L 623.117188 213.28125 L 623.402344 213.527344 L 629.597656 219.449219 L 630.136719 220.007812 L 635.628906 226.488281 L 636.078125 227.113281 L 640.039062 232.96875 L 642.558594 237.636719 L 643.5 239.449219 L 646.089844 245.929688 L 647.882812 252.410156 L 648.921875 258.890625 L 649.039062 261.175781 L 649.257812 265.371094 L 649.039062 269.195312 L 648.890625 271.851562 L 647.839844 278.332031 L 646.101562 284.8125 L 643.65625 291.292969 L 642.558594 293.605469 L 640.492188 297.773438 L 636.609375 304.253906 L 636.078125 305.039062 L 631.949219 310.734375 L 629.597656 313.683594 L 626.503906 317.214844 L 623.117188 320.898438 L 620.230469 323.695312 L 616.636719 327.152344 L 613.027344 330.175781 L 610.15625 332.65625 L 604.695312 336.65625 L 603.675781 337.457031 L 597.195312 341.652344 L 594.199219 343.136719 L 590.714844 345.101562 L 584.234375 347.640625 L 577.753906 349.03125 L 571.273438 349.207031 L 564.792969 348.082031 L 558.316406 345.511719 L 554.542969 343.136719 L 551.835938 341.546875 L 545.832031 336.65625 L 545.355469 336.273438 L 539.355469 330.175781 L 538.875 329.671875 L 534.089844 323.695312 L 532.394531 321.417969 L 529.640625 317.214844 L 525.914062 310.878906 L 525.832031 310.734375 L 522.621094 304.253906 L 519.828125 297.773438 L 519.433594 296.75 L 517.375 291.292969 L 515.171875 284.8125 L 513.121094 278.332031 L 512.953125 277.789062 L 511.046875 271.851562 L 508.863281 265.371094 L 506.472656 259.035156 L 506.410156 258.890625 L 503.28125 252.410156 L 499.992188 247.011719 L 499.1875 245.929688 L 493.511719 239.882812 L 492.96875 239.449219 L 487.03125 235.605469 L 480.683594 232.96875 L 480.550781 232.921875 L 474.070312 231.34375 L 467.589844 230.402344 L 461.109375 229.871094 L 454.628906 229.574219 L 448.148438 229.390625 L 441.667969 229.222656 L 435.1875 228.996094 L 428.707031 228.640625 L 422.226562 228.105469 L 415.746094 227.335938 L 410.53125 226.488281 L 409.265625 226.289062 L 402.785156 224.949219 L 396.304688 223.238281 L 389.824219 221.09375 L 387.066406 220.007812 L 383.34375 218.460938 L 376.863281 215.269531 L 373.800781 213.527344 L 370.382812 211.351562 L 364.457031 207.046875 L 363.902344 206.570312 L 357.523438 200.566406 L 357.421875 200.445312 L 352.34375 194.085938 L 350.941406 191.628906 "/>
<path style="fill:none;stroke-width:0.425197;stroke-linecap:butt;stroke-linejoin:round;stroke:rgb(20%,41.568627%,59.607843%);stroke-opacity:1;stroke-miterlimit:1;" d="M 538.875 458.824219 L 538.164062 453.300781 L 538.875 448.953125 L 539.316406 446.820312 L 542.523438 440.34375 L 545.355469 436.28125 L 547.730469 433.863281 L 551.835938 430.363281 L 558.039062 427.382812 L 558.316406 427.257812 L 564.792969 427.105469 L 565.402344 427.382812 L 571.273438 430.972656 L 573.359375 433.863281 L 576.023438 440.34375 L 576.621094 446.820312 L 575.335938 453.300781 L 572.246094 459.78125 L 571.273438 461.046875 L 565.59375 466.261719 L 564.792969 466.796875 L 558.316406 469.144531 L 551.835938 469.425781 L 545.355469 467.328125 L 543.871094 466.261719 L 539.058594 459.78125 L 538.875 458.824219 "/>
<path style="fill:none;stroke-width:0.425197;stroke-linecap:butt;stroke-linejoin:round;stroke:rgb(24.313725%,50.588235%,71.764706%);stroke-opacity:1;stroke-miterlimit:1;" d="M 137.089844 407.804688 L 135.480469 401.460938 L 134.152344 394.980469 L 133.160156 388.5 L 132.53125 382.019531 L 132.292969 375.539062 L 132.46875 369.058594 L 133.105469 362.578125 L 134.253906 356.097656 L 135.976562 349.617188 L 137.089844 346.488281 L 138.625 343.136719 L 142.480469 336.65625 L 143.570312 335.148438 L 149.0625 330.175781 L 150.050781 329.402344 L 156.53125 326.855469 L 163.011719 326.6875 L 169.492188 328.59375 L 172.15625 330.175781 L 175.972656 332.441406 L 180.773438 336.65625 L 182.453125 338.15625 L 186.722656 343.136719 L 188.933594 345.789062 L 191.5625 349.617188 L 195.414062 355.421875 L 195.804688 356.097656 L 199.417969 362.578125 L 201.894531 367.132812 L 202.84375 369.058594 L 205.992188 375.539062 L 208.375 380.386719 L 209.132812 382.019531 L 212.238281 388.5 L 214.855469 393.5625 L 215.574219 394.980469 L 219.175781 401.460938 L 221.335938 404.878906 L 223.296875 407.941406 L 227.816406 414.054688 L 228.09375 414.421875 L 233.675781 420.902344 L 234.296875 421.542969 L 240.132812 427.382812 L 240.777344 427.972656 L 247.257812 433.789062 L 247.335938 433.863281 L 253.738281 439.332031 L 254.929688 440.34375 L 260.21875 444.894531 L 262.433594 446.820312 L 266.699219 450.75 L 269.40625 453.300781 L 273.179688 457.242188 L 275.554688 459.78125 L 279.65625 464.890625 L 280.746094 466.261719 L 284.953125 472.742188 L 286.136719 475.09375 L 288.226562 479.222656 L 290.597656 485.703125 L 292.101562 492.183594 L 292.617188 497.402344 L 292.75 498.664062 L 292.617188 502.226562 L 292.503906 505.144531 L 291.257812 511.625 L 288.824219 518.105469 L 286.136719 522.71875 L 284.8125 524.585938 L 279.65625 529.894531 L 278.132812 531.066406 L 273.179688 534.164062 L 266.699219 536.824219 L 263.710938 537.546875 L 260.21875 538.308594 L 253.738281 538.902344 L 247.257812 538.765625 L 240.777344 537.996094 L 238.660156 537.546875 L 234.296875 536.675781 L 227.816406 534.859375 L 221.335938 532.542969 L 217.972656 531.066406 L 214.855469 529.722656 L 208.375 526.378906 L 205.40625 524.585938 L 201.894531 522.414062 L 195.882812 518.105469 L 195.414062 517.75 L 188.933594 512.164062 L 188.371094 511.625 L 182.453125 505.398438 L 182.234375 505.144531 L 177.152344 498.664062 L 175.972656 496.976562 L 172.835938 492.183594 L 169.492188 486.445312 L 169.078125 485.703125 L 165.792969 479.222656 L 163.011719 473.285156 L 162.761719 472.742188 L 159.964844 466.261719 L 157.230469 459.78125 L 156.53125 458.113281 L 154.546875 453.300781 L 151.855469 446.820312 L 150.050781 442.554688 L 149.132812 440.34375 L 146.480469 433.863281 L 143.835938 427.382812 L 143.570312 426.703125 L 141.40625 420.902344 L 139.160156 414.421875 L 137.125 407.941406 L 137.089844 407.804688 "/>
<path style="fill:none;stroke-width:0.425197;stroke-linecap:butt;stroke-linejoin:round;stroke:rgb(24.313725%,50.588235%,71.764706%);stroke-opacity:1;stroke-miterlimit:1;" d="M 363.902344 184.035156 L 362.726562 181.125 L 361.570312 174.644531 L 361.847656 168.164062 L 363.605469 161.683594 L 363.902344 161.078125 L 366.964844 155.207031 L 370.382812 150.851562 L 372.230469 148.726562 L 376.863281 144.648438 L 380.035156 142.246094 L 383.34375 140.144531 L 389.824219 136.703125 L 391.980469 135.765625 L 396.304688 134.050781 L 402.785156 132.023438 L 409.265625 130.515625 L 415.746094 129.484375 L 417.988281 129.285156 L 422.226562 128.90625 L 428.707031 128.761719 L 435.1875 129.054688 L 437.210938 129.285156 L 441.667969 129.804688 L 448.148438 131.035156 L 454.628906 132.789062 L 461.109375 135.097656 L 462.648438 135.765625 L 467.589844 138.09375 L 474.070312 141.742188 L 474.867188 142.246094 L 480.550781 146.269531 L 483.742188 148.726562 L 487.03125 151.632812 L 490.976562 155.207031 L 493.511719 157.886719 L 497.246094 161.683594 L 499.992188 164.941406 L 503 168.164062 L 506.472656 172.425781 L 508.628906 174.644531 L 512.953125 179.539062 L 514.785156 181.125 L 519.433594 185.328125 L 523.238281 187.605469 L 525.914062 189.199219 L 532.394531 191.703125 L 538.875 193.328125 L 542.523438 194.085938 L 545.355469 194.648438 L 551.835938 195.914062 L 558.316406 197.210938 L 564.792969 198.65625 L 571.273438 200.332031 L 572.015625 200.566406 L 577.753906 202.351562 L 584.234375 204.699219 L 589.820312 207.046875 L 590.714844 207.429688 L 597.195312 210.679688 L 602.132812 213.527344 L 603.675781 214.464844 L 610.15625 218.988281 L 611.453125 220.007812 L 616.636719 224.511719 L 618.664062 226.488281 L 623.117188 231.492188 L 624.308594 232.96875 L 628.625 239.449219 L 629.597656 241.332031 L 631.808594 245.929688 L 634 252.410156 L 635.285156 258.890625 L 635.691406 265.371094 L 635.242188 271.851562 L 633.9375 278.332031 L 631.78125 284.8125 L 629.597656 289.566406 L 628.734375 291.292969 L 624.675781 297.773438 L 623.117188 299.886719 L 619.488281 304.253906 L 616.636719 307.324219 L 612.949219 310.734375 L 610.15625 313.167969 L 604.542969 317.214844 L 603.675781 317.828125 L 597.195312 321.488281 L 591.847656 323.695312 L 590.714844 324.179688 L 584.234375 325.921875 L 577.753906 326.617188 L 571.273438 326.195312 L 564.792969 324.554688 L 562.867188 323.695312 L 558.316406 321.605469 L 551.917969 317.214844 L 551.835938 317.152344 L 545.355469 310.875 L 545.234375 310.734375 L 540.324219 304.253906 L 538.875 302.035156 L 536.429688 297.773438 L 533.265625 291.292969 L 532.394531 289.199219 L 530.683594 284.8125 L 528.511719 278.332031 L 526.613281 271.851562 L 525.914062 269.1875 L 524.898438 265.371094 L 523.265625 258.890625 L 521.597656 252.410156 L 519.785156 245.929688 L 519.433594 244.722656 L 517.648438 239.449219 L 514.984375 232.96875 L 512.953125 228.949219 L 511.265625 226.488281 L 506.472656 221.105469 L 504.828125 220.007812 L 499.992188 217.339844 L 493.511719 215.753906 L 487.03125 215.257812 L 480.550781 215.34375 L 474.070312 215.742188 L 467.589844 216.296875 L 461.109375 216.898438 L 454.628906 217.464844 L 448.148438 217.933594 L 441.667969 218.242188 L 435.1875 218.347656 L 428.707031 218.203125 L 422.226562 217.765625 L 415.746094 216.988281 L 409.265625 215.828125 L 402.785156 214.234375 L 400.550781 213.527344 L 396.304688 212.078125 L 389.824219 209.3125 L 385.464844 207.046875 L 383.34375 205.769531 L 376.863281 201.183594 L 376.089844 200.566406 L 370.382812 194.835938 L 369.703125 194.085938 L 365.386719 187.605469 L 363.902344 184.035156 "/>
<path style="fill:none;stroke-width:0.425197;stroke-linecap:butt;stroke-linejoin:round;stroke:rgb(29.019608%,60%,84.313725%);stroke-opacity:1;stroke-miterlimit:1;" d="M 150.050781 393.789062 L 149.585938 388.5 L 149.589844 382.019531 L 150.050781 377.476562 L 150.335938 375.539062 L 152.390625 369.058594 L 155.960938 362.578125 L 156.53125 361.835938 L 163.011719 358.179688 L 169.492188 358.664062 L 175.972656 362.152344 L 176.417969 362.578125 L 182.453125 368.488281 L 182.875 369.058594 L 187.507812 375.539062 L 188.933594 377.5625 L 191.453125 382.019531 L 195.199219 388.5 L 195.414062 388.863281 L 198.5 394.980469 L 201.894531 400.972656 L 202.148438 401.460938 L 205.828125 407.941406 L 208.375 411.671875 L 210.175781 414.421875 L 214.855469 420.335938 L 215.300781 420.902344 L 221.285156 427.382812 L 221.335938 427.425781 L 227.816406 433.53125 L 228.171875 433.863281 L 234.296875 439.105469 L 235.75 440.34375 L 240.777344 444.484375 L 243.585938 446.820312 L 247.257812 449.945312 L 251.097656 453.300781 L 253.738281 455.800781 L 257.789062 459.78125 L 260.21875 462.53125 L 263.382812 466.261719 L 266.699219 471.074219 L 267.808594 472.742188 L 270.988281 479.222656 L 273.039062 485.703125 L 273.179688 486.835938 L 273.824219 492.183594 L 273.324219 498.664062 L 273.179688 499.183594 L 271.164062 505.144531 L 266.90625 511.625 L 266.699219 511.847656 L 260.21875 516.855469 L 257.632812 518.105469 L 253.738281 519.605469 L 247.257812 520.910156 L 240.777344 521.191406 L 234.296875 520.628906 L 227.816406 519.324219 L 223.910156 518.105469 L 221.335938 517.28125 L 214.855469 514.46875 L 209.621094 511.625 L 208.375 510.898438 L 201.894531 506.324219 L 200.46875 505.144531 L 195.414062 500.503906 L 193.652344 498.664062 L 188.933594 493.070312 L 188.257812 492.183594 L 183.949219 485.703125 L 182.453125 483.117188 L 180.351562 479.222656 L 177.25 472.742188 L 175.972656 469.777344 L 174.523438 466.261719 L 172.039062 459.78125 L 169.539062 453.300781 L 169.492188 453.179688 L 167.21875 446.820312 L 164.765625 440.34375 L 163.011719 435.988281 L 162.210938 433.863281 L 159.773438 427.382812 L 157.238281 420.902344 L 156.53125 419 L 155.015625 414.421875 L 153.082031 407.941406 L 151.425781 401.460938 L 150.171875 394.980469 L 150.050781 393.789062 "/>
<path style="fill:none;stroke-width:0.425197;stroke-linecap:butt;stroke-linejoin:round;stroke:rgb(29.019608%,60%,84.313725%);stroke-opacity:1;stroke-miterlimit:1;" d="M 383.34375 188.960938 L 382.234375 187.605469 L 378.894531 181.125 L 377.535156 174.644531 L 378.085938 168.164062 L 380.605469 161.683594 L 383.34375 157.796875 L 385.449219 155.207031 L 389.824219 151.441406 L 393.6875 148.726562 L 396.304688 147.257812 L 402.785156 144.390625 L 409.265625 142.296875 L 409.507812 142.246094 L 415.746094 141.039062 L 422.226562 140.382812 L 428.707031 140.304688 L 435.1875 140.808594 L 441.667969 141.902344 L 443 142.246094 L 448.148438 143.742188 L 454.628906 146.3125 L 459.441406 148.726562 L 461.109375 149.734375 L 467.589844 154.320312 L 468.710938 155.207031 L 474.070312 160.585938 L 475.113281 161.683594 L 479.640625 168.164062 L 480.550781 170.257812 L 482.582031 174.644531 L 483.789062 181.125 L 482.695312 187.605469 L 480.550781 190.847656 L 478.050781 194.085938 L 474.070312 196.835938 L 467.589844 200.449219 L 467.339844 200.566406 L 461.109375 202.761719 L 454.628906 204.585938 L 448.148438 205.976562 L 441.667969 206.945312 L 440.460938 207.046875 L 435.1875 207.441406 L 428.707031 207.519531 L 422.226562 207.164062 L 421.328125 207.046875 L 415.746094 206.257812 L 409.265625 204.761719 L 402.785156 202.636719 L 398 200.566406 L 396.304688 199.671875 L 389.824219 195.417969 L 388.132812 194.085938 L 383.34375 188.960938 "/>
<path style="fill:none;stroke-width:0.425197;stroke-linecap:butt;stroke-linejoin:round;stroke:rgb(29.019608%,60%,84.313725%);stroke-opacity:1;stroke-miterlimit:1;" d="M 545.355469 279.285156 L 544.96875 278.332031 L 542.894531 271.851562 L 541.316406 265.371094 L 540.175781 258.890625 L 539.441406 252.410156 L 539.152344 245.929688 L 539.4375 239.449219 L 540.605469 232.96875 L 543.398438 226.488281 L 545.355469 224.046875 L 550.707031 220.007812 L 551.835938 219.464844 L 558.316406 217.6875 L 564.792969 217.171875 L 571.273438 217.574219 L 577.753906 218.730469 L 582.199219 220.007812 L 584.234375 220.621094 L 590.714844 223.339844 L 596.667969 226.488281 L 597.195312 226.796875 L 603.675781 231.476562 L 605.414062 232.96875 L 610.15625 237.757812 L 611.597656 239.449219 L 615.964844 245.929688 L 616.636719 247.3125 L 618.8125 252.410156 L 620.441406 258.890625 L 620.933594 265.371094 L 620.296875 271.851562 L 618.539062 278.332031 L 616.636719 282.667969 L 615.539062 284.8125 L 611.054688 291.292969 L 610.15625 292.351562 L 604.519531 297.773438 L 603.675781 298.480469 L 597.195312 302.675781 L 593.671875 304.253906 L 590.714844 305.492188 L 584.234375 306.988281 L 577.753906 307.222656 L 571.273438 306.109375 L 566.601562 304.253906 L 564.792969 303.445312 L 558.316406 298.835938 L 557.222656 297.773438 L 551.835938 291.550781 L 551.65625 291.292969 L 547.890625 284.8125 L 545.355469 279.285156 "/>
<path style="fill:none;stroke-width:0.425197;stroke-linecap:butt;stroke-linejoin:round;stroke:rgb(33.72549%,69.411765%,96.862745%);stroke-opacity:1;stroke-miterlimit:1;" d="M 195.414062 470.976562 L 193.894531 466.261719 L 192.542969 459.78125 L 191.957031 453.300781 L 192.554688 446.820312 L 195.414062 441.261719 L 201.894531 440.796875 L 208.375 443.226562 L 214.855469 446.402344 L 215.515625 446.820312 L 221.335938 450.285156 L 226 453.300781 L 227.816406 454.5 L 234.296875 459.316406 L 234.859375 459.78125 L 240.777344 465.300781 L 241.722656 466.261719 L 246.792969 472.742188 L 247.257812 473.640625 L 249.84375 479.222656 L 250.980469 485.703125 L 249.632812 492.183594 L 247.257812 495.589844 L 243.496094 498.664062 L 240.777344 499.949219 L 234.296875 501.097656 L 227.816406 500.640625 L 221.335938 498.90625 L 220.804688 498.664062 L 214.855469 495.484375 L 210.195312 492.183594 L 208.375 490.613281 L 203.773438 485.703125 L 201.894531 483.199219 L 199.34375 479.222656 L 196.050781 472.742188 L 195.414062 470.976562 "/>
<path style="fill:none;stroke-width:0.425197;stroke-linecap:butt;stroke-linejoin:round;stroke:rgb(33.72549%,69.411765%,96.862745%);stroke-opacity:1;stroke-miterlimit:1;" d="M 402.785156 186.105469 L 398.546875 181.125 L 396.417969 174.644531 L 397.644531 168.164062 L 402.335938 161.683594 L 402.785156 161.324219 L 409.265625 157.421875 L 414.960938 155.207031 L 415.746094 154.976562 L 422.226562 154.035156 L 428.707031 154.007812 L 435.1875 154.878906 L 436.402344 155.207031 L 441.667969 157.078125 L 448.148438 160.507812 L 449.867188 161.683594 L 454.628906 166.75 L 455.769531 168.164062 L 458.050781 174.644531 L 457.109375 181.125 L 454.628906 184.53125 L 451.773438 187.605469 L 448.148438 189.714844 L 441.667969 192.410156 L 435.1875 194.03125 L 434.589844 194.085938 L 428.707031 194.507812 L 422.226562 194.210938 L 421.484375 194.085938 L 415.746094 192.828125 L 409.265625 190.320312 L 404.457031 187.605469 L 402.785156 186.105469 "/>
<path style="fill:none;stroke-width:0.425197;stroke-linecap:butt;stroke-linejoin:round;stroke:rgb(33.72549%,69.411765%,96.862745%);stroke-opacity:1;stroke-miterlimit:1;" d="M 564.792969 270.898438 L 563.0625 265.371094 L 562.421875 258.890625 L 563.351562 252.410156 L 564.792969 249.121094 L 567.234375 245.929688 L 571.273438 243.117188 L 577.753906 241.824219 L 584.234375 242.953125 L 590.582031 245.929688 L 590.714844 246.011719 L 596.957031 252.410156 L 597.195312 252.816406 L 599.71875 258.890625 L 600.378906 265.371094 L 598.898438 271.851562 L 597.195312 274.921875 L 594.273438 278.332031 L 590.714844 281.039062 L 584.234375 283.289062 L 577.753906 282.8125 L 571.273438 279.515625 L 570.015625 278.332031 L 565.207031 271.851562 L 564.792969 270.898438 "/>
</g>
</svg>
