<?xml version="1.0" encoding="UTF-8"?>
<svg xmlns="http://www.w3.org/2000/svg" xmlns:xlink="http://www.w3.org/1999/xlink" width="720pt" height="720pt" viewBox="0 0 720 720" version="1.1">
<defs>
<clipPath id="clip1">
  <path d="M 14.285156 0 L 720 0 L 720 706 L 14.285156 706 Z "/>
</clipPath>
</defs>
<g id="surface86">
<rect x="0" y="0" width="720" height="720" style="fill:rgb(100%,100%,100%);fill-opacity:1;stroke:none;"/>
<rect x="0" y="0" width="720" height="720" style="fill:rgb(100%,100%,100%);fill-opacity:1;stroke:none;"/>
<path style="fill:none;stroke-width:1.062992;stroke-linecap:round;stroke-linejoin:round;stroke:rgb(100%,100%,100%);stroke-opacity:1;stroke-miterlimit:10;" d="M 0 720 L 720 720 L 720 0 L 0 0 Z "/>
<g clip-path="url(#clip1)" clip-rule="nonzero">
<path style=" stroke:none;fill-rule:nonzero;fill:rgb(100%,100%,100%);fill-opacity:1;" d="M 14.285156 705.714844 L 720 705.714844 L 720 0 L 14.285156 0 Z "/>
</g>
<path style="fill:none;stroke-width:0.425197;stroke-linecap:butt;stroke-linejoin:round;stroke:rgb(7.45098%,16.862745%,26.27451%);stroke-opacity:1;stroke-miterlimit:1;" d="M 188.933594 442.902344 L 188.414062 440.34375 L 187.933594 433.863281 L 188.320312 427.382812 L 188.933594 424.296875 L 189.867188 420.902344 L 192.992188 414.421875 L 195.414062 410.898438 L 199.160156 407.941406 L 201.894531 406.070312 L 208.375 404.371094 L 214.855469 404.460938 L 221.335938 405.417969 L 227.816406 406.027344 L 234.296875 404.515625 L 238.003906 401.460938 L 240.777344 397.484375 L 241.757812 394.980469 L 242.207031 388.5 L 240.945312 382.019531 L 240.777344 381.5625 L 238.597656 375.539062 L 236.300781 369.058594 L 234.425781 362.578125 L 234.296875 362.027344 L 232.71875 356.097656 L 231.535156 349.617188 L 230.832031 343.136719 L 230.53125 336.65625 L 230.582031 330.175781 L 230.933594 323.695312 L 231.585938 317.214844 L 232.550781 310.734375 L 233.90625 304.253906 L 234.296875 301.628906 L 234.539062 297.773438 L 234.296875 293.839844 L 227.816406 292.425781 L 224.882812 297.773438 L 221.335938 301.226562 L 218.246094 304.253906 L 214.855469 306.421875 L 208.375 308.097656 L 201.894531 306.40625 L 199.40625 304.253906 L 195.414062 300.234375 L 194.054688 297.773438 L 191.640625 291.292969 L 190.585938 284.8125 L 190.890625 278.332031 L 192.578125 271.851562 L 195.414062 266 L 195.914062 265.371094 L 201.894531 259.992188 L 204.738281 258.890625 L 208.375 257.644531 L 214.855469 257.34375 L 221.335938 257.625 L 227.816406 252.546875 L 227.847656 252.410156 L 229.507812 245.929688 L 230.796875 239.449219 L 231.925781 232.96875 L 233.027344 226.488281 L 234.21875 220.007812 L 234.296875 219.65625 L 235.332031 213.527344 L 236.726562 207.046875 L 238.53125 200.566406 L 240.777344 194.433594 L 240.894531 194.085938 L 243.65625 187.605469 L 247.257812 181.265625 L 247.339844 181.125 L 251.902344 174.644531 L 253.738281 172.429688 L 257.746094 168.164062 L 260.21875 165.753906 L 264.976562 161.683594 L 266.699219 160.257812 L 273.179688 155.390625 L 273.433594 155.207031 L 279.65625 150.699219 L 282.578125 148.726562 L 286.136719 146.316406 L 292.617188 142.378906 L 292.847656 142.246094 L 299.097656 138.605469 L 305.03125 135.765625 L 305.578125 135.488281 L 312.058594 132.523438 L 318.539062 130.167969 L 321.5625 129.285156 L 325.019531 128.132812 L 331.5 126.523438 L 337.980469 125.550781 L 344.460938 125.226562 L 350.941406 125.574219 L 357.421875 126.628906 L 363.902344 128.445312 L 366.109375 129.285156 L 370.382812 130.769531 L 376.863281 133.695312 L 380.628906 135.765625 L 383.34375 137.210938 L 389.824219 141.246094 L 391.265625 142.246094 L 396.304688 145.796875 L 399.964844 148.726562 L 402.785156 151.117188 L 407.203125 155.207031 L 409.265625 157.332031 L 413.347656 161.683594 L 415.746094 164.6875 L 418.601562 168.164062 L 422.226562 173.570312 L 423.015625 174.644531 L 426.96875 181.125 L 428.707031 184.796875 L 430.253906 187.605469 L 433.070312 194.085938 L 435.1875 200.492188 L 435.21875 200.566406 L 437.296875 207.046875 L 439.050781 213.527344 L 440.792969 220.007812 L 441.667969 222.695312 L 442.996094 226.488281 L 445.925781 232.96875 L 448.148438 236.683594 L 449.777344 239.449219 L 454.5 245.929688 L 454.628906 246.070312 L 460.457031 252.410156 L 461.109375 253.019531 L 467.589844 257.988281 L 469.457031 258.890625 L 474.070312 260.660156 L 480.550781 261.503906 L 487.03125 261.441406 L 493.511719 261.359375 L 499.992188 261.871094 L 506.472656 263.382812 L 510.976562 265.371094 L 512.953125 266.183594 L 519.433594 270.386719 L 521.09375 271.851562 L 525.914062 276.480469 L 527.519531 278.332031 L 532.269531 284.8125 L 532.394531 285.011719 L 536.308594 291.292969 L 538.875 296.773438 L 539.402344 297.773438 L 542.273438 304.253906 L 544.359375 310.734375 L 545.355469 314.902344 L 546.078125 317.214844 L 547.539062 323.695312 L 548.433594 330.175781 L 548.863281 336.65625 L 548.898438 343.136719 L 548.582031 349.617188 L 547.917969 356.097656 L 546.898438 362.578125 L 545.46875 369.058594 L 545.355469 369.472656 L 543.996094 375.539062 L 542.109375 382.019531 L 539.667969 388.5 L 538.875 390.320312 L 537.019531 394.980469 L 533.957031 401.460938 L 532.394531 404.417969 L 530.625 407.941406 L 527.117188 414.421875 L 525.914062 416.570312 L 523.59375 420.902344 L 519.988281 427.382812 L 519.433594 428.378906 L 516.464844 433.863281 L 512.953125 439.878906 L 512.671875 440.34375 L 508.640625 446.820312 L 506.472656 449.992188 L 503.917969 453.300781 L 499.992188 458.015625 L 498.214844 459.78125 L 493.511719 464.359375 L 491.167969 466.261719 L 487.03125 469.859375 L 483.789062 472.742188 L 480.550781 476.261719 L 478.609375 479.222656 L 475.636719 485.703125 L 474.070312 490.738281 L 473.789062 492.183594 L 472.839844 498.664062 L 472.058594 505.144531 L 471.261719 511.625 L 470.292969 518.105469 L 469.003906 524.585938 L 467.589844 529.816406 L 467.324219 531.066406 L 465.53125 537.546875 L 462.972656 544.027344 L 461.109375 547.625 L 459.671875 550.507812 L 455.421875 556.988281 L 454.628906 558.019531 L 449.792969 563.46875 L 448.148438 565.082031 L 441.667969 569.84375 L 441.457031 569.949219 L 435.1875 573.296875 L 428.707031 575.1875 L 422.226562 575.972656 L 415.746094 575.890625 L 409.265625 575.089844 L 402.785156 573.671875 L 396.304688 571.824219 L 390.066406 569.949219 L 389.824219 569.886719 L 383.34375 568.628906 L 376.863281 567.902344 L 370.382812 567.71875 L 363.902344 567.832031 L 357.421875 567.933594 L 350.941406 567.769531 L 344.460938 567.191406 L 337.980469 566.132812 L 331.5 564.5625 L 327.917969 563.46875 L 325.019531 562.695312 L 318.539062 560.660156 L 312.058594 558.199219 L 309.234375 556.988281 L 305.578125 555.484375 L 299.097656 552.238281 L 296.289062 550.507812 L 292.617188 548.136719 L 287.597656 544.027344 L 286.136719 542.683594 L 281.398438 537.546875 L 279.65625 535.289062 L 276.648438 531.066406 L 273.179688 524.996094 L 272.941406 524.585938 L 269.671875 518.105469 L 267.027344 511.625 L 266.699219 510.710938 L 264.402344 505.144531 L 261.976562 498.664062 L 260.21875 493.769531 L 259.511719 492.183594 L 256.585938 485.703125 L 253.738281 479.683594 L 253.445312 479.222656 L 249.246094 472.742188 L 247.257812 469.707031 L 243.867188 466.261719 L 240.777344 462.960938 L 234.765625 459.78125 L 234.296875 459.5 L 227.816406 459.039062 L 225.296875 459.78125 L 221.335938 460.769531 L 214.855469 463.003906 L 208.375 464.285156 L 201.894531 463.117188 L 197.460938 459.78125 L 195.414062 457.855469 L 192.710938 453.300781 L 189.953125 446.820312 L 188.933594 442.902344 "/>
<path style="fill:none;stroke-width:0.425197;stroke-linecap:butt;stroke-linejoin:round;stroke:rgb(10.588235%,22.745098%,34.117647%);stroke-opacity:1;stroke-miterlimit:1;" d="M 253.738281 246.667969 L 253.546875 245.929688 L 252.332031 239.449219 L 251.644531 232.96875 L 251.476562 226.488281 L 251.847656 220.007812 L 252.8125 213.527344 L 253.738281 209.832031 L 254.457031 207.046875 L 256.929688 200.566406 L 260.21875 194.40625 L 260.410156 194.085938 L 265.210938 187.605469 L 266.699219 185.914062 L 271.375 181.125 L 273.179688 179.457031 L 278.5625 174.644531 L 279.65625 173.726562 L 286.136719 168.199219 L 286.175781 168.164062 L 292.617188 162.808594 L 293.988281 161.683594 L 299.097656 157.789062 L 302.785156 155.207031 L 305.578125 153.355469 L 312.058594 149.59375 L 313.816406 148.726562 L 318.539062 146.402344 L 325.019531 143.929688 L 331.386719 142.246094 L 331.5 142.210938 L 337.980469 141.121094 L 344.460938 140.902344 L 350.941406 141.589844 L 353.644531 142.246094 L 357.421875 143.117188 L 363.902344 145.457031 L 370.382812 148.699219 L 370.429688 148.726562 L 376.863281 152.535156 L 380.695312 155.207031 L 383.34375 157.160156 L 388.800781 161.683594 L 389.824219 162.621094 L 395.363281 168.164062 L 396.304688 169.257812 L 400.65625 174.644531 L 402.785156 177.90625 L 404.847656 181.125 L 408.085938 187.605469 L 409.265625 190.757812 L 410.597656 194.085938 L 412.484375 200.566406 L 413.746094 207.046875 L 414.542969 213.527344 L 415.035156 220.007812 L 415.441406 226.488281 L 415.746094 229.605469 L 416.1875 232.96875 L 418.152344 239.449219 L 422.226562 244.789062 L 423.316406 245.929688 L 428.707031 249.253906 L 433.316406 252.410156 L 435.1875 253.347656 L 441.667969 257.742188 L 443.011719 258.890625 L 448.148438 262.792969 L 451.035156 265.371094 L 454.628906 268.441406 L 458.628906 271.851562 L 461.109375 273.953125 L 467.589844 278.3125 L 467.644531 278.332031 L 474.070312 280.417969 L 480.550781 280.570312 L 487.03125 279.734375 L 493.511719 279.070312 L 499.992188 279.351562 L 506.472656 281.070312 L 512.953125 284.726562 L 513.058594 284.8125 L 519.433594 290.75 L 519.878906 291.292969 L 524.445312 297.773438 L 525.914062 300.390625 L 527.898438 304.253906 L 530.496094 310.734375 L 532.394531 317.15625 L 532.410156 317.214844 L 533.980469 323.695312 L 535.027344 330.175781 L 535.628906 336.65625 L 535.824219 343.136719 L 535.628906 349.617188 L 535.027344 356.097656 L 533.988281 362.578125 L 532.460938 369.058594 L 532.394531 369.277344 L 530.550781 375.539062 L 528.097656 382.019531 L 525.914062 386.757812 L 525.0625 388.5 L 521.566406 394.980469 L 519.433594 398.617188 L 517.613281 401.460938 L 513.4375 407.941406 L 512.953125 408.714844 L 509 414.421875 L 506.472656 418.230469 L 504.390625 420.902344 L 499.992188 426.832031 L 499.457031 427.382812 L 493.511719 433.730469 L 493.324219 433.863281 L 487.03125 438.390625 L 482.035156 440.34375 L 480.550781 440.96875 L 474.070312 441.957031 L 467.589844 442.707031 L 462.65625 446.820312 L 461.109375 449.867188 L 460.496094 453.300781 L 459.980469 459.78125 L 459.902344 466.261719 L 460.0625 472.742188 L 460.339844 479.222656 L 460.636719 485.703125 L 460.871094 492.183594 L 460.972656 498.664062 L 460.871094 505.144531 L 460.496094 511.625 L 459.761719 518.105469 L 458.554688 524.585938 L 456.710938 531.066406 L 454.628906 536.183594 L 454.082031 537.546875 L 450.660156 544.027344 L 448.148438 547.617188 L 445.726562 550.507812 L 441.667969 554.546875 L 438.152344 556.988281 L 435.1875 558.9375 L 428.707031 561.519531 L 422.226562 562.617188 L 415.746094 562.582031 L 409.265625 561.605469 L 402.785156 559.859375 L 396.304688 557.59375 L 394.535156 556.988281 L 389.824219 555.5 L 383.34375 553.910156 L 376.863281 553.0625 L 370.382812 552.9375 L 363.902344 553.191406 L 357.421875 553.394531 L 350.941406 553.230469 L 344.460938 552.5 L 337.980469 551.097656 L 336.070312 550.507812 L 331.5 549.203125 L 325.019531 546.746094 L 319.355469 544.027344 L 318.539062 543.632812 L 312.058594 540.085938 L 308.191406 537.546875 L 305.578125 535.664062 L 300.140625 531.066406 L 299.097656 530.023438 L 294.257812 524.585938 L 292.617188 522.238281 L 289.890625 518.105469 L 286.675781 511.625 L 286.136719 510.210938 L 284.101562 505.144531 L 282.117188 498.664062 L 280.597656 492.183594 L 279.65625 487.148438 L 279.332031 485.703125 L 278.054688 479.222656 L 276.875 472.742188 L 275.746094 466.261719 L 274.691406 459.78125 L 273.789062 453.300781 L 273.179688 446.953125 L 273.160156 446.820312 L 272.902344 440.34375 L 273.179688 436.011719 L 273.289062 433.863281 L 274.203125 427.382812 L 275.722656 420.902344 L 277.824219 414.421875 L 279.65625 409.828125 L 280.328125 407.941406 L 282.925781 401.460938 L 285.898438 394.980469 L 286.136719 394.414062 L 288.773438 388.5 L 291.765625 382.019531 L 292.617188 379.6875 L 294.527344 375.539062 L 296.601562 369.058594 L 296.542969 362.578125 L 292.617188 358.4375 L 286.800781 356.097656 L 286.136719 355.9375 L 279.65625 354.773438 L 273.179688 352.960938 L 267.667969 349.617188 L 266.699219 348.828125 L 263.167969 343.136719 L 261.386719 336.65625 L 261.476562 330.175781 L 262.855469 323.695312 L 264.84375 317.214844 L 266.699219 310.859375 L 266.738281 310.734375 L 268.0625 304.253906 L 268.183594 297.773438 L 267.328125 291.292969 L 266.699219 288.828125 L 265.757812 284.8125 L 263.71875 278.332031 L 261.507812 271.851562 L 260.21875 268.136719 L 259.203125 265.371094 L 256.964844 258.890625 L 255.074219 252.410156 L 253.738281 246.667969 "/>
<path style="fill:none;stroke-width:0.425197;stroke-linecap:butt;stroke-linejoin:round;stroke:rgb(10.588235%,22.745098%,34.117647%);stroke-opacity:1;stroke-miterlimit:1;" d="M 325.019531 362.414062 L 319.6875 356.097656 L 318.945312 349.617188 L 320.386719 343.136719 L 323.117188 336.65625 L 325.019531 333.558594 L 326.585938 330.175781 L 330.640625 323.695312 L 331.5 322.648438 L 335.300781 317.214844 L 337.980469 314.128906 L 340.710938 310.734375 L 344.460938 306.757812 L 346.832031 304.253906 L 350.941406 300.367188 L 353.984375 297.773438 L 357.421875 295.03125 L 363.367188 291.292969 L 363.902344 290.964844 L 370.382812 289.285156 L 374.554688 291.292969 L 376.863281 294.425781 L 377.496094 297.773438 L 377.707031 304.253906 L 377.402344 310.734375 L 376.863281 316.839844 L 376.816406 317.214844 L 375.667969 323.695312 L 374.390625 330.175781 L 372.984375 336.65625 L 371.4375 343.136719 L 370.382812 347.132812 L 369.386719 349.617188 L 366.640625 356.097656 L 363.902344 362.226562 L 363.644531 362.578125 L 358.441406 369.058594 L 357.421875 370.167969 L 350.941406 373.144531 L 344.460938 372.898438 L 337.980469 370.664062 L 334.558594 369.058594 L 331.5 367.015625 L 325.144531 362.578125 L 325.019531 362.414062 "/>
<path style="fill:none;stroke-width:0.425197;stroke-linecap:butt;stroke-linejoin:round;stroke:rgb(13.333333%,28.627451%,42.352941%);stroke-opacity:1;stroke-miterlimit:1;" d="M 266.699219 239.273438 L 266.101562 232.96875 L 266.144531 226.488281 L 266.699219 221.894531 L 266.945312 220.007812 L 268.699219 213.527344 L 271.5 207.046875 L 273.179688 204.199219 L 275.488281 200.566406 L 279.65625 195.253906 L 280.554688 194.085938 L 286.136719 187.746094 L 286.25 187.605469 L 292.113281 181.125 L 292.617188 180.625 L 298.3125 174.644531 L 299.097656 173.914062 L 305.347656 168.164062 L 305.578125 167.976562 L 312.058594 163.023438 L 314.121094 161.683594 L 318.539062 159.027344 L 325.019531 156.015625 L 327.519531 155.207031 L 331.5 153.917969 L 337.980469 152.804688 L 344.460938 152.734375 L 350.941406 153.742188 L 355.507812 155.207031 L 357.421875 155.839844 L 363.902344 158.96875 L 368.28125 161.683594 L 370.382812 163.109375 L 376.847656 168.164062 L 376.863281 168.179688 L 383.34375 174.386719 L 383.59375 174.644531 L 388.933594 181.125 L 389.824219 182.457031 L 393.042969 187.605469 L 396.0625 194.085938 L 396.304688 194.8125 L 398.191406 200.566406 L 399.5 207.046875 L 400.089844 213.527344 L 400.046875 220.007812 L 399.410156 226.488281 L 398.195312 232.96875 L 396.308594 239.449219 L 396.304688 239.457031 L 393.753906 245.929688 L 389.824219 252.195312 L 389.660156 252.410156 L 383.34375 258.574219 L 382.949219 258.890625 L 376.863281 262.992188 L 373.003906 265.371094 L 370.382812 266.84375 L 363.902344 270.796875 L 362.328125 271.851562 L 357.421875 275.171875 L 353.121094 278.332031 L 350.941406 279.988281 L 344.777344 284.8125 L 344.460938 285.074219 L 337.980469 290.128906 L 336.25 291.292969 L 331.5 294.742188 L 326.050781 297.773438 L 325.019531 298.425781 L 318.539062 300.914062 L 312.058594 301.660156 L 305.578125 300.484375 L 300.1875 297.773438 L 299.097656 297.253906 L 292.617188 292.214844 L 291.792969 291.292969 L 286.136719 284.980469 L 286.023438 284.8125 L 281.574219 278.332031 L 279.65625 275.332031 L 277.78125 271.851562 L 274.582031 265.371094 L 273.179688 262.144531 L 271.859375 258.890625 L 269.648438 252.410156 L 267.921875 245.929688 L 266.714844 239.449219 L 266.699219 239.273438 "/>
<path style="fill:none;stroke-width:0.425197;stroke-linecap:butt;stroke-linejoin:round;stroke:rgb(13.333333%,28.627451%,42.352941%);stroke-opacity:1;stroke-miterlimit:1;" d="M 292.617188 486.726562 L 292.421875 485.703125 L 291.511719 479.222656 L 290.855469 472.742188 L 290.371094 466.261719 L 290.015625 459.78125 L 289.78125 453.300781 L 289.71875 446.820312 L 289.914062 440.34375 L 290.484375 433.863281 L 291.558594 427.382812 L 292.617188 423.230469 L 293.1875 420.902344 L 295.417969 414.421875 L 298.507812 407.941406 L 299.097656 406.90625 L 302.746094 401.460938 L 305.578125 397.976562 L 309.085938 394.980469 L 312.058594 392.675781 L 318.539062 390.113281 L 325.019531 389.636719 L 331.5 390.574219 L 337.980469 392.320312 L 344.460938 394.179688 L 349.277344 394.980469 L 350.941406 395.238281 L 353.5625 394.980469 L 357.421875 394.515625 L 363.902344 390.859375 L 366.097656 388.5 L 370.382812 382.730469 L 370.753906 382.019531 L 373.546875 375.539062 L 375.859375 369.058594 L 376.863281 365.898438 L 377.65625 362.578125 L 379.042969 356.097656 L 380.289062 349.617188 L 381.453125 343.136719 L 382.574219 336.65625 L 383.34375 332.277344 L 383.621094 330.175781 L 384.515625 323.695312 L 385.488281 317.214844 L 386.613281 310.734375 L 387.957031 304.253906 L 389.632812 297.773438 L 389.824219 297.074219 L 391.296875 291.292969 L 393.402344 284.8125 L 396.304688 278.566406 L 396.433594 278.332031 L 400.53125 271.851562 L 402.785156 269.410156 L 409.265625 265.574219 L 409.945312 265.371094 L 415.746094 263.664062 L 422.226562 263.398438 L 428.707031 264.519531 L 430.8125 265.371094 L 435.1875 266.828125 L 441.667969 270.523438 L 443.386719 271.851562 L 448.148438 275.457031 L 451.347656 278.332031 L 454.628906 281.429688 L 458.300781 284.8125 L 461.109375 287.648438 L 465.808594 291.292969 L 467.589844 292.832031 L 474.070312 295.617188 L 480.550781 295.757812 L 487.03125 294.472656 L 493.511719 293.378906 L 499.992188 293.621094 L 506.472656 295.917969 L 509.015625 297.773438 L 512.953125 301.101562 L 515.421875 304.253906 L 519.425781 310.734375 L 519.433594 310.746094 L 522.03125 317.214844 L 523.890625 323.695312 L 525.140625 330.175781 L 525.851562 336.65625 L 525.914062 338.605469 L 526.054688 343.136719 L 525.914062 346.289062 L 525.757812 349.617188 L 524.933594 356.097656 L 523.550781 362.578125 L 521.566406 369.058594 L 519.433594 374.410156 L 518.894531 375.539062 L 515.296875 382.019531 L 512.953125 385.796875 L 510.8125 388.5 L 506.472656 393.957031 L 505.347656 394.980469 L 499.992188 400.273438 L 498.09375 401.460938 L 493.511719 404.75 L 487.03125 406.667969 L 480.550781 405.386719 L 474.070312 401.472656 L 474.046875 401.460938 L 467.589844 398.117188 L 461.109375 397.5 L 454.628906 399.808594 L 452.390625 401.460938 L 448.148438 404.9375 L 445.722656 407.941406 L 441.898438 414.421875 L 441.667969 415.097656 L 440.335938 420.902344 L 439.992188 427.382812 L 440.464844 433.863281 L 441.441406 440.34375 L 441.667969 441.441406 L 442.988281 446.820312 L 444.660156 453.300781 L 446.28125 459.78125 L 447.800781 466.261719 L 448.148438 467.746094 L 449.421875 472.742188 L 450.84375 479.222656 L 451.980469 485.703125 L 452.8125 492.183594 L 453.316406 498.664062 L 453.445312 505.144531 L 453.140625 511.625 L 452.304688 518.105469 L 450.816406 524.585938 L 448.46875 531.066406 L 448.148438 531.742188 L 445.078125 537.546875 L 441.667969 542.21875 L 439.921875 544.027344 L 435.1875 548.121094 L 430.589844 550.507812 L 428.707031 551.4375 L 422.226562 552.964844 L 415.746094 553.003906 L 409.265625 551.839844 L 405.132812 550.507812 L 402.785156 549.78125 L 396.304688 547.316406 L 389.824219 544.839844 L 386.984375 544.027344 L 383.34375 543.035156 L 376.863281 542.214844 L 370.382812 542.226562 L 363.902344 542.644531 L 357.421875 542.980469 L 350.941406 542.863281 L 344.460938 542.082031 L 337.980469 540.523438 L 331.5 538.101562 L 330.332031 537.546875 L 325.019531 534.972656 L 318.773438 531.066406 L 318.539062 530.90625 L 312.058594 525.804688 L 310.714844 524.585938 L 305.578125 518.953125 L 304.875 518.105469 L 300.570312 511.625 L 299.097656 508.589844 L 297.433594 505.144531 L 295.132812 498.664062 L 293.542969 492.183594 L 292.617188 486.726562 "/>
<path style="fill:none;stroke-width:0.425197;stroke-linecap:butt;stroke-linejoin:round;stroke:rgb(16.862745%,35.294118%,50.980392%);stroke-opacity:1;stroke-miterlimit:1;" d="M 286.136719 256.082031 L 284.585938 252.410156 L 282.644531 245.929688 L 281.542969 239.449219 L 281.335938 232.96875 L 282.0625 226.488281 L 283.742188 220.007812 L 286.136719 214.042969 L 286.34375 213.527344 L 289.648438 207.046875 L 292.617188 202.144531 L 293.476562 200.566406 L 297.585938 194.085938 L 299.097656 192.03125 L 302.140625 187.605469 L 305.578125 183.378906 L 307.4375 181.125 L 312.058594 176.4375 L 314.042969 174.644531 L 318.539062 171.160156 L 323.441406 168.164062 L 325.019531 167.296875 L 331.5 164.824219 L 337.980469 163.613281 L 344.460938 163.722656 L 350.941406 165.195312 L 357.421875 168.011719 L 357.6875 168.164062 L 363.902344 172.316406 L 366.808594 174.644531 L 370.382812 177.988281 L 373.445312 181.125 L 376.863281 185.335938 L 378.582031 187.605469 L 382.453125 194.085938 L 383.34375 196.132812 L 385.128906 200.566406 L 386.722656 207.046875 L 387.335938 213.527344 L 386.988281 220.007812 L 385.660156 226.488281 L 383.34375 232.777344 L 383.261719 232.96875 L 379.324219 239.449219 L 376.863281 242.507812 L 373.539062 245.929688 L 370.382812 248.691406 L 365.488281 252.410156 L 363.902344 253.53125 L 357.421875 257.886719 L 355.898438 258.890625 L 350.941406 262.207031 L 346.265625 265.371094 L 344.460938 266.632812 L 337.980469 270.910156 L 336.320312 271.851562 L 331.5 274.621094 L 325.019531 277.355469 L 320.386719 278.332031 L 318.539062 278.71875 L 312.058594 278.476562 L 311.574219 278.332031 L 305.578125 276.480469 L 299.097656 272.664062 L 298.171875 271.851562 L 292.617188 266.445312 L 291.792969 265.371094 L 287.570312 258.890625 L 286.136719 256.082031 "/>
<path style="fill:none;stroke-width:0.425197;stroke-linecap:butt;stroke-linejoin:round;stroke:rgb(16.862745%,35.294118%,50.980392%);stroke-opacity:1;stroke-miterlimit:1;" d="M 305.578125 499.382812 L 305.277344 498.664062 L 303.257812 492.183594 L 301.925781 485.703125 L 301.082031 479.222656 L 300.597656 472.742188 L 300.375 466.261719 L 300.359375 459.78125 L 300.527344 453.300781 L 300.910156 446.820312 L 301.585938 440.34375 L 302.675781 433.863281 L 304.363281 427.382812 L 305.578125 424.074219 L 306.964844 420.902344 L 310.992188 414.421875 L 312.058594 413.085938 L 318.539062 408.03125 L 318.808594 407.941406 L 325.019531 406.101562 L 331.5 406.171875 L 337.980469 407.464844 L 339.726562 407.941406 L 344.460938 409.160156 L 350.941406 410.476562 L 357.421875 410.652344 L 363.902344 409 L 365.761719 407.941406 L 370.382812 404.8125 L 373.703125 401.460938 L 376.863281 397.386719 L 378.382812 394.980469 L 381.390625 388.5 L 383.34375 382.414062 L 383.453125 382.019531 L 384.792969 375.539062 L 385.746094 369.058594 L 386.5 362.578125 L 387.152344 356.097656 L 387.769531 349.617188 L 388.40625 343.136719 L 389.109375 336.65625 L 389.824219 331.070312 L 389.917969 330.175781 L 390.75 323.695312 L 391.792969 317.214844 L 393.136719 310.734375 L 394.90625 304.253906 L 396.304688 300.226562 L 397.171875 297.773438 L 400.050781 291.292969 L 402.785156 286.695312 L 404.199219 284.8125 L 409.265625 279.382812 L 410.871094 278.332031 L 415.746094 275.402344 L 422.226562 273.84375 L 428.707031 274.140625 L 435.1875 276.1875 L 438.839844 278.332031 L 441.667969 279.960938 L 447.480469 284.8125 L 448.148438 285.414062 L 453.789062 291.292969 L 454.628906 292.308594 L 459.429688 297.773438 L 461.109375 300.101562 L 465.144531 304.253906 L 467.589844 307.402344 L 472.589844 310.734375 L 474.070312 311.996094 L 480.550781 312.625 L 486.34375 310.734375 L 487.03125 310.546875 L 493.511719 308.871094 L 499.992188 309.144531 L 503.078125 310.734375 L 506.472656 312.90625 L 509.742188 317.214844 L 512.953125 323.039062 L 513.203125 323.695312 L 514.875 330.175781 L 515.761719 336.65625 L 515.917969 343.136719 L 515.355469 349.617188 L 514.058594 356.097656 L 512.953125 359.660156 L 511.65625 362.578125 L 507.898438 369.058594 L 506.472656 371.136719 L 501.347656 375.539062 L 499.992188 376.65625 L 493.511719 378.597656 L 487.03125 377.464844 L 482.917969 375.539062 L 480.550781 374.351562 L 474.070312 372.1875 L 467.589844 373.296875 L 464.109375 375.539062 L 461.109375 377.082031 L 454.628906 382.007812 L 454.617188 382.019531 L 448.148438 387.503906 L 447.042969 388.5 L 441.667969 393.484375 L 440.109375 394.980469 L 435.1875 400.65625 L 434.519531 401.460938 L 430.828125 407.941406 L 428.886719 414.421875 L 428.707031 416.585938 L 428.386719 420.902344 L 428.707031 424.960938 L 428.890625 427.382812 L 430.082031 433.863281 L 431.65625 440.34375 L 433.4375 446.820312 L 435.1875 452.789062 L 435.347656 453.300781 L 437.480469 459.78125 L 439.53125 466.261719 L 441.472656 472.742188 L 441.667969 473.421875 L 443.363281 479.222656 L 444.925781 485.703125 L 446.105469 492.183594 L 446.851562 498.664062 L 447.097656 505.144531 L 446.765625 511.625 L 445.742188 518.105469 L 443.847656 524.585938 L 441.667969 529.402344 L 440.75 531.066406 L 435.75 537.546875 L 435.1875 538.125 L 428.707031 542.527344 L 423.832031 544.027344 L 422.226562 544.496094 L 415.746094 544.660156 L 412.511719 544.027344 L 409.265625 543.402344 L 402.785156 541.117188 L 396.304688 538.25 L 394.628906 537.546875 L 389.824219 535.496094 L 383.34375 533.550781 L 376.863281 532.761719 L 370.382812 532.976562 L 363.902344 533.652344 L 357.421875 534.1875 L 350.941406 534.144531 L 344.460938 533.261719 L 337.980469 531.394531 L 337.210938 531.066406 L 331.5 528.554688 L 325.042969 524.585938 L 325.019531 524.570312 L 318.539062 519.214844 L 317.394531 518.105469 L 312.058594 511.730469 L 311.980469 511.625 L 308.027344 505.144531 L 305.578125 499.382812 "/>
<path style="fill:none;stroke-width:0.425197;stroke-linecap:butt;stroke-linejoin:round;stroke:rgb(20%,41.568627%,59.607843%);stroke-opacity:1;stroke-miterlimit:1;" d="M 305.578125 246.273438 L 305.335938 245.929688 L 302.464844 239.449219 L 301.316406 232.96875 L 301.40625 226.488281 L 302.320312 220.007812 L 303.839844 213.527344 L 305.578125 208.136719 L 305.910156 207.046875 L 308.601562 200.566406 L 311.988281 194.085938 L 312.058594 193.984375 L 316.660156 187.605469 L 318.539062 185.539062 L 323.425781 181.125 L 325.019531 179.949219 L 331.5 176.679688 L 337.980469 175.191406 L 344.460938 175.640625 L 350.941406 178.039062 L 355.816406 181.125 L 357.421875 182.417969 L 362.5625 187.605469 L 363.902344 189.382812 L 367.140625 194.085938 L 370.382812 200.554688 L 370.390625 200.566406 L 372.15625 207.046875 L 372.628906 213.527344 L 371.683594 220.007812 L 370.382812 223.507812 L 368.972656 226.488281 L 364.09375 232.96875 L 363.902344 233.164062 L 357.421875 238.5 L 356.015625 239.449219 L 350.941406 242.597656 L 344.925781 245.929688 L 344.460938 246.1875 L 337.980469 249.242188 L 331.5 251.777344 L 328.835938 252.410156 L 325.019531 253.34375 L 318.539062 253.523438 L 314.152344 252.410156 L 312.058594 251.710938 L 305.578125 246.273438 "/>
<path style="fill:none;stroke-width:0.425197;stroke-linecap:butt;stroke-linejoin:round;stroke:rgb(20%,41.568627%,59.607843%);stroke-opacity:1;stroke-miterlimit:1;" d="M 312.058594 493.144531 L 311.71875 492.183594 L 310.136719 485.703125 L 309.195312 479.222656 L 308.75 472.742188 L 308.699219 466.261719 L 308.992188 459.78125 L 309.617188 453.300781 L 310.617188 446.820312 L 312.058594 440.476562 L 312.097656 440.34375 L 314.539062 433.863281 L 318.285156 427.382812 L 318.539062 427.042969 L 325.019531 422.082031 L 330.003906 420.902344 L 331.5 420.601562 L 336.046875 420.902344 L 337.980469 421.019531 L 344.460938 422.28125 L 350.941406 423.535156 L 357.421875 424.007812 L 363.902344 423.066406 L 369.199219 420.902344 L 370.382812 420.367188 L 376.863281 415.933594 L 378.785156 414.421875 L 383.34375 410.054688 L 385.613281 407.941406 L 389.824219 402.226562 L 390.460938 401.460938 L 393.425781 394.980469 L 394.464844 388.5 L 394.632812 382.019531 L 394.46875 375.539062 L 394.230469 369.058594 L 394.035156 362.578125 L 393.941406 356.097656 L 393.976562 349.617188 L 394.164062 343.136719 L 394.53125 336.65625 L 395.121094 330.175781 L 395.996094 323.695312 L 396.304688 322.039062 L 397.148438 317.214844 L 398.703125 310.734375 L 400.839844 304.253906 L 402.785156 299.816406 L 403.820312 297.773438 L 408.058594 291.292969 L 409.265625 289.792969 L 415.347656 284.8125 L 415.746094 284.527344 L 422.226562 282.117188 L 428.707031 282.058594 L 435.1875 284.113281 L 436.332031 284.8125 L 441.667969 288.1875 L 445.074219 291.292969 L 448.148438 294.472656 L 450.945312 297.773438 L 454.628906 303.082031 L 455.507812 304.253906 L 459.421875 310.734375 L 461.109375 314.550781 L 462.757812 317.214844 L 465.546875 323.695312 L 467.210938 330.175781 L 467.589844 333.898438 L 468.183594 336.65625 L 467.589844 342.355469 L 467.546875 343.136719 L 466.058594 349.617188 L 463.007812 356.097656 L 461.109375 358.660156 L 458.90625 362.578125 L 454.628906 367.875 L 453.746094 369.058594 L 448.148438 375.097656 L 447.71875 375.539062 L 441.667969 381.234375 L 440.71875 382.019531 L 435.1875 386.816406 L 432.917969 388.5 L 428.707031 392.316406 L 425.332031 394.980469 L 422.226562 398.703125 L 419.632812 401.460938 L 416.972656 407.941406 L 416.582031 414.421875 L 417.449219 420.902344 L 419.027344 427.382812 L 421 433.863281 L 422.226562 437.386719 L 423.136719 440.34375 L 425.308594 446.820312 L 427.550781 453.300781 L 428.707031 456.484375 L 429.867188 459.78125 L 432.171875 466.261719 L 434.449219 472.742188 L 435.1875 474.894531 L 436.601562 479.222656 L 438.441406 485.703125 L 439.875 492.183594 L 440.804688 498.664062 L 441.109375 505.144531 L 440.648438 511.625 L 439.234375 518.105469 L 436.617188 524.585938 L 435.1875 526.972656 L 431.609375 531.066406 L 428.707031 533.558594 L 422.226562 536.3125 L 415.746094 536.710938 L 409.265625 535.34375 L 402.785156 532.738281 L 399.371094 531.066406 L 396.304688 529.449219 L 389.824219 526.355469 L 384.273438 524.585938 L 383.34375 524.277344 L 376.863281 523.574219 L 370.382812 524.082031 L 367.277344 524.585938 L 363.902344 525.097656 L 357.421875 525.890625 L 350.941406 525.957031 L 344.460938 525 L 343.175781 524.585938 L 337.980469 522.832031 L 331.5 519.351562 L 329.75 518.105469 L 325.019531 514.199219 L 322.480469 511.625 L 318.539062 506.609375 L 317.523438 505.144531 L 314.085938 498.664062 L 312.058594 493.144531 "/>
<path style="fill:none;stroke-width:0.425197;stroke-linecap:butt;stroke-linejoin:round;stroke:rgb(23.137255%,48.235294%,68.627451%);stroke-opacity:1;stroke-miterlimit:1;" d="M 318.539062 487.914062 L 317.929688 485.703125 L 316.898438 479.222656 L 316.53125 472.742188 L 316.730469 466.261719 L 317.472656 459.78125 L 318.539062 454.429688 L 318.824219 453.300781 L 321.242188 446.820312 L 324.988281 440.34375 L 325.019531 440.300781 L 331.5 435.667969 L 337.980469 434.472656 L 344.460938 434.941406 L 350.941406 435.929688 L 357.421875 436.554688 L 363.902344 436.082031 L 370.382812 434.023438 L 370.691406 433.863281 L 376.863281 430.59375 L 382.097656 427.382812 L 383.34375 426.558594 L 389.824219 423.085938 L 396.304688 421.527344 L 402.785156 423.519531 L 406.148438 427.382812 L 409.265625 431.0625 L 410.691406 433.863281 L 414.015625 440.34375 L 415.746094 443.753906 L 416.988281 446.820312 L 419.621094 453.300781 L 422.226562 459.542969 L 422.316406 459.78125 L 424.789062 466.261719 L 427.324219 472.742188 L 428.707031 476.246094 L 429.757812 479.222656 L 431.816406 485.703125 L 433.492188 492.183594 L 434.582031 498.664062 L 434.855469 505.144531 L 434.03125 511.625 L 431.761719 518.105469 L 428.707031 522.96875 L 426.835938 524.585938 L 422.226562 527.410156 L 415.746094 528.277344 L 409.265625 526.859375 L 404.183594 524.585938 L 402.785156 523.882812 L 396.304688 520.03125 L 392.613281 518.105469 L 389.824219 516.492188 L 383.34375 514.214844 L 376.863281 513.714844 L 370.382812 514.636719 L 363.902344 516.171875 L 357.421875 517.414062 L 350.941406 517.679688 L 344.460938 516.597656 L 337.980469 513.992188 L 334.292969 511.625 L 331.5 509.507812 L 327.234375 505.144531 L 325.019531 502.226562 L 322.761719 498.664062 L 319.820312 492.183594 L 318.539062 487.914062 "/>
<path style="fill:none;stroke-width:0.425197;stroke-linecap:butt;stroke-linejoin:round;stroke:rgb(23.137255%,48.235294%,68.627451%);stroke-opacity:1;stroke-miterlimit:1;" d="M 325.019531 210.792969 L 324.875 207.046875 L 325.019531 206.519531 L 327.324219 200.566406 L 331.5 195.261719 L 333.746094 194.085938 L 337.980469 192.746094 L 343.804688 194.085938 L 344.460938 194.371094 L 349.28125 200.566406 L 350.839844 207.046875 L 348.765625 213.527344 L 344.460938 218.3125 L 341.136719 220.007812 L 337.980469 221.1875 L 331.5 220.78125 L 330.277344 220.007812 L 325.234375 213.527344 L 325.019531 210.792969 "/>
<path style="fill:none;stroke-width:0.425197;stroke-linecap:butt;stroke-linejoin:round;stroke:rgb(23.137255%,48.235294%,68.627451%);stroke-opacity:1;stroke-miterlimit:1;" d="M 402.785156 369.355469 L 402.707031 369.058594 L 401.273438 362.578125 L 400.3125 356.097656 L 399.730469 349.617188 L 399.484375 343.136719 L 399.5625 336.65625 L 399.976562 330.175781 L 400.777344 323.695312 L 402.050781 317.214844 L 402.785156 314.578125 L 403.945312 310.734375 L 406.660156 304.253906 L 409.265625 299.675781 L 410.753906 297.773438 L 415.746094 292.722656 L 418.542969 291.292969 L 422.226562 289.601562 L 428.707031 289.273438 L 434.792969 291.292969 L 435.1875 291.429688 L 441.667969 296.125 L 443.269531 297.773438 L 448.148438 303.8125 L 448.464844 304.253906 L 452.253906 310.734375 L 454.628906 316.425781 L 455 317.214844 L 457.089844 323.695312 L 458.210938 330.175781 L 458.414062 336.65625 L 457.667969 343.136719 L 455.828125 349.617188 L 454.628906 352.222656 L 452.976562 356.097656 L 448.957031 362.578125 L 448.148438 363.613281 L 443.519531 369.058594 L 441.667969 370.945312 L 436.195312 375.539062 L 435.1875 376.378906 L 428.707031 380.5 L 424.882812 382.019531 L 422.226562 383.347656 L 415.746094 384.4375 L 409.871094 382.019531 L 409.265625 381.707031 L 405.257812 375.539062 L 402.785156 369.355469 "/>
<path style="fill:none;stroke-width:0.425197;stroke-linecap:butt;stroke-linejoin:round;stroke:rgb(26.666667%,55.294118%,77.647059%);stroke-opacity:1;stroke-miterlimit:1;" d="M 325.019531 477.996094 L 324.871094 472.742188 L 325.019531 471.246094 L 325.683594 466.261719 L 327.746094 459.78125 L 331.390625 453.300781 L 331.5 453.15625 L 337.980469 449.085938 L 344.460938 448.273438 L 350.941406 448.917969 L 357.421875 449.847656 L 363.902344 450.113281 L 370.382812 448.878906 L 374.75 446.820312 L 376.863281 445.875 L 383.34375 442.230469 L 387.691406 440.34375 L 389.824219 439.46875 L 396.304688 439.3125 L 398.214844 440.34375 L 402.785156 443.085938 L 405.695312 446.820312 L 409.265625 451.742188 L 410.046875 453.300781 L 413.1875 459.78125 L 415.746094 464.867188 L 416.316406 466.261719 L 418.980469 472.742188 L 421.851562 479.222656 L 422.226562 480.105469 L 424.121094 485.703125 L 425.941406 492.183594 L 427.050781 498.664062 L 426.945312 505.144531 L 424.929688 511.625 L 422.226562 515.453125 L 416.015625 518.105469 L 415.746094 518.179688 L 415.363281 518.105469 L 409.265625 516.683594 L 402.785156 513.085938 L 400.554688 511.625 L 396.304688 508.410156 L 390.988281 505.144531 L 389.824219 504.320312 L 383.34375 501.699219 L 376.863281 501.4375 L 370.382812 503.175781 L 365.796875 505.144531 L 363.902344 505.777344 L 357.421875 507.652344 L 350.941406 508.269531 L 344.460938 507.117188 L 340.367188 505.144531 L 337.980469 503.726562 L 332.753906 498.664062 L 331.5 497.023438 L 328.742188 492.183594 L 326.335938 485.703125 L 325.0625 479.222656 L 325.019531 477.996094 "/>
<path style="fill:none;stroke-width:0.425197;stroke-linecap:butt;stroke-linejoin:round;stroke:rgb(26.666667%,55.294118%,77.647059%);stroke-opacity:1;stroke-miterlimit:1;" d="M 409.265625 362.675781 L 409.222656 362.578125 L 406.960938 356.097656 L 405.542969 349.617188 L 404.765625 343.136719 L 404.523438 336.65625 L 404.792969 330.175781 L 405.605469 323.695312 L 407.042969 317.214844 L 409.257812 310.734375 L 409.265625 310.71875 L 413.160156 304.253906 L 415.746094 301.066406 L 420.734375 297.773438 L 422.226562 296.941406 L 428.707031 296.359375 L 432.628906 297.773438 L 435.1875 298.789062 L 441.449219 304.253906 L 441.667969 304.492188 L 445.835938 310.734375 L 448.148438 315.597656 L 448.867188 317.214844 L 450.765625 323.695312 L 451.683594 330.175781 L 451.65625 336.65625 L 450.640625 343.136719 L 448.515625 349.617188 L 448.148438 350.371094 L 445.085938 356.097656 L 441.667969 360.785156 L 439.941406 362.578125 L 435.1875 366.90625 L 431.386719 369.058594 L 428.707031 370.605469 L 422.226562 372.035156 L 415.746094 370.371094 L 414.300781 369.058594 L 409.265625 362.675781 "/>
<path style="fill:none;stroke-width:0.425197;stroke-linecap:butt;stroke-linejoin:round;stroke:rgb(30.196078%,62.352941%,87.45098%);stroke-opacity:1;stroke-miterlimit:1;" d="M 337.980469 486.09375 L 337.792969 485.703125 L 336.570312 479.222656 L 337.246094 472.742188 L 337.980469 470.957031 L 342.851562 466.261719 L 344.460938 465.40625 L 350.941406 465.464844 L 353.648438 466.261719 L 357.421875 467.9375 L 363.902344 472.121094 L 365.003906 472.742188 L 367.785156 479.222656 L 365.144531 485.703125 L 363.902344 486.894531 L 358.871094 492.183594 L 357.421875 493.046875 L 350.941406 494.894531 L 344.460938 493.4375 L 342.875 492.183594 L 337.980469 486.09375 "/>
<path style="fill:none;stroke-width:0.425197;stroke-linecap:butt;stroke-linejoin:round;stroke:rgb(30.196078%,62.352941%,87.45098%);stroke-opacity:1;stroke-miterlimit:1;" d="M 389.824219 480.03125 L 388.792969 479.222656 L 385.863281 472.742188 L 388.582031 466.261719 L 389.824219 465.246094 L 396.304688 464.171875 L 398.785156 466.261719 L 402.785156 470.050781 L 404.1875 472.742188 L 407.605469 479.222656 L 409.265625 482.144531 L 410.410156 485.703125 L 411.394531 492.183594 L 409.265625 496.484375 L 402.785156 493.15625 L 401.699219 492.183594 L 396.304688 486.859375 L 394.953125 485.703125 L 389.824219 480.03125 "/>
<path style="fill:none;stroke-width:0.425197;stroke-linecap:butt;stroke-linejoin:round;stroke:rgb(30.196078%,62.352941%,87.45098%);stroke-opacity:1;stroke-miterlimit:1;" d="M 415.746094 356.996094 L 415.167969 356.097656 L 412.15625 349.617188 L 410.4375 343.136719 L 409.695312 336.65625 L 409.792969 330.175781 L 410.738281 323.695312 L 412.625 317.214844 L 415.660156 310.734375 L 415.746094 310.597656 L 422.226562 304.835938 L 425.839844 304.253906 L 428.707031 303.871094 L 429.636719 304.253906 L 435.1875 306.980469 L 438.664062 310.734375 L 441.667969 315.1875 L 442.679688 317.214844 L 444.738281 323.695312 L 445.644531 330.175781 L 445.421875 336.65625 L 444.03125 343.136719 L 441.667969 348.914062 L 441.277344 349.617188 L 436.230469 356.097656 L 435.1875 357.175781 L 428.707031 360.949219 L 422.226562 361.339844 L 415.746094 356.996094 "/>
<path style="fill:none;stroke-width:0.425197;stroke-linecap:butt;stroke-linejoin:round;stroke:rgb(33.72549%,69.411765%,96.862745%);stroke-opacity:1;stroke-miterlimit:1;" d="M 422.226562 349.222656 L 418.097656 343.136719 L 416.019531 336.65625 L 415.75 330.175781 L 417.164062 323.695312 L 420.414062 317.214844 L 422.226562 314.980469 L 428.707031 313.273438 L 434.59375 317.214844 L 435.1875 317.84375 L 437.726562 323.695312 L 438.855469 330.175781 L 438.335938 336.65625 L 436.140625 343.136719 L 435.1875 344.78125 L 429.449219 349.617188 L 428.707031 350.101562 L 424.574219 349.617188 L 422.226562 349.222656 "/>
</g>
</svg>
