<?xml version="1.0" encoding="UTF-8"?>
<svg xmlns="http://www.w3.org/2000/svg" xmlns:xlink="http://www.w3.org/1999/xlink" width="720pt" height="720pt" viewBox="0 0 720 720" version="1.1">
<defs>
<clipPath id="clip1">
  <path d="M 14.285156 0 L 720 0 L 720 706 L 14.285156 706 Z "/>
</clipPath>
</defs>
<g id="surface76">
<rect x="0" y="0" width="720" height="720" style="fill:rgb(100%,100%,100%);fill-opacity:1;stroke:none;"/>
<rect x="0" y="0" width="720" height="720" style="fill:rgb(100%,100%,100%);fill-opacity:1;stroke:none;"/>
<path style="fill:none;stroke-width:1.062992;stroke-linecap:round;stroke-linejoin:round;stroke:rgb(100%,100%,100%);stroke-opacity:1;stroke-miterlimit:10;" d="M 0 720 L 720 720 L 720 0 L 0 0 Z "/>
<g clip-path="url(#clip1)" clip-rule="nonzero">
<path style=" stroke:none;fill-rule:nonzero;fill:rgb(100%,100%,100%);fill-opacity:1;" d="M 14.285156 705.714844 L 720 705.714844 L 720 0 L 14.285156 0 Z "/>
</g>
<path style="fill:none;stroke-width:0.425197;stroke-linecap:butt;stroke-linejoin:round;stroke:rgb(7.45098%,16.862745%,26.27451%);stroke-opacity:1;stroke-miterlimit:1;" d="M 46.363281 515.03125 L 52.84375 515.484375 L 59.324219 515.832031 L 65.804688 516.09375 L 72.285156 516.289062 L 78.765625 516.433594 L 85.246094 516.550781 L 91.726562 516.65625 L 98.207031 516.757812 L 104.6875 516.867188 L 111.167969 516.996094 L 117.648438 517.140625 L 124.128906 517.300781 L 137.089844 517.636719 L 143.570312 517.789062 L 150.050781 517.90625 L 156.53125 517.976562 L 163.011719 517.984375 L 169.492188 517.910156 L 175.972656 517.742188 L 182.453125 517.457031 L 188.933594 517.046875 L 195.414062 516.492188 L 201.894531 515.769531 L 208.375 514.859375 L 214.855469 513.734375 L 221.335938 512.359375 L 224.308594 511.625 L 227.816406 510.867188 L 234.296875 509.230469 L 240.777344 507.269531 L 246.683594 505.144531 L 247.257812 504.953125 L 253.738281 502.554688 L 260.21875 499.671875 L 262.25 498.664062 L 266.699219 496.484375 L 273.179688 492.761719 L 274.101562 492.183594 L 279.65625 488.542969 L 283.480469 485.703125 L 286.136719 483.515625 L 290.917969 479.222656 L 292.617188 477.433594 L 296.851562 472.742188 L 299.097656 469.632812 L 301.503906 466.261719 L 305.007812 459.78125 L 305.578125 458.351562 L 307.695312 453.300781 L 309.546875 446.820312 L 310.703125 440.34375 L 311.332031 433.863281 L 311.59375 427.382812 L 311.636719 420.902344 L 311.621094 414.421875 L 311.707031 407.941406 L 312.058594 401.535156 L 312.066406 401.460938 L 312.941406 394.980469 L 314.402344 388.5 L 316.507812 382.019531 L 318.539062 377.203125 L 319.316406 375.539062 L 322.980469 369.058594 L 325.019531 365.910156 L 327.382812 362.578125 L 331.5 357.324219 L 332.570312 356.097656 L 337.980469 350.445312 L 338.898438 349.617188 L 344.460938 345.054688 L 347.394531 343.136719 L 350.941406 341.054688 L 357.421875 338.4375 L 363.902344 337.015625 L 369.902344 336.65625 L 370.382812 336.632812 L 370.757812 336.65625 L 376.863281 337.058594 L 383.34375 338.058594 L 389.824219 339.410156 L 396.304688 340.925781 L 402.785156 342.480469 L 405.472656 343.136719 L 409.265625 344.148438 L 415.746094 345.828125 L 422.226562 347.351562 L 428.707031 348.707031 L 433.628906 349.617188 L 435.1875 349.953125 L 441.667969 351.222656 L 448.148438 352.289062 L 454.628906 353.171875 L 461.109375 353.878906 L 467.589844 354.417969 L 474.070312 354.808594 L 480.550781 355.046875 L 487.03125 355.140625 L 493.511719 355.097656 L 499.992188 354.90625 L 506.472656 354.566406 L 512.953125 354.070312 L 519.433594 353.402344 L 525.914062 352.542969 L 532.394531 351.476562 L 538.875 350.164062 L 541.214844 349.617188 L 545.355469 348.800781 L 551.835938 347.292969 L 558.316406 345.484375 L 564.792969 343.3125 L 565.277344 343.136719 L 571.273438 341.160156 L 577.753906 338.609375 L 582.050781 336.65625 L 584.234375 335.710938 L 590.714844 332.582031 L 595.019531 330.175781 L 597.195312 328.957031 L 603.675781 324.917969 L 605.472656 323.695312 L 610.15625 320.328125 L 614.085938 317.214844 L 616.636719 314.980469 L 621.214844 310.734375 L 623.117188 308.695312 L 627.167969 304.253906 L 629.597656 301.050781 L 632.113281 297.773438 L 636.078125 291.355469 L 636.121094 291.292969 L 639.660156 284.8125 L 642.453125 278.332031 L 642.558594 278.050781 L 645.125 271.851562 L 647.566406 265.371094 L 649.039062 261.585938 L 650.238281 258.890625 L 653.621094 252.410156 L 655.519531 249.578125 L 658.3125 245.929688 L 662 242.3125 L 665.289062 239.449219 L 668.480469 237.371094 L 674.960938 233.539062 L 676.019531 232.96875 L 681.441406 230.730469 L 687.921875 228.179688 "/>
<path style="fill:none;stroke-width:0.425197;stroke-linecap:butt;stroke-linejoin:round;stroke:rgb(7.45098%,16.862745%,26.27451%);stroke-opacity:1;stroke-miterlimit:1;" d="M 46.363281 325.910156 L 48.417969 323.695312 L 52.84375 317.46875 L 53.007812 317.214844 L 56.257812 310.734375 L 59.054688 304.253906 L 59.324219 303.59375 L 61.523438 297.773438 L 64.253906 291.292969 L 65.804688 288.210938 L 67.445312 284.8125 L 71.425781 278.332031 L 72.285156 277.191406 L 76.367188 271.851562 L 78.765625 269.308594 L 82.660156 265.371094 L 85.246094 263.152344 L 90.636719 258.890625 L 91.726562 258.121094 L 98.207031 253.878906 L 100.710938 252.410156 L 104.6875 250.207031 L 111.167969 247.050781 L 113.746094 245.929688 L 117.648438 244.230469 L 124.128906 241.753906 L 130.609375 239.664062 L 131.34375 239.449219 L 137.089844 237.660156 L 143.570312 235.945312 L 150.050781 234.503906 L 156.53125 233.304688 L 158.644531 232.96875 L 163.011719 232.175781 L 169.492188 231.199219 L 175.972656 230.417969 L 182.453125 229.816406 L 188.933594 229.378906 L 195.414062 229.089844 L 201.894531 228.949219 L 208.375 228.945312 L 214.855469 229.078125 L 221.335938 229.339844 L 227.816406 229.738281 L 234.296875 230.273438 L 240.777344 230.949219 L 247.257812 231.761719 L 253.738281 232.71875 L 255.277344 232.96875 L 260.21875 233.664062 L 266.699219 234.675781 L 273.179688 235.792969 L 279.65625 236.992188 L 286.136719 238.242188 L 292.453125 239.449219 L 292.617188 239.480469 L 299.097656 240.46875 L 305.578125 241.273438 L 312.058594 241.746094 L 318.539062 241.671875 L 325.019531 240.777344 L 329.359375 239.449219 L 331.5 238.636719 L 337.980469 234.601562 L 339.792969 232.96875 L 344.460938 227.714844 L 345.300781 226.488281 L 348.902344 220.007812 L 350.941406 215.503906 L 351.691406 213.527344 L 353.851562 207.046875 L 355.949219 200.566406 L 357.421875 196.324219 L 358.109375 194.085938 L 360.425781 187.605469 L 363.3125 181.125 L 363.902344 180.019531 L 366.582031 174.644531 L 370.382812 168.613281 L 370.652344 168.164062 L 375.261719 161.683594 L 376.863281 159.765625 L 380.636719 155.207031 L 383.34375 152.332031 L 386.769531 148.726562 L 389.824219 145.796875 L 393.617188 142.246094 L 396.304688 139.875 L 401.128906 135.765625 L 402.785156 134.398438 L 409.265625 129.285156 L 409.265625 129.28125 L 415.746094 124.265625 L 417.738281 122.804688 L 422.226562 119.492188 L 426.808594 116.324219 L 428.707031 114.988281 L 435.1875 110.667969 L 436.484375 109.84375 L 441.667969 106.457031 L 446.945312 103.363281 L 448.148438 102.628906 L 454.628906 98.886719 L 458.53125 96.882812 L 461.109375 95.484375 L 467.589844 92.273438 L 471.90625 90.402344 L 474.070312 89.382812 L 480.550781 86.597656 L 487.03125 84.261719 L 488.054688 83.921875 L 493.511719 81.875 L 499.992188 79.796875 L 506.472656 78.050781 L 509.027344 77.441406 L 512.953125 76.324219 L 519.433594 74.71875 L 525.914062 73.367188 L 532.394531 72.226562 L 538.875 71.261719 L 541.214844 70.960938 L 545.355469 70.277344 L 551.835938 69.363281 L 558.316406 68.59375 L 564.792969 67.949219 L 571.273438 67.410156 L 577.753906 66.957031 L 584.234375 66.578125 L 590.714844 66.265625 L 597.195312 66.003906 L 603.675781 65.789062 L 610.15625 65.617188 L 616.636719 65.480469 L 623.117188 65.382812 L 629.597656 65.316406 L 636.078125 65.292969 L 642.558594 65.3125 L 649.039062 65.378906 L 655.519531 65.507812 L 662 65.703125 L 668.480469 65.980469 L 674.960938 66.347656 L 681.441406 66.828125 L 687.921875 67.4375 "/>
<path style="fill:none;stroke-width:0.425197;stroke-linecap:butt;stroke-linejoin:round;stroke:rgb(9.803922%,21.568627%,32.54902%);stroke-opacity:1;stroke-miterlimit:1;" d="M 46.363281 498.949219 L 52.84375 499.515625 L 59.324219 499.929688 L 65.804688 500.214844 L 72.285156 500.398438 L 78.765625 500.503906 L 85.246094 500.558594 L 91.726562 500.585938 L 98.207031 500.601562 L 104.6875 500.625 L 111.167969 500.671875 L 117.648438 500.738281 L 124.128906 500.832031 L 137.089844 501.058594 L 143.570312 501.167969 L 150.050781 501.242188 L 156.53125 501.265625 L 163.011719 501.210938 L 169.492188 501.058594 L 175.972656 500.789062 L 182.453125 500.371094 L 188.933594 499.785156 L 195.414062 499 L 197.609375 498.664062 L 201.894531 498.078125 L 208.375 496.964844 L 214.855469 495.589844 L 221.335938 493.910156 L 226.855469 492.183594 L 227.816406 491.894531 L 234.296875 489.644531 L 240.777344 486.929688 L 243.339844 485.703125 L 247.257812 483.757812 L 253.738281 479.996094 L 254.9375 479.222656 L 260.21875 475.457031 L 263.589844 472.742188 L 266.699219 469.800781 L 270.144531 466.261719 L 273.179688 462.339844 L 275.074219 459.78125 L 278.683594 453.300781 L 279.65625 450.8125 L 281.25 446.820312 L 282.925781 440.34375 L 283.851562 433.863281 L 284.210938 427.382812 L 284.167969 420.902344 L 283.890625 414.421875 L 283.5625 407.941406 L 283.375 401.460938 L 283.519531 394.980469 L 284.175781 388.5 L 285.488281 382.019531 L 286.136719 379.945312 L 287.617188 375.539062 L 290.507812 369.058594 L 292.617188 365.160156 L 294.082031 362.578125 L 298.199219 356.097656 L 299.097656 354.78125 L 302.738281 349.617188 L 305.578125 345.628906 L 307.433594 343.136719 L 312.058594 336.738281 L 312.121094 336.65625 L 316.878906 330.175781 L 318.539062 327.648438 L 321.480469 323.695312 L 325.019531 318.230469 L 325.820312 317.214844 L 330.082031 310.734375 L 331.5 307.878906 L 334.160156 304.253906 L 337.449219 297.773438 L 337.980469 294.316406 L 339.472656 291.292969 L 337.980469 289.890625 L 334.882812 284.8125 L 331.5 283.039062 L 325.019531 278.464844 L 324.867188 278.332031 L 318.539062 274.734375 L 313.738281 271.851562 L 312.058594 271.074219 L 305.578125 267.8125 L 300.601562 265.371094 L 299.097656 264.734375 L 292.617188 261.953125 L 286.136719 259.410156 L 284.765625 258.890625 L 279.65625 257.070312 L 273.179688 254.976562 L 266.699219 253.132812 L 263.871094 252.410156 L 260.21875 251.460938 L 253.738281 249.96875 L 247.257812 248.707031 L 240.777344 247.65625 L 234.296875 246.808594 L 227.816406 246.144531 L 224.929688 245.929688 L 221.335938 245.632812 L 214.855469 245.289062 L 208.375 245.144531 L 201.894531 245.191406 L 195.414062 245.441406 L 188.933594 245.898438 L 188.617188 245.929688 L 182.453125 246.503906 L 175.972656 247.320312 L 169.492188 248.367188 L 163.011719 249.671875 L 156.53125 251.269531 L 152.597656 252.410156 L 150.050781 253.144531 L 143.570312 255.296875 L 137.089844 257.867188 L 134.792969 258.890625 L 130.609375 260.871094 L 124.128906 264.414062 L 122.542969 265.371094 L 117.648438 268.695312 L 113.496094 271.851562 L 111.167969 273.949219 L 106.660156 278.332031 L 104.6875 280.722656 L 101.445312 284.8125 L 98.207031 290.136719 L 97.507812 291.292969 L 94.421875 297.773438 L 92.039062 304.253906 L 91.726562 305.257812 L 89.914062 310.734375 L 87.855469 317.214844 L 85.539062 323.695312 L 85.246094 324.359375 L 82.375 330.175781 L 78.765625 335.605469 L 77.976562 336.65625 L 72.285156 342.371094 L 71.425781 343.136719 L 65.804688 347.042969 L 61.683594 349.617188 L 59.324219 350.820312 L 52.84375 353.894531 L 47.964844 356.097656 L 46.363281 356.722656 "/>
<path style="fill:none;stroke-width:0.425197;stroke-linecap:butt;stroke-linejoin:round;stroke:rgb(9.803922%,21.568627%,32.54902%);stroke-opacity:1;stroke-miterlimit:1;" d="M 687.921875 210.371094 L 681.441406 212.046875 L 675.605469 213.527344 L 674.960938 213.726562 L 668.480469 215.796875 L 662 217.933594 L 656.054688 220.007812 L 655.519531 220.246094 L 649.039062 223.375 L 643.121094 226.488281 L 642.558594 226.875 L 636.078125 231.851562 L 634.769531 232.96875 L 629.597656 238.988281 L 629.242188 239.449219 L 625.675781 245.929688 L 623.117188 252.351562 L 623.097656 252.410156 L 621.277344 258.890625 L 619.59375 265.371094 L 617.726562 271.851562 L 616.636719 274.902344 L 615.507812 278.332031 L 612.714844 284.8125 L 610.15625 289.320312 L 609.070312 291.292969 L 604.472656 297.773438 L 603.675781 298.691406 L 598.71875 304.253906 L 597.195312 305.683594 L 591.460938 310.734375 L 590.714844 311.3125 L 584.234375 316 L 582.378906 317.214844 L 577.753906 320.03125 L 571.273438 323.433594 L 570.730469 323.695312 L 564.792969 326.503906 L 558.316406 329.089844 L 555.1875 330.175781 L 551.835938 331.390625 L 545.355469 333.425781 L 538.875 335.117188 L 532.394531 336.507812 L 531.582031 336.65625 L 525.914062 337.816406 L 519.433594 338.882812 L 512.953125 339.710938 L 506.472656 340.316406 L 499.992188 340.722656 L 493.511719 340.933594 L 487.03125 340.960938 L 480.550781 340.800781 L 474.070312 340.449219 L 467.589844 339.898438 L 461.109375 339.140625 L 454.628906 338.15625 L 448.148438 336.929688 L 446.90625 336.65625 L 441.667969 335.605469 L 435.1875 334.0625 L 428.707031 332.238281 L 422.425781 330.175781 L 422.226562 330.113281 L 415.746094 327.894531 L 409.265625 325.355469 L 405.355469 323.695312 L 402.785156 322.554688 L 396.304688 319.535156 L 391.59375 317.214844 L 389.824219 316.238281 L 383.34375 312.710938 L 379.636719 310.734375 L 376.863281 308.925781 L 370.382812 304.980469 L 368.960938 304.253906 L 363.902344 300.609375 L 359.121094 297.773438 L 357.421875 295.941406 L 351.542969 291.292969 L 350.941406 288.289062 L 349.789062 284.8125 L 350.941406 283.414062 L 352.460938 278.332031 L 356.003906 271.851562 L 357.421875 269.878906 L 359.613281 265.371094 L 363.316406 258.890625 L 363.902344 257.949219 L 366.648438 252.410156 L 369.902344 245.929688 L 370.382812 244.921875 L 372.632812 239.449219 L 375.035156 232.96875 L 376.863281 227.25 L 377.082031 226.488281 L 378.65625 220.007812 L 380.0625 213.527344 L 381.445312 207.046875 L 382.996094 200.566406 L 383.34375 199.371094 L 384.753906 194.085938 L 386.976562 187.605469 L 389.824219 181.265625 L 389.882812 181.125 L 393.304688 174.644531 L 396.304688 170.128906 L 397.578125 168.164062 L 402.636719 161.683594 L 402.785156 161.519531 L 408.398438 155.207031 L 409.265625 154.335938 L 414.925781 148.726562 L 415.746094 147.976562 L 422.148438 142.246094 L 422.226562 142.179688 L 428.707031 136.730469 L 429.886719 135.765625 L 435.1875 131.566406 L 438.183594 129.285156 L 441.667969 126.683594 L 447.136719 122.804688 L 448.148438 122.09375 L 454.628906 117.6875 L 456.757812 116.324219 L 461.109375 113.539062 L 467.488281 109.84375 L 467.589844 109.785156 L 474.070312 106.128906 L 479.691406 103.363281 L 480.550781 102.925781 L 487.03125 99.839844 L 493.511719 97.207031 L 494.371094 96.882812 L 499.992188 94.632812 L 506.472656 92.398438 L 512.953125 90.503906 L 513.332031 90.402344 L 519.433594 88.589844 L 525.914062 86.953125 L 532.394531 85.566406 L 538.875 84.398438 L 541.917969 83.921875 L 545.355469 83.289062 L 551.835938 82.261719 L 558.316406 81.40625 L 564.792969 80.695312 L 571.273438 80.105469 L 577.753906 79.621094 L 584.234375 79.230469 L 590.714844 78.914062 L 597.195312 78.667969 L 603.675781 78.476562 L 610.15625 78.335938 L 616.636719 78.242188 L 623.117188 78.195312 L 629.597656 78.191406 L 636.078125 78.234375 L 642.558594 78.328125 L 649.039062 78.476562 L 655.519531 78.695312 L 662 78.992188 L 668.480469 79.378906 L 674.960938 79.875 L 681.441406 80.5 L 687.921875 81.269531 "/>
<path style="fill:none;stroke-width:0.425197;stroke-linecap:butt;stroke-linejoin:round;stroke:rgb(12.156863%,26.27451%,39.215686%);stroke-opacity:1;stroke-miterlimit:1;" d="M 46.363281 486.980469 L 52.84375 487.671875 L 59.324219 488.167969 L 65.804688 488.507812 L 72.285156 488.722656 L 78.765625 488.839844 L 85.246094 488.890625 L 91.726562 488.90625 L 98.207031 488.90625 L 104.6875 488.914062 L 111.167969 488.941406 L 117.648438 488.992188 L 124.128906 489.074219 L 130.609375 489.171875 L 137.089844 489.277344 L 143.570312 489.367188 L 150.050781 489.417969 L 156.53125 489.410156 L 163.011719 489.316406 L 169.492188 489.105469 L 175.972656 488.753906 L 182.453125 488.230469 L 188.933594 487.503906 L 195.414062 486.546875 L 199.886719 485.703125 L 201.894531 485.339844 L 208.375 483.886719 L 214.855469 482.082031 L 221.335938 479.871094 L 222.972656 479.222656 L 227.816406 477.214844 L 234.296875 473.996094 L 236.496094 472.742188 L 240.777344 470.003906 L 245.828125 466.261719 L 247.257812 464.996094 L 252.539062 459.78125 L 253.738281 458.253906 L 257.371094 453.300781 L 260.21875 447.792969 L 260.703125 446.820312 L 262.910156 440.34375 L 264.136719 433.863281 L 264.59375 427.382812 L 264.472656 420.902344 L 263.953125 414.421875 L 262.492188 401.460938 L 261.984375 394.980469 L 261.945312 388.5 L 262.59375 382.019531 L 264.09375 375.539062 L 266.527344 369.058594 L 266.699219 368.722656 L 269.875 362.578125 L 273.179688 357.273438 L 273.914062 356.097656 L 278.410156 349.617188 L 279.65625 347.882812 L 283.058594 343.136719 L 286.136719 338.695312 L 287.558594 336.65625 L 291.683594 330.175781 L 292.617188 328.441406 L 295.265625 323.695312 L 298.035156 317.214844 L 299.097656 313.289062 L 299.851562 310.734375 L 300.5 304.253906 L 299.632812 297.773438 L 299.097656 296.445312 L 297.046875 291.292969 L 292.617188 285.269531 L 292.269531 284.8125 L 286.136719 279.28125 L 285.003906 278.332031 L 279.65625 274.847656 L 274.476562 271.851562 L 273.179688 271.210938 L 266.699219 268.285156 L 260.21875 265.789062 L 258.996094 265.371094 L 253.738281 263.699219 L 247.257812 261.960938 L 240.777344 260.53125 L 234.296875 259.386719 L 230.6875 258.890625 L 227.816406 258.492188 L 221.335938 257.84375 L 214.855469 257.445312 L 208.375 257.296875 L 201.894531 257.390625 L 195.414062 257.738281 L 188.933594 258.347656 L 184.929688 258.890625 L 182.453125 259.222656 L 175.972656 260.371094 L 169.492188 261.84375 L 163.011719 263.667969 L 158 265.371094 L 156.53125 265.90625 L 150.050781 268.632812 L 143.671875 271.851562 L 143.570312 271.910156 L 137.089844 276.0625 L 133.972656 278.332031 L 130.609375 281.3125 L 127.003906 284.8125 L 124.128906 288.394531 L 121.925781 291.292969 L 118.242188 297.773438 L 117.648438 299.195312 L 115.535156 304.253906 L 113.539062 310.734375 L 111.972656 317.214844 L 111.167969 320.890625 L 110.511719 323.695312 L 108.824219 330.175781 L 106.554688 336.65625 L 104.6875 340.421875 L 103.183594 343.136719 L 98.207031 349.453125 L 98.0625 349.617188 L 91.726562 354.945312 L 90.167969 356.097656 L 85.246094 358.992188 L 78.765625 362.359375 L 78.304688 362.578125 L 72.285156 365.023438 L 65.804688 367.46875 L 61.40625 369.058594 L 59.324219 369.738281 L 52.84375 371.847656 L 46.363281 374.015625 "/>
<path style="fill:none;stroke-width:0.425197;stroke-linecap:butt;stroke-linejoin:round;stroke:rgb(12.156863%,26.27451%,39.215686%);stroke-opacity:1;stroke-miterlimit:1;" d="M 687.921875 199.160156 L 681.929688 200.566406 L 681.441406 200.695312 L 674.960938 202.375 L 662 205.632812 L 656.511719 207.046875 L 655.519531 207.351562 L 649.039062 209.457031 L 642.558594 211.699219 L 637.652344 213.527344 L 636.078125 214.253906 L 629.597656 217.523438 L 625.074219 220.007812 L 623.117188 221.394531 L 616.636719 226.425781 L 616.566406 226.488281 L 610.914062 232.96875 L 610.15625 234.195312 L 607.207031 239.449219 L 604.746094 245.929688 L 603.675781 250.007812 L 603.101562 252.410156 L 601.875 258.890625 L 600.628906 265.371094 L 599.050781 271.851562 L 597.195312 277.328125 L 596.875 278.332031 L 593.980469 284.8125 L 590.714844 290.113281 L 589.988281 291.292969 L 584.757812 297.773438 L 584.234375 298.296875 L 577.929688 304.253906 L 577.753906 304.390625 L 571.273438 309.238281 L 569.035156 310.734375 L 564.792969 313.285156 L 558.316406 316.664062 L 557.132812 317.214844 L 551.835938 319.578125 L 545.355469 322.027344 L 540.101562 323.695312 L 538.875 324.089844 L 532.394531 325.90625 L 525.914062 327.382812 L 519.433594 328.558594 L 512.953125 329.46875 L 506.472656 330.132812 L 505.851562 330.175781 L 499.992188 330.617188 L 493.511719 330.863281 L 487.03125 330.867188 L 480.550781 330.632812 L 474.40625 330.175781 L 474.070312 330.152344 L 467.589844 329.496094 L 461.109375 328.589844 L 454.628906 327.421875 L 448.148438 325.960938 L 441.667969 324.175781 L 440.144531 323.695312 L 435.1875 322.128906 L 428.707031 319.734375 L 422.878906 317.214844 L 422.226562 316.910156 L 415.746094 313.644531 L 410.671875 310.734375 L 409.265625 309.800781 L 402.785156 305.1875 L 401.535156 304.253906 L 396.304688 299.316406 L 394.710938 297.773438 L 389.957031 291.292969 L 389.824219 291.011719 L 386.8125 284.8125 L 385.335938 278.332031 L 385.140625 271.851562 L 385.925781 265.371094 L 387.429688 258.890625 L 389.398438 252.410156 L 389.824219 251.144531 L 391.429688 245.929688 L 393.414062 239.449219 L 395.226562 232.96875 L 396.304688 228.445312 L 396.738281 226.488281 L 397.945312 220.007812 L 399.019531 213.527344 L 400.125 207.046875 L 401.453125 200.566406 L 402.785156 195.601562 L 403.167969 194.085938 L 405.351562 187.605469 L 408.265625 181.125 L 409.265625 179.363281 L 411.875 174.644531 L 415.746094 169.039062 L 416.34375 168.164062 L 421.574219 161.683594 L 422.226562 160.980469 L 427.570312 155.207031 L 428.707031 154.101562 L 434.292969 148.726562 L 435.1875 147.925781 L 441.667969 142.246094 L 448.148438 136.902344 L 449.5625 135.765625 L 454.628906 131.859375 L 458.105469 129.285156 L 461.109375 127.128906 L 467.496094 122.804688 L 467.589844 122.742188 L 474.070312 118.578125 L 477.894531 116.324219 L 480.550781 114.78125 L 487.03125 111.304688 L 490.019531 109.84375 L 493.511719 108.125 L 499.992188 105.257812 L 504.859375 103.363281 L 506.472656 102.710938 L 512.953125 100.335938 L 519.433594 98.308594 L 524.695312 96.882812 L 525.914062 96.527344 L 532.394531 94.832031 L 538.875 93.398438 L 545.355469 92.1875 L 551.835938 91.167969 L 557.660156 90.402344 L 558.316406 90.304688 L 564.792969 89.46875 L 571.273438 88.78125 L 577.753906 88.222656 L 584.234375 87.773438 L 590.714844 87.421875 L 597.195312 87.152344 L 603.675781 86.957031 L 610.15625 86.824219 L 616.636719 86.746094 L 623.117188 86.726562 L 629.597656 86.757812 L 636.078125 86.847656 L 642.558594 87 L 649.039062 87.21875 L 655.519531 87.523438 L 662 87.921875 L 668.480469 88.429688 L 674.960938 89.070312 L 681.441406 89.867188 L 685.050781 90.402344 L 687.921875 90.785156 "/>
<path style="fill:none;stroke-width:0.425197;stroke-linecap:butt;stroke-linejoin:round;stroke:rgb(14.901961%,31.372549%,45.882353%);stroke-opacity:1;stroke-miterlimit:1;" d="M 46.363281 475.871094 L 52.84375 476.804688 L 59.324219 477.480469 L 65.804688 477.949219 L 72.285156 478.253906 L 78.765625 478.433594 L 85.246094 478.527344 L 91.726562 478.574219 L 104.6875 478.636719 L 111.167969 478.691406 L 117.648438 478.773438 L 124.128906 478.882812 L 130.609375 479.011719 L 137.089844 479.136719 L 142.613281 479.222656 L 143.570312 479.238281 L 150.050781 479.292969 L 156.53125 479.269531 L 158.582031 479.222656 L 163.011719 479.132812 L 169.492188 478.851562 L 175.972656 478.398438 L 182.453125 477.730469 L 188.933594 476.816406 L 195.414062 475.605469 L 201.894531 474.050781 L 206.308594 472.742188 L 208.375 472.089844 L 214.855469 469.617188 L 221.335938 466.570312 L 221.910156 466.261719 L 227.816406 462.578125 L 231.632812 459.78125 L 234.296875 457.347656 L 238.230469 453.300781 L 240.777344 449.726562 L 242.691406 446.820312 L 245.546875 440.34375 L 247.140625 433.863281 L 247.257812 432.578125 L 247.734375 427.382812 L 247.523438 420.902344 L 247.257812 418.738281 L 246.71875 414.421875 L 245.515625 407.941406 L 244.128906 401.460938 L 242.816406 394.980469 L 241.863281 388.5 L 241.578125 382.019531 L 242.261719 375.539062 L 244.125 369.058594 L 247.257812 362.605469 L 247.269531 362.578125 L 251.410156 356.097656 L 253.738281 353.050781 L 256.269531 349.617188 L 260.21875 344.652344 L 261.382812 343.136719 L 266.304688 336.65625 L 266.699219 336.097656 L 270.707031 330.175781 L 273.179688 325.78125 L 274.335938 323.695312 L 276.949219 317.214844 L 278.351562 310.734375 L 278.3125 304.253906 L 276.550781 297.773438 L 273.179688 292.078125 L 272.679688 291.292969 L 266.699219 285.34375 L 266.097656 284.8125 L 260.21875 280.9375 L 255.570312 278.332031 L 253.738281 277.484375 L 247.257812 274.902344 L 240.777344 272.804688 L 237.121094 271.851562 L 234.296875 271.183594 L 227.816406 269.996094 L 221.335938 269.160156 L 214.855469 268.660156 L 208.375 268.488281 L 201.894531 268.640625 L 195.414062 269.128906 L 188.933594 269.960938 L 182.453125 271.160156 L 179.59375 271.851562 L 175.972656 272.8125 L 169.492188 274.96875 L 163.011719 277.644531 L 161.585938 278.332031 L 156.53125 281.207031 L 151.144531 284.8125 L 150.050781 285.734375 L 144.183594 291.292969 L 143.570312 292.074219 L 139.425781 297.773438 L 137.089844 302.402344 L 136.191406 304.253906 L 134.066406 310.734375 L 132.710938 317.214844 L 131.832031 323.695312 L 131.121094 330.175781 L 130.609375 333.996094 L 130.230469 336.65625 L 128.746094 343.136719 L 126.140625 349.617188 L 124.128906 352.746094 L 121.757812 356.097656 L 117.648438 360.101562 L 114.8125 362.578125 L 111.167969 365.011719 L 104.6875 368.863281 L 104.332031 369.058594 L 98.207031 371.84375 L 91.726562 374.480469 L 88.90625 375.539062 L 85.246094 376.769531 L 78.765625 378.820312 L 72.285156 380.773438 L 68.09375 382.019531 L 65.804688 382.671875 L 59.324219 384.5625 L 52.84375 386.554688 L 47.019531 388.5 L 46.363281 388.722656 "/>
<path style="fill:none;stroke-width:0.425197;stroke-linecap:butt;stroke-linejoin:round;stroke:rgb(14.901961%,31.372549%,45.882353%);stroke-opacity:1;stroke-miterlimit:1;" d="M 687.921875 190.320312 L 681.441406 191.96875 L 674.960938 193.492188 L 672.320312 194.085938 L 668.480469 195.035156 L 662 196.609375 L 655.519531 198.179688 L 649.039062 199.785156 L 646.035156 200.566406 L 642.558594 201.609375 L 636.078125 203.679688 L 629.597656 205.898438 L 626.488281 207.046875 L 623.117188 208.542969 L 616.636719 211.65625 L 613.03125 213.527344 L 610.15625 215.394531 L 603.675781 219.9375 L 603.578125 220.007812 L 597.195312 226.3125 L 597.03125 226.488281 L 592.625 232.96875 L 590.714844 237.175781 L 589.75 239.449219 L 588.019531 245.929688 L 586.933594 252.410156 L 586.085938 258.890625 L 585.097656 265.371094 L 584.234375 269.207031 L 583.664062 271.851562 L 581.523438 278.332031 L 578.332031 284.8125 L 577.753906 285.671875 L 573.890625 291.292969 L 571.273438 294.167969 L 567.78125 297.773438 L 564.792969 300.261719 L 559.476562 304.253906 L 558.316406 305.003906 L 551.835938 308.773438 L 547.914062 310.734375 L 545.355469 311.910156 L 538.875 314.496094 L 532.394531 316.625 L 530.265625 317.214844 L 525.914062 318.398438 L 519.433594 319.824219 L 512.953125 320.921875 L 506.472656 321.71875 L 499.992188 322.230469 L 493.511719 322.476562 L 487.03125 322.457031 L 480.550781 322.167969 L 474.070312 321.609375 L 467.589844 320.761719 L 461.109375 319.601562 L 454.628906 318.109375 L 451.429688 317.214844 L 448.148438 316.261719 L 441.667969 314.019531 L 435.1875 311.3125 L 433.945312 310.734375 L 428.707031 307.976562 L 422.632812 304.253906 L 422.226562 303.953125 L 415.746094 298.703125 L 414.6875 297.773438 L 409.265625 291.390625 L 409.1875 291.292969 L 405.542969 284.8125 L 403.570312 278.332031 L 402.90625 271.851562 L 403.265625 265.371094 L 404.390625 258.890625 L 406.023438 252.410156 L 407.902344 245.929688 L 409.265625 241.214844 L 409.757812 239.449219 L 411.359375 232.96875 L 412.675781 226.488281 L 413.722656 220.007812 L 414.621094 213.527344 L 415.566406 207.046875 L 415.746094 206.070312 L 416.71875 200.566406 L 418.308594 194.085938 L 420.515625 187.605469 L 422.226562 183.863281 L 423.445312 181.125 L 427.164062 174.644531 L 428.707031 172.457031 L 431.703125 168.164062 L 435.1875 163.96875 L 437.078125 161.683594 L 441.667969 156.824219 L 443.199219 155.207031 L 448.148438 150.480469 L 449.996094 148.726562 L 454.628906 144.664062 L 457.421875 142.246094 L 461.109375 139.246094 L 465.5 135.765625 L 467.589844 134.195312 L 474.070312 129.511719 L 474.390625 129.285156 L 480.550781 125.152344 L 484.304688 122.804688 L 487.03125 121.167969 L 493.511719 117.554688 L 495.894531 116.324219 L 499.992188 114.261719 L 506.472656 111.335938 L 510.152344 109.84375 L 512.953125 108.707031 L 519.433594 106.347656 L 525.914062 104.320312 L 529.394531 103.363281 L 532.394531 102.503906 L 538.875 100.878906 L 545.355469 99.503906 L 551.835938 98.34375 L 558.316406 97.375 L 562.242188 96.882812 L 564.792969 96.53125 L 571.273438 95.785156 L 577.753906 95.183594 L 584.234375 94.707031 L 590.714844 94.335938 L 597.195312 94.058594 L 603.675781 93.867188 L 610.15625 93.742188 L 616.636719 93.6875 L 623.117188 93.691406 L 629.597656 93.761719 L 636.078125 93.894531 L 642.558594 94.097656 L 649.039062 94.378906 L 655.519531 94.753906 L 662 95.238281 L 668.480469 95.847656 L 674.960938 96.605469 L 676.902344 96.882812 L 681.441406 97.488281 L 687.921875 98.535156 "/>
<path style="fill:none;stroke-width:0.425197;stroke-linecap:butt;stroke-linejoin:round;stroke:rgb(17.254902%,36.470588%,52.54902%);stroke-opacity:1;stroke-miterlimit:1;" d="M 46.363281 463.800781 L 52.84375 465.316406 L 58.339844 466.261719 L 59.324219 466.410156 L 65.804688 467.109375 L 72.285156 467.589844 L 78.765625 467.914062 L 85.246094 468.125 L 91.726562 468.269531 L 98.207031 468.390625 L 104.6875 468.515625 L 111.167969 468.660156 L 117.648438 468.832031 L 124.128906 469.03125 L 130.609375 469.238281 L 137.089844 469.433594 L 143.570312 469.585938 L 150.050781 469.664062 L 156.53125 469.628906 L 163.011719 469.449219 L 169.492188 469.074219 L 175.972656 468.46875 L 182.453125 467.589844 L 188.933594 466.378906 L 189.417969 466.261719 L 195.414062 464.6875 L 201.894531 462.503906 L 208.3125 459.78125 L 208.375 459.75 L 214.855469 455.855469 L 218.402344 453.300781 L 221.335938 450.515625 L 224.734375 446.820312 L 227.816406 441.835938 L 228.660156 440.34375 L 230.792969 433.863281 L 231.570312 427.382812 L 231.246094 420.902344 L 230.039062 414.421875 L 228.160156 407.941406 L 227.816406 406.925781 L 225.753906 401.460938 L 223.132812 394.980469 L 221.335938 390.214844 L 220.578125 388.5 L 218.414062 382.019531 L 217.28125 375.539062 L 217.757812 369.058594 L 220.40625 362.578125 L 221.335938 361.351562 L 225.003906 356.097656 L 227.816406 353.226562 L 231.042969 349.617188 L 234.296875 346.53125 L 237.550781 343.136719 L 240.777344 339.917969 L 243.757812 336.65625 L 247.257812 332.585938 L 249.164062 330.175781 L 253.441406 323.695312 L 253.738281 323.054688 L 256.261719 317.214844 L 257.5 310.734375 L 256.820312 304.253906 L 253.8125 297.773438 L 253.738281 297.683594 L 247.46875 291.292969 L 247.257812 291.144531 L 240.777344 287.359375 L 235.222656 284.8125 L 234.296875 284.480469 L 227.816406 282.660156 L 221.335938 281.390625 L 214.855469 280.640625 L 208.375 280.394531 L 201.894531 280.636719 L 195.414062 281.382812 L 188.933594 282.648438 L 182.453125 284.460938 L 181.472656 284.8125 L 175.972656 287.25 L 169.492188 290.867188 L 168.84375 291.292969 L 163.011719 296.433594 L 161.6875 297.773438 L 157.292969 304.253906 L 156.53125 306.113281 L 154.765625 310.734375 L 153.550781 317.214844 L 153.28125 323.695312 L 153.648438 330.175781 L 154.3125 336.65625 L 154.855469 343.136719 L 154.691406 349.617188 L 153 356.097656 L 150.050781 360.640625 L 148.75 362.578125 L 143.570312 367.140625 L 141.289062 369.058594 L 137.089844 371.597656 L 130.609375 375.3125 L 130.203125 375.539062 L 124.128906 378.324219 L 117.648438 381.097656 L 115.378906 382.019531 L 111.167969 383.554688 L 104.6875 385.777344 L 98.207031 387.835938 L 95.996094 388.5 L 91.726562 389.742188 L 85.246094 391.542969 L 78.765625 393.285156 L 72.453125 394.980469 L 72.285156 395.027344 L 65.804688 396.894531 L 59.324219 398.894531 L 52.84375 401.09375 L 51.882812 401.460938 L 46.363281 403.769531 "/>
<path style="fill:none;stroke-width:0.425197;stroke-linecap:butt;stroke-linejoin:round;stroke:rgb(17.254902%,36.470588%,52.54902%);stroke-opacity:1;stroke-miterlimit:1;" d="M 687.921875 182.414062 L 681.441406 184.21875 L 674.960938 185.859375 L 668.480469 187.386719 L 667.507812 187.605469 L 662 188.925781 L 655.519531 190.445312 L 649.039062 191.972656 L 642.558594 193.539062 L 640.40625 194.085938 L 636.078125 195.304688 L 629.597656 197.242188 L 623.117188 199.3125 L 619.464844 200.566406 L 616.636719 201.691406 L 610.15625 204.460938 L 604.523438 207.046875 L 603.675781 207.519531 L 597.195312 211.347656 L 593.730469 213.527344 L 590.714844 215.921875 L 585.859375 220.007812 L 584.234375 221.832031 L 580.289062 226.488281 L 577.753906 230.828125 L 576.554688 232.96875 L 574.28125 239.449219 L 573.035156 245.929688 L 572.378906 252.410156 L 571.875 258.890625 L 571.273438 264.046875 L 571.125 265.371094 L 569.78125 271.851562 L 567.503906 278.332031 L 564.792969 283.320312 L 563.957031 284.8125 L 558.777344 291.292969 L 558.316406 291.734375 L 551.835938 297.394531 L 551.351562 297.773438 L 545.355469 301.613281 L 540.519531 304.253906 L 538.875 305.039062 L 532.394531 307.714844 L 525.914062 309.890625 L 522.832031 310.734375 L 519.433594 311.609375 L 512.953125 312.914062 L 506.472656 313.851562 L 499.992188 314.453125 L 493.511719 314.722656 L 487.03125 314.671875 L 480.550781 314.292969 L 474.070312 313.582031 L 467.589844 312.511719 L 461.109375 311.0625 L 459.929688 310.734375 L 454.628906 309.136719 L 448.148438 306.71875 L 442.699219 304.253906 L 441.667969 303.703125 L 435.1875 299.742188 L 432.378906 297.773438 L 428.707031 294.429688 L 425.582031 291.292969 L 422.226562 286.367188 L 421.222656 284.8125 L 418.726562 278.332031 L 417.734375 271.851562 L 417.917969 265.371094 L 418.976562 258.890625 L 420.609375 252.410156 L 422.226562 246.894531 L 422.507812 245.929688 L 424.359375 239.449219 L 425.960938 232.96875 L 427.195312 226.488281 L 428.097656 220.007812 L 428.707031 214.460938 L 428.808594 213.527344 L 429.542969 207.046875 L 430.539062 200.566406 L 432.019531 194.085938 L 434.167969 187.605469 L 435.1875 185.359375 L 437.078125 181.125 L 440.839844 174.644531 L 441.667969 173.484375 L 445.433594 168.164062 L 448.148438 164.921875 L 450.84375 161.683594 L 454.628906 157.703125 L 456.992188 155.207031 L 461.109375 151.292969 L 463.816406 148.726562 L 467.589844 145.445312 L 471.308594 142.246094 L 474.070312 140.046875 L 479.585938 135.765625 L 480.550781 135.066406 L 487.03125 130.519531 L 488.875 129.285156 L 493.511719 126.378906 L 499.699219 122.804688 L 499.992188 122.640625 L 506.472656 119.292969 L 512.953125 116.328125 L 512.964844 116.324219 L 519.433594 113.667969 L 525.914062 111.359375 L 530.78125 109.84375 L 532.394531 109.339844 L 538.875 107.542969 L 545.355469 106.019531 L 551.835938 104.730469 L 558.316406 103.648438 L 560.34375 103.363281 L 564.792969 102.703125 L 571.273438 101.914062 L 577.753906 101.277344 L 584.234375 100.78125 L 590.714844 100.398438 L 597.195312 100.121094 L 603.675781 99.933594 L 610.15625 99.828125 L 616.636719 99.796875 L 623.117188 99.832031 L 629.597656 99.9375 L 636.078125 100.117188 L 642.558594 100.375 L 649.039062 100.722656 L 655.519531 101.171875 L 662 101.746094 L 668.480469 102.460938 L 674.960938 103.347656 L 675.054688 103.363281 L 681.441406 104.398438 L 687.921875 105.679688 "/>
<path style="fill:none;stroke-width:0.425197;stroke-linecap:butt;stroke-linejoin:round;stroke:rgb(20%,41.568627%,59.607843%);stroke-opacity:1;stroke-miterlimit:1;" d="M 46.363281 425.742188 L 51.429688 420.902344 L 52.84375 419.988281 L 59.324219 416.335938 L 63.15625 414.421875 L 65.804688 413.378906 L 72.285156 411.070312 L 78.765625 408.90625 L 81.75 407.941406 L 85.246094 406.964844 L 91.726562 405.152344 L 98.207031 403.285156 L 104.226562 401.460938 L 104.6875 401.332031 L 111.167969 399.441406 L 117.648438 397.460938 L 124.128906 395.414062 L 125.515625 394.980469 L 130.609375 393.375 L 137.089844 391.371094 L 143.570312 389.464844 L 147.277344 388.5 L 150.050781 387.691406 L 156.53125 386.132812 L 163.011719 384.980469 L 169.492188 384.402344 L 175.972656 384.621094 L 182.453125 385.9375 L 188.34375 388.5 L 188.933594 388.742188 L 195.414062 392.890625 L 197.675781 394.980469 L 201.894531 398.957031 L 203.945312 401.460938 L 208.375 407.558594 L 208.601562 407.941406 L 211.777344 414.421875 L 213.75 420.902344 L 214.300781 427.382812 L 213.160156 433.863281 L 209.988281 440.34375 L 208.375 442.261719 L 203.875 446.820312 L 201.894531 448.21875 L 195.414062 451.96875 L 192.507812 453.300781 L 188.933594 454.597656 L 182.453125 456.410156 L 175.972656 457.730469 L 169.492188 458.636719 L 163.011719 459.1875 L 156.53125 459.453125 L 150.050781 459.480469 L 143.570312 459.328125 L 137.089844 459.042969 L 130.609375 458.675781 L 124.128906 458.261719 L 117.648438 457.835938 L 111.167969 457.417969 L 104.6875 457.019531 L 98.207031 456.636719 L 91.726562 456.242188 L 85.246094 455.789062 L 78.765625 455.230469 L 72.285156 454.484375 L 65.804688 453.464844 L 65.035156 453.300781 L 59.324219 451.605469 L 52.84375 448.984375 L 48.777344 446.820312 L 46.363281 444.425781 "/>
<path style="fill:none;stroke-width:0.425197;stroke-linecap:butt;stroke-linejoin:round;stroke:rgb(20%,41.568627%,59.607843%);stroke-opacity:1;stroke-miterlimit:1;" d="M 182.453125 324.511719 L 182.027344 323.695312 L 180.632812 317.214844 L 181.703125 310.734375 L 182.453125 309.484375 L 186.375 304.253906 L 188.933594 302.394531 L 195.414062 299.03125 L 199.503906 297.773438 L 201.894531 297.285156 L 208.375 296.902344 L 214.855469 297.484375 L 216.0625 297.773438 L 221.335938 299.824219 L 227.816406 304.136719 L 227.941406 304.253906 L 230.550781 310.734375 L 229.433594 317.214844 L 227.816406 319.867188 L 224.941406 323.695312 L 221.335938 326.925781 L 216.625 330.175781 L 214.855469 331.222656 L 208.375 333.800781 L 201.894531 335.050781 L 195.414062 334.609375 L 188.933594 331.871094 L 186.917969 330.175781 L 182.453125 324.511719 "/>
<path style="fill:none;stroke-width:0.425197;stroke-linecap:butt;stroke-linejoin:round;stroke:rgb(20%,41.568627%,59.607843%);stroke-opacity:1;stroke-miterlimit:1;" d="M 687.921875 174.796875 L 681.441406 176.832031 L 674.960938 178.660156 L 668.480469 180.328125 L 665.207031 181.125 L 662 181.90625 L 655.519531 183.429688 L 649.039062 184.933594 L 642.558594 186.453125 L 637.792969 187.605469 L 636.078125 188.046875 L 629.597656 189.792969 L 623.117188 191.644531 L 616.636719 193.621094 L 615.207031 194.085938 L 610.15625 195.914062 L 603.675781 198.425781 L 598.503906 200.566406 L 597.195312 201.195312 L 590.714844 204.488281 L 585.964844 207.046875 L 584.234375 208.179688 L 577.753906 212.613281 L 576.464844 213.527344 L 571.273438 218.242188 L 569.386719 220.007812 L 564.792969 225.925781 L 564.367188 226.488281 L 561.089844 232.96875 L 559.277344 239.449219 L 558.5 245.929688 L 558.316406 251.3125 L 558.277344 252.410156 L 558.121094 258.890625 L 557.582031 265.371094 L 556.246094 271.851562 L 553.734375 278.332031 L 551.835938 281.410156 L 549.585938 284.8125 L 545.355469 289.25 L 543.175781 291.292969 L 538.875 294.367188 L 533.285156 297.773438 L 532.394531 298.222656 L 525.914062 301 L 519.433594 303.210938 L 515.503906 304.253906 L 512.953125 304.859375 L 506.472656 305.984375 L 499.992188 306.6875 L 493.511719 306.992188 L 487.03125 306.894531 L 480.550781 306.398438 L 474.070312 305.480469 L 468.207031 304.253906 L 467.589844 304.105469 L 461.109375 302.085938 L 454.628906 299.480469 L 451.144531 297.773438 L 448.148438 295.925781 L 441.835938 291.292969 L 441.667969 291.121094 L 436.257812 284.8125 L 435.1875 282.71875 L 433.097656 278.332031 L 431.753906 271.851562 L 431.804688 265.371094 L 432.882812 258.890625 L 434.625 252.410156 L 435.1875 250.605469 L 436.691406 245.929688 L 438.695312 239.449219 L 440.347656 232.96875 L 441.515625 226.488281 L 441.667969 225.140625 L 442.253906 220.007812 L 442.722656 213.527344 L 443.195312 207.046875 L 443.953125 200.566406 L 445.242188 194.085938 L 447.238281 187.605469 L 448.148438 185.542969 L 450.078125 181.125 L 453.78125 174.644531 L 454.628906 173.453125 L 458.347656 168.164062 L 461.109375 164.847656 L 463.71875 161.683594 L 467.589844 157.589844 L 469.824219 155.207031 L 474.070312 151.164062 L 476.628906 148.726562 L 480.550781 145.351562 L 484.199219 142.246094 L 487.03125 140.054688 L 492.75 135.765625 L 493.511719 135.242188 L 499.992188 130.964844 L 502.6875 129.285156 L 506.472656 127.121094 L 512.953125 123.714844 L 514.832031 122.804688 L 519.433594 120.71875 L 525.914062 118.101562 L 530.898438 116.324219 L 532.394531 115.8125 L 538.875 113.832031 L 545.355469 112.136719 L 551.835938 110.699219 L 556.390625 109.84375 L 558.316406 109.480469 L 564.792969 108.449219 L 571.273438 107.609375 L 577.753906 106.941406 L 584.234375 106.417969 L 590.714844 106.027344 L 597.195312 105.75 L 603.675781 105.570312 L 610.15625 105.484375 L 616.636719 105.480469 L 623.117188 105.558594 L 629.597656 105.710938 L 636.078125 105.945312 L 642.558594 106.273438 L 649.039062 106.699219 L 655.519531 107.246094 L 662 107.933594 L 668.480469 108.789062 L 674.960938 109.835938 L 675 109.84375 L 681.441406 111.15625 L 687.921875 112.765625 "/>
<path style="fill:none;stroke-width:0.425197;stroke-linecap:butt;stroke-linejoin:round;stroke:rgb(22.745098%,47.058824%,66.666667%);stroke-opacity:1;stroke-miterlimit:1;" d="M 104.6875 436.402344 L 100.234375 433.863281 L 101.054688 427.382812 L 104.6875 424.925781 L 109.953125 420.902344 L 111.167969 420.378906 L 117.648438 417.453125 L 123.984375 414.421875 L 124.128906 414.371094 L 130.609375 412.160156 L 137.089844 410.058594 L 143.570312 408.195312 L 144.722656 407.941406 L 150.050781 406.9375 L 156.53125 406.183594 L 163.011719 406.042969 L 169.492188 406.691406 L 174.503906 407.941406 L 175.972656 408.40625 L 182.453125 411.847656 L 185.730469 414.421875 L 188.933594 418.441406 L 190.429688 420.902344 L 191.609375 427.382812 L 189.597656 433.863281 L 188.933594 434.632812 L 182.671875 440.34375 L 182.453125 440.460938 L 175.972656 443.078125 L 169.492188 444.855469 L 163.011719 445.921875 L 156.53125 446.382812 L 150.050781 446.34375 L 143.570312 445.894531 L 137.089844 445.109375 L 130.609375 444.070312 L 124.128906 442.839844 L 117.648438 441.464844 L 112.6875 440.34375 L 111.167969 439.640625 L 104.6875 436.402344 "/>
<path style="fill:none;stroke-width:0.425197;stroke-linecap:butt;stroke-linejoin:round;stroke:rgb(22.745098%,47.058824%,66.666667%);stroke-opacity:1;stroke-miterlimit:1;" d="M 687.921875 166.65625 L 684.402344 168.164062 L 681.441406 169.242188 L 674.960938 171.371094 L 668.480469 173.292969 L 663.5625 174.644531 L 662 175.046875 L 655.519531 176.640625 L 649.039062 178.1875 L 642.558594 179.726562 L 636.785156 181.125 L 636.078125 181.296875 L 629.597656 182.929688 L 623.117188 184.644531 L 616.636719 186.464844 L 612.796875 187.605469 L 610.15625 188.445312 L 603.675781 190.617188 L 597.195312 192.9375 L 594.160156 194.085938 L 590.714844 195.539062 L 584.234375 198.417969 L 579.640625 200.566406 L 577.753906 201.597656 L 571.273438 205.25 L 568.191406 207.046875 L 564.792969 209.46875 L 559.234375 213.527344 L 558.316406 214.398438 L 552.417969 220.007812 L 551.835938 220.796875 L 547.558594 226.488281 L 545.355469 231.402344 L 544.625 232.96875 L 543.226562 239.449219 L 543 245.929688 L 543.335938 252.410156 L 543.640625 258.890625 L 543.347656 265.371094 L 541.96875 271.851562 L 539.039062 278.332031 L 538.875 278.558594 L 533.679688 284.8125 L 532.394531 285.882812 L 525.914062 290.480469 L 524.519531 291.292969 L 519.433594 293.570312 L 512.953125 295.816406 L 506.472656 297.421875 L 504.207031 297.773438 L 499.992188 298.328125 L 493.511719 298.667969 L 487.03125 298.503906 L 480.550781 297.824219 L 480.265625 297.773438 L 474.070312 296.398438 L 467.589844 294.277344 L 461.109375 291.417969 L 460.875 291.292969 L 454.628906 286.636719 L 452.59375 284.8125 L 448.148438 278.34375 L 448.140625 278.332031 L 446.292969 271.851562 L 446.191406 265.371094 L 447.363281 258.890625 L 448.148438 256.296875 L 449.417969 252.410156 L 451.863281 245.929688 L 454.140625 239.449219 L 454.628906 237.65625 L 456.007812 232.96875 L 457.140625 226.488281 L 457.578125 220.007812 L 457.601562 213.527344 L 457.589844 207.046875 L 457.894531 200.566406 L 458.804688 194.085938 L 460.5 187.605469 L 461.109375 186.105469 L 463.125 181.125 L 466.644531 174.644531 L 467.589844 173.273438 L 471.0625 168.164062 L 474.070312 164.453125 L 476.28125 161.683594 L 480.550781 157.074219 L 482.257812 155.207031 L 487.03125 150.640625 L 489.023438 148.726562 L 493.511719 144.929688 L 496.726562 142.246094 L 499.992188 139.832031 L 505.703125 135.765625 L 506.472656 135.273438 L 512.953125 131.363281 L 516.660156 129.285156 L 519.433594 127.882812 L 525.914062 124.894531 L 530.976562 122.804688 L 532.394531 122.265625 L 538.875 120.054688 L 545.355469 118.152344 L 551.835938 116.519531 L 552.742188 116.324219 L 558.316406 115.171875 L 564.792969 114.058594 L 571.273438 113.15625 L 577.753906 112.4375 L 584.234375 111.882812 L 590.714844 111.472656 L 597.195312 111.195312 L 603.675781 111.03125 L 610.15625 110.96875 L 616.636719 111.007812 L 623.117188 111.132812 L 629.597656 111.355469 L 636.078125 111.671875 L 642.558594 112.097656 L 649.039062 112.644531 L 655.519531 113.332031 L 662 114.183594 L 668.480469 115.238281 L 673.96875 116.324219 L 674.960938 116.550781 L 681.441406 118.300781 L 687.921875 120.429688 "/>
<path style="fill:none;stroke-width:0.425197;stroke-linecap:butt;stroke-linejoin:round;stroke:rgb(25.490196%,52.54902%,74.117647%);stroke-opacity:1;stroke-miterlimit:1;" d="M 687.921875 156.375 L 681.441406 160.273438 L 678.824219 161.683594 L 674.960938 163.253906 L 668.480469 165.628906 L 662 167.796875 L 660.828125 168.164062 L 655.519531 169.605469 L 649.039062 171.285156 L 642.558594 172.933594 L 636.078125 174.59375 L 635.882812 174.644531 L 629.597656 176.191406 L 623.117188 177.84375 L 616.636719 179.585938 L 611.210938 181.125 L 610.15625 181.429688 L 603.675781 183.363281 L 597.195312 185.421875 L 590.734375 187.605469 L 590.714844 187.613281 L 584.234375 190.007812 L 577.753906 192.546875 L 573.964844 194.085938 L 571.273438 195.3125 L 564.792969 198.324219 L 560.125 200.566406 L 558.316406 201.585938 L 551.835938 205.214844 L 548.554688 207.046875 L 545.355469 209.257812 L 539.0625 213.527344 L 538.875 213.699219 L 532.394531 219.183594 L 531.328125 220.007812 L 525.945312 226.488281 L 525.914062 226.570312 L 522.808594 232.96875 L 522.265625 239.449219 L 523.3125 245.929688 L 524.976562 252.410156 L 525.914062 256.894531 L 526.246094 258.890625 L 526.382812 265.371094 L 525.914062 267.40625 L 524.714844 271.851562 L 520.371094 278.332031 L 519.433594 279.144531 L 512.953125 283.585938 L 510.476562 284.8125 L 506.472656 286.183594 L 499.992188 287.535156 L 493.511719 288.027344 L 487.03125 287.648438 L 480.550781 286.363281 L 476.007812 284.8125 L 474.070312 283.796875 L 467.589844 278.898438 L 467.011719 278.332031 L 463.773438 271.851562 L 463.332031 265.371094 L 464.875 258.890625 L 467.585938 252.410156 L 467.589844 252.398438 L 471.269531 245.929688 L 474.070312 240.25 L 474.5625 239.449219 L 477.136719 232.96875 L 477.96875 226.488281 L 477.378906 220.007812 L 476.023438 213.527344 L 474.632812 207.046875 L 474.070312 202.839844 L 473.824219 200.566406 L 473.871094 194.085938 L 474.070312 192.878906 L 474.941406 187.605469 L 477.050781 181.125 L 480.105469 174.644531 L 480.550781 173.949219 L 484.167969 168.164062 L 487.03125 164.417969 L 489.066406 161.683594 L 493.511719 156.703125 L 494.820312 155.207031 L 499.992188 150.21875 L 501.53125 148.726562 L 506.472656 144.667969 L 509.472656 142.246094 L 512.953125 139.84375 L 519.160156 135.765625 L 519.433594 135.609375 L 525.914062 132.15625 L 531.824219 129.285156 L 532.394531 129.039062 L 538.875 126.53125 L 545.355469 124.339844 L 550.582031 122.804688 L 551.835938 122.46875 L 558.316406 120.988281 L 564.792969 119.761719 L 571.273438 118.765625 L 577.753906 117.976562 L 584.234375 117.371094 L 590.714844 116.9375 L 597.195312 116.65625 L 603.675781 116.515625 L 610.15625 116.496094 L 616.636719 116.59375 L 623.117188 116.808594 L 629.597656 117.136719 L 636.078125 117.585938 L 642.558594 118.171875 L 649.039062 118.910156 L 655.519531 119.828125 L 662 120.957031 L 668.480469 122.339844 L 670.308594 122.804688 L 674.960938 124.324219 L 681.441406 126.875 L 686.53125 129.285156 L 687.921875 130.320312 "/>
<path style="fill:none;stroke-width:0.425197;stroke-linecap:butt;stroke-linejoin:round;stroke:rgb(28.235294%,58.039216%,81.568627%);stroke-opacity:1;stroke-miterlimit:1;" d="M 493.511719 191.730469 L 492.796875 187.605469 L 493.304688 181.125 L 493.511719 180.488281 L 495.34375 174.644531 L 498.515625 168.164062 L 499.992188 165.988281 L 502.808594 161.683594 L 506.472656 157.300781 L 508.175781 155.207031 L 512.953125 150.566406 L 514.835938 148.726562 L 519.433594 145.136719 L 523.230469 142.246094 L 525.914062 140.578125 L 532.394531 136.800781 L 534.3125 135.765625 L 538.875 133.726562 L 545.355469 131.136719 L 550.609375 129.285156 L 551.835938 128.914062 L 558.316406 127.242188 L 564.792969 125.847656 L 571.273438 124.714844 L 577.753906 123.824219 L 584.234375 123.15625 L 589.175781 122.804688 L 590.714844 122.707031 L 597.195312 122.46875 L 603.675781 122.386719 L 610.15625 122.445312 L 616.636719 122.632812 L 620.191406 122.804688 L 623.117188 122.972656 L 629.597656 123.503906 L 636.078125 124.203125 L 642.558594 125.089844 L 649.039062 126.1875 L 655.519531 127.542969 L 662 129.191406 L 662.300781 129.285156 L 668.480469 132.125 L 674.941406 135.765625 L 674.960938 135.792969 L 678.972656 142.246094 L 677.253906 148.726562 L 674.960938 150.835938 L 669.742188 155.207031 L 668.480469 155.835938 L 662 158.789062 L 655.519531 161.527344 L 655.121094 161.683594 L 649.039062 163.527344 L 642.558594 165.425781 L 636.078125 167.3125 L 633.179688 168.164062 L 629.597656 169.074219 L 623.117188 170.75 L 616.636719 172.496094 L 610.15625 174.332031 L 609.089844 174.644531 L 603.675781 176.136719 L 597.195312 178.007812 L 590.714844 179.984375 L 587.09375 181.125 L 584.234375 182.035156 L 577.753906 184.140625 L 571.273438 186.339844 L 567.609375 187.605469 L 564.792969 188.644531 L 558.316406 191.011719 L 551.835938 193.445312 L 550.035156 194.085938 L 545.355469 195.953125 L 538.875 198.433594 L 532.972656 200.566406 L 532.394531 200.8125 L 525.914062 203.011719 L 519.433594 204.699219 L 512.953125 205.546875 L 506.472656 204.988281 L 499.992188 201.996094 L 498.480469 200.566406 L 494.105469 194.085938 L 493.511719 191.730469 "/>
<path style="fill:none;stroke-width:0.425197;stroke-linecap:butt;stroke-linejoin:round;stroke:rgb(30.980392%,63.529412%,89.019608%);stroke-opacity:1;stroke-miterlimit:1;" d="M 519.433594 181.539062 L 518.914062 181.125 L 515.617188 174.644531 L 516.179688 168.164062 L 518.882812 161.683594 L 519.433594 160.945312 L 523.5625 155.207031 L 525.914062 152.914062 L 530.199219 148.726562 L 532.394531 147.152344 L 538.875 142.695312 L 539.570312 142.246094 L 545.355469 139.464844 L 551.835938 136.640625 L 554.117188 135.765625 L 558.316406 134.511719 L 564.792969 132.894531 L 571.273438 131.578125 L 577.753906 130.554688 L 584.234375 129.8125 L 590.714844 129.339844 L 592.433594 129.285156 L 597.195312 129.160156 L 603.675781 129.1875 L 606.703125 129.285156 L 610.15625 129.433594 L 616.636719 129.949219 L 623.117188 130.707031 L 629.597656 131.722656 L 636.078125 133.015625 L 642.558594 134.625 L 646.371094 135.765625 L 649.039062 137.507812 L 654.917969 142.246094 L 653.320312 148.726562 L 649.039062 151.589844 L 643.511719 155.207031 L 642.558594 155.5625 L 636.078125 157.9375 L 629.597656 160.332031 L 626.011719 161.683594 L 623.117188 162.5 L 616.636719 164.347656 L 610.15625 166.277344 L 604.121094 168.164062 L 603.675781 168.285156 L 597.195312 170.019531 L 590.714844 171.816406 L 584.234375 173.6875 L 580.917969 174.644531 L 577.753906 175.5 L 571.273438 177.210938 L 564.792969 178.917969 L 558.316406 180.605469 L 556.058594 181.125 L 551.835938 182.105469 L 545.355469 183.363281 L 538.875 184.308594 L 532.394531 184.710938 L 525.914062 184.121094 L 519.433594 181.539062 "/>
<path style="fill:none;stroke-width:0.425197;stroke-linecap:butt;stroke-linejoin:round;stroke:rgb(33.72549%,69.411765%,96.862745%);stroke-opacity:1;stroke-miterlimit:1;" d="M 545.355469 163.886719 L 543.5 161.683594 L 545.003906 155.207031 L 545.355469 154.867188 L 551.71875 148.726562 L 551.835938 148.660156 L 558.316406 145.519531 L 564.792969 142.605469 L 565.765625 142.246094 L 571.273438 140.996094 L 577.753906 139.921875 L 584.234375 139.25 L 590.714844 138.996094 L 597.195312 139.1875 L 603.675781 139.84375 L 610.15625 141.003906 L 614.957031 142.246094 L 616.636719 144.910156 L 618.3125 148.726562 L 616.636719 149.785156 L 610.15625 154.140625 L 608.6875 155.207031 L 603.675781 156.898438 L 597.195312 159.152344 L 590.714844 161.535156 L 590.285156 161.683594 L 584.234375 163.105469 L 577.753906 164.542969 L 571.273438 165.832031 L 564.792969 166.867188 L 558.316406 167.40625 L 551.835938 166.921875 L 545.355469 163.886719 "/>
</g>
</svg>
