<?xml version="1.0" encoding="UTF-8"?>
<svg xmlns="http://www.w3.org/2000/svg" xmlns:xlink="http://www.w3.org/1999/xlink" width="720pt" height="720pt" viewBox="0 0 720 720" version="1.1">
<defs>
<clipPath id="clip1">
  <path d="M 14.285156 0 L 720 0 L 720 706 L 14.285156 706 Z "/>
</clipPath>
</defs>
<g id="surface121">
<rect x="0" y="0" width="720" height="720" style="fill:rgb(100%,100%,100%);fill-opacity:1;stroke:none;"/>
<rect x="0" y="0" width="720" height="720" style="fill:rgb(100%,100%,100%);fill-opacity:1;stroke:none;"/>
<path style="fill:none;stroke-width:1.062992;stroke-linecap:round;stroke-linejoin:round;stroke:rgb(100%,100%,100%);stroke-opacity:1;stroke-miterlimit:10;" d="M 0 720 L 720 720 L 720 0 L 0 0 Z "/>
<g clip-path="url(#clip1)" clip-rule="nonzero">
<path style=" stroke:none;fill-rule:nonzero;fill:rgb(100%,100%,100%);fill-opacity:1;" d="M 14.285156 705.714844 L 720 705.714844 L 720 0 L 14.285156 0 Z "/>
</g>
<path style="fill:none;stroke-width:0.425197;stroke-linecap:butt;stroke-linejoin:round;stroke:rgb(7.45098%,16.862745%,26.27451%);stroke-opacity:1;stroke-miterlimit:1;" d="M 214.855469 361.410156 L 213.671875 356.097656 L 213.496094 349.617188 L 214.523438 343.136719 L 214.855469 342.027344 L 216.136719 336.65625 L 218.40625 330.175781 L 221.234375 323.695312 L 221.335938 323.425781 L 223.5625 317.214844 L 225.394531 310.734375 L 226.046875 304.253906 L 225.292969 297.773438 L 223.621094 291.292969 L 221.796875 284.8125 L 221.335938 282.597656 L 220.433594 278.332031 L 220.058594 271.851562 L 221.125 265.371094 L 221.335938 264.90625 L 224.445312 258.890625 L 227.816406 255.507812 L 232.171875 252.410156 L 234.296875 251.320312 L 240.777344 249.183594 L 247.257812 248.128906 L 253.738281 247.859375 L 260.21875 248.132812 L 266.699219 248.691406 L 273.179688 249.203125 L 279.65625 249.332031 L 286.136719 248.882812 L 292.617188 247.96875 L 299.097656 246.914062 L 305.578125 246.042969 L 306.898438 245.929688 L 312.058594 245.488281 L 318.539062 245.328125 L 325.019531 245.488281 L 331.5 245.785156 L 337.796875 245.929688 L 337.980469 245.933594 L 338.058594 245.929688 L 344.460938 245.546875 L 350.941406 244.257812 L 357.421875 242.019531 L 363.328125 239.449219 L 363.902344 239.214844 L 370.382812 236.433594 L 376.863281 234.191406 L 381.445312 232.96875 L 383.34375 232.425781 L 389.824219 230.957031 L 396.304688 229.945312 L 402.785156 229.273438 L 409.265625 228.867188 L 415.746094 228.695312 L 422.226562 228.75 L 428.707031 229.050781 L 435.1875 229.636719 L 441.667969 230.578125 L 448.148438 231.964844 L 451.730469 232.96875 L 454.628906 233.710938 L 461.109375 235.839844 L 467.589844 238.742188 L 469.042969 239.449219 L 474.070312 242.480469 L 479.21875 245.929688 L 480.550781 247.074219 L 487.03125 251.726562 L 488.269531 252.410156 L 493.511719 254.683594 L 499.992188 256.71875 L 506.472656 258.585938 L 507.394531 258.890625 L 512.953125 260.234375 L 519.433594 262.730469 L 523.746094 265.371094 L 525.914062 266.523438 L 532.363281 271.851562 L 532.394531 271.875 L 538.609375 278.332031 L 538.875 278.628906 L 543.820312 284.8125 L 545.355469 287.144531 L 548.113281 291.292969 L 551.195312 297.773438 L 551.835938 300.152344 L 553.148438 304.253906 L 553.488281 310.734375 L 551.910156 317.214844 L 551.835938 317.363281 L 548.882812 323.695312 L 545.355469 328.292969 L 543.894531 330.175781 L 538.875 335.222656 L 537.300781 336.65625 L 532.394531 340.734375 L 528.964844 343.136719 L 525.914062 345.433594 L 519.433594 349.539062 L 519.296875 349.617188 L 512.953125 355.304688 L 512.03125 356.097656 L 510.722656 362.578125 L 512.953125 368.945312 L 512.988281 369.058594 L 515.46875 375.539062 L 516.257812 382.019531 L 515.0625 388.5 L 512.953125 392.761719 L 511.941406 394.980469 L 507.34375 401.460938 L 506.472656 402.523438 L 501.796875 407.941406 L 499.992188 409.988281 L 495.578125 414.421875 L 493.511719 416.535156 L 488.144531 420.902344 L 487.03125 421.78125 L 480.550781 425.6875 L 476.195312 427.382812 L 474.070312 428.21875 L 467.589844 429.980469 L 461.109375 430.996094 L 454.628906 431.460938 L 448.148438 431.46875 L 441.667969 431.035156 L 435.1875 430.160156 L 428.707031 428.851562 L 422.839844 427.382812 L 422.226562 427.238281 L 415.746094 425.78125 L 409.265625 424.660156 L 402.785156 424.238281 L 396.304688 424.65625 L 389.824219 425.738281 L 383.34375 427.164062 L 382.46875 427.382812 L 376.863281 428.792969 L 370.382812 430.292969 L 363.902344 431.585938 L 357.421875 432.71875 L 350.941406 433.792969 L 350.5625 433.863281 L 344.460938 435.304688 L 337.980469 437.195312 L 331.5 439.722656 L 330.25 440.34375 L 325.019531 444.160156 L 321.820312 446.820312 L 318.539062 450.402344 L 315.691406 453.300781 L 312.058594 457.5 L 309.578125 459.78125 L 305.578125 464.011719 L 302.660156 466.261719 L 299.097656 469.507812 L 293.945312 472.742188 L 292.617188 473.582031 L 286.136719 476.148438 L 279.65625 477.160156 L 273.179688 476.726562 L 266.699219 474.832031 L 262.75 472.742188 L 260.21875 470.691406 L 256.796875 466.261719 L 254.523438 459.78125 L 253.738281 456.148438 L 253.265625 453.300781 L 252.007812 446.820312 L 250.546875 440.34375 L 248.570312 433.863281 L 247.257812 431.257812 L 245.371094 427.382812 L 241.140625 420.902344 L 240.777344 420.421875 L 236.628906 414.421875 L 234.296875 410.304688 L 232.972656 407.941406 L 230.046875 401.460938 L 227.886719 394.980469 L 227.816406 394.757812 L 225.34375 388.5 L 222.742188 382.019531 L 221.335938 378.609375 L 219.824219 375.539062 L 216.984375 369.058594 L 215.046875 362.578125 L 214.855469 361.410156 "/>
<path style="fill:none;stroke-width:0.425197;stroke-linecap:butt;stroke-linejoin:round;stroke:rgb(9.803922%,21.568627%,32.54902%);stroke-opacity:1;stroke-miterlimit:1;" d="M 227.816406 365.9375 L 226.480469 362.578125 L 225.0625 356.097656 L 224.9375 349.617188 L 226.125 343.136719 L 227.816406 338.75 L 228.558594 336.65625 L 231.976562 330.175781 L 234.296875 326.632812 L 236.496094 323.695312 L 240.777344 318.167969 L 241.734375 317.214844 L 247.058594 310.734375 L 247.257812 310.359375 L 251.753906 304.253906 L 253.738281 299.726562 L 255.070312 297.773438 L 258.203125 291.292969 L 260.21875 288.402344 L 266.699219 285.605469 L 272.210938 284.8125 L 273.179688 284.703125 L 279.65625 283.710938 L 286.136719 282.230469 L 292.617188 280.242188 L 298.109375 278.332031 L 299.097656 277.894531 L 305.578125 275.210938 L 312.058594 273.515625 L 318.539062 273.746094 L 325.019531 276.421875 L 327.652344 278.332031 L 331.5 280.015625 L 337.980469 282.921875 L 343.484375 284.8125 L 344.460938 285.007812 L 350.941406 285.730469 L 357.421875 285.777344 L 363.902344 285.273438 L 366.910156 284.8125 L 370.382812 283.816406 L 376.863281 280.660156 L 379.984375 278.332031 L 378.921875 271.851562 L 376.863281 268.386719 L 374.996094 265.371094 L 372.996094 258.890625 L 375.160156 252.410156 L 376.863281 250.835938 L 382.433594 245.929688 L 383.34375 245.445312 L 389.824219 242.460938 L 396.304688 240.34375 L 400.15625 239.449219 L 402.785156 238.890625 L 409.265625 237.957031 L 415.746094 237.484375 L 422.226562 237.441406 L 428.707031 237.847656 L 435.1875 238.765625 L 438.199219 239.449219 L 441.667969 240.265625 L 448.148438 242.503906 L 454.628906 245.796875 L 454.855469 245.929688 L 461.109375 251.28125 L 462.296875 252.410156 L 467.152344 258.890625 L 467.589844 259.429688 L 474.070312 265.050781 L 474.636719 265.371094 L 480.550781 267.222656 L 487.03125 268.535156 L 493.511719 269.625 L 499.992188 270.890625 L 503.574219 271.851562 L 506.472656 272.46875 L 512.953125 274.546875 L 519.433594 277.960938 L 519.972656 278.332031 L 525.914062 282.554688 L 528.351562 284.8125 L 532.394531 289.371094 L 533.9375 291.292969 L 537.691406 297.773438 L 538.875 301.675781 L 539.734375 304.253906 L 539.9375 310.734375 L 538.875 314.339844 L 538.085938 317.214844 L 534.203125 323.695312 L 532.394531 325.738281 L 528.121094 330.175781 L 525.914062 332.054688 L 519.539062 336.65625 L 519.433594 336.730469 L 512.953125 340.707031 L 507.925781 343.136719 L 506.472656 343.972656 L 499.992188 347.214844 L 494.078125 349.617188 L 493.511719 350.050781 L 487.03125 354.386719 L 483.789062 356.097656 L 485.53125 362.578125 L 487.03125 363.433594 L 493.375 369.058594 L 493.511719 369.175781 L 498.742188 375.539062 L 499.992188 379.171875 L 500.855469 382.019531 L 499.992188 388.152344 L 499.945312 388.5 L 496.492188 394.980469 L 493.511719 398.488281 L 490.722656 401.460938 L 487.03125 404.785156 L 482.769531 407.941406 L 480.550781 409.546875 L 474.070312 413.109375 L 470.605469 414.421875 L 467.589844 415.617188 L 461.109375 417.175781 L 454.628906 417.828125 L 448.148438 417.6875 L 441.667969 416.785156 L 435.1875 415.132812 L 433.078125 414.421875 L 428.707031 412.726562 L 422.226562 409.679688 L 418.550781 407.941406 L 415.746094 405.816406 L 409.265625 401.550781 L 409.027344 401.460938 L 405.714844 394.980469 L 409.265625 391.140625 L 410.570312 388.5 L 415.746094 383.6875 L 417.199219 382.019531 L 422.226562 377.632812 L 424.695312 375.539062 L 428.707031 371.816406 L 432.429688 369.058594 L 435.1875 364.144531 L 436.519531 362.578125 L 435.1875 361.820312 L 428.707031 358.765625 L 422.226562 356.273438 L 421.738281 356.097656 L 415.746094 354.964844 L 409.265625 353.59375 L 402.785156 352.054688 L 396.304688 350.410156 L 392.609375 349.617188 L 389.824219 349.191406 L 383.34375 348.8125 L 377.632812 349.617188 L 376.863281 349.96875 L 373.324219 356.097656 L 372.859375 362.578125 L 372.828125 369.058594 L 373.410156 375.539062 L 376.160156 382.019531 L 376.863281 382.871094 L 382.445312 388.5 L 383.34375 389.457031 L 389.582031 394.980469 L 389.824219 396.742188 L 390.761719 401.460938 L 389.824219 402.019531 L 384.542969 407.941406 L 383.34375 408.574219 L 376.863281 412.535156 L 373.683594 414.421875 L 370.382812 415.6875 L 363.902344 417.742188 L 357.421875 419.265625 L 350.941406 420.316406 L 345.683594 420.902344 L 344.460938 421.023438 L 337.980469 421.546875 L 331.5 422.171875 L 325.019531 423.140625 L 318.539062 424.59375 L 312.058594 426.46875 L 309.027344 427.382812 L 305.578125 428.839844 L 299.097656 431.355469 L 292.617188 433 L 286.136719 433.179688 L 279.65625 431.546875 L 273.179688 427.800781 L 272.707031 427.382812 L 266.699219 424.15625 L 262.539062 420.902344 L 260.21875 419.535156 L 254.042969 414.421875 L 253.738281 414.164062 L 247.933594 407.941406 L 247.257812 406.988281 L 243.710938 401.460938 L 240.855469 394.980469 L 240.777344 394.785156 L 238.09375 388.5 L 235.234375 382.019531 L 234.296875 380.117188 L 231.886719 375.539062 L 228.878906 369.058594 L 227.816406 365.9375 "/>
<path style="fill:none;stroke-width:0.425197;stroke-linecap:butt;stroke-linejoin:round;stroke:rgb(12.156863%,26.27451%,39.215686%);stroke-opacity:1;stroke-miterlimit:1;" d="M 234.296875 363.117188 L 234.070312 362.578125 L 232.53125 356.097656 L 232.503906 349.617188 L 234.085938 343.136719 L 234.296875 342.671875 L 237.046875 336.65625 L 240.777344 331.527344 L 241.957031 330.175781 L 247.257812 324.984375 L 249.132812 323.695312 L 253.738281 320.234375 L 260.21875 317.269531 L 260.40625 317.214844 L 266.699219 314.570312 L 273.179688 313.035156 L 279.65625 312.214844 L 286.136719 311.859375 L 292.617188 311.847656 L 299.097656 312.1875 L 305.578125 312.996094 L 312.058594 314.546875 L 318.308594 317.214844 L 318.539062 317.265625 L 325.019531 318.394531 L 331.5 318.324219 L 332.378906 317.214844 L 331.769531 310.734375 L 336.761719 304.253906 L 337.980469 303.859375 L 344.460938 301.445312 L 350.941406 299.277344 L 355.734375 297.773438 L 357.421875 297.402344 L 363.902344 295.863281 L 370.382812 294.398438 L 376.863281 292.976562 L 383.34375 291.542969 L 384.394531 291.292969 L 389.824219 289.464844 L 396.304688 286.875 L 400.703125 284.8125 L 402.785156 280.351562 L 403.628906 278.332031 L 402.785156 277.128906 L 399.582031 271.851562 L 396.304688 267.921875 L 394.351562 265.371094 L 391.925781 258.890625 L 394.738281 252.410156 L 396.304688 251.332031 L 402.785156 247.914062 L 408.785156 245.929688 L 409.265625 245.820312 L 415.746094 244.96875 L 422.226562 244.800781 L 428.707031 245.328125 L 431.777344 245.929688 L 435.1875 246.796875 L 441.667969 249.542969 L 446.269531 252.410156 L 448.148438 254.558594 L 451.453125 258.890625 L 454.496094 265.371094 L 454.628906 265.578125 L 460.644531 271.851562 L 461.109375 272.050781 L 467.589844 273.921875 L 474.070312 274.945312 L 480.550781 275.617188 L 487.03125 276.253906 L 493.511719 277.121094 L 499.320312 278.332031 L 499.992188 278.457031 L 506.472656 280.292969 L 512.953125 283.222656 L 515.492188 284.8125 L 519.433594 287.757812 L 523.164062 291.292969 L 525.914062 295.128906 L 527.679688 297.773438 L 529.910156 304.253906 L 529.925781 310.734375 L 527.617188 317.214844 L 525.914062 319.644531 L 522.835938 323.695312 L 519.433594 326.851562 L 515.242188 330.175781 L 512.953125 331.730469 L 506.472656 335.402344 L 503.765625 336.65625 L 499.992188 338.425781 L 493.511719 340.894531 L 487.03125 342.847656 L 485.835938 343.136719 L 480.550781 344.777344 L 474.070312 346.285156 L 467.589844 347.324219 L 461.109375 347.941406 L 454.628906 348.195312 L 448.148438 348.152344 L 441.667969 347.851562 L 435.1875 347.3125 L 428.707031 346.527344 L 422.226562 345.460938 L 415.746094 344.070312 L 412.175781 343.136719 L 409.265625 342.507812 L 402.785156 340.945312 L 396.304688 339.230469 L 389.824219 337.421875 L 386.976562 336.65625 L 383.34375 335.808594 L 376.863281 334.429688 L 370.382812 333.097656 L 363.902344 331.769531 L 357.421875 330.367188 L 355.890625 330.175781 L 350.941406 329.445312 L 346.621094 330.175781 L 347.546875 336.65625 L 350.050781 343.136719 L 350.941406 345.65625 L 352.300781 349.617188 L 353.59375 356.097656 L 353.378906 362.578125 L 351.210938 369.058594 L 350.941406 369.5625 L 347.421875 375.539062 L 344.460938 379.570312 L 342.355469 382.019531 L 337.980469 388.113281 L 337.660156 388.5 L 334.933594 394.980469 L 331.5 400.152344 L 330.574219 401.460938 L 325.019531 404.820312 L 319.6875 407.941406 L 318.539062 408.355469 L 312.058594 411.117188 L 305.578125 413.507812 L 302.445312 414.421875 L 299.097656 415.402344 L 292.617188 416.664062 L 286.136719 417.035156 L 279.65625 416.421875 L 273.179688 414.667969 L 272.640625 414.421875 L 266.699219 411.980469 L 260.613281 407.941406 L 260.21875 407.632812 L 254.421875 401.460938 L 253.738281 400.457031 L 250.496094 394.980469 L 247.359375 388.5 L 247.257812 388.316406 L 243.84375 382.019531 L 240.777344 376.636719 L 240.148438 375.539062 L 236.570312 369.058594 L 234.296875 363.117188 "/>
<path style="fill:none;stroke-width:0.425197;stroke-linecap:butt;stroke-linejoin:round;stroke:rgb(12.156863%,26.27451%,39.215686%);stroke-opacity:1;stroke-miterlimit:1;" d="M 435.1875 397.734375 L 433.515625 394.980469 L 434.695312 388.5 L 435.1875 387.90625 L 440.390625 382.019531 L 441.667969 381.089844 L 448.148438 377.214844 L 451.976562 375.539062 L 454.628906 374.464844 L 461.109375 372.90625 L 467.589844 372.476562 L 474.070312 373.273438 L 480.296875 375.539062 L 480.550781 375.679688 L 486.496094 382.019531 L 486.46875 388.5 L 482.273438 394.980469 L 480.550781 396.5625 L 474.070312 401.378906 L 473.921875 401.460938 L 467.589844 404.277344 L 461.109375 405.964844 L 454.628906 406.476562 L 448.148438 405.714844 L 441.667969 403.492188 L 438.070312 401.460938 L 435.1875 397.734375 "/>
<path style="fill:none;stroke-width:0.425197;stroke-linecap:butt;stroke-linejoin:round;stroke:rgb(14.901961%,31.372549%,45.882353%);stroke-opacity:1;stroke-miterlimit:1;" d="M 240.777344 364.410156 L 239.941406 362.578125 L 238.371094 356.097656 L 238.480469 349.617188 L 240.433594 343.136719 L 240.777344 342.515625 L 244.332031 336.65625 L 247.257812 333.414062 L 251.167969 330.175781 L 253.738281 328.238281 L 260.21875 324.96875 L 264.632812 323.695312 L 266.699219 322.945312 L 273.179688 321.648438 L 279.65625 321.226562 L 286.136719 321.488281 L 292.617188 322.398438 L 297.8125 323.695312 L 299.097656 323.917969 L 305.578125 325.425781 L 312.058594 327.585938 L 317.589844 330.175781 L 318.539062 330.5625 L 325.019531 333.695312 L 329.40625 336.65625 L 331.5 338.28125 L 336.539062 343.136719 L 337.980469 345.332031 L 340.652344 349.617188 L 342.3125 356.097656 L 341.632812 362.578125 L 338.265625 369.058594 L 337.980469 369.410156 L 332.648438 375.539062 L 331.5 376.671875 L 325.542969 382.019531 L 325.019531 382.554688 L 318.734375 388.5 L 318.539062 388.722656 L 312.746094 394.980469 L 312.058594 395.679688 L 305.578125 401.386719 L 305.472656 401.460938 L 299.097656 404.96875 L 292.617188 407.121094 L 286.667969 407.941406 L 286.136719 408.007812 L 284.933594 407.941406 L 279.65625 407.644531 L 273.179688 405.878906 L 266.699219 402.359375 L 265.589844 401.460938 L 260.21875 395.71875 L 259.683594 394.980469 L 255.542969 388.5 L 253.738281 385.960938 L 251.289062 382.019531 L 247.257812 376.125 L 246.882812 375.539062 L 242.828125 369.058594 L 240.777344 364.410156 "/>
<path style="fill:none;stroke-width:0.425197;stroke-linecap:butt;stroke-linejoin:round;stroke:rgb(14.901961%,31.372549%,45.882353%);stroke-opacity:1;stroke-miterlimit:1;" d="M 363.902344 317.691406 L 363.285156 317.214844 L 361.457031 310.734375 L 363.902344 308.214844 L 368.359375 304.253906 L 370.382812 303.449219 L 376.863281 301.183594 L 383.34375 299.273438 L 388.972656 297.773438 L 389.824219 297.5625 L 396.304688 295.914062 L 402.785156 294.15625 L 409.265625 292.261719 L 412.488281 291.292969 L 415.746094 289.695312 L 422.226562 286.746094 L 427.707031 284.8125 L 428.707031 283.78125 L 435.1875 280.96875 L 441.667969 280.699219 L 448.148438 281.042969 L 454.628906 281.359375 L 461.109375 281.507812 L 467.589844 281.535156 L 474.070312 281.550781 L 480.550781 281.683594 L 487.03125 282.09375 L 493.511719 282.964844 L 499.992188 284.53125 L 500.769531 284.8125 L 506.472656 287.148438 L 512.953125 291.21875 L 513.046875 291.292969 L 518.699219 297.773438 L 519.433594 299.613281 L 521.203125 304.253906 L 521.007812 310.734375 L 519.433594 314.34375 L 518.066406 317.214844 L 512.953125 322.878906 L 512.082031 323.695312 L 506.472656 327.660156 L 502.039062 330.175781 L 499.992188 331.207031 L 493.511719 333.878906 L 487.03125 335.976562 L 484.398438 336.65625 L 480.550781 337.6875 L 474.070312 339.015625 L 467.589844 339.976562 L 461.109375 340.605469 L 454.628906 340.921875 L 448.148438 340.953125 L 441.667969 340.710938 L 435.1875 340.191406 L 428.707031 339.378906 L 422.226562 338.246094 L 415.746094 336.78125 L 415.269531 336.65625 L 409.265625 335.164062 L 402.785156 333.386719 L 396.304688 331.503906 L 391.851562 330.175781 L 389.824219 329.523438 L 383.34375 327.457031 L 376.863281 325.222656 L 372.933594 323.695312 L 370.382812 322.167969 L 363.902344 317.691406 "/>
<path style="fill:none;stroke-width:0.425197;stroke-linecap:butt;stroke-linejoin:round;stroke:rgb(14.901961%,31.372549%,45.882353%);stroke-opacity:1;stroke-miterlimit:1;" d="M 415.746094 266.351562 L 414.542969 265.371094 L 411.800781 258.890625 L 415.746094 256.238281 L 422.226562 254.90625 L 428.707031 256.164062 L 433.640625 258.890625 L 435.1875 264.78125 L 435.300781 265.371094 L 435.1875 265.679688 L 428.707031 270.769531 L 422.226562 269.695312 L 415.746094 266.351562 "/>
<path style="fill:none;stroke-width:0.425197;stroke-linecap:butt;stroke-linejoin:round;stroke:rgb(17.254902%,36.470588%,52.54902%);stroke-opacity:1;stroke-miterlimit:1;" d="M 247.257812 366.898438 L 245.074219 362.578125 L 243.46875 356.097656 L 243.726562 349.617188 L 246.117188 343.136719 L 247.257812 341.460938 L 251.25 336.65625 L 253.738281 334.5 L 260.21875 330.6875 L 261.628906 330.175781 L 266.699219 328.253906 L 273.179688 326.980469 L 279.65625 326.585938 L 286.136719 326.878906 L 292.617188 327.796875 L 299.097656 329.386719 L 301.441406 330.175781 L 305.578125 331.359375 L 312.058594 333.835938 L 317.480469 336.65625 L 318.539062 337.261719 L 325.019531 341.730469 L 326.707031 343.136719 L 331.5 349.308594 L 331.726562 349.617188 L 333.738281 356.097656 L 332.730469 362.578125 L 331.5 364.648438 L 328.875 369.058594 L 325.019531 373.027344 L 322.363281 375.539062 L 318.539062 378.839844 L 314.359375 382.019531 L 312.058594 384.0625 L 306.261719 388.5 L 305.578125 389.140625 L 299.097656 394.125 L 297.484375 394.980469 L 292.617188 397.546875 L 286.136719 399.136719 L 279.65625 398.839844 L 273.179688 396.433594 L 271.160156 394.980469 L 266.699219 391.4375 L 264.226562 388.5 L 260.21875 384.324219 L 258.496094 382.019531 L 253.738281 376.496094 L 253.035156 375.539062 L 248.390625 369.058594 L 247.257812 366.898438 "/>
<path style="fill:none;stroke-width:0.425197;stroke-linecap:butt;stroke-linejoin:round;stroke:rgb(17.254902%,36.470588%,52.54902%);stroke-opacity:1;stroke-miterlimit:1;" d="M 383.34375 316.921875 L 381.886719 310.734375 L 383.34375 309.769531 L 389.824219 306.140625 L 393.769531 304.253906 L 396.304688 303.558594 L 402.785156 301.828125 L 409.265625 300.070312 L 415.746094 298.277344 L 417.578125 297.773438 L 422.226562 296.433594 L 428.707031 294.675781 L 435.1875 293.117188 L 441.667969 291.765625 L 444.144531 291.292969 L 448.148438 290.457031 L 454.628906 289.355469 L 461.109375 288.460938 L 467.589844 287.757812 L 474.070312 287.296875 L 480.550781 287.183594 L 487.03125 287.570312 L 493.511719 288.660156 L 499.992188 290.703125 L 501.238281 291.292969 L 506.472656 294.894531 L 509.546875 297.773438 L 512.628906 304.253906 L 512.152344 310.734375 L 508.25 317.214844 L 506.472656 318.894531 L 500.238281 323.695312 L 499.992188 323.84375 L 493.511719 327.003906 L 487.03125 329.46875 L 484.691406 330.175781 L 480.550781 331.304688 L 474.070312 332.664062 L 467.589844 333.667969 L 461.109375 334.355469 L 454.628906 334.734375 L 448.148438 334.8125 L 441.667969 334.574219 L 435.1875 334.007812 L 428.707031 333.101562 L 422.226562 331.855469 L 415.746094 330.289062 L 415.324219 330.175781 L 409.265625 328.253906 L 402.785156 326.105469 L 396.304688 323.921875 L 395.636719 323.695312 L 389.824219 320.652344 L 383.414062 317.214844 L 383.34375 316.921875 "/>
<path style="fill:none;stroke-width:0.425197;stroke-linecap:butt;stroke-linejoin:round;stroke:rgb(20%,41.568627%,59.607843%);stroke-opacity:1;stroke-miterlimit:1;" d="M 253.738281 369.210938 L 253.625 369.058594 L 249.890625 362.578125 L 248.1875 356.097656 L 248.621094 349.617188 L 251.617188 343.136719 L 253.738281 340.6875 L 258.539062 336.65625 L 260.21875 335.566406 L 266.699219 332.785156 L 273.179688 331.378906 L 279.65625 330.925781 L 286.136719 331.199219 L 292.617188 332.113281 L 299.097656 333.679688 L 305.578125 336.003906 L 307.035156 336.65625 L 312.058594 339.097656 L 318.308594 343.136719 L 318.539062 343.359375 L 324.277344 349.617188 L 325.019531 351.835938 L 326.484375 356.097656 L 325.28125 362.578125 L 325.019531 362.976562 L 320.941406 369.058594 L 318.539062 371.347656 L 313.582031 375.539062 L 312.058594 376.75 L 305.578125 381.152344 L 303.953125 382.019531 L 299.097656 385.203125 L 292.617188 388.078125 L 290.652344 388.5 L 286.136719 389.757812 L 279.65625 389.375 L 277.632812 388.5 L 273.179688 386.9375 L 266.699219 382.332031 L 266.394531 382.019531 L 260.21875 376.691406 L 259.199219 375.539062 L 253.738281 369.210938 "/>
<path style="fill:none;stroke-width:0.425197;stroke-linecap:butt;stroke-linejoin:round;stroke:rgb(20%,41.568627%,59.607843%);stroke-opacity:1;stroke-miterlimit:1;" d="M 409.265625 318.710938 L 406.460938 317.214844 L 406.804688 310.734375 L 409.265625 309.625 L 415.746094 306.820312 L 422.011719 304.253906 L 422.226562 304.195312 L 428.707031 302.507812 L 435.1875 300.917969 L 441.667969 299.386719 L 448.148438 297.8125 L 448.304688 297.773438 L 454.628906 296.429688 L 461.109375 295.140625 L 467.589844 294.019531 L 474.070312 293.222656 L 480.550781 292.984375 L 487.03125 293.589844 L 493.511719 295.363281 L 498.34375 297.773438 L 499.992188 299.644531 L 502.882812 304.253906 L 502.101562 310.734375 L 499.992188 313.492188 L 496.367188 317.214844 L 493.511719 319.011719 L 487.03125 322.175781 L 483.042969 323.695312 L 480.550781 324.449219 L 474.070312 325.945312 L 467.589844 327.074219 L 461.109375 327.882812 L 454.628906 328.371094 L 448.148438 328.5 L 441.667969 328.226562 L 435.1875 327.507812 L 428.707031 326.34375 L 422.226562 324.769531 L 418.5625 323.695312 L 415.746094 322.230469 L 409.265625 318.710938 "/>
<path style="fill:none;stroke-width:0.425197;stroke-linecap:butt;stroke-linejoin:round;stroke:rgb(22.745098%,47.058824%,66.666667%);stroke-opacity:1;stroke-miterlimit:1;" d="M 253.738281 359.804688 L 252.679688 356.097656 L 253.347656 349.617188 L 253.738281 348.851562 L 257.292969 343.136719 L 260.21875 340.585938 L 266.699219 336.988281 L 267.773438 336.65625 L 273.179688 335.175781 L 279.65625 334.539062 L 286.136719 334.804688 L 292.617188 335.875 L 295.417969 336.65625 L 299.097656 337.71875 L 305.578125 340.382812 L 310.527344 343.136719 L 312.058594 344.371094 L 317.5 349.617188 L 318.539062 352.296875 L 319.984375 356.097656 L 318.632812 362.578125 L 318.539062 362.707031 L 313.675781 369.058594 L 312.058594 370.457031 L 305.578125 375.175781 L 304.9375 375.539062 L 299.097656 378.863281 L 292.617188 381.273438 L 288.191406 382.019531 L 286.136719 382.476562 L 279.65625 382.019531 L 273.179688 380.0625 L 266.699219 376.148438 L 266.003906 375.539062 L 260.21875 370.535156 L 258.914062 369.058594 L 254.574219 362.578125 L 253.738281 359.804688 "/>
<path style="fill:none;stroke-width:0.425197;stroke-linecap:butt;stroke-linejoin:round;stroke:rgb(22.745098%,47.058824%,66.666667%);stroke-opacity:1;stroke-miterlimit:1;" d="M 435.1875 317.335938 L 434.835938 317.214844 L 435.1875 315.953125 L 436.882812 310.734375 L 441.667969 309.359375 L 448.148438 307.582031 L 454.628906 305.519531 L 457.917969 304.253906 L 461.109375 303.59375 L 467.589844 302.367188 L 474.070312 301.515625 L 480.550781 301.648438 L 487.03125 303.644531 L 487.921875 304.253906 L 487.210938 310.734375 L 487.03125 310.875 L 480.550781 314.390625 L 474.089844 317.214844 L 474.070312 317.21875 L 467.589844 318.34375 L 461.109375 319.117188 L 454.628906 319.535156 L 448.148438 319.488281 L 441.667969 318.800781 L 435.1875 317.335938 "/>
<path style="fill:none;stroke-width:0.425197;stroke-linecap:butt;stroke-linejoin:round;stroke:rgb(25.490196%,52.54902%,74.117647%);stroke-opacity:1;stroke-miterlimit:1;" d="M 260.21875 363.867188 L 259.324219 362.578125 L 257.261719 356.097656 L 258.261719 349.617188 L 260.21875 346.738281 L 263.667969 343.136719 L 266.699219 341.269531 L 273.179688 338.988281 L 279.65625 338.136719 L 286.136719 338.367188 L 292.617188 339.527344 L 299.097656 341.605469 L 302.460938 343.136719 L 305.578125 345.140625 L 310.976562 349.617188 L 312.058594 351.964844 L 313.820312 356.097656 L 312.296875 362.578125 L 312.058594 362.878906 L 306.414062 369.058594 L 305.578125 369.6875 L 299.097656 373.542969 L 293.835938 375.539062 L 292.617188 376.023438 L 286.136719 377.199219 L 279.65625 376.773438 L 276.023438 375.539062 L 273.179688 374.652344 L 266.699219 370.808594 L 264.710938 369.058594 L 260.21875 363.867188 "/>
<path style="fill:none;stroke-width:0.425197;stroke-linecap:butt;stroke-linejoin:round;stroke:rgb(28.235294%,58.039216%,81.568627%);stroke-opacity:1;stroke-miterlimit:1;" d="M 266.699219 364.957031 L 264.605469 362.578125 L 262.128906 356.097656 L 263.695312 349.617188 L 266.699219 346.507812 L 272.320312 343.136719 L 273.179688 342.808594 L 279.65625 341.71875 L 286.136719 341.890625 L 292.550781 343.136719 L 292.617188 343.152344 L 299.097656 346.148438 L 304.234375 349.617188 L 305.578125 351.941406 L 307.621094 356.097656 L 305.816406 362.578125 L 305.578125 362.832031 L 299.097656 368.390625 L 297.910156 369.058594 L 292.617188 371.257812 L 286.136719 372.433594 L 279.65625 372.011719 L 273.179688 369.832031 L 271.921875 369.058594 L 266.699219 364.957031 "/>
<path style="fill:none;stroke-width:0.425197;stroke-linecap:butt;stroke-linejoin:round;stroke:rgb(30.980392%,63.529412%,89.019608%);stroke-opacity:1;stroke-miterlimit:1;" d="M 273.179688 364.242188 L 271.097656 362.578125 L 267.707031 356.097656 L 270.53125 349.617188 L 273.179688 347.890625 L 279.65625 346.023438 L 286.136719 346.125 L 292.617188 347.84375 L 296.21875 349.617188 L 299.097656 353.167969 L 300.851562 356.097656 L 299.097656 360.933594 L 298.257812 362.578125 L 292.617188 365.917969 L 286.136719 367.578125 L 279.65625 367.054688 L 273.179688 364.242188 "/>
<path style="fill:none;stroke-width:0.425197;stroke-linecap:butt;stroke-linejoin:round;stroke:rgb(33.72549%,69.411765%,96.862745%);stroke-opacity:1;stroke-miterlimit:1;" d="M 279.65625 359.753906 L 276.304688 356.097656 L 279.65625 352.816406 L 286.136719 352.5 L 291.621094 356.097656 L 286.136719 360.832031 L 279.65625 359.753906 "/>
</g>
</svg>
