<?xml version="1.0" encoding="UTF-8"?>
<svg xmlns="http://www.w3.org/2000/svg" xmlns:xlink="http://www.w3.org/1999/xlink" width="720pt" height="720pt" viewBox="0 0 720 720" version="1.1">
<defs>
<clipPath id="clip1">
  <path d="M 14.285156 0 L 720 0 L 720 706 L 14.285156 706 Z "/>
</clipPath>
</defs>
<g id="surface61">
<rect x="0" y="0" width="720" height="720" style="fill:rgb(100%,100%,100%);fill-opacity:1;stroke:none;"/>
<rect x="0" y="0" width="720" height="720" style="fill:rgb(100%,100%,100%);fill-opacity:1;stroke:none;"/>
<path style="fill:none;stroke-width:1.062992;stroke-linecap:round;stroke-linejoin:round;stroke:rgb(100%,100%,100%);stroke-opacity:1;stroke-miterlimit:10;" d="M 0 720 L 720 720 L 720 0 L 0 0 Z "/>
<g clip-path="url(#clip1)" clip-rule="nonzero">
<path style=" stroke:none;fill-rule:nonzero;fill:rgb(100%,100%,100%);fill-opacity:1;" d="M 14.285156 705.714844 L 720 705.714844 L 720 0 L 14.285156 0 Z "/>
</g>
<path style="fill:none;stroke-width:0.425197;stroke-linecap:butt;stroke-linejoin:round;stroke:rgb(7.45098%,16.862745%,26.27451%);stroke-opacity:1;stroke-miterlimit:1;" d="M 158.644531 673.636719 L 156.53125 669.132812 L 155.472656 667.15625 L 152.394531 660.675781 L 150.050781 655.128906 L 149.59375 654.195312 L 146.695312 647.714844 L 144 641.234375 L 143.570312 640.160156 L 141.050781 634.753906 L 138.066406 628.273438 L 137.089844 626.183594 L 134.710938 621.792969 L 131.054688 615.3125 L 130.609375 614.558594 L 126.746094 608.832031 L 124.128906 605.199219 L 121.859375 602.351562 L 117.648438 597.394531 L 116.261719 595.871094 L 111.167969 590.621094 L 109.929688 589.390625 L 104.6875 584.488281 L 102.984375 582.910156 L 98.207031 578.722656 L 95.628906 576.429688 L 91.726562 573.140625 L 88.0625 569.949219 L 85.246094 567.613281 L 80.464844 563.46875 L 78.765625 562.0625 L 72.949219 556.988281 L 72.285156 556.433594 L 65.804688 550.6875 L 65.617188 550.507812 L 59.324219 544.78125 L 58.546875 544.027344 L 52.84375 538.640625 L 51.757812 537.546875 L 46.363281 532.183594 "/>
<path style="fill:none;stroke-width:0.425197;stroke-linecap:butt;stroke-linejoin:round;stroke:rgb(7.45098%,16.862745%,26.27451%);stroke-opacity:1;stroke-miterlimit:1;" d="M 46.363281 347.058594 L 49.34375 343.136719 L 52.84375 338.648438 L 54.410156 336.65625 L 59.324219 330.570312 L 59.648438 330.175781 L 65.078125 323.695312 L 65.804688 322.855469 L 70.761719 317.214844 L 72.285156 315.546875 L 76.765625 310.734375 L 78.765625 308.675781 L 83.179688 304.253906 L 85.246094 302.273438 L 90.105469 297.773438 L 91.726562 296.335938 L 97.664062 291.292969 L 98.207031 290.851562 L 104.6875 285.78125 L 105.984375 284.8125 L 111.167969 281.085938 L 115.210938 278.332031 L 117.648438 276.726562 L 124.128906 272.664062 L 125.480469 271.851562 L 130.609375 268.832031 L 136.875 265.371094 L 137.089844 265.253906 L 143.570312 261.8125 L 149.445312 258.890625 L 150.050781 258.589844 L 156.53125 255.460938 L 163.011719 252.542969 L 163.316406 252.410156 L 169.492188 249.695312 L 175.972656 247.054688 L 178.933594 245.929688 L 182.453125 244.554688 L 188.933594 242.234375 L 195.414062 240.167969 L 197.976562 239.449219 L 201.894531 238.300781 L 208.375 236.695312 L 214.855469 235.417969 L 221.335938 234.492188 L 227.816406 233.945312 L 234.296875 233.8125 L 240.777344 234.132812 L 247.257812 234.96875 L 253.738281 236.386719 L 260.21875 238.46875 L 262.535156 239.449219 L 266.699219 241.257812 L 273.179688 244.917969 L 274.65625 245.929688 L 279.65625 249.589844 L 282.871094 252.410156 L 286.136719 255.558594 L 289.144531 258.890625 L 292.617188 263.25 L 294.144531 265.371094 L 298.207031 271.851562 L 299.097656 273.5 L 301.5625 278.332031 L 304.3125 284.8125 L 305.578125 288.398438 L 306.574219 291.292969 L 308.417969 297.773438 L 309.851562 304.253906 L 310.917969 310.734375 L 311.644531 317.214844 L 312.058594 323.695312 L 312.058594 323.859375 L 312.171875 330.175781 L 312.058594 333.890625 L 311.980469 336.65625 L 311.503906 343.136719 L 310.726562 349.617188 L 309.640625 356.097656 L 308.238281 362.578125 L 306.496094 369.058594 L 305.578125 371.9375 L 304.464844 375.539062 L 302.136719 382.019531 L 299.441406 388.5 L 299.097656 389.246094 L 296.496094 394.980469 L 293.207031 401.460938 L 292.617188 402.554688 L 289.6875 407.941406 L 286.136719 414 L 285.886719 414.421875 L 281.945312 420.902344 L 279.65625 424.597656 L 277.871094 427.382812 L 273.785156 433.863281 L 273.179688 434.890625 L 269.8125 440.34375 L 266.699219 445.792969 L 266.078125 446.820312 L 262.746094 453.300781 L 260.21875 459.226562 L 259.96875 459.78125 L 257.886719 466.261719 L 256.660156 472.742188 L 256.414062 479.222656 L 257.277344 485.703125 L 259.40625 492.183594 L 260.21875 493.710938 L 262.953125 498.664062 L 266.699219 503.390625 L 268.144531 505.144531 L 273.179688 509.800781 L 275.234375 511.625 L 279.65625 514.789062 L 284.460938 518.105469 L 286.136719 519.070312 L 292.617188 522.738281 L 295.914062 524.585938 L 299.097656 526.113281 L 305.578125 529.238281 L 309.3125 531.066406 L 312.058594 532.242188 L 318.539062 535.082031 L 323.933594 537.546875 L 325.019531 537.988281 L 331.5 540.710938 L 337.980469 543.609375 L 338.878906 544.027344 L 344.460938 546.378906 L 350.941406 549.3125 L 353.441406 550.507812 L 357.421875 552.253906 L 363.902344 555.300781 L 367.257812 556.988281 L 370.382812 558.449219 L 376.863281 561.691406 L 380.179688 563.46875 L 383.34375 565.074219 L 389.824219 568.597656 L 392.171875 569.949219 L 396.304688 572.246094 L 402.785156 576.152344 L 403.230469 576.429688 L 409.265625 580.128906 L 413.472656 582.910156 L 415.746094 584.417969 L 422.226562 588.964844 L 422.816406 589.390625 L 428.707031 593.753906 L 431.425781 595.871094 L 435.1875 598.9375 L 439.214844 602.351562 L 441.667969 604.574219 L 446.246094 608.832031 L 448.148438 610.769531 L 452.554688 615.3125 L 454.628906 617.71875 L 458.148438 621.792969 L 461.109375 625.753906 L 463.023438 628.273438 L 467.164062 634.753906 L 467.589844 635.550781 L 470.742188 641.234375 L 473.507812 647.714844 L 474.070312 649.46875 L 475.695312 654.195312 L 477.1875 660.675781 L 477.972656 667.15625 L 478.074219 673.636719 "/>
<path style="fill:none;stroke-width:0.425197;stroke-linecap:butt;stroke-linejoin:round;stroke:rgb(7.45098%,16.862745%,26.27451%);stroke-opacity:1;stroke-miterlimit:1;" d="M 581.277344 673.636719 L 579.449219 667.15625 L 578.117188 660.675781 L 577.753906 658.15625 L 577.128906 654.195312 L 576.503906 647.714844 L 576.226562 641.234375 L 576.242188 634.753906 L 576.488281 628.273438 L 576.921875 621.792969 L 577.484375 615.3125 L 577.753906 612.582031 L 578.082031 608.832031 L 578.671875 602.351562 L 579.238281 595.871094 L 579.742188 589.390625 L 580.140625 582.910156 L 580.410156 576.429688 L 580.527344 569.949219 L 580.484375 563.46875 L 580.285156 556.988281 L 579.945312 550.507812 L 579.484375 544.027344 L 578.933594 537.546875 L 578.320312 531.066406 L 577.753906 525.34375 L 577.671875 524.585938 L 576.953125 518.105469 L 576.269531 511.625 L 575.640625 505.144531 L 575.085938 498.664062 L 574.628906 492.183594 L 574.277344 485.703125 L 574.039062 479.222656 L 573.921875 472.742188 L 573.929688 466.261719 L 574.066406 459.78125 L 574.328125 453.300781 L 574.714844 446.820312 L 575.222656 440.34375 L 575.84375 433.863281 L 576.578125 427.382812 L 577.410156 420.902344 L 577.753906 418.410156 L 578.269531 414.421875 L 579.160156 407.941406 L 580.101562 401.460938 L 581.085938 394.980469 L 582.082031 388.5 L 583.074219 382.019531 L 584.035156 375.539062 L 584.234375 374.011719 L 584.867188 369.058594 L 585.59375 362.578125 L 586.175781 356.097656 L 586.554688 349.617188 L 586.644531 343.136719 L 586.320312 336.65625 L 585.402344 330.175781 L 584.234375 325.8125 L 583.558594 323.695312 L 580.222656 317.214844 L 577.753906 314.085938 L 574.5 310.734375 L 571.273438 308.320312 L 564.792969 304.390625 L 564.539062 304.253906 L 558.316406 301.632812 L 551.835938 299.265625 L 547.394531 297.773438 L 545.355469 297.199219 L 538.875 295.414062 L 532.394531 293.644531 L 525.914062 291.832031 L 524.085938 291.292969 L 519.433594 290.09375 L 512.953125 288.296875 L 506.472656 286.339844 L 501.855469 284.8125 L 499.992188 284.261719 L 493.511719 282.15625 L 487.03125 279.8125 L 483.332031 278.332031 L 480.550781 277.3125 L 474.070312 274.703125 L 467.796875 271.851562 L 467.589844 271.765625 L 461.109375 268.804688 L 454.628906 265.441406 L 454.5 265.371094 L 448.148438 262.015625 L 442.890625 258.890625 L 441.667969 258.183594 L 435.1875 254.148438 L 432.621094 252.410156 L 428.707031 249.769531 L 423.507812 245.929688 L 422.226562 244.96875 L 415.746094 239.75 L 415.386719 239.449219 L 409.265625 234.058594 L 408.09375 232.96875 L 402.785156 227.695312 L 401.617188 226.488281 L 396.304688 220.472656 L 395.902344 220.007812 L 390.816406 213.527344 L 389.824219 212.085938 L 386.34375 207.046875 L 383.34375 201.859375 L 382.578125 200.566406 L 379.261719 194.085938 L 376.863281 188.203125 L 376.609375 187.605469 L 374.289062 181.125 L 372.539062 174.644531 L 371.28125 168.164062 L 370.46875 161.683594 L 370.382812 160.355469 L 370.023438 155.207031 L 370.023438 148.726562 L 370.382812 143.660156 L 370.472656 142.246094 L 371.300781 135.765625 L 372.585938 129.285156 L 374.382812 122.804688 L 376.761719 116.324219 L 376.863281 116.089844 L 379.53125 109.84375 L 383.03125 103.363281 L 383.34375 102.859375 L 387.082031 96.882812 L 389.824219 93.191406 L 391.960938 90.402344 L 396.304688 85.46875 L 397.746094 83.921875 L 402.785156 79.058594 L 404.609375 77.441406 L 409.265625 73.613281 L 412.867188 70.960938 L 415.746094 68.9375 L 422.226562 64.929688 L 423.03125 64.480469 L 428.707031 61.355469 L 435.1875 58.347656 L 436.035156 58 L 441.667969 55.621094 L 448.148438 53.324219 L 454.285156 51.519531 L 454.628906 51.410156 L 461.109375 49.652344 L 467.589844 48.214844 L 474.070312 47.066406 L 480.550781 46.164062 L 487.03125 45.480469 L 492.996094 45.039062 L 493.511719 44.996094 L 499.992188 44.652344 L 506.472656 44.503906 L 512.953125 44.53125 L 519.433594 44.734375 L 524.796875 45.039062 L 525.914062 45.09375 L 532.394531 45.5625 L 538.875 46.171875 L 545.355469 46.933594 L 551.835938 47.855469 L 558.316406 48.941406 L 564.792969 50.214844 L 570.554688 51.519531 L 571.273438 51.667969 L 577.753906 53.175781 L 584.234375 54.910156 L 590.714844 56.898438 L 593.929688 58 L 597.195312 59.066406 L 603.675781 61.433594 L 610.15625 64.152344 L 610.878906 64.480469 L 616.636719 67.042969 L 623.117188 70.347656 L 624.234375 70.960938 L 629.597656 73.925781 L 635.226562 77.441406 L 636.078125 77.988281 L 642.558594 82.441406 L 644.542969 83.921875 L 649.039062 87.433594 L 652.570312 90.402344 L 655.519531 93.046875 L 659.566406 96.882812 L 662 99.382812 L 665.734375 103.363281 L 668.480469 106.59375 L 671.1875 109.84375 L 674.960938 114.925781 L 675.996094 116.324219 L 680.285156 122.804688 L 681.441406 124.796875 L 684.097656 129.285156 L 687.382812 135.765625 L 687.921875 136.992188 "/>
<path style="fill:none;stroke-width:0.425197;stroke-linecap:butt;stroke-linejoin:round;stroke:rgb(13.333333%,28.627451%,42.352941%);stroke-opacity:1;stroke-miterlimit:1;" d="M 124.128906 405.785156 L 121.671875 401.460938 L 119.664062 394.980469 L 118.90625 388.5 L 119.027344 382.019531 L 119.820312 375.539062 L 121.1875 369.058594 L 123.078125 362.578125 L 124.128906 359.847656 L 125.472656 356.097656 L 128.382812 349.617188 L 130.609375 345.519531 L 131.851562 343.136719 L 135.914062 336.65625 L 137.089844 335.066406 L 140.652344 330.175781 L 143.570312 326.734375 L 146.152344 323.695312 L 150.050781 319.710938 L 152.539062 317.214844 L 156.53125 313.683594 L 159.992188 310.734375 L 163.011719 308.421875 L 168.777344 304.253906 L 169.492188 303.78125 L 175.972656 299.78125 L 179.558594 297.773438 L 182.453125 296.257812 L 188.933594 293.253906 L 193.882812 291.292969 L 195.414062 290.714844 L 201.894531 288.730469 L 208.375 287.261719 L 214.855469 286.371094 L 221.335938 286.128906 L 227.816406 286.621094 L 234.296875 287.960938 L 240.777344 290.289062 L 242.707031 291.292969 L 247.257812 293.964844 L 252.023438 297.773438 L 253.738281 299.390625 L 257.839844 304.253906 L 260.21875 307.773438 L 261.90625 310.734375 L 264.746094 317.214844 L 266.699219 323.578125 L 266.730469 323.695312 L 267.871094 330.175781 L 268.363281 336.65625 L 268.246094 343.136719 L 267.542969 349.617188 L 266.699219 353.925781 L 266.25 356.097656 L 264.320312 362.578125 L 261.8125 369.058594 L 260.21875 372.433594 L 258.628906 375.539062 L 254.746094 382.019531 L 253.738281 383.511719 L 250.007812 388.5 L 247.257812 391.847656 L 244.355469 394.980469 L 240.777344 398.613281 L 237.554688 401.460938 L 234.296875 404.257812 L 229.285156 407.941406 L 227.816406 409.023438 L 221.335938 413.042969 L 218.640625 414.421875 L 214.855469 416.429688 L 208.375 419.210938 L 203.335938 420.902344 L 201.894531 421.425781 L 195.414062 423.140625 L 188.933594 424.328125 L 182.453125 425.011719 L 175.972656 425.21875 L 169.492188 424.972656 L 163.011719 424.289062 L 156.53125 423.160156 L 150.050781 421.570312 L 147.8125 420.902344 L 143.570312 419.464844 L 137.089844 416.632812 L 133.15625 414.421875 L 130.609375 412.589844 L 125.65625 407.941406 L 124.128906 405.785156 "/>
<path style="fill:none;stroke-width:0.425197;stroke-linecap:butt;stroke-linejoin:round;stroke:rgb(13.333333%,28.627451%,42.352941%);stroke-opacity:1;stroke-miterlimit:1;" d="M 200.945312 673.636719 L 198.855469 667.15625 L 197.246094 660.675781 L 196.054688 654.195312 L 195.414062 649.054688 L 195.226562 647.714844 L 194.726562 641.234375 L 194.589844 634.753906 L 194.796875 628.273438 L 195.359375 621.792969 L 195.414062 621.375 L 196.226562 615.3125 L 197.480469 608.832031 L 199.183594 602.351562 L 201.441406 595.871094 L 201.894531 594.773438 L 204.339844 589.390625 L 208.230469 582.910156 L 208.375 582.707031 L 213.613281 576.429688 L 214.855469 575.203125 L 221.335938 570.207031 L 221.765625 569.949219 L 227.816406 566.714844 L 234.296875 564.34375 L 237.695312 563.46875 L 240.777344 562.71875 L 247.257812 561.640625 L 253.738281 561.027344 L 260.21875 560.777344 L 266.699219 560.835938 L 273.179688 561.152344 L 279.65625 561.703125 L 286.136719 562.46875 L 292.617188 563.445312 L 292.753906 563.46875 L 299.097656 564.523438 L 305.578125 565.792969 L 312.058594 567.257812 L 318.539062 568.929688 L 322.019531 569.949219 L 325.019531 570.757812 L 331.5 572.714844 L 337.980469 574.914062 L 342.003906 576.429688 L 344.460938 577.304688 L 350.941406 579.84375 L 357.421875 582.683594 L 357.898438 582.910156 L 363.902344 585.65625 L 370.382812 588.957031 L 371.179688 589.390625 L 376.863281 592.464844 L 382.574219 595.871094 L 383.34375 596.335938 L 389.824219 600.507812 L 392.488281 602.351562 L 396.304688 605.105469 L 401.128906 608.832031 L 402.785156 610.199219 L 408.660156 615.3125 L 409.265625 615.890625 L 415.203125 621.792969 L 415.746094 622.40625 L 420.839844 628.273438 L 422.226562 630.148438 L 425.609375 634.753906 L 428.707031 639.910156 L 429.507812 641.234375 L 432.65625 647.714844 L 434.949219 654.195312 L 435.1875 655.195312 L 436.542969 660.675781 L 437.347656 667.15625 L 437.367188 673.636719 "/>
<path style="fill:none;stroke-width:0.425197;stroke-linecap:butt;stroke-linejoin:round;stroke:rgb(13.333333%,28.627451%,42.352941%);stroke-opacity:1;stroke-miterlimit:1;" d="M 402.785156 160.195312 L 402.328125 155.207031 L 402.332031 148.726562 L 402.785156 143.882812 L 402.933594 142.246094 L 404.109375 135.765625 L 405.945312 129.285156 L 408.511719 122.804688 L 409.265625 121.300781 L 411.820312 116.324219 L 415.746094 110.28125 L 416.046875 109.84375 L 421.296875 103.363281 L 422.226562 102.375 L 427.867188 96.882812 L 428.707031 96.152344 L 435.1875 91.09375 L 436.191406 90.402344 L 441.667969 86.882812 L 447.113281 83.921875 L 448.148438 83.378906 L 454.628906 80.414062 L 461.109375 77.980469 L 462.808594 77.441406 L 467.589844 75.921875 L 474.070312 74.25 L 480.550781 72.9375 L 487.03125 71.941406 L 493.511719 71.234375 L 497.414062 70.960938 L 499.992188 70.769531 L 506.472656 70.542969 L 512.953125 70.554688 L 519.433594 70.792969 L 521.773438 70.960938 L 525.914062 71.234375 L 532.394531 71.871094 L 538.875 72.710938 L 545.355469 73.765625 L 551.835938 75.042969 L 558.316406 76.558594 L 561.59375 77.441406 L 564.792969 78.285156 L 571.273438 80.230469 L 577.753906 82.476562 L 581.46875 83.921875 L 584.234375 85.011719 L 590.714844 87.851562 L 595.859375 90.402344 L 597.195312 91.089844 L 603.675781 94.722656 L 607.152344 96.882812 L 610.15625 98.867188 L 616.355469 103.363281 L 616.636719 103.585938 L 623.117188 109.03125 L 624.027344 109.84375 L 629.597656 115.398438 L 630.480469 116.324219 L 635.929688 122.804688 L 636.078125 123.007812 L 640.558594 129.285156 L 642.558594 132.644531 L 644.414062 135.765625 L 647.582031 142.246094 L 649.039062 145.996094 L 650.125 148.726562 L 652.089844 155.207031 L 653.460938 161.683594 L 654.265625 168.164062 L 654.527344 174.644531 L 654.238281 181.125 L 653.394531 187.605469 L 651.964844 194.085938 L 649.914062 200.566406 L 649.039062 202.742188 L 647.230469 207.046875 L 643.820312 213.527344 L 642.558594 215.574219 L 639.589844 220.007812 L 636.078125 224.496094 L 634.339844 226.488281 L 629.597656 231.332031 L 627.753906 232.96875 L 623.117188 236.765625 L 619.214844 239.449219 L 616.636719 241.125 L 610.15625 244.660156 L 607.367188 245.929688 L 603.675781 247.566406 L 597.195312 249.941406 L 590.714844 251.832031 L 588.335938 252.410156 L 584.234375 253.414062 L 577.753906 254.691406 L 571.273438 255.675781 L 564.792969 256.398438 L 558.316406 256.882812 L 551.835938 257.144531 L 545.355469 257.1875 L 538.875 257.019531 L 532.394531 256.640625 L 525.914062 256.039062 L 519.433594 255.207031 L 512.953125 254.136719 L 506.472656 252.804688 L 504.867188 252.410156 L 499.992188 251.289062 L 493.511719 249.523438 L 487.03125 247.449219 L 482.917969 245.929688 L 480.550781 245.09375 L 474.070312 242.480469 L 467.589844 239.457031 L 467.574219 239.449219 L 461.109375 236.171875 L 455.585938 232.96875 L 454.628906 232.410156 L 448.148438 228.234375 L 445.699219 226.488281 L 441.667969 223.507812 L 437.371094 220.007812 L 435.1875 218.121094 L 430.285156 213.527344 L 428.707031 211.914062 L 424.230469 207.046875 L 422.226562 204.597656 L 419.066406 200.566406 L 415.746094 195.644531 L 414.722656 194.085938 L 411.074219 187.605469 L 409.265625 183.640625 L 408.113281 181.125 L 405.757812 174.644531 L 404.039062 168.164062 L 402.914062 161.683594 L 402.785156 160.195312 "/>
<path style="fill:none;stroke-width:0.425197;stroke-linecap:butt;stroke-linejoin:round;stroke:rgb(13.333333%,28.627451%,42.352941%);stroke-opacity:1;stroke-miterlimit:1;" d="M 620.445312 673.636719 L 617.417969 667.15625 L 616.636719 665.039062 L 615.085938 660.675781 L 613.347656 654.195312 L 612.109375 647.714844 L 611.304688 641.234375 L 610.851562 634.753906 L 610.691406 628.273438 L 610.757812 621.792969 L 610.992188 615.3125 L 611.328125 608.832031 L 611.707031 602.351562 L 612.066406 595.871094 L 612.355469 589.390625 L 612.519531 582.910156 L 612.527344 576.429688 L 612.359375 569.949219 L 612 563.46875 L 611.457031 556.988281 L 610.757812 550.507812 L 610.15625 545.835938 L 609.921875 544.027344 L 608.964844 537.546875 L 607.953125 531.066406 L 606.933594 524.585938 L 605.945312 518.105469 L 605.015625 511.625 L 604.183594 505.144531 L 603.675781 500.609375 L 603.453125 498.664062 L 602.835938 492.183594 L 602.378906 485.703125 L 602.089844 479.222656 L 601.984375 472.742188 L 602.0625 466.261719 L 602.332031 459.78125 L 602.796875 453.300781 L 603.460938 446.820312 L 603.675781 445.167969 L 604.289062 440.34375 L 605.292969 433.863281 L 606.492188 427.382812 L 607.886719 420.902344 L 609.472656 414.421875 L 610.15625 411.871094 L 611.21875 407.941406 L 613.136719 401.460938 L 615.257812 394.980469 L 616.636719 391.058594 L 617.574219 388.5 L 620.089844 382.019531 L 622.847656 375.539062 L 623.117188 374.917969 L 625.890625 369.058594 L 629.246094 362.578125 L 629.597656 361.921875 L 633.085938 356.097656 L 636.078125 351.476562 L 637.484375 349.617188 L 642.558594 343.300781 L 642.722656 343.136719 L 649.039062 337 L 649.5 336.65625 L 655.519531 332.316406 L 659.839844 330.175781 L 662 329.117188 L 668.480469 327.121094 L 674.960938 326.246094 L 681.441406 326.351562 L 687.921875 327.367188 "/>
<path style="fill:none;stroke-width:0.425197;stroke-linecap:butt;stroke-linejoin:round;stroke:rgb(20%,41.568627%,59.607843%);stroke-opacity:1;stroke-miterlimit:1;" d="M 227.742188 673.636719 L 225.835938 667.15625 L 224.574219 660.675781 L 223.921875 654.195312 L 223.867188 647.714844 L 224.414062 641.234375 L 225.605469 634.753906 L 227.503906 628.273438 L 227.816406 627.480469 L 230.203125 621.792969 L 233.894531 615.3125 L 234.296875 614.730469 L 238.925781 608.832031 L 240.777344 606.890625 L 245.941406 602.351562 L 247.257812 601.351562 L 253.738281 597.296875 L 256.664062 595.871094 L 260.21875 594.285156 L 266.699219 592.082031 L 273.179688 590.53125 L 279.65625 589.523438 L 281.179688 589.390625 L 286.136719 588.960938 L 292.617188 588.800781 L 299.097656 589.015625 L 303.429688 589.390625 L 305.578125 589.566406 L 312.058594 590.414062 L 318.539062 591.570312 L 325.019531 593.035156 L 331.5 594.8125 L 334.777344 595.871094 L 337.980469 596.886719 L 344.460938 599.257812 L 350.941406 601.988281 L 351.714844 602.351562 L 357.421875 605.0625 L 363.902344 608.542969 L 364.394531 608.832031 L 370.382812 612.488281 L 374.570312 615.3125 L 376.863281 616.976562 L 382.96875 621.792969 L 383.34375 622.121094 L 389.824219 628.179688 L 389.917969 628.273438 L 395.636719 634.753906 L 396.304688 635.664062 L 400.269531 641.234375 L 402.785156 645.746094 L 403.871094 647.714844 L 406.523438 654.195312 L 408.222656 660.675781 L 409.007812 667.15625 L 408.871094 673.636719 "/>
<path style="fill:none;stroke-width:0.425197;stroke-linecap:butt;stroke-linejoin:round;stroke:rgb(20%,41.568627%,59.607843%);stroke-opacity:1;stroke-miterlimit:1;" d="M 428.707031 167.746094 L 427.410156 161.683594 L 426.785156 155.207031 L 426.929688 148.726562 L 427.863281 142.246094 L 428.707031 139.109375 L 429.636719 135.765625 L 432.34375 129.285156 L 435.1875 124.308594 L 436.113281 122.804688 L 441.175781 116.324219 L 441.667969 115.796875 L 447.933594 109.84375 L 448.148438 109.667969 L 454.628906 104.96875 L 457.246094 103.363281 L 461.109375 101.207031 L 467.589844 98.203125 L 471.074219 96.882812 L 474.070312 95.804688 L 480.550781 93.933594 L 487.03125 92.507812 L 493.511719 91.480469 L 499.992188 90.816406 L 506.472656 90.484375 L 512.953125 90.460938 L 519.433594 90.730469 L 525.914062 91.28125 L 532.394531 92.117188 L 538.875 93.230469 L 545.355469 94.632812 L 551.835938 96.335938 L 553.617188 96.882812 L 558.316406 98.363281 L 564.792969 100.734375 L 571 103.363281 L 571.273438 103.484375 L 577.753906 106.714844 L 583.28125 109.84375 L 584.234375 110.433594 L 590.714844 114.832031 L 592.726562 116.324219 L 597.195312 120.074219 L 600.214844 122.804688 L 603.675781 126.457031 L 606.210938 129.285156 L 610.15625 134.601562 L 610.988281 135.765625 L 614.722656 142.246094 L 616.636719 146.660156 L 617.527344 148.726562 L 619.476562 155.207031 L 620.59375 161.683594 L 620.90625 168.164062 L 620.398438 174.644531 L 619.039062 181.125 L 616.765625 187.605469 L 616.636719 187.871094 L 613.480469 194.085938 L 610.15625 199.011719 L 609.023438 200.566406 L 603.675781 206.5 L 603.128906 207.046875 L 597.195312 212.125 L 595.332031 213.527344 L 590.714844 216.617188 L 584.757812 220.007812 L 584.234375 220.285156 L 577.753906 223.273438 L 571.273438 225.722656 L 568.835938 226.488281 L 564.792969 227.710938 L 558.316406 229.28125 L 551.835938 230.46875 L 545.355469 231.304688 L 538.875 231.800781 L 532.394531 231.976562 L 525.914062 231.839844 L 519.433594 231.386719 L 512.953125 230.621094 L 506.472656 229.523438 L 499.992188 228.082031 L 494.265625 226.488281 L 493.511719 226.28125 L 487.03125 224.128906 L 480.550781 221.554688 L 477.207031 220.007812 L 474.070312 218.523438 L 467.589844 214.984375 L 465.238281 213.527344 L 461.109375 210.832031 L 456 207.046875 L 454.628906 205.949219 L 448.601562 200.566406 L 448.148438 200.113281 L 442.625 194.085938 L 441.667969 192.871094 L 437.785156 187.605469 L 435.1875 183.308594 L 433.925781 181.125 L 430.953125 174.644531 L 428.796875 168.164062 L 428.707031 167.746094 "/>
<path style="fill:none;stroke-width:0.425197;stroke-linecap:butt;stroke-linejoin:round;stroke:rgb(20%,41.568627%,59.607843%);stroke-opacity:1;stroke-miterlimit:1;" d="M 667.425781 673.636719 L 662 671.050781 L 656.527344 667.15625 L 655.519531 666.289062 L 650.5625 660.675781 L 649.039062 658.472656 L 646.605469 654.195312 L 643.859375 647.714844 L 642.558594 643.382812 L 641.996094 641.234375 L 640.871094 634.753906 L 640.234375 628.273438 L 639.984375 621.792969 L 640.003906 615.3125 L 640.195312 608.832031 L 640.460938 602.351562 L 640.699219 595.871094 L 640.828125 589.390625 L 640.78125 582.910156 L 640.5 576.429688 L 639.957031 569.949219 L 639.140625 563.46875 L 638.074219 556.988281 L 636.785156 550.507812 L 636.078125 547.394531 L 635.367188 544.027344 L 633.871094 537.546875 L 632.328125 531.066406 L 630.792969 524.585938 L 629.597656 519.351562 L 629.328125 518.105469 L 627.992188 511.625 L 626.804688 505.144531 L 625.792969 498.664062 L 624.980469 492.183594 L 624.394531 485.703125 L 624.042969 479.222656 L 623.941406 472.742188 L 624.09375 466.261719 L 624.519531 459.78125 L 625.214844 453.300781 L 626.191406 446.820312 L 627.453125 440.34375 L 629.011719 433.863281 L 629.597656 431.773438 L 630.902344 427.382812 L 633.132812 420.902344 L 635.695312 414.421875 L 636.078125 413.53125 L 638.742188 407.941406 L 642.203125 401.460938 L 642.558594 400.835938 L 646.402344 394.980469 L 649.039062 391.285156 L 651.425781 388.5 L 655.519531 384.015625 L 657.847656 382.019531 L 662 378.613281 L 667.226562 375.539062 L 668.480469 374.820312 L 674.960938 372.445312 L 681.441406 371.402344 L 687.921875 371.601562 "/>
<path style="fill:none;stroke-width:0.425197;stroke-linecap:butt;stroke-linejoin:round;stroke:rgb(26.666667%,55.294118%,77.647059%);stroke-opacity:1;stroke-miterlimit:1;" d="M 251.695312 673.636719 L 249.722656 667.15625 L 248.664062 660.675781 L 248.507812 654.195312 L 249.28125 647.714844 L 251.054688 641.234375 L 253.738281 635.214844 L 253.96875 634.753906 L 258.449219 628.273438 L 260.21875 626.3125 L 265.128906 621.792969 L 266.699219 620.605469 L 273.179688 616.667969 L 276.136719 615.3125 L 279.65625 613.886719 L 286.136719 612 L 292.617188 610.804688 L 299.097656 610.207031 L 305.578125 610.144531 L 312.058594 610.570312 L 318.539062 611.457031 L 325.019531 612.785156 L 331.5 614.554688 L 333.726562 615.3125 L 337.980469 616.820312 L 344.460938 619.582031 L 348.882812 621.792969 L 350.941406 622.90625 L 357.421875 626.917969 L 359.375 628.273438 L 363.902344 631.832031 L 367.261719 634.753906 L 370.382812 637.972656 L 373.300781 641.234375 L 376.863281 646.25 L 377.84375 647.714844 L 381.042969 654.195312 L 383.039062 660.675781 L 383.34375 663.113281 L 383.839844 667.15625 L 383.453125 673.636719 "/>
<path style="fill:none;stroke-width:0.425197;stroke-linecap:butt;stroke-linejoin:round;stroke:rgb(26.666667%,55.294118%,77.647059%);stroke-opacity:1;stroke-miterlimit:1;" d="M 454.628906 171.96875 L 452.992188 168.164062 L 451.261719 161.683594 L 450.601562 155.207031 L 451.042969 148.726562 L 452.640625 142.246094 L 454.628906 137.679688 L 455.554688 135.765625 L 460.113281 129.285156 L 461.109375 128.203125 L 466.921875 122.804688 L 467.589844 122.296875 L 474.070312 118.171875 L 477.710938 116.324219 L 480.550781 115.066406 L 487.03125 112.832031 L 493.511719 111.207031 L 499.992188 110.136719 L 503.3125 109.84375 L 506.472656 109.582031 L 512.953125 109.480469 L 519.433594 109.789062 L 519.921875 109.84375 L 525.914062 110.53125 L 532.394531 111.6875 L 538.875 113.246094 L 545.355469 115.222656 L 548.359375 116.324219 L 551.835938 117.734375 L 558.316406 120.824219 L 561.925781 122.804688 L 564.792969 124.617188 L 571.273438 129.253906 L 571.316406 129.285156 L 577.753906 135.394531 L 578.113281 135.765625 L 583.074219 142.246094 L 584.234375 144.335938 L 586.554688 148.726562 L 588.738281 155.207031 L 589.710938 161.683594 L 589.480469 168.164062 L 588.007812 174.644531 L 585.199219 181.125 L 584.234375 182.644531 L 580.765625 187.605469 L 577.753906 190.828125 L 574.289062 194.085938 L 571.273438 196.386719 L 564.804688 200.566406 L 564.792969 200.574219 L 558.316406 203.648438 L 551.835938 206.074219 L 548.46875 207.046875 L 545.355469 207.867188 L 538.875 209.097656 L 532.394531 209.851562 L 525.914062 210.144531 L 519.433594 209.992188 L 512.953125 209.394531 L 506.472656 208.347656 L 500.898438 207.046875 L 499.992188 206.828125 L 493.511719 204.742188 L 487.03125 202.121094 L 483.851562 200.566406 L 480.550781 198.804688 L 474.070312 194.707031 L 473.214844 194.085938 L 467.589844 189.425781 L 465.652344 187.605469 L 461.109375 182.507812 L 460 181.125 L 455.867188 174.644531 L 454.628906 171.96875 "/>
<path style="fill:none;stroke-width:0.425197;stroke-linecap:butt;stroke-linejoin:round;stroke:rgb(26.666667%,55.294118%,77.647059%);stroke-opacity:1;stroke-miterlimit:1;" d="M 687.921875 555.949219 L 681.441406 555.339844 L 674.960938 550.824219 L 674.71875 550.507812 L 669.226562 544.027344 L 668.480469 543.199219 L 664.972656 537.546875 L 662 532.839844 L 661.132812 531.066406 L 657.972656 524.585938 L 655.519531 519.292969 L 655.0625 518.105469 L 652.726562 511.625 L 650.664062 505.144531 L 649.039062 499.101562 L 648.9375 498.664062 L 647.707031 492.183594 L 646.828125 485.703125 L 646.324219 479.222656 L 646.21875 472.742188 L 646.519531 466.261719 L 647.246094 459.78125 L 648.40625 453.300781 L 649.039062 450.734375 L 650.140625 446.820312 L 652.476562 440.34375 L 655.355469 433.863281 L 655.519531 433.542969 L 659.398438 427.382812 L 662 423.796875 L 664.773438 420.902344 L 668.480469 417.425781 L 673.285156 414.421875 L 674.960938 413.449219 L 681.441406 411.496094 L 687.921875 411.324219 "/>
<path style="fill:none;stroke-width:0.425197;stroke-linecap:butt;stroke-linejoin:round;stroke:rgb(33.72549%,69.411765%,96.862745%);stroke-opacity:1;stroke-miterlimit:1;" d="M 279.042969 673.636719 L 276.554688 667.15625 L 275.664062 660.675781 L 276.433594 654.195312 L 279.019531 647.714844 L 279.65625 646.777344 L 284.4375 641.234375 L 286.136719 639.859375 L 292.617188 636.042969 L 296.007812 634.753906 L 299.097656 633.816406 L 305.578125 632.789062 L 312.058594 632.632812 L 318.539062 633.265625 L 325.019531 634.644531 L 325.363281 634.753906 L 331.5 637.054688 L 337.980469 640.277344 L 339.527344 641.234375 L 344.460938 645.023438 L 347.414062 647.714844 L 350.941406 652.128906 L 352.382812 654.195312 L 355.117188 660.675781 L 355.980469 667.15625 L 354.878906 673.636719 "/>
<path style="fill:none;stroke-width:0.425197;stroke-linecap:butt;stroke-linejoin:round;stroke:rgb(33.72549%,69.411765%,96.862745%);stroke-opacity:1;stroke-miterlimit:1;" d="M 487.03125 171.167969 L 484.675781 168.164062 L 481.714844 161.683594 L 480.984375 155.207031 L 482.667969 148.726562 L 487.011719 142.246094 L 487.03125 142.226562 L 493.511719 137.671875 L 497.519531 135.765625 L 499.992188 134.890625 L 506.472656 133.5625 L 512.953125 133.128906 L 519.433594 133.519531 L 525.914062 134.6875 L 529.578125 135.765625 L 532.394531 136.820312 L 538.875 140.148438 L 542.113281 142.246094 L 545.355469 145.207031 L 548.59375 148.726562 L 551.835938 154.765625 L 552.039062 155.207031 L 552.894531 161.683594 L 551.835938 166.609375 L 551.433594 168.164062 L 546.972656 174.644531 L 545.355469 176.074219 L 538.875 180.46875 L 537.5 181.125 L 532.394531 182.925781 L 525.914062 184.269531 L 519.433594 184.707031 L 512.953125 184.273438 L 506.472656 182.984375 L 500.847656 181.125 L 499.992188 180.773438 L 493.511719 177.003906 L 490.367188 174.644531 L 487.03125 171.167969 "/>
</g>
</svg>
