<?xml version="1.0" encoding="UTF-8"?>
<svg xmlns="http://www.w3.org/2000/svg" xmlns:xlink="http://www.w3.org/1999/xlink" width="720pt" height="720pt" viewBox="0 0 720 720" version="1.1">
<defs>
<clipPath id="clip1">
  <path d="M 14.285156 0 L 720 0 L 720 706 L 14.285156 706 Z "/>
</clipPath>
</defs>
<g id="surface51">
<rect x="0" y="0" width="720" height="720" style="fill:rgb(100%,100%,100%);fill-opacity:1;stroke:none;"/>
<rect x="0" y="0" width="720" height="720" style="fill:rgb(100%,100%,100%);fill-opacity:1;stroke:none;"/>
<path style="fill:none;stroke-width:1.062992;stroke-linecap:round;stroke-linejoin:round;stroke:rgb(100%,100%,100%);stroke-opacity:1;stroke-miterlimit:10;" d="M 0 720 L 720 720 L 720 0 L 0 0 Z "/>
<g clip-path="url(#clip1)" clip-rule="nonzero">
<path style=" stroke:none;fill-rule:nonzero;fill:rgb(100%,100%,100%);fill-opacity:1;" d="M 14.285156 705.714844 L 720 705.714844 L 720 0 L 14.285156 0 Z "/>
</g>
<path style="fill:none;stroke-width:0.425197;stroke-linecap:butt;stroke-linejoin:round;stroke:rgb(7.45098%,16.862745%,26.27451%);stroke-opacity:1;stroke-miterlimit:1;" d="M 154.785156 673.636719 L 154.203125 667.15625 L 153.972656 660.675781 L 154.058594 654.195312 L 154.460938 647.714844 L 155.171875 641.234375 L 156.214844 634.753906 L 156.53125 633.222656 L 157.382812 628.273438 L 158.789062 621.792969 L 160.546875 615.3125 L 162.707031 608.832031 L 163.011719 608.007812 L 164.832031 602.351562 L 167.261719 595.871094 L 169.492188 590.691406 L 170 589.390625 L 172.675781 582.910156 L 175.765625 576.429688 L 175.972656 576.007812 L 178.9375 569.949219 L 182.453125 563.753906 L 182.644531 563.46875 L 187.273438 556.988281 L 188.933594 554.890625 L 194.835938 550.507812 L 195.414062 550.09375 L 201.894531 549.265625 L 204.226562 550.507812 L 208.375 552.695312 L 211.910156 556.988281 L 214.855469 560.976562 L 216.183594 563.46875 L 219.28125 569.949219 L 221.335938 574.996094 L 221.902344 576.429688 L 224.277344 582.910156 L 226.292969 589.390625 L 227.816406 595 L 228.105469 595.871094 L 230.132812 602.351562 L 231.835938 608.832031 L 233.265625 615.3125 L 234.296875 620.839844 L 234.589844 621.792969 L 236.292969 628.273438 L 237.574219 634.753906 L 238.515625 641.234375 L 239.152344 647.714844 L 239.523438 654.195312 L 239.632812 660.675781 L 239.484375 667.15625 L 239.054688 673.636719 "/>
<path style="fill:none;stroke-width:0.425197;stroke-linecap:butt;stroke-linejoin:round;stroke:rgb(7.45098%,16.862745%,26.27451%);stroke-opacity:1;stroke-miterlimit:1;" d="M 252.574219 673.636719 L 251.574219 667.15625 L 250.964844 660.675781 L 250.671875 654.195312 L 250.625 647.714844 L 250.773438 641.234375 L 251.074219 634.753906 L 251.492188 628.273438 L 252.003906 621.792969 L 252.59375 615.3125 L 253.261719 608.832031 L 253.738281 604.722656 L 253.878906 602.351562 L 254.328125 595.871094 L 254.863281 589.390625 L 255.496094 582.910156 L 256.25 576.429688 L 257.132812 569.949219 L 258.164062 563.46875 L 259.359375 556.988281 L 260.21875 552.730469 L 260.574219 550.507812 L 261.664062 544.027344 L 262.835938 537.546875 L 264.027344 531.066406 L 265.164062 524.585938 L 266.144531 518.105469 L 266.699219 513.191406 L 266.863281 511.625 L 267.265625 505.144531 L 267.398438 498.664062 L 267.296875 492.183594 L 267.035156 485.703125 L 266.699219 479.269531 L 266.695312 479.222656 L 266.347656 472.742188 L 266.085938 466.261719 L 265.957031 459.78125 L 265.996094 453.300781 L 266.242188 446.820312 L 266.699219 440.605469 L 266.714844 440.34375 L 267.390625 433.863281 L 268.304688 427.382812 L 269.472656 420.902344 L 270.902344 414.421875 L 272.597656 407.941406 L 273.179688 405.90625 L 274.511719 401.460938 L 276.503906 394.980469 L 278.503906 388.5 L 279.65625 384.574219 L 280.425781 382.019531 L 282.09375 375.539062 L 283.480469 369.058594 L 284.605469 362.578125 L 285.488281 356.097656 L 286.136719 349.820312 L 286.15625 349.617188 L 286.601562 343.136719 L 286.9375 336.65625 L 287.214844 330.175781 L 287.488281 323.695312 L 287.816406 317.214844 L 288.257812 310.734375 L 288.863281 304.253906 L 289.703125 297.773438 L 290.839844 291.292969 L 292.359375 284.8125 L 292.617188 283.917969 L 294.320312 278.332031 L 296.976562 271.851562 L 299.097656 267.847656 L 300.648438 265.371094 L 305.578125 259.386719 L 306.082031 258.890625 L 312.058594 254.046875 L 314.667969 252.410156 L 318.539062 250.242188 L 325.019531 247.691406 L 331.5 246.613281 L 337.980469 247.070312 L 344.460938 248.710938 L 350.941406 250.355469 L 357.421875 250.210938 L 363.902344 247.675781 L 367.082031 245.929688 L 370.382812 244.03125 L 376.863281 241.273438 L 383.34375 240.828125 L 389.824219 243.546875 L 392.273438 245.929688 L 396.304688 250.347656 L 397.628906 252.410156 L 401.222656 258.890625 L 402.785156 262.3125 L 404.171875 265.371094 L 406.714844 271.851562 L 408.828125 278.332031 L 409.265625 279.8125 L 411.308594 284.8125 L 413.816406 291.292969 L 415.746094 296.308594 L 416.824219 297.773438 L 422.226562 304.238281 L 422.253906 304.253906 L 428.707031 307.503906 L 434.628906 310.734375 L 435.1875 311.03125 L 441.425781 317.214844 L 441.667969 317.484375 L 445.289062 323.695312 L 448.109375 330.175781 L 448.148438 330.289062 L 450.058594 336.65625 L 451.433594 343.136719 L 452.347656 349.617188 L 452.898438 356.097656 L 453.140625 362.578125 L 453.125 369.058594 L 452.875 375.539062 L 452.410156 382.019531 L 451.730469 388.5 L 450.832031 394.980469 L 449.703125 401.460938 L 448.320312 407.941406 L 448.148438 408.652344 L 446.804688 414.421875 L 445.070312 420.902344 L 443.074219 427.382812 L 441.667969 431.488281 L 440.796875 433.863281 L 438.300781 440.34375 L 435.585938 446.820312 L 435.1875 447.765625 L 432.449219 453.300781 L 429.183594 459.78125 L 428.707031 460.746094 L 425.085938 466.261719 L 422.226562 470.761719 L 420.015625 472.742188 L 415.746094 476.90625 L 409.265625 478.214844 L 402.785156 474.101562 L 401.664062 472.742188 L 396.589844 466.261719 L 396.304688 465.898438 L 389.824219 460.066406 L 383.34375 460.855469 L 378.058594 466.261719 L 376.863281 467.542969 L 374.152344 472.742188 L 371.027344 479.222656 L 370.382812 480.726562 L 368.71875 485.703125 L 366.726562 492.183594 L 364.820312 498.664062 L 363.902344 501.882812 L 363.011719 505.144531 L 361.261719 511.625 L 359.429688 518.105469 L 357.441406 524.585938 L 357.421875 524.648438 L 355.4375 531.066406 L 353.328125 537.546875 L 351.078125 544.027344 L 350.941406 544.40625 L 348.953125 550.507812 L 346.757812 556.988281 L 344.460938 563.460938 L 344.457031 563.46875 L 342.367188 569.949219 L 340.261719 576.429688 L 338.1875 582.910156 L 337.980469 583.621094 L 336.644531 589.390625 L 335.429688 595.871094 L 334.5625 602.351562 L 334.0625 608.832031 L 333.917969 615.3125 L 334.082031 621.792969 L 334.484375 628.273438 L 335.023438 634.753906 L 335.605469 641.234375 L 336.136719 647.714844 L 336.53125 654.195312 L 336.710938 660.675781 L 336.609375 667.15625 L 336.15625 673.636719 "/>
<path style="fill:none;stroke-width:0.425197;stroke-linecap:butt;stroke-linejoin:round;stroke:rgb(11.372549%,24.705882%,36.862745%);stroke-opacity:1;stroke-miterlimit:1;" d="M 168.984375 673.636719 L 168.175781 667.15625 L 167.816406 660.675781 L 167.863281 654.195312 L 168.304688 647.714844 L 169.140625 641.234375 L 169.492188 639.335938 L 170.253906 634.753906 L 171.675781 628.273438 L 173.480469 621.792969 L 175.691406 615.3125 L 175.972656 614.578125 L 178.144531 608.832031 L 180.96875 602.351562 L 182.453125 599.246094 L 184.332031 595.871094 L 188.273438 589.390625 L 188.933594 588.355469 L 194.519531 582.910156 L 195.414062 582.066406 L 201.894531 580.960938 L 204.648438 582.910156 L 208.375 585.609375 L 210.746094 589.390625 L 214.390625 595.871094 L 214.855469 596.753906 L 217.058594 602.351562 L 219.289062 608.832031 L 221.207031 615.3125 L 221.335938 615.789062 L 222.910156 621.792969 L 224.332031 628.273438 L 225.480469 634.753906 L 226.367188 641.234375 L 227.003906 647.714844 L 227.382812 654.195312 L 227.496094 660.675781 L 227.332031 667.15625 L 226.859375 673.636719 "/>
<path style="fill:none;stroke-width:0.425197;stroke-linecap:butt;stroke-linejoin:round;stroke:rgb(11.372549%,24.705882%,36.862745%);stroke-opacity:1;stroke-miterlimit:1;" d="M 261.527344 673.636719 L 261.0625 667.15625 L 260.75 660.675781 L 260.558594 654.195312 L 260.476562 647.714844 L 260.488281 641.234375 L 260.585938 634.753906 L 260.765625 628.273438 L 261.027344 621.792969 L 261.371094 615.3125 L 261.808594 608.832031 L 262.351562 602.351562 L 263.019531 595.871094 L 263.824219 589.390625 L 264.800781 582.910156 L 265.96875 576.429688 L 266.699219 572.90625 L 267.273438 569.949219 L 268.695312 563.46875 L 270.359375 556.988281 L 272.261719 550.507812 L 273.179688 547.554688 L 274.464844 544.027344 L 276.890625 537.546875 L 279.398438 531.066406 L 279.65625 530.328125 L 282.574219 524.585938 L 285.550781 518.105469 L 286.136719 516.535156 L 289.699219 511.625 L 292.617188 506.554688 L 296.136719 505.144531 L 299.097656 503.613281 L 302.292969 505.144531 L 305.578125 506.445312 L 311.15625 511.625 L 312.058594 512.609375 L 315.402344 518.105469 L 317.773438 524.585938 L 318.539062 528.285156 L 319 531.066406 L 319.578125 537.546875 L 319.761719 544.027344 L 319.703125 550.507812 L 319.527344 556.988281 L 319.324219 563.46875 L 319.160156 569.949219 L 319.074219 576.429688 L 319.09375 582.910156 L 319.234375 589.390625 L 319.492188 595.871094 L 319.855469 602.351562 L 320.3125 608.832031 L 320.828125 615.3125 L 321.929688 628.273438 L 322.445312 634.753906 L 322.890625 641.234375 L 323.246094 647.714844 L 323.472656 654.195312 L 323.550781 660.675781 L 323.449219 667.15625 L 323.140625 673.636719 "/>
<path style="fill:none;stroke-width:0.425197;stroke-linecap:butt;stroke-linejoin:round;stroke:rgb(11.372549%,24.705882%,36.862745%);stroke-opacity:1;stroke-miterlimit:1;" d="M 312.058594 416.152344 L 311.335938 414.421875 L 309.511719 407.941406 L 308.488281 401.460938 L 307.871094 394.980469 L 307.472656 388.5 L 307.203125 382.019531 L 307.011719 375.539062 L 306.871094 369.058594 L 306.765625 362.578125 L 306.695312 356.097656 L 306.664062 349.617188 L 306.683594 343.136719 L 306.773438 336.65625 L 306.960938 330.175781 L 307.289062 323.695312 L 307.8125 317.214844 L 308.601562 310.734375 L 309.773438 304.253906 L 311.472656 297.773438 L 312.058594 296.078125 L 313.707031 291.292969 L 316.871094 284.8125 L 318.539062 282.214844 L 321.757812 278.332031 L 325.019531 275.1875 L 331.5 272.101562 L 337.980469 272.089844 L 344.460938 274.179688 L 350.941406 276.527344 L 357.421875 276.734375 L 363.902344 274.035156 L 367.527344 271.851562 L 370.382812 270.125 L 376.863281 267.488281 L 383.34375 268.085938 L 387.953125 271.851562 L 389.824219 273.625 L 392.550781 278.332031 L 395.53125 284.8125 L 396.304688 286.855469 L 397.777344 291.292969 L 399.558594 297.773438 L 401.019531 304.253906 L 402.226562 310.734375 L 402.785156 314.292969 L 403.410156 317.214844 L 404.667969 323.695312 L 405.851562 330.175781 L 406.996094 336.65625 L 408.144531 343.136719 L 409.265625 349.285156 L 409.472656 349.617188 L 414.585938 356.097656 L 415.746094 357.179688 L 419.414062 356.097656 L 422.226562 355.515625 L 427.054688 356.097656 L 428.707031 356.34375 L 432.304688 362.578125 L 434.347656 369.058594 L 435.066406 375.539062 L 434.785156 382.019531 L 433.753906 388.5 L 432.167969 394.980469 L 430.152344 401.460938 L 428.707031 405.359375 L 426.601562 407.941406 L 422.226562 413.207031 L 415.746094 412.367188 L 412.082031 407.941406 L 409.265625 403.820312 L 405.308594 401.460938 L 402.785156 400.332031 L 401.890625 401.460938 L 396.304688 405.632812 L 394.757812 407.941406 L 389.824219 413.164062 L 388.90625 414.421875 L 383.34375 420.660156 L 383.140625 420.902344 L 377.269531 427.382812 L 376.863281 427.804688 L 371.335938 433.863281 L 370.382812 434.957031 L 365.71875 440.34375 L 363.902344 442.695312 L 360.453125 446.820312 L 357.421875 451.011719 L 355.230469 453.300781 L 350.941406 458.53125 L 348.90625 459.78125 L 344.460938 463.125 L 337.980469 462.925781 L 334.53125 459.78125 L 331.5 456.660156 L 329.460938 453.300781 L 325.9375 446.820312 L 325.019531 445.039062 L 322.480469 440.34375 L 319.488281 433.863281 L 318.539062 431.566406 L 316.144531 427.382812 L 313.453125 420.902344 L 312.058594 416.152344 "/>
<path style="fill:none;stroke-width:0.425197;stroke-linecap:butt;stroke-linejoin:round;stroke:rgb(15.686275%,32.941176%,47.843137%);stroke-opacity:1;stroke-miterlimit:1;" d="M 179.332031 673.636719 L 178.394531 667.15625 L 177.964844 660.675781 L 178.015625 654.195312 L 178.523438 647.714844 L 179.484375 641.234375 L 180.902344 634.753906 L 182.453125 629.375 L 182.820312 628.273438 L 185.40625 621.792969 L 188.5 615.3125 L 188.933594 614.488281 L 193.695312 608.832031 L 195.414062 606.933594 L 201.894531 605.8125 L 205.269531 608.832031 L 208.375 611.839844 L 210.078125 615.3125 L 212.867188 621.792969 L 214.855469 627.304688 L 215.125 628.273438 L 216.652344 634.753906 L 217.820312 641.234375 L 218.640625 647.714844 L 219.097656 654.195312 L 219.1875 660.675781 L 218.871094 667.15625 L 218.109375 673.636719 "/>
<path style="fill:none;stroke-width:0.425197;stroke-linecap:butt;stroke-linejoin:round;stroke:rgb(15.686275%,32.941176%,47.843137%);stroke-opacity:1;stroke-miterlimit:1;" d="M 266.921875 673.636719 L 266.699219 670.867188 L 266.324219 667.15625 L 265.886719 660.675781 L 265.644531 654.195312 L 265.566406 647.714844 L 265.636719 641.234375 L 265.839844 634.753906 L 266.167969 628.273438 L 266.625 621.792969 L 266.699219 620.941406 L 267.121094 615.3125 L 267.734375 608.832031 L 268.488281 602.351562 L 269.410156 595.871094 L 270.523438 589.390625 L 271.859375 582.910156 L 273.179688 577.492188 L 273.484375 576.429688 L 275.539062 569.949219 L 277.9375 563.46875 L 279.65625 559.285156 L 281.199219 556.988281 L 285.664062 550.507812 L 286.136719 549.8125 L 292.617188 546.554688 L 299.097656 549.890625 L 299.511719 550.507812 L 303.125 556.988281 L 305.578125 563.382812 L 305.605469 563.46875 L 307.257812 569.949219 L 308.558594 576.429688 L 309.632812 582.910156 L 310.558594 589.390625 L 311.394531 595.871094 L 312.058594 601.324219 L 312.195312 602.351562 L 313.074219 608.832031 L 313.90625 615.3125 L 314.683594 621.792969 L 315.390625 628.273438 L 316.015625 634.753906 L 316.535156 641.234375 L 316.929688 647.714844 L 317.175781 654.195312 L 317.253906 660.675781 L 317.132812 667.15625 L 316.78125 673.636719 "/>
<path style="fill:none;stroke-width:0.425197;stroke-linecap:butt;stroke-linejoin:round;stroke:rgb(15.686275%,32.941176%,47.843137%);stroke-opacity:1;stroke-miterlimit:1;" d="M 325.019531 389.320312 L 324.789062 388.5 L 323.183594 382.019531 L 321.882812 375.539062 L 320.839844 369.058594 L 320.023438 362.578125 L 319.410156 356.097656 L 318.996094 349.617188 L 318.785156 343.136719 L 318.796875 336.65625 L 319.074219 330.175781 L 319.671875 323.695312 L 320.683594 317.214844 L 322.222656 310.734375 L 324.480469 304.253906 L 325.019531 303.066406 L 329.128906 297.773438 L 331.5 295.425781 L 337.980469 294.28125 L 344.460938 296.660156 L 347.0625 297.773438 L 350.941406 299.503906 L 357.421875 299.527344 L 360.699219 297.773438 L 363.902344 296.164062 L 370.382812 291.796875 L 371.839844 291.292969 L 376.863281 289.53125 L 381.429688 291.292969 L 383.34375 292.152344 L 386.933594 297.773438 L 389.824219 303.851562 L 389.953125 304.253906 L 391.667969 310.734375 L 392.96875 317.214844 L 393.921875 323.695312 L 394.578125 330.175781 L 394.972656 336.65625 L 395.121094 343.136719 L 395.015625 349.617188 L 394.636719 356.097656 L 393.953125 362.578125 L 392.886719 369.058594 L 391.328125 375.539062 L 389.824219 380.082031 L 389.195312 382.019531 L 386.601562 388.5 L 383.34375 394.757812 L 383.207031 394.980469 L 378.75 401.460938 L 376.863281 403.917969 L 372.792969 407.941406 L 370.382812 410.339844 L 364.894531 414.421875 L 363.902344 415.230469 L 357.421875 419.21875 L 353.1875 420.902344 L 350.941406 421.921875 L 344.460938 421.800781 L 343.136719 420.902344 L 337.980469 417.101562 L 336.160156 414.421875 L 332.152344 407.941406 L 331.5 406.796875 L 329.230469 401.460938 L 326.832031 394.980469 L 325.019531 389.320312 "/>
<path style="fill:none;stroke-width:0.425197;stroke-linecap:butt;stroke-linejoin:round;stroke:rgb(20%,41.568627%,59.607843%);stroke-opacity:1;stroke-miterlimit:1;" d="M 190.488281 673.636719 L 188.933594 668.957031 L 188.5625 667.15625 L 187.953125 660.675781 L 188.03125 654.195312 L 188.761719 647.714844 L 188.933594 646.878906 L 190.785156 641.234375 L 193.851562 634.753906 L 195.414062 632.148438 L 201.894531 630.816406 L 204.613281 634.753906 L 208.050781 641.234375 L 208.375 642.113281 L 209.441406 647.714844 L 210.101562 654.195312 L 210.167969 660.675781 L 209.589844 667.15625 L 208.375 673.277344 L 208.238281 673.636719 "/>
<path style="fill:none;stroke-width:0.425197;stroke-linecap:butt;stroke-linejoin:round;stroke:rgb(20%,41.568627%,59.607843%);stroke-opacity:1;stroke-miterlimit:1;" d="M 271.1875 673.636719 L 270.53125 667.15625 L 270.113281 660.675781 L 269.898438 654.195312 L 269.867188 647.714844 L 269.992188 641.234375 L 270.269531 634.753906 L 270.691406 628.273438 L 271.261719 621.792969 L 271.988281 615.3125 L 272.878906 608.832031 L 273.179688 606.960938 L 274.023438 602.351562 L 275.4375 595.871094 L 277.132812 589.390625 L 279.148438 582.910156 L 279.65625 581.429688 L 282.613281 576.429688 L 286.136719 571.027344 L 290.765625 569.949219 L 292.617188 569.480469 L 293.078125 569.949219 L 298.496094 576.429688 L 299.097656 577.28125 L 301.125 582.910156 L 303.058594 589.390625 L 304.699219 595.871094 L 305.578125 599.707031 L 306.097656 602.351562 L 307.292969 608.832031 L 308.371094 615.3125 L 309.339844 621.792969 L 310.203125 628.273438 L 310.945312 634.753906 L 311.554688 641.234375 L 312.011719 647.714844 L 312.058594 648.828125 L 312.324219 654.195312 L 312.410156 660.675781 L 312.230469 667.15625 L 312.058594 669.441406 L 311.777344 673.636719 "/>
<path style="fill:none;stroke-width:0.425197;stroke-linecap:butt;stroke-linejoin:round;stroke:rgb(20%,41.568627%,59.607843%);stroke-opacity:1;stroke-miterlimit:1;" d="M 337.980469 374 L 336.296875 369.058594 L 334.464844 362.578125 L 333.019531 356.097656 L 332.050781 349.617188 L 331.726562 343.136719 L 332.355469 336.65625 L 334.453125 330.175781 L 337.980469 324.875 L 344.460938 326.082031 L 350.941406 328.179688 L 357.421875 326.140625 L 359.964844 323.695312 L 363.902344 320.519531 L 367.664062 317.214844 L 370.382812 315.035156 L 376.863281 313.871094 L 379.753906 317.214844 L 383.34375 323.335938 L 383.441406 323.695312 L 384.664062 330.175781 L 385.363281 336.65625 L 385.597656 343.136719 L 385.402344 349.617188 L 384.777344 356.097656 L 383.703125 362.578125 L 383.34375 364.09375 L 381.730469 369.058594 L 379.085938 375.539062 L 376.863281 380.027344 L 375.09375 382.019531 L 370.382812 387.003906 L 366.820312 388.5 L 363.902344 389.765625 L 357.421875 389.828125 L 352.375 388.5 L 350.941406 387.988281 L 344.460938 383.550781 L 343.289062 382.019531 L 338.898438 375.539062 L 337.980469 374 "/>
<path style="fill:none;stroke-width:0.425197;stroke-linecap:butt;stroke-linejoin:round;stroke:rgb(24.313725%,50.588235%,71.764706%);stroke-opacity:1;stroke-miterlimit:1;" d="M 275.460938 673.636719 L 274.671875 667.15625 L 274.183594 660.675781 L 273.957031 654.195312 L 273.957031 647.714844 L 274.175781 641.234375 L 274.597656 634.753906 L 275.226562 628.273438 L 276.058594 621.792969 L 277.105469 615.3125 L 278.394531 608.832031 L 279.65625 603.484375 L 280.121094 602.351562 L 283.109375 595.871094 L 286.136719 590.242188 L 292.617188 589.453125 L 296.566406 595.871094 L 299.097656 600.640625 L 299.601562 602.351562 L 301.355469 608.832031 L 302.910156 615.3125 L 304.289062 621.792969 L 305.5 628.273438 L 305.578125 628.75 L 306.445312 634.753906 L 307.199219 641.234375 L 307.75 647.714844 L 308.070312 654.195312 L 308.136719 660.675781 L 307.90625 667.15625 L 307.335938 673.636719 "/>
<path style="fill:none;stroke-width:0.425197;stroke-linecap:butt;stroke-linejoin:round;stroke:rgb(29.019608%,60%,84.313725%);stroke-opacity:1;stroke-miterlimit:1;" d="M 279.78125 673.636719 L 279.65625 673.035156 L 278.839844 667.15625 L 278.300781 660.675781 L 278.082031 654.195312 L 278.148438 647.714844 L 278.476562 641.234375 L 279.058594 634.753906 L 279.65625 630.007812 L 280.015625 628.273438 L 281.714844 621.792969 L 283.867188 615.3125 L 286.136719 609.683594 L 291.894531 608.832031 L 292.617188 608.730469 L 292.671875 608.832031 L 295.875 615.3125 L 298.714844 621.792969 L 299.097656 622.753906 L 300.320312 628.273438 L 301.539062 634.753906 L 302.511719 641.234375 L 303.214844 647.714844 L 303.613281 654.195312 L 303.660156 660.675781 L 303.300781 667.15625 L 302.460938 673.636719 "/>
<path style="fill:none;stroke-width:0.425197;stroke-linecap:butt;stroke-linejoin:round;stroke:rgb(33.72549%,69.411765%,96.862745%);stroke-opacity:1;stroke-miterlimit:1;" d="M 285.910156 673.636719 L 284.488281 667.15625 L 283.675781 660.675781 L 283.410156 654.195312 L 283.644531 647.714844 L 284.363281 641.234375 L 285.558594 634.753906 L 286.136719 632.425781 L 292.617188 629.535156 L 294.511719 634.753906 L 296.414062 641.234375 L 297.792969 647.714844 L 298.542969 654.195312 L 298.535156 660.675781 L 297.597656 667.15625 L 295.53125 673.636719 "/>
</g>
</svg>
