<?xml version="1.0" encoding="UTF-8"?>
<svg xmlns="http://www.w3.org/2000/svg" xmlns:xlink="http://www.w3.org/1999/xlink" width="720pt" height="720pt" viewBox="0 0 720 720" version="1.1">
<defs>
<clipPath id="clip1">
  <path d="M 14.285156 0 L 720 0 L 720 706 L 14.285156 706 Z "/>
</clipPath>
</defs>
<g id="surface16">
<rect x="0" y="0" width="720" height="720" style="fill:rgb(100%,100%,100%);fill-opacity:1;stroke:none;"/>
<rect x="0" y="0" width="720" height="720" style="fill:rgb(100%,100%,100%);fill-opacity:1;stroke:none;"/>
<path style="fill:none;stroke-width:1.062992;stroke-linecap:round;stroke-linejoin:round;stroke:rgb(100%,100%,100%);stroke-opacity:1;stroke-miterlimit:10;" d="M 0 720 L 720 720 L 720 0 L 0 0 Z "/>
<g clip-path="url(#clip1)" clip-rule="nonzero">
<path style=" stroke:none;fill-rule:nonzero;fill:rgb(100%,100%,100%);fill-opacity:1;" d="M 14.285156 705.714844 L 720 705.714844 L 720 0 L 14.285156 0 Z "/>
</g>
<path style="fill:none;stroke-width:0.425197;stroke-linecap:butt;stroke-linejoin:round;stroke:rgb(7.45098%,16.862745%,26.27451%);stroke-opacity:1;stroke-miterlimit:1;" d="M 46.363281 631.757812 L 52.84375 631.746094 L 59.324219 631.5625 L 65.804688 631.207031 L 72.285156 630.675781 L 78.765625 629.953125 L 85.246094 629.035156 L 89.648438 628.273438 L 91.726562 627.949219 L 98.207031 626.757812 L 104.6875 625.34375 L 111.167969 623.6875 L 117.53125 621.792969 L 117.648438 621.761719 L 124.128906 619.777344 L 130.609375 617.488281 L 136.003906 615.3125 L 137.089844 614.894531 L 143.570312 612.160156 L 150.050781 609.011719 L 150.394531 608.832031 L 156.53125 605.6875 L 162.257812 602.351562 L 163.011719 601.910156 L 169.492188 597.832031 L 172.335938 595.871094 L 175.972656 593.285156 L 180.992188 589.390625 L 182.453125 588.199219 L 188.503906 582.910156 L 188.933594 582.507812 L 195.074219 576.429688 L 195.414062 576.058594 L 200.832031 569.949219 L 201.894531 568.597656 L 205.859375 563.46875 L 208.375 559.703125 L 210.183594 556.988281 L 213.890625 550.507812 L 214.855469 548.523438 L 217.085938 544.027344 L 219.71875 537.546875 L 221.335938 532.546875 L 221.835938 531.066406 L 223.578125 524.585938 L 224.847656 518.105469 L 225.691406 511.625 L 226.15625 505.144531 L 226.265625 498.664062 L 226.054688 492.183594 L 225.546875 485.703125 L 224.765625 479.222656 L 223.746094 472.742188 L 222.515625 466.261719 L 221.335938 460.796875 L 221.128906 459.78125 L 219.734375 453.300781 L 218.265625 446.820312 L 216.773438 440.34375 L 215.3125 433.863281 L 214.855469 431.6875 L 214.003906 427.382812 L 212.839844 420.902344 L 211.808594 414.421875 L 210.917969 407.941406 L 210.164062 401.460938 L 209.519531 394.980469 L 208.949219 388.5 L 208.398438 382.019531 L 208.375 381.746094 L 207.859375 375.539062 L 207.230469 369.058594 L 206.453125 362.578125 L 205.464844 356.097656 L 204.199219 349.617188 L 202.589844 343.136719 L 201.894531 340.863281 L 200.65625 336.65625 L 198.300781 330.175781 L 195.414062 323.757812 L 195.386719 323.695312 L 192.03125 317.214844 L 188.933594 312.253906 L 187.976562 310.734375 L 183.246094 304.253906 L 182.453125 303.296875 L 177.726562 297.773438 L 175.972656 295.953125 L 171.246094 291.292969 L 169.492188 289.71875 L 163.636719 284.8125 L 163.011719 284.328125 L 156.53125 279.589844 L 154.65625 278.332031 L 150.050781 275.386719 L 143.859375 271.851562 L 143.570312 271.691406 L 137.089844 268.324219 L 130.609375 265.402344 L 130.535156 265.371094 L 124.128906 262.695312 L 117.648438 260.351562 L 113.050781 258.890625 L 111.167969 258.277344 L 104.6875 256.386719 L 98.207031 254.773438 L 91.726562 253.414062 L 86.007812 252.410156 L 85.246094 252.269531 L 78.765625 251.253906 L 72.285156 250.453125 L 65.804688 249.855469 L 59.324219 249.453125 L 52.84375 249.242188 L 46.363281 249.214844 "/>
<path style="fill:none;stroke-width:0.425197;stroke-linecap:butt;stroke-linejoin:round;stroke:rgb(7.45098%,16.862745%,26.27451%);stroke-opacity:1;stroke-miterlimit:1;" d="M 687.921875 263.332031 L 681.441406 263.835938 L 674.960938 264.179688 L 668.480469 264.367188 L 662 264.402344 L 655.519531 264.28125 L 649.039062 264.011719 L 642.558594 263.582031 L 636.078125 262.988281 L 629.597656 262.226562 L 623.117188 261.277344 L 616.636719 260.132812 L 610.679688 258.890625 L 610.15625 258.792969 L 603.675781 257.386719 L 597.195312 255.75 L 590.714844 253.863281 L 586.316406 252.410156 L 584.234375 251.761719 L 577.753906 249.519531 L 571.273438 246.949219 L 568.933594 245.929688 L 564.792969 244.175781 L 558.316406 241.097656 L 555.164062 239.449219 L 551.835938 237.710938 L 545.355469 233.964844 L 543.757812 232.96875 L 538.875 229.859375 L 534.070312 226.488281 L 532.394531 225.261719 L 525.914062 220.140625 L 525.753906 220.007812 L 519.433594 214.410156 L 518.488281 213.527344 L 512.953125 207.890625 L 512.15625 207.046875 L 506.613281 200.566406 L 506.472656 200.382812 L 501.675781 194.085938 L 499.992188 191.570312 L 497.339844 187.605469 L 493.582031 181.125 L 493.511719 180.992188 L 490.125 174.644531 L 487.175781 168.164062 L 487.03125 167.808594 L 484.417969 161.683594 L 482.019531 155.207031 L 480.550781 150.722656 L 479.859375 148.726562 L 477.832031 142.246094 L 476.035156 135.765625 L 474.441406 129.285156 L 474.070312 127.628906 L 472.90625 122.804688 L 471.519531 116.324219 L 470.308594 109.84375 L 469.277344 103.363281 L 468.433594 96.882812 L 467.792969 90.402344 L 467.589844 87.285156 L 467.347656 83.921875 L 467.148438 77.441406 L 467.257812 70.960938 L 467.589844 66.140625 L 467.695312 64.480469 L 468.445312 58 L 469.597656 51.519531 L 471.210938 45.039062 L 473.367188 38.558594 L 474.070312 36.863281 L 475.972656 32.078125 "/>
<path style="fill:none;stroke-width:0.425197;stroke-linecap:butt;stroke-linejoin:round;stroke:rgb(10.588235%,22.745098%,34.117647%);stroke-opacity:1;stroke-miterlimit:1;" d="M 46.363281 604.816406 L 52.84375 604.773438 L 59.324219 604.515625 L 65.804688 604.042969 L 72.285156 603.339844 L 78.765625 602.398438 L 79.039062 602.351562 L 85.246094 601.296875 L 91.726562 599.945312 L 98.207031 598.324219 L 104.6875 596.40625 L 106.277344 595.871094 L 111.167969 594.261719 L 117.648438 591.804688 L 123.191406 589.390625 L 124.128906 588.980469 L 130.609375 585.847656 L 135.949219 582.910156 L 137.089844 582.261719 L 143.570312 578.234375 L 146.203125 576.429688 L 150.050781 573.632812 L 154.683594 569.949219 L 156.53125 568.351562 L 161.792969 563.46875 L 163.011719 562.203125 L 167.789062 556.988281 L 169.492188 554.855469 L 172.839844 550.507812 L 175.972656 545.699219 L 177.042969 544.027344 L 180.527344 537.546875 L 182.453125 533.070312 L 183.320312 531.066406 L 185.539062 524.585938 L 187.15625 518.105469 L 188.234375 511.625 L 188.828125 505.144531 L 188.933594 500.535156 L 188.976562 498.664062 L 188.933594 497.601562 L 188.714844 492.183594 L 188.078125 485.703125 L 187.097656 479.222656 L 185.8125 472.742188 L 184.253906 466.261719 L 182.476562 459.78125 L 182.453125 459.703125 L 180.632812 453.300781 L 178.691406 446.820312 L 176.71875 440.34375 L 175.972656 437.796875 L 174.835938 433.863281 L 173.082031 427.382812 L 171.472656 420.902344 L 170.046875 414.421875 L 169.492188 411.484375 L 168.835938 407.941406 L 167.828125 401.460938 L 166.964844 394.980469 L 166.199219 388.5 L 165.464844 382.019531 L 164.683594 375.539062 L 163.773438 369.058594 L 163.011719 364.632812 L 162.664062 362.578125 L 161.277344 356.097656 L 159.507812 349.617188 L 157.257812 343.136719 L 156.53125 341.429688 L 154.46875 336.65625 L 151.003906 330.175781 L 150.050781 328.679688 L 146.753906 323.695312 L 143.570312 319.648438 L 141.550781 317.214844 L 137.089844 312.582031 L 135.175781 310.734375 L 130.609375 306.832031 L 127.296875 304.253906 L 124.128906 302.015625 L 117.648438 297.925781 L 117.382812 297.773438 L 111.167969 294.453125 L 104.6875 291.472656 L 104.246094 291.292969 L 98.207031 288.929688 L 91.726562 286.777344 L 85.246094 284.988281 L 84.488281 284.8125 L 78.765625 283.503906 L 72.285156 282.332031 L 65.804688 281.449219 L 59.324219 280.851562 L 52.84375 280.527344 L 46.363281 280.46875 "/>
<path style="fill:none;stroke-width:0.425197;stroke-linecap:butt;stroke-linejoin:round;stroke:rgb(10.588235%,22.745098%,34.117647%);stroke-opacity:1;stroke-miterlimit:1;" d="M 687.921875 236.011719 L 681.441406 236.65625 L 674.960938 237.09375 L 668.480469 237.328125 L 662 237.359375 L 655.519531 237.191406 L 649.039062 236.820312 L 642.558594 236.238281 L 636.078125 235.441406 L 629.597656 234.410156 L 623.117188 233.136719 L 622.390625 232.96875 L 616.636719 231.691406 L 610.15625 229.984375 L 603.675781 227.984375 L 599.457031 226.488281 L 597.195312 225.695312 L 590.714844 223.140625 L 584.234375 220.195312 L 583.859375 220.007812 L 577.753906 216.933594 L 571.824219 213.527344 L 571.273438 213.203125 L 564.792969 209.019531 L 562.015625 207.046875 L 558.316406 204.257812 L 553.808594 200.566406 L 551.835938 198.820312 L 546.828125 194.085938 L 545.355469 192.558594 L 540.8125 187.605469 L 538.875 185.253906 L 535.589844 181.125 L 532.394531 176.601562 L 531.039062 174.644531 L 527.03125 168.164062 L 525.914062 166.136719 L 523.464844 161.683594 L 520.328125 155.207031 L 519.433594 153.152344 L 517.476562 148.726562 L 514.933594 142.246094 L 512.953125 136.535156 L 512.675781 135.765625 L 510.5625 129.285156 L 508.710938 122.804688 L 507.097656 116.324219 L 506.472656 113.40625 L 505.660156 109.84375 L 504.429688 103.363281 L 503.457031 96.882812 L 502.769531 90.402344 L 502.378906 83.921875 L 502.324219 77.441406 L 502.636719 70.960938 L 503.359375 64.480469 L 504.558594 58 L 506.292969 51.519531 L 506.472656 51.007812 L 508.503906 45.039062 L 511.394531 38.558594 L 512.953125 35.734375 L 514.972656 32.078125 "/>
<path style="fill:none;stroke-width:0.425197;stroke-linecap:butt;stroke-linejoin:round;stroke:rgb(13.333333%,28.627451%,42.352941%);stroke-opacity:1;stroke-miterlimit:1;" d="M 46.363281 585.285156 L 52.84375 585.210938 L 59.324219 584.875 L 65.804688 584.269531 L 72.285156 583.382812 L 74.910156 582.910156 L 78.765625 582.226562 L 85.246094 580.78125 L 91.726562 579.011719 L 98.207031 576.890625 L 99.433594 576.429688 L 104.6875 574.410156 L 111.167969 571.511719 L 114.253906 569.949219 L 117.648438 568.132812 L 124.128906 564.210938 L 125.246094 563.46875 L 130.609375 559.589844 L 133.863281 556.988281 L 137.089844 554.101562 L 140.804688 550.507812 L 143.570312 547.417969 L 146.433594 544.027344 L 150.050781 538.898438 L 150.964844 537.546875 L 154.578125 531.066406 L 156.53125 526.539062 L 157.359375 524.585938 L 159.425781 518.105469 L 160.800781 511.625 L 161.5625 505.144531 L 161.757812 498.664062 L 161.429688 492.183594 L 160.628906 485.703125 L 159.386719 479.222656 L 157.753906 472.742188 L 156.53125 468.699219 L 155.792969 466.261719 L 153.585938 459.78125 L 151.167969 453.300781 L 150.050781 450.414062 L 148.640625 446.820312 L 146.082031 440.34375 L 143.570312 433.863281 L 143.570312 433.859375 L 141.195312 427.382812 L 139.015625 420.902344 L 137.089844 414.457031 L 137.078125 414.421875 L 135.394531 407.941406 L 133.960938 401.460938 L 132.738281 394.980469 L 131.648438 388.5 L 130.609375 382.058594 L 130.601562 382.019531 L 129.476562 375.539062 L 128.167969 369.058594 L 126.550781 362.578125 L 124.496094 356.097656 L 124.128906 355.167969 L 121.8125 349.617188 L 118.386719 343.136719 L 117.648438 342 L 113.917969 336.65625 L 111.167969 333.417969 L 108.136719 330.175781 L 104.6875 327.054688 L 100.496094 323.695312 L 98.207031 322.101562 L 91.726562 318.179688 L 89.859375 317.214844 L 85.246094 315.078125 L 78.765625 312.605469 L 72.574219 310.734375 L 72.285156 310.652344 L 65.804688 309.265625 L 59.324219 308.3125 L 52.84375 307.785156 L 46.363281 307.671875 "/>
<path style="fill:none;stroke-width:0.425197;stroke-linecap:butt;stroke-linejoin:round;stroke:rgb(13.333333%,28.627451%,42.352941%);stroke-opacity:1;stroke-miterlimit:1;" d="M 687.921875 215.820312 L 681.441406 216.589844 L 674.960938 217.097656 L 668.480469 217.355469 L 662 217.363281 L 655.519531 217.117188 L 649.039062 216.613281 L 642.558594 215.847656 L 636.078125 214.804688 L 629.890625 213.527344 L 629.597656 213.46875 L 623.117188 211.871094 L 616.636719 209.945312 L 610.15625 207.65625 L 608.644531 207.046875 L 603.675781 205.011719 L 597.195312 201.941406 L 594.613281 200.566406 L 590.714844 198.402344 L 584.234375 194.328125 L 583.882812 194.085938 L 577.753906 189.625 L 575.242188 187.605469 L 571.273438 184.167969 L 568.035156 181.125 L 564.792969 177.796875 L 561.917969 174.644531 L 558.316406 170.28125 L 556.652344 168.164062 L 552.082031 161.683594 L 551.835938 161.300781 L 548.035156 155.207031 L 545.355469 150.335938 L 544.480469 148.726562 L 541.296875 142.246094 L 538.875 136.648438 L 538.492188 135.765625 L 535.9375 129.285156 L 533.714844 122.804688 L 532.394531 118.363281 L 531.769531 116.324219 L 530.066406 109.84375 L 528.679688 103.363281 L 527.613281 96.882812 L 526.890625 90.402344 L 526.53125 83.921875 L 526.570312 77.441406 L 527.054688 70.960938 L 528.03125 64.480469 L 529.578125 58 L 531.773438 51.519531 L 532.394531 50.113281 L 534.617188 45.039062 L 538.296875 38.558594 L 538.875 37.710938 L 542.835938 32.078125 "/>
<path style="fill:none;stroke-width:0.425197;stroke-linecap:butt;stroke-linejoin:round;stroke:rgb(16.862745%,35.294118%,50.980392%);stroke-opacity:1;stroke-miterlimit:1;" d="M 46.363281 567.910156 L 52.84375 567.796875 L 59.324219 567.351562 L 65.804688 566.558594 L 72.285156 565.410156 L 78.765625 563.890625 L 80.214844 563.46875 L 85.246094 561.933594 L 91.726562 559.523438 L 97.445312 556.988281 L 98.207031 556.621094 L 104.6875 553.046875 L 108.683594 550.507812 L 111.167969 548.734375 L 117.015625 544.027344 L 117.648438 543.433594 L 123.359375 537.546875 L 124.128906 536.582031 L 128.222656 531.066406 L 130.609375 526.949219 L 131.910156 524.585938 L 134.574219 518.105469 L 136.359375 511.625 L 137.089844 506.820312 L 137.339844 505.144531 L 137.597656 498.664062 L 137.183594 492.183594 L 137.089844 491.582031 L 136.15625 485.703125 L 134.5625 479.222656 L 132.460938 472.742188 L 130.609375 467.996094 L 129.90625 466.261719 L 126.949219 459.78125 L 124.128906 454.113281 L 123.703125 453.300781 L 120.195312 446.820312 L 117.648438 442.160156 L 116.582031 440.34375 L 112.929688 433.863281 L 111.167969 430.535156 L 109.359375 427.382812 L 105.988281 420.902344 L 104.6875 418.054688 L 102.867188 414.421875 L 100.082031 407.941406 L 98.207031 402.804688 L 97.660156 401.460938 L 95.441406 394.980469 L 93.464844 388.5 L 91.726562 382.558594 L 91.546875 382.019531 L 89.296875 375.539062 L 86.679688 369.058594 L 85.246094 366.152344 L 83.175781 362.578125 L 78.765625 356.527344 L 78.378906 356.097656 L 72.285156 350.644531 L 70.78125 349.617188 L 65.804688 346.839844 L 59.324219 344.34375 L 53.757812 343.136719 L 52.84375 342.96875 L 46.363281 342.683594 "/>
<path style="fill:none;stroke-width:0.425197;stroke-linecap:butt;stroke-linejoin:round;stroke:rgb(16.862745%,35.294118%,50.980392%);stroke-opacity:1;stroke-miterlimit:1;" d="M 687.921875 198.207031 L 681.441406 199.074219 L 674.960938 199.632812 L 668.480469 199.890625 L 662 199.84375 L 655.519531 199.488281 L 649.039062 198.816406 L 642.558594 197.816406 L 636.078125 196.472656 L 629.597656 194.753906 L 627.507812 194.085938 L 623.117188 192.652344 L 616.636719 190.121094 L 611.191406 187.605469 L 610.15625 187.109375 L 603.675781 183.5625 L 599.789062 181.125 L 597.195312 179.398438 L 590.867188 174.644531 L 590.714844 174.523438 L 584.234375 168.777344 L 583.605469 168.164062 L 577.753906 161.980469 L 577.496094 161.683594 L 572.265625 155.207031 L 571.273438 153.847656 L 567.71875 148.726562 L 564.792969 144 L 563.75 142.246094 L 560.246094 135.765625 L 558.316406 131.714844 L 557.171875 129.285156 L 554.472656 122.804688 L 552.160156 116.324219 L 551.835938 115.25 L 550.175781 109.84375 L 548.566406 103.363281 L 547.355469 96.882812 L 546.558594 90.402344 L 546.207031 83.921875 L 546.335938 77.441406 L 547 70.960938 L 548.261719 64.480469 L 550.207031 58 L 551.835938 54.070312 L 552.902344 51.519531 L 556.449219 45.039062 L 558.316406 42.324219 L 561.007812 38.558594 L 564.792969 34.207031 L 566.765625 32.078125 "/>
<path style="fill:none;stroke-width:0.425197;stroke-linecap:butt;stroke-linejoin:round;stroke:rgb(20%,41.568627%,59.607843%);stroke-opacity:1;stroke-miterlimit:1;" d="M 46.363281 550.097656 L 52.84375 549.917969 L 59.324219 549.253906 L 65.804688 548.09375 L 72.285156 546.421875 L 78.765625 544.203125 L 79.1875 544.027344 L 85.246094 541.132812 L 91.40625 537.546875 L 91.726562 537.324219 L 98.207031 532.121094 L 99.359375 531.066406 L 104.6875 524.933594 L 104.957031 524.585938 L 108.785156 518.105469 L 111.167969 512.078125 L 111.335938 511.625 L 112.679688 505.144531 L 113.035156 498.664062 L 112.480469 492.183594 L 111.167969 486.082031 L 111.082031 485.703125 L 108.804688 479.222656 L 105.800781 472.742188 L 104.6875 470.726562 L 101.980469 466.261719 L 98.207031 460.769531 L 97.445312 459.78125 L 92.089844 453.300781 L 91.726562 452.875 L 85.808594 446.820312 L 85.246094 446.242188 L 78.765625 440.601562 L 78.398438 440.34375 L 72.285156 435.796875 L 68.875 433.863281 L 65.804688 431.957031 L 59.324219 429.148438 L 52.84375 427.535156 L 50.574219 427.382812 L 46.363281 427.054688 "/>
<path style="fill:none;stroke-width:0.425197;stroke-linecap:butt;stroke-linejoin:round;stroke:rgb(20%,41.568627%,59.607843%);stroke-opacity:1;stroke-miterlimit:1;" d="M 687.921875 181.6875 L 681.441406 182.648438 L 674.960938 183.242188 L 668.480469 183.46875 L 662 183.324219 L 655.519531 182.804688 L 649.039062 181.894531 L 645.238281 181.125 L 642.558594 180.574219 L 636.078125 178.820312 L 629.597656 176.597656 L 624.929688 174.644531 L 623.117188 173.855469 L 616.636719 170.53125 L 612.691406 168.164062 L 610.15625 166.554688 L 603.675781 161.820312 L 603.511719 161.683594 L 597.195312 156.160156 L 596.210938 155.207031 L 590.714844 149.402344 L 590.125 148.726562 L 584.96875 142.246094 L 584.234375 141.226562 L 580.539062 135.765625 L 577.753906 131.113281 L 576.707031 129.285156 L 573.410156 122.804688 L 571.273438 117.902344 L 570.605469 116.324219 L 568.257812 109.84375 L 566.382812 103.363281 L 564.992188 96.882812 L 564.792969 95.441406 L 564.09375 90.402344 L 563.730469 83.921875 L 563.957031 77.441406 L 564.792969 71.238281 L 564.832031 70.960938 L 566.40625 64.480469 L 568.796875 58 L 571.273438 53.136719 L 572.128906 51.519531 L 576.546875 45.039062 L 577.753906 43.601562 L 582.296875 38.558594 L 584.234375 36.757812 L 589.738281 32.078125 "/>
<path style="fill:none;stroke-width:0.425197;stroke-linecap:butt;stroke-linejoin:round;stroke:rgb(23.137255%,48.235294%,68.627451%);stroke-opacity:1;stroke-miterlimit:1;" d="M 46.363281 526.910156 L 52.84375 526.546875 L 59.324219 525.292969 L 61.460938 524.585938 L 65.804688 522.714844 L 72.285156 518.722656 L 73.058594 518.105469 L 78.636719 511.625 L 78.765625 511.355469 L 81.242188 505.144531 L 81.933594 498.664062 L 80.886719 492.183594 L 78.765625 486.988281 L 78.132812 485.703125 L 73.207031 479.222656 L 72.285156 478.289062 L 65.804688 473.207031 L 64.964844 472.742188 L 59.324219 470.085938 L 52.84375 468.308594 L 46.363281 467.78125 "/>
<path style="fill:none;stroke-width:0.425197;stroke-linecap:butt;stroke-linejoin:round;stroke:rgb(23.137255%,48.235294%,68.627451%);stroke-opacity:1;stroke-miterlimit:1;" d="M 687.921875 165.636719 L 681.441406 166.652344 L 674.960938 167.234375 L 668.480469 167.382812 L 662 167.09375 L 655.519531 166.347656 L 649.039062 165.125 L 642.558594 163.398438 L 637.625 161.683594 L 636.078125 161.125 L 629.597656 158.234375 L 624.027344 155.207031 L 623.117188 154.679688 L 616.636719 150.324219 L 614.570312 148.726562 L 610.15625 145.039062 L 607.195312 142.246094 L 603.675781 138.609375 L 601.179688 135.765625 L 597.195312 130.699219 L 596.167969 129.285156 L 591.984375 122.804688 L 590.714844 120.527344 L 588.496094 116.324219 L 585.636719 109.84375 L 584.234375 105.863281 L 583.382812 103.363281 L 581.734375 96.882812 L 580.703125 90.402344 L 580.328125 83.921875 L 580.660156 77.441406 L 581.769531 70.960938 L 583.75 64.480469 L 584.234375 63.390625 L 586.746094 58 L 590.714844 51.820312 L 590.921875 51.519531 L 596.589844 45.039062 L 597.195312 44.46875 L 603.675781 38.957031 L 604.199219 38.558594 L 610.15625 34.652344 L 614.683594 32.078125 "/>
<path style="fill:none;stroke-width:0.425197;stroke-linecap:butt;stroke-linejoin:round;stroke:rgb(26.666667%,55.294118%,77.647059%);stroke-opacity:1;stroke-miterlimit:1;" d="M 687.921875 149.65625 L 681.441406 150.699219 L 674.960938 151.234375 L 668.480469 151.257812 L 662 150.757812 L 655.519531 149.714844 L 651.53125 148.726562 L 649.039062 148.082031 L 642.558594 145.800781 L 636.078125 142.835938 L 635.007812 142.246094 L 629.597656 139.03125 L 625.015625 135.765625 L 623.117188 134.285156 L 617.578125 129.285156 L 616.636719 128.332031 L 611.78125 122.804688 L 610.15625 120.667969 L 607.152344 116.324219 L 603.675781 110.273438 L 603.445312 109.84375 L 600.644531 103.363281 L 598.609375 96.882812 L 597.363281 90.402344 L 597.195312 87.835938 L 596.953125 83.921875 L 597.195312 80.460938 L 597.417969 77.441406 L 598.875 70.960938 L 601.429688 64.480469 L 603.675781 60.609375 L 605.316406 58 L 610.15625 52.277344 L 610.871094 51.519531 L 616.636719 46.636719 L 618.792969 45.039062 L 623.117188 42.351562 L 629.597656 38.929688 L 630.425781 38.558594 L 636.078125 36.324219 L 642.558594 34.242188 L 649.039062 32.613281 L 651.867188 32.078125 "/>
<path style="fill:none;stroke-width:0.425197;stroke-linecap:butt;stroke-linejoin:round;stroke:rgb(30.196078%,62.352941%,87.45098%);stroke-opacity:1;stroke-miterlimit:1;" d="M 687.921875 133.074219 L 681.441406 134.179688 L 674.960938 134.660156 L 668.480469 134.503906 L 662 133.6875 L 655.519531 132.183594 L 649.039062 129.945312 L 647.585938 129.285156 L 642.558594 126.765625 L 636.335938 122.804688 L 636.078125 122.617188 L 629.597656 116.996094 L 628.933594 116.324219 L 623.539062 109.84375 L 623.117188 109.210938 L 619.660156 103.363281 L 616.898438 96.882812 L 616.636719 95.878906 L 615.324219 90.402344 L 614.84375 83.921875 L 615.507812 77.441406 L 616.636719 73.617188 L 617.492188 70.960938 L 621.078125 64.480469 L 623.117188 61.941406 L 626.714844 58 L 629.597656 55.609375 L 635.40625 51.519531 L 636.078125 51.136719 L 642.558594 48.035156 L 649.039062 45.597656 L 650.988281 45.039062 L 655.519531 43.917969 L 662 42.808594 L 668.480469 42.175781 L 674.960938 42.003906 L 681.441406 42.285156 L 687.921875 43.015625 "/>
<path style="fill:none;stroke-width:0.425197;stroke-linecap:butt;stroke-linejoin:round;stroke:rgb(33.72549%,69.411765%,96.862745%);stroke-opacity:1;stroke-miterlimit:1;" d="M 687.921875 113.796875 L 681.441406 115.203125 L 674.960938 115.671875 L 668.480469 115.183594 L 662 113.703125 L 655.519531 111.183594 L 653.082031 109.84375 L 649.039062 107.082031 L 644.847656 103.363281 L 642.558594 100.570312 L 640.070312 96.882812 L 637.453125 90.402344 L 636.695312 83.921875 L 637.914062 77.441406 L 641.308594 70.960938 L 642.558594 69.542969 L 648.039062 64.480469 L 649.039062 63.828125 L 655.519531 60.566406 L 662 58.28125 L 663.339844 58 L 668.480469 57.144531 L 674.960938 56.769531 L 681.441406 57.078125 L 687.460938 58 L 687.921875 58.089844 "/>
</g>
</svg>
