<?xml version="1.0" encoding="UTF-8"?>
<svg xmlns="http://www.w3.org/2000/svg" xmlns:xlink="http://www.w3.org/1999/xlink" width="720pt" height="720pt" viewBox="0 0 720 720" version="1.1">
<defs>
<clipPath id="clip1">
  <path d="M 14.285156 0 L 720 0 L 720 706 L 14.285156 706 Z "/>
</clipPath>
</defs>
<g id="surface111">
<rect x="0" y="0" width="720" height="720" style="fill:rgb(100%,100%,100%);fill-opacity:1;stroke:none;"/>
<rect x="0" y="0" width="720" height="720" style="fill:rgb(100%,100%,100%);fill-opacity:1;stroke:none;"/>
<path style="fill:none;stroke-width:1.062992;stroke-linecap:round;stroke-linejoin:round;stroke:rgb(100%,100%,100%);stroke-opacity:1;stroke-miterlimit:10;" d="M 0 720 L 720 720 L 720 0 L 0 0 Z "/>
<g clip-path="url(#clip1)" clip-rule="nonzero">
<path style=" stroke:none;fill-rule:nonzero;fill:rgb(100%,100%,100%);fill-opacity:1;" d="M 14.285156 705.714844 L 720 705.714844 L 720 0 L 14.285156 0 Z "/>
</g>
<path style="fill:none;stroke-width:0.425197;stroke-linecap:butt;stroke-linejoin:round;stroke:rgb(7.45098%,16.862745%,26.27451%);stroke-opacity:1;stroke-miterlimit:1;" d="M 59.324219 563.085938 L 56.550781 556.988281 L 54.96875 550.507812 L 54.742188 544.027344 L 55.828125 537.546875 L 58.1875 531.066406 L 59.324219 528.929688 L 61.910156 524.585938 L 65.804688 519.671875 L 66.953125 518.105469 L 72.285156 512.078125 L 72.585938 511.625 L 77.246094 505.144531 L 78.765625 503.144531 L 81.632812 498.664062 L 85.246094 493.386719 L 86.332031 492.183594 L 91.726562 486.589844 L 96.394531 485.703125 L 98.207031 485.347656 L 98.785156 485.703125 L 104.6875 489.210938 L 107.171875 492.183594 L 111.167969 498.148438 L 111.480469 498.664062 L 114.511719 505.144531 L 116.253906 511.625 L 117.21875 518.105469 L 117.648438 523.347656 L 117.78125 524.585938 L 118.214844 531.066406 L 118.464844 537.546875 L 118.617188 544.027344 L 118.679688 550.507812 L 118.628906 556.988281 L 118.390625 563.46875 L 117.875 569.949219 L 117.648438 571.609375 L 117.097656 576.429688 L 115.8125 582.910156 L 113.648438 589.390625 L 111.167969 594.273438 L 109.757812 595.871094 L 104.6875 600.410156 L 98.207031 601.214844 L 91.726562 598.691406 L 88.019531 595.871094 L 85.246094 593.71875 L 80.554688 589.390625 L 78.765625 587.570312 L 73.972656 582.910156 L 72.285156 580.972656 L 68.160156 576.429688 L 65.804688 573.238281 L 63.34375 569.949219 L 59.488281 563.46875 L 59.324219 563.085938 "/>
<path style="fill:none;stroke-width:0.425197;stroke-linecap:butt;stroke-linejoin:round;stroke:rgb(7.45098%,16.862745%,26.27451%);stroke-opacity:1;stroke-miterlimit:1;" d="M 175.972656 426.25 L 173.578125 420.902344 L 171.597656 414.421875 L 170.425781 407.941406 L 169.875 401.460938 L 169.820312 394.980469 L 170.234375 388.5 L 171.183594 382.019531 L 172.835938 375.539062 L 175.542969 369.058594 L 175.972656 368.269531 L 179.5 362.578125 L 182.453125 359.074219 L 186.347656 356.097656 L 188.933594 354.261719 L 195.414062 351.945312 L 201.894531 351.515625 L 208.375 352.226562 L 214.855469 352.570312 L 221.335938 350.863281 L 223.785156 349.617188 L 227.816406 347.523438 L 234.296875 344.601562 L 239.921875 343.136719 L 240.777344 342.871094 L 247.257812 341.835938 L 253.738281 341.675781 L 260.21875 342.621094 L 261.464844 343.136719 L 266.699219 345.03125 L 272.351562 349.617188 L 273.179688 350.382812 L 277.667969 356.097656 L 279.65625 359.859375 L 281.203125 362.578125 L 283.777344 369.058594 L 285.222656 375.539062 L 285.917969 382.019531 L 286.058594 388.5 L 285.75 394.980469 L 285.046875 401.460938 L 283.980469 407.941406 L 282.574219 414.421875 L 280.824219 420.902344 L 279.65625 424.640625 L 279.0625 427.382812 L 277.460938 433.863281 L 275.417969 440.34375 L 273.179688 445.8125 L 272.789062 446.820312 L 269.894531 453.300781 L 266.699219 458.636719 L 265.835938 459.78125 L 260.363281 466.261719 L 260.21875 466.433594 L 253.738281 471.320312 L 248.835938 472.742188 L 247.257812 473.328125 L 240.777344 472.835938 L 240.394531 472.742188 L 234.296875 471.4375 L 227.816406 472.277344 L 227.40625 472.742188 L 224.789062 479.222656 L 224.53125 485.703125 L 225.316406 492.183594 L 226.460938 498.664062 L 227.625 505.144531 L 227.816406 506.175781 L 229.59375 511.625 L 231.367188 518.105469 L 232.75 524.585938 L 233.757812 531.066406 L 234.296875 536.121094 L 234.632812 537.546875 L 235.578125 544.027344 L 235.902344 550.507812 L 235.640625 556.988281 L 234.800781 563.46875 L 234.296875 565.730469 L 233.878906 569.949219 L 232.859375 576.429688 L 231.277344 582.910156 L 228.851562 589.390625 L 227.816406 591.519531 L 226.246094 595.871094 L 222.769531 602.351562 L 221.335938 604.464844 L 218.035156 608.832031 L 214.855469 612.28125 L 209.5625 615.3125 L 208.375 616.039062 L 201.894531 616.347656 L 200.066406 615.3125 L 195.414062 612.78125 L 192.148438 608.832031 L 188.933594 603.574219 L 188.292969 602.351562 L 185.488281 595.871094 L 183.6875 589.390625 L 182.496094 582.910156 L 182.453125 582.613281 L 181.011719 576.429688 L 179.9375 569.949219 L 179.195312 563.46875 L 178.703125 556.988281 L 178.421875 550.507812 L 178.308594 544.027344 L 178.339844 537.546875 L 178.488281 531.066406 L 178.726562 524.585938 L 179.03125 518.105469 L 179.402344 511.625 L 179.847656 505.144531 L 180.394531 498.664062 L 181.085938 492.183594 L 181.949219 485.703125 L 182.453125 482.238281 L 182.765625 479.222656 L 183.414062 472.742188 L 183.945312 466.261719 L 184.230469 459.78125 L 184.132812 453.300781 L 183.515625 446.820312 L 182.453125 441.414062 L 182.128906 440.34375 L 179.414062 433.863281 L 176.480469 427.382812 L 175.972656 426.25 "/>
<path style="fill:none;stroke-width:0.425197;stroke-linecap:butt;stroke-linejoin:round;stroke:rgb(11.372549%,24.705882%,36.862745%);stroke-opacity:1;stroke-miterlimit:1;" d="M 78.765625 561.832031 L 76.894531 556.988281 L 75.71875 550.507812 L 75.730469 544.027344 L 76.875 537.546875 L 78.765625 532.265625 L 79.113281 531.066406 L 81.859375 524.585938 L 85.246094 518.785156 L 85.757812 518.105469 L 91.21875 511.625 L 91.726562 511.054688 L 98.207031 509.203125 L 101.050781 511.625 L 104.6875 515.316406 L 105.945312 518.105469 L 108.136719 524.585938 L 109.566406 531.066406 L 110.472656 537.546875 L 110.988281 544.027344 L 111.167969 550.363281 L 111.171875 550.507812 L 111.167969 550.671875 L 111 556.988281 L 110.359375 563.46875 L 109.019531 569.949219 L 106.582031 576.429688 L 104.6875 579.746094 L 98.207031 582.890625 L 91.726562 580.316406 L 87.714844 576.429688 L 85.246094 573.617188 L 82.589844 569.949219 L 79.292969 563.46875 L 78.765625 561.832031 "/>
<path style="fill:none;stroke-width:0.425197;stroke-linecap:butt;stroke-linejoin:round;stroke:rgb(11.372549%,24.705882%,36.862745%);stroke-opacity:1;stroke-miterlimit:1;" d="M 182.453125 408.199219 L 182.347656 407.941406 L 180.570312 401.460938 L 179.863281 394.980469 L 180.164062 388.5 L 181.53125 382.019531 L 182.453125 379.644531 L 184.582031 375.539062 L 188.933594 370.132812 L 190.679688 369.058594 L 195.414062 366.628906 L 201.894531 366.179688 L 208.375 367.527344 L 214.855469 368.21875 L 221.335938 365.453125 L 224.746094 362.578125 L 227.816406 360.390625 L 234.296875 356.148438 L 234.417969 356.097656 L 240.777344 353.351562 L 247.257812 352.089844 L 253.738281 351.941406 L 260.21875 353.140625 L 265.492188 356.097656 L 266.699219 356.828125 L 271.722656 362.578125 L 273.179688 364.988281 L 275.261719 369.058594 L 277.339844 375.539062 L 278.402344 382.019531 L 278.75 388.5 L 278.550781 394.980469 L 277.898438 401.460938 L 276.839844 407.941406 L 275.414062 414.421875 L 273.597656 420.902344 L 273.179688 422.242188 L 271.710938 427.382812 L 269.46875 433.863281 L 266.699219 440.089844 L 266.558594 440.34375 L 262.578125 446.820312 L 260.21875 450.007812 L 255.878906 453.300781 L 253.738281 454.921875 L 247.257812 456.253906 L 240.777344 454.742188 L 237.136719 453.300781 L 234.296875 452.207031 L 227.816406 450.585938 L 221.335938 450.746094 L 216.539062 453.300781 L 214.855469 454.894531 L 211.980469 459.78125 L 210.789062 466.261719 L 211.058594 472.742188 L 212.242188 479.222656 L 213.992188 485.703125 L 214.855469 488.222656 L 216.058594 492.183594 L 218.097656 498.664062 L 219.894531 505.144531 L 221.335938 511.324219 L 221.425781 511.625 L 223.273438 518.105469 L 224.699219 524.585938 L 225.761719 531.066406 L 226.515625 537.546875 L 227.003906 544.027344 L 227.246094 550.507812 L 227.246094 556.988281 L 226.96875 563.46875 L 226.34375 569.949219 L 225.238281 576.429688 L 223.441406 582.910156 L 221.335938 587.964844 L 220.769531 589.390625 L 217.304688 595.871094 L 214.855469 599.238281 L 210.878906 602.351562 L 208.375 604.195312 L 201.894531 604.386719 L 199.148438 602.351562 L 195.414062 599.320312 L 193.226562 595.871094 L 190.203125 589.390625 L 188.933594 585.503906 L 188.058594 582.910156 L 186.378906 576.429688 L 185.234375 569.949219 L 184.464844 563.46875 L 183.972656 556.988281 L 183.699219 550.507812 L 183.613281 544.027344 L 183.6875 537.546875 L 183.90625 531.066406 L 184.265625 524.585938 L 184.761719 518.105469 L 185.417969 511.625 L 186.261719 505.144531 L 187.339844 498.664062 L 188.695312 492.183594 L 188.933594 491.109375 L 190.289062 485.703125 L 192.0625 479.222656 L 193.777344 472.742188 L 195.167969 466.261719 L 195.414062 464.480469 L 196.652344 459.78125 L 197.269531 453.300781 L 197.109375 446.820312 L 196.296875 440.34375 L 195.414062 436.785156 L 194.84375 433.863281 L 192.625 427.382812 L 189.191406 420.902344 L 188.933594 420.507812 L 185.480469 414.421875 L 182.453125 408.199219 "/>
<path style="fill:none;stroke-width:0.425197;stroke-linecap:butt;stroke-linejoin:round;stroke:rgb(15.686275%,32.941176%,47.843137%);stroke-opacity:1;stroke-miterlimit:1;" d="M 91.726562 563.839844 L 91.460938 563.46875 L 88.183594 556.988281 L 86.574219 550.507812 L 86.511719 544.027344 L 87.984375 537.546875 L 91.003906 531.066406 L 91.726562 529.957031 L 98.207031 528.585938 L 99.773438 531.066406 L 102.519531 537.546875 L 103.949219 544.027344 L 104.25 550.507812 L 103.273438 556.988281 L 100.453125 563.46875 L 98.207031 566.28125 L 91.726562 563.839844 "/>
<path style="fill:none;stroke-width:0.425197;stroke-linecap:butt;stroke-linejoin:round;stroke:rgb(15.686275%,32.941176%,47.843137%);stroke-opacity:1;stroke-miterlimit:1;" d="M 188.933594 567.789062 L 188.195312 563.46875 L 187.476562 556.988281 L 187.101562 550.507812 L 187.011719 544.027344 L 187.171875 537.546875 L 187.566406 531.066406 L 188.1875 524.585938 L 188.933594 518.886719 L 189.03125 518.105469 L 190.035156 511.625 L 191.398438 505.144531 L 193.214844 498.664062 L 195.414062 492.492188 L 195.695312 492.183594 L 201.894531 485.90625 L 208.375 491.550781 L 208.652344 492.183594 L 211.707031 498.664062 L 214.421875 505.144531 L 214.855469 506.230469 L 216.6875 511.625 L 218.492188 518.105469 L 219.910156 524.585938 L 220.992188 531.066406 L 221.335938 533.746094 L 221.996094 537.546875 L 222.753906 544.027344 L 223.128906 550.507812 L 223.113281 556.988281 L 222.65625 563.46875 L 221.65625 569.949219 L 221.335938 571.277344 L 220.277344 576.429688 L 218.148438 582.910156 L 214.855469 589.265625 L 214.75 589.390625 L 208.375 595.523438 L 201.894531 595.640625 L 195.667969 589.390625 L 195.414062 589.070312 L 192.570312 582.910156 L 190.574219 576.429688 L 189.246094 569.949219 L 188.933594 567.789062 "/>
<path style="fill:none;stroke-width:0.425197;stroke-linecap:butt;stroke-linejoin:round;stroke:rgb(15.686275%,32.941176%,47.843137%);stroke-opacity:1;stroke-miterlimit:1;" d="M 195.414062 403.152344 L 194.433594 401.460938 L 192.394531 394.980469 L 192.960938 388.5 L 195.414062 384.269531 L 201.894531 382.691406 L 208.375 386.28125 L 214.855469 387.359375 L 219.496094 382.019531 L 221.335938 380.636719 L 224.46875 375.539062 L 227.816406 371.796875 L 230.074219 369.058594 L 234.296875 365.273438 L 238.765625 362.578125 L 240.777344 361.519531 L 247.257812 359.789062 L 253.738281 359.628906 L 260.21875 361.335938 L 262.03125 362.578125 L 266.699219 366.5 L 268.460938 369.058594 L 271.441406 375.539062 L 272.996094 382.019531 L 273.179688 383.929688 L 273.632812 388.5 L 273.492188 394.980469 L 273.179688 397.558594 L 272.761719 401.460938 L 271.613281 407.941406 L 270.046875 414.421875 L 268.058594 420.902344 L 266.699219 424.628906 L 265.492188 427.382812 L 262.175781 433.863281 L 260.21875 437.082031 L 256.605469 440.34375 L 253.738281 442.753906 L 247.257812 443.746094 L 240.777344 441.507812 L 238.457031 440.34375 L 234.296875 438.050781 L 227.816406 434.476562 L 226.664062 433.863281 L 221.335938 429.542969 L 218.882812 427.382812 L 214.855469 421.117188 L 214.664062 420.902344 L 209.660156 414.421875 L 208.375 412.808594 L 201.894531 409.109375 L 200.6875 407.941406 L 195.414062 403.152344 "/>
<path style="fill:none;stroke-width:0.425197;stroke-linecap:butt;stroke-linejoin:round;stroke:rgb(20%,41.568627%,59.607843%);stroke-opacity:1;stroke-miterlimit:1;" d="M 195.414062 579.675781 L 194.179688 576.429688 L 192.390625 569.949219 L 191.226562 563.46875 L 190.511719 556.988281 L 190.15625 550.507812 L 190.101562 544.027344 L 190.324219 537.546875 L 190.820312 531.066406 L 191.605469 524.585938 L 192.726562 518.105469 L 194.253906 511.625 L 195.414062 507.722656 L 197.125 505.144531 L 201.894531 499.496094 L 208.375 504.066406 L 208.894531 505.144531 L 211.871094 511.625 L 214.339844 518.105469 L 214.855469 519.636719 L 216.238281 524.585938 L 217.660156 531.066406 L 218.695312 537.546875 L 219.375 544.027344 L 219.699219 550.507812 L 219.652344 556.988281 L 219.167969 563.46875 L 218.121094 569.949219 L 216.300781 576.429688 L 214.855469 579.921875 L 212.953125 582.910156 L 208.375 588.167969 L 201.894531 588.261719 L 197.417969 582.910156 L 195.414062 579.675781 "/>
<path style="fill:none;stroke-width:0.425197;stroke-linecap:butt;stroke-linejoin:round;stroke:rgb(20%,41.568627%,59.607843%);stroke-opacity:1;stroke-miterlimit:1;" d="M 227.816406 412.59375 L 226.449219 407.941406 L 225.71875 401.460938 L 226.027344 394.980469 L 227.445312 388.5 L 227.816406 387.632812 L 229.722656 382.019531 L 233.5625 375.539062 L 234.296875 374.675781 L 240.777344 369.078125 L 240.824219 369.058594 L 247.257812 366.757812 L 253.738281 366.597656 L 260.21875 368.984375 L 260.300781 369.058594 L 265.71875 375.539062 L 266.699219 377.585938 L 268.152344 382.019531 L 269.085938 388.5 L 269.085938 394.980469 L 268.351562 401.460938 L 267 407.941406 L 266.699219 409.023438 L 264.921875 414.421875 L 262.257812 420.902344 L 260.21875 425.042969 L 258.132812 427.382812 L 253.738281 431.78125 L 247.257812 432.613281 L 240.777344 429.441406 L 238.054688 427.382812 L 234.296875 423.742188 L 231.78125 420.902344 L 228.335938 414.421875 L 227.816406 412.59375 "/>
<path style="fill:none;stroke-width:0.425197;stroke-linecap:butt;stroke-linejoin:round;stroke:rgb(24.313725%,50.588235%,71.764706%);stroke-opacity:1;stroke-miterlimit:1;" d="M 195.414062 569.453125 L 194.082031 563.46875 L 193.21875 556.988281 L 192.808594 550.507812 L 192.792969 544.027344 L 193.132812 537.546875 L 193.832031 531.066406 L 194.90625 524.585938 L 195.414062 522.257812 L 197.132812 518.105469 L 200.9375 511.625 L 201.894531 510.3125 L 203.875 511.625 L 208.375 514.496094 L 209.949219 518.105469 L 212.355469 524.585938 L 214.269531 531.066406 L 214.855469 533.609375 L 215.605469 537.546875 L 216.425781 544.027344 L 216.804688 550.507812 L 216.703125 556.988281 L 216.039062 563.46875 L 214.855469 569.136719 L 214.617188 569.949219 L 211.636719 576.429688 L 208.375 581.085938 L 201.894531 581.199219 L 198.632812 576.429688 L 195.578125 569.949219 L 195.414062 569.453125 "/>
<path style="fill:none;stroke-width:0.425197;stroke-linecap:butt;stroke-linejoin:round;stroke:rgb(24.313725%,50.588235%,71.764706%);stroke-opacity:1;stroke-miterlimit:1;" d="M 234.296875 403.03125 L 233.933594 401.460938 L 233.632812 394.980469 L 234.296875 390.621094 L 234.632812 388.5 L 237.390625 382.019531 L 240.777344 377.6875 L 243.992188 375.539062 L 247.257812 373.972656 L 253.738281 373.820312 L 257.054688 375.539062 L 260.21875 377.945312 L 262.46875 382.019531 L 264.144531 388.5 L 264.363281 394.980469 L 263.519531 401.460938 L 261.847656 407.941406 L 260.21875 412.433594 L 258.933594 414.421875 L 253.792969 420.902344 L 253.738281 420.960938 L 247.257812 421.695312 L 246.007812 420.902344 L 240.777344 416.855469 L 238.886719 414.421875 L 235.578125 407.941406 L 234.296875 403.03125 "/>
<path style="fill:none;stroke-width:0.425197;stroke-linecap:butt;stroke-linejoin:round;stroke:rgb(29.019608%,60%,84.313725%);stroke-opacity:1;stroke-miterlimit:1;" d="M 201.894531 573.769531 L 199.851562 569.949219 L 197.507812 563.46875 L 196.117188 556.988281 L 195.484375 550.507812 L 195.515625 544.027344 L 196.207031 537.546875 L 197.632812 531.066406 L 199.949219 524.585938 L 201.894531 520.71875 L 208.246094 524.585938 L 208.375 524.667969 L 210.535156 531.066406 L 212.167969 537.546875 L 213.242188 544.027344 L 213.71875 550.507812 L 213.507812 556.988281 L 212.445312 563.46875 L 210.277344 569.949219 L 208.375 573.53125 L 201.894531 573.769531 "/>
<path style="fill:none;stroke-width:0.425197;stroke-linecap:butt;stroke-linejoin:round;stroke:rgb(29.019608%,60%,84.313725%);stroke-opacity:1;stroke-miterlimit:1;" d="M 247.257812 409.140625 L 246.132812 407.941406 L 242.363281 401.460938 L 241.234375 394.980469 L 242.96875 388.5 L 247.257812 383.316406 L 253.738281 383.199219 L 257.355469 388.5 L 258.386719 394.980469 L 257.082031 401.460938 L 254.089844 407.941406 L 253.738281 408.480469 L 247.257812 409.140625 "/>
<path style="fill:none;stroke-width:0.425197;stroke-linecap:butt;stroke-linejoin:round;stroke:rgb(33.72549%,69.411765%,96.862745%);stroke-opacity:1;stroke-miterlimit:1;" d="M 201.894531 564.691406 L 201.417969 563.46875 L 199.867188 556.988281 L 199.234375 550.507812 L 199.417969 544.027344 L 200.414062 537.546875 L 201.894531 532.390625 L 208.375 536.632812 L 208.621094 537.546875 L 209.785156 544.027344 L 210.246094 550.507812 L 209.902344 556.988281 L 208.566406 563.46875 L 208.375 563.992188 L 201.894531 564.691406 "/>
</g>
</svg>
