<?xml version="1.0" encoding="UTF-8"?>
<svg xmlns="http://www.w3.org/2000/svg" xmlns:xlink="http://www.w3.org/1999/xlink" width="720pt" height="720pt" viewBox="0 0 720 720" version="1.1">
<defs>
<clipPath id="clip1">
  <path d="M 14.285156 0 L 720 0 L 720 706 L 14.285156 706 Z "/>
</clipPath>
</defs>
<g id="surface96">
<rect x="0" y="0" width="720" height="720" style="fill:rgb(100%,100%,100%);fill-opacity:1;stroke:none;"/>
<rect x="0" y="0" width="720" height="720" style="fill:rgb(100%,100%,100%);fill-opacity:1;stroke:none;"/>
<path style="fill:none;stroke-width:1.062992;stroke-linecap:round;stroke-linejoin:round;stroke:rgb(100%,100%,100%);stroke-opacity:1;stroke-miterlimit:10;" d="M 0 720 L 720 720 L 720 0 L 0 0 Z "/>
<g clip-path="url(#clip1)" clip-rule="nonzero">
<path style=" stroke:none;fill-rule:nonzero;fill:rgb(100%,100%,100%);fill-opacity:1;" d="M 14.285156 705.714844 L 720 705.714844 L 720 0 L 14.285156 0 Z "/>
</g>
<path style="fill:none;stroke-width:0.425197;stroke-linecap:butt;stroke-linejoin:round;stroke:rgb(7.45098%,16.862745%,26.27451%);stroke-opacity:1;stroke-miterlimit:1;" d="M 203.65625 32.078125 L 205.207031 38.558594 L 204.734375 45.039062 L 203.324219 51.519531 L 201.894531 57.617188 L 201.796875 58 L 200.851562 64.480469 L 201.25 70.960938 L 201.894531 73.15625 L 202.738281 77.441406 L 204.367188 83.921875 L 205.960938 90.402344 L 207.402344 96.882812 L 208.375 101.664062 L 208.753906 103.363281 L 210.128906 109.84375 L 211.382812 116.324219 L 212.3125 122.804688 L 212.449219 129.285156 L 211.546875 135.765625 L 210.210938 142.246094 L 209.003906 148.726562 L 208.375 151.769531 L 207.960938 155.207031 L 206.765625 161.683594 L 204.648438 168.164062 L 201.894531 172.9375 L 200.6875 174.644531 L 195.414062 179.683594 L 191.246094 181.125 L 188.933594 181.984375 L 182.453125 181.269531 L 182.171875 181.125 L 175.972656 177.941406 L 172.632812 174.644531 L 169.492188 170.238281 L 168.132812 168.164062 L 165.15625 161.683594 L 163.167969 155.207031 L 163.011719 154.582031 L 160.976562 148.726562 L 159.121094 142.246094 L 157.476562 135.765625 L 156.53125 131.492188 L 156.027344 129.285156 L 154.945312 122.804688 L 154.449219 116.324219 L 154.84375 109.84375 L 156.53125 103.894531 L 156.714844 103.363281 L 160.664062 96.882812 L 163.011719 93.886719 L 166.472656 90.402344 L 169.492188 86.480469 L 171.699219 83.921875 L 175.535156 77.441406 L 175.972656 76.21875 L 177.878906 70.960938 L 177.484375 64.480469 L 175.972656 61.023438 L 174.964844 58 L 171.894531 51.519531 L 169.492188 45.171875 L 169.433594 45.039062 L 167.71875 38.558594 L 168.132812 32.078125 "/>
<path style="fill:none;stroke-width:0.425197;stroke-linecap:butt;stroke-linejoin:round;stroke:rgb(7.45098%,16.862745%,26.27451%);stroke-opacity:1;stroke-miterlimit:1;" d="M 387.324219 32.078125 L 386.558594 38.558594 L 383.820312 45.039062 L 383.34375 45.746094 L 380.167969 51.519531 L 376.863281 55.128906 L 373.746094 58 L 370.382812 60.695312 L 363.902344 63.710938 L 359.628906 64.480469 L 357.421875 65.105469 L 350.941406 65.171875 L 346.757812 64.480469 L 344.460938 64.253906 L 337.980469 63.808594 L 331.5 64.476562 L 331.480469 64.480469 L 325.019531 67.125 L 318.539062 68.898438 L 312.058594 69.503906 L 305.578125 69.949219 L 302.496094 70.960938 L 299.097656 76.066406 L 298.789062 77.441406 L 299.097656 79.039062 L 300.699219 83.921875 L 303.703125 90.402344 L 305.578125 95.355469 L 306.550781 96.882812 L 309.644531 103.363281 L 311.324219 109.84375 L 312.058594 115.535156 L 312.226562 116.324219 L 312.558594 122.804688 L 312.058594 127.476562 L 311.957031 129.285156 L 311.019531 135.765625 L 309.492188 142.246094 L 307.308594 148.726562 L 305.578125 152.644531 L 304.925781 155.207031 L 302.878906 161.683594 L 299.667969 168.164062 L 299.097656 169.066406 L 295.628906 174.644531 L 292.617188 177.980469 L 287.050781 181.125 L 286.136719 181.667969 L 279.65625 182.105469 L 277.679688 181.125 L 273.179688 179.15625 L 268.84375 174.644531 L 266.699219 171.605469 L 264.5625 168.164062 L 261.894531 161.683594 L 260.363281 155.207031 L 260.21875 154.273438 L 258.804688 148.726562 L 257.800781 142.246094 L 257.089844 135.765625 L 256.390625 129.285156 L 255.570312 122.804688 L 254.679688 116.324219 L 253.851562 109.84375 L 253.738281 108.8125 L 252.6875 103.363281 L 251.78125 96.882812 L 251.269531 90.402344 L 251.183594 83.921875 L 251.460938 77.441406 L 251.761719 70.960938 L 251.292969 64.480469 L 249.386719 58 L 247.257812 52.980469 L 245.742188 51.519531 L 240.777344 46.796875 L 234.296875 45.390625 L 233.285156 45.039062 L 227.816406 42.207031 L 224.753906 38.558594 L 223.777344 32.078125 "/>
<path style="fill:none;stroke-width:0.425197;stroke-linecap:butt;stroke-linejoin:round;stroke:rgb(9.411765%,21.176471%,31.764706%);stroke-opacity:1;stroke-miterlimit:1;" d="M 175.972656 163.875 L 174.789062 161.683594 L 172.980469 155.207031 L 172.359375 148.726562 L 172.371094 142.246094 L 172.363281 135.765625 L 171.628906 129.285156 L 170.609375 122.804688 L 171.710938 116.324219 L 175.972656 111.335938 L 177.691406 109.84375 L 182.453125 106.765625 L 188.578125 103.363281 L 188.933594 103.152344 L 189.332031 103.363281 L 194.980469 109.84375 L 195.402344 116.324219 L 194.4375 122.804688 L 194.007812 129.285156 L 195.355469 135.765625 L 195.414062 135.882812 L 197.339844 142.246094 L 198.871094 148.726562 L 199.261719 155.207031 L 198.160156 161.683594 L 195.414062 167.296875 L 194.570312 168.164062 L 188.933594 171.679688 L 182.453125 170.742188 L 179.289062 168.164062 L 175.972656 163.875 "/>
<path style="fill:none;stroke-width:0.425197;stroke-linecap:butt;stroke-linejoin:round;stroke:rgb(9.411765%,21.176471%,31.764706%);stroke-opacity:1;stroke-miterlimit:1;" d="M 182.453125 40.609375 L 181.933594 38.558594 L 182.453125 37.066406 L 188.933594 35.476562 L 190.558594 38.558594 L 189.558594 45.039062 L 188.933594 45.894531 L 186.976562 45.039062 L 182.453125 40.609375 "/>
<path style="fill:none;stroke-width:0.425197;stroke-linecap:butt;stroke-linejoin:round;stroke:rgb(9.411765%,21.176471%,31.764706%);stroke-opacity:1;stroke-miterlimit:1;" d="M 380.878906 32.078125 L 380.0625 38.558594 L 377.148438 45.039062 L 376.863281 45.445312 L 372.570312 51.519531 L 370.382812 53.605469 L 363.902344 57.5625 L 362.179688 58 L 357.421875 59.523438 L 350.941406 59.570312 L 344.460938 58.300781 L 342.65625 58 L 337.980469 57.433594 L 331.664062 58 L 331.5 58.019531 L 325.019531 60.265625 L 318.539062 61.855469 L 312.058594 62.367188 L 305.578125 62.363281 L 299.097656 63.066406 L 295.488281 64.480469 L 292.617188 67 L 289.917969 70.960938 L 289.996094 77.441406 L 291.945312 83.921875 L 292.617188 85.632812 L 294.8125 90.402344 L 297.433594 96.882812 L 299.097656 101.84375 L 299.792969 103.363281 L 302.042969 109.84375 L 303.386719 116.324219 L 303.949219 122.804688 L 303.796875 129.285156 L 303.042969 135.765625 L 301.847656 142.246094 L 300.269531 148.726562 L 299.097656 152.367188 L 298.410156 155.207031 L 296.152344 161.683594 L 292.617188 167.726562 L 292.234375 168.164062 L 286.136719 173.296875 L 279.65625 173.796875 L 273.179688 169.726562 L 271.921875 168.164062 L 268.125 161.683594 L 266.699219 157.621094 L 265.800781 155.207031 L 264.3125 148.726562 L 263.519531 142.246094 L 262.550781 129.285156 L 261.871094 122.804688 L 261.03125 116.324219 L 260.21875 109.886719 L 260.210938 109.84375 L 259.265625 103.363281 L 258.636719 96.882812 L 258.359375 90.402344 L 258.496094 83.921875 L 259.039062 77.441406 L 259.601562 70.960938 L 259.203125 64.480469 L 257.183594 58 L 254.539062 51.519531 L 253.738281 49.324219 L 251.402344 45.039062 L 249.289062 38.558594 L 248.859375 32.078125 "/>
<path style="fill:none;stroke-width:0.425197;stroke-linecap:butt;stroke-linejoin:round;stroke:rgb(11.764706%,25.490196%,38.039216%);stroke-opacity:1;stroke-miterlimit:1;" d="M 376.492188 32.078125 L 375.691406 38.558594 L 372.839844 45.039062 L 370.382812 48.074219 L 366.507812 51.519531 L 363.902344 53.378906 L 357.421875 55.535156 L 350.941406 55.574219 L 344.460938 54.304688 L 337.980469 53.105469 L 331.5 53.882812 L 325.019531 55.949219 L 318.539062 57.429688 L 312.058594 57.878906 L 305.578125 57.734375 L 299.265625 58 L 299.097656 58.011719 L 292.617188 60.617188 L 286.210938 64.480469 L 286.136719 64.589844 L 281.984375 70.960938 L 283.121094 77.441406 L 286.136719 83.761719 L 286.199219 83.921875 L 289.15625 90.402344 L 291.769531 96.882812 L 292.617188 99.28125 L 294.207031 103.363281 L 296.085938 109.84375 L 297.339844 116.324219 L 297.945312 122.804688 L 297.90625 129.285156 L 297.390625 135.765625 L 296.582031 142.246094 L 295.453125 148.726562 L 293.699219 155.207031 L 292.617188 157.75 L 290.394531 161.683594 L 286.136719 166.371094 L 279.65625 167.175781 L 273.332031 161.683594 L 273.179688 161.488281 L 270.339844 155.207031 L 268.78125 148.726562 L 268.03125 142.246094 L 267.675781 135.765625 L 267.300781 129.285156 L 266.699219 123.574219 L 266.613281 122.804688 L 265.628906 116.324219 L 264.664062 109.84375 L 263.941406 103.363281 L 263.570312 96.882812 L 263.617188 90.402344 L 264.203125 83.921875 L 265.347656 77.441406 L 266.375 70.960938 L 265.601562 64.480469 L 262.59375 58 L 260.21875 53.769531 L 259.050781 51.519531 L 255.984375 45.039062 L 254.351562 38.558594 L 254 32.078125 "/>
<path style="fill:none;stroke-width:0.425197;stroke-linecap:butt;stroke-linejoin:round;stroke:rgb(14.117647%,29.803922%,43.921569%);stroke-opacity:1;stroke-miterlimit:1;" d="M 373.5 32.078125 L 372.433594 38.558594 L 370.382812 42.457031 L 368.789062 45.039062 L 363.902344 49.554688 L 358.863281 51.519531 L 357.421875 52.070312 L 350.941406 52.121094 L 348.476562 51.519531 L 344.460938 50.585938 L 337.980469 49.210938 L 331.5 50.042969 L 327.535156 51.519531 L 325.019531 52.464844 L 318.539062 54.410156 L 312.058594 54.980469 L 305.578125 54.675781 L 299.097656 54.765625 L 292.617188 56.519531 L 289.035156 58 L 286.136719 59.800781 L 279.65625 62.964844 L 273.179688 63.222656 L 267.746094 58 L 266.699219 57.195312 L 262.78125 51.519531 L 260.21875 46.574219 L 259.425781 45.039062 L 257.21875 38.558594 L 256.722656 32.078125 "/>
<path style="fill:none;stroke-width:0.425197;stroke-linecap:butt;stroke-linejoin:round;stroke:rgb(14.117647%,29.803922%,43.921569%);stroke-opacity:1;stroke-miterlimit:1;" d="M 273.179688 149.921875 L 272.855469 148.726562 L 272.125 142.246094 L 271.960938 135.765625 L 271.804688 129.285156 L 271.230469 122.804688 L 270.257812 116.324219 L 269.246094 109.84375 L 268.554688 103.363281 L 268.433594 96.882812 L 269.203125 90.402344 L 271.5 83.921875 L 273.179688 80.957031 L 279.328125 83.921875 L 279.65625 84.035156 L 283.390625 90.402344 L 286.136719 95.125 L 286.886719 96.882812 L 289.109375 103.363281 L 290.789062 109.84375 L 291.949219 116.324219 L 292.558594 122.804688 L 292.617188 127.359375 L 292.640625 129.285156 L 292.617188 129.890625 L 292.386719 135.765625 L 291.824219 142.246094 L 290.695312 148.726562 L 288.460938 155.207031 L 286.136719 158.917969 L 279.65625 160.367188 L 275.484375 155.207031 L 273.179688 149.921875 "/>
<path style="fill:none;stroke-width:0.425197;stroke-linecap:butt;stroke-linejoin:round;stroke:rgb(16.470588%,34.509804%,50.196078%);stroke-opacity:1;stroke-miterlimit:1;" d="M 370.507812 32.078125 L 370.382812 32.726562 L 369.285156 38.558594 L 364.964844 45.039062 L 363.902344 46.019531 L 357.421875 49.054688 L 350.941406 49.109375 L 344.460938 47.304688 L 337.980469 45.570312 L 331.5 46.585938 L 325.019531 49.398438 L 318.539062 51.414062 L 317.386719 51.519531 L 312.058594 52.078125 L 305.578125 51.617188 L 299.097656 51.527344 L 292.617188 53.382812 L 286.136719 56.214844 L 279.667969 58 L 279.65625 58.003906 L 279.621094 58 L 273.179688 57.421875 L 266.699219 52.175781 L 266.246094 51.519531 L 262.171875 45.039062 L 260.21875 38.929688 L 260.082031 38.558594 L 259.449219 32.078125 "/>
<path style="fill:none;stroke-width:0.425197;stroke-linecap:butt;stroke-linejoin:round;stroke:rgb(16.470588%,34.509804%,50.196078%);stroke-opacity:1;stroke-miterlimit:1;" d="M 279.65625 150.078125 L 279.042969 148.726562 L 278.089844 142.246094 L 278.28125 135.765625 L 278.570312 129.285156 L 278.097656 122.804688 L 276.730469 116.324219 L 275.070312 109.84375 L 274.253906 103.363281 L 278.300781 96.882812 L 279.65625 96.355469 L 279.941406 96.882812 L 282.550781 103.363281 L 284.414062 109.84375 L 285.242188 116.324219 L 284.921875 122.804688 L 284.949219 129.285156 L 286.136719 133.714844 L 286.226562 135.765625 L 286.296875 142.246094 L 286.136719 143.453125 L 282.480469 148.726562 L 279.65625 150.078125 "/>
<path style="fill:none;stroke-width:0.425197;stroke-linecap:butt;stroke-linejoin:round;stroke:rgb(18.823529%,39.215686%,56.470588%);stroke-opacity:1;stroke-miterlimit:1;" d="M 367.777344 32.078125 L 366.324219 38.558594 L 363.902344 42 L 359.625 45.039062 L 357.421875 46.128906 L 350.941406 46.191406 L 347.3125 45.039062 L 344.460938 43.828125 L 337.980469 41.34375 L 331.5 42.773438 L 328.09375 45.039062 L 325.019531 46.488281 L 318.539062 48.898438 L 312.058594 49.5625 L 305.578125 49.035156 L 299.097656 48.789062 L 292.617188 50.4375 L 290.074219 51.519531 L 286.136719 53.332031 L 279.65625 55.117188 L 273.179688 53.980469 L 270.25 51.519531 L 266.699219 48.105469 L 264.714844 45.039062 L 262.203125 38.558594 L 261.632812 32.078125 "/>
<path style="fill:none;stroke-width:0.425197;stroke-linecap:butt;stroke-linejoin:round;stroke:rgb(21.176471%,43.921569%,62.745098%);stroke-opacity:1;stroke-miterlimit:1;" d="M 365.058594 32.078125 L 363.902344 36.609375 L 363.066406 38.558594 L 357.421875 42.847656 L 350.941406 42.9375 L 344.460938 39.921875 L 341.253906 38.558594 L 337.980469 34.652344 L 331.96875 38.558594 L 331.5 38.671875 L 325.019531 43.308594 L 321.878906 45.039062 L 318.539062 46.378906 L 312.058594 47.140625 L 305.578125 46.472656 L 299.097656 46.054688 L 292.617188 47.78125 L 286.136719 50.617188 L 282.253906 51.519531 L 279.65625 52.234375 L 276.636719 51.519531 L 273.179688 50.734375 L 267.320312 45.039062 L 266.699219 44.007812 L 264.285156 38.558594 L 263.605469 32.078125 "/>
<path style="fill:none;stroke-width:0.425197;stroke-linecap:butt;stroke-linejoin:round;stroke:rgb(23.529412%,49.019608%,69.411765%);stroke-opacity:1;stroke-miterlimit:1;" d="M 329.960938 32.078125 L 326.835938 38.558594 L 325.019531 39.859375 L 318.539062 43.644531 L 312.058594 44.65625 L 305.578125 43.6875 L 299.097656 42.964844 L 292.933594 45.039062 L 292.617188 45.125 L 286.136719 48.195312 L 279.65625 49.730469 L 273.179688 47.96875 L 270.164062 45.039062 L 266.699219 39.304688 L 266.367188 38.558594 L 265.578125 32.078125 "/>
<path style="fill:none;stroke-width:0.425197;stroke-linecap:butt;stroke-linejoin:round;stroke:rgb(23.529412%,49.019608%,69.411765%);stroke-opacity:1;stroke-miterlimit:1;" d="M 361.480469 32.078125 L 358.480469 38.558594 L 357.421875 39.363281 L 350.941406 39.464844 L 349.089844 38.558594 L 344.460938 32.109375 L 344.4375 32.078125 "/>
<path style="fill:none;stroke-width:0.425197;stroke-linecap:butt;stroke-linejoin:round;stroke:rgb(25.882353%,54.117647%,76.078431%);stroke-opacity:1;stroke-miterlimit:1;" d="M 325.546875 32.078125 L 325.019531 33.121094 L 321.984375 38.558594 L 318.539062 40.664062 L 312.058594 41.78125 L 305.578125 40.628906 L 299.097656 39.664062 L 292.617188 41.894531 L 287.675781 45.039062 L 286.136719 45.769531 L 279.65625 47.351562 L 273.179688 45.207031 L 273.007812 45.039062 L 268.621094 38.558594 L 267.628906 32.078125 "/>
<path style="fill:none;stroke-width:0.425197;stroke-linecap:butt;stroke-linejoin:round;stroke:rgb(28.627451%,58.823529%,82.745098%);stroke-opacity:1;stroke-miterlimit:1;" d="M 321.066406 32.078125 L 318.539062 36.335938 L 313.957031 38.558594 L 312.058594 38.90625 L 310.292969 38.558594 L 305.578125 35.980469 L 299.097656 32.566406 L 292.867188 38.558594 L 292.617188 38.644531 L 286.136719 42.953125 L 279.65625 44.960938 L 273.179688 41.886719 L 270.90625 38.558594 L 269.78125 32.078125 "/>
<path style="fill:none;stroke-width:0.425197;stroke-linecap:butt;stroke-linejoin:round;stroke:rgb(30.980392%,64.313725%,89.803922%);stroke-opacity:1;stroke-miterlimit:1;" d="M 291.304688 32.078125 L 288.257812 38.558594 L 286.136719 39.972656 L 279.65625 42.046875 L 273.214844 38.558594 L 273.179688 38.484375 L 271.933594 32.078125 "/>
<path style="fill:none;stroke-width:0.425197;stroke-linecap:butt;stroke-linejoin:round;stroke:rgb(30.980392%,64.313725%,89.803922%);stroke-opacity:1;stroke-miterlimit:1;" d="M 312.117188 32.078125 L 312.058594 32.105469 L 312.011719 32.078125 "/>
<path style="fill:none;stroke-width:0.425197;stroke-linecap:butt;stroke-linejoin:round;stroke:rgb(33.72549%,69.411765%,96.862745%);stroke-opacity:1;stroke-miterlimit:1;" d="M 286.867188 32.078125 L 286.136719 33.621094 L 281.417969 38.558594 L 279.65625 39.128906 L 278.601562 38.558594 L 275.277344 32.078125 "/>
</g>
</svg>
