<?xml version="1.0" encoding="UTF-8"?>
<svg xmlns="http://www.w3.org/2000/svg" xmlns:xlink="http://www.w3.org/1999/xlink" width="720pt" height="720pt" viewBox="0 0 720 720" version="1.1">
<defs>
<clipPath id="clip1">
  <path d="M 14.285156 0 L 720 0 L 720 706 L 14.285156 706 Z "/>
</clipPath>
</defs>
<g id="surface116">
<rect x="0" y="0" width="720" height="720" style="fill:rgb(100%,100%,100%);fill-opacity:1;stroke:none;"/>
<rect x="0" y="0" width="720" height="720" style="fill:rgb(100%,100%,100%);fill-opacity:1;stroke:none;"/>
<path style="fill:none;stroke-width:1.062992;stroke-linecap:round;stroke-linejoin:round;stroke:rgb(100%,100%,100%);stroke-opacity:1;stroke-miterlimit:10;" d="M 0 720 L 720 720 L 720 0 L 0 0 Z "/>
<g clip-path="url(#clip1)" clip-rule="nonzero">
<path style=" stroke:none;fill-rule:nonzero;fill:rgb(100%,100%,100%);fill-opacity:1;" d="M 14.285156 705.714844 L 720 705.714844 L 720 0 L 14.285156 0 Z "/>
</g>
<path style="fill:none;stroke-width:0.425197;stroke-linecap:butt;stroke-linejoin:round;stroke:rgb(7.45098%,16.862745%,26.27451%);stroke-opacity:1;stroke-miterlimit:1;" d="M 46.363281 499.113281 L 52.84375 501.292969 L 59.324219 503.238281 L 65.804688 505.007812 L 66.320312 505.144531 L 72.285156 506.824219 L 78.765625 508.570312 L 85.246094 510.269531 L 90.390625 511.625 L 91.726562 512.015625 L 98.207031 513.976562 L 104.6875 515.980469 L 111.167969 518.039062 L 111.367188 518.105469 L 117.648438 520.492188 L 124.128906 522.992188 L 128.171875 524.585938 L 130.609375 525.679688 L 137.089844 528.625 L 142.589844 531.066406 L 143.570312 531.570312 L 150.050781 534.851562 L 155.742188 537.546875 L 156.53125 537.988281 L 163.011719 541.453125 L 168.386719 544.027344 L 169.492188 544.679688 L 175.972656 548.179688 L 180.996094 550.507812 L 182.453125 551.40625 L 188.933594 554.851562 L 193.90625 556.988281 L 195.414062 557.96875 L 201.894531 561.308594 L 207.816406 563.46875 L 208.375 563.875 L 214.855469 566.925781 L 221.335938 568.304688 L 227.816406 568.367188 L 234.296875 567.34375 L 240.777344 565.367188 L 245.039062 563.46875 L 247.257812 562.910156 L 253.738281 560.683594 L 260.21875 557.835938 L 261.804688 556.988281 L 266.699219 555.042969 L 273.179688 551.894531 L 275.609375 550.507812 L 279.65625 548.53125 L 286.136719 544.761719 L 287.25 544.027344 L 292.617188 540.671875 L 296.914062 537.546875 L 299.097656 535.925781 L 304.851562 531.066406 L 305.578125 530.394531 L 311.261719 524.585938 L 312.058594 523.625 L 316.351562 518.105469 L 318.539062 514.515625 L 320.246094 511.625 L 323.109375 505.144531 L 325.007812 498.664062 L 325.019531 498.585938 L 326.183594 492.183594 L 326.621094 485.703125 L 326.429688 479.222656 L 325.679688 472.742188 L 325.019531 469.25 L 324.5 466.261719 L 323 459.78125 L 321.15625 453.300781 L 318.996094 446.820312 L 318.539062 445.578125 L 316.734375 440.34375 L 314.257812 433.863281 L 312.058594 428.644531 L 311.554688 427.382812 L 308.792969 420.902344 L 305.714844 414.421875 L 305.578125 414.148438 L 302.597656 407.941406 L 299.140625 401.460938 L 299.097656 401.382812 L 295.679688 394.980469 L 292.617188 389.613281 L 292.007812 388.5 L 288.476562 382.019531 L 286.136719 377.613281 L 285.097656 375.539062 L 282.246094 369.058594 L 279.957031 362.578125 L 279.65625 361.296875 L 278.59375 356.097656 L 278.085938 349.617188 L 278.378906 343.136719 L 279.335938 336.65625 L 279.65625 335.261719 L 280.925781 330.175781 L 282.867188 323.695312 L 284.894531 317.214844 L 286.136719 313.179688 L 286.960938 310.734375 L 289 304.253906 L 290.710938 297.773438 L 292.035156 291.292969 L 292.617188 287.125 L 292.992188 284.8125 L 293.511719 278.332031 L 293.449219 271.851562 L 292.734375 265.371094 L 292.617188 264.839844 L 291.472656 258.890625 L 289.472656 252.410156 L 286.527344 245.929688 L 286.136719 245.261719 L 282.894531 239.449219 L 279.65625 235.023438 L 278.152344 232.96875 L 273.179688 227.429688 L 272.296875 226.488281 L 266.699219 221.3125 L 265.171875 220.007812 L 260.21875 216.152344 L 256.414062 213.527344 L 253.738281 211.757812 L 247.257812 207.964844 L 245.496094 207.046875 L 240.777344 204.554688 L 234.296875 201.660156 L 231.472656 200.566406 L 227.816406 199.046875 L 221.335938 196.734375 L 214.855469 194.847656 L 211.785156 194.085938 L 208.375 193.121094 L 201.894531 191.574219 L 195.414062 190.335938 L 188.933594 189.367188 L 182.453125 188.628906 L 175.972656 188.101562 L 169.492188 187.765625 L 163.011719 187.609375 L 156.53125 187.628906 L 150.050781 187.824219 L 143.570312 188.195312 L 137.089844 188.753906 L 130.609375 189.519531 L 124.128906 190.507812 L 117.648438 191.753906 L 111.167969 193.289062 L 108.285156 194.085938 L 104.6875 194.945312 L 98.207031 196.753906 L 91.726562 198.9375 L 87.566406 200.566406 L 85.246094 201.394531 L 78.765625 203.992188 L 72.441406 207.046875 L 72.285156 207.117188 L 65.804688 210.308594 L 60.285156 213.527344 L 59.324219 214.082031 L 52.84375 218.132812 L 50.144531 220.007812 L 46.363281 222.726562 "/>
<path style="fill:none;stroke-width:0.425197;stroke-linecap:butt;stroke-linejoin:round;stroke:rgb(7.45098%,16.862745%,26.27451%);stroke-opacity:1;stroke-miterlimit:1;" d="M 190.746094 673.636719 L 188.933594 673.207031 L 182.453125 671.421875 L 175.972656 669.386719 L 169.570312 667.15625 L 169.492188 667.125 L 163.011719 664.425781 L 156.53125 661.558594 L 154.597656 660.675781 L 150.050781 658.164062 L 143.570312 654.472656 L 143.085938 654.195312 L 137.089844 649.585938 L 134.6875 647.714844 L 130.609375 642.605469 L 129.519531 641.234375 L 127.503906 634.753906 L 128.527344 628.273438 L 130.609375 624.789062 L 132.394531 621.792969 L 137.089844 617.113281 L 138.933594 615.3125 L 143.570312 611.921875 L 147.972656 608.832031 L 150.050781 607.585938 L 156.53125 603.871094 L 159.339844 602.351562 L 163.011719 600.46875 L 169.492188 597.359375 L 172.867188 595.871094 L 175.972656 594.421875 L 182.453125 591.660156 L 188.480469 589.390625 L 188.933594 589.179688 L 195.414062 586.570312 L 201.894531 584.410156 L 207.925781 582.910156 L 208.375 582.707031 L 214.855469 580.933594 L 221.335938 580.535156 L 227.816406 582.191406 L 228.914062 582.910156 L 234.296875 584.699219 L 240.777344 588.429688 L 241.941406 589.390625 L 247.257812 592.664062 L 251.160156 595.871094 L 253.738281 597.773438 L 258.722656 602.351562 L 260.21875 603.746094 L 264.835938 608.832031 L 266.699219 611.140625 L 269.675781 615.3125 L 273.179688 621.488281 L 273.335938 621.792969 L 275.769531 628.273438 L 277.046875 634.753906 L 277.089844 641.234375 L 275.785156 647.714844 L 273.179688 653.652344 L 272.917969 654.195312 L 267.96875 660.675781 L 266.699219 661.875 L 260.21875 667.042969 L 260.046875 667.15625 L 253.738281 670.515625 L 247.257812 673.152344 L 245.683594 673.636719 "/>
<path style="fill:none;stroke-width:0.425197;stroke-linecap:butt;stroke-linejoin:round;stroke:rgb(7.45098%,16.862745%,26.27451%);stroke-opacity:1;stroke-miterlimit:1;" d="M 687.921875 395.210938 L 681.441406 399.730469 L 678.613281 401.460938 L 674.960938 403.640625 L 668.480469 406.992188 L 666.402344 407.941406 L 662 409.996094 L 655.519531 412.566406 L 649.878906 414.421875 L 649.039062 414.714844 L 642.558594 416.730469 L 636.078125 418.359375 L 629.597656 419.65625 L 623.117188 420.667969 L 621.183594 420.902344 L 616.636719 421.539062 L 610.15625 422.179688 L 603.675781 422.570312 L 597.195312 422.71875 L 590.714844 422.632812 L 584.234375 422.316406 L 577.753906 421.753906 L 571.273438 420.941406 L 571.019531 420.902344 L 564.792969 420.046875 L 558.316406 418.910156 L 551.835938 417.496094 L 545.355469 415.757812 L 541.140625 414.421875 L 538.875 413.773438 L 532.394531 411.636719 L 525.914062 409.058594 L 523.429688 407.941406 L 519.433594 406.226562 L 512.953125 402.992188 L 510.238281 401.460938 L 506.472656 399.339844 L 499.992188 395.101562 L 499.816406 394.980469 L 493.511719 390.339844 L 491.253906 388.5 L 487.03125 384.695312 L 484.257812 382.019531 L 480.550781 377.871094 L 478.535156 375.539062 L 474.070312 369.203125 L 473.96875 369.058594 L 470.1875 362.578125 L 467.589844 356.425781 L 467.441406 356.097656 L 465.289062 349.617188 L 463.914062 343.136719 L 463.1875 336.65625 L 463.007812 330.175781 L 463.269531 323.695312 L 463.867188 317.214844 L 464.65625 310.734375 L 465.4375 304.253906 L 465.941406 297.773438 L 465.839844 291.292969 L 464.8125 284.8125 L 462.613281 278.332031 L 461.109375 275.519531 L 458.988281 271.851562 L 454.628906 266.082031 L 454.070312 265.371094 L 448.148438 259.007812 L 448.039062 258.890625 L 441.667969 252.726562 L 441.34375 252.410156 L 435.1875 246.601562 L 434.492188 245.929688 L 428.707031 240.277344 L 427.882812 239.449219 L 422.226562 233.453125 L 421.78125 232.96875 L 416.269531 226.488281 L 415.746094 225.800781 L 411.359375 220.007812 L 409.265625 216.753906 L 407.15625 213.527344 L 403.617188 207.046875 L 402.785156 205.21875 L 400.558594 200.566406 L 398.078125 194.085938 L 396.304688 188.144531 L 396.128906 187.605469 L 394.421875 181.125 L 393.121094 174.644531 L 392.140625 168.164062 L 391.402344 161.683594 L 390.847656 155.207031 L 390.429688 148.726562 L 390.121094 142.246094 L 389.90625 135.765625 L 389.824219 130.847656 L 389.792969 129.285156 L 389.824219 123.222656 L 389.828125 122.804688 L 390.039062 116.324219 L 390.507812 109.84375 L 391.320312 103.363281 L 392.578125 96.882812 L 394.421875 90.402344 L 396.304688 85.621094 L 396.9375 83.921875 L 400.082031 77.441406 L 402.785156 73.191406 L 404.195312 70.960938 L 409.265625 64.589844 L 409.355469 64.480469 L 415.675781 58 L 415.746094 57.9375 L 422.226562 52.449219 L 423.4375 51.519531 L 428.707031 47.773438 L 433.109375 45.039062 L 435.1875 43.789062 L 441.667969 40.285156 L 445.367188 38.558594 L 448.148438 37.234375 L 454.628906 34.5 L 461.109375 32.234375 L 461.605469 32.078125 "/>
<path style="fill:none;stroke-width:0.425197;stroke-linecap:butt;stroke-linejoin:round;stroke:rgb(7.45098%,16.862745%,26.27451%);stroke-opacity:1;stroke-miterlimit:1;" d="M 687.921875 116.3125 L 684.011719 109.84375 L 681.441406 106.078125 L 679.734375 103.363281 L 675.183594 96.882812 L 674.960938 96.589844 L 670.589844 90.402344 L 668.480469 87.703125 L 665.683594 83.921875 L 662 79.441406 L 660.417969 77.441406 L 655.519531 71.898438 L 654.699219 70.960938 L 649.039062 65.136719 L 648.390625 64.480469 L 642.558594 59.132812 L 641.261719 58 L 636.078125 53.824219 L 632.960938 51.519531 L 629.597656 49.164062 L 623.117188 45.140625 L 622.941406 45.039062 L 616.636719 41.425781 L 610.648438 38.558594 L 610.15625 38.320312 L 603.675781 35.378906 L 597.195312 32.949219 L 594.550781 32.078125 "/>
<path style="fill:none;stroke-width:0.425197;stroke-linecap:butt;stroke-linejoin:round;stroke:rgb(10.588235%,22.745098%,34.117647%);stroke-opacity:1;stroke-miterlimit:1;" d="M 46.363281 249.898438 L 49.597656 245.929688 L 52.84375 242.53125 L 55.914062 239.449219 L 59.324219 236.414062 L 63.488281 232.96875 L 65.804688 231.207031 L 72.285156 226.734375 L 72.671875 226.488281 L 78.765625 222.734375 L 83.925781 220.007812 L 85.246094 219.3125 L 91.726562 216.207031 L 98.207031 213.621094 L 98.46875 213.527344 L 104.6875 211.179688 L 111.167969 209.148438 L 117.648438 207.480469 L 119.648438 207.046875 L 124.128906 205.96875 L 130.609375 204.703125 L 137.089844 203.730469 L 143.570312 203.019531 L 150.050781 202.554688 L 156.53125 202.324219 L 163.011719 202.320312 L 169.492188 202.550781 L 175.972656 203.019531 L 182.453125 203.742188 L 188.933594 204.746094 L 195.414062 206.066406 L 199.3125 207.046875 L 201.894531 207.644531 L 208.375 209.441406 L 214.855469 211.667969 L 219.394531 213.527344 L 221.335938 214.308594 L 227.816406 217.300781 L 232.742188 220.007812 L 234.296875 220.898438 L 240.777344 225.082031 L 242.722656 226.488281 L 247.257812 230.121094 L 250.476562 232.96875 L 253.738281 236.347656 L 256.554688 239.449219 L 260.21875 244.484375 L 261.246094 245.929688 L 264.859375 252.410156 L 266.699219 257.121094 L 267.417969 258.890625 L 269.179688 265.371094 L 270.097656 271.851562 L 270.285156 278.332031 L 269.820312 284.8125 L 268.753906 291.292969 L 267.121094 297.773438 L 266.699219 299.101562 L 265.160156 304.253906 L 262.828125 310.734375 L 260.21875 317.046875 L 260.148438 317.214844 L 257.523438 323.695312 L 254.816406 330.175781 L 253.738281 332.988281 L 252.355469 336.65625 L 250.296875 343.136719 L 248.769531 349.617188 L 247.992188 356.097656 L 248.125 362.578125 L 249.21875 369.058594 L 251.214844 375.539062 L 253.738281 381.550781 L 253.945312 382.019531 L 257.289062 388.5 L 260.21875 393.800781 L 260.882812 394.980469 L 264.589844 401.460938 L 266.699219 405.269531 L 268.191406 407.941406 L 271.613281 414.421875 L 273.179688 417.617188 L 274.804688 420.902344 L 277.757812 427.382812 L 279.65625 431.960938 L 280.464844 433.863281 L 282.960938 440.34375 L 285.1875 446.820312 L 286.136719 449.980469 L 287.167969 453.300781 L 288.839844 459.78125 L 290.105469 466.261719 L 290.882812 472.742188 L 291.050781 479.222656 L 290.46875 485.703125 L 288.945312 492.183594 L 286.265625 498.664062 L 286.136719 498.882812 L 282.0625 505.144531 L 279.65625 507.867188 L 275.816406 511.625 L 273.179688 513.71875 L 266.699219 517.953125 L 266.414062 518.105469 L 260.21875 521.066406 L 253.738281 523.410156 L 249.285156 524.585938 L 247.257812 525.105469 L 240.777344 526.246094 L 234.296875 526.875 L 227.816406 527.039062 L 221.335938 526.765625 L 214.855469 526.082031 L 208.375 525.003906 L 206.511719 524.585938 L 201.894531 523.613281 L 195.414062 521.921875 L 188.933594 519.917969 L 183.820312 518.105469 L 182.453125 517.640625 L 175.972656 515.234375 L 169.492188 512.625 L 167.144531 511.625 L 163.011719 509.9375 L 156.53125 507.203125 L 151.75 505.144531 L 150.050781 504.4375 L 143.570312 501.765625 L 137.089844 499.117188 L 135.949219 498.664062 L 130.609375 496.609375 L 124.128906 494.199219 L 118.519531 492.183594 L 117.648438 491.875 L 111.167969 489.6875 L 104.6875 487.5625 L 98.914062 485.703125 L 98.207031 485.472656 L 91.726562 483.40625 L 85.246094 481.296875 L 79.132812 479.222656 L 78.765625 479.09375 L 72.285156 476.691406 L 65.804688 474.0625 L 62.824219 472.742188 L 59.324219 471.03125 L 52.84375 467.496094 L 50.804688 466.261719 L 46.363281 463.132812 "/>
<path style="fill:none;stroke-width:0.425197;stroke-linecap:butt;stroke-linejoin:round;stroke:rgb(10.588235%,22.745098%,34.117647%);stroke-opacity:1;stroke-miterlimit:1;" d="M 687.921875 359.640625 L 686.25 362.578125 L 681.496094 369.058594 L 681.441406 369.121094 L 675.546875 375.539062 L 674.960938 376.082031 L 668.480469 381.636719 L 667.988281 382.019531 L 662 386.214844 L 658.230469 388.5 L 655.519531 390.042969 L 649.039062 393.257812 L 644.90625 394.980469 L 642.558594 395.949219 L 636.078125 398.242188 L 629.597656 400.082031 L 623.433594 401.460938 L 623.117188 401.535156 L 616.636719 402.761719 L 610.15625 403.644531 L 603.675781 404.214844 L 597.195312 404.496094 L 590.714844 404.488281 L 584.234375 404.207031 L 577.753906 403.636719 L 571.273438 402.769531 L 564.792969 401.582031 L 564.261719 401.460938 L 558.316406 400.195312 L 551.835938 398.472656 L 545.355469 396.347656 L 541.828125 394.980469 L 538.875 393.847656 L 532.394531 390.957031 L 527.726562 388.5 L 525.914062 387.503906 L 519.433594 383.472656 L 517.347656 382.019531 L 512.953125 378.628906 L 509.347656 375.539062 L 506.472656 372.664062 L 503.109375 369.058594 L 499.992188 364.917969 L 498.289062 362.578125 L 494.664062 356.097656 L 493.511719 353.207031 L 492.050781 349.617188 L 490.339844 343.136719 L 489.46875 336.65625 L 489.320312 330.175781 L 489.785156 323.695312 L 490.761719 317.214844 L 492.113281 310.734375 L 493.511719 304.785156 L 493.632812 304.253906 L 494.976562 297.773438 L 495.921875 291.292969 L 496.089844 284.8125 L 495.089844 278.332031 L 493.511719 274.144531 L 492.585938 271.851562 L 488.40625 265.371094 L 487.03125 263.800781 L 482.652344 258.890625 L 480.550781 256.945312 L 475.707031 252.410156 L 474.070312 251.046875 L 468.132812 245.929688 L 467.589844 245.488281 L 461.109375 240.011719 L 460.46875 239.449219 L 454.628906 234.324219 L 453.15625 232.96875 L 448.148438 228.15625 L 446.492188 226.488281 L 441.667969 221.222656 L 440.59375 220.007812 L 435.484375 213.527344 L 435.1875 213.097656 L 431.054688 207.046875 L 428.707031 202.878906 L 427.394531 200.566406 L 424.332031 194.085938 L 422.226562 188.421875 L 421.910156 187.605469 L 419.875 181.125 L 418.324219 174.644531 L 417.15625 168.164062 L 416.289062 161.683594 L 415.746094 156.132812 L 415.648438 155.207031 L 415.144531 148.726562 L 414.804688 142.246094 L 414.613281 135.765625 L 414.589844 129.285156 L 414.765625 122.804688 L 415.21875 116.324219 L 415.746094 112.082031 L 416.003906 109.84375 L 417.175781 103.363281 L 418.917969 96.882812 L 421.40625 90.402344 L 422.226562 88.765625 L 424.640625 83.921875 L 428.707031 77.800781 L 428.953125 77.441406 L 434.40625 70.960938 L 435.1875 70.1875 L 441.410156 64.480469 L 441.667969 64.273438 L 448.148438 59.457031 L 450.371094 58 L 454.628906 55.414062 L 461.109375 52.035156 L 462.21875 51.519531 L 467.589844 49.078125 L 474.070312 46.601562 L 478.964844 45.039062 L 480.550781 44.515625 L 487.03125 42.664062 L 493.511719 41.167969 L 499.992188 39.984375 L 506.472656 39.078125 L 511.625 38.558594 L 512.953125 38.40625 L 519.433594 37.929688 L 525.914062 37.710938 L 532.394531 37.746094 L 538.875 38.039062 L 544.878906 38.558594 L 545.355469 38.59375 L 551.835938 39.324219 L 558.316406 40.320312 L 564.792969 41.613281 L 571.273438 43.242188 L 577.097656 45.039062 L 577.753906 45.234375 L 584.234375 47.4375 L 590.714844 50.109375 L 593.6875 51.519531 L 597.195312 53.203125 L 603.675781 56.800781 L 605.617188 58 L 610.15625 60.972656 L 614.921875 64.480469 L 616.636719 65.867188 L 622.46875 70.960938 L 623.117188 71.601562 L 628.789062 77.441406 L 629.597656 78.402344 L 634.203125 83.921875 L 636.078125 86.554688 L 638.875 90.402344 L 642.558594 96.359375 L 642.898438 96.882812 L 646.585938 103.363281 L 649.039062 108.4375 L 649.773438 109.84375 L 652.730469 116.324219 L 655.253906 122.804688 L 655.519531 123.589844 L 657.652344 129.285156 L 659.75 135.765625 L 661.601562 142.246094 L 662 143.78125 L 663.429688 148.726562 L 665.210938 155.207031 L 667.011719 161.683594 L 668.480469 166.6875 L 668.960938 168.164062 L 671.25 174.644531 L 673.757812 181.125 L 674.960938 184 L 676.601562 187.605469 L 679.671875 194.085938 L 681.441406 197.828125 L 682.824219 200.566406 L 685.894531 207.046875 L 687.921875 211.925781 "/>
<path style="fill:none;stroke-width:0.425197;stroke-linecap:butt;stroke-linejoin:round;stroke:rgb(13.333333%,28.627451%,42.352941%);stroke-opacity:1;stroke-miterlimit:1;" d="M 46.363281 286.773438 L 46.679688 284.8125 L 48.308594 278.332031 L 50.644531 271.851562 L 52.84375 267.300781 L 53.753906 265.371094 L 57.652344 258.890625 L 59.324219 256.640625 L 62.519531 252.410156 L 65.804688 248.796875 L 68.53125 245.929688 L 72.285156 242.515625 L 75.929688 239.449219 L 78.765625 237.296875 L 85.140625 232.96875 L 85.246094 232.902344 L 91.726562 229.078125 L 96.886719 226.488281 L 98.207031 225.839844 L 104.6875 222.988281 L 111.167969 220.621094 L 113.125 220.007812 L 117.648438 218.539062 L 124.128906 216.796875 L 130.609375 215.414062 L 137.089844 214.351562 L 143.570312 213.578125 L 144.1875 213.527344 L 150.050781 213.015625 L 156.53125 212.746094 L 163.011719 212.769531 L 169.492188 213.089844 L 174.082031 213.527344 L 175.972656 213.691406 L 182.453125 214.542969 L 188.933594 215.710938 L 195.414062 217.246094 L 201.894531 219.191406 L 204.175781 220.007812 L 208.375 221.503906 L 214.855469 224.285156 L 219.167969 226.488281 L 221.335938 227.660156 L 227.816406 231.710938 L 229.597656 232.96875 L 234.296875 236.726562 L 237.351562 239.449219 L 240.777344 243.132812 L 243.203125 245.929688 L 247.257812 251.984375 L 247.535156 252.410156 L 250.722656 258.890625 L 252.777344 265.371094 L 253.738281 270.96875 L 253.894531 271.851562 L 254.21875 278.332031 L 253.753906 284.8125 L 253.738281 284.914062 L 252.667969 291.292969 L 250.96875 297.773438 L 248.6875 304.253906 L 247.257812 307.648438 L 245.984375 310.734375 L 242.957031 317.214844 L 240.777344 321.519531 L 239.671875 323.695312 L 236.328125 330.175781 L 234.296875 334.199219 L 233.027344 336.65625 L 229.992188 343.136719 L 227.816406 348.519531 L 227.355469 349.617188 L 225.390625 356.097656 L 224.214844 362.578125 L 223.992188 369.058594 L 224.796875 375.539062 L 226.597656 382.019531 L 227.816406 385.03125 L 229.261719 388.5 L 232.535156 394.980469 L 234.296875 398.140625 L 236.148438 401.460938 L 239.839844 407.941406 L 240.777344 409.625 L 243.402344 414.421875 L 246.738281 420.902344 L 247.257812 422.007812 L 249.746094 427.382812 L 252.4375 433.863281 L 253.738281 437.425781 L 254.792969 440.34375 L 256.765625 446.820312 L 258.355469 453.300781 L 259.480469 459.78125 L 260 466.261719 L 259.710938 472.742188 L 258.3125 479.222656 L 255.394531 485.703125 L 253.738281 488.007812 L 249.933594 492.183594 L 247.257812 494.265625 L 240.777344 497.933594 L 238.859375 498.664062 L 234.296875 500.082031 L 227.816406 501.25 L 221.335938 501.6875 L 214.855469 501.503906 L 208.375 500.796875 L 201.894531 499.636719 L 197.832031 498.664062 L 195.414062 498.070312 L 188.933594 496.148438 L 182.453125 493.980469 L 177.554688 492.183594 L 175.972656 491.59375 L 169.492188 489.015625 L 163.011719 486.367188 L 161.429688 485.703125 L 156.53125 483.609375 L 150.050781 480.847656 L 146.199219 479.222656 L 143.570312 478.074219 L 137.089844 475.300781 L 130.960938 472.742188 L 130.609375 472.585938 L 124.128906 469.796875 L 117.648438 467.070312 L 115.695312 466.261719 L 111.167969 464.21875 L 104.6875 461.292969 L 101.375 459.78125 L 98.207031 458.140625 L 91.726562 454.671875 L 89.292969 453.300781 L 85.246094 450.601562 L 80.003906 446.820312 L 78.765625 445.714844 L 73.269531 440.34375 L 72.285156 439.085938 L 68.558594 433.863281 L 65.804688 428.433594 L 65.316406 427.382812 L 63.203125 420.902344 L 61.828125 414.421875 L 60.929688 407.941406 L 60.292969 401.460938 L 59.738281 394.980469 L 59.324219 390.554688 L 59.144531 388.5 L 58.421875 382.019531 L 57.523438 375.539062 L 56.441406 369.058594 L 55.195312 362.578125 L 53.824219 356.097656 L 52.84375 351.773438 L 52.371094 349.617188 L 50.867188 343.136719 L 49.414062 336.65625 L 48.070312 330.175781 L 46.90625 323.695312 L 46.363281 319.980469 "/>
<path style="fill:none;stroke-width:0.425197;stroke-linecap:butt;stroke-linejoin:round;stroke:rgb(13.333333%,28.627451%,42.352941%);stroke-opacity:1;stroke-miterlimit:1;" d="M 435.1875 170.148438 L 434.757812 168.164062 L 433.695312 161.683594 L 432.929688 155.207031 L 432.394531 148.726562 L 432.054688 142.246094 L 431.894531 135.765625 L 431.933594 129.285156 L 432.214844 122.804688 L 432.820312 116.324219 L 433.851562 109.84375 L 435.1875 104.382812 L 435.429688 103.363281 L 437.617188 96.882812 L 440.707031 90.402344 L 441.667969 88.847656 L 444.8125 83.921875 L 448.148438 79.859375 L 450.269531 77.441406 L 454.628906 73.351562 L 457.457031 70.960938 L 461.109375 68.28125 L 467.078125 64.480469 L 467.589844 64.183594 L 474.070312 60.808594 L 480.550781 58.042969 L 480.664062 58 L 487.03125 55.695312 L 493.511719 53.804688 L 499.992188 52.308594 L 504.425781 51.519531 L 506.472656 51.140625 L 512.953125 50.253906 L 519.433594 49.6875 L 525.914062 49.429688 L 532.394531 49.472656 L 538.875 49.8125 L 545.355469 50.46875 L 551.835938 51.457031 L 552.136719 51.519531 L 558.316406 52.710938 L 564.792969 54.332031 L 571.273438 56.367188 L 575.574219 58 L 577.753906 58.84375 L 584.234375 61.777344 L 589.261719 64.480469 L 590.714844 65.316406 L 597.195312 69.523438 L 599.179688 70.960938 L 603.675781 74.609375 L 606.871094 77.441406 L 610.15625 80.808594 L 613.042969 83.921875 L 616.636719 88.519531 L 618.082031 90.402344 L 622.25 96.882812 L 623.117188 98.507812 L 625.78125 103.363281 L 628.6875 109.84375 L 629.597656 112.308594 L 631.183594 116.324219 L 633.292969 122.804688 L 635.042969 129.285156 L 636.078125 133.863281 L 636.550781 135.765625 L 637.921875 142.246094 L 639.148438 148.726562 L 640.296875 155.207031 L 641.445312 161.683594 L 642.558594 167.65625 L 642.664062 168.164062 L 644.097656 174.644531 L 645.671875 181.125 L 647.394531 187.605469 L 649.039062 193.429688 L 649.246094 194.085938 L 651.265625 200.566406 L 653.226562 207.046875 L 655.007812 213.527344 L 655.519531 215.792969 L 656.542969 220.007812 L 657.679688 226.488281 L 658.355469 232.96875 L 658.613281 239.449219 L 658.589844 245.929688 L 658.496094 252.410156 L 658.589844 258.890625 L 659.09375 265.371094 L 660.148438 271.851562 L 661.765625 278.332031 L 662 279.035156 L 663.839844 284.8125 L 666.171875 291.292969 L 668.480469 297.578125 L 668.550781 297.773438 L 670.816406 304.253906 L 672.75 310.734375 L 674.21875 317.214844 L 674.960938 322.535156 L 675.125 323.695312 L 675.390625 330.175781 L 674.960938 335.777344 L 674.898438 336.65625 L 673.609375 343.136719 L 671.378906 349.617188 L 668.480469 355.28125 L 668.054688 356.097656 L 663.503906 362.578125 L 662 364.261719 L 657.363281 369.058594 L 655.519531 370.640625 L 649.089844 375.539062 L 649.039062 375.570312 L 642.558594 379.453125 L 637.375 382.019531 L 636.078125 382.617188 L 629.597656 385.164062 L 623.117188 387.183594 L 617.660156 388.5 L 616.636719 388.746094 L 610.15625 389.925781 L 603.675781 390.714844 L 597.195312 391.132812 L 590.714844 391.199219 L 584.234375 390.917969 L 577.753906 390.285156 L 571.273438 389.285156 L 567.5625 388.5 L 564.792969 387.921875 L 558.316406 386.183594 L 551.835938 383.984375 L 547.082031 382.019531 L 545.355469 381.265625 L 538.875 377.957031 L 534.847656 375.539062 L 532.394531 373.882812 L 526.175781 369.058594 L 525.914062 368.816406 L 519.8125 362.578125 L 519.433594 362.078125 L 515.152344 356.097656 L 512.953125 351.753906 L 511.894531 349.617188 L 509.804688 343.136719 L 508.761719 336.65625 L 508.628906 330.175781 L 509.292969 323.695312 L 510.644531 317.214844 L 512.539062 310.734375 L 512.953125 309.492188 L 514.738281 304.253906 L 517.023438 297.773438 L 519.054688 291.292969 L 519.433594 289.394531 L 520.398438 284.8125 L 520.585938 278.332031 L 519.433594 273.105469 L 519.144531 271.851562 L 515.753906 265.371094 L 512.953125 262.023438 L 510.308594 258.890625 L 506.472656 255.46875 L 503.085938 252.410156 L 499.992188 250.074219 L 494.695312 245.929688 L 493.511719 245.101562 L 487.03125 240.335938 L 485.878906 239.449219 L 480.550781 235.527344 L 477.296875 232.96875 L 474.070312 230.433594 L 469.382812 226.488281 L 467.589844 224.914062 L 462.351562 220.007812 L 461.109375 218.746094 L 456.246094 213.527344 L 454.628906 211.570312 L 451.042969 207.046875 L 448.148438 202.75 L 446.710938 200.566406 L 443.132812 194.085938 L 441.667969 190.8125 L 440.226562 187.605469 L 437.902344 181.125 L 436.125 174.644531 L 435.1875 170.148438 "/>
<path style="fill:none;stroke-width:0.425197;stroke-linecap:butt;stroke-linejoin:round;stroke:rgb(16.862745%,35.294118%,50.980392%);stroke-opacity:1;stroke-miterlimit:1;" d="M 59.324219 305.300781 L 59.210938 304.253906 L 59.011719 297.773438 L 59.324219 292.523438 L 59.394531 291.292969 L 60.367188 284.8125 L 62.035156 278.332031 L 64.511719 271.851562 L 65.804688 269.335938 L 67.832031 265.371094 L 72.183594 258.890625 L 72.285156 258.769531 L 77.664062 252.410156 L 78.765625 251.324219 L 84.621094 245.929688 L 85.246094 245.425781 L 91.726562 240.621094 L 93.492188 239.449219 L 98.207031 236.585938 L 104.6875 233.210938 L 105.207031 232.96875 L 111.167969 230.324219 L 117.648438 227.941406 L 122.429688 226.488281 L 124.128906 225.96875 L 130.609375 224.332031 L 137.089844 223.074219 L 143.570312 222.167969 L 150.050781 221.589844 L 156.53125 221.328125 L 163.011719 221.378906 L 169.492188 221.75 L 175.972656 222.457031 L 182.453125 223.527344 L 188.933594 224.992188 L 194.066406 226.488281 L 195.414062 226.886719 L 201.894531 229.21875 L 208.375 232.136719 L 209.972656 232.96875 L 214.855469 235.757812 L 220.296875 239.449219 L 221.335938 240.269531 L 227.65625 245.929688 L 227.816406 246.109375 L 233.003906 252.410156 L 234.296875 254.554688 L 236.804688 258.890625 L 239.304688 265.371094 L 240.691406 271.851562 L 240.777344 273.109375 L 241.144531 278.332031 L 240.777344 283.914062 L 240.71875 284.8125 L 239.550781 291.292969 L 237.675781 297.773438 L 235.128906 304.253906 L 234.296875 306.03125 L 232.082031 310.734375 L 228.546875 317.214844 L 227.816406 318.472656 L 224.691406 323.695312 L 221.335938 329.019531 L 220.570312 330.175781 L 216.371094 336.65625 L 214.855469 339.128906 L 212.21875 343.136719 L 208.375 349.511719 L 208.304688 349.617188 L 204.796875 356.097656 L 201.933594 362.578125 L 201.894531 362.722656 L 199.832031 369.058594 L 198.726562 375.539062 L 198.722656 382.019531 L 199.855469 388.5 L 201.894531 394.46875 L 202.070312 394.980469 L 204.941406 401.460938 L 208.375 407.859375 L 208.417969 407.941406 L 211.816406 414.421875 L 214.855469 420.257812 L 215.171875 420.902344 L 217.957031 427.382812 L 220.308594 433.863281 L 221.335938 437.828125 L 221.949219 440.34375 L 222.6875 446.820312 L 222.335938 453.300781 L 221.335938 456.820312 L 220.121094 459.78125 L 214.855469 465.53125 L 213.597656 466.261719 L 208.375 468.203125 L 201.894531 469.027344 L 195.414062 468.75 L 188.933594 467.730469 L 182.773438 466.261719 L 182.453125 466.179688 L 175.972656 463.992188 L 169.492188 461.566406 L 165.09375 459.78125 L 163.011719 458.855469 L 156.53125 455.777344 L 151.417969 453.300781 L 150.050781 452.5625 L 143.570312 448.933594 L 139.835938 446.820312 L 137.089844 445.042969 L 130.609375 440.792969 L 129.9375 440.34375 L 124.128906 435.789062 L 121.742188 433.863281 L 117.648438 429.976562 L 115.050781 427.382812 L 111.167969 422.84375 L 109.621094 420.902344 L 105.128906 414.421875 L 104.6875 413.734375 L 101.335938 407.941406 L 98.207031 402.265625 L 97.8125 401.460938 L 94.539062 394.980469 L 91.726562 389.609375 L 91.21875 388.5 L 87.972656 382.019531 L 85.246094 376.835938 L 84.648438 375.539062 L 81.40625 369.058594 L 78.765625 363.878906 L 78.175781 362.578125 L 75.089844 356.097656 L 72.285156 349.996094 L 72.128906 349.617188 L 69.363281 343.136719 L 66.835938 336.65625 L 65.804688 333.777344 L 64.574219 330.175781 L 62.625 323.695312 L 61.054688 317.214844 L 59.90625 310.734375 L 59.324219 305.300781 "/>
<path style="fill:none;stroke-width:0.425197;stroke-linecap:butt;stroke-linejoin:round;stroke:rgb(16.862745%,35.294118%,50.980392%);stroke-opacity:1;stroke-miterlimit:1;" d="M 448.148438 160.457031 L 447.4375 155.207031 L 446.835938 148.726562 L 446.464844 142.246094 L 446.3125 135.765625 L 446.40625 129.285156 L 446.796875 122.804688 L 447.582031 116.324219 L 448.148438 113.457031 L 448.855469 109.84375 L 450.765625 103.363281 L 453.535156 96.882812 L 454.628906 94.96875 L 457.363281 90.402344 L 461.109375 85.660156 L 462.601562 83.921875 L 467.589844 79.234375 L 469.742188 77.441406 L 474.070312 74.378906 L 479.746094 70.960938 L 480.550781 70.527344 L 487.03125 67.492188 L 493.511719 65.046875 L 495.351562 64.480469 L 499.992188 63.113281 L 506.472656 61.632812 L 512.953125 60.570312 L 519.433594 59.890625 L 525.914062 59.574219 L 532.394531 59.621094 L 538.875 60.023438 L 545.355469 60.796875 L 551.835938 61.964844 L 558.316406 63.558594 L 561.273438 64.480469 L 564.792969 65.617188 L 571.273438 68.1875 L 576.996094 70.960938 L 577.753906 71.363281 L 584.234375 75.300781 L 587.296875 77.441406 L 590.714844 80.179688 L 594.921875 83.921875 L 597.195312 86.324219 L 600.808594 90.402344 L 603.675781 94.363281 L 605.445312 96.882812 L 609.125 103.363281 L 610.15625 105.640625 L 612.085938 109.84375 L 614.441406 116.324219 L 616.285156 122.804688 L 616.636719 124.367188 L 617.804688 129.285156 L 619.03125 135.765625 L 620.03125 142.246094 L 620.878906 148.726562 L 621.644531 155.207031 L 622.378906 161.683594 L 623.117188 168.125 L 623.125 168.164062 L 623.945312 174.644531 L 624.8125 181.125 L 626.59375 194.085938 L 627.417969 200.566406 L 628.105469 207.046875 L 628.566406 213.527344 L 628.699219 220.007812 L 628.4375 226.488281 L 627.757812 232.96875 L 626.75 239.449219 L 625.644531 245.929688 L 624.828125 252.410156 L 624.785156 258.890625 L 625.960938 265.371094 L 628.578125 271.851562 L 629.597656 273.480469 L 632.253906 278.332031 L 636.078125 283.890625 L 636.636719 284.8125 L 641.089844 291.292969 L 642.558594 293.359375 L 645.34375 297.773438 L 649.039062 304.054688 L 649.144531 304.253906 L 652.277344 310.734375 L 654.675781 317.214844 L 655.519531 320.644531 L 656.238281 323.695312 L 656.890625 330.175781 L 656.542969 336.65625 L 655.519531 341.25 L 655.09375 343.136719 L 652.386719 349.617188 L 649.039062 354.855469 L 648.183594 356.097656 L 642.558594 362.074219 L 642.027344 362.578125 L 636.078125 367.050781 L 632.90625 369.058594 L 629.597656 370.847656 L 623.117188 373.726562 L 617.898438 375.539062 L 616.636719 375.9375 L 610.15625 377.519531 L 603.675781 378.589844 L 597.195312 379.191406 L 590.714844 379.339844 L 584.234375 379.046875 L 577.753906 378.308594 L 571.273438 377.105469 L 565.289062 375.539062 L 564.792969 375.398438 L 558.316406 373.074219 L 551.835938 370.121094 L 549.878906 369.058594 L 545.355469 366.207031 L 540.484375 362.578125 L 538.875 361.078125 L 534.144531 356.097656 L 532.394531 353.5625 L 529.878906 349.617188 L 527.234375 343.136719 L 525.929688 336.65625 L 525.914062 335.683594 L 525.808594 330.175781 L 525.914062 329.433594 L 526.730469 323.695312 L 528.574219 317.214844 L 531.191406 310.734375 L 532.394531 308.214844 L 534.445312 304.253906 L 538.050781 297.773438 L 538.875 296.191406 L 541.757812 291.292969 L 544.964844 284.8125 L 545.355469 283.519531 L 547.210938 278.332031 L 547.574219 271.851562 L 545.355469 265.722656 L 545.230469 265.371094 L 539.988281 258.890625 L 538.875 258.03125 L 532.394531 252.835938 L 531.878906 252.410156 L 525.914062 248.59375 L 521.921875 245.929688 L 519.433594 244.527344 L 512.953125 240.632812 L 511.101562 239.449219 L 506.472656 236.746094 L 500.484375 232.96875 L 499.992188 232.671875 L 493.511719 228.4375 L 490.765625 226.488281 L 487.03125 223.808594 L 482.175781 220.007812 L 480.550781 218.667969 L 474.808594 213.527344 L 474.070312 212.804688 L 468.609375 207.046875 L 467.589844 205.824219 L 463.457031 200.566406 L 461.109375 197.019531 L 459.242188 194.085938 L 455.859375 187.605469 L 454.628906 184.671875 L 453.164062 181.125 L 451.066406 174.644531 L 449.480469 168.164062 L 448.308594 161.683594 L 448.148438 160.457031 "/>
<path style="fill:none;stroke-width:0.425197;stroke-linecap:butt;stroke-linejoin:round;stroke:rgb(20%,41.568627%,59.607843%);stroke-opacity:1;stroke-miterlimit:1;" d="M 72.285156 306.410156 L 71.910156 304.253906 L 71.394531 297.773438 L 71.566406 291.292969 L 72.285156 286.25 L 72.484375 284.8125 L 74.179688 278.332031 L 76.792969 271.851562 L 78.765625 268.3125 L 80.4375 265.371094 L 85.246094 258.941406 L 85.289062 258.890625 L 91.609375 252.410156 L 91.726562 252.3125 L 98.207031 247.148438 L 99.929688 245.929688 L 104.6875 242.941406 L 111.167969 239.472656 L 111.21875 239.449219 L 117.648438 236.636719 L 124.128906 234.328125 L 128.855469 232.96875 L 130.609375 232.476562 L 137.089844 231.035156 L 143.570312 230 L 150.050781 229.351562 L 156.53125 229.078125 L 163.011719 229.171875 L 169.492188 229.648438 L 175.972656 230.523438 L 182.453125 231.832031 L 186.640625 232.96875 L 188.933594 233.621094 L 195.414062 235.949219 L 201.894531 238.910156 L 202.902344 239.449219 L 208.375 242.773438 L 212.734375 245.929688 L 214.855469 247.800781 L 219.464844 252.410156 L 221.335938 254.898438 L 224.109375 258.890625 L 227.144531 265.371094 L 227.816406 267.832031 L 228.890625 271.851562 L 229.511719 278.332031 L 229.132812 284.8125 L 227.84375 291.292969 L 227.816406 291.382812 L 225.78125 297.773438 L 222.957031 304.253906 L 221.335938 307.3125 L 219.460938 310.734375 L 215.367188 317.214844 L 214.855469 317.976562 L 210.75 323.695312 L 208.375 326.863281 L 205.679688 330.175781 L 201.894531 334.828125 L 200.246094 336.65625 L 195.414062 342.242188 L 194.53125 343.136719 L 188.933594 349.3125 L 188.609375 349.617188 L 182.503906 356.097656 L 182.453125 356.160156 L 176.152344 362.578125 L 175.972656 362.796875 L 169.492188 368.949219 L 169.335938 369.058594 L 163.011719 374.40625 L 160.921875 375.539062 L 156.53125 378.453125 L 150.050781 380.648438 L 143.570312 381.253906 L 137.089844 380.613281 L 130.609375 378.878906 L 124.128906 376.042969 L 123.308594 375.539062 L 117.648438 372.589844 L 112.671875 369.058594 L 111.167969 368.105469 L 104.6875 362.746094 L 104.523438 362.578125 L 98.207031 356.414062 L 97.941406 356.097656 L 92.386719 349.617188 L 91.726562 348.832031 L 87.636719 343.136719 L 85.246094 339.5625 L 83.53125 336.65625 L 80.046875 330.175781 L 78.765625 327.457031 L 77.136719 323.695312 L 74.800781 317.214844 L 73.054688 310.734375 L 72.285156 306.410156 "/>
<path style="fill:none;stroke-width:0.425197;stroke-linecap:butt;stroke-linejoin:round;stroke:rgb(20%,41.568627%,59.607843%);stroke-opacity:1;stroke-miterlimit:1;" d="M 461.109375 157.71875 L 460.722656 155.207031 L 460.042969 148.726562 L 459.632812 142.246094 L 459.488281 135.765625 L 459.632812 129.285156 L 460.140625 122.804688 L 461.109375 116.382812 L 461.117188 116.324219 L 462.710938 109.84375 L 465.117188 103.363281 L 467.589844 98.671875 L 468.597656 96.882812 L 473.523438 90.402344 L 474.070312 89.835938 L 480.523438 83.921875 L 480.550781 83.898438 L 487.03125 79.613281 L 491.039062 77.441406 L 493.511719 76.265625 L 499.992188 73.746094 L 506.472656 71.820312 L 510.460938 70.960938 L 512.953125 70.453125 L 519.433594 69.597656 L 525.914062 69.195312 L 532.394531 69.242188 L 538.875 69.734375 L 545.355469 70.691406 L 546.589844 70.960938 L 551.835938 72.167969 L 558.316406 74.191406 L 564.792969 76.808594 L 566.101562 77.441406 L 571.273438 80.257812 L 576.878906 83.921875 L 577.753906 84.59375 L 584.234375 90.269531 L 584.371094 90.402344 L 589.890625 96.882812 L 590.714844 98.109375 L 594.070312 103.363281 L 597.195312 109.730469 L 597.25 109.84375 L 599.675781 116.324219 L 601.496094 122.804688 L 602.855469 129.285156 L 603.675781 134.558594 L 603.871094 135.765625 L 604.652344 142.246094 L 605.257812 148.726562 L 605.75 155.207031 L 606.167969 161.683594 L 606.527344 168.164062 L 606.832031 174.644531 L 607.0625 181.125 L 607.167969 187.605469 L 607.082031 194.085938 L 606.707031 200.566406 L 605.914062 207.046875 L 604.542969 213.527344 L 603.675781 216.316406 L 602.339844 220.007812 L 599 226.488281 L 597.195312 229.203125 L 593.898438 232.96875 L 590.714844 236.027344 L 585.222656 239.449219 L 584.234375 240.03125 L 577.753906 242.296875 L 571.273438 243.105469 L 564.792969 242.910156 L 558.316406 241.984375 L 551.835938 240.511719 L 548.351562 239.449219 L 545.355469 238.683594 L 538.875 236.609375 L 532.394531 234.210938 L 529.492188 232.96875 L 525.914062 231.570312 L 519.433594 228.675781 L 515.074219 226.488281 L 512.953125 225.453125 L 506.472656 221.898438 L 503.390625 220.007812 L 499.992188 217.878906 L 493.792969 213.527344 L 493.511719 213.316406 L 487.03125 207.960938 L 486.027344 207.046875 L 480.550781 201.492188 L 479.710938 200.566406 L 474.632812 194.085938 L 474.070312 193.226562 L 470.597656 187.605469 L 467.589844 181.5 L 467.410156 181.125 L 464.960938 174.644531 L 463.101562 168.164062 L 461.71875 161.683594 L 461.109375 157.71875 "/>
<path style="fill:none;stroke-width:0.425197;stroke-linecap:butt;stroke-linejoin:round;stroke:rgb(20%,41.568627%,59.607843%);stroke-opacity:1;stroke-miterlimit:1;" d="M 545.355469 343.40625 L 545.210938 343.136719 L 543.496094 336.65625 L 543.378906 330.175781 L 544.695312 323.695312 L 545.355469 322.015625 L 547.457031 317.214844 L 551.476562 310.734375 L 551.835938 310.246094 L 557.039062 304.253906 L 558.316406 302.886719 L 564.285156 297.773438 L 564.792969 297.320312 L 571.273438 292.988281 L 575.035156 291.292969 L 577.753906 289.894531 L 584.234375 288.015625 L 590.714844 287.484375 L 597.195312 288.195312 L 603.675781 290.113281 L 606.125 291.292969 L 610.15625 293.035156 L 616.636719 297.042969 L 617.550781 297.773438 L 623.117188 302.265625 L 625.101562 304.253906 L 629.597656 309.289062 L 630.6875 310.734375 L 634.640625 317.214844 L 636.078125 320.675781 L 637.203125 323.695312 L 638.355469 330.175781 L 638.101562 336.65625 L 636.3125 343.136719 L 636.078125 343.574219 L 632.527344 349.617188 L 629.597656 352.863281 L 626.171875 356.097656 L 623.117188 358.242188 L 616.636719 361.898438 L 615.066406 362.578125 L 610.15625 364.328125 L 603.675781 365.929688 L 597.195312 366.859375 L 590.714844 367.144531 L 584.234375 366.792969 L 577.753906 365.808594 L 571.273438 364.164062 L 566.851562 362.578125 L 564.792969 361.691406 L 558.316406 358.058594 L 555.492188 356.097656 L 551.835938 352.699219 L 549.019531 349.617188 L 545.355469 343.40625 "/>
<path style="fill:none;stroke-width:0.425197;stroke-linecap:butt;stroke-linejoin:round;stroke:rgb(23.137255%,48.235294%,68.627451%);stroke-opacity:1;stroke-miterlimit:1;" d="M 85.246094 309.007812 L 84.007812 304.253906 L 83.101562 297.773438 L 83.027344 291.292969 L 83.832031 284.8125 L 85.246094 279.613281 L 85.59375 278.332031 L 88.417969 271.851562 L 91.726562 266.523438 L 92.476562 265.371094 L 98.042969 258.890625 L 98.207031 258.738281 L 104.6875 253.144531 L 105.648438 252.410156 L 111.167969 248.804688 L 116.355469 245.929688 L 117.648438 245.289062 L 124.128906 242.546875 L 130.609375 240.359375 L 134.089844 239.449219 L 137.089844 238.703125 L 143.570312 237.53125 L 150.050781 236.8125 L 156.53125 236.527344 L 163.011719 236.683594 L 169.492188 237.292969 L 175.972656 238.378906 L 180.351562 239.449219 L 182.453125 240.007812 L 188.933594 242.292969 L 195.414062 245.273438 L 196.605469 245.929688 L 201.894531 249.398438 L 205.722656 252.410156 L 208.375 255.105469 L 211.648438 258.890625 L 214.855469 264.273438 L 215.457031 265.371094 L 217.628906 271.851562 L 218.46875 278.332031 L 218.144531 284.8125 L 216.785156 291.292969 L 214.855469 296.722656 L 214.46875 297.773438 L 211.261719 304.253906 L 208.375 308.960938 L 207.214844 310.734375 L 202.359375 317.214844 L 201.894531 317.789062 L 196.660156 323.695312 L 195.414062 325.050781 L 190.105469 330.175781 L 188.933594 331.316406 L 182.570312 336.65625 L 182.453125 336.761719 L 175.972656 341.609375 L 173.441406 343.136719 L 169.492188 345.734375 L 163.011719 349.019531 L 161.402344 349.617188 L 156.53125 351.660156 L 150.050781 353.40625 L 143.570312 354.25 L 137.089844 354.222656 L 130.609375 353.308594 L 124.128906 351.433594 L 120.082031 349.617188 L 117.648438 348.582031 L 111.167969 344.707031 L 109.15625 343.136719 L 104.6875 339.585938 L 101.75 336.65625 L 98.207031 332.867188 L 96.101562 330.175781 L 91.726562 323.796875 L 91.664062 323.695312 L 88.28125 317.214844 L 85.726562 310.734375 L 85.246094 309.007812 "/>
<path style="fill:none;stroke-width:0.425197;stroke-linecap:butt;stroke-linejoin:round;stroke:rgb(23.137255%,48.235294%,68.627451%);stroke-opacity:1;stroke-miterlimit:1;" d="M 474.070312 156.390625 L 473.859375 155.207031 L 473.066406 148.726562 L 472.601562 142.246094 L 472.453125 135.765625 L 472.660156 129.285156 L 473.316406 122.804688 L 474.070312 118.832031 L 474.570312 116.324219 L 476.648438 109.84375 L 479.765625 103.363281 L 480.550781 102.175781 L 484.476562 96.882812 L 487.03125 94.285156 L 491.519531 90.402344 L 493.511719 89.019531 L 499.992188 85.328125 L 503.171875 83.921875 L 506.472656 82.667969 L 512.953125 80.859375 L 519.433594 79.699219 L 525.914062 79.152344 L 532.394531 79.199219 L 538.875 79.839844 L 545.355469 81.085938 L 551.835938 82.972656 L 554.28125 83.921875 L 558.316406 85.722656 L 564.792969 89.402344 L 566.261719 90.402344 L 571.273438 94.535156 L 573.734375 96.882812 L 577.753906 101.738281 L 578.972656 103.363281 L 582.703125 109.84375 L 584.234375 113.4375 L 585.40625 116.324219 L 587.316406 122.804688 L 588.660156 129.285156 L 589.578125 135.765625 L 590.191406 142.246094 L 590.585938 148.726562 L 590.714844 152.496094 L 590.8125 155.207031 L 590.902344 161.683594 L 590.847656 168.164062 L 590.714844 172.003906 L 590.621094 174.644531 L 590.136719 181.125 L 589.289062 187.605469 L 587.921875 194.085938 L 585.796875 200.566406 L 584.234375 203.898438 L 582.417969 207.046875 L 577.753906 212.742188 L 576.875 213.527344 L 571.273438 217.425781 L 565.097656 220.007812 L 564.792969 220.117188 L 558.316406 221.429688 L 551.835938 221.792969 L 545.355469 221.410156 L 538.875 220.402344 L 537.277344 220.007812 L 532.394531 218.835938 L 525.914062 216.753906 L 519.433594 214.175781 L 518.082031 213.527344 L 512.953125 210.988281 L 506.472656 207.214844 L 506.222656 207.046875 L 499.992188 202.523438 L 497.628906 200.566406 L 493.511719 196.71875 L 491.003906 194.085938 L 487.03125 189.179688 L 485.875 187.605469 L 481.957031 181.125 L 480.550781 178.203125 L 478.960938 174.644531 L 476.722656 168.164062 L 475.054688 161.683594 L 474.070312 156.390625 "/>
<path style="fill:none;stroke-width:0.425197;stroke-linecap:butt;stroke-linejoin:round;stroke:rgb(23.137255%,48.235294%,68.627451%);stroke-opacity:1;stroke-miterlimit:1;" d="M 571.273438 344.632812 L 569.625 343.136719 L 566.078125 336.65625 L 565.914062 330.175781 L 568.8125 323.695312 L 571.273438 320.828125 L 575.664062 317.214844 L 577.753906 315.953125 L 584.234375 313.640625 L 590.714844 312.898438 L 597.195312 313.695312 L 603.675781 316.066406 L 605.554688 317.214844 L 610.15625 321.125 L 612.308594 323.695312 L 615.054688 330.175781 L 614.820312 336.65625 L 611.332031 343.136719 L 610.15625 344.226562 L 603.675781 348.554688 L 601.035156 349.617188 L 597.195312 350.648438 L 590.714844 351.25 L 584.234375 350.722656 L 579.914062 349.617188 L 577.753906 348.796875 L 571.273438 344.632812 "/>
<path style="fill:none;stroke-width:0.425197;stroke-linecap:butt;stroke-linejoin:round;stroke:rgb(26.666667%,55.294118%,77.647059%);stroke-opacity:1;stroke-miterlimit:1;" d="M 98.207031 309.238281 L 96.300781 304.253906 L 94.84375 297.773438 L 94.441406 291.292969 L 95.117188 284.8125 L 96.9375 278.332031 L 98.207031 275.636719 L 100.085938 271.851562 L 104.6875 265.460938 L 104.757812 265.371094 L 111.167969 259.203125 L 111.535156 258.890625 L 117.648438 254.695312 L 121.617188 252.410156 L 124.128906 251.167969 L 130.609375 248.542969 L 137.089844 246.53125 L 139.800781 245.929688 L 143.570312 245.160156 L 150.050781 244.359375 L 156.53125 244.078125 L 163.011719 244.320312 L 169.492188 245.113281 L 173.394531 245.929688 L 175.972656 246.539062 L 182.453125 248.75 L 188.933594 251.761719 L 190.0625 252.410156 L 195.414062 256.277344 L 198.390625 258.890625 L 201.894531 263.210938 L 203.425781 265.371094 L 206.246094 271.851562 L 207.421875 278.332031 L 207.183594 284.8125 L 205.695312 291.292969 L 203.078125 297.773438 L 201.894531 299.917969 L 199.3125 304.253906 L 195.414062 309.546875 L 194.441406 310.734375 L 188.933594 316.644531 L 188.324219 317.214844 L 182.453125 322.34375 L 180.621094 323.695312 L 175.972656 327.050781 L 170.640625 330.175781 L 169.492188 330.863281 L 163.011719 333.917969 L 156.53125 336.113281 L 154.003906 336.65625 L 150.050781 337.566406 L 143.570312 338.195312 L 137.089844 337.945312 L 130.609375 336.757812 L 130.296875 336.65625 L 124.128906 334.632812 L 117.648438 331.332031 L 115.964844 330.175781 L 111.167969 326.617188 L 108.117188 323.695312 L 104.6875 319.886719 L 102.695312 317.214844 L 98.851562 310.734375 L 98.207031 309.238281 "/>
<path style="fill:none;stroke-width:0.425197;stroke-linecap:butt;stroke-linejoin:round;stroke:rgb(26.666667%,55.294118%,77.647059%);stroke-opacity:1;stroke-miterlimit:1;" d="M 487.03125 148.671875 L 486.476562 142.246094 L 486.320312 135.765625 L 486.625 129.285156 L 487.03125 126.296875 L 487.554688 122.804688 L 489.355469 116.324219 L 492.25 109.84375 L 493.511719 107.902344 L 497.007812 103.363281 L 499.992188 100.535156 L 504.878906 96.882812 L 506.472656 95.953125 L 512.953125 93.144531 L 519.433594 91.335938 L 525.914062 90.46875 L 532.394531 90.507812 L 538.875 91.449219 L 545.355469 93.304688 L 551.835938 96.105469 L 553.1875 96.882812 L 558.316406 100.5625 L 561.453125 103.363281 L 564.792969 107.292969 L 566.652344 109.84375 L 570.089844 116.324219 L 571.273438 119.535156 L 572.371094 122.804688 L 573.8125 129.285156 L 574.703125 135.765625 L 575.179688 142.246094 L 575.347656 148.726562 L 575.261719 155.207031 L 574.917969 161.683594 L 574.28125 168.164062 L 573.238281 174.644531 L 571.632812 181.125 L 571.273438 182.148438 L 568.933594 187.605469 L 564.792969 194.027344 L 564.742188 194.085938 L 558.316406 199.4375 L 556.085938 200.566406 L 551.835938 202.257812 L 545.355469 203.46875 L 538.875 203.527344 L 532.394531 202.644531 L 525.914062 200.925781 L 525 200.566406 L 519.433594 198.199219 L 512.953125 194.601562 L 512.203125 194.085938 L 506.472656 189.589844 L 504.359375 187.605469 L 499.992188 182.742188 L 498.746094 181.125 L 494.695312 174.644531 L 493.511719 172.230469 L 491.75 168.164062 L 489.628906 161.683594 L 488.089844 155.207031 L 487.035156 148.726562 L 487.03125 148.671875 "/>
<path style="fill:none;stroke-width:0.425197;stroke-linecap:butt;stroke-linejoin:round;stroke:rgb(30.196078%,62.352941%,87.45098%);stroke-opacity:1;stroke-miterlimit:1;" d="M 111.167969 306.488281 L 109.882812 304.253906 L 107.492188 297.773438 L 106.554688 291.292969 L 107.050781 284.8125 L 109.019531 278.332031 L 111.167969 274.394531 L 112.699219 271.851562 L 117.648438 266.289062 L 118.589844 265.371094 L 124.128906 261.308594 L 128.15625 258.890625 L 130.609375 257.691406 L 137.089844 255.226562 L 143.570312 253.488281 L 150.050781 252.46875 L 151.292969 252.410156 L 156.53125 252.199219 L 160.113281 252.410156 L 163.011719 252.613281 L 169.492188 253.851562 L 175.972656 255.960938 L 182.160156 258.890625 L 182.453125 259.074219 L 188.933594 264.429688 L 189.855469 265.371094 L 193.875 271.851562 L 195.414062 277.394531 L 195.640625 278.332031 L 195.558594 284.8125 L 195.414062 285.40625 L 193.855469 291.292969 L 190.710938 297.773438 L 188.933594 300.40625 L 185.992188 304.253906 L 182.453125 308.023438 L 179.457031 310.734375 L 175.972656 313.527344 L 170.316406 317.214844 L 169.492188 317.71875 L 163.011719 320.808594 L 156.53125 322.988281 L 152.9375 323.695312 L 150.050781 324.265625 L 143.570312 324.617188 L 137.089844 324 L 135.875 323.695312 L 130.609375 322.277344 L 124.128906 319.261719 L 121.089844 317.214844 L 117.648438 314.453125 L 114.144531 310.734375 L 111.167969 306.488281 "/>
<path style="fill:none;stroke-width:0.425197;stroke-linecap:butt;stroke-linejoin:round;stroke:rgb(30.196078%,62.352941%,87.45098%);stroke-opacity:1;stroke-miterlimit:1;" d="M 506.472656 155.457031 L 506.386719 155.207031 L 504.917969 148.726562 L 504.078125 142.246094 L 503.890625 135.765625 L 504.480469 129.285156 L 506.0625 122.804688 L 506.472656 121.863281 L 509.65625 116.324219 L 512.953125 112.675781 L 516.816406 109.84375 L 519.433594 108.496094 L 525.914062 106.828125 L 532.394531 106.808594 L 538.875 108.40625 L 541.792969 109.84375 L 545.355469 112.265625 L 549.371094 116.324219 L 551.835938 120.011719 L 553.273438 122.804688 L 555.347656 129.285156 L 556.457031 135.765625 L 556.828125 142.246094 L 556.601562 148.726562 L 555.820312 155.207031 L 554.421875 161.683594 L 552.207031 168.164062 L 551.835938 168.925781 L 547.691406 174.644531 L 545.355469 176.859375 L 538.875 179.980469 L 532.394531 180.441406 L 525.914062 178.742188 L 519.433594 175.15625 L 518.824219 174.644531 L 512.953125 168.558594 L 512.667969 168.164062 L 509.058594 161.683594 L 506.472656 155.457031 "/>
<path style="fill:none;stroke-width:0.425197;stroke-linecap:butt;stroke-linejoin:round;stroke:rgb(33.72549%,69.411765%,96.862745%);stroke-opacity:1;stroke-miterlimit:1;" d="M 124.128906 299.359375 L 123.113281 297.773438 L 121.042969 291.292969 L 121.152344 284.8125 L 123.394531 278.332031 L 124.128906 277.265625 L 128.554688 271.851562 L 130.609375 270.191406 L 137.089844 266.09375 L 138.714844 265.371094 L 143.570312 263.753906 L 150.050781 262.546875 L 156.53125 262.324219 L 163.011719 263.144531 L 169.492188 265.101562 L 170.058594 265.371094 L 175.972656 269.597656 L 178.214844 271.851562 L 181.40625 278.332031 L 181.699219 284.8125 L 179.597656 291.292969 L 175.972656 296.972656 L 175.347656 297.773438 L 169.492188 303.078125 L 167.789062 304.253906 L 163.011719 306.949219 L 156.53125 309.429688 L 150.050781 310.703125 L 143.570312 310.675781 L 137.089844 309.183594 L 130.609375 305.96875 L 128.402344 304.253906 L 124.128906 299.359375 "/>
</g>
</svg>
