<?xml version="1.0" encoding="UTF-8"?>
<svg xmlns="http://www.w3.org/2000/svg" xmlns:xlink="http://www.w3.org/1999/xlink" width="720pt" height="720pt" viewBox="0 0 720 720" version="1.1">
<defs>
<clipPath id="clip1">
  <path d="M 14.285156 0 L 720 0 L 720 706 L 14.285156 706 Z "/>
</clipPath>
</defs>
<g id="surface101">
<rect x="0" y="0" width="720" height="720" style="fill:rgb(100%,100%,100%);fill-opacity:1;stroke:none;"/>
<rect x="0" y="0" width="720" height="720" style="fill:rgb(100%,100%,100%);fill-opacity:1;stroke:none;"/>
<path style="fill:none;stroke-width:1.062992;stroke-linecap:round;stroke-linejoin:round;stroke:rgb(100%,100%,100%);stroke-opacity:1;stroke-miterlimit:10;" d="M 0 720 L 720 720 L 720 0 L 0 0 Z "/>
<g clip-path="url(#clip1)" clip-rule="nonzero">
<path style=" stroke:none;fill-rule:nonzero;fill:rgb(100%,100%,100%);fill-opacity:1;" d="M 14.285156 705.714844 L 720 705.714844 L 720 0 L 14.285156 0 Z "/>
</g>
<path style="fill:none;stroke-width:0.425197;stroke-linecap:butt;stroke-linejoin:round;stroke:rgb(7.45098%,16.862745%,26.27451%);stroke-opacity:1;stroke-miterlimit:1;" d="M 169.492188 398.898438 L 168.628906 394.980469 L 169.492188 389.964844 L 169.699219 388.5 L 172.675781 382.019531 L 175.972656 377.699219 L 177.214844 375.539062 L 182.300781 369.058594 L 182.453125 368.902344 L 187.230469 362.578125 L 188.933594 360.695312 L 192.429688 356.097656 L 195.414062 352.753906 L 197.960938 349.617188 L 201.894531 345.371094 L 203.929688 343.136719 L 208.375 338.667969 L 210.472656 336.65625 L 214.855469 332.617188 L 217.78125 330.175781 L 221.335938 327.175781 L 226.050781 323.695312 L 227.816406 322.316406 L 234.296875 317.914062 L 235.484375 317.214844 L 240.777344 313.738281 L 246.09375 310.734375 L 247.257812 309.96875 L 253.738281 306.179688 L 257.5 304.253906 L 260.21875 302.53125 L 266.699219 299.023438 L 269.609375 297.773438 L 273.179688 295.679688 L 279.65625 293.105469 L 286.136719 291.863281 L 292.617188 291.691406 L 299.097656 292.242188 L 305.578125 293.246094 L 312.058594 294.542969 L 318.539062 296.070312 L 324.863281 297.773438 L 325.019531 297.804688 L 331.5 299.140625 L 337.980469 300.550781 L 344.460938 301.871094 L 350.941406 302.601562 L 357.421875 300.113281 L 358.59375 297.773438 L 357.902344 291.292969 L 357.421875 290.109375 L 355.234375 284.8125 L 352.035156 278.332031 L 350.941406 276.367188 L 348.097656 271.851562 L 344.460938 265.835938 L 344.113281 265.371094 L 339.34375 258.890625 L 337.980469 256.679688 L 334.3125 252.410156 L 331.5 247.890625 L 329.519531 245.929688 L 325.96875 239.449219 L 325.183594 232.96875 L 326.132812 226.488281 L 328.203125 220.007812 L 331.105469 213.527344 L 331.5 212.855469 L 334.019531 207.046875 L 337.859375 200.566406 L 337.980469 200.40625 L 342.304688 194.085938 L 344.460938 191.691406 L 348.28125 187.605469 L 350.941406 185.320312 L 356.550781 181.125 L 357.421875 180.558594 L 363.902344 176.789062 L 368.613281 174.644531 L 370.382812 173.855469 L 376.863281 171.351562 L 383.34375 169.449219 L 389.164062 168.164062 L 389.824219 168 L 396.304688 166.679688 L 402.785156 165.785156 L 409.265625 165.261719 L 415.746094 165.074219 L 422.226562 165.191406 L 428.707031 165.574219 L 435.1875 166.1875 L 441.667969 166.980469 L 448.148438 167.90625 L 449.851562 168.164062 L 454.628906 168.753906 L 461.109375 169.628906 L 467.589844 170.640625 L 474.070312 171.886719 L 480.550781 173.511719 L 484.046875 174.644531 L 487.03125 175.511719 L 493.511719 177.953125 L 499.664062 181.125 L 499.992188 181.292969 L 506.472656 185.234375 L 509.632812 187.605469 L 512.953125 190.296875 L 517.066406 194.085938 L 519.433594 196.597656 L 523.015625 200.566406 L 525.914062 204.46875 L 527.890625 207.046875 L 531.890625 213.527344 L 532.394531 214.53125 L 535.472656 220.007812 L 538.296875 226.488281 L 538.875 228.109375 L 540.902344 232.96875 L 543.089844 239.449219 L 544.875 245.929688 L 545.355469 248.101562 L 546.441406 252.410156 L 547.578125 258.890625 L 548.128906 265.371094 L 548 271.851562 L 547.074219 278.332031 L 545.355469 284.5625 L 545.28125 284.8125 L 542.578125 291.292969 L 538.945312 297.773438 L 538.875 297.882812 L 534.167969 304.253906 L 532.394531 306.382812 L 528.019531 310.734375 L 525.914062 312.703125 L 519.683594 317.214844 L 519.433594 317.390625 L 512.953125 320.769531 L 506.472656 323.015625 L 503.222656 323.695312 L 499.992188 324.402344 L 493.511719 325.226562 L 487.03125 325.875 L 480.550781 326.820312 L 474.070312 328.515625 L 470.109375 330.175781 L 467.589844 331.269531 L 461.109375 335.15625 L 459.082031 336.65625 L 454.628906 339.941406 L 450.769531 343.136719 L 448.148438 345.285156 L 443.121094 349.617188 L 441.667969 350.863281 L 435.582031 356.097656 L 435.1875 356.4375 L 428.707031 361.898438 L 427.871094 362.578125 L 422.226562 367.246094 L 420.03125 369.058594 L 415.746094 372.675781 L 412.613281 375.539062 L 409.265625 378.683594 L 406.304688 382.019531 L 402.785156 386.105469 L 401.183594 388.5 L 396.960938 394.980469 L 396.304688 396.03125 L 393.644531 401.460938 L 390.570312 407.941406 L 389.824219 409.648438 L 388.105469 414.421875 L 385.992188 420.902344 L 384.132812 427.382812 L 383.34375 430.707031 L 382.695312 433.863281 L 381.582031 440.34375 L 380.5 446.820312 L 379.222656 453.300781 L 377.519531 459.78125 L 376.863281 461.621094 L 375.390625 466.261719 L 372.613281 472.742188 L 370.382812 476.699219 L 368.992188 479.222656 L 364.445312 485.703125 L 363.902344 486.359375 L 358.574219 492.183594 L 357.421875 493.28125 L 350.941406 498.347656 L 350.398438 498.664062 L 344.460938 501.984375 L 337.980469 504.261719 L 332.902344 505.144531 L 331.5 505.402344 L 325.019531 505.535156 L 321.730469 505.144531 L 318.539062 504.777344 L 312.058594 503.390625 L 305.578125 501.6875 L 299.097656 500.214844 L 292.617188 499.605469 L 286.136719 500.261719 L 279.65625 502.050781 L 273.179688 504.363281 L 270.898438 505.144531 L 266.699219 506.546875 L 260.21875 508.058594 L 253.738281 508.589844 L 247.257812 507.992188 L 240.777344 506.121094 L 238.789062 505.144531 L 234.296875 502.921875 L 228.46875 498.664062 L 227.816406 498.144531 L 221.96875 492.183594 L 221.335938 491.421875 L 217.152344 485.703125 L 214.855469 481.734375 L 213.425781 479.222656 L 210.492188 472.742188 L 208.375 466.785156 L 208.167969 466.261719 L 206.035156 459.78125 L 204.023438 453.300781 L 201.894531 447.09375 L 201.78125 446.820312 L 198.644531 440.34375 L 195.414062 434.941406 L 194.636719 433.863281 L 189.539062 427.382812 L 188.933594 426.625 L 183.78125 420.902344 L 182.453125 419.242188 L 178.113281 414.421875 L 175.972656 411.351562 L 173.261719 407.941406 L 169.964844 401.460938 L 169.492188 398.898438 "/>
<path style="fill:none;stroke-width:0.425197;stroke-linecap:butt;stroke-linejoin:round;stroke:rgb(7.45098%,16.862745%,26.27451%);stroke-opacity:1;stroke-miterlimit:1;" d="M 273.179688 256.566406 L 270.984375 252.410156 L 269.59375 245.929688 L 270.777344 239.449219 L 273.179688 235.757812 L 276.34375 232.96875 L 279.65625 231.292969 L 286.136719 230.234375 L 292.617188 230.988281 L 298.496094 232.96875 L 299.097656 233.386719 L 305.1875 239.449219 L 305.171875 245.929688 L 301.59375 252.410156 L 299.097656 255.191406 L 294.984375 258.890625 L 292.617188 260.707031 L 286.136719 263.066406 L 279.65625 262.101562 L 275.5 258.890625 L 273.179688 256.566406 "/>
<path style="fill:none;stroke-width:0.425197;stroke-linecap:butt;stroke-linejoin:round;stroke:rgb(11.372549%,24.705882%,36.862745%);stroke-opacity:1;stroke-miterlimit:1;" d="M 214.855469 402.285156 L 214.34375 401.460938 L 211.457031 394.980469 L 210.050781 388.5 L 210.007812 382.019531 L 211.222656 375.539062 L 213.679688 369.058594 L 214.855469 366.980469 L 217.453125 362.578125 L 221.335938 357.660156 L 222.738281 356.097656 L 227.816406 351.386719 L 230.144531 349.617188 L 234.296875 346.71875 L 240.773438 343.136719 L 240.777344 343.132812 L 247.257812 340.199219 L 253.738281 337.664062 L 256.390625 336.65625 L 260.21875 335.140625 L 266.699219 332.441406 L 271.75 330.175781 L 273.179688 329.527344 L 279.65625 326.503906 L 286.136719 323.777344 L 286.355469 323.695312 L 292.617188 321.453125 L 299.097656 319.839844 L 305.578125 318.960938 L 312.058594 318.808594 L 318.539062 319.367188 L 325.019531 320.664062 L 331.5 322.78125 L 333.570312 323.695312 L 337.980469 325.695312 L 344.460938 329.570312 L 345.347656 330.175781 L 350.941406 334.472656 L 353.511719 336.65625 L 357.421875 340.59375 L 359.925781 343.136719 L 363.902344 348.238281 L 365.039062 349.617188 L 369.039062 356.097656 L 370.382812 359.375 L 371.800781 362.578125 L 373.414062 369.058594 L 373.9375 375.539062 L 373.613281 382.019531 L 372.589844 388.5 L 370.953125 394.980469 L 370.382812 396.695312 L 368.871094 401.460938 L 366.359375 407.941406 L 363.902344 413.539062 L 363.476562 414.421875 L 360.328125 420.902344 L 357.421875 427.015625 L 357.207031 427.382812 L 354.046875 433.863281 L 351.519531 440.34375 L 350.941406 442.335938 L 349.175781 446.820312 L 347.0625 453.300781 L 344.753906 459.78125 L 344.460938 460.371094 L 339.875 466.261719 L 337.980469 467.996094 L 331.5 470.117188 L 325.019531 468.214844 L 322.75 466.261719 L 318.539062 460.386719 L 318.21875 459.78125 L 315.425781 453.300781 L 312.058594 447.566406 L 311.578125 446.820312 L 305.578125 441.414062 L 303.851562 440.34375 L 299.097656 438.417969 L 292.617188 437.027344 L 286.136719 436.835938 L 279.65625 437.785156 L 273.179688 439.867188 L 272.03125 440.34375 L 266.699219 445.179688 L 265.148438 446.820312 L 263.058594 453.300781 L 261.894531 459.78125 L 260.21875 464.621094 L 259.296875 466.261719 L 253.738281 470.828125 L 247.257812 470.316406 L 243.441406 466.261719 L 241.082031 459.78125 L 241.425781 453.300781 L 242.664062 446.820312 L 242.664062 440.34375 L 240.777344 435.882812 L 240.222656 433.863281 L 235.996094 427.382812 L 234.296875 425.699219 L 230.34375 420.902344 L 227.816406 418.4375 L 224.253906 414.421875 L 221.335938 411.222656 L 218.691406 407.941406 L 214.855469 402.285156 "/>
<path style="fill:none;stroke-width:0.425197;stroke-linecap:butt;stroke-linejoin:round;stroke:rgb(11.372549%,24.705882%,36.862745%);stroke-opacity:1;stroke-miterlimit:1;" d="M 357.421875 243.679688 L 355.910156 239.449219 L 354.472656 232.96875 L 353.925781 226.488281 L 354.292969 220.007812 L 355.703125 213.527344 L 357.421875 209.304688 L 358.28125 207.046875 L 362.222656 200.566406 L 363.902344 198.621094 L 368.15625 194.085938 L 370.382812 192.25 L 376.863281 187.769531 L 377.140625 187.605469 L 383.34375 184.339844 L 389.824219 181.84375 L 392.296875 181.125 L 396.304688 179.921875 L 402.785156 178.558594 L 409.265625 177.753906 L 415.746094 177.425781 L 422.226562 177.527344 L 428.707031 177.996094 L 435.1875 178.789062 L 441.667969 179.835938 L 448.148438 181.070312 L 448.4375 181.125 L 454.628906 182.257812 L 461.109375 183.550781 L 467.589844 185 L 474.070312 186.730469 L 476.773438 187.605469 L 480.550781 188.828125 L 487.03125 191.511719 L 491.792969 194.085938 L 493.511719 195.101562 L 499.992188 199.855469 L 500.816406 200.566406 L 506.472656 206.386719 L 507.050781 207.046875 L 511.621094 213.527344 L 512.953125 216.070312 L 515.039062 220.007812 L 517.503906 226.488281 L 519.175781 232.96875 L 519.433594 234.679688 L 520.242188 239.449219 L 520.644531 245.929688 L 520.335938 252.410156 L 519.433594 257.660156 L 519.1875 258.890625 L 516.835938 265.371094 L 512.953125 271.519531 L 512.660156 271.851562 L 506.472656 277.167969 L 504.320312 278.332031 L 499.992188 280.398438 L 493.511719 282.449219 L 487.03125 283.964844 L 483.371094 284.8125 L 480.550781 285.496094 L 474.070312 287.429688 L 467.589844 289.804688 L 464.246094 291.292969 L 461.109375 292.828125 L 454.628906 296.335938 L 451.972656 297.773438 L 448.148438 300.085938 L 441.667969 303.550781 L 439.988281 304.253906 L 435.1875 306.628906 L 428.707031 308.675781 L 422.226562 309.402344 L 415.746094 308.683594 L 409.265625 306.304688 L 406.085938 304.253906 L 402.785156 302.515625 L 396.714844 297.773438 L 396.304688 297.496094 L 389.824219 291.769531 L 389.378906 291.292969 L 383.34375 285.140625 L 383.066406 284.8125 L 377.503906 278.332031 L 376.863281 277.550781 L 372.507812 271.851562 L 370.382812 268.742188 L 368.089844 265.371094 L 364.296875 258.890625 L 363.902344 258.109375 L 360.796875 252.410156 L 358.109375 245.929688 L 357.421875 243.679688 "/>
<path style="fill:none;stroke-width:0.425197;stroke-linecap:butt;stroke-linejoin:round;stroke:rgb(15.686275%,32.941176%,47.843137%);stroke-opacity:1;stroke-miterlimit:1;" d="M 240.777344 390.285156 L 239.59375 388.5 L 238.015625 382.019531 L 239.351562 375.539062 L 240.777344 373.355469 L 244.476562 369.058594 L 247.257812 367.046875 L 253.738281 363.425781 L 255.464844 362.578125 L 260.21875 360.683594 L 266.699219 357.804688 L 269.695312 356.097656 L 273.179688 354.316406 L 279.65625 350.113281 L 280.304688 349.617188 L 286.136719 345.714844 L 289.976562 343.136719 L 292.617188 341.601562 L 299.097656 338.4375 L 304.511719 336.65625 L 305.578125 336.347656 L 312.058594 335.511719 L 318.539062 335.851562 L 321.910156 336.65625 L 325.019531 337.460938 L 331.5 340.472656 L 335.484375 343.136719 L 337.980469 345.113281 L 342.539062 349.617188 L 344.460938 351.996094 L 347.417969 356.097656 L 350.914062 362.578125 L 350.941406 362.648438 L 353.253906 369.058594 L 354.515625 375.539062 L 354.71875 382.019531 L 353.828125 388.5 L 351.804688 394.980469 L 350.941406 396.816406 L 348.191406 401.460938 L 344.460938 406.152344 L 342.320312 407.941406 L 337.980469 411.09375 L 331.5 413.507812 L 325.019531 414.265625 L 318.539062 413.992188 L 312.058594 413.160156 L 305.578125 412.074219 L 299.097656 410.941406 L 292.617188 409.855469 L 286.136719 408.832031 L 280.355469 407.941406 L 279.65625 407.816406 L 273.179688 406.636719 L 266.699219 405.214844 L 260.21875 403.378906 L 255.128906 401.460938 L 253.738281 400.816406 L 247.257812 396.933594 L 244.765625 394.980469 L 240.777344 390.285156 "/>
<path style="fill:none;stroke-width:0.425197;stroke-linecap:butt;stroke-linejoin:round;stroke:rgb(15.686275%,32.941176%,47.843137%);stroke-opacity:1;stroke-miterlimit:1;" d="M 370.382812 243.960938 L 368.824219 239.449219 L 367.5 232.96875 L 367.125 226.488281 L 367.785156 220.007812 L 369.695312 213.527344 L 370.382812 212.15625 L 372.996094 207.046875 L 376.863281 202.246094 L 378.398438 200.566406 L 383.34375 196.5 L 387.089844 194.085938 L 389.824219 192.574219 L 396.304688 189.839844 L 402.785156 188.03125 L 405.273438 187.605469 L 409.265625 186.902344 L 415.746094 186.410156 L 422.226562 186.507812 L 428.707031 187.121094 L 431.753906 187.605469 L 435.1875 188.128906 L 441.667969 189.429688 L 448.148438 190.988281 L 454.628906 192.722656 L 459.433594 194.085938 L 461.109375 194.59375 L 467.589844 196.65625 L 474.070312 199.039062 L 477.558594 200.566406 L 480.550781 202.09375 L 487.03125 206.160156 L 488.195312 207.046875 L 493.511719 212.21875 L 494.667969 213.527344 L 498.765625 220.007812 L 499.992188 223.175781 L 501.222656 226.488281 L 502.289062 232.96875 L 502.042969 239.449219 L 500.3125 245.929688 L 499.992188 246.59375 L 496.402344 252.410156 L 493.511719 255.4375 L 489.070312 258.890625 L 487.03125 260.167969 L 480.550781 263.511719 L 476.578125 265.371094 L 474.070312 266.476562 L 467.589844 269.53125 L 463.09375 271.851562 L 461.109375 272.875 L 454.628906 276.53125 L 451.429688 278.332031 L 448.148438 280.226562 L 441.667969 283.582031 L 438.652344 284.8125 L 435.1875 286.324219 L 428.707031 288.15625 L 422.226562 288.824219 L 415.746094 288.285156 L 409.265625 286.46875 L 405.875 284.8125 L 402.785156 283.441406 L 396.304688 279.195312 L 395.285156 278.332031 L 389.824219 273.703125 L 388.03125 271.851562 L 383.34375 266.644531 L 382.324219 265.371094 L 377.707031 258.890625 L 376.863281 257.480469 L 373.898438 252.410156 L 371.011719 245.929688 L 370.382812 243.960938 "/>
<path style="fill:none;stroke-width:0.425197;stroke-linecap:butt;stroke-linejoin:round;stroke:rgb(20%,41.568627%,59.607843%);stroke-opacity:1;stroke-miterlimit:1;" d="M 299.097656 378.730469 L 297.804688 375.539062 L 298.71875 369.058594 L 299.097656 368.414062 L 302.992188 362.578125 L 305.578125 360.351562 L 312.058594 357.097656 L 318.539062 357.042969 L 325.019531 360.269531 L 327.425781 362.578125 L 331.5 368.828125 L 331.609375 369.058594 L 332.613281 375.539062 L 331.5 381.253906 L 331.234375 382.019531 L 325.019531 387.675781 L 321.828125 388.5 L 318.539062 389.042969 L 313.355469 388.5 L 312.058594 388.308594 L 305.578125 385.417969 L 300.882812 382.019531 L 299.097656 378.730469 "/>
<path style="fill:none;stroke-width:0.425197;stroke-linecap:butt;stroke-linejoin:round;stroke:rgb(20%,41.568627%,59.607843%);stroke-opacity:1;stroke-miterlimit:1;" d="M 383.34375 250.175781 L 381.136719 245.929688 L 378.796875 239.449219 L 377.511719 232.96875 L 377.304688 226.488281 L 378.308594 220.007812 L 380.820312 213.527344 L 383.34375 209.734375 L 385.40625 207.046875 L 389.824219 203.039062 L 393.414062 200.566406 L 396.304688 198.945312 L 402.785156 196.371094 L 409.265625 194.855469 L 415.746094 194.203125 L 422.226562 194.296875 L 428.707031 195.039062 L 435.1875 196.351562 L 441.667969 198.148438 L 448.148438 200.316406 L 448.867188 200.566406 L 454.628906 202.917969 L 461.109375 205.757812 L 463.945312 207.046875 L 467.589844 209.214844 L 474.070312 213.390625 L 474.261719 213.527344 L 480.332031 220.007812 L 480.550781 220.480469 L 483.15625 226.488281 L 483.449219 232.96875 L 481.132812 239.449219 L 480.550781 240.238281 L 475.71875 245.929688 L 474.070312 247.253906 L 467.589844 252.3125 L 467.472656 252.410156 L 461.109375 256.839844 L 458.367188 258.890625 L 454.628906 261.394531 L 448.75 265.371094 L 448.148438 265.753906 L 441.667969 269.671875 L 437.152344 271.851562 L 435.1875 272.789062 L 428.707031 274.925781 L 422.226562 275.839844 L 415.746094 275.484375 L 409.265625 273.792969 L 405.230469 271.851562 L 402.785156 270.695312 L 396.304688 266.105469 L 395.507812 265.371094 L 389.824219 259.640625 L 389.199219 258.890625 L 384.582031 252.410156 L 383.34375 250.175781 "/>
<path style="fill:none;stroke-width:0.425197;stroke-linecap:butt;stroke-linejoin:round;stroke:rgb(24.313725%,50.588235%,71.764706%);stroke-opacity:1;stroke-miterlimit:1;" d="M 389.824219 243.953125 L 387.933594 239.449219 L 386.503906 232.96875 L 386.453125 226.488281 L 387.96875 220.007812 L 389.824219 216.40625 L 391.59375 213.527344 L 396.304688 208.816406 L 398.777344 207.046875 L 402.785156 204.871094 L 409.265625 202.71875 L 415.746094 201.785156 L 422.226562 201.882812 L 428.707031 202.890625 L 435.1875 204.710938 L 441.226562 207.046875 L 441.667969 207.265625 L 448.148438 210.945312 L 452.261719 213.527344 L 454.628906 215.820312 L 458.929688 220.007812 L 461.109375 224.671875 L 462.011719 226.488281 L 461.941406 232.96875 L 461.109375 234.765625 L 459.179688 239.449219 L 454.628906 245.308594 L 454.179688 245.929688 L 448.148438 251.886719 L 447.605469 252.410156 L 441.667969 257.054688 L 438.882812 258.890625 L 435.1875 261.046875 L 428.707031 263.691406 L 422.226562 264.941406 L 415.746094 264.71875 L 409.265625 262.941406 L 402.785156 259.445312 L 402.082031 258.890625 L 396.304688 253.714844 L 395.183594 252.410156 L 390.753906 245.929688 L 389.824219 243.953125 "/>
<path style="fill:none;stroke-width:0.425197;stroke-linecap:butt;stroke-linejoin:round;stroke:rgb(29.019608%,60%,84.313725%);stroke-opacity:1;stroke-miterlimit:1;" d="M 396.304688 234.71875 L 395.859375 232.96875 L 396.011719 226.488281 L 396.304688 225.589844 L 398.644531 220.007812 L 402.785156 215.328125 L 405.3125 213.527344 L 409.265625 211.617188 L 415.746094 210.203125 L 422.226562 210.320312 L 428.707031 211.785156 L 432.988281 213.527344 L 435.1875 214.820312 L 441.628906 220.007812 L 441.667969 220.070312 L 445.207031 226.488281 L 445.535156 232.96875 L 443.160156 239.449219 L 441.667969 241.492188 L 438.082031 245.929688 L 435.1875 248.40625 L 428.78125 252.410156 L 428.707031 252.449219 L 422.226562 254.199219 L 415.746094 254.097656 L 410.464844 252.410156 L 409.265625 251.957031 L 402.785156 247.039062 L 401.796875 245.929688 L 397.761719 239.449219 L 396.304688 234.71875 "/>
<path style="fill:none;stroke-width:0.425197;stroke-linecap:butt;stroke-linejoin:round;stroke:rgb(33.72549%,69.411765%,96.862745%);stroke-opacity:1;stroke-miterlimit:1;" d="M 409.265625 233.273438 L 409.128906 232.96875 L 409.265625 231.675781 L 410.402344 226.488281 L 415.746094 222.949219 L 422.226562 223.203125 L 427.226562 226.488281 L 428.707031 232.292969 L 428.804688 232.96875 L 428.707031 233.164062 L 423.089844 239.449219 L 422.226562 239.898438 L 415.746094 239.972656 L 414.78125 239.449219 L 409.265625 233.273438 "/>
</g>
</svg>
