<?xml version="1.0" standalone="no"?><!DOCTYPE svg PUBLIC "-//W3C//DTD SVG 1.1//EN" "http://www.w3.org/Graphics/SVG/1.1/DTD/svg11.dtd"><svg width="842" height="502" version="1.1" xmlns:xlink="http://www.w3.org/1999/xlink" xmlns="http://www.w3.org/2000/svg"><defs xmlns="http://www.w3.org/1999/xhtml"><style type="text/css"><![CDATA[
.line { stroke: rgb(228, 0, 43); fill: none; stroke-width: 3px; }
.axis path, .axis line { fill: none; stroke: black; shape-rendering: crispEdges; }
.axis text { font-size: 10px; font-family: sans-serif; }
text .label { font-size: 10px; font-family: sans-serif; }
.text-label { font-size: 10px; font-family: sans-serif; }
.dot { stroke: rgb(41, 59, 71); fill: rgb(70, 130, 180); }]]></style></defs><defs xmlns="http://www.w3.org/1999/xhtml"><style type="text/css"></style></defs><g transform="translate(40,20)"><g class="x axis" transform="translate(0,452)"><g class="tick" transform="translate(0,0)" style="opacity: 1;"><line y2="6" x2="0"/><text dy=".71em" y="9" x="0" style="text-anchor: middle;">1</text></g><g class="tick" transform="translate(71.0909090909091,0)" style="opacity: 1;"><line y2="6" x2="0"/><text dy=".71em" y="9" x="0" style="text-anchor: middle;">2</text></g><g class="tick" transform="translate(142.1818181818182,0)" style="opacity: 1;"><line y2="6" x2="0"/><text dy=".71em" y="9" x="0" style="text-anchor: middle;">3</text></g><g class="tick" transform="translate(213.27272727272725,0)" style="opacity: 1;"><line y2="6" x2="0"/><text dy=".71em" y="9" x="0" style="text-anchor: middle;">4</text></g><g class="tick" transform="translate(284.3636363636364,0)" style="opacity: 1;"><line y2="6" x2="0"/><text dy=".71em" y="9" x="0" style="text-anchor: middle;">5</text></g><g class="tick" transform="translate(355.45454545454544,0)" style="opacity: 1;"><line y2="6" x2="0"/><text dy=".71em" y="9" x="0" style="text-anchor: middle;">6</text></g><g class="tick" transform="translate(426.5454545454545,0)" style="opacity: 1;"><line y2="6" x2="0"/><text dy=".71em" y="9" x="0" style="text-anchor: middle;">7</text></g><g class="tick" transform="translate(497.6363636363636,0)" style="opacity: 1;"><line y2="6" x2="0"/><text dy=".71em" y="9" x="0" style="text-anchor: middle;">8</text></g><g class="tick" transform="translate(568.7272727272727,0)" style="opacity: 1;"><line y2="6" x2="0"/><text dy=".71em" y="9" x="0" style="text-anchor: middle;">9</text></g><g class="tick" transform="translate(639.8181818181819,0)" style="opacity: 1;"><line y2="6" x2="0"/><text dy=".71em" y="9" x="0" style="text-anchor: middle;">10</text></g><g class="tick" transform="translate(710.9090909090909,0)" style="opacity: 1;"><line y2="6" x2="0"/><text dy=".71em" y="9" x="0" style="text-anchor: middle;">11</text></g><g class="tick" transform="translate(782,0)" style="opacity: 1;"><line y2="6" x2="0"/><text dy=".71em" y="9" x="0" style="text-anchor: middle;">12</text></g><path class="domain" d="M0,6V0H782V6"/><text class="label" x="782" y="-6" style="text-anchor: end;">Degree (number of links through a node)</text></g><g class="y axis"><g class="tick" transform="translate(0,452)" style="opacity: 1;"><line x2="-6" y2="0"/><text dy=".32em" x="-9" y="0" style="text-anchor: end;">1</text></g><g class="tick" transform="translate(0,395.5)" style="opacity: 1;"><line x2="-6" y2="0"/><text dy=".32em" x="-9" y="0" style="text-anchor: end;">2</text></g><g class="tick" transform="translate(0,339)" style="opacity: 1;"><line x2="-6" y2="0"/><text dy=".32em" x="-9" y="0" style="text-anchor: end;">3</text></g><g class="tick" transform="translate(0,282.5)" style="opacity: 1;"><line x2="-6" y2="0"/><text dy=".32em" x="-9" y="0" style="text-anchor: end;">4</text></g><g class="tick" transform="translate(0,226)" style="opacity: 1;"><line x2="-6" y2="0"/><text dy=".32em" x="-9" y="0" style="text-anchor: end;">5</text></g><g class="tick" transform="translate(0,169.5)" style="opacity: 1;"><line x2="-6" y2="0"/><text dy=".32em" x="-9" y="0" style="text-anchor: end;">6</text></g><g class="tick" transform="translate(0,113)" style="opacity: 1;"><line x2="-6" y2="0"/><text dy=".32em" x="-9" y="0" style="text-anchor: end;">7</text></g><g class="tick" transform="translate(0,56.5)" style="opacity: 1;"><line x2="-6" y2="0"/><text dy=".32em" x="-9" y="0" style="text-anchor: end;">8</text></g><g class="tick" transform="translate(0,0)" style="opacity: 1;"><line x2="-6" y2="0"/><text dy=".32em" x="-9" y="0" style="text-anchor: end;">9</text></g><path class="domain" d="M-6,0H0V452H-6"/><text class="label" transform="rotate(-90)" y="6" dy=".71em" style="text-anchor: end;">Clustering groups (number)</text></g><circle class="dot" r="4.5" cx="0" cy="0"/><circle class="dot" r="4.5" cx="71.0909090909091" cy="0"/><circle class="dot" r="4.5" cx="0" cy="56.5"/><circle class="dot" r="4.5" cx="71.0909090909091" cy="282.5"/><circle class="dot" r="4.5" cx="0" cy="56.5"/><circle class="dot" r="4.5" cx="142.1818181818182" cy="56.5"/><circle class="dot" r="4.5" cx="142.1818181818182" cy="56.5"/><circle class="dot" r="4.5" cx="213.27272727272725" cy="0"/><circle class="dot" r="4.5" cx="71.0909090909091" cy="0"/><circle class="dot" r="4.5" cx="284.3636363636364" cy="56.5"/><circle class="dot" r="4.5" cx="213.27272727272725" cy="113"/><circle class="dot" r="4.5" cx="213.27272727272725" cy="113"/><circle class="dot" r="4.5" cx="213.27272727272725" cy="395.5"/><circle class="dot" r="4.5" cx="568.7272727272727" cy="226"/><circle class="dot" r="4.5" cx="568.7272727272727" cy="113"/><circle class="dot" r="4.5" cx="568.7272727272727" cy="452"/><circle class="dot" r="4.5" cx="710.9090909090909" cy="56.5"/><circle class="dot" r="4.5" cx="782" cy="452"/><circle class="dot" r="4.5" cx="355.45454545454544" cy="452"/><circle class="dot" r="4.5" cx="213.27272727272725" cy="56.5"/><circle class="dot" r="4.5" cx="782" cy="113"/><text x="0" y="56.5" dy="24" text-anchor="middle" font-family="ubuntu" transform="translate(30,-5)">H2</text><text x="71.0909090909091" y="282.5" dy="24" text-anchor="middle" font-family="ubuntu">N2O5</text><text x="0" y="56.5" dy="24" text-anchor="middle" font-family="ubuntu" transform="translate(41,-22)">H2O2</text><text x="142.1818181818182" y="56.5" dy="24" text-anchor="middle" font-family="ubuntu">CH3OH</text><text x="142.1818181818182" y="56.5" dy="24" text-anchor="middle" font-family="ubuntu" transform="translate(4,16)">HONO</text><text x="213.27272727272725" y="0" dy="24" text-anchor="middle" font-family="ubuntu">CO</text><text x="71.0909090909091" y="0" dy="24" text-anchor="middle" font-family="ubuntu">HO2NO2</text><text x="284.3636363636364" y="56.5" dy="24" text-anchor="middle" font-family="ubuntu">CH3O</text><text x="213.27272727272725" y="113" dy="24" text-anchor="middle" font-family="ubuntu">CH3NO3</text><text x="213.27272727272725" y="113" dy="24" text-anchor="middle" font-family="ubuntu" transform="translate(0,17)">HNO3</text><text x="213.27272727272725" y="395.5" dy="24" text-anchor="middle" font-family="ubuntu">CH3OOH</text><text x="568.7272727272727" y="226" dy="24" text-anchor="middle" font-family="ubuntu">HCHO</text><text x="568.7272727272727" y="113" dy="24" text-anchor="middle" font-family="ubuntu">CH3O2</text><text x="568.7272727272727" y="452" dy="24" text-anchor="middle" font-family="ubuntu" transform="translate(-1,-41)">NO3</text><text x="710.9090909090909" y="56.5" dy="24" text-anchor="middle" font-family="ubuntu">OH</text><text x="782" y="452" dy="24" text-anchor="middle" font-family="ubuntu" transform="translate(-4,-42)">NO2</text><text x="355.45454545454544" y="452" dy="24" text-anchor="middle" font-family="ubuntu" transform="translate(1,-41)">NO</text><text x="213.27272727272725" y="56.5" dy="24" text-anchor="middle" font-family="ubuntu">O3</text><text x="782" y="113" dy="24" text-anchor="middle" font-family="ubuntu" transform="translate(-22,1)">HO2</text><text x="20" y="-30" dy="24" text-anchor="middle" font-family="ubuntu">CH4</text></g></svg>