<?xml version="1.0" standalone="no"?><!DOCTYPE svg PUBLIC "-//W3C//DTD SVG 1.1//EN" "http://www.w3.org/Graphics/SVG/1.1/DTD/svg11.dtd"><svg width="641" height="778" version="1.1" xmlns="http://www.w3.org/2000/svg" xmlns:xlink="http://www.w3.org/1999/xlink"><defs xmlns="http://www.w3.org/1999/xhtml"><style type="text/css"><![CDATA[
.link { fill: none; stroke-width: 1.5px; }
.axis, .node { stroke: rgb(0, 0, 0); stroke-width: 1.5px; }]]></style></defs><g transform="translate(320.5,389)"><line class="axis" transform="rotate(-90)" x1="40" x2="240"/><line class="axis" transform="rotate(-88.96551724137932)" x1="40" x2="240"/><line class="axis" transform="rotate(-87.93103448275862)" x1="40" x2="240"/><line class="axis" transform="rotate(-86.89655172413794)" x1="40" x2="240"/><line class="axis" transform="rotate(-85.86206896551724)" x1="40" x2="240"/><line class="axis" transform="rotate(-84.82758620689656)" x1="40" x2="240"/><line class="axis" transform="rotate(-83.79310344827586)" x1="40" x2="240"/><line class="axis" transform="rotate(-82.75862068965517)" x1="40" x2="240"/><line class="axis" transform="rotate(-81.72413793103448)" x1="40" x2="240"/><line class="axis" transform="rotate(-80.6896551724138)" x1="40" x2="240"/><line class="axis" transform="rotate(-79.65517241379311)" x1="40" x2="240"/><line class="axis" transform="rotate(-78.62068965517241)" x1="40" x2="240"/><line class="axis" transform="rotate(-77.58620689655173)" x1="40" x2="240"/><line class="axis" transform="rotate(-76.55172413793103)" x1="40" x2="240"/><line class="axis" transform="rotate(-75.51724137931035)" x1="40" x2="240"/><line class="axis" transform="rotate(-74.48275862068965)" x1="40" x2="240"/><line class="axis" transform="rotate(-73.44827586206897)" x1="40" x2="240"/><line class="axis" transform="rotate(-72.41379310344828)" x1="40" x2="240"/><line class="axis" transform="rotate(-71.37931034482759)" x1="40" x2="240"/><line class="axis" transform="rotate(-70.34482758620689)" x1="40" x2="240"/><line class="axis" transform="rotate(-69.3103448275862)" x1="40" x2="240"/><line class="axis" transform="rotate(-68.27586206896552)" x1="40" x2="240"/><line class="axis" transform="rotate(-67.24137931034483)" x1="40" x2="240"/><line class="axis" transform="rotate(-66.20689655172413)" x1="40" x2="240"/><line class="axis" transform="rotate(-65.17241379310344)" x1="40" x2="240"/><line class="axis" transform="rotate(-64.13793103448276)" x1="40" x2="240"/><line class="axis" transform="rotate(-63.103448275862064)" x1="40" x2="240"/><line class="axis" transform="rotate(-62.06896551724138)" x1="40" x2="240"/><line class="axis" transform="rotate(-61.03448275862069)" x1="40" x2="240"/><line class="axis" transform="rotate(-60)" x1="40" x2="240"/><line class="axis" transform="rotate(-58.96551724137931)" x1="40" x2="240"/><line class="axis" transform="rotate(-57.931034482758626)" x1="40" x2="240"/><line class="axis" transform="rotate(-56.89655172413793)" x1="40" x2="240"/><line class="axis" transform="rotate(-55.86206896551724)" x1="40" x2="240"/><line class="axis" transform="rotate(-54.827586206896555)" x1="40" x2="240"/><line class="axis" transform="rotate(-53.793103448275865)" x1="40" x2="240"/><line class="axis" transform="rotate(-52.758620689655174)" x1="40" x2="240"/><line class="axis" transform="rotate(-51.724137931034484)" x1="40" x2="240"/><line class="axis" transform="rotate(-50.689655172413794)" x1="40" x2="240"/><line class="axis" transform="rotate(-49.65517241379311)" x1="40" x2="240"/><line class="axis" transform="rotate(-48.62068965517241)" x1="40" x2="240"/><line class="axis" transform="rotate(-47.58620689655173)" x1="40" x2="240"/><line class="axis" transform="rotate(-46.55172413793104)" x1="40" x2="240"/><line class="axis" transform="rotate(-45.51724137931034)" x1="40" x2="240"/><line class="axis" transform="rotate(-44.48275862068966)" x1="40" x2="240"/><line class="axis" transform="rotate(-43.44827586206896)" x1="40" x2="240"/><line class="axis" transform="rotate(-42.41379310344827)" x1="40" x2="240"/><line class="axis" transform="rotate(-41.37931034482759)" x1="40" x2="240"/><line class="axis" transform="rotate(-40.3448275862069)" x1="40" x2="240"/><line class="axis" transform="rotate(-39.310344827586206)" x1="40" x2="240"/><line class="axis" transform="rotate(-38.27586206896552)" x1="40" x2="240"/><line class="axis" transform="rotate(-37.24137931034483)" x1="40" x2="240"/><line class="axis" transform="rotate(-36.206896551724135)" x1="40" x2="240"/><line class="axis" transform="rotate(-35.17241379310345)" x1="40" x2="240"/><line class="axis" transform="rotate(-34.137931034482754)" x1="40" x2="240"/><line class="axis" transform="rotate(-33.10344827586207)" x1="40" x2="240"/><line class="axis" transform="rotate(-32.06896551724138)" x1="40" x2="240"/><line class="axis" transform="rotate(-31.03448275862069)" x1="40" x2="240"/><line class="axis" transform="rotate(-30)" x1="40" x2="240"/><line class="axis" transform="rotate(-28.965517241379303)" x1="40" x2="240"/><line class="axis" transform="rotate(-27.93103448275862)" x1="40" x2="240"/><line class="axis" transform="rotate(-26.896551724137936)" x1="40" x2="240"/><line class="axis" transform="rotate(-25.862068965517253)" x1="40" x2="240"/><line class="axis" transform="rotate(-24.827586206896555)" x1="40" x2="240"/><line class="axis" transform="rotate(-23.793103448275858)" x1="40" x2="240"/><line class="axis" transform="rotate(-22.758620689655174)" x1="40" x2="240"/><line class="axis" transform="rotate(-21.724137931034477)" x1="40" x2="240"/><line class="axis" transform="rotate(-20.689655172413794)" x1="40" x2="240"/><line class="axis" transform="rotate(-19.65517241379311)" x1="40" x2="240"/><line class="axis" transform="rotate(-18.620689655172427)" x1="40" x2="240"/><line class="axis" transform="rotate(-17.58620689655173)" x1="40" x2="240"/><line class="axis" transform="rotate(-16.551724137931032)" x1="40" x2="240"/><line class="axis" transform="rotate(-15.517241379310349)" x1="40" x2="240"/><line class="axis" transform="rotate(-14.482758620689651)" x1="40" x2="240"/><line class="axis" transform="rotate(-13.448275862068968)" x1="40" x2="240"/><line class="axis" transform="rotate(-12.413793103448285)" x1="40" x2="240"/><line class="axis" transform="rotate(-11.379310344827587)" x1="40" x2="240"/><line class="axis" transform="rotate(-10.34482758620689)" x1="40" x2="240"/><line class="axis" transform="rotate(-9.31034482758622)" x1="40" x2="240"/><line class="axis" transform="rotate(-8.275862068965523)" x1="40" x2="240"/><line class="axis" transform="rotate(-7.241379310344826)" x1="40" x2="240"/><line class="axis" transform="rotate(-6.206896551724142)" x1="40" x2="240"/><line class="axis" transform="rotate(-5.172413793103459)" x1="40" x2="240"/><line class="axis" transform="rotate(-4.137931034482747)" x1="40" x2="240"/><line class="axis" transform="rotate(-3.1034482758620783)" x1="40" x2="240"/><line class="axis" transform="rotate(-2.068965517241381)" x1="40" x2="240"/><line class="axis" transform="rotate(-1.0344827586206833)" x1="40" x2="240"/><line class="axis" transform="rotate(0)" x1="40" x2="240"/><line class="axis" transform="rotate(1.0344827586206833)" x1="40" x2="240"/><line class="axis" transform="rotate(2.068965517241381)" x1="40" x2="240"/><line class="axis" transform="rotate(3.1034482758620783)" x1="40" x2="240"/><line class="axis" transform="rotate(4.137931034482747)" x1="40" x2="240"/><line class="axis" transform="rotate(5.172413793103459)" x1="40" x2="240"/><line class="axis" transform="rotate(6.2068965517241566)" x1="40" x2="240"/><line class="axis" transform="rotate(7.241379310344826)" x1="40" x2="240"/><line class="axis" transform="rotate(8.275862068965509)" x1="40" x2="240"/><line class="axis" transform="rotate(9.310344827586206)" x1="40" x2="240"/><line class="axis" transform="rotate(10.344827586206904)" x1="40" x2="240"/><line class="axis" transform="rotate(11.379310344827587)" x1="40" x2="240"/><line class="axis" transform="rotate(12.413793103448256)" x1="40" x2="240"/><line class="axis" transform="rotate(13.448275862068954)" x1="40" x2="240"/><line class="axis" transform="rotate(14.482758620689651)" x1="40" x2="240"/><line class="axis" transform="rotate(15.517241379310335)" x1="40" x2="240"/><line class="axis" transform="rotate(16.551724137931032)" x1="40" x2="240"/><line class="axis" transform="rotate(17.58620689655173)" x1="40" x2="240"/><line class="axis" transform="rotate(18.620689655172413)" x1="40" x2="240"/><line class="axis" transform="rotate(19.655172413793096)" x1="40" x2="240"/><line class="axis" transform="rotate(20.689655172413794)" x1="40" x2="240"/><line class="axis" transform="rotate(21.72413793103449)" x1="40" x2="240"/><line class="axis" transform="rotate(22.75862068965516)" x1="40" x2="240"/><line class="axis" transform="rotate(23.793103448275858)" x1="40" x2="240"/><line class="axis" transform="rotate(24.82758620689654)" x1="40" x2="240"/><line class="axis" transform="rotate(25.86206896551724)" x1="40" x2="240"/><line class="axis" transform="rotate(26.896551724137936)" x1="40" x2="240"/><line class="axis" transform="rotate(27.93103448275862)" x1="40" x2="240"/><line class="axis" transform="rotate(28.965517241379317)" x1="40" x2="240"/><line class="axis" transform="rotate(30)" x1="40" x2="240"/><line class="axis" transform="rotate(31.03448275862067)" x1="40" x2="240"/><line class="axis" transform="rotate(32.068965517241395)" x1="40" x2="240"/><line class="axis" transform="rotate(33.103448275862064)" x1="40" x2="240"/><line class="axis" transform="rotate(34.13793103448276)" x1="40" x2="240"/><line class="axis" transform="rotate(35.172413793103445)" x1="40" x2="240"/><line class="axis" transform="rotate(36.20689655172413)" x1="40" x2="240"/><line class="axis" transform="rotate(37.241379310344826)" x1="40" x2="240"/><line class="axis" transform="rotate(38.275862068965495)" x1="40" x2="240"/><line class="axis" transform="rotate(39.31034482758622)" x1="40" x2="240"/><line class="axis" transform="rotate(40.34482758620689)" x1="40" x2="240"/><line class="axis" transform="rotate(41.37931034482759)" x1="40" x2="240"/><line class="axis" transform="rotate(42.413793103448285)" x1="40" x2="240"/><line class="axis" transform="rotate(43.448275862068954)" x1="40" x2="240"/><line class="axis" transform="rotate(44.48275862068965)" x1="40" x2="240"/><line class="axis" transform="rotate(45.51724137931032)" x1="40" x2="240"/><line class="axis" transform="rotate(46.551724137931046)" x1="40" x2="240"/><line class="axis" transform="rotate(47.586206896551715)" x1="40" x2="240"/><line class="axis" transform="rotate(48.62068965517241)" x1="40" x2="240"/><line class="axis" transform="rotate(49.65517241379311)" x1="40" x2="240"/><line class="axis" transform="rotate(50.68965517241378)" x1="40" x2="240"/><line class="axis" transform="rotate(51.72413793103448)" x1="40" x2="240"/><line class="axis" transform="rotate(52.758620689655146)" x1="40" x2="240"/><line class="axis" transform="rotate(53.79310344827587)" x1="40" x2="240"/><line class="axis" transform="rotate(54.82758620689654)" x1="40" x2="240"/><line class="axis" transform="rotate(55.86206896551724)" x1="40" x2="240"/><line class="axis" transform="rotate(56.896551724137936)" x1="40" x2="240"/><line class="axis" transform="rotate(57.931034482758605)" x1="40" x2="240"/><line class="axis" transform="rotate(58.9655172413793)" x1="40" x2="240"/><line class="axis" transform="rotate(60)" x1="40" x2="240"/><line class="axis" transform="rotate(61.0344827586207)" x1="40" x2="240"/><line class="axis" transform="rotate(62.068965517241395)" x1="40" x2="240"/><line class="axis" transform="rotate(63.103448275862064)" x1="40" x2="240"/><line class="axis" transform="rotate(64.13793103448276)" x1="40" x2="240"/><line class="axis" transform="rotate(65.17241379310343)" x1="40" x2="240"/><line class="axis" transform="rotate(66.20689655172413)" x1="40" x2="240"/><line class="axis" transform="rotate(67.24137931034483)" x1="40" x2="240"/><line class="axis" transform="rotate(68.27586206896552)" x1="40" x2="240"/><line class="axis" transform="rotate(69.31034482758622)" x1="40" x2="240"/><line class="axis" transform="rotate(70.34482758620689)" x1="40" x2="240"/><line class="axis" transform="rotate(71.37931034482756)" x1="40" x2="240"/><line class="axis" transform="rotate(72.41379310344826)" x1="40" x2="240"/><line class="axis" transform="rotate(73.44827586206895)" x1="40" x2="240"/><line class="axis" transform="rotate(74.48275862068965)" x1="40" x2="240"/><line class="axis" transform="rotate(75.51724137931035)" x1="40" x2="240"/><line class="axis" transform="rotate(76.55172413793105)" x1="40" x2="240"/><line class="axis" transform="rotate(77.58620689655172)" x1="40" x2="240"/><line class="axis" transform="rotate(78.62068965517238)" x1="40" x2="240"/><line class="axis" transform="rotate(79.65517241379308)" x1="40" x2="240"/><line class="axis" transform="rotate(80.68965517241378)" x1="40" x2="240"/><line class="axis" transform="rotate(81.7241379310345)" x1="40" x2="240"/><line class="axis" transform="rotate(82.75862068965517)" x1="40" x2="240"/><line class="axis" transform="rotate(83.79310344827584)" x1="40" x2="240"/><line class="axis" transform="rotate(84.82758620689654)" x1="40" x2="240"/><line class="axis" transform="rotate(85.86206896551724)" x1="40" x2="240"/><line class="axis" transform="rotate(86.89655172413794)" x1="40" x2="240"/><line class="axis" transform="rotate(87.93103448275863)" x1="40" x2="240"/><line class="axis" transform="rotate(88.96551724137933)" x1="40" x2="240"/><line class="axis" transform="rotate(90)" x1="40" x2="240"/><line class="axis" transform="rotate(91.0344827586207)" x1="40" x2="240"/><line class="axis" transform="rotate(92.06896551724137)" x1="40" x2="240"/><line class="axis" transform="rotate(93.10344827586206)" x1="40" x2="240"/><line class="axis" transform="rotate(94.13793103448276)" x1="40" x2="240"/><line class="axis" transform="rotate(95.17241379310346)" x1="40" x2="240"/><line class="axis" transform="rotate(96.20689655172416)" x1="40" x2="240"/><line class="axis" transform="rotate(97.2413793103448)" x1="40" x2="240"/><line class="axis" transform="rotate(98.2758620689655)" x1="40" x2="240"/><line class="axis" transform="rotate(99.31034482758619)" x1="40" x2="240"/><line class="axis" transform="rotate(100.34482758620692)" x1="40" x2="240"/><line class="axis" transform="rotate(101.37931034482756)" x1="40" x2="240"/><line class="axis" transform="rotate(102.41379310344831)" x1="40" x2="240"/><line class="axis" transform="rotate(103.44827586206895)" x1="40" x2="240"/><line class="axis" transform="rotate(104.48275862068965)" x1="40" x2="240"/><line class="axis" transform="rotate(105.51724137931035)" x1="40" x2="240"/><line class="axis" transform="rotate(106.55172413793102)" x1="40" x2="240"/><line class="axis" transform="rotate(107.58620689655172)" x1="40" x2="240"/><line class="axis" transform="rotate(108.62068965517241)" x1="40" x2="240"/><line class="axis" transform="rotate(109.65517241379311)" x1="40" x2="240"/><line class="axis" transform="rotate(110.68965517241381)" x1="40" x2="240"/><line class="axis" transform="rotate(111.72413793103448)" x1="40" x2="240"/><line class="axis" transform="rotate(112.75862068965517)" x1="40" x2="240"/><line class="axis" transform="rotate(113.79310344827587)" x1="40" x2="240"/><line class="axis" transform="rotate(114.82758620689651)" x1="40" x2="240"/><line class="axis" transform="rotate(115.86206896551727)" x1="40" x2="240"/><line class="axis" transform="rotate(116.89655172413791)" x1="40" x2="240"/><line class="axis" transform="rotate(117.9310344827586)" x1="40" x2="240"/><line class="axis" transform="rotate(118.9655172413793)" x1="40" x2="240"/><line class="axis" transform="rotate(119.99999999999997)" x1="40" x2="240"/><line class="axis" transform="rotate(121.03448275862067)" x1="40" x2="240"/><line class="axis" transform="rotate(122.06896551724137)" x1="40" x2="240"/><line class="axis" transform="rotate(123.10344827586206)" x1="40" x2="240"/><line class="axis" transform="rotate(124.13793103448276)" x1="40" x2="240"/><line class="axis" transform="rotate(125.17241379310346)" x1="40" x2="240"/><line class="axis" transform="rotate(126.20689655172413)" x1="40" x2="240"/><line class="axis" transform="rotate(127.24137931034483)" x1="40" x2="240"/><line class="axis" transform="rotate(128.27586206896552)" x1="40" x2="240"/><line class="axis" transform="rotate(129.3103448275862)" x1="40" x2="240"/><line class="axis" transform="rotate(130.34482758620692)" x1="40" x2="240"/><line class="axis" transform="rotate(131.3793103448276)" x1="40" x2="240"/><line class="axis" transform="rotate(132.41379310344828)" x1="40" x2="240"/><line class="axis" transform="rotate(133.44827586206898)" x1="40" x2="240"/><line class="axis" transform="rotate(134.48275862068962)" x1="40" x2="240"/><line class="axis" transform="rotate(135.51724137931032)" x1="40" x2="240"/><line class="axis" transform="rotate(136.55172413793102)" x1="40" x2="240"/><line class="axis" transform="rotate(137.58620689655172)" x1="40" x2="240"/><line class="axis" transform="rotate(138.6206896551724)" x1="40" x2="240"/><line class="axis" transform="rotate(139.65517241379308)" x1="40" x2="240"/><line class="axis" transform="rotate(140.68965517241378)" x1="40" x2="240"/><line class="axis" transform="rotate(141.72413793103448)" x1="40" x2="240"/><line class="axis" transform="rotate(142.75862068965515)" x1="40" x2="240"/><line class="axis" transform="rotate(143.79310344827587)" x1="40" x2="240"/><line class="axis" transform="rotate(144.82758620689654)" x1="40" x2="240"/><line class="axis" transform="rotate(145.86206896551724)" x1="40" x2="240"/><line class="axis" transform="rotate(146.89655172413788)" x1="40" x2="240"/><line class="axis" transform="rotate(147.93103448275863)" x1="40" x2="240"/><line class="axis" transform="rotate(148.96551724137933)" x1="40" x2="240"/><line class="axis" transform="rotate(150)" x1="40" x2="240"/><line class="axis" transform="rotate(151.0344827586207)" x1="40" x2="240"/><line class="axis" transform="rotate(152.06896551724134)" x1="40" x2="240"/><line class="axis" transform="rotate(153.1034482758621)" x1="40" x2="240"/><line class="axis" transform="rotate(154.1379310344828)" x1="40" x2="240"/><line class="axis" transform="rotate(155.17241379310343)" x1="40" x2="240"/><line class="axis" transform="rotate(156.20689655172413)" x1="40" x2="240"/><line class="axis" transform="rotate(157.2413793103448)" x1="40" x2="240"/><line class="axis" transform="rotate(158.27586206896552)" x1="40" x2="240"/><line class="axis" transform="rotate(159.3103448275862)" x1="40" x2="240"/><line class="axis" transform="rotate(160.3448275862069)" x1="40" x2="240"/><line class="axis" transform="rotate(161.3793103448276)" x1="40" x2="240"/><line class="axis" transform="rotate(162.41379310344826)" x1="40" x2="240"/><line class="axis" transform="rotate(163.44827586206898)" x1="40" x2="240"/><line class="axis" transform="rotate(164.48275862068965)" x1="40" x2="240"/><line class="axis" transform="rotate(165.51724137931035)" x1="40" x2="240"/><line class="axis" transform="rotate(166.551724137931)" x1="40" x2="240"/><line class="axis" transform="rotate(167.5862068965517)" x1="40" x2="240"/><line class="axis" transform="rotate(168.62068965517244)" x1="40" x2="240"/><line class="axis" transform="rotate(169.65517241379308)" x1="40" x2="240"/><line class="axis" transform="rotate(170.68965517241378)" x1="40" x2="240"/><line class="axis" transform="rotate(171.72413793103448)" x1="40" x2="240"/><line class="axis" transform="rotate(172.75862068965517)" x1="40" x2="240"/><line class="axis" transform="rotate(173.79310344827587)" x1="40" x2="240"/><line class="axis" transform="rotate(174.82758620689657)" x1="40" x2="240"/><line class="axis" transform="rotate(175.86206896551727)" x1="40" x2="240"/><line class="axis" transform="rotate(176.8965517241379)" x1="40" x2="240"/><line class="axis" transform="rotate(177.93103448275866)" x1="40" x2="240"/><line class="axis" transform="rotate(178.9655172413793)" x1="40" x2="240"/><line class="axis" transform="rotate(180)" x1="40" x2="240"/><line class="axis" transform="rotate(181.03448275862064)" x1="40" x2="240"/><line class="axis" transform="rotate(182.06896551724134)" x1="40" x2="240"/><line class="axis" transform="rotate(183.1034482758621)" x1="40" x2="240"/><line class="axis" transform="rotate(184.13793103448273)" x1="40" x2="240"/><line class="axis" transform="rotate(185.17241379310343)" x1="40" x2="240"/><line class="axis" transform="rotate(186.20689655172413)" x1="40" x2="240"/><line class="axis" transform="rotate(187.24137931034483)" x1="40" x2="240"/><line class="axis" transform="rotate(188.27586206896547)" x1="40" x2="240"/><line class="axis" transform="rotate(189.31034482758622)" x1="40" x2="240"/><line class="axis" transform="rotate(190.34482758620692)" x1="40" x2="240"/><line class="axis" transform="rotate(191.37931034482756)" x1="40" x2="240"/><line class="axis" transform="rotate(192.4137931034483)" x1="40" x2="240"/><line class="axis" transform="rotate(193.44827586206895)" x1="40" x2="240"/><line class="axis" transform="rotate(194.48275862068965)" x1="40" x2="240"/><line class="axis" transform="rotate(195.5172413793103)" x1="40" x2="240"/><line class="axis" transform="rotate(196.551724137931)" x1="40" x2="240"/><line class="axis" transform="rotate(197.58620689655174)" x1="40" x2="240"/><line class="axis" transform="rotate(198.62068965517238)" x1="40" x2="240"/><line class="axis" transform="rotate(199.65517241379308)" x1="40" x2="240"/><line class="axis" transform="rotate(200.68965517241378)" x1="40" x2="240"/><line class="axis" transform="rotate(201.72413793103448)" x1="40" x2="240"/><line class="axis" transform="rotate(202.75862068965523)" x1="40" x2="240"/><line class="axis" transform="rotate(203.79310344827587)" x1="40" x2="240"/><line class="axis" transform="rotate(204.82758620689657)" x1="40" x2="240"/><line class="axis" transform="rotate(205.8620689655172)" x1="40" x2="240"/><line class="axis" transform="rotate(206.8965517241379)" x1="40" x2="240"/><line class="axis" transform="rotate(207.9310344827586)" x1="40" x2="240"/><line class="axis" transform="rotate(208.9655172413793)" x1="40" x2="240"/><line class="axis" transform="rotate(210)" x1="40" x2="240"/><line class="axis" transform="rotate(211.0344827586207)" x1="40" x2="240"/><line class="axis" transform="rotate(212.0689655172414)" x1="40" x2="240"/><line class="axis" transform="rotate(213.1034482758621)" x1="40" x2="240"/><line class="axis" transform="rotate(214.1379310344828)" x1="40" x2="240"/><line class="axis" transform="rotate(215.17241379310343)" x1="40" x2="240"/><line class="axis" transform="rotate(216.20689655172413)" x1="40" x2="240"/><line class="axis" transform="rotate(217.24137931034488)" x1="40" x2="240"/><line class="axis" transform="rotate(218.27586206896552)" x1="40" x2="240"/><line class="axis" transform="rotate(219.31034482758622)" x1="40" x2="240"/><line class="axis" transform="rotate(220.34482758620686)" x1="40" x2="240"/><line class="axis" transform="rotate(221.37931034482756)" x1="40" x2="240"/><line class="axis" transform="rotate(222.41379310344826)" x1="40" x2="240"/><line class="axis" transform="rotate(223.44827586206895)" x1="40" x2="240"/><line class="axis" transform="rotate(224.48275862068965)" x1="40" x2="240"/><line class="axis" transform="rotate(225.51724137931035)" x1="40" x2="240"/><line class="axis" transform="rotate(226.55172413793105)" x1="40" x2="240"/><line class="axis" transform="rotate(227.5862068965517)" x1="40" x2="240"/><line class="axis" transform="rotate(228.62068965517244)" x1="40" x2="240"/><line class="axis" transform="rotate(229.65517241379308)" x1="40" x2="240"/><line class="axis" transform="rotate(230.68965517241378)" x1="40" x2="240"/><line class="axis" transform="rotate(231.72413793103448)" x1="40" x2="240"/><line class="axis" transform="rotate(232.75862068965512)" x1="40" x2="240"/><line class="axis" transform="rotate(233.79310344827587)" x1="40" x2="240"/><line class="axis" transform="rotate(234.8275862068965)" x1="40" x2="240"/><line class="axis" transform="rotate(235.8620689655172)" x1="40" x2="240"/><line class="axis" transform="rotate(236.8965517241379)" x1="40" x2="240"/><line class="axis" transform="rotate(237.9310344827586)" x1="40" x2="240"/><line class="axis" transform="rotate(238.9655172413793)" x1="40" x2="240"/><line class="axis" transform="rotate(240)" x1="40" x2="240"/><line class="axis" transform="rotate(241.0344827586207)" x1="40" x2="240"/><line class="axis" transform="rotate(242.06896551724134)" x1="40" x2="240"/><line class="axis" transform="rotate(243.1034482758621)" x1="40" x2="240"/><line class="axis" transform="rotate(244.13793103448273)" x1="40" x2="240"/><line class="axis" transform="rotate(245.17241379310343)" x1="40" x2="240"/><line class="axis" transform="rotate(246.20689655172413)" x1="40" x2="240"/><line class="axis" transform="rotate(247.24137931034477)" x1="40" x2="240"/><line class="axis" transform="rotate(248.27586206896552)" x1="40" x2="240"/><line class="axis" transform="rotate(249.31034482758616)" x1="40" x2="240"/><line class="axis" transform="rotate(250.34482758620692)" x1="40" x2="240"/><line class="axis" transform="rotate(251.37931034482756)" x1="40" x2="240"/><line class="axis" transform="rotate(252.41379310344826)" x1="40" x2="240"/><line class="axis" transform="rotate(253.448275862069)" x1="40" x2="240"/><line class="axis" transform="rotate(254.48275862068965)" x1="40" x2="240"/><line class="axis" transform="rotate(255.51724137931035)" x1="40" x2="240"/><line class="axis" transform="rotate(256.551724137931)" x1="40" x2="240"/><line class="axis" transform="rotate(257.5862068965517)" x1="40" x2="240"/><line class="axis" transform="rotate(258.62068965517244)" x1="40" x2="240"/><line class="axis" transform="rotate(259.6551724137931)" x1="40" x2="240"/><line class="axis" transform="rotate(260.6896551724138)" x1="40" x2="240"/><line class="axis" transform="rotate(261.7241379310345)" x1="40" x2="240"/><line class="axis" transform="rotate(262.7586206896552)" x1="40" x2="240"/><line class="axis" transform="rotate(263.7931034482759)" x1="40" x2="240"/><line class="axis" transform="rotate(264.82758620689657)" x1="40" x2="240"/><line class="axis" transform="rotate(265.86206896551727)" x1="40" x2="240"/><line class="axis" transform="rotate(266.8965517241379)" x1="40" x2="240"/><line class="axis" transform="rotate(267.93103448275866)" x1="40" x2="240"/><line class="axis" transform="rotate(268.9655172413793)" x1="40" x2="240"/><path class="link" d="M-65.79058334271386,15.732119049578785C-66.7542769282461,10.943808210660842 -169.84820872378668,15.374947352422371 -170.51487546305628,3.0790028559877953" style="stroke: rgb(31, 119, 180); stroke-opacity: 0.4;"/><path class="link" d="M66.96144746775836,-187.478123576181C-118.56029977202871,-159.92291138104585 -167.72588703409798,8.081746430626227 -86.57205147512617,143.8838688322358" style="stroke: rgb(23, 190, 207); stroke-opacity: 0.4;"/><path class="link" d="M72.47589148155716,-3.929528655864969C44.61727299851437,57.249410404647435 -28.62480476270467,92.23593746077728 -92.06199321447565,29.179393625454534" style="stroke: rgb(255, 127, 14); stroke-opacity: 0.4;"/><path class="link" d="M143.76014922547992,-63.38511160187294C155.6106921753711,-21.678684434624852 157.3706356051118,21.923868475019336 145.38606404245655,64.10199171562103" style="stroke: rgb(44, 160, 44); stroke-opacity: 0.4;"/><path class="link" d="M40.660590895148566,184.72292672676053C-90.60214801963005,166.03341255503912 -83.67467052711194,31.02664620317521 -83.4864262291875,-31.529666949020825" style="stroke: rgb(214, 39, 40); stroke-opacity: 0.4;"/><path class="link" d="M107.91032406828126,17.690999661683442C54.104496796212715,95.02795870679203 -35.205724775180094,89.92999805418461 -92.06199321447565,29.179393625454534" style="stroke: rgb(148, 103, 189); stroke-opacity: 0.4;"/><path class="link" d="M53.781218300339866,-208.21499690984476C134.22511959051934,-168.01643268128944 64.53194376586262,-33.223851000497504 72.47589148155716,-3.929528655864969" style="stroke: rgb(148, 103, 189); stroke-opacity: 0.4;"/><path class="link" d="M66.96144746775836,-187.478123576181C7.187181004293504,-198.94779892181435 -11.97388442936145,-43.126034108259766 -24.44438402336458,-37.492676830986184" style="stroke: rgb(23, 190, 207); stroke-opacity: 0.4;"/><path class="link" d="M-65.79058334271386,15.732119049578785C-66.61771645167185,-11.746500803615877 -37.34488320066157,-24.669585018062925 -24.44438402336458,-37.492676830986184" style="stroke: rgb(140, 86, 75); stroke-opacity: 0.4;"/><path class="link" d="M-92.06199321447565,29.179393625454534C-95.73031320385914,12.7496957164636 -165.456810332776,-6.974596632032806 -161.73202360927382,-35.59991043422826" style="stroke: rgb(148, 103, 189); stroke-opacity: 0.4;"/><path class="link" d="M-170.51487546305628,3.0790028559877953C-157.6589014248822,-65.02671615780734 -57.48403828530469,-59.24039992980509 -29.163987024073606,-77.22241580195023" style="stroke: rgb(31, 119, 180); stroke-opacity: 0.4;"/><path class="link" d="M-92.06199321447565,29.179393625454534C-96.23299938017834,8.127572655225647 -88.38821502161476,-12.313679699039461 -83.4864262291875,-31.529666949020825" style="stroke: rgb(148, 103, 189); stroke-opacity: 0.4;"/><path class="link" d="M-116.31979601908573,69.98729913414986C-126.70580390286966,48.72531419439211 -167.3897081249554,32.64182327338677 -170.51487546305628,3.0790028559877953" style="stroke: rgb(227, 119, 194); stroke-opacity: 0.4;"/><path class="link" d="M-170.51487546305628,3.0790028559877953C-157.6589014248822,-65.02671615780734 -57.48403828530469,-59.24039992980509 -29.163987024073606,-77.22241580195023" style="stroke: rgb(31, 119, 180); stroke-opacity: 0.4;"/><path class="link" d="M-86.57205147512617,143.8838688322358C-145.92606965382174,83.08351221591384 -98.81573182689331,0.5947174814951116 -86.45656866567457,-47.855660897377554" style="stroke: rgb(127, 127, 127); stroke-opacity: 0.4;"/><path class="link" d="M38.14035897463008,-137.36915799920487C130.448769422009,-57.516007410178254 168.6842226666299,85.56562588912448 40.660590895148566,184.72292672676053" style="stroke: rgb(188, 189, 34); stroke-opacity: 0.4;"/><path class="link" d="M53.781218300339866,-208.21499690984476C145.99891449917848,-157.89306933838816 103.41467213869652,-35.5389236752757 107.91032406828126,17.690999661683442" style="stroke: rgb(23, 190, 207); stroke-opacity: 0.4;"/><path class="link" d="M132.0972768841161,-34.12027274894712C136.37094041101955,-4.104897571868928 155.95290369948572,30.4115896882383 145.38606404245655,64.10199171562103" style="stroke: rgb(31, 119, 180); stroke-opacity: 0.4;"/><path class="link" d="M-86.57205147512617,143.8838688322358C-87.43642572344487,143.3602429666344 -66.03848466532668,106.82473039803456 -66.68019627423038,106.42535368198439" style="stroke: rgb(255, 127, 14); stroke-opacity: 0.4;"/><path class="link" d="M-142.01387592788276,-65.70261543009677C-140.3911874012953,-69.10201972786072 -87.58345993797249,-45.760682803700185 -86.45656866567457,-47.855660897377554" style="stroke: rgb(44, 160, 44); stroke-opacity: 0.4;"/><path class="link" d="M132.0972768841161,-34.12027274894716C86.43292776884223,-105.56151083594571 2.423119128603033,-44.69180260319657 -24.44438402336458,-37.492676830986184" style="stroke: rgb(31, 119, 180); stroke-opacity: 0.4;"/><path class="link" d="M38.14035897462998,-137.36915799920487C-41.435945665945354,-136.4112713777457 -104.20434145461923,-89.59714506977045 -135.9959524890466,-19.7811549016064" style="stroke: rgb(214, 39, 40); stroke-opacity: 0.4;"/><path class="link" d="M38.14035897463008,-137.36915799920487C82.82323298999997,-116.04001305243092 112.46101573801106,-77.24249809422408 132.0972768841161,-34.12027274894712" style="stroke: rgb(140, 86, 75); stroke-opacity: 0.4;"/><path class="link" d="M53.78121830033982,-208.21499690984479C-64.97487619432606,-204.997975218214 -104.7416803927973,-88.96838523395523 -135.9959524890466,-19.7811549016064" style="stroke: rgb(148, 103, 189); stroke-opacity: 0.4;"/><path class="link" d="M-66.68019627423038,106.42535368198439C-91.69520749965827,85.81720924791234 -59.57374994589336,32.044792771195596 -65.79058334271386,15.732119049578785" style="stroke: rgb(255, 127, 14); stroke-opacity: 0.4;"/><path class="link" d="M138.56529696041855,-169.23136209955072C179.54380520857967,-124.91444052239045 68.64215977502614,-23.58919123080518 72.47589148155716,-3.929528655864969" style="stroke: rgb(148, 103, 189); stroke-opacity: 0.4;"/><path class="link" d="M-66.68019627423038,106.42535368198439C-108.38340199269895,63.44795232310006 -156.294783865557,7.530947273357756 -142.01387592788276,-65.70261543009677" style="stroke: rgb(44, 160, 44); stroke-opacity: 0.4;"/><path class="link" d="M38.14035897462998,-137.36915799920487C-90.31829105646433,-110.30674889943928 -167.4827507890535,12.116765033445606 -86.57205147512617,143.8838688322358" style="stroke: rgb(140, 86, 75); stroke-opacity: 0.4;"/><path class="link" d="M66.96144746775836,-187.478123576181C28.655090178337367,-197.00448744506943 -10.710245902936254,-197.53886223566153 -49.47478816850341,-191.54257175975982" style="stroke: rgb(227, 119, 194); stroke-opacity: 0.4;"/><path class="link" d="M38.14035897463008,-137.36915799920487C130.448769422009,-57.516007410178254 168.6842226666299,85.56562588912448 40.660590895148566,184.72292672676053" style="stroke: rgb(188, 189, 34); stroke-opacity: 0.4;"/><path class="link" d="M132.0972768841161,-34.12027274894712C97.33946117791787,95.59766142670017 -22.4603428769382,93.92752847180505 -92.06199321447565,29.179393625454534" style="stroke: rgb(31, 119, 180); stroke-opacity: 0.4;"/><path class="link" d="M143.76014922547992,-63.38511160187294C150.33108258661366,-45.66419260701857 71.47965090345043,-12.603791025900517 72.47589148155716,-3.929528655864969" style="stroke: rgb(127, 127, 127); stroke-opacity: 0.4;"/><path class="link" d="M-135.9959524890466,-19.7811549016064C-132.63669981945333,-35.96802807562005 -91.57738678729409,-37.12795139214696 -86.45656866567457,-47.855660897377554" style="stroke: rgb(127, 127, 127); stroke-opacity: 0.4;"/><path class="link" d="M-66.68019627423038,106.42535368198439C-118.27145920097087,42.242945209566514 -42.41453302944709,-14.29112011454774 -24.44438402336458,-37.492676830986184" style="stroke: rgb(140, 86, 75); stroke-opacity: 0.4;"/><path class="link" d="M38.14035897463008,-137.36915799920487C98.04233963223129,-103.50203955266952 103.62668460034972,-34.91589535284482 107.91032406828126,17.690999661683442" style="stroke: rgb(23, 190, 207); stroke-opacity: 0.4;"/><path class="link" d="M132.0972768841161,-34.12027274894716C56.54036054374493,-124.16549924292461 -74.02579227382518,-148.13771687827602 -161.73202360927382,-35.59991043422826" style="stroke: rgb(31, 119, 180); stroke-opacity: 0.4;"/><path class="link" d="M107.91032406828126,17.690999661683442C39.24927491467549,102.06421472888228 -85.77670808227958,107.37108331954072 -135.9959524890466,-19.7811549016064" style="stroke: rgb(214, 39, 40); stroke-opacity: 0.4;"/><path class="link" d="M53.781218300339866,-208.21499690984476C145.99891449917848,-157.89306933838816 103.41467213869652,-35.5389236752757 107.91032406828126,17.690999661683442" style="stroke: rgb(23, 190, 207); stroke-opacity: 0.4;"/><path class="link" d="M66.9614474677584,-187.478123576181C87.9154159696901,-178.613442667397 118.35104357420265,-183.93647252433493 138.56529696041855,-169.23136209955072" style="stroke: rgb(148, 103, 189); stroke-opacity: 0.4;"/><path class="link" d="M-83.4864262291875,-31.529666949020825C-81.87220565179935,-35.511198292189725 -88.65959609181678,-43.63918613131093 -86.45656866567457,-47.855660897377554" style="stroke: rgb(214, 39, 40); stroke-opacity: 0.4;"/><path class="link" d="M-135.9959524890466,-19.7811549016064C-132.63669981945333,-35.96802807562005 -91.57738678729409,-37.12795139214696 -86.45656866567457,-47.855660897377554" style="stroke: rgb(214, 39, 40); stroke-opacity: 0.4;"/><path class="link" d="M107.91032406828126,17.690999661683442C106.03867503589686,26.709715576595553 150.26497124182194,51.63924261025961 145.38606404245655,64.10199171562103" style="stroke: rgb(23, 190, 207); stroke-opacity: 0.4;"/><path class="link" d="M-92.06199321447565,29.179393625454534C-95.73031320385914,12.7496957164636 -165.456810332776,-6.974596632032806 -161.73202360927382,-35.59991043422826" style="stroke: rgb(188, 189, 34); stroke-opacity: 0.4;"/><path class="link" d="M38.14035897463008,-137.36915799920487C76.41948592479548,-120.35378981616716 119.13163759776346,-102.43195693429516 143.76014922547992,-63.38511160187294" style="stroke: rgb(127, 127, 127); stroke-opacity: 0.4;"/><path class="link" d="M138.56529696041855,-169.23136209955072C217.14009271343033,26.26357889171063 54.10157924471972,113.33853539168692 -66.68019627423038,106.42535368198439" style="stroke: rgb(148, 103, 189); stroke-opacity: 0.4;"/><path class="link" d="M107.91032406828126,17.690999661683442C39.24927491467549,102.06421472888228 -85.77670808227958,107.37108331954072 -135.9959524890466,-19.7811549016064" style="stroke: rgb(214, 39, 40); stroke-opacity: 0.4;"/><path class="link" d="M40.660590895148566,184.72292672676053C-123.31528118287956,143.4196107135636 -44.65939930809596,-2.9608748157474176 -24.44438402336458,-37.492676830986184" style="stroke: rgb(188, 189, 34); stroke-opacity: 0.4;"/><path class="link" d="M132.0972768841161,-34.12027274894712C131.01088460898356,38.07928159292107 129.24615165249025,138.09878925415774 40.660590895148566,184.72292672676053" style="stroke: rgb(31, 119, 180); stroke-opacity: 0.4;"/><path class="link" d="M40.660590895148566,184.72292672676053C-7.966065556195965,188.9772079114229 -37.22432225716079,119.94563065822948 -66.68019627423038,106.42535368198439" style="stroke: rgb(255, 127, 14); stroke-opacity: 0.4;"/><path class="link" d="M-116.31979601908573,69.98729913414986C-122.85960188381557,57.741105037616215 -63.839757113143094,22.369305713400998 -65.79058334271386,15.732119049578785" style="stroke: rgb(23, 190, 207); stroke-opacity: 0.4;"/><path class="link" d="M38.14035897462998,-137.36915799920487C-89.65279179516718,-110.8483174227582 -125.36165162037571,7.553858915607738 -66.68019627423038,106.42535368198439" style="stroke: rgb(140, 86, 75); stroke-opacity: 0.4;"/><path class="link" d="M138.56529696041852,-169.23136209955075C11.84140528371106,-218.40186940753304 -48.739634655240394,-74.7566135944602 -83.4864262291875,-31.529666949020825" style="stroke: rgb(148, 103, 189); stroke-opacity: 0.4;"/><path class="link" d="M132.0972768841161,-34.12027274894712C97.33946117791787,95.59766142670017 -22.4603428769382,93.92752847180505 -92.06199321447565,29.179393625454534" style="stroke: rgb(31, 119, 180); stroke-opacity: 0.4;"/><path class="link" d="M72.47589148155716,-3.9295286558650027C58.04560626143914,-43.576411454429 65.41904019212585,-186.69938575421733 -49.47478816850341,-191.54257175975982" style="stroke: rgb(255, 127, 14); stroke-opacity: 0.4;"/><path class="link" d="M107.91032406828126,17.690999661683442C74.72137658409021,79.83937243572083 12.074792670141033,125.00721524567477 -66.68019627423038,106.42535368198439" style="stroke: rgb(23, 190, 207); stroke-opacity: 0.4;"/><path class="link" d="M66.96144746775836,-187.478123576181C-77.01310373045003,-183.57795107372263 -87.64964582921846,-40.551044289684405 -92.06199321447565,29.179393625454534" style="stroke: rgb(23, 190, 207); stroke-opacity: 0.4;"/><path class="link" d="M38.14035897462998,-137.36915799920487C-61.41482517508706,-128.65920799086882 -88.6003606499538,-38.42946395240892 -92.06199321447565,29.179393625454534" style="stroke: rgb(140, 86, 75); stroke-opacity: 0.4;"/><path class="link" d="M40.660590895148566,184.72292672676053C-133.34266404142565,134.14759504656902 -80.72144089498954,-17.259450201739867 -29.163987024073606,-77.22241580195023" style="stroke: rgb(188, 189, 34); stroke-opacity: 0.4;"/><path class="link" d="M-24.44438402336458,-37.492676830986184C-20.24741857983202,-39.91579595958927 -69.89415968554341,-185.07057546382887 -49.47478816850341,-191.54257175975982" style="stroke: rgb(227, 119, 194); stroke-opacity: 0.4;"/><path class="link" d="M107.91032406828127,17.690999661683414C94.03565949317382,-55.81132728429805 27.296701868570075,-77.90205201744067 -29.163987024073606,-77.22241580195023" style="stroke: rgb(31, 119, 180); stroke-opacity: 0.4;"/><path class="link" d="M40.660590895148566,184.72292672676053C-94.57251623812643,163.80440312406773 -149.1629584848342,47.27775847549135 -142.01387592788276,-65.70261543009677" style="stroke: rgb(188, 189, 34); stroke-opacity: 0.4;"/><path class="link" d="M145.38606404245655,64.10199171562103C20.02809448870877,157.62312137125753 -70.05817045182503,55.280702015990826 -83.4864262291875,-31.529666949020825" style="stroke: rgb(44, 160, 44); stroke-opacity: 0.4;"/><path class="link" d="M-161.73202360927382,-35.59991043422826C-138.17707508354047,-91.27812993830122 -114.92834189070194,-161.02107840563903 -49.47478816850341,-191.54257175975982" style="stroke: rgb(227, 119, 194); stroke-opacity: 0.4;"/><path class="link" d="M38.14035897463008,-137.36915799920487C76.41948592479548,-120.35378981616716 119.13163759776346,-102.43195693429516 143.76014922547992,-63.38511160187294" style="stroke: rgb(140, 86, 75); stroke-opacity: 0.4;"/><path class="link" d="M132.0972768841161,-34.12027274894712C132.0972768841161,-34.12027274894712 130.71836734681224,-33.76410515322745 130.71836734681224,-33.76410515322745" style="stroke: rgb(31, 119, 180); stroke-opacity: 0.4;"/><path class="link" d="M-86.45656866567457,-47.855660897377554C-72.95628347370501,-66.65045571540895 -46.32373908574784,-68.32240363559515 -29.163987024073606,-77.22241580195023" style="stroke: rgb(31, 119, 180); stroke-opacity: 0.4;"/><path class="link" d="M143.76014922547992,-63.38511160187294C26.350782092698207,-154.88798907990667 -49.38933900318124,-46.22330169074402 -65.79058334271386,15.732119049578785" style="stroke: rgb(23, 190, 207); stroke-opacity: 0.4;"/><path class="link" d="M107.91032406828126,17.690999661683442C39.24927491467549,102.06421472888228 -85.77670808227958,107.37108331954072 -135.9959524890466,-19.7811549016064" style="stroke: rgb(23, 190, 207); stroke-opacity: 0.4;"/><path class="link" d="M-24.44438402336458,-37.492676830986184C-20.24741857983202,-39.91579595958927 -69.89415968554341,-185.07057546382887 -49.47478816850341,-191.54257175975982" style="stroke: rgb(140, 86, 75); stroke-opacity: 0.4;"/><path class="link" d="M145.38606404245658,64.10199171562095C128.76952695275125,-93.08373589425543 -15.044440166882575,-155.75121010920063 -142.01387592788276,-65.70261543009677" style="stroke: rgb(44, 160, 44); stroke-opacity: 0.4;"/><path class="link" d="M-83.4864262291875,-31.529666949020825C-71.36854272144944,-53.57830131923173 -49.55830605418129,-66.01374055808174 -29.163987024073606,-77.22241580195023" style="stroke: rgb(214, 39, 40); stroke-opacity: 0.4;"/><path class="link" d="M107.91032406828126,17.690999661683442C61.36628546445874,90.50849969945213 -29.182597112997392,132.5778752724419 -116.31979601908573,69.98729913414986" style="stroke: rgb(227, 119, 194); stroke-opacity: 0.4;"/><path class="link" d="M40.660590895148566,184.72292672676053C-6.8285921228473905,189.02172795756195 -47.837322465248185,160.96235083428607 -86.57205147512617,143.8838688322358" style="stroke: rgb(140, 86, 75); stroke-opacity: 0.4;"/><path class="link" d="M-116.31979601908573,69.98729913414986C-121.43410632689462,60.68175019396804 -89.49973105242786,36.28561351988493 -92.06199321447565,29.179393625454534" style="stroke: rgb(227, 119, 194); stroke-opacity: 0.4;"/><path class="link" d="M72.47589148155716,-3.9295286558650027C38.536842395838825,-61.50697374820186 -64.06376175471372,-152.7102993039797 -161.73202360927382,-35.59991043422826" style="stroke: rgb(188, 189, 34); stroke-opacity: 0.4;"/><path class="link" d="M53.78121830033982,-208.21499690984479C-50.013307899521,-209.15203420713647 -58.99250098986697,-66.96258723644337 -83.4864262291875,-31.529666949020825" style="stroke: rgb(148, 103, 189); stroke-opacity: 0.4;"/><path class="link" d="M107.91032406828127,17.690999661683414C94.03565949317382,-55.81132728429805 27.296701868570075,-77.90205201744067 -29.163987024073606,-77.22241580195023" style="stroke: rgb(23, 190, 207); stroke-opacity: 0.4;"/><path class="link" d="M-170.51487546305628,3.0790028559877953C-170.43149456267938,-6.15700202210137 -136.867432845755,-12.38947169402768 -135.9959524890466,-19.7811549016064" style="stroke: rgb(214, 39, 40); stroke-opacity: 0.4;"/><path class="link" d="M138.56529696041855,-169.23136209955072C217.29422338289012,24.956280256177443 74.15600999629609,150.6591317782403 -86.57205147512617,143.8838688322358" style="stroke: rgb(148, 103, 189); stroke-opacity: 0.4;"/><path class="link" d="M107.91032406828126,17.690999661683442C51.80138459678896,96.3027832588795 -27.662551314663023,61.73073530364216 -65.79058334271386,15.732119049578785" style="stroke: rgb(23, 190, 207); stroke-opacity: 0.4;"/><path class="link" d="M-170.51487546305628,3.0790028559877953C-169.04997184559832,-22.51466259509977 -150.25776960623273,-43.67353092406832 -142.01387592788276,-65.70261543009677" style="stroke: rgb(31, 119, 180); stroke-opacity: 0.4;"/><path class="link" d="M38.14035897463008,-137.36915799920487C98.04233963223129,-103.50203955266952 103.62668460034972,-34.91589535284482 107.91032406828126,17.690999661683442" style="stroke: rgb(23, 190, 207); stroke-opacity: 0.4;"/><path class="link" d="M130.71836734681224,-33.764105153227476C61.79883003014666,-120.03420748069857 -32.03154566670934,-83.29515799036135 -83.4864262291875,-31.529666949020825" style="stroke: rgb(214, 39, 40); stroke-opacity: 0.4;"/><path class="link" d="M-161.73202360927382,-35.59991043422826C-141.38235757714097,-86.2300994410028 -52.67801237277235,-63.55207828138802 -29.163987024073606,-77.22241580195023" style="stroke: rgb(31, 119, 180); stroke-opacity: 0.4;"/><path class="link" d="M145.38606404245658,64.10199171562095C130.97285113752864,-89.95712992627985 -4.755930595103064,-98.70300739866975 -86.45656866567457,-47.855660897377554" style="stroke: rgb(44, 160, 44); stroke-opacity: 0.4;"/><path class="link" d="M66.9614474677584,-187.478123576181C133.3868801913807,-147.78302493667334 65.50234582096768,-31.2672149935691 72.47589148155716,-3.929528655864969" style="stroke: rgb(255, 127, 14); stroke-opacity: 0.4;"/><path class="link" d="M66.96144746775836,-187.478123576181C-59.006172201774035,-190.1319381606303 -138.21283875255412,-99.91003061119159 -170.51487546305628,3.0790028559877953" style="stroke: rgb(23, 190, 207); stroke-opacity: 0.4;"/><path class="link" d="M66.9614474677584,-187.478123576181C143.70286290103562,-137.7728908772307 104.43712533390021,-32.411361611977725 107.91032406828126,17.690999661683442" style="stroke: rgb(23, 190, 207); stroke-opacity: 0.4;"/><path class="link" d="M138.56529696041852,-169.23136209955075C-15.782535206634996,-218.15248571182852 -125.91045948988385,-115.02764538933711 -170.51487546305628,3.0790028559877953" style="stroke: rgb(148, 103, 189); stroke-opacity: 0.4;"/><path class="link" d="M143.76014922547992,-63.38511160187294C153.23422991762394,-34.69760308244521 109.30134905573088,-3.2900766174126543 107.91032406828126,17.690999661683442" style="stroke: rgb(23, 190, 207); stroke-opacity: 0.4;"/><path class="link" d="M-170.51487546305628,3.0790028559877953C-170.23390523257024,-10.257705495727135 -164.01972591403901,-22.850177127525704 -161.73202360927382,-35.59991043422826" style="stroke: rgb(188, 189, 34); stroke-opacity: 0.4;"/><path class="link" d="M-135.9959524890466,-19.7811549016064C-135.4803914959776,-23.049006545641006 -162.54209320520332,-31.69651432171647 -161.73202360927382,-35.59991043422826" style="stroke: rgb(188, 189, 34); stroke-opacity: 0.4;"/><path class="link" d="M107.91032406828126,17.690999661683442C61.36628546445874,90.50849969945213 -29.182597112997392,132.5778752724419 -116.31979601908573,69.98729913414986" style="stroke: rgb(227, 119, 194); stroke-opacity: 0.4;"/><path class="link" d="M53.78121830033982,-208.21499690984479C10.349948527404845,-214.79940164142812 -12.86396702163983,-81.53746374456217 -29.163987024073606,-77.22241580195023" style="stroke: rgb(148, 103, 189); stroke-opacity: 0.4;"/><path class="link" d="M38.14035897462998,-137.36915799920487C-90.31829105646433,-110.30674889943928 -167.4827507890535,12.116765033445606 -86.57205147512617,143.8838688322358" style="stroke: rgb(140, 86, 75); stroke-opacity: 0.4;"/><path class="link" d="M66.96144746775836,-187.478123576181C-77.01310373045003,-183.57795107372263 -87.64964582921846,-40.551044289684405 -92.06199321447565,29.179393625454534" style="stroke: rgb(23, 190, 207); stroke-opacity: 0.4;"/><path class="link" d="M143.76014922547992,-63.38511160187294C45.66419260701857,-150.33108258661366 -73.66502520871946,-116.0157629102317 -135.9959524890466,-19.7811549016064" style="stroke: rgb(127, 127, 127); stroke-opacity: 0.4;"/><path class="link" d="M145.38606404245655,64.10199171562103C65.8472820662528,144.60397091419782 -40.23650835448133,129.65161156520364 -116.31979601908573,69.98729913414986" style="stroke: rgb(44, 160, 44); stroke-opacity: 0.4;"/><path class="link" d="M138.56529696041852,-169.23136209955075C-15.782535206634996,-218.15248571182852 -125.91045948988385,-115.02764538933711 -170.51487546305628,3.0790028559877953" style="stroke: rgb(148, 103, 189); stroke-opacity: 0.4;"/><path class="link" d="M132.0972768841161,-34.12027274894716C97.33946117791784,-95.59766142670023 52.92486247910223,-190.6181271344075 -49.47478816850341,-191.54257175975982" style="stroke: rgb(227, 119, 194); stroke-opacity: 0.4;"/><path class="link" d="M-86.57205147512617,143.8838688322358C-162.8342573055952,41.01575861152821 -170.12194411225366,-100.9694785176603 -49.47478816850341,-191.54257175975982" style="stroke: rgb(140, 86, 75); stroke-opacity: 0.4;"/><path class="link" d="M130.71836734681224,-33.764105153227476C46.17564081618467,-126.86653047131482 -99.07640929194916,-138.81162823979457 -170.51487546305628,3.0790028559877953" style="stroke: rgb(31, 119, 180); stroke-opacity: 0.4;"/><path class="link" d="M-66.68019627423038,106.42535368198439C-97.64855655119433,78.97698326078022 -160.25769051735142,58.32902916056106 -170.51487546305628,3.0790028559877953" style="stroke: rgb(255, 127, 14); stroke-opacity: 0.4;"/><path class="link" d="M-66.68019627423038,106.42535368198439C-89.60291690811326,87.9995554708267 -82.75150074529586,49.789926002884116 -92.06199321447565,29.179393625454534" style="stroke: rgb(255, 127, 14); stroke-opacity: 0.4;"/><path class="link" d="M138.56529696041852,-169.23136209955075C1.3163473306971778,-218.71868386012017 -103.36352715475556,-129.38540233660012 -161.73202360927382,-35.59991043422826" style="stroke: rgb(148, 103, 189); stroke-opacity: 0.4;"/><path class="link" d="M38.14035897462998,-137.36915799920487C-61.41482517508706,-128.65920799086882 -88.6003606499538,-38.42946395240892 -92.06199321447565,29.179393625454534" style="stroke: rgb(148, 103, 189); stroke-opacity: 0.4;"/><path class="link" d="M66.96144746775836,-187.478123576181C-77.01310373045003,-183.57795107372263 -87.64964582921846,-40.551044289684405 -92.06199321447565,29.179393625454534" style="stroke: rgb(23, 190, 207); stroke-opacity: 0.4;"/><path class="link" d="M107.91032406828127,17.690999661683414C94.03565949317382,-55.81132728429805 27.296701868570075,-77.90205201744067 -29.163987024073606,-77.22241580195023" style="stroke: rgb(23, 190, 207); stroke-opacity: 0.4;"/><path class="link" d="M130.71836734681224,-33.764105153227476C55.95015880578811,-122.86938629382603 -74.02579227382518,-148.13771687827602 -161.73202360927382,-35.59991043422826" style="stroke: rgb(31, 119, 180); stroke-opacity: 0.4;"/><path class="link" d="M-83.4864262291875,-31.529666949020825C-71.36854272144944,-53.57830131923173 -49.55830605418129,-66.01374055808174 -29.163987024073606,-77.22241580195023" style="stroke: rgb(31, 119, 180); stroke-opacity: 0.4;"/><path class="link" d="M72.47589148155716,-3.929528655864969C72.2027812773763,7.413124666095388 153.59943710883246,40.66184795993227 145.38606404245655,64.10199171562103" style="stroke: rgb(44, 160, 44); stroke-opacity: 0.4;"/><path class="link" d="M132.0972768841161,-34.12027274894712C135.54170002323852,-15.566988387989634 109.31917036838139,2.632204308174212 107.91032406828126,17.690999661683442" style="stroke: rgb(31, 119, 180); stroke-opacity: 0.4;"/><path class="link" d="M143.76014922547992,-63.38511160187294C49.26960808857376,-149.18833264338232 -81.93724138434229,-143.91278455370045 -161.73202360927382,-35.59991043422826" style="stroke: rgb(127, 127, 127); stroke-opacity: 0.4;"/><path class="link" d="M66.96144746775836,-187.478123576181C-72.57185073552473,-185.37855525233732 -59.95514032970433,-31.325414193752643 -65.79058334271386,15.732119049578785" style="stroke: rgb(23, 190, 207); stroke-opacity: 0.4;"/><path class="link" d="M40.660590895148566,184.72292672676053C-37.318948359271886,185.42691121787252 -78.1982338845458,110.96645080091803 -116.31979601908573,69.98729913414986" style="stroke: rgb(188, 189, 34); stroke-opacity: 0.4;"/><path class="link" d="M53.78121830033982,-208.21499690984479C-138.23058156551903,-164.7367921870942 -167.40679479719267,13.124513799549439 -86.57205147512617,143.8838688322358" style="stroke: rgb(140, 86, 75); stroke-opacity: 0.4;"/><path class="link" d="M72.47589148155716,-3.929528655864969C56.708229062015114,45.30312128489314 21.06355659219369,123.81006043610837 -66.68019627423038,106.42535368198439" style="stroke: rgb(255, 127, 14); stroke-opacity: 0.4;"/><path class="link" d="M-86.45656866567457,-47.855660897377554C-77.57545064089051,-61.212351721119596 -30.18800659527103,-33.044106646092914 -24.44438402336458,-37.492676830986184" style="stroke: rgb(140, 86, 75); stroke-opacity: 0.4;"/><path class="link" d="M130.71836734681224,-33.76410515322745C103.42254321849899,86.78181787005882 -10.610228793564618,135.33639581045043 -116.31979601908573,69.98729913414986" style="stroke: rgb(227, 119, 194); stroke-opacity: 0.4;"/><path class="link" d="M130.71836734681224,-33.76410515322745C96.32337428695192,94.59975647215018 -22.4603428769382,93.92752847180505 -92.06199321447565,29.179393625454534" style="stroke: rgb(148, 103, 189); stroke-opacity: 0.4;"/><path class="link" d="M107.91032406828127,17.690999661683414C70.79224381631663,-83.34307244757866 -52.877529874314305,-156.93491618523512 -161.73202360927382,-35.59991043422826" style="stroke: rgb(188, 189, 34); stroke-opacity: 0.4;"/><path class="link" d="M145.38606404245655,64.10199171562103C20.02809448870877,157.62312137125753 -70.05817045182503,55.280702015990826 -83.4864262291875,-31.529666949020825" style="stroke: rgb(44, 160, 44); stroke-opacity: 0.4;"/><path class="link" d="M132.0972768841161,-34.12027274894716C46.662734044205365,-128.20480811647096 -99.07640929194916,-138.81162823979457 -170.51487546305628,3.0790028559877953" style="stroke: rgb(31, 119, 180); stroke-opacity: 0.4;"/><path class="link" d="M66.96144746775836,-187.478123576181C28.655090178337367,-197.00448744506943 -10.710245902936254,-197.53886223566153 -49.47478816850341,-191.54257175975982" style="stroke: rgb(23, 190, 207); stroke-opacity: 0.4;"/><path class="link" d="M-170.51487546305628,3.0790028559877953C-161.9401030747642,-53.480894054825946 -35.467431844732324,-27.30000008376844 -24.44438402336458,-37.492676830986184" style="stroke: rgb(31, 119, 180); stroke-opacity: 0.4;"/><path class="link" d="M40.660590895148566,184.72292672676053C-123.31528118287956,143.4196107135636 -44.65939930809596,-2.9608748157474176 -24.44438402336458,-37.492676830986184" style="stroke: rgb(188, 189, 34); stroke-opacity: 0.4;"/><path class="link" d="M138.56529696041855,-169.23136209955072C163.24536603992618,-145.56972867422934 132.12579592608742,-85.01427485435636 143.76014922547992,-63.38511160187294" style="stroke: rgb(127, 127, 127); stroke-opacity: 0.4;"/><path class="link" d="M138.56529696041855,-169.23136209955072C196.8168621284828,-95.40816643084605 158.8645457973368,-2.868631777121217 145.38606404245655,64.10199171562103" style="stroke: rgb(148, 103, 189); stroke-opacity: 0.4;"/><path class="link" d="M143.76014922547992,-63.38511160187294C146.98091334455577,-55.509134298008426 128.69870579749872,-40.791536924504626 130.71836734681224,-33.76410515322745" style="stroke: rgb(31, 119, 180); stroke-opacity: 0.4;"/><path class="link" d="M-161.73202360927382,-35.59991043422826C-159.83123425947235,-43.34256151601383 -84.90715138808385,-27.475059701459315 -83.4864262291875,-31.529666949020825" style="stroke: rgb(188, 189, 34); stroke-opacity: 0.4;"/><path class="link" d="M-24.44438402336458,-37.492676830986184C-20.24741857983202,-39.91579595958927 -69.89415968554341,-185.07057546382887 -49.47478816850341,-191.54257175975982" style="stroke: rgb(227, 119, 194); stroke-opacity: 0.4;"/><path class="link" d="M-86.45656866567457,-47.855660897377554C-70.50248064195522,-69.24090386973602 -98.91449775015427,-171.32493570842442 -49.47478816850341,-191.54257175975982" style="stroke: rgb(127, 127, 127); stroke-opacity: 0.4;"/><path class="link" d="M-116.31979601908573,69.98729913414986C-130.12652472965712,38.673046787092254 -165.4957893446444,5.978694913512693 -161.73202360927382,-35.59991043422826" style="stroke: rgb(188, 189, 34); stroke-opacity: 0.4;"/><path class="link" d="M53.78121830033982,-208.21499690984479C-50.013307899521,-209.15203420713647 -58.99250098986697,-66.96258723644337 -83.4864262291875,-31.529666949020825" style="stroke: rgb(148, 103, 189); stroke-opacity: 0.4;"/><path class="link" d="M143.76014922547992,-63.38511160187294C56.3927101754994,-146.64417859968486 -36.49407758955555,-81.43884554268462 -83.4864262291875,-31.529666949020825" style="stroke: rgb(127, 127, 127); stroke-opacity: 0.4;"/><path class="link" d="M130.71836734681224,-33.76410515322745C96.32337428695192,94.59975647215018 -22.4603428769382,93.92752847180505 -92.06199321447565,29.179393625454534" style="stroke: rgb(31, 119, 180); stroke-opacity: 0.4;"/><path class="link" d="M-161.73202360927382,-35.59991043422826C-138.17707508354047,-91.27812993830122 -114.92834189070194,-161.02107840563903 -49.47478816850341,-191.54257175975982" style="stroke: rgb(227, 119, 194); stroke-opacity: 0.4;"/><path class="link" d="M53.78121830033982,-208.21499690984479C-109.75815696946799,-184.9298552389557 -131.6398269551023,-33.15830130216885 -116.31979601908573,69.98729913414986" style="stroke: rgb(148, 103, 189); stroke-opacity: 0.4;"/><path class="link" d="M107.91032406828127,17.690999661683414C89.7633101747296,-62.45124222965026 8.566563045982413,-43.92997523119832 -24.44438402336458,-37.492676830986184" style="stroke: rgb(23, 190, 207); stroke-opacity: 0.4;"/><path class="link" d="M53.78121830033982,-208.21499690984479C-44.9642797696722,-210.29531122882915 -97.66640826471759,-122.25402785628282 -142.01387592788276,-65.70261543009677" style="stroke: rgb(148, 103, 189); stroke-opacity: 0.4;"/><path class="link" d="M107.91032406828126,17.690999661683442C39.24927491467549,102.06421472888228 -85.77670808227958,107.37108331954072 -135.9959524890466,-19.7811549016064" style="stroke: rgb(23, 190, 207); stroke-opacity: 0.4;"/><path class="link" d="M138.56529696041852,-169.23136209955075C72.32825233022675,-206.4175848968621 -0.9935616786805073,-82.54000531027536 -29.163987024073606,-77.22241580195023" style="stroke: rgb(31, 119, 180); stroke-opacity: 0.4;"/><path class="link" d="M38.14035897463008,-137.36915799920487C41.435945665945304,-136.4112713777457 62.429225207934536,-189.03564242375074 66.9614474677584,-187.478123576181" style="stroke: rgb(140, 86, 75); stroke-opacity: 0.4;"/><path class="link" d="M107.91032406828126,17.690999661683442C39.24927491467549,102.06421472888228 -85.77670808227958,107.37108331954072 -135.9959524890466,-19.7811549016064" style="stroke: rgb(214, 39, 40); stroke-opacity: 0.4;"/><path class="link" d="M53.78121830033982,-208.21499690984479C-44.9642797696722,-210.29531122882915 -97.66640826471759,-122.25402785628282 -142.01387592788276,-65.70261543009677" style="stroke: rgb(44, 160, 44); stroke-opacity: 0.4;"/><path class="link" d="M-66.68019627423038,106.42535368198439C-82.4508463412011,94.73363932165279 -103.99181548982642,87.25949402296914 -116.31979601908573,69.98729913414986" style="stroke: rgb(255, 127, 14); stroke-opacity: 0.4;"/><path class="link" d="M-66.68019627423038,106.42535368198439C-122.14541261111306,29.207921178445698 -169.51119444846498,-101.99150169163958 -49.47478816850341,-191.54257175975982" style="stroke: rgb(227, 119, 194); stroke-opacity: 0.4;"/><path class="link" d="M130.71836734681224,-33.76410515322745C96.32337428695192,94.59975647215018 -22.4603428769382,93.92752847180505 -92.06199321447565,29.179393625454534" style="stroke: rgb(31, 119, 180); stroke-opacity: 0.4;"/><path class="link" d="M138.56529696041855,-169.23136209955072C138.56529696041855,-169.23136209955072 138.56529696041855,-169.23136209955072 138.56529696041855,-169.23136209955072" style="stroke: rgb(148, 103, 189); stroke-opacity: 0.4;"/><path class="link" d="M130.71836734681224,-33.76410515322745C103.42254321849899,86.78181787005882 -10.610228793564618,135.33639581045043 -116.31979601908573,69.98729913414986" style="stroke: rgb(227, 119, 194); stroke-opacity: 0.4;"/><circle class="node" transform="rotate(255.51724137931035)" cx="197.82899550030837" r="5" style="fill: rgb(227, 119, 194);"/><circle class="node" transform="rotate(188.27586206896547)" cx="137.42704676534515" r="5" style="fill: rgb(214, 39, 40);"/><circle class="node" transform="rotate(-75.51724137931035)" cx="215.0486093422496" r="5" style="fill: rgb(148, 103, 189);"/><circle class="node" transform="rotate(-14.482758620689651)" cx="136.43270712208778" r="5" style="fill: rgb(31, 119, 180);"/><circle class="node" transform="rotate(236.8965517241379)" cx="44.75744324952543" r="5" style="fill: rgb(140, 86, 75);"/><circle class="node" transform="rotate(-70.34482758620689)" cx="199.07757851305897" r="5" style="fill: rgb(23, 190, 207);"/><circle class="node" transform="rotate(121.03448275862067)" cx="167.92048060538636" r="5" style="fill: rgb(140, 86, 75);"/><circle class="node" transform="rotate(249.31034482758616)" cx="82.54598501095997" r="5" style="fill: rgb(31, 119, 180);"/><circle class="node" transform="rotate(-3.1034482758620783)" cx="72.58233973566651" r="5" style="fill: rgb(255, 127, 14);"/><circle class="node" transform="rotate(192.4137931034483)" cx="165.60374719092493" r="5" style="fill: rgb(188, 189, 34);"/><circle class="node" transform="rotate(204.82758620689657)" cx="156.47611520745033" r="5" style="fill: rgb(44, 160, 44);"/><circle class="node" transform="rotate(178.9655172413793)" cx="170.54267211688918" r="5" style="fill: rgb(31, 119, 180);"/><circle class="node" transform="rotate(77.58620689655172)" cx="189.14503247625294" r="5" style="fill: rgb(188, 189, 34);"/><circle class="node" transform="rotate(9.310344827586206)" cx="109.35085509291258" r="5" style="fill: rgb(23, 190, 207);"/><circle class="node" transform="rotate(23.793103448275858)" cx="158.8904432609678" r="5" style="fill: rgb(44, 160, 44);"/><circle class="node" transform="rotate(200.68965517241378)" cx="89.24182462521563" r="5" style="fill: rgb(214, 39, 40);"/><circle class="node" transform="rotate(-50.689655172413794)" cx="218.72264500914903" r="5" style="fill: rgb(148, 103, 189);"/><circle class="node" transform="rotate(-23.793103448275858)" cx="157.1135031692507" r="5" style="fill: rgb(127, 127, 127);"/><circle class="node" transform="rotate(-14.482758620689651)" cx="135.0085417987112" r="5" style="fill: rgb(31, 119, 180);"/><circle class="node" transform="rotate(148.96551724137933)" cx="135.7516739713168" r="5" style="fill: rgb(227, 119, 194);"/><circle class="node" transform="rotate(166.551724137931)" cx="67.64540210808639" r="5" style="fill: rgb(23, 190, 207);"/><circle class="node" transform="rotate(-74.48275862068965)" cx="142.56567802989665" r="5" style="fill: rgb(140, 86, 75);"/><circle class="node" transform="rotate(162.41379310344826)" cx="96.57560565158977" r="5" style="fill: rgb(148, 103, 189);"/><circle class="node" transform="rotate(122.06896551724137)" cx="125.58903010018572" r="5" style="fill: rgb(255, 127, 14);"/><circle class="node" transform="rotate(208.9655172413793)" cx="98.8175214492212" r="5" style="fill: rgb(127, 127, 127);"/></g></svg>