<?xml version="1.0" standalone="no"?><!DOCTYPE svg PUBLIC "-//W3C//DTD SVG 1.1//EN" "http://www.w3.org/Graphics/SVG/1.1/DTD/svg11.dtd"><svg width="641" height="778" version="1.1" xmlns="http://www.w3.org/2000/svg" xmlns:xlink="http://www.w3.org/1999/xlink"><defs xmlns="http://www.w3.org/1999/xhtml"><style type="text/css"><![CDATA[
.link { fill: none; stroke-width: 1.5px; }
.axis, .node { stroke: rgb(0, 0, 0); stroke-width: 1.5px; }]]></style></defs><g transform="translate(320.5,389)"><line class="axis" transform="rotate(-90)" x1="40" x2="240"/><line class="axis" transform="rotate(-18)" x1="40" x2="240"/><line class="axis" transform="rotate(54)" x1="40" x2="240"/><line class="axis" transform="rotate(126)" x1="40" x2="240"/><line class="axis" transform="rotate(198)" x1="40" x2="240"/><path class="link" d="M6.724942196665236e-15,-109.82664065014342C44.67051913833156,-100.33162869408474 91.79955490813705,-82.65669050402822 117.48257122330494,-38.17240135453702" style="stroke: rgb(255, 127, 14); stroke-opacity: 0.4;"/><path class="link" d="M1.331807305769512e-14,-217.50063882856153C1.331807305769512e-14,-217.50063882856153 6.724942196665236e-15,-109.82664065014342 6.724942196665236e-15,-109.82664065014342" style="stroke: rgb(31, 119, 180); stroke-opacity: 0.4;"/><path class="link" d="M117.48257122330494,-38.17240135453702C122.85178367831008,12.912242774533093 100.87435009635716,58.23983318246036 68.46503008124802,94.23402958834482" style="stroke: rgb(255, 127, 14); stroke-opacity: 0.4;"/><path class="link" d="M68.46503008124802,94.23402958834482C68.46503008124802,94.23402958834482 131.62396358671788,181.16484378151458 131.62396358671788,181.16484378151458" style="stroke: rgb(44, 160, 44); stroke-opacity: 0.4;"/><path class="link" d="M-2.0174826589995707e-14,-109.82664065014342C-44.67051913833154,-100.33162869408476 -133.89693056467695,-120.5613377995022 -171.3576465309445,-55.677474458020185" style="stroke: rgb(148, 103, 189); stroke-opacity: 0.4;"/><path class="link" d="M175.8292372175948,-57.13038234560457C75.19657609734357,-168.89427518632067 -73.28421888835025,-164.59905057008066 -171.3576465309445,-55.677474458020185" style="stroke: rgb(148, 103, 189); stroke-opacity: 0.4;"/><path class="link" d="M8.460138628390607e-15,-138.16454890146096C56.19658481226247,-126.21959605616865 100.83044452046623,-90.78814003457676 129.04005789251562,-41.927656412312814" style="stroke: rgb(255, 127, 14); stroke-opacity: 0.4;"/><path class="link" d="M53.848796564714725,74.1165100308036C-19.047423014792685,89.61107982336664 -156.03707296660528,90.08804608083082 -171.3576465309445,-55.677474458020185" style="stroke: rgb(44, 160, 44); stroke-opacity: 0.4;"/><path class="link" d="M228.25357484237256,-74.16408220185863C228.25357484237256,-74.16408220185863 129.04005789251562,-41.927656412312814 129.04005789251562,-41.927656412312814" style="stroke: rgb(255, 127, 14); stroke-opacity: 0.4;"/><path class="link" d="M1.331807305769512e-14,-217.50063882856153C1.331807305769512e-14,-217.50063882856153 1.0015106273668055e-14,-163.55909770296157 1.0015106273668055e-14,-163.55909770296157" style="stroke: rgb(31, 119, 180); stroke-opacity: 0.4;"/><path class="link" d="M129.04005789251562,-41.927656412312814C117.5029730894055,67.8403731437496 46.86341364604905,220.47502687214592 -132.48713097799785,182.35289177321263" style="stroke: rgb(255, 127, 14); stroke-opacity: 0.4;"/><path class="link" d="M1.322405839617832e-14,-215.96526288862103C1.322405839617832e-14,-215.96526288862103 1.331807305769512e-14,-217.50063882856153 1.331807305769512e-14,-217.50063882856153" style="stroke: rgb(31, 119, 180); stroke-opacity: 0.4;"/><path class="link" d="M1.331807305769512e-14,-217.50063882856153C161.6344742834731,-145.53633434279442 115.84157856510507,12.17544052705415 68.46503008124802,94.23402958834482" style="stroke: rgb(44, 160, 44); stroke-opacity: 0.4;"/><path class="link" d="M1.1071006814355011e-14,-180.80326216608867C1.1071006814355011e-14,-180.80326216608867 1.331807305769512e-14,-217.50063882856153 1.331807305769512e-14,-217.50063882856153" style="stroke: rgb(31, 119, 180); stroke-opacity: 0.4;"/><path class="link" d="M6.724942196665236e-15,-109.82664065014342C6.724942196665236e-15,-109.82664065014342 1.0015106273668055e-14,-163.55909770296157 1.0015106273668055e-14,-163.55909770296157" style="stroke: rgb(31, 119, 180); stroke-opacity: 0.4;"/><path class="link" d="M-132.48713097799785,182.35289177321263C-132.48713097799785,182.35289177321263 -115.18358887704804,158.53660926535352 -115.18358887704804,158.53660926535352" style="stroke: rgb(214, 39, 40); stroke-opacity: 0.4;"/><path class="link" d="M-3.967217518853496e-14,-215.96526288862103C-160.49346759854384,-144.50896730911322 -194.88852549216756,20.483609433909617 -115.18358887704804,158.53660926535352" style="stroke: rgb(31, 119, 180); stroke-opacity: 0.4;"/><path class="link" d="M117.48257122330494,-38.17240135453705C50.243561576577264,-112.84888695291357 -73.28421888835025,-164.59905057008066 -171.3576465309445,-55.677474458020185" style="stroke: rgb(255, 127, 14); stroke-opacity: 0.4;"/><path class="link" d="M1.1071006814355011e-14,-180.80326216608867C1.1071006814355011e-14,-180.80326216608867 6.724942196665236e-15,-109.82664065014342 6.724942196665236e-15,-109.82664065014342" style="stroke: rgb(31, 119, 180); stroke-opacity: 0.4;"/><path class="link" d="M129.04005789251562,-41.927656412312814C117.5029730894055,67.8403731437496 8.316470022467477,39.12591527227547 -23.51141684775953,32.36068907391758" style="stroke: rgb(214, 39, 40); stroke-opacity: 0.4;"/><path class="link" d="M129.04005789251562,-41.927656412312814C134.93747296282555,14.18249990444067 79.33922398763855,45.80652232655913 53.848796564714725,74.1165100308036" style="stroke: rgb(44, 160, 44); stroke-opacity: 0.4;"/><path class="link" d="M-2.7920326271648163e-14,-151.99117705386502C-61.820381132028636,-138.8508493993107 -133.89693056467695,-120.5613377995022 -171.3576465309445,-55.677474458020185" style="stroke: rgb(148, 103, 189); stroke-opacity: 0.4;"/><path class="link" d="M129.04005789251562,-41.927656412312814C117.5029730894055,67.8403731437496 40.74279615639035,191.67978554169719 -115.18358887704804,158.53660926535352" style="stroke: rgb(255, 127, 14); stroke-opacity: 0.4;"/><path class="link" d="M129.04005789251562,-41.927656412312814C129.04005789251562,-41.927656412312814 175.8292372175948,-57.13038234560453 175.8292372175948,-57.13038234560453" style="stroke: rgb(255, 127, 14); stroke-opacity: 0.4;"/><path class="link" d="M129.04005789251562,-41.927656412312814C129.04005789251562,-41.927656412312814 136.08077810845526,-44.215325086136815 136.08077810845526,-44.215325086136815" style="stroke: rgb(255, 127, 14); stroke-opacity: 0.4;"/><path class="link" d="M-3.004531882100416e-14,-163.55909770296157C-121.54809711770744,-109.44239822149041 -194.88852549216756,20.483609433909617 -115.18358887704804,158.53660926535352" style="stroke: rgb(31, 119, 180); stroke-opacity: 0.4;"/><path class="link" d="M6.724942196665236e-15,-109.82664065014342C44.67051913833156,-100.33162869408474 137.39098104800894,-123.70739498567511 175.8292372175948,-57.13038234560453" style="stroke: rgb(255, 127, 14); stroke-opacity: 0.4;"/><path class="link" d="M175.8292372175948,-57.13038234560453C160.10887213270584,92.43890042546506 40.74279615639035,191.67978554169719 -115.18358887704804,158.53660926535352" style="stroke: rgb(255, 127, 14); stroke-opacity: 0.4;"/><path class="link" d="M53.848796564714725,74.1165100308036C53.848796564714725,74.1165100308036 68.46503008124802,94.23402958834482 68.46503008124802,94.23402958834482" style="stroke: rgb(44, 160, 44); stroke-opacity: 0.4;"/><path class="link" d="M-23.51141684775953,32.36068907391758C-34.6410261055574,20.000005747048416 -179.18906867666445,18.833530031229646 -171.3576465309445,-55.677474458020185" style="stroke: rgb(148, 103, 189); stroke-opacity: 0.4;"/><path class="link" d="M9.306775423882721e-15,-151.99117705386502C9.306775423882721e-15,-151.99117705386502 1.0015106273668055e-14,-163.55909770296157 1.0015106273668055e-14,-163.55909770296157" style="stroke: rgb(31, 119, 180); stroke-opacity: 0.4;"/><path class="link" d="M1.331807305769512e-14,-217.50063882856153C88.46547970397117,-198.6967206361963 100.83044452046623,-90.78814003457676 129.04005789251562,-41.927656412312814" style="stroke: rgb(255, 127, 14); stroke-opacity: 0.4;"/><path class="link" d="M68.46503008124802,94.23402958834482C-24.217484379819133,113.93430618912137 -156.03707296660528,90.08804608083082 -171.3576465309445,-55.677474458020185" style="stroke: rgb(148, 103, 189); stroke-opacity: 0.4;"/><path class="link" d="M-2.0174826589995707e-14,-109.82664065014342C-81.61709969871933,-73.48836665258689 -224.16580221815542,23.560775214856168 -132.48713097799785,182.35289177321263" style="stroke: rgb(214, 39, 40); stroke-opacity: 0.4;"/><path class="link" d="M-3.967217518853496e-14,-215.96526288862103C-87.8409860483004,-197.29408492048992 -133.89693056467695,-120.5613377995022 -171.3576465309445,-55.677474458020185" style="stroke: rgb(148, 103, 189); stroke-opacity: 0.4;"/><path class="link" d="M6.940287790932553e-15,-113.34350109377907C84.23063633933329,-75.8416056137163 115.84157856510507,12.17544052705415 68.46503008124802,94.23402958834482" style="stroke: rgb(31, 119, 180); stroke-opacity: 0.4;"/><path class="link" d="M1.322405839617832e-14,-215.96526288862103C1.322405839617832e-14,-215.96526288862103 6.724942196665236e-15,-109.82664065014342 6.724942196665236e-15,-109.82664065014342" style="stroke: rgb(31, 119, 180); stroke-opacity: 0.4;"/><path class="link" d="M129.04005789251562,-41.92765641231284C55.18633127499672,-123.95052946050313 -73.28421888835025,-164.59905057008066 -171.3576465309445,-55.677474458020185" style="stroke: rgb(148, 103, 189); stroke-opacity: 0.4;"/><path class="link" d="M-3.995421917308536e-14,-217.50063882856153C-161.6344742834731,-145.53633434279442 -194.88852549216756,20.483609433909617 -115.18358887704804,158.53660926535352" style="stroke: rgb(31, 119, 180); stroke-opacity: 0.4;"/><path class="link" d="M-3.004531882100416e-14,-163.55909770296157C-121.54809711770744,-109.44239822149041 -39.780887245861905,4.181139732166429 -23.51141684775953,32.36068907391758" style="stroke: rgb(214, 39, 40); stroke-opacity: 0.4;"/><path class="link" d="M1.331807305769512e-14,-217.50063882856153C1.331807305769512e-14,-217.50063882856153 8.460138628390607e-15,-138.16454890146096 8.460138628390607e-15,-138.16454890146096" style="stroke: rgb(31, 119, 180); stroke-opacity: 0.4;"/><path class="link" d="M117.48257122330494,-38.17240135453702C117.48257122330494,-38.17240135453702 129.04005789251562,-41.927656412312814 129.04005789251562,-41.927656412312814" style="stroke: rgb(255, 127, 14); stroke-opacity: 0.4;"/><path class="link" d="M68.46503008124802,94.23402958834482C24.217484379819172,113.93430618912136 -8.316470022467481,39.12591527227547 -23.51141684775953,32.36068907391758" style="stroke: rgb(44, 160, 44); stroke-opacity: 0.4;"/><path class="link" d="M6.724942196665236e-15,-109.82664065014342C44.67051913833156,-100.33162869408474 100.83044452046623,-90.78814003457676 129.04005789251562,-41.927656412312814" style="stroke: rgb(255, 127, 14); stroke-opacity: 0.4;"/><path class="link" d="M1.1071006814355011e-14,-180.80326216608867C1.1071006814355011e-14,-180.80326216608867 1.0015106273668055e-14,-163.55909770296157 1.0015106273668055e-14,-163.55909770296157" style="stroke: rgb(31, 119, 180); stroke-opacity: 0.4;"/><path class="link" d="M6.724942196665236e-15,-109.82664065014342C81.61709969871933,-73.48836665258689 115.84157856510507,12.17544052705415 68.46503008124802,94.23402958834482" style="stroke: rgb(44, 160, 44); stroke-opacity: 0.4;"/><path class="link" d="M-3.681541067549482e-14,-200.41376120923C-148.9364495971014,-134.10298156059147 -194.88852549216756,20.483609433909617 -115.18358887704804,158.53660926535352" style="stroke: rgb(31, 119, 180); stroke-opacity: 0.4;"/><path class="link" d="M6.940287790932553e-15,-113.34350109377907C6.940287790932553e-15,-113.34350109377907 1.331807305769512e-14,-217.50063882856153 1.331807305769512e-14,-217.50063882856153" style="stroke: rgb(31, 119, 180); stroke-opacity: 0.4;"/><path class="link" d="M-23.51141684775953,32.36068907391758C-23.51141684775953,32.36068907391758 -115.18358887704804,158.53660926535352 -115.18358887704804,158.53660926535352" style="stroke: rgb(214, 39, 40); stroke-opacity: 0.4;"/><path class="link" d="M-3.995421917308536e-14,-217.50063882856153C-161.6344742834731,-145.53633434279442 -224.16580221815542,23.560775214856168 -132.48713097799785,182.35289177321263" style="stroke: rgb(214, 39, 40); stroke-opacity: 0.4;"/><path class="link" d="M-2.0174826589995707e-14,-109.82664065014342C-81.61709969871933,-73.48836665258689 -194.88852549216756,20.483609433909617 -115.18358887704804,158.53660926535352" style="stroke: rgb(214, 39, 40); stroke-opacity: 0.4;"/><path class="link" d="M9.306775423882721e-15,-151.99117705386502C9.306775423882721e-15,-151.99117705386502 1.331807305769512e-14,-217.50063882856153 1.331807305769512e-14,-217.50063882856153" style="stroke: rgb(31, 119, 180); stroke-opacity: 0.4;"/><path class="link" d="M1.2271803558498274e-14,-200.41376120923C1.2271803558498274e-14,-200.41376120923 1.331807305769512e-14,-217.50063882856153 1.331807305769512e-14,-217.50063882856153" style="stroke: rgb(31, 119, 180); stroke-opacity: 0.4;"/><path class="link" d="M9.306775423882721e-15,-151.99117705386502C112.95145674579824,-101.70194846324928 115.84157856510507,12.17544052705415 68.46503008124802,94.23402958834482" style="stroke: rgb(44, 160, 44); stroke-opacity: 0.4;"/><circle class="node" transform="rotate(54)" cx="223.93206204708207" r="5" style="fill: rgb(44, 160, 44);"/><circle class="node" transform="rotate(-90)" cx="113.34350109377907" r="5" style="fill: rgb(31, 119, 180);"/><circle class="node" transform="rotate(-18)" cx="240.00001149409684" r="5" style="fill: rgb(255, 127, 14);"/><circle class="node" transform="rotate(-90)" cx="200.41376120923" r="5" style="fill: rgb(31, 119, 180);"/><circle class="node" transform="rotate(-18)" cx="143.08379762599048" r="5" style="fill: rgb(255, 127, 14);"/><circle class="node" transform="rotate(54)" cx="91.61304465311827" r="5" style="fill: rgb(44, 160, 44);"/><circle class="node" transform="rotate(-90)" cx="180.80326216608867" r="5" style="fill: rgb(31, 119, 180);"/><circle class="node" transform="rotate(-18)" cx="184.87780085093016" r="5" style="fill: rgb(255, 127, 14);"/><circle class="node" transform="rotate(-90)" cx="138.16454890146096" r="5" style="fill: rgb(31, 119, 180);"/><circle class="node" transform="rotate(126)" cx="40.00001149409684" r="5" style="fill: rgb(214, 39, 40);"/><circle class="node" transform="rotate(-90)" cx="151.99117705386502" r="5" style="fill: rgb(31, 119, 180);"/><circle class="node" transform="rotate(-90)" cx="215.96526288862103" r="5" style="fill: rgb(31, 119, 180);"/><circle class="node" transform="rotate(-18)" cx="123.52848564768686" r="5" style="fill: rgb(255, 127, 14);"/><circle class="node" transform="rotate(198)" cx="180.17609216166167" r="5" style="fill: rgb(148, 103, 189);"/><circle class="node" transform="rotate(54)" cx="116.47966636492072" r="5" style="fill: rgb(44, 160, 44);"/><circle class="node" transform="rotate(126)" cx="195.96202597429993" r="5" style="fill: rgb(214, 39, 40);"/><circle class="node" transform="rotate(-90)" cx="109.82664065014342" r="5" style="fill: rgb(31, 119, 180);"/><circle class="node" transform="rotate(-90)" cx="217.50063882856153" r="5" style="fill: rgb(31, 119, 180);"/><circle class="node" transform="rotate(-90)" cx="163.55909770296157" r="5" style="fill: rgb(31, 119, 180);"/><circle class="node" transform="rotate(126)" cx="225.40057012535297" r="5" style="fill: rgb(214, 39, 40);"/><circle class="node" transform="rotate(-18)" cx="135.68074628749923" r="5" style="fill: rgb(255, 127, 14);"/></g></svg>